%TF.GenerationSoftware,KiCad,Pcbnew,8.0.8*%
%TF.CreationDate,2025-02-28T15:56:21+01:00*%
%TF.ProjectId,nervous-eda,6e657276-6f75-4732-9d65-64612e6b6963,1.0*%
%TF.SameCoordinates,Original*%
%TF.FileFunction,Drillmap*%
%TF.FilePolarity,Positive*%
%FSLAX45Y45*%
G04 Gerber Fmt 4.5, Leading zero omitted, Abs format (unit mm)*
G04 Created by KiCad (PCBNEW 8.0.8) date 2025-02-28 15:56:21*
%MOMM*%
%LPD*%
G01*
G04 APERTURE LIST*
%ADD10C,0.254000*%
%ADD11C,0.200000*%
%ADD12C,0.100000*%
G04 APERTURE END LIST*
D10*
X5498700Y-2200800D02*
X3301300Y-2200000D01*
X3100000Y-3800000D02*
X3100000Y-5998703D01*
X3300000Y-6200003D02*
G75*
G02*
X3100001Y-5998703I0J200003D01*
G01*
X3100000Y-2400000D02*
G75*
G02*
X3301300Y-2200000I200007J-3D01*
G01*
X3100000Y-3500000D02*
X3100000Y-2400000D01*
X5701300Y-6000003D02*
G75*
G02*
X5500000Y-6200006I-200010J3D01*
G01*
X5698700Y-2402100D02*
X5701300Y-6000003D01*
X5498700Y-2200800D02*
G75*
G02*
X5698696Y-2402100I-10J-200010D01*
G01*
X3400000Y-3800000D02*
X3100000Y-3800000D01*
X3400000Y-3500000D02*
X3400000Y-3800000D01*
X5500000Y-6200003D02*
X3300000Y-6200003D01*
X3100000Y-3500000D02*
X3400000Y-3500000D01*
D11*
D12*
X3161300Y-4735003D02*
X3191300Y-4765003D01*
X3191300Y-4735003D02*
X3161300Y-4765003D01*
X3177500Y-4517500D02*
X3207500Y-4547500D01*
X3207500Y-4517500D02*
X3177500Y-4547500D01*
X3185000Y-5325000D02*
X3215000Y-5355000D01*
X3215000Y-5325000D02*
X3185000Y-5355000D01*
X3188950Y-5075003D02*
X3218950Y-5105003D01*
X3218950Y-5075003D02*
X3188950Y-5105003D01*
X3201300Y-5210003D02*
X3231300Y-5240003D01*
X3231300Y-5210003D02*
X3201300Y-5240003D01*
X3295000Y-5625000D02*
X3325000Y-5655000D01*
X3325000Y-5625000D02*
X3295000Y-5655000D01*
X3375000Y-5715000D02*
X3405000Y-5745000D01*
X3405000Y-5715000D02*
X3375000Y-5745000D01*
X3516300Y-4135003D02*
X3546300Y-4165003D01*
X3546300Y-4135003D02*
X3516300Y-4165003D01*
X3525000Y-5242653D02*
X3555000Y-5272653D01*
X3555000Y-5242653D02*
X3525000Y-5272653D01*
X3526300Y-4735003D02*
X3556300Y-4765003D01*
X3556300Y-4735003D02*
X3526300Y-4765003D01*
X3611300Y-4330003D02*
X3641300Y-4360003D01*
X3641300Y-4330003D02*
X3611300Y-4360003D01*
X3665000Y-2522500D02*
X3695000Y-2552500D01*
X3695000Y-2522500D02*
X3665000Y-2552500D01*
X3697500Y-5127353D02*
X3727500Y-5157353D01*
X3727500Y-5127353D02*
X3697500Y-5157353D01*
X3704000Y-5358053D02*
X3734000Y-5388053D01*
X3734000Y-5358053D02*
X3704000Y-5388053D01*
X3735000Y-2590000D02*
X3765000Y-2620000D01*
X3765000Y-2590000D02*
X3735000Y-2620000D01*
X3775000Y-5242500D02*
X3805000Y-5272500D01*
X3805000Y-5242500D02*
X3775000Y-5272500D01*
X3782500Y-5358053D02*
X3812500Y-5388053D01*
X3812500Y-5358053D02*
X3782500Y-5388053D01*
X3820000Y-4885000D02*
X3850000Y-4915000D01*
X3850000Y-4885000D02*
X3820000Y-4915000D01*
X3845000Y-2265000D02*
X3875000Y-2295000D01*
X3875000Y-2265000D02*
X3845000Y-2295000D01*
X3870765Y-2489235D02*
X3900765Y-2519235D01*
X3900765Y-2489235D02*
X3870765Y-2519235D01*
X3881300Y-4710003D02*
X3911300Y-4740003D01*
X3911300Y-4710003D02*
X3881300Y-4740003D01*
X3881300Y-4825003D02*
X3911300Y-4855003D01*
X3911300Y-4825003D02*
X3881300Y-4855003D01*
X3885000Y-3735000D02*
X3915000Y-3765000D01*
X3915000Y-3735000D02*
X3885000Y-3765000D01*
X3931299Y-4330001D02*
X3961299Y-4360001D01*
X3961299Y-4330001D02*
X3931299Y-4360001D01*
X4070000Y-5160000D02*
X4100000Y-5190000D01*
X4100000Y-5160000D02*
X4070000Y-5190000D01*
X4095000Y-2935000D02*
X4125000Y-2965000D01*
X4125000Y-2935000D02*
X4095000Y-2965000D01*
X4096300Y-2810003D02*
X4126300Y-2840003D01*
X4126300Y-2810003D02*
X4096300Y-2840003D01*
X4101300Y-3265003D02*
X4131300Y-3295003D01*
X4131300Y-3265003D02*
X4101300Y-3295003D01*
X4117500Y-3572500D02*
X4147500Y-3602500D01*
X4147500Y-3572500D02*
X4117500Y-3602500D01*
X4120000Y-3460000D02*
X4150000Y-3490000D01*
X4150000Y-3460000D02*
X4120000Y-3490000D01*
X4181300Y-4355000D02*
X4211300Y-4385000D01*
X4211300Y-4355000D02*
X4181300Y-4385000D01*
X4302500Y-2852500D02*
X4332500Y-2882500D01*
X4332500Y-2852500D02*
X4302500Y-2882500D01*
X4305000Y-2425000D02*
X4335000Y-2455000D01*
X4335000Y-2425000D02*
X4305000Y-2455000D01*
X4307500Y-3190000D02*
X4337500Y-3220000D01*
X4337500Y-3190000D02*
X4307500Y-3220000D01*
X4350000Y-5160000D02*
X4380000Y-5190000D01*
X4380000Y-5160000D02*
X4350000Y-5190000D01*
X4382500Y-4310000D02*
X4412500Y-4340000D01*
X4412500Y-4310000D02*
X4382500Y-4340000D01*
X4401300Y-5405003D02*
X4431300Y-5435003D01*
X4431300Y-5405003D02*
X4401300Y-5435003D01*
X4451300Y-3205003D02*
X4481300Y-3235003D01*
X4481300Y-3205003D02*
X4451300Y-3235003D01*
X4456300Y-3005003D02*
X4486300Y-3035003D01*
X4486300Y-3005003D02*
X4456300Y-3035003D01*
X4456300Y-3130003D02*
X4486300Y-3160003D01*
X4486300Y-3130003D02*
X4456300Y-3160003D01*
X4461300Y-2745003D02*
X4491300Y-2775003D01*
X4491300Y-2745003D02*
X4461300Y-2775003D01*
X4470000Y-3612500D02*
X4500000Y-3642500D01*
X4500000Y-3612500D02*
X4470000Y-3642500D01*
X4516300Y-4795003D02*
X4546300Y-4825003D01*
X4546300Y-4795003D02*
X4516300Y-4825003D01*
X4607500Y-4812500D02*
X4637500Y-4842500D01*
X4637500Y-4812500D02*
X4607500Y-4842500D01*
X4620000Y-4045000D02*
X4650000Y-4075000D01*
X4650000Y-4045000D02*
X4620000Y-4075000D01*
X4622500Y-3955000D02*
X4652500Y-3985000D01*
X4652500Y-3955000D02*
X4622500Y-3985000D01*
X4622500Y-4140000D02*
X4652500Y-4170000D01*
X4652500Y-4140000D02*
X4622500Y-4170000D01*
X4641300Y-4475003D02*
X4671300Y-4505003D01*
X4671300Y-4475003D02*
X4641300Y-4505003D01*
X4641300Y-5410003D02*
X4671300Y-5440003D01*
X4671300Y-5410003D02*
X4641300Y-5440003D01*
X4655000Y-4352500D02*
X4685000Y-4382500D01*
X4685000Y-4352500D02*
X4655000Y-4382500D01*
X4687500Y-4252500D02*
X4717500Y-4282500D01*
X4717500Y-4252500D02*
X4687500Y-4282500D01*
X4706300Y-4810003D02*
X4736300Y-4840003D01*
X4736300Y-4810003D02*
X4706300Y-4840003D01*
X4816300Y-3754953D02*
X4846300Y-3784953D01*
X4846300Y-3754953D02*
X4816300Y-3784953D01*
X4817378Y-3370232D02*
X4847378Y-3400232D01*
X4847378Y-3370232D02*
X4817378Y-3400232D01*
X4817650Y-3280003D02*
X4847650Y-3310003D01*
X4847650Y-3280003D02*
X4817650Y-3310003D01*
X4831300Y-3620003D02*
X4861300Y-3650003D01*
X4861300Y-3620003D02*
X4831300Y-3650003D01*
X4835000Y-2925000D02*
X4865000Y-2955000D01*
X4865000Y-2925000D02*
X4835000Y-2955000D01*
X4835535Y-3534238D02*
X4865535Y-3564238D01*
X4865535Y-3534238D02*
X4835535Y-3564238D01*
X4838886Y-3442145D02*
X4868886Y-3472145D01*
X4868886Y-3442145D02*
X4838886Y-3472145D01*
X5036300Y-3315003D02*
X5066300Y-3345003D01*
X5066300Y-3315003D02*
X5036300Y-3345003D01*
X5056300Y-4815003D02*
X5086300Y-4845003D01*
X5086300Y-4815003D02*
X5056300Y-4845003D01*
X5065000Y-2292300D02*
X5095000Y-2322300D01*
X5095000Y-2292300D02*
X5065000Y-2322300D01*
X5076300Y-3250003D02*
X5106300Y-3280003D01*
X5106300Y-3250003D02*
X5076300Y-3280003D01*
X5106300Y-3545003D02*
X5136300Y-3575003D01*
X5136300Y-3545003D02*
X5106300Y-3575003D01*
X5138149Y-2971851D02*
X5168149Y-3001851D01*
X5168149Y-2971851D02*
X5138149Y-3001851D01*
X5190000Y-2235000D02*
X5220000Y-2265000D01*
X5220000Y-2235000D02*
X5190000Y-2265000D01*
X5221300Y-3920003D02*
X5251300Y-3950003D01*
X5251300Y-3920003D02*
X5221300Y-3950003D01*
X3276700Y-4025003D02*
G75*
G02*
X3225900Y-4025003I-25400J0D01*
G01*
X3225900Y-4025003D02*
G75*
G02*
X3276700Y-4025003I25400J0D01*
G01*
X3276700Y-4150003D02*
G75*
G02*
X3225900Y-4150003I-25400J0D01*
G01*
X3225900Y-4150003D02*
G75*
G02*
X3276700Y-4150003I25400J0D01*
G01*
X3276700Y-4275003D02*
G75*
G02*
X3225900Y-4275003I-25400J0D01*
G01*
X3225900Y-4275003D02*
G75*
G02*
X3276700Y-4275003I25400J0D01*
G01*
X3379300Y-5471003D02*
X3379300Y-5531003D01*
X3349300Y-5501003D02*
X3409300Y-5501003D01*
X3349300Y-5451003D02*
X3349300Y-5551003D01*
X3409300Y-5551003D02*
G75*
G02*
X3349300Y-5551003I-30000J0D01*
G01*
X3409300Y-5551003D02*
X3409300Y-5451003D01*
X3409300Y-5451003D02*
G75*
G03*
X3349300Y-5451003I-30000J0D01*
G01*
X3379300Y-6007003D02*
X3379300Y-6067003D01*
X3349300Y-6037003D02*
X3409300Y-6037003D01*
X3349300Y-5962003D02*
X3349300Y-6112003D01*
X3409300Y-6112003D02*
G75*
G02*
X3349300Y-6112003I-30000J0D01*
G01*
X3409300Y-6112003D02*
X3409300Y-5962003D01*
X3409300Y-5962003D02*
G75*
G03*
X3349300Y-5962003I-30000J0D01*
G01*
X4243300Y-5471003D02*
X4243300Y-5531003D01*
X4213300Y-5501003D02*
X4273300Y-5501003D01*
X4213300Y-5451003D02*
X4213300Y-5551003D01*
X4273300Y-5551003D02*
G75*
G02*
X4213300Y-5551003I-30000J0D01*
G01*
X4273300Y-5551003D02*
X4273300Y-5451003D01*
X4273300Y-5451003D02*
G75*
G03*
X4213300Y-5451003I-30000J0D01*
G01*
X4243300Y-6007003D02*
X4243300Y-6067003D01*
X4213300Y-6037003D02*
X4273300Y-6037003D01*
X4213300Y-5962003D02*
X4213300Y-6112003D01*
X4273300Y-6112003D02*
G75*
G02*
X4213300Y-6112003I-30000J0D01*
G01*
X4273300Y-6112003D02*
X4273300Y-5962003D01*
X4273300Y-5962003D02*
G75*
G03*
X4213300Y-5962003I-30000J0D01*
G01*
X3335356Y-3031356D02*
X3335356Y-2960644D01*
X3264644Y-2960644D01*
X3264644Y-3031356D01*
X3335356Y-3031356D01*
X3335356Y-3285356D02*
X3335356Y-3214644D01*
X3264644Y-3214644D01*
X3264644Y-3285356D01*
X3335356Y-3285356D01*
D11*
X3348074Y-6524194D02*
X3348074Y-6324194D01*
X3348074Y-6324194D02*
X3395693Y-6324194D01*
X3395693Y-6324194D02*
X3424264Y-6333718D01*
X3424264Y-6333718D02*
X3443312Y-6352765D01*
X3443312Y-6352765D02*
X3452836Y-6371813D01*
X3452836Y-6371813D02*
X3462360Y-6409908D01*
X3462360Y-6409908D02*
X3462360Y-6438479D01*
X3462360Y-6438479D02*
X3452836Y-6476575D01*
X3452836Y-6476575D02*
X3443312Y-6495622D01*
X3443312Y-6495622D02*
X3424264Y-6514670D01*
X3424264Y-6514670D02*
X3395693Y-6524194D01*
X3395693Y-6524194D02*
X3348074Y-6524194D01*
X3548074Y-6524194D02*
X3548074Y-6390860D01*
X3548074Y-6428956D02*
X3557598Y-6409908D01*
X3557598Y-6409908D02*
X3567121Y-6400384D01*
X3567121Y-6400384D02*
X3586169Y-6390860D01*
X3586169Y-6390860D02*
X3605217Y-6390860D01*
X3671883Y-6524194D02*
X3671883Y-6390860D01*
X3671883Y-6324194D02*
X3662360Y-6333718D01*
X3662360Y-6333718D02*
X3671883Y-6343241D01*
X3671883Y-6343241D02*
X3681407Y-6333718D01*
X3681407Y-6333718D02*
X3671883Y-6324194D01*
X3671883Y-6324194D02*
X3671883Y-6343241D01*
X3795693Y-6524194D02*
X3776645Y-6514670D01*
X3776645Y-6514670D02*
X3767121Y-6495622D01*
X3767121Y-6495622D02*
X3767121Y-6324194D01*
X3900455Y-6524194D02*
X3881407Y-6514670D01*
X3881407Y-6514670D02*
X3871883Y-6495622D01*
X3871883Y-6495622D02*
X3871883Y-6324194D01*
X4129026Y-6524194D02*
X4129026Y-6324194D01*
X4129026Y-6324194D02*
X4195693Y-6467051D01*
X4195693Y-6467051D02*
X4262360Y-6324194D01*
X4262360Y-6324194D02*
X4262360Y-6524194D01*
X4443312Y-6524194D02*
X4443312Y-6419432D01*
X4443312Y-6419432D02*
X4433788Y-6400384D01*
X4433788Y-6400384D02*
X4414741Y-6390860D01*
X4414741Y-6390860D02*
X4376645Y-6390860D01*
X4376645Y-6390860D02*
X4357598Y-6400384D01*
X4443312Y-6514670D02*
X4424264Y-6524194D01*
X4424264Y-6524194D02*
X4376645Y-6524194D01*
X4376645Y-6524194D02*
X4357598Y-6514670D01*
X4357598Y-6514670D02*
X4348074Y-6495622D01*
X4348074Y-6495622D02*
X4348074Y-6476575D01*
X4348074Y-6476575D02*
X4357598Y-6457527D01*
X4357598Y-6457527D02*
X4376645Y-6448003D01*
X4376645Y-6448003D02*
X4424264Y-6448003D01*
X4424264Y-6448003D02*
X4443312Y-6438479D01*
X4538550Y-6390860D02*
X4538550Y-6590860D01*
X4538550Y-6400384D02*
X4557598Y-6390860D01*
X4557598Y-6390860D02*
X4595693Y-6390860D01*
X4595693Y-6390860D02*
X4614741Y-6400384D01*
X4614741Y-6400384D02*
X4624264Y-6409908D01*
X4624264Y-6409908D02*
X4633788Y-6428956D01*
X4633788Y-6428956D02*
X4633788Y-6486098D01*
X4633788Y-6486098D02*
X4624264Y-6505146D01*
X4624264Y-6505146D02*
X4614741Y-6514670D01*
X4614741Y-6514670D02*
X4595693Y-6524194D01*
X4595693Y-6524194D02*
X4557598Y-6524194D01*
X4557598Y-6524194D02*
X4538550Y-6514670D01*
X4719503Y-6505146D02*
X4729026Y-6514670D01*
X4729026Y-6514670D02*
X4719503Y-6524194D01*
X4719503Y-6524194D02*
X4709979Y-6514670D01*
X4709979Y-6514670D02*
X4719503Y-6505146D01*
X4719503Y-6505146D02*
X4719503Y-6524194D01*
X4719503Y-6400384D02*
X4729026Y-6409908D01*
X4729026Y-6409908D02*
X4719503Y-6419432D01*
X4719503Y-6419432D02*
X4709979Y-6409908D01*
X4709979Y-6409908D02*
X4719503Y-6400384D01*
X4719503Y-6400384D02*
X4719503Y-6419432D01*
D12*
X3057297Y-6837710D02*
X3087297Y-6867710D01*
X3087297Y-6837710D02*
X3057297Y-6867710D01*
D11*
X3386169Y-6744194D02*
X3405217Y-6744194D01*
X3405217Y-6744194D02*
X3424264Y-6753718D01*
X3424264Y-6753718D02*
X3433788Y-6763241D01*
X3433788Y-6763241D02*
X3443312Y-6782289D01*
X3443312Y-6782289D02*
X3452836Y-6820384D01*
X3452836Y-6820384D02*
X3452836Y-6868003D01*
X3452836Y-6868003D02*
X3443312Y-6906098D01*
X3443312Y-6906098D02*
X3433788Y-6925146D01*
X3433788Y-6925146D02*
X3424264Y-6934670D01*
X3424264Y-6934670D02*
X3405217Y-6944194D01*
X3405217Y-6944194D02*
X3386169Y-6944194D01*
X3386169Y-6944194D02*
X3367121Y-6934670D01*
X3367121Y-6934670D02*
X3357598Y-6925146D01*
X3357598Y-6925146D02*
X3348074Y-6906098D01*
X3348074Y-6906098D02*
X3338550Y-6868003D01*
X3338550Y-6868003D02*
X3338550Y-6820384D01*
X3338550Y-6820384D02*
X3348074Y-6782289D01*
X3348074Y-6782289D02*
X3357598Y-6763241D01*
X3357598Y-6763241D02*
X3367121Y-6753718D01*
X3367121Y-6753718D02*
X3386169Y-6744194D01*
X3538550Y-6925146D02*
X3548074Y-6934670D01*
X3548074Y-6934670D02*
X3538550Y-6944194D01*
X3538550Y-6944194D02*
X3529026Y-6934670D01*
X3529026Y-6934670D02*
X3538550Y-6925146D01*
X3538550Y-6925146D02*
X3538550Y-6944194D01*
X3614741Y-6744194D02*
X3738550Y-6744194D01*
X3738550Y-6744194D02*
X3671883Y-6820384D01*
X3671883Y-6820384D02*
X3700455Y-6820384D01*
X3700455Y-6820384D02*
X3719502Y-6829908D01*
X3719502Y-6829908D02*
X3729026Y-6839432D01*
X3729026Y-6839432D02*
X3738550Y-6858479D01*
X3738550Y-6858479D02*
X3738550Y-6906098D01*
X3738550Y-6906098D02*
X3729026Y-6925146D01*
X3729026Y-6925146D02*
X3719502Y-6934670D01*
X3719502Y-6934670D02*
X3700455Y-6944194D01*
X3700455Y-6944194D02*
X3643312Y-6944194D01*
X3643312Y-6944194D02*
X3624264Y-6934670D01*
X3624264Y-6934670D02*
X3614741Y-6925146D01*
X3862360Y-6744194D02*
X3881407Y-6744194D01*
X3881407Y-6744194D02*
X3900455Y-6753718D01*
X3900455Y-6753718D02*
X3909979Y-6763241D01*
X3909979Y-6763241D02*
X3919502Y-6782289D01*
X3919502Y-6782289D02*
X3929026Y-6820384D01*
X3929026Y-6820384D02*
X3929026Y-6868003D01*
X3929026Y-6868003D02*
X3919502Y-6906098D01*
X3919502Y-6906098D02*
X3909979Y-6925146D01*
X3909979Y-6925146D02*
X3900455Y-6934670D01*
X3900455Y-6934670D02*
X3881407Y-6944194D01*
X3881407Y-6944194D02*
X3862360Y-6944194D01*
X3862360Y-6944194D02*
X3843312Y-6934670D01*
X3843312Y-6934670D02*
X3833788Y-6925146D01*
X3833788Y-6925146D02*
X3824264Y-6906098D01*
X3824264Y-6906098D02*
X3814741Y-6868003D01*
X3814741Y-6868003D02*
X3814741Y-6820384D01*
X3814741Y-6820384D02*
X3824264Y-6782289D01*
X3824264Y-6782289D02*
X3833788Y-6763241D01*
X3833788Y-6763241D02*
X3843312Y-6753718D01*
X3843312Y-6753718D02*
X3862360Y-6744194D01*
X4052836Y-6744194D02*
X4071883Y-6744194D01*
X4071883Y-6744194D02*
X4090931Y-6753718D01*
X4090931Y-6753718D02*
X4100455Y-6763241D01*
X4100455Y-6763241D02*
X4109979Y-6782289D01*
X4109979Y-6782289D02*
X4119502Y-6820384D01*
X4119502Y-6820384D02*
X4119502Y-6868003D01*
X4119502Y-6868003D02*
X4109979Y-6906098D01*
X4109979Y-6906098D02*
X4100455Y-6925146D01*
X4100455Y-6925146D02*
X4090931Y-6934670D01*
X4090931Y-6934670D02*
X4071883Y-6944194D01*
X4071883Y-6944194D02*
X4052836Y-6944194D01*
X4052836Y-6944194D02*
X4033788Y-6934670D01*
X4033788Y-6934670D02*
X4024264Y-6925146D01*
X4024264Y-6925146D02*
X4014741Y-6906098D01*
X4014741Y-6906098D02*
X4005217Y-6868003D01*
X4005217Y-6868003D02*
X4005217Y-6820384D01*
X4005217Y-6820384D02*
X4014741Y-6782289D01*
X4014741Y-6782289D02*
X4024264Y-6763241D01*
X4024264Y-6763241D02*
X4033788Y-6753718D01*
X4033788Y-6753718D02*
X4052836Y-6744194D01*
X4205217Y-6944194D02*
X4205217Y-6810860D01*
X4205217Y-6829908D02*
X4214741Y-6820384D01*
X4214741Y-6820384D02*
X4233788Y-6810860D01*
X4233788Y-6810860D02*
X4262360Y-6810860D01*
X4262360Y-6810860D02*
X4281407Y-6820384D01*
X4281407Y-6820384D02*
X4290931Y-6839432D01*
X4290931Y-6839432D02*
X4290931Y-6944194D01*
X4290931Y-6839432D02*
X4300455Y-6820384D01*
X4300455Y-6820384D02*
X4319503Y-6810860D01*
X4319503Y-6810860D02*
X4348074Y-6810860D01*
X4348074Y-6810860D02*
X4367122Y-6820384D01*
X4367122Y-6820384D02*
X4376645Y-6839432D01*
X4376645Y-6839432D02*
X4376645Y-6944194D01*
X4471884Y-6944194D02*
X4471884Y-6810860D01*
X4471884Y-6829908D02*
X4481407Y-6820384D01*
X4481407Y-6820384D02*
X4500455Y-6810860D01*
X4500455Y-6810860D02*
X4529026Y-6810860D01*
X4529026Y-6810860D02*
X4548074Y-6820384D01*
X4548074Y-6820384D02*
X4557598Y-6839432D01*
X4557598Y-6839432D02*
X4557598Y-6944194D01*
X4557598Y-6839432D02*
X4567122Y-6820384D01*
X4567122Y-6820384D02*
X4586169Y-6810860D01*
X4586169Y-6810860D02*
X4614741Y-6810860D01*
X4614741Y-6810860D02*
X4633788Y-6820384D01*
X4633788Y-6820384D02*
X4643312Y-6839432D01*
X4643312Y-6839432D02*
X4643312Y-6944194D01*
X5033788Y-6734670D02*
X4862360Y-6991813D01*
X5290931Y-6744194D02*
X5309979Y-6744194D01*
X5309979Y-6744194D02*
X5329027Y-6753718D01*
X5329027Y-6753718D02*
X5338550Y-6763241D01*
X5338550Y-6763241D02*
X5348074Y-6782289D01*
X5348074Y-6782289D02*
X5357598Y-6820384D01*
X5357598Y-6820384D02*
X5357598Y-6868003D01*
X5357598Y-6868003D02*
X5348074Y-6906098D01*
X5348074Y-6906098D02*
X5338550Y-6925146D01*
X5338550Y-6925146D02*
X5329027Y-6934670D01*
X5329027Y-6934670D02*
X5309979Y-6944194D01*
X5309979Y-6944194D02*
X5290931Y-6944194D01*
X5290931Y-6944194D02*
X5271884Y-6934670D01*
X5271884Y-6934670D02*
X5262360Y-6925146D01*
X5262360Y-6925146D02*
X5252836Y-6906098D01*
X5252836Y-6906098D02*
X5243312Y-6868003D01*
X5243312Y-6868003D02*
X5243312Y-6820384D01*
X5243312Y-6820384D02*
X5252836Y-6782289D01*
X5252836Y-6782289D02*
X5262360Y-6763241D01*
X5262360Y-6763241D02*
X5271884Y-6753718D01*
X5271884Y-6753718D02*
X5290931Y-6744194D01*
X5443312Y-6925146D02*
X5452836Y-6934670D01*
X5452836Y-6934670D02*
X5443312Y-6944194D01*
X5443312Y-6944194D02*
X5433788Y-6934670D01*
X5433788Y-6934670D02*
X5443312Y-6925146D01*
X5443312Y-6925146D02*
X5443312Y-6944194D01*
X5576646Y-6744194D02*
X5595693Y-6744194D01*
X5595693Y-6744194D02*
X5614741Y-6753718D01*
X5614741Y-6753718D02*
X5624265Y-6763241D01*
X5624265Y-6763241D02*
X5633788Y-6782289D01*
X5633788Y-6782289D02*
X5643312Y-6820384D01*
X5643312Y-6820384D02*
X5643312Y-6868003D01*
X5643312Y-6868003D02*
X5633788Y-6906098D01*
X5633788Y-6906098D02*
X5624265Y-6925146D01*
X5624265Y-6925146D02*
X5614741Y-6934670D01*
X5614741Y-6934670D02*
X5595693Y-6944194D01*
X5595693Y-6944194D02*
X5576646Y-6944194D01*
X5576646Y-6944194D02*
X5557598Y-6934670D01*
X5557598Y-6934670D02*
X5548074Y-6925146D01*
X5548074Y-6925146D02*
X5538550Y-6906098D01*
X5538550Y-6906098D02*
X5529027Y-6868003D01*
X5529027Y-6868003D02*
X5529027Y-6820384D01*
X5529027Y-6820384D02*
X5538550Y-6782289D01*
X5538550Y-6782289D02*
X5548074Y-6763241D01*
X5548074Y-6763241D02*
X5557598Y-6753718D01*
X5557598Y-6753718D02*
X5576646Y-6744194D01*
X5833788Y-6944194D02*
X5719503Y-6944194D01*
X5776645Y-6944194D02*
X5776645Y-6744194D01*
X5776645Y-6744194D02*
X5757598Y-6772765D01*
X5757598Y-6772765D02*
X5738550Y-6791813D01*
X5738550Y-6791813D02*
X5719503Y-6801337D01*
X6024265Y-6944194D02*
X5909979Y-6944194D01*
X5967122Y-6944194D02*
X5967122Y-6744194D01*
X5967122Y-6744194D02*
X5948074Y-6772765D01*
X5948074Y-6772765D02*
X5929026Y-6791813D01*
X5929026Y-6791813D02*
X5909979Y-6801337D01*
X6138550Y-6829908D02*
X6119503Y-6820384D01*
X6119503Y-6820384D02*
X6109979Y-6810860D01*
X6109979Y-6810860D02*
X6100455Y-6791813D01*
X6100455Y-6791813D02*
X6100455Y-6782289D01*
X6100455Y-6782289D02*
X6109979Y-6763241D01*
X6109979Y-6763241D02*
X6119503Y-6753718D01*
X6119503Y-6753718D02*
X6138550Y-6744194D01*
X6138550Y-6744194D02*
X6176646Y-6744194D01*
X6176646Y-6744194D02*
X6195693Y-6753718D01*
X6195693Y-6753718D02*
X6205217Y-6763241D01*
X6205217Y-6763241D02*
X6214741Y-6782289D01*
X6214741Y-6782289D02*
X6214741Y-6791813D01*
X6214741Y-6791813D02*
X6205217Y-6810860D01*
X6205217Y-6810860D02*
X6195693Y-6820384D01*
X6195693Y-6820384D02*
X6176646Y-6829908D01*
X6176646Y-6829908D02*
X6138550Y-6829908D01*
X6138550Y-6829908D02*
X6119503Y-6839432D01*
X6119503Y-6839432D02*
X6109979Y-6848956D01*
X6109979Y-6848956D02*
X6100455Y-6868003D01*
X6100455Y-6868003D02*
X6100455Y-6906098D01*
X6100455Y-6906098D02*
X6109979Y-6925146D01*
X6109979Y-6925146D02*
X6119503Y-6934670D01*
X6119503Y-6934670D02*
X6138550Y-6944194D01*
X6138550Y-6944194D02*
X6176646Y-6944194D01*
X6176646Y-6944194D02*
X6195693Y-6934670D01*
X6195693Y-6934670D02*
X6205217Y-6925146D01*
X6205217Y-6925146D02*
X6214741Y-6906098D01*
X6214741Y-6906098D02*
X6214741Y-6868003D01*
X6214741Y-6868003D02*
X6205217Y-6848956D01*
X6205217Y-6848956D02*
X6195693Y-6839432D01*
X6195693Y-6839432D02*
X6176646Y-6829908D01*
X6290931Y-6744194D02*
X6290931Y-6782289D01*
X6367122Y-6744194D02*
X6367122Y-6782289D01*
X6662360Y-7020384D02*
X6652836Y-7010860D01*
X6652836Y-7010860D02*
X6633788Y-6982289D01*
X6633788Y-6982289D02*
X6624265Y-6963241D01*
X6624265Y-6963241D02*
X6614741Y-6934670D01*
X6614741Y-6934670D02*
X6605217Y-6887051D01*
X6605217Y-6887051D02*
X6605217Y-6848956D01*
X6605217Y-6848956D02*
X6614741Y-6801337D01*
X6614741Y-6801337D02*
X6624265Y-6772765D01*
X6624265Y-6772765D02*
X6633788Y-6753718D01*
X6633788Y-6753718D02*
X6652836Y-6725146D01*
X6652836Y-6725146D02*
X6662360Y-6715622D01*
X6824265Y-6744194D02*
X6786169Y-6744194D01*
X6786169Y-6744194D02*
X6767122Y-6753718D01*
X6767122Y-6753718D02*
X6757598Y-6763241D01*
X6757598Y-6763241D02*
X6738550Y-6791813D01*
X6738550Y-6791813D02*
X6729027Y-6829908D01*
X6729027Y-6829908D02*
X6729027Y-6906098D01*
X6729027Y-6906098D02*
X6738550Y-6925146D01*
X6738550Y-6925146D02*
X6748074Y-6934670D01*
X6748074Y-6934670D02*
X6767122Y-6944194D01*
X6767122Y-6944194D02*
X6805217Y-6944194D01*
X6805217Y-6944194D02*
X6824265Y-6934670D01*
X6824265Y-6934670D02*
X6833788Y-6925146D01*
X6833788Y-6925146D02*
X6843312Y-6906098D01*
X6843312Y-6906098D02*
X6843312Y-6858479D01*
X6843312Y-6858479D02*
X6833788Y-6839432D01*
X6833788Y-6839432D02*
X6824265Y-6829908D01*
X6824265Y-6829908D02*
X6805217Y-6820384D01*
X6805217Y-6820384D02*
X6767122Y-6820384D01*
X6767122Y-6820384D02*
X6748074Y-6829908D01*
X6748074Y-6829908D02*
X6738550Y-6839432D01*
X6738550Y-6839432D02*
X6729027Y-6858479D01*
X6909979Y-6744194D02*
X7043312Y-6744194D01*
X7043312Y-6744194D02*
X6957598Y-6944194D01*
X7271884Y-6944194D02*
X7271884Y-6744194D01*
X7357598Y-6944194D02*
X7357598Y-6839432D01*
X7357598Y-6839432D02*
X7348074Y-6820384D01*
X7348074Y-6820384D02*
X7329027Y-6810860D01*
X7329027Y-6810860D02*
X7300455Y-6810860D01*
X7300455Y-6810860D02*
X7281408Y-6820384D01*
X7281408Y-6820384D02*
X7271884Y-6829908D01*
X7481408Y-6944194D02*
X7462360Y-6934670D01*
X7462360Y-6934670D02*
X7452836Y-6925146D01*
X7452836Y-6925146D02*
X7443312Y-6906098D01*
X7443312Y-6906098D02*
X7443312Y-6848956D01*
X7443312Y-6848956D02*
X7452836Y-6829908D01*
X7452836Y-6829908D02*
X7462360Y-6820384D01*
X7462360Y-6820384D02*
X7481408Y-6810860D01*
X7481408Y-6810860D02*
X7509979Y-6810860D01*
X7509979Y-6810860D02*
X7529027Y-6820384D01*
X7529027Y-6820384D02*
X7538550Y-6829908D01*
X7538550Y-6829908D02*
X7548074Y-6848956D01*
X7548074Y-6848956D02*
X7548074Y-6906098D01*
X7548074Y-6906098D02*
X7538550Y-6925146D01*
X7538550Y-6925146D02*
X7529027Y-6934670D01*
X7529027Y-6934670D02*
X7509979Y-6944194D01*
X7509979Y-6944194D02*
X7481408Y-6944194D01*
X7662360Y-6944194D02*
X7643312Y-6934670D01*
X7643312Y-6934670D02*
X7633789Y-6915622D01*
X7633789Y-6915622D02*
X7633789Y-6744194D01*
X7814741Y-6934670D02*
X7795693Y-6944194D01*
X7795693Y-6944194D02*
X7757598Y-6944194D01*
X7757598Y-6944194D02*
X7738550Y-6934670D01*
X7738550Y-6934670D02*
X7729027Y-6915622D01*
X7729027Y-6915622D02*
X7729027Y-6839432D01*
X7729027Y-6839432D02*
X7738550Y-6820384D01*
X7738550Y-6820384D02*
X7757598Y-6810860D01*
X7757598Y-6810860D02*
X7795693Y-6810860D01*
X7795693Y-6810860D02*
X7814741Y-6820384D01*
X7814741Y-6820384D02*
X7824265Y-6839432D01*
X7824265Y-6839432D02*
X7824265Y-6858479D01*
X7824265Y-6858479D02*
X7729027Y-6877527D01*
X7900455Y-6934670D02*
X7919503Y-6944194D01*
X7919503Y-6944194D02*
X7957598Y-6944194D01*
X7957598Y-6944194D02*
X7976646Y-6934670D01*
X7976646Y-6934670D02*
X7986170Y-6915622D01*
X7986170Y-6915622D02*
X7986170Y-6906098D01*
X7986170Y-6906098D02*
X7976646Y-6887051D01*
X7976646Y-6887051D02*
X7957598Y-6877527D01*
X7957598Y-6877527D02*
X7929027Y-6877527D01*
X7929027Y-6877527D02*
X7909979Y-6868003D01*
X7909979Y-6868003D02*
X7900455Y-6848956D01*
X7900455Y-6848956D02*
X7900455Y-6839432D01*
X7900455Y-6839432D02*
X7909979Y-6820384D01*
X7909979Y-6820384D02*
X7929027Y-6810860D01*
X7929027Y-6810860D02*
X7957598Y-6810860D01*
X7957598Y-6810860D02*
X7976646Y-6820384D01*
X8052836Y-7020384D02*
X8062360Y-7010860D01*
X8062360Y-7010860D02*
X8081408Y-6982289D01*
X8081408Y-6982289D02*
X8090931Y-6963241D01*
X8090931Y-6963241D02*
X8100455Y-6934670D01*
X8100455Y-6934670D02*
X8109979Y-6887051D01*
X8109979Y-6887051D02*
X8109979Y-6848956D01*
X8109979Y-6848956D02*
X8100455Y-6801337D01*
X8100455Y-6801337D02*
X8090931Y-6772765D01*
X8090931Y-6772765D02*
X8081408Y-6753718D01*
X8081408Y-6753718D02*
X8062360Y-6725146D01*
X8062360Y-6725146D02*
X8052836Y-6715622D01*
D12*
X3087297Y-7116710D02*
G75*
G02*
X3036497Y-7116710I-25400J0D01*
G01*
X3036497Y-7116710D02*
G75*
G02*
X3087297Y-7116710I25400J0D01*
G01*
D11*
X3386169Y-7008194D02*
X3405217Y-7008194D01*
X3405217Y-7008194D02*
X3424264Y-7017718D01*
X3424264Y-7017718D02*
X3433788Y-7027241D01*
X3433788Y-7027241D02*
X3443312Y-7046289D01*
X3443312Y-7046289D02*
X3452836Y-7084384D01*
X3452836Y-7084384D02*
X3452836Y-7132003D01*
X3452836Y-7132003D02*
X3443312Y-7170098D01*
X3443312Y-7170098D02*
X3433788Y-7189146D01*
X3433788Y-7189146D02*
X3424264Y-7198670D01*
X3424264Y-7198670D02*
X3405217Y-7208194D01*
X3405217Y-7208194D02*
X3386169Y-7208194D01*
X3386169Y-7208194D02*
X3367121Y-7198670D01*
X3367121Y-7198670D02*
X3357598Y-7189146D01*
X3357598Y-7189146D02*
X3348074Y-7170098D01*
X3348074Y-7170098D02*
X3338550Y-7132003D01*
X3338550Y-7132003D02*
X3338550Y-7084384D01*
X3338550Y-7084384D02*
X3348074Y-7046289D01*
X3348074Y-7046289D02*
X3357598Y-7027241D01*
X3357598Y-7027241D02*
X3367121Y-7017718D01*
X3367121Y-7017718D02*
X3386169Y-7008194D01*
X3538550Y-7189146D02*
X3548074Y-7198670D01*
X3548074Y-7198670D02*
X3538550Y-7208194D01*
X3538550Y-7208194D02*
X3529026Y-7198670D01*
X3529026Y-7198670D02*
X3538550Y-7189146D01*
X3538550Y-7189146D02*
X3538550Y-7208194D01*
X3729026Y-7008194D02*
X3633788Y-7008194D01*
X3633788Y-7008194D02*
X3624264Y-7103432D01*
X3624264Y-7103432D02*
X3633788Y-7093908D01*
X3633788Y-7093908D02*
X3652836Y-7084384D01*
X3652836Y-7084384D02*
X3700455Y-7084384D01*
X3700455Y-7084384D02*
X3719502Y-7093908D01*
X3719502Y-7093908D02*
X3729026Y-7103432D01*
X3729026Y-7103432D02*
X3738550Y-7122479D01*
X3738550Y-7122479D02*
X3738550Y-7170098D01*
X3738550Y-7170098D02*
X3729026Y-7189146D01*
X3729026Y-7189146D02*
X3719502Y-7198670D01*
X3719502Y-7198670D02*
X3700455Y-7208194D01*
X3700455Y-7208194D02*
X3652836Y-7208194D01*
X3652836Y-7208194D02*
X3633788Y-7198670D01*
X3633788Y-7198670D02*
X3624264Y-7189146D01*
X3862360Y-7008194D02*
X3881407Y-7008194D01*
X3881407Y-7008194D02*
X3900455Y-7017718D01*
X3900455Y-7017718D02*
X3909979Y-7027241D01*
X3909979Y-7027241D02*
X3919502Y-7046289D01*
X3919502Y-7046289D02*
X3929026Y-7084384D01*
X3929026Y-7084384D02*
X3929026Y-7132003D01*
X3929026Y-7132003D02*
X3919502Y-7170098D01*
X3919502Y-7170098D02*
X3909979Y-7189146D01*
X3909979Y-7189146D02*
X3900455Y-7198670D01*
X3900455Y-7198670D02*
X3881407Y-7208194D01*
X3881407Y-7208194D02*
X3862360Y-7208194D01*
X3862360Y-7208194D02*
X3843312Y-7198670D01*
X3843312Y-7198670D02*
X3833788Y-7189146D01*
X3833788Y-7189146D02*
X3824264Y-7170098D01*
X3824264Y-7170098D02*
X3814741Y-7132003D01*
X3814741Y-7132003D02*
X3814741Y-7084384D01*
X3814741Y-7084384D02*
X3824264Y-7046289D01*
X3824264Y-7046289D02*
X3833788Y-7027241D01*
X3833788Y-7027241D02*
X3843312Y-7017718D01*
X3843312Y-7017718D02*
X3862360Y-7008194D01*
X4043312Y-7093908D02*
X4024264Y-7084384D01*
X4024264Y-7084384D02*
X4014741Y-7074860D01*
X4014741Y-7074860D02*
X4005217Y-7055813D01*
X4005217Y-7055813D02*
X4005217Y-7046289D01*
X4005217Y-7046289D02*
X4014741Y-7027241D01*
X4014741Y-7027241D02*
X4024264Y-7017718D01*
X4024264Y-7017718D02*
X4043312Y-7008194D01*
X4043312Y-7008194D02*
X4081407Y-7008194D01*
X4081407Y-7008194D02*
X4100455Y-7017718D01*
X4100455Y-7017718D02*
X4109979Y-7027241D01*
X4109979Y-7027241D02*
X4119502Y-7046289D01*
X4119502Y-7046289D02*
X4119502Y-7055813D01*
X4119502Y-7055813D02*
X4109979Y-7074860D01*
X4109979Y-7074860D02*
X4100455Y-7084384D01*
X4100455Y-7084384D02*
X4081407Y-7093908D01*
X4081407Y-7093908D02*
X4043312Y-7093908D01*
X4043312Y-7093908D02*
X4024264Y-7103432D01*
X4024264Y-7103432D02*
X4014741Y-7112956D01*
X4014741Y-7112956D02*
X4005217Y-7132003D01*
X4005217Y-7132003D02*
X4005217Y-7170098D01*
X4005217Y-7170098D02*
X4014741Y-7189146D01*
X4014741Y-7189146D02*
X4024264Y-7198670D01*
X4024264Y-7198670D02*
X4043312Y-7208194D01*
X4043312Y-7208194D02*
X4081407Y-7208194D01*
X4081407Y-7208194D02*
X4100455Y-7198670D01*
X4100455Y-7198670D02*
X4109979Y-7189146D01*
X4109979Y-7189146D02*
X4119502Y-7170098D01*
X4119502Y-7170098D02*
X4119502Y-7132003D01*
X4119502Y-7132003D02*
X4109979Y-7112956D01*
X4109979Y-7112956D02*
X4100455Y-7103432D01*
X4100455Y-7103432D02*
X4081407Y-7093908D01*
X4205217Y-7208194D02*
X4205217Y-7074860D01*
X4205217Y-7093908D02*
X4214741Y-7084384D01*
X4214741Y-7084384D02*
X4233788Y-7074860D01*
X4233788Y-7074860D02*
X4262360Y-7074860D01*
X4262360Y-7074860D02*
X4281407Y-7084384D01*
X4281407Y-7084384D02*
X4290931Y-7103432D01*
X4290931Y-7103432D02*
X4290931Y-7208194D01*
X4290931Y-7103432D02*
X4300455Y-7084384D01*
X4300455Y-7084384D02*
X4319503Y-7074860D01*
X4319503Y-7074860D02*
X4348074Y-7074860D01*
X4348074Y-7074860D02*
X4367122Y-7084384D01*
X4367122Y-7084384D02*
X4376645Y-7103432D01*
X4376645Y-7103432D02*
X4376645Y-7208194D01*
X4471884Y-7208194D02*
X4471884Y-7074860D01*
X4471884Y-7093908D02*
X4481407Y-7084384D01*
X4481407Y-7084384D02*
X4500455Y-7074860D01*
X4500455Y-7074860D02*
X4529026Y-7074860D01*
X4529026Y-7074860D02*
X4548074Y-7084384D01*
X4548074Y-7084384D02*
X4557598Y-7103432D01*
X4557598Y-7103432D02*
X4557598Y-7208194D01*
X4557598Y-7103432D02*
X4567122Y-7084384D01*
X4567122Y-7084384D02*
X4586169Y-7074860D01*
X4586169Y-7074860D02*
X4614741Y-7074860D01*
X4614741Y-7074860D02*
X4633788Y-7084384D01*
X4633788Y-7084384D02*
X4643312Y-7103432D01*
X4643312Y-7103432D02*
X4643312Y-7208194D01*
X5033788Y-6998670D02*
X4862360Y-7255813D01*
X5290931Y-7008194D02*
X5309979Y-7008194D01*
X5309979Y-7008194D02*
X5329027Y-7017718D01*
X5329027Y-7017718D02*
X5338550Y-7027241D01*
X5338550Y-7027241D02*
X5348074Y-7046289D01*
X5348074Y-7046289D02*
X5357598Y-7084384D01*
X5357598Y-7084384D02*
X5357598Y-7132003D01*
X5357598Y-7132003D02*
X5348074Y-7170098D01*
X5348074Y-7170098D02*
X5338550Y-7189146D01*
X5338550Y-7189146D02*
X5329027Y-7198670D01*
X5329027Y-7198670D02*
X5309979Y-7208194D01*
X5309979Y-7208194D02*
X5290931Y-7208194D01*
X5290931Y-7208194D02*
X5271884Y-7198670D01*
X5271884Y-7198670D02*
X5262360Y-7189146D01*
X5262360Y-7189146D02*
X5252836Y-7170098D01*
X5252836Y-7170098D02*
X5243312Y-7132003D01*
X5243312Y-7132003D02*
X5243312Y-7084384D01*
X5243312Y-7084384D02*
X5252836Y-7046289D01*
X5252836Y-7046289D02*
X5262360Y-7027241D01*
X5262360Y-7027241D02*
X5271884Y-7017718D01*
X5271884Y-7017718D02*
X5290931Y-7008194D01*
X5443312Y-7189146D02*
X5452836Y-7198670D01*
X5452836Y-7198670D02*
X5443312Y-7208194D01*
X5443312Y-7208194D02*
X5433788Y-7198670D01*
X5433788Y-7198670D02*
X5443312Y-7189146D01*
X5443312Y-7189146D02*
X5443312Y-7208194D01*
X5576646Y-7008194D02*
X5595693Y-7008194D01*
X5595693Y-7008194D02*
X5614741Y-7017718D01*
X5614741Y-7017718D02*
X5624265Y-7027241D01*
X5624265Y-7027241D02*
X5633788Y-7046289D01*
X5633788Y-7046289D02*
X5643312Y-7084384D01*
X5643312Y-7084384D02*
X5643312Y-7132003D01*
X5643312Y-7132003D02*
X5633788Y-7170098D01*
X5633788Y-7170098D02*
X5624265Y-7189146D01*
X5624265Y-7189146D02*
X5614741Y-7198670D01*
X5614741Y-7198670D02*
X5595693Y-7208194D01*
X5595693Y-7208194D02*
X5576646Y-7208194D01*
X5576646Y-7208194D02*
X5557598Y-7198670D01*
X5557598Y-7198670D02*
X5548074Y-7189146D01*
X5548074Y-7189146D02*
X5538550Y-7170098D01*
X5538550Y-7170098D02*
X5529027Y-7132003D01*
X5529027Y-7132003D02*
X5529027Y-7084384D01*
X5529027Y-7084384D02*
X5538550Y-7046289D01*
X5538550Y-7046289D02*
X5548074Y-7027241D01*
X5548074Y-7027241D02*
X5557598Y-7017718D01*
X5557598Y-7017718D02*
X5576646Y-7008194D01*
X5719503Y-7027241D02*
X5729026Y-7017718D01*
X5729026Y-7017718D02*
X5748074Y-7008194D01*
X5748074Y-7008194D02*
X5795693Y-7008194D01*
X5795693Y-7008194D02*
X5814741Y-7017718D01*
X5814741Y-7017718D02*
X5824265Y-7027241D01*
X5824265Y-7027241D02*
X5833788Y-7046289D01*
X5833788Y-7046289D02*
X5833788Y-7065337D01*
X5833788Y-7065337D02*
X5824265Y-7093908D01*
X5824265Y-7093908D02*
X5709979Y-7208194D01*
X5709979Y-7208194D02*
X5833788Y-7208194D01*
X5957598Y-7008194D02*
X5976646Y-7008194D01*
X5976646Y-7008194D02*
X5995693Y-7017718D01*
X5995693Y-7017718D02*
X6005217Y-7027241D01*
X6005217Y-7027241D02*
X6014741Y-7046289D01*
X6014741Y-7046289D02*
X6024265Y-7084384D01*
X6024265Y-7084384D02*
X6024265Y-7132003D01*
X6024265Y-7132003D02*
X6014741Y-7170098D01*
X6014741Y-7170098D02*
X6005217Y-7189146D01*
X6005217Y-7189146D02*
X5995693Y-7198670D01*
X5995693Y-7198670D02*
X5976646Y-7208194D01*
X5976646Y-7208194D02*
X5957598Y-7208194D01*
X5957598Y-7208194D02*
X5938550Y-7198670D01*
X5938550Y-7198670D02*
X5929026Y-7189146D01*
X5929026Y-7189146D02*
X5919503Y-7170098D01*
X5919503Y-7170098D02*
X5909979Y-7132003D01*
X5909979Y-7132003D02*
X5909979Y-7084384D01*
X5909979Y-7084384D02*
X5919503Y-7046289D01*
X5919503Y-7046289D02*
X5929026Y-7027241D01*
X5929026Y-7027241D02*
X5938550Y-7017718D01*
X5938550Y-7017718D02*
X5957598Y-7008194D01*
X6148074Y-7008194D02*
X6167122Y-7008194D01*
X6167122Y-7008194D02*
X6186169Y-7017718D01*
X6186169Y-7017718D02*
X6195693Y-7027241D01*
X6195693Y-7027241D02*
X6205217Y-7046289D01*
X6205217Y-7046289D02*
X6214741Y-7084384D01*
X6214741Y-7084384D02*
X6214741Y-7132003D01*
X6214741Y-7132003D02*
X6205217Y-7170098D01*
X6205217Y-7170098D02*
X6195693Y-7189146D01*
X6195693Y-7189146D02*
X6186169Y-7198670D01*
X6186169Y-7198670D02*
X6167122Y-7208194D01*
X6167122Y-7208194D02*
X6148074Y-7208194D01*
X6148074Y-7208194D02*
X6129026Y-7198670D01*
X6129026Y-7198670D02*
X6119503Y-7189146D01*
X6119503Y-7189146D02*
X6109979Y-7170098D01*
X6109979Y-7170098D02*
X6100455Y-7132003D01*
X6100455Y-7132003D02*
X6100455Y-7084384D01*
X6100455Y-7084384D02*
X6109979Y-7046289D01*
X6109979Y-7046289D02*
X6119503Y-7027241D01*
X6119503Y-7027241D02*
X6129026Y-7017718D01*
X6129026Y-7017718D02*
X6148074Y-7008194D01*
X6290931Y-7008194D02*
X6290931Y-7046289D01*
X6367122Y-7008194D02*
X6367122Y-7046289D01*
X6662360Y-7284384D02*
X6652836Y-7274860D01*
X6652836Y-7274860D02*
X6633788Y-7246289D01*
X6633788Y-7246289D02*
X6624265Y-7227241D01*
X6624265Y-7227241D02*
X6614741Y-7198670D01*
X6614741Y-7198670D02*
X6605217Y-7151051D01*
X6605217Y-7151051D02*
X6605217Y-7112956D01*
X6605217Y-7112956D02*
X6614741Y-7065337D01*
X6614741Y-7065337D02*
X6624265Y-7036765D01*
X6624265Y-7036765D02*
X6633788Y-7017718D01*
X6633788Y-7017718D02*
X6652836Y-6989146D01*
X6652836Y-6989146D02*
X6662360Y-6979622D01*
X6719503Y-7008194D02*
X6843312Y-7008194D01*
X6843312Y-7008194D02*
X6776646Y-7084384D01*
X6776646Y-7084384D02*
X6805217Y-7084384D01*
X6805217Y-7084384D02*
X6824265Y-7093908D01*
X6824265Y-7093908D02*
X6833788Y-7103432D01*
X6833788Y-7103432D02*
X6843312Y-7122479D01*
X6843312Y-7122479D02*
X6843312Y-7170098D01*
X6843312Y-7170098D02*
X6833788Y-7189146D01*
X6833788Y-7189146D02*
X6824265Y-7198670D01*
X6824265Y-7198670D02*
X6805217Y-7208194D01*
X6805217Y-7208194D02*
X6748074Y-7208194D01*
X6748074Y-7208194D02*
X6729027Y-7198670D01*
X6729027Y-7198670D02*
X6719503Y-7189146D01*
X7081408Y-7208194D02*
X7081408Y-7008194D01*
X7167122Y-7208194D02*
X7167122Y-7103432D01*
X7167122Y-7103432D02*
X7157598Y-7084384D01*
X7157598Y-7084384D02*
X7138550Y-7074860D01*
X7138550Y-7074860D02*
X7109979Y-7074860D01*
X7109979Y-7074860D02*
X7090931Y-7084384D01*
X7090931Y-7084384D02*
X7081408Y-7093908D01*
X7290931Y-7208194D02*
X7271884Y-7198670D01*
X7271884Y-7198670D02*
X7262360Y-7189146D01*
X7262360Y-7189146D02*
X7252836Y-7170098D01*
X7252836Y-7170098D02*
X7252836Y-7112956D01*
X7252836Y-7112956D02*
X7262360Y-7093908D01*
X7262360Y-7093908D02*
X7271884Y-7084384D01*
X7271884Y-7084384D02*
X7290931Y-7074860D01*
X7290931Y-7074860D02*
X7319503Y-7074860D01*
X7319503Y-7074860D02*
X7338550Y-7084384D01*
X7338550Y-7084384D02*
X7348074Y-7093908D01*
X7348074Y-7093908D02*
X7357598Y-7112956D01*
X7357598Y-7112956D02*
X7357598Y-7170098D01*
X7357598Y-7170098D02*
X7348074Y-7189146D01*
X7348074Y-7189146D02*
X7338550Y-7198670D01*
X7338550Y-7198670D02*
X7319503Y-7208194D01*
X7319503Y-7208194D02*
X7290931Y-7208194D01*
X7471884Y-7208194D02*
X7452836Y-7198670D01*
X7452836Y-7198670D02*
X7443312Y-7179622D01*
X7443312Y-7179622D02*
X7443312Y-7008194D01*
X7624265Y-7198670D02*
X7605217Y-7208194D01*
X7605217Y-7208194D02*
X7567122Y-7208194D01*
X7567122Y-7208194D02*
X7548074Y-7198670D01*
X7548074Y-7198670D02*
X7538550Y-7179622D01*
X7538550Y-7179622D02*
X7538550Y-7103432D01*
X7538550Y-7103432D02*
X7548074Y-7084384D01*
X7548074Y-7084384D02*
X7567122Y-7074860D01*
X7567122Y-7074860D02*
X7605217Y-7074860D01*
X7605217Y-7074860D02*
X7624265Y-7084384D01*
X7624265Y-7084384D02*
X7633789Y-7103432D01*
X7633789Y-7103432D02*
X7633789Y-7122479D01*
X7633789Y-7122479D02*
X7538550Y-7141527D01*
X7709979Y-7198670D02*
X7729027Y-7208194D01*
X7729027Y-7208194D02*
X7767122Y-7208194D01*
X7767122Y-7208194D02*
X7786170Y-7198670D01*
X7786170Y-7198670D02*
X7795693Y-7179622D01*
X7795693Y-7179622D02*
X7795693Y-7170098D01*
X7795693Y-7170098D02*
X7786170Y-7151051D01*
X7786170Y-7151051D02*
X7767122Y-7141527D01*
X7767122Y-7141527D02*
X7738550Y-7141527D01*
X7738550Y-7141527D02*
X7719503Y-7132003D01*
X7719503Y-7132003D02*
X7709979Y-7112956D01*
X7709979Y-7112956D02*
X7709979Y-7103432D01*
X7709979Y-7103432D02*
X7719503Y-7084384D01*
X7719503Y-7084384D02*
X7738550Y-7074860D01*
X7738550Y-7074860D02*
X7767122Y-7074860D01*
X7767122Y-7074860D02*
X7786170Y-7084384D01*
X7862360Y-7284384D02*
X7871884Y-7274860D01*
X7871884Y-7274860D02*
X7890931Y-7246289D01*
X7890931Y-7246289D02*
X7900455Y-7227241D01*
X7900455Y-7227241D02*
X7909979Y-7198670D01*
X7909979Y-7198670D02*
X7919503Y-7151051D01*
X7919503Y-7151051D02*
X7919503Y-7112956D01*
X7919503Y-7112956D02*
X7909979Y-7065337D01*
X7909979Y-7065337D02*
X7900455Y-7036765D01*
X7900455Y-7036765D02*
X7890931Y-7017718D01*
X7890931Y-7017718D02*
X7871884Y-6989146D01*
X7871884Y-6989146D02*
X7862360Y-6979622D01*
D12*
X3057297Y-7350710D02*
X3057297Y-7410710D01*
X3027297Y-7380710D02*
X3087297Y-7380710D01*
D11*
X3386169Y-7272194D02*
X3405217Y-7272194D01*
X3405217Y-7272194D02*
X3424264Y-7281718D01*
X3424264Y-7281718D02*
X3433788Y-7291241D01*
X3433788Y-7291241D02*
X3443312Y-7310289D01*
X3443312Y-7310289D02*
X3452836Y-7348384D01*
X3452836Y-7348384D02*
X3452836Y-7396003D01*
X3452836Y-7396003D02*
X3443312Y-7434098D01*
X3443312Y-7434098D02*
X3433788Y-7453146D01*
X3433788Y-7453146D02*
X3424264Y-7462670D01*
X3424264Y-7462670D02*
X3405217Y-7472194D01*
X3405217Y-7472194D02*
X3386169Y-7472194D01*
X3386169Y-7472194D02*
X3367121Y-7462670D01*
X3367121Y-7462670D02*
X3357598Y-7453146D01*
X3357598Y-7453146D02*
X3348074Y-7434098D01*
X3348074Y-7434098D02*
X3338550Y-7396003D01*
X3338550Y-7396003D02*
X3338550Y-7348384D01*
X3338550Y-7348384D02*
X3348074Y-7310289D01*
X3348074Y-7310289D02*
X3357598Y-7291241D01*
X3357598Y-7291241D02*
X3367121Y-7281718D01*
X3367121Y-7281718D02*
X3386169Y-7272194D01*
X3538550Y-7453146D02*
X3548074Y-7462670D01*
X3548074Y-7462670D02*
X3538550Y-7472194D01*
X3538550Y-7472194D02*
X3529026Y-7462670D01*
X3529026Y-7462670D02*
X3538550Y-7453146D01*
X3538550Y-7453146D02*
X3538550Y-7472194D01*
X3719502Y-7272194D02*
X3681407Y-7272194D01*
X3681407Y-7272194D02*
X3662360Y-7281718D01*
X3662360Y-7281718D02*
X3652836Y-7291241D01*
X3652836Y-7291241D02*
X3633788Y-7319813D01*
X3633788Y-7319813D02*
X3624264Y-7357908D01*
X3624264Y-7357908D02*
X3624264Y-7434098D01*
X3624264Y-7434098D02*
X3633788Y-7453146D01*
X3633788Y-7453146D02*
X3643312Y-7462670D01*
X3643312Y-7462670D02*
X3662360Y-7472194D01*
X3662360Y-7472194D02*
X3700455Y-7472194D01*
X3700455Y-7472194D02*
X3719502Y-7462670D01*
X3719502Y-7462670D02*
X3729026Y-7453146D01*
X3729026Y-7453146D02*
X3738550Y-7434098D01*
X3738550Y-7434098D02*
X3738550Y-7386479D01*
X3738550Y-7386479D02*
X3729026Y-7367432D01*
X3729026Y-7367432D02*
X3719502Y-7357908D01*
X3719502Y-7357908D02*
X3700455Y-7348384D01*
X3700455Y-7348384D02*
X3662360Y-7348384D01*
X3662360Y-7348384D02*
X3643312Y-7357908D01*
X3643312Y-7357908D02*
X3633788Y-7367432D01*
X3633788Y-7367432D02*
X3624264Y-7386479D01*
X3862360Y-7272194D02*
X3881407Y-7272194D01*
X3881407Y-7272194D02*
X3900455Y-7281718D01*
X3900455Y-7281718D02*
X3909979Y-7291241D01*
X3909979Y-7291241D02*
X3919502Y-7310289D01*
X3919502Y-7310289D02*
X3929026Y-7348384D01*
X3929026Y-7348384D02*
X3929026Y-7396003D01*
X3929026Y-7396003D02*
X3919502Y-7434098D01*
X3919502Y-7434098D02*
X3909979Y-7453146D01*
X3909979Y-7453146D02*
X3900455Y-7462670D01*
X3900455Y-7462670D02*
X3881407Y-7472194D01*
X3881407Y-7472194D02*
X3862360Y-7472194D01*
X3862360Y-7472194D02*
X3843312Y-7462670D01*
X3843312Y-7462670D02*
X3833788Y-7453146D01*
X3833788Y-7453146D02*
X3824264Y-7434098D01*
X3824264Y-7434098D02*
X3814741Y-7396003D01*
X3814741Y-7396003D02*
X3814741Y-7348384D01*
X3814741Y-7348384D02*
X3824264Y-7310289D01*
X3824264Y-7310289D02*
X3833788Y-7291241D01*
X3833788Y-7291241D02*
X3843312Y-7281718D01*
X3843312Y-7281718D02*
X3862360Y-7272194D01*
X4052836Y-7272194D02*
X4071883Y-7272194D01*
X4071883Y-7272194D02*
X4090931Y-7281718D01*
X4090931Y-7281718D02*
X4100455Y-7291241D01*
X4100455Y-7291241D02*
X4109979Y-7310289D01*
X4109979Y-7310289D02*
X4119502Y-7348384D01*
X4119502Y-7348384D02*
X4119502Y-7396003D01*
X4119502Y-7396003D02*
X4109979Y-7434098D01*
X4109979Y-7434098D02*
X4100455Y-7453146D01*
X4100455Y-7453146D02*
X4090931Y-7462670D01*
X4090931Y-7462670D02*
X4071883Y-7472194D01*
X4071883Y-7472194D02*
X4052836Y-7472194D01*
X4052836Y-7472194D02*
X4033788Y-7462670D01*
X4033788Y-7462670D02*
X4024264Y-7453146D01*
X4024264Y-7453146D02*
X4014741Y-7434098D01*
X4014741Y-7434098D02*
X4005217Y-7396003D01*
X4005217Y-7396003D02*
X4005217Y-7348384D01*
X4005217Y-7348384D02*
X4014741Y-7310289D01*
X4014741Y-7310289D02*
X4024264Y-7291241D01*
X4024264Y-7291241D02*
X4033788Y-7281718D01*
X4033788Y-7281718D02*
X4052836Y-7272194D01*
X4205217Y-7472194D02*
X4205217Y-7338860D01*
X4205217Y-7357908D02*
X4214741Y-7348384D01*
X4214741Y-7348384D02*
X4233788Y-7338860D01*
X4233788Y-7338860D02*
X4262360Y-7338860D01*
X4262360Y-7338860D02*
X4281407Y-7348384D01*
X4281407Y-7348384D02*
X4290931Y-7367432D01*
X4290931Y-7367432D02*
X4290931Y-7472194D01*
X4290931Y-7367432D02*
X4300455Y-7348384D01*
X4300455Y-7348384D02*
X4319503Y-7338860D01*
X4319503Y-7338860D02*
X4348074Y-7338860D01*
X4348074Y-7338860D02*
X4367122Y-7348384D01*
X4367122Y-7348384D02*
X4376645Y-7367432D01*
X4376645Y-7367432D02*
X4376645Y-7472194D01*
X4471884Y-7472194D02*
X4471884Y-7338860D01*
X4471884Y-7357908D02*
X4481407Y-7348384D01*
X4481407Y-7348384D02*
X4500455Y-7338860D01*
X4500455Y-7338860D02*
X4529026Y-7338860D01*
X4529026Y-7338860D02*
X4548074Y-7348384D01*
X4548074Y-7348384D02*
X4557598Y-7367432D01*
X4557598Y-7367432D02*
X4557598Y-7472194D01*
X4557598Y-7367432D02*
X4567122Y-7348384D01*
X4567122Y-7348384D02*
X4586169Y-7338860D01*
X4586169Y-7338860D02*
X4614741Y-7338860D01*
X4614741Y-7338860D02*
X4633788Y-7348384D01*
X4633788Y-7348384D02*
X4643312Y-7367432D01*
X4643312Y-7367432D02*
X4643312Y-7472194D01*
X5033788Y-7262670D02*
X4862360Y-7519813D01*
X5290931Y-7272194D02*
X5309979Y-7272194D01*
X5309979Y-7272194D02*
X5329027Y-7281718D01*
X5329027Y-7281718D02*
X5338550Y-7291241D01*
X5338550Y-7291241D02*
X5348074Y-7310289D01*
X5348074Y-7310289D02*
X5357598Y-7348384D01*
X5357598Y-7348384D02*
X5357598Y-7396003D01*
X5357598Y-7396003D02*
X5348074Y-7434098D01*
X5348074Y-7434098D02*
X5338550Y-7453146D01*
X5338550Y-7453146D02*
X5329027Y-7462670D01*
X5329027Y-7462670D02*
X5309979Y-7472194D01*
X5309979Y-7472194D02*
X5290931Y-7472194D01*
X5290931Y-7472194D02*
X5271884Y-7462670D01*
X5271884Y-7462670D02*
X5262360Y-7453146D01*
X5262360Y-7453146D02*
X5252836Y-7434098D01*
X5252836Y-7434098D02*
X5243312Y-7396003D01*
X5243312Y-7396003D02*
X5243312Y-7348384D01*
X5243312Y-7348384D02*
X5252836Y-7310289D01*
X5252836Y-7310289D02*
X5262360Y-7291241D01*
X5262360Y-7291241D02*
X5271884Y-7281718D01*
X5271884Y-7281718D02*
X5290931Y-7272194D01*
X5443312Y-7453146D02*
X5452836Y-7462670D01*
X5452836Y-7462670D02*
X5443312Y-7472194D01*
X5443312Y-7472194D02*
X5433788Y-7462670D01*
X5433788Y-7462670D02*
X5443312Y-7453146D01*
X5443312Y-7453146D02*
X5443312Y-7472194D01*
X5576646Y-7272194D02*
X5595693Y-7272194D01*
X5595693Y-7272194D02*
X5614741Y-7281718D01*
X5614741Y-7281718D02*
X5624265Y-7291241D01*
X5624265Y-7291241D02*
X5633788Y-7310289D01*
X5633788Y-7310289D02*
X5643312Y-7348384D01*
X5643312Y-7348384D02*
X5643312Y-7396003D01*
X5643312Y-7396003D02*
X5633788Y-7434098D01*
X5633788Y-7434098D02*
X5624265Y-7453146D01*
X5624265Y-7453146D02*
X5614741Y-7462670D01*
X5614741Y-7462670D02*
X5595693Y-7472194D01*
X5595693Y-7472194D02*
X5576646Y-7472194D01*
X5576646Y-7472194D02*
X5557598Y-7462670D01*
X5557598Y-7462670D02*
X5548074Y-7453146D01*
X5548074Y-7453146D02*
X5538550Y-7434098D01*
X5538550Y-7434098D02*
X5529027Y-7396003D01*
X5529027Y-7396003D02*
X5529027Y-7348384D01*
X5529027Y-7348384D02*
X5538550Y-7310289D01*
X5538550Y-7310289D02*
X5548074Y-7291241D01*
X5548074Y-7291241D02*
X5557598Y-7281718D01*
X5557598Y-7281718D02*
X5576646Y-7272194D01*
X5719503Y-7291241D02*
X5729026Y-7281718D01*
X5729026Y-7281718D02*
X5748074Y-7272194D01*
X5748074Y-7272194D02*
X5795693Y-7272194D01*
X5795693Y-7272194D02*
X5814741Y-7281718D01*
X5814741Y-7281718D02*
X5824265Y-7291241D01*
X5824265Y-7291241D02*
X5833788Y-7310289D01*
X5833788Y-7310289D02*
X5833788Y-7329337D01*
X5833788Y-7329337D02*
X5824265Y-7357908D01*
X5824265Y-7357908D02*
X5709979Y-7472194D01*
X5709979Y-7472194D02*
X5833788Y-7472194D01*
X5900455Y-7272194D02*
X6024265Y-7272194D01*
X6024265Y-7272194D02*
X5957598Y-7348384D01*
X5957598Y-7348384D02*
X5986169Y-7348384D01*
X5986169Y-7348384D02*
X6005217Y-7357908D01*
X6005217Y-7357908D02*
X6014741Y-7367432D01*
X6014741Y-7367432D02*
X6024265Y-7386479D01*
X6024265Y-7386479D02*
X6024265Y-7434098D01*
X6024265Y-7434098D02*
X6014741Y-7453146D01*
X6014741Y-7453146D02*
X6005217Y-7462670D01*
X6005217Y-7462670D02*
X5986169Y-7472194D01*
X5986169Y-7472194D02*
X5929026Y-7472194D01*
X5929026Y-7472194D02*
X5909979Y-7462670D01*
X5909979Y-7462670D02*
X5900455Y-7453146D01*
X6195693Y-7272194D02*
X6157598Y-7272194D01*
X6157598Y-7272194D02*
X6138550Y-7281718D01*
X6138550Y-7281718D02*
X6129026Y-7291241D01*
X6129026Y-7291241D02*
X6109979Y-7319813D01*
X6109979Y-7319813D02*
X6100455Y-7357908D01*
X6100455Y-7357908D02*
X6100455Y-7434098D01*
X6100455Y-7434098D02*
X6109979Y-7453146D01*
X6109979Y-7453146D02*
X6119503Y-7462670D01*
X6119503Y-7462670D02*
X6138550Y-7472194D01*
X6138550Y-7472194D02*
X6176646Y-7472194D01*
X6176646Y-7472194D02*
X6195693Y-7462670D01*
X6195693Y-7462670D02*
X6205217Y-7453146D01*
X6205217Y-7453146D02*
X6214741Y-7434098D01*
X6214741Y-7434098D02*
X6214741Y-7386479D01*
X6214741Y-7386479D02*
X6205217Y-7367432D01*
X6205217Y-7367432D02*
X6195693Y-7357908D01*
X6195693Y-7357908D02*
X6176646Y-7348384D01*
X6176646Y-7348384D02*
X6138550Y-7348384D01*
X6138550Y-7348384D02*
X6119503Y-7357908D01*
X6119503Y-7357908D02*
X6109979Y-7367432D01*
X6109979Y-7367432D02*
X6100455Y-7386479D01*
X6290931Y-7272194D02*
X6290931Y-7310289D01*
X6367122Y-7272194D02*
X6367122Y-7310289D01*
X6662360Y-7548384D02*
X6652836Y-7538860D01*
X6652836Y-7538860D02*
X6633788Y-7510289D01*
X6633788Y-7510289D02*
X6624265Y-7491241D01*
X6624265Y-7491241D02*
X6614741Y-7462670D01*
X6614741Y-7462670D02*
X6605217Y-7415051D01*
X6605217Y-7415051D02*
X6605217Y-7376956D01*
X6605217Y-7376956D02*
X6614741Y-7329337D01*
X6614741Y-7329337D02*
X6624265Y-7300765D01*
X6624265Y-7300765D02*
X6633788Y-7281718D01*
X6633788Y-7281718D02*
X6652836Y-7253146D01*
X6652836Y-7253146D02*
X6662360Y-7243622D01*
X6776646Y-7272194D02*
X6795693Y-7272194D01*
X6795693Y-7272194D02*
X6814741Y-7281718D01*
X6814741Y-7281718D02*
X6824265Y-7291241D01*
X6824265Y-7291241D02*
X6833788Y-7310289D01*
X6833788Y-7310289D02*
X6843312Y-7348384D01*
X6843312Y-7348384D02*
X6843312Y-7396003D01*
X6843312Y-7396003D02*
X6833788Y-7434098D01*
X6833788Y-7434098D02*
X6824265Y-7453146D01*
X6824265Y-7453146D02*
X6814741Y-7462670D01*
X6814741Y-7462670D02*
X6795693Y-7472194D01*
X6795693Y-7472194D02*
X6776646Y-7472194D01*
X6776646Y-7472194D02*
X6757598Y-7462670D01*
X6757598Y-7462670D02*
X6748074Y-7453146D01*
X6748074Y-7453146D02*
X6738550Y-7434098D01*
X6738550Y-7434098D02*
X6729027Y-7396003D01*
X6729027Y-7396003D02*
X6729027Y-7348384D01*
X6729027Y-7348384D02*
X6738550Y-7310289D01*
X6738550Y-7310289D02*
X6748074Y-7291241D01*
X6748074Y-7291241D02*
X6757598Y-7281718D01*
X6757598Y-7281718D02*
X6776646Y-7272194D01*
X7081408Y-7472194D02*
X7081408Y-7272194D01*
X7167122Y-7472194D02*
X7167122Y-7367432D01*
X7167122Y-7367432D02*
X7157598Y-7348384D01*
X7157598Y-7348384D02*
X7138550Y-7338860D01*
X7138550Y-7338860D02*
X7109979Y-7338860D01*
X7109979Y-7338860D02*
X7090931Y-7348384D01*
X7090931Y-7348384D02*
X7081408Y-7357908D01*
X7290931Y-7472194D02*
X7271884Y-7462670D01*
X7271884Y-7462670D02*
X7262360Y-7453146D01*
X7262360Y-7453146D02*
X7252836Y-7434098D01*
X7252836Y-7434098D02*
X7252836Y-7376956D01*
X7252836Y-7376956D02*
X7262360Y-7357908D01*
X7262360Y-7357908D02*
X7271884Y-7348384D01*
X7271884Y-7348384D02*
X7290931Y-7338860D01*
X7290931Y-7338860D02*
X7319503Y-7338860D01*
X7319503Y-7338860D02*
X7338550Y-7348384D01*
X7338550Y-7348384D02*
X7348074Y-7357908D01*
X7348074Y-7357908D02*
X7357598Y-7376956D01*
X7357598Y-7376956D02*
X7357598Y-7434098D01*
X7357598Y-7434098D02*
X7348074Y-7453146D01*
X7348074Y-7453146D02*
X7338550Y-7462670D01*
X7338550Y-7462670D02*
X7319503Y-7472194D01*
X7319503Y-7472194D02*
X7290931Y-7472194D01*
X7471884Y-7472194D02*
X7452836Y-7462670D01*
X7452836Y-7462670D02*
X7443312Y-7443622D01*
X7443312Y-7443622D02*
X7443312Y-7272194D01*
X7624265Y-7462670D02*
X7605217Y-7472194D01*
X7605217Y-7472194D02*
X7567122Y-7472194D01*
X7567122Y-7472194D02*
X7548074Y-7462670D01*
X7548074Y-7462670D02*
X7538550Y-7443622D01*
X7538550Y-7443622D02*
X7538550Y-7367432D01*
X7538550Y-7367432D02*
X7548074Y-7348384D01*
X7548074Y-7348384D02*
X7567122Y-7338860D01*
X7567122Y-7338860D02*
X7605217Y-7338860D01*
X7605217Y-7338860D02*
X7624265Y-7348384D01*
X7624265Y-7348384D02*
X7633789Y-7367432D01*
X7633789Y-7367432D02*
X7633789Y-7386479D01*
X7633789Y-7386479D02*
X7538550Y-7405527D01*
X7709979Y-7462670D02*
X7729027Y-7472194D01*
X7729027Y-7472194D02*
X7767122Y-7472194D01*
X7767122Y-7472194D02*
X7786170Y-7462670D01*
X7786170Y-7462670D02*
X7795693Y-7443622D01*
X7795693Y-7443622D02*
X7795693Y-7434098D01*
X7795693Y-7434098D02*
X7786170Y-7415051D01*
X7786170Y-7415051D02*
X7767122Y-7405527D01*
X7767122Y-7405527D02*
X7738550Y-7405527D01*
X7738550Y-7405527D02*
X7719503Y-7396003D01*
X7719503Y-7396003D02*
X7709979Y-7376956D01*
X7709979Y-7376956D02*
X7709979Y-7367432D01*
X7709979Y-7367432D02*
X7719503Y-7348384D01*
X7719503Y-7348384D02*
X7738550Y-7338860D01*
X7738550Y-7338860D02*
X7767122Y-7338860D01*
X7767122Y-7338860D02*
X7786170Y-7348384D01*
X8033789Y-7396003D02*
X8186170Y-7396003D01*
X8109979Y-7472194D02*
X8109979Y-7319813D01*
X8519503Y-7338860D02*
X8519503Y-7472194D01*
X8471884Y-7262670D02*
X8424265Y-7405527D01*
X8424265Y-7405527D02*
X8548074Y-7405527D01*
X8767122Y-7462670D02*
X8786170Y-7472194D01*
X8786170Y-7472194D02*
X8824265Y-7472194D01*
X8824265Y-7472194D02*
X8843313Y-7462670D01*
X8843313Y-7462670D02*
X8852836Y-7443622D01*
X8852836Y-7443622D02*
X8852836Y-7434098D01*
X8852836Y-7434098D02*
X8843313Y-7415051D01*
X8843313Y-7415051D02*
X8824265Y-7405527D01*
X8824265Y-7405527D02*
X8795694Y-7405527D01*
X8795694Y-7405527D02*
X8776646Y-7396003D01*
X8776646Y-7396003D02*
X8767122Y-7376956D01*
X8767122Y-7376956D02*
X8767122Y-7367432D01*
X8767122Y-7367432D02*
X8776646Y-7348384D01*
X8776646Y-7348384D02*
X8795694Y-7338860D01*
X8795694Y-7338860D02*
X8824265Y-7338860D01*
X8824265Y-7338860D02*
X8843313Y-7348384D01*
X8967122Y-7472194D02*
X8948075Y-7462670D01*
X8948075Y-7462670D02*
X8938551Y-7443622D01*
X8938551Y-7443622D02*
X8938551Y-7272194D01*
X9071884Y-7472194D02*
X9052836Y-7462670D01*
X9052836Y-7462670D02*
X9043313Y-7453146D01*
X9043313Y-7453146D02*
X9033789Y-7434098D01*
X9033789Y-7434098D02*
X9033789Y-7376956D01*
X9033789Y-7376956D02*
X9043313Y-7357908D01*
X9043313Y-7357908D02*
X9052836Y-7348384D01*
X9052836Y-7348384D02*
X9071884Y-7338860D01*
X9071884Y-7338860D02*
X9100456Y-7338860D01*
X9100456Y-7338860D02*
X9119503Y-7348384D01*
X9119503Y-7348384D02*
X9129027Y-7357908D01*
X9129027Y-7357908D02*
X9138551Y-7376956D01*
X9138551Y-7376956D02*
X9138551Y-7434098D01*
X9138551Y-7434098D02*
X9129027Y-7453146D01*
X9129027Y-7453146D02*
X9119503Y-7462670D01*
X9119503Y-7462670D02*
X9100456Y-7472194D01*
X9100456Y-7472194D02*
X9071884Y-7472194D01*
X9195694Y-7338860D02*
X9271884Y-7338860D01*
X9224265Y-7272194D02*
X9224265Y-7443622D01*
X9224265Y-7443622D02*
X9233789Y-7462670D01*
X9233789Y-7462670D02*
X9252836Y-7472194D01*
X9252836Y-7472194D02*
X9271884Y-7472194D01*
X9329027Y-7462670D02*
X9348075Y-7472194D01*
X9348075Y-7472194D02*
X9386170Y-7472194D01*
X9386170Y-7472194D02*
X9405217Y-7462670D01*
X9405217Y-7462670D02*
X9414741Y-7443622D01*
X9414741Y-7443622D02*
X9414741Y-7434098D01*
X9414741Y-7434098D02*
X9405217Y-7415051D01*
X9405217Y-7415051D02*
X9386170Y-7405527D01*
X9386170Y-7405527D02*
X9357598Y-7405527D01*
X9357598Y-7405527D02*
X9338551Y-7396003D01*
X9338551Y-7396003D02*
X9329027Y-7376956D01*
X9329027Y-7376956D02*
X9329027Y-7367432D01*
X9329027Y-7367432D02*
X9338551Y-7348384D01*
X9338551Y-7348384D02*
X9357598Y-7338860D01*
X9357598Y-7338860D02*
X9386170Y-7338860D01*
X9386170Y-7338860D02*
X9405217Y-7348384D01*
X9481408Y-7548384D02*
X9490932Y-7538860D01*
X9490932Y-7538860D02*
X9509979Y-7510289D01*
X9509979Y-7510289D02*
X9519503Y-7491241D01*
X9519503Y-7491241D02*
X9529027Y-7462670D01*
X9529027Y-7462670D02*
X9538551Y-7415051D01*
X9538551Y-7415051D02*
X9538551Y-7376956D01*
X9538551Y-7376956D02*
X9529027Y-7329337D01*
X9529027Y-7329337D02*
X9519503Y-7300765D01*
X9519503Y-7300765D02*
X9509979Y-7281718D01*
X9509979Y-7281718D02*
X9490932Y-7253146D01*
X9490932Y-7253146D02*
X9481408Y-7243622D01*
D12*
X3072653Y-7680066D02*
X3072653Y-7609354D01*
X3001941Y-7609354D01*
X3001941Y-7680066D01*
X3072653Y-7680066D01*
D11*
X3452836Y-7736194D02*
X3338550Y-7736194D01*
X3395693Y-7736194D02*
X3395693Y-7536194D01*
X3395693Y-7536194D02*
X3376645Y-7564765D01*
X3376645Y-7564765D02*
X3357598Y-7583813D01*
X3357598Y-7583813D02*
X3338550Y-7593337D01*
X3538550Y-7717146D02*
X3548074Y-7726670D01*
X3548074Y-7726670D02*
X3538550Y-7736194D01*
X3538550Y-7736194D02*
X3529026Y-7726670D01*
X3529026Y-7726670D02*
X3538550Y-7717146D01*
X3538550Y-7717146D02*
X3538550Y-7736194D01*
X3671883Y-7536194D02*
X3690931Y-7536194D01*
X3690931Y-7536194D02*
X3709979Y-7545718D01*
X3709979Y-7545718D02*
X3719502Y-7555241D01*
X3719502Y-7555241D02*
X3729026Y-7574289D01*
X3729026Y-7574289D02*
X3738550Y-7612384D01*
X3738550Y-7612384D02*
X3738550Y-7660003D01*
X3738550Y-7660003D02*
X3729026Y-7698098D01*
X3729026Y-7698098D02*
X3719502Y-7717146D01*
X3719502Y-7717146D02*
X3709979Y-7726670D01*
X3709979Y-7726670D02*
X3690931Y-7736194D01*
X3690931Y-7736194D02*
X3671883Y-7736194D01*
X3671883Y-7736194D02*
X3652836Y-7726670D01*
X3652836Y-7726670D02*
X3643312Y-7717146D01*
X3643312Y-7717146D02*
X3633788Y-7698098D01*
X3633788Y-7698098D02*
X3624264Y-7660003D01*
X3624264Y-7660003D02*
X3624264Y-7612384D01*
X3624264Y-7612384D02*
X3633788Y-7574289D01*
X3633788Y-7574289D02*
X3643312Y-7555241D01*
X3643312Y-7555241D02*
X3652836Y-7545718D01*
X3652836Y-7545718D02*
X3671883Y-7536194D01*
X3862360Y-7536194D02*
X3881407Y-7536194D01*
X3881407Y-7536194D02*
X3900455Y-7545718D01*
X3900455Y-7545718D02*
X3909979Y-7555241D01*
X3909979Y-7555241D02*
X3919502Y-7574289D01*
X3919502Y-7574289D02*
X3929026Y-7612384D01*
X3929026Y-7612384D02*
X3929026Y-7660003D01*
X3929026Y-7660003D02*
X3919502Y-7698098D01*
X3919502Y-7698098D02*
X3909979Y-7717146D01*
X3909979Y-7717146D02*
X3900455Y-7726670D01*
X3900455Y-7726670D02*
X3881407Y-7736194D01*
X3881407Y-7736194D02*
X3862360Y-7736194D01*
X3862360Y-7736194D02*
X3843312Y-7726670D01*
X3843312Y-7726670D02*
X3833788Y-7717146D01*
X3833788Y-7717146D02*
X3824264Y-7698098D01*
X3824264Y-7698098D02*
X3814741Y-7660003D01*
X3814741Y-7660003D02*
X3814741Y-7612384D01*
X3814741Y-7612384D02*
X3824264Y-7574289D01*
X3824264Y-7574289D02*
X3833788Y-7555241D01*
X3833788Y-7555241D02*
X3843312Y-7545718D01*
X3843312Y-7545718D02*
X3862360Y-7536194D01*
X4052836Y-7536194D02*
X4071883Y-7536194D01*
X4071883Y-7536194D02*
X4090931Y-7545718D01*
X4090931Y-7545718D02*
X4100455Y-7555241D01*
X4100455Y-7555241D02*
X4109979Y-7574289D01*
X4109979Y-7574289D02*
X4119502Y-7612384D01*
X4119502Y-7612384D02*
X4119502Y-7660003D01*
X4119502Y-7660003D02*
X4109979Y-7698098D01*
X4109979Y-7698098D02*
X4100455Y-7717146D01*
X4100455Y-7717146D02*
X4090931Y-7726670D01*
X4090931Y-7726670D02*
X4071883Y-7736194D01*
X4071883Y-7736194D02*
X4052836Y-7736194D01*
X4052836Y-7736194D02*
X4033788Y-7726670D01*
X4033788Y-7726670D02*
X4024264Y-7717146D01*
X4024264Y-7717146D02*
X4014741Y-7698098D01*
X4014741Y-7698098D02*
X4005217Y-7660003D01*
X4005217Y-7660003D02*
X4005217Y-7612384D01*
X4005217Y-7612384D02*
X4014741Y-7574289D01*
X4014741Y-7574289D02*
X4024264Y-7555241D01*
X4024264Y-7555241D02*
X4033788Y-7545718D01*
X4033788Y-7545718D02*
X4052836Y-7536194D01*
X4205217Y-7736194D02*
X4205217Y-7602860D01*
X4205217Y-7621908D02*
X4214741Y-7612384D01*
X4214741Y-7612384D02*
X4233788Y-7602860D01*
X4233788Y-7602860D02*
X4262360Y-7602860D01*
X4262360Y-7602860D02*
X4281407Y-7612384D01*
X4281407Y-7612384D02*
X4290931Y-7631432D01*
X4290931Y-7631432D02*
X4290931Y-7736194D01*
X4290931Y-7631432D02*
X4300455Y-7612384D01*
X4300455Y-7612384D02*
X4319503Y-7602860D01*
X4319503Y-7602860D02*
X4348074Y-7602860D01*
X4348074Y-7602860D02*
X4367122Y-7612384D01*
X4367122Y-7612384D02*
X4376645Y-7631432D01*
X4376645Y-7631432D02*
X4376645Y-7736194D01*
X4471884Y-7736194D02*
X4471884Y-7602860D01*
X4471884Y-7621908D02*
X4481407Y-7612384D01*
X4481407Y-7612384D02*
X4500455Y-7602860D01*
X4500455Y-7602860D02*
X4529026Y-7602860D01*
X4529026Y-7602860D02*
X4548074Y-7612384D01*
X4548074Y-7612384D02*
X4557598Y-7631432D01*
X4557598Y-7631432D02*
X4557598Y-7736194D01*
X4557598Y-7631432D02*
X4567122Y-7612384D01*
X4567122Y-7612384D02*
X4586169Y-7602860D01*
X4586169Y-7602860D02*
X4614741Y-7602860D01*
X4614741Y-7602860D02*
X4633788Y-7612384D01*
X4633788Y-7612384D02*
X4643312Y-7631432D01*
X4643312Y-7631432D02*
X4643312Y-7736194D01*
X5033788Y-7526670D02*
X4862360Y-7783813D01*
X5290931Y-7536194D02*
X5309979Y-7536194D01*
X5309979Y-7536194D02*
X5329027Y-7545718D01*
X5329027Y-7545718D02*
X5338550Y-7555241D01*
X5338550Y-7555241D02*
X5348074Y-7574289D01*
X5348074Y-7574289D02*
X5357598Y-7612384D01*
X5357598Y-7612384D02*
X5357598Y-7660003D01*
X5357598Y-7660003D02*
X5348074Y-7698098D01*
X5348074Y-7698098D02*
X5338550Y-7717146D01*
X5338550Y-7717146D02*
X5329027Y-7726670D01*
X5329027Y-7726670D02*
X5309979Y-7736194D01*
X5309979Y-7736194D02*
X5290931Y-7736194D01*
X5290931Y-7736194D02*
X5271884Y-7726670D01*
X5271884Y-7726670D02*
X5262360Y-7717146D01*
X5262360Y-7717146D02*
X5252836Y-7698098D01*
X5252836Y-7698098D02*
X5243312Y-7660003D01*
X5243312Y-7660003D02*
X5243312Y-7612384D01*
X5243312Y-7612384D02*
X5252836Y-7574289D01*
X5252836Y-7574289D02*
X5262360Y-7555241D01*
X5262360Y-7555241D02*
X5271884Y-7545718D01*
X5271884Y-7545718D02*
X5290931Y-7536194D01*
X5443312Y-7717146D02*
X5452836Y-7726670D01*
X5452836Y-7726670D02*
X5443312Y-7736194D01*
X5443312Y-7736194D02*
X5433788Y-7726670D01*
X5433788Y-7726670D02*
X5443312Y-7717146D01*
X5443312Y-7717146D02*
X5443312Y-7736194D01*
X5576646Y-7536194D02*
X5595693Y-7536194D01*
X5595693Y-7536194D02*
X5614741Y-7545718D01*
X5614741Y-7545718D02*
X5624265Y-7555241D01*
X5624265Y-7555241D02*
X5633788Y-7574289D01*
X5633788Y-7574289D02*
X5643312Y-7612384D01*
X5643312Y-7612384D02*
X5643312Y-7660003D01*
X5643312Y-7660003D02*
X5633788Y-7698098D01*
X5633788Y-7698098D02*
X5624265Y-7717146D01*
X5624265Y-7717146D02*
X5614741Y-7726670D01*
X5614741Y-7726670D02*
X5595693Y-7736194D01*
X5595693Y-7736194D02*
X5576646Y-7736194D01*
X5576646Y-7736194D02*
X5557598Y-7726670D01*
X5557598Y-7726670D02*
X5548074Y-7717146D01*
X5548074Y-7717146D02*
X5538550Y-7698098D01*
X5538550Y-7698098D02*
X5529027Y-7660003D01*
X5529027Y-7660003D02*
X5529027Y-7612384D01*
X5529027Y-7612384D02*
X5538550Y-7574289D01*
X5538550Y-7574289D02*
X5548074Y-7555241D01*
X5548074Y-7555241D02*
X5557598Y-7545718D01*
X5557598Y-7545718D02*
X5576646Y-7536194D01*
X5709979Y-7536194D02*
X5833788Y-7536194D01*
X5833788Y-7536194D02*
X5767122Y-7612384D01*
X5767122Y-7612384D02*
X5795693Y-7612384D01*
X5795693Y-7612384D02*
X5814741Y-7621908D01*
X5814741Y-7621908D02*
X5824265Y-7631432D01*
X5824265Y-7631432D02*
X5833788Y-7650479D01*
X5833788Y-7650479D02*
X5833788Y-7698098D01*
X5833788Y-7698098D02*
X5824265Y-7717146D01*
X5824265Y-7717146D02*
X5814741Y-7726670D01*
X5814741Y-7726670D02*
X5795693Y-7736194D01*
X5795693Y-7736194D02*
X5738550Y-7736194D01*
X5738550Y-7736194D02*
X5719503Y-7726670D01*
X5719503Y-7726670D02*
X5709979Y-7717146D01*
X5929026Y-7736194D02*
X5967122Y-7736194D01*
X5967122Y-7736194D02*
X5986169Y-7726670D01*
X5986169Y-7726670D02*
X5995693Y-7717146D01*
X5995693Y-7717146D02*
X6014741Y-7688575D01*
X6014741Y-7688575D02*
X6024265Y-7650479D01*
X6024265Y-7650479D02*
X6024265Y-7574289D01*
X6024265Y-7574289D02*
X6014741Y-7555241D01*
X6014741Y-7555241D02*
X6005217Y-7545718D01*
X6005217Y-7545718D02*
X5986169Y-7536194D01*
X5986169Y-7536194D02*
X5948074Y-7536194D01*
X5948074Y-7536194D02*
X5929026Y-7545718D01*
X5929026Y-7545718D02*
X5919503Y-7555241D01*
X5919503Y-7555241D02*
X5909979Y-7574289D01*
X5909979Y-7574289D02*
X5909979Y-7621908D01*
X5909979Y-7621908D02*
X5919503Y-7640956D01*
X5919503Y-7640956D02*
X5929026Y-7650479D01*
X5929026Y-7650479D02*
X5948074Y-7660003D01*
X5948074Y-7660003D02*
X5986169Y-7660003D01*
X5986169Y-7660003D02*
X6005217Y-7650479D01*
X6005217Y-7650479D02*
X6014741Y-7640956D01*
X6014741Y-7640956D02*
X6024265Y-7621908D01*
X6195693Y-7602860D02*
X6195693Y-7736194D01*
X6148074Y-7526670D02*
X6100455Y-7669527D01*
X6100455Y-7669527D02*
X6224265Y-7669527D01*
X6290931Y-7536194D02*
X6290931Y-7574289D01*
X6367122Y-7536194D02*
X6367122Y-7574289D01*
X6662360Y-7812384D02*
X6652836Y-7802860D01*
X6652836Y-7802860D02*
X6633788Y-7774289D01*
X6633788Y-7774289D02*
X6624265Y-7755241D01*
X6624265Y-7755241D02*
X6614741Y-7726670D01*
X6614741Y-7726670D02*
X6605217Y-7679051D01*
X6605217Y-7679051D02*
X6605217Y-7640956D01*
X6605217Y-7640956D02*
X6614741Y-7593337D01*
X6614741Y-7593337D02*
X6624265Y-7564765D01*
X6624265Y-7564765D02*
X6633788Y-7545718D01*
X6633788Y-7545718D02*
X6652836Y-7517146D01*
X6652836Y-7517146D02*
X6662360Y-7507622D01*
X6729027Y-7555241D02*
X6738550Y-7545718D01*
X6738550Y-7545718D02*
X6757598Y-7536194D01*
X6757598Y-7536194D02*
X6805217Y-7536194D01*
X6805217Y-7536194D02*
X6824265Y-7545718D01*
X6824265Y-7545718D02*
X6833788Y-7555241D01*
X6833788Y-7555241D02*
X6843312Y-7574289D01*
X6843312Y-7574289D02*
X6843312Y-7593337D01*
X6843312Y-7593337D02*
X6833788Y-7621908D01*
X6833788Y-7621908D02*
X6719503Y-7736194D01*
X6719503Y-7736194D02*
X6843312Y-7736194D01*
X7081408Y-7736194D02*
X7081408Y-7536194D01*
X7167122Y-7736194D02*
X7167122Y-7631432D01*
X7167122Y-7631432D02*
X7157598Y-7612384D01*
X7157598Y-7612384D02*
X7138550Y-7602860D01*
X7138550Y-7602860D02*
X7109979Y-7602860D01*
X7109979Y-7602860D02*
X7090931Y-7612384D01*
X7090931Y-7612384D02*
X7081408Y-7621908D01*
X7290931Y-7736194D02*
X7271884Y-7726670D01*
X7271884Y-7726670D02*
X7262360Y-7717146D01*
X7262360Y-7717146D02*
X7252836Y-7698098D01*
X7252836Y-7698098D02*
X7252836Y-7640956D01*
X7252836Y-7640956D02*
X7262360Y-7621908D01*
X7262360Y-7621908D02*
X7271884Y-7612384D01*
X7271884Y-7612384D02*
X7290931Y-7602860D01*
X7290931Y-7602860D02*
X7319503Y-7602860D01*
X7319503Y-7602860D02*
X7338550Y-7612384D01*
X7338550Y-7612384D02*
X7348074Y-7621908D01*
X7348074Y-7621908D02*
X7357598Y-7640956D01*
X7357598Y-7640956D02*
X7357598Y-7698098D01*
X7357598Y-7698098D02*
X7348074Y-7717146D01*
X7348074Y-7717146D02*
X7338550Y-7726670D01*
X7338550Y-7726670D02*
X7319503Y-7736194D01*
X7319503Y-7736194D02*
X7290931Y-7736194D01*
X7471884Y-7736194D02*
X7452836Y-7726670D01*
X7452836Y-7726670D02*
X7443312Y-7707622D01*
X7443312Y-7707622D02*
X7443312Y-7536194D01*
X7624265Y-7726670D02*
X7605217Y-7736194D01*
X7605217Y-7736194D02*
X7567122Y-7736194D01*
X7567122Y-7736194D02*
X7548074Y-7726670D01*
X7548074Y-7726670D02*
X7538550Y-7707622D01*
X7538550Y-7707622D02*
X7538550Y-7631432D01*
X7538550Y-7631432D02*
X7548074Y-7612384D01*
X7548074Y-7612384D02*
X7567122Y-7602860D01*
X7567122Y-7602860D02*
X7605217Y-7602860D01*
X7605217Y-7602860D02*
X7624265Y-7612384D01*
X7624265Y-7612384D02*
X7633789Y-7631432D01*
X7633789Y-7631432D02*
X7633789Y-7650479D01*
X7633789Y-7650479D02*
X7538550Y-7669527D01*
X7709979Y-7726670D02*
X7729027Y-7736194D01*
X7729027Y-7736194D02*
X7767122Y-7736194D01*
X7767122Y-7736194D02*
X7786170Y-7726670D01*
X7786170Y-7726670D02*
X7795693Y-7707622D01*
X7795693Y-7707622D02*
X7795693Y-7698098D01*
X7795693Y-7698098D02*
X7786170Y-7679051D01*
X7786170Y-7679051D02*
X7767122Y-7669527D01*
X7767122Y-7669527D02*
X7738550Y-7669527D01*
X7738550Y-7669527D02*
X7719503Y-7660003D01*
X7719503Y-7660003D02*
X7709979Y-7640956D01*
X7709979Y-7640956D02*
X7709979Y-7631432D01*
X7709979Y-7631432D02*
X7719503Y-7612384D01*
X7719503Y-7612384D02*
X7738550Y-7602860D01*
X7738550Y-7602860D02*
X7767122Y-7602860D01*
X7767122Y-7602860D02*
X7786170Y-7612384D01*
X7862360Y-7812384D02*
X7871884Y-7802860D01*
X7871884Y-7802860D02*
X7890931Y-7774289D01*
X7890931Y-7774289D02*
X7900455Y-7755241D01*
X7900455Y-7755241D02*
X7909979Y-7726670D01*
X7909979Y-7726670D02*
X7919503Y-7679051D01*
X7919503Y-7679051D02*
X7919503Y-7640956D01*
X7919503Y-7640956D02*
X7909979Y-7593337D01*
X7909979Y-7593337D02*
X7900455Y-7564765D01*
X7900455Y-7564765D02*
X7890931Y-7545718D01*
X7890931Y-7545718D02*
X7871884Y-7517146D01*
X7871884Y-7517146D02*
X7862360Y-7507622D01*
M02*
