%TF.GenerationSoftware,KiCad,Pcbnew,7.0.1*%
%TF.CreationDate,2024-08-21T14:39:27+02:00*%
%TF.ProjectId,renforce-eda,72656e66-6f72-4636-952d-6564612e6b69,1.0*%
%TF.SameCoordinates,Original*%
%TF.FileFunction,Copper,L2,Bot*%
%TF.FilePolarity,Positive*%
%FSLAX46Y46*%
G04 Gerber Fmt 4.6, Leading zero omitted, Abs format (unit mm)*
G04 Created by KiCad (PCBNEW 7.0.1) date 2024-08-21 14:39:27*
%MOMM*%
%LPD*%
G01*
G04 APERTURE LIST*
%ADD10C,0.100000*%
%ADD11C,0.150000*%
%ADD12C,0.300000*%
%ADD13C,0.400000*%
%TA.AperFunction,NonConductor*%
%ADD14C,0.300000*%
%TD*%
%TA.AperFunction,ComponentPad*%
%ADD15O,1.100000X2.200000*%
%TD*%
%TA.AperFunction,ComponentPad*%
%ADD16O,1.300000X2.600000*%
%TD*%
%TA.AperFunction,ComponentPad*%
%ADD17O,2.032000X1.016000*%
%TD*%
%TA.AperFunction,ComponentPad*%
%ADD18R,1.700000X1.700000*%
%TD*%
%TA.AperFunction,ComponentPad*%
%ADD19O,1.700000X1.700000*%
%TD*%
%TA.AperFunction,ViaPad*%
%ADD20C,0.600000*%
%TD*%
%TA.AperFunction,Conductor*%
%ADD21C,0.254000*%
%TD*%
%TA.AperFunction,Conductor*%
%ADD22C,0.200000*%
%TD*%
%TA.AperFunction,Profile*%
%ADD23C,0.254000*%
%TD*%
G04 APERTURE END LIST*
D10*
D11*
X30012400Y-75989600D02*
X138012400Y-75989600D01*
X138012400Y-107989600D01*
X30012400Y-107989600D01*
X30012400Y-75989600D01*
D10*
D11*
X10000000Y-10000000D02*
X140012400Y-10000000D01*
X140012400Y-109989600D01*
X10000000Y-109989600D01*
X10000000Y-10000000D01*
D10*
D11*
X12000000Y-12000000D02*
X138012400Y-12000000D01*
X138012400Y-107989600D01*
X12000000Y-107989600D01*
X12000000Y-12000000D01*
D10*
D11*
X60000000Y-12000000D02*
X60000000Y-10000000D01*
D10*
D11*
X110000000Y-12000000D02*
X110000000Y-10000000D01*
D10*
D11*
X35990476Y-11601404D02*
X35247619Y-11601404D01*
X35619047Y-11601404D02*
X35619047Y-10301404D01*
X35619047Y-10301404D02*
X35495238Y-10487119D01*
X35495238Y-10487119D02*
X35371428Y-10610928D01*
X35371428Y-10610928D02*
X35247619Y-10672833D01*
D10*
D11*
X85247619Y-10425214D02*
X85309523Y-10363309D01*
X85309523Y-10363309D02*
X85433333Y-10301404D01*
X85433333Y-10301404D02*
X85742857Y-10301404D01*
X85742857Y-10301404D02*
X85866666Y-10363309D01*
X85866666Y-10363309D02*
X85928571Y-10425214D01*
X85928571Y-10425214D02*
X85990476Y-10549023D01*
X85990476Y-10549023D02*
X85990476Y-10672833D01*
X85990476Y-10672833D02*
X85928571Y-10858547D01*
X85928571Y-10858547D02*
X85185714Y-11601404D01*
X85185714Y-11601404D02*
X85990476Y-11601404D01*
D10*
D11*
X135185714Y-10301404D02*
X135990476Y-10301404D01*
X135990476Y-10301404D02*
X135557142Y-10796642D01*
X135557142Y-10796642D02*
X135742857Y-10796642D01*
X135742857Y-10796642D02*
X135866666Y-10858547D01*
X135866666Y-10858547D02*
X135928571Y-10920452D01*
X135928571Y-10920452D02*
X135990476Y-11044261D01*
X135990476Y-11044261D02*
X135990476Y-11353785D01*
X135990476Y-11353785D02*
X135928571Y-11477595D01*
X135928571Y-11477595D02*
X135866666Y-11539500D01*
X135866666Y-11539500D02*
X135742857Y-11601404D01*
X135742857Y-11601404D02*
X135371428Y-11601404D01*
X135371428Y-11601404D02*
X135247619Y-11539500D01*
X135247619Y-11539500D02*
X135185714Y-11477595D01*
D10*
D11*
X60000000Y-107989600D02*
X60000000Y-109989600D01*
D10*
D11*
X110000000Y-107989600D02*
X110000000Y-109989600D01*
D10*
D11*
X35990476Y-109591004D02*
X35247619Y-109591004D01*
X35619047Y-109591004D02*
X35619047Y-108291004D01*
X35619047Y-108291004D02*
X35495238Y-108476719D01*
X35495238Y-108476719D02*
X35371428Y-108600528D01*
X35371428Y-108600528D02*
X35247619Y-108662433D01*
D10*
D11*
X85247619Y-108414814D02*
X85309523Y-108352909D01*
X85309523Y-108352909D02*
X85433333Y-108291004D01*
X85433333Y-108291004D02*
X85742857Y-108291004D01*
X85742857Y-108291004D02*
X85866666Y-108352909D01*
X85866666Y-108352909D02*
X85928571Y-108414814D01*
X85928571Y-108414814D02*
X85990476Y-108538623D01*
X85990476Y-108538623D02*
X85990476Y-108662433D01*
X85990476Y-108662433D02*
X85928571Y-108848147D01*
X85928571Y-108848147D02*
X85185714Y-109591004D01*
X85185714Y-109591004D02*
X85990476Y-109591004D01*
D10*
D11*
X135185714Y-108291004D02*
X135990476Y-108291004D01*
X135990476Y-108291004D02*
X135557142Y-108786242D01*
X135557142Y-108786242D02*
X135742857Y-108786242D01*
X135742857Y-108786242D02*
X135866666Y-108848147D01*
X135866666Y-108848147D02*
X135928571Y-108910052D01*
X135928571Y-108910052D02*
X135990476Y-109033861D01*
X135990476Y-109033861D02*
X135990476Y-109343385D01*
X135990476Y-109343385D02*
X135928571Y-109467195D01*
X135928571Y-109467195D02*
X135866666Y-109529100D01*
X135866666Y-109529100D02*
X135742857Y-109591004D01*
X135742857Y-109591004D02*
X135371428Y-109591004D01*
X135371428Y-109591004D02*
X135247619Y-109529100D01*
X135247619Y-109529100D02*
X135185714Y-109467195D01*
D10*
D11*
X10000000Y-60000000D02*
X12000000Y-60000000D01*
D10*
D11*
X10690476Y-35229976D02*
X11309523Y-35229976D01*
X10566666Y-35601404D02*
X10999999Y-34301404D01*
X10999999Y-34301404D02*
X11433333Y-35601404D01*
D10*
D11*
X11092857Y-84920452D02*
X11278571Y-84982357D01*
X11278571Y-84982357D02*
X11340476Y-85044261D01*
X11340476Y-85044261D02*
X11402380Y-85168071D01*
X11402380Y-85168071D02*
X11402380Y-85353785D01*
X11402380Y-85353785D02*
X11340476Y-85477595D01*
X11340476Y-85477595D02*
X11278571Y-85539500D01*
X11278571Y-85539500D02*
X11154761Y-85601404D01*
X11154761Y-85601404D02*
X10659523Y-85601404D01*
X10659523Y-85601404D02*
X10659523Y-84301404D01*
X10659523Y-84301404D02*
X11092857Y-84301404D01*
X11092857Y-84301404D02*
X11216666Y-84363309D01*
X11216666Y-84363309D02*
X11278571Y-84425214D01*
X11278571Y-84425214D02*
X11340476Y-84549023D01*
X11340476Y-84549023D02*
X11340476Y-84672833D01*
X11340476Y-84672833D02*
X11278571Y-84796642D01*
X11278571Y-84796642D02*
X11216666Y-84858547D01*
X11216666Y-84858547D02*
X11092857Y-84920452D01*
X11092857Y-84920452D02*
X10659523Y-84920452D01*
D10*
D11*
X140012400Y-60000000D02*
X138012400Y-60000000D01*
D10*
D11*
X138702876Y-35229976D02*
X139321923Y-35229976D01*
X138579066Y-35601404D02*
X139012399Y-34301404D01*
X139012399Y-34301404D02*
X139445733Y-35601404D01*
D10*
D11*
X139105257Y-84920452D02*
X139290971Y-84982357D01*
X139290971Y-84982357D02*
X139352876Y-85044261D01*
X139352876Y-85044261D02*
X139414780Y-85168071D01*
X139414780Y-85168071D02*
X139414780Y-85353785D01*
X139414780Y-85353785D02*
X139352876Y-85477595D01*
X139352876Y-85477595D02*
X139290971Y-85539500D01*
X139290971Y-85539500D02*
X139167161Y-85601404D01*
X139167161Y-85601404D02*
X138671923Y-85601404D01*
X138671923Y-85601404D02*
X138671923Y-84301404D01*
X138671923Y-84301404D02*
X139105257Y-84301404D01*
X139105257Y-84301404D02*
X139229066Y-84363309D01*
X139229066Y-84363309D02*
X139290971Y-84425214D01*
X139290971Y-84425214D02*
X139352876Y-84549023D01*
X139352876Y-84549023D02*
X139352876Y-84672833D01*
X139352876Y-84672833D02*
X139290971Y-84796642D01*
X139290971Y-84796642D02*
X139229066Y-84858547D01*
X139229066Y-84858547D02*
X139105257Y-84920452D01*
X139105257Y-84920452D02*
X138671923Y-84920452D01*
D10*
D11*
X53369542Y-103783528D02*
X53369542Y-102283528D01*
X53369542Y-102283528D02*
X53726685Y-102283528D01*
X53726685Y-102283528D02*
X53940971Y-102354957D01*
X53940971Y-102354957D02*
X54083828Y-102497814D01*
X54083828Y-102497814D02*
X54155257Y-102640671D01*
X54155257Y-102640671D02*
X54226685Y-102926385D01*
X54226685Y-102926385D02*
X54226685Y-103140671D01*
X54226685Y-103140671D02*
X54155257Y-103426385D01*
X54155257Y-103426385D02*
X54083828Y-103569242D01*
X54083828Y-103569242D02*
X53940971Y-103712100D01*
X53940971Y-103712100D02*
X53726685Y-103783528D01*
X53726685Y-103783528D02*
X53369542Y-103783528D01*
X55512400Y-103783528D02*
X55512400Y-102997814D01*
X55512400Y-102997814D02*
X55440971Y-102854957D01*
X55440971Y-102854957D02*
X55298114Y-102783528D01*
X55298114Y-102783528D02*
X55012400Y-102783528D01*
X55012400Y-102783528D02*
X54869542Y-102854957D01*
X55512400Y-103712100D02*
X55369542Y-103783528D01*
X55369542Y-103783528D02*
X55012400Y-103783528D01*
X55012400Y-103783528D02*
X54869542Y-103712100D01*
X54869542Y-103712100D02*
X54798114Y-103569242D01*
X54798114Y-103569242D02*
X54798114Y-103426385D01*
X54798114Y-103426385D02*
X54869542Y-103283528D01*
X54869542Y-103283528D02*
X55012400Y-103212100D01*
X55012400Y-103212100D02*
X55369542Y-103212100D01*
X55369542Y-103212100D02*
X55512400Y-103140671D01*
X56012400Y-102783528D02*
X56583828Y-102783528D01*
X56226685Y-102283528D02*
X56226685Y-103569242D01*
X56226685Y-103569242D02*
X56298114Y-103712100D01*
X56298114Y-103712100D02*
X56440971Y-103783528D01*
X56440971Y-103783528D02*
X56583828Y-103783528D01*
X57655257Y-103712100D02*
X57512400Y-103783528D01*
X57512400Y-103783528D02*
X57226686Y-103783528D01*
X57226686Y-103783528D02*
X57083828Y-103712100D01*
X57083828Y-103712100D02*
X57012400Y-103569242D01*
X57012400Y-103569242D02*
X57012400Y-102997814D01*
X57012400Y-102997814D02*
X57083828Y-102854957D01*
X57083828Y-102854957D02*
X57226686Y-102783528D01*
X57226686Y-102783528D02*
X57512400Y-102783528D01*
X57512400Y-102783528D02*
X57655257Y-102854957D01*
X57655257Y-102854957D02*
X57726686Y-102997814D01*
X57726686Y-102997814D02*
X57726686Y-103140671D01*
X57726686Y-103140671D02*
X57012400Y-103283528D01*
X58369542Y-103640671D02*
X58440971Y-103712100D01*
X58440971Y-103712100D02*
X58369542Y-103783528D01*
X58369542Y-103783528D02*
X58298114Y-103712100D01*
X58298114Y-103712100D02*
X58369542Y-103640671D01*
X58369542Y-103640671D02*
X58369542Y-103783528D01*
X58369542Y-102854957D02*
X58440971Y-102926385D01*
X58440971Y-102926385D02*
X58369542Y-102997814D01*
X58369542Y-102997814D02*
X58298114Y-102926385D01*
X58298114Y-102926385D02*
X58369542Y-102854957D01*
X58369542Y-102854957D02*
X58369542Y-102997814D01*
X60155257Y-102426385D02*
X60226685Y-102354957D01*
X60226685Y-102354957D02*
X60369543Y-102283528D01*
X60369543Y-102283528D02*
X60726685Y-102283528D01*
X60726685Y-102283528D02*
X60869543Y-102354957D01*
X60869543Y-102354957D02*
X60940971Y-102426385D01*
X60940971Y-102426385D02*
X61012400Y-102569242D01*
X61012400Y-102569242D02*
X61012400Y-102712100D01*
X61012400Y-102712100D02*
X60940971Y-102926385D01*
X60940971Y-102926385D02*
X60083828Y-103783528D01*
X60083828Y-103783528D02*
X61012400Y-103783528D01*
X61940971Y-102283528D02*
X62083828Y-102283528D01*
X62083828Y-102283528D02*
X62226685Y-102354957D01*
X62226685Y-102354957D02*
X62298114Y-102426385D01*
X62298114Y-102426385D02*
X62369542Y-102569242D01*
X62369542Y-102569242D02*
X62440971Y-102854957D01*
X62440971Y-102854957D02*
X62440971Y-103212100D01*
X62440971Y-103212100D02*
X62369542Y-103497814D01*
X62369542Y-103497814D02*
X62298114Y-103640671D01*
X62298114Y-103640671D02*
X62226685Y-103712100D01*
X62226685Y-103712100D02*
X62083828Y-103783528D01*
X62083828Y-103783528D02*
X61940971Y-103783528D01*
X61940971Y-103783528D02*
X61798114Y-103712100D01*
X61798114Y-103712100D02*
X61726685Y-103640671D01*
X61726685Y-103640671D02*
X61655256Y-103497814D01*
X61655256Y-103497814D02*
X61583828Y-103212100D01*
X61583828Y-103212100D02*
X61583828Y-102854957D01*
X61583828Y-102854957D02*
X61655256Y-102569242D01*
X61655256Y-102569242D02*
X61726685Y-102426385D01*
X61726685Y-102426385D02*
X61798114Y-102354957D01*
X61798114Y-102354957D02*
X61940971Y-102283528D01*
X63012399Y-102426385D02*
X63083827Y-102354957D01*
X63083827Y-102354957D02*
X63226685Y-102283528D01*
X63226685Y-102283528D02*
X63583827Y-102283528D01*
X63583827Y-102283528D02*
X63726685Y-102354957D01*
X63726685Y-102354957D02*
X63798113Y-102426385D01*
X63798113Y-102426385D02*
X63869542Y-102569242D01*
X63869542Y-102569242D02*
X63869542Y-102712100D01*
X63869542Y-102712100D02*
X63798113Y-102926385D01*
X63798113Y-102926385D02*
X62940970Y-103783528D01*
X62940970Y-103783528D02*
X63869542Y-103783528D01*
X65155256Y-102783528D02*
X65155256Y-103783528D01*
X64798113Y-102212100D02*
X64440970Y-103283528D01*
X64440970Y-103283528D02*
X65369541Y-103283528D01*
X65940969Y-103212100D02*
X67083827Y-103212100D01*
X68083827Y-102283528D02*
X68226684Y-102283528D01*
X68226684Y-102283528D02*
X68369541Y-102354957D01*
X68369541Y-102354957D02*
X68440970Y-102426385D01*
X68440970Y-102426385D02*
X68512398Y-102569242D01*
X68512398Y-102569242D02*
X68583827Y-102854957D01*
X68583827Y-102854957D02*
X68583827Y-103212100D01*
X68583827Y-103212100D02*
X68512398Y-103497814D01*
X68512398Y-103497814D02*
X68440970Y-103640671D01*
X68440970Y-103640671D02*
X68369541Y-103712100D01*
X68369541Y-103712100D02*
X68226684Y-103783528D01*
X68226684Y-103783528D02*
X68083827Y-103783528D01*
X68083827Y-103783528D02*
X67940970Y-103712100D01*
X67940970Y-103712100D02*
X67869541Y-103640671D01*
X67869541Y-103640671D02*
X67798112Y-103497814D01*
X67798112Y-103497814D02*
X67726684Y-103212100D01*
X67726684Y-103212100D02*
X67726684Y-102854957D01*
X67726684Y-102854957D02*
X67798112Y-102569242D01*
X67798112Y-102569242D02*
X67869541Y-102426385D01*
X67869541Y-102426385D02*
X67940970Y-102354957D01*
X67940970Y-102354957D02*
X68083827Y-102283528D01*
X69940969Y-102283528D02*
X69226683Y-102283528D01*
X69226683Y-102283528D02*
X69155255Y-102997814D01*
X69155255Y-102997814D02*
X69226683Y-102926385D01*
X69226683Y-102926385D02*
X69369541Y-102854957D01*
X69369541Y-102854957D02*
X69726683Y-102854957D01*
X69726683Y-102854957D02*
X69869541Y-102926385D01*
X69869541Y-102926385D02*
X69940969Y-102997814D01*
X69940969Y-102997814D02*
X70012398Y-103140671D01*
X70012398Y-103140671D02*
X70012398Y-103497814D01*
X70012398Y-103497814D02*
X69940969Y-103640671D01*
X69940969Y-103640671D02*
X69869541Y-103712100D01*
X69869541Y-103712100D02*
X69726683Y-103783528D01*
X69726683Y-103783528D02*
X69369541Y-103783528D01*
X69369541Y-103783528D02*
X69226683Y-103712100D01*
X69226683Y-103712100D02*
X69155255Y-103640671D01*
X70655254Y-103212100D02*
X71798112Y-103212100D01*
X72798112Y-102283528D02*
X72940969Y-102283528D01*
X72940969Y-102283528D02*
X73083826Y-102354957D01*
X73083826Y-102354957D02*
X73155255Y-102426385D01*
X73155255Y-102426385D02*
X73226683Y-102569242D01*
X73226683Y-102569242D02*
X73298112Y-102854957D01*
X73298112Y-102854957D02*
X73298112Y-103212100D01*
X73298112Y-103212100D02*
X73226683Y-103497814D01*
X73226683Y-103497814D02*
X73155255Y-103640671D01*
X73155255Y-103640671D02*
X73083826Y-103712100D01*
X73083826Y-103712100D02*
X72940969Y-103783528D01*
X72940969Y-103783528D02*
X72798112Y-103783528D01*
X72798112Y-103783528D02*
X72655255Y-103712100D01*
X72655255Y-103712100D02*
X72583826Y-103640671D01*
X72583826Y-103640671D02*
X72512397Y-103497814D01*
X72512397Y-103497814D02*
X72440969Y-103212100D01*
X72440969Y-103212100D02*
X72440969Y-102854957D01*
X72440969Y-102854957D02*
X72512397Y-102569242D01*
X72512397Y-102569242D02*
X72583826Y-102426385D01*
X72583826Y-102426385D02*
X72655255Y-102354957D01*
X72655255Y-102354957D02*
X72798112Y-102283528D01*
X74583826Y-102283528D02*
X74298111Y-102283528D01*
X74298111Y-102283528D02*
X74155254Y-102354957D01*
X74155254Y-102354957D02*
X74083826Y-102426385D01*
X74083826Y-102426385D02*
X73940968Y-102640671D01*
X73940968Y-102640671D02*
X73869540Y-102926385D01*
X73869540Y-102926385D02*
X73869540Y-103497814D01*
X73869540Y-103497814D02*
X73940968Y-103640671D01*
X73940968Y-103640671D02*
X74012397Y-103712100D01*
X74012397Y-103712100D02*
X74155254Y-103783528D01*
X74155254Y-103783528D02*
X74440968Y-103783528D01*
X74440968Y-103783528D02*
X74583826Y-103712100D01*
X74583826Y-103712100D02*
X74655254Y-103640671D01*
X74655254Y-103640671D02*
X74726683Y-103497814D01*
X74726683Y-103497814D02*
X74726683Y-103140671D01*
X74726683Y-103140671D02*
X74655254Y-102997814D01*
X74655254Y-102997814D02*
X74583826Y-102926385D01*
X74583826Y-102926385D02*
X74440968Y-102854957D01*
X74440968Y-102854957D02*
X74155254Y-102854957D01*
X74155254Y-102854957D02*
X74012397Y-102926385D01*
X74012397Y-102926385D02*
X73940968Y-102997814D01*
X73940968Y-102997814D02*
X73869540Y-103140671D01*
D10*
D11*
X30012400Y-104489600D02*
X138012400Y-104489600D01*
D10*
D11*
X31369542Y-106583528D02*
X31369542Y-105083528D01*
X32226685Y-106583528D02*
X31583828Y-105726385D01*
X32226685Y-105083528D02*
X31369542Y-105940671D01*
X32869542Y-106583528D02*
X32869542Y-105583528D01*
X32869542Y-105083528D02*
X32798114Y-105154957D01*
X32798114Y-105154957D02*
X32869542Y-105226385D01*
X32869542Y-105226385D02*
X32940971Y-105154957D01*
X32940971Y-105154957D02*
X32869542Y-105083528D01*
X32869542Y-105083528D02*
X32869542Y-105226385D01*
X34440971Y-106440671D02*
X34369543Y-106512100D01*
X34369543Y-106512100D02*
X34155257Y-106583528D01*
X34155257Y-106583528D02*
X34012400Y-106583528D01*
X34012400Y-106583528D02*
X33798114Y-106512100D01*
X33798114Y-106512100D02*
X33655257Y-106369242D01*
X33655257Y-106369242D02*
X33583828Y-106226385D01*
X33583828Y-106226385D02*
X33512400Y-105940671D01*
X33512400Y-105940671D02*
X33512400Y-105726385D01*
X33512400Y-105726385D02*
X33583828Y-105440671D01*
X33583828Y-105440671D02*
X33655257Y-105297814D01*
X33655257Y-105297814D02*
X33798114Y-105154957D01*
X33798114Y-105154957D02*
X34012400Y-105083528D01*
X34012400Y-105083528D02*
X34155257Y-105083528D01*
X34155257Y-105083528D02*
X34369543Y-105154957D01*
X34369543Y-105154957D02*
X34440971Y-105226385D01*
X35726686Y-106583528D02*
X35726686Y-105797814D01*
X35726686Y-105797814D02*
X35655257Y-105654957D01*
X35655257Y-105654957D02*
X35512400Y-105583528D01*
X35512400Y-105583528D02*
X35226686Y-105583528D01*
X35226686Y-105583528D02*
X35083828Y-105654957D01*
X35726686Y-106512100D02*
X35583828Y-106583528D01*
X35583828Y-106583528D02*
X35226686Y-106583528D01*
X35226686Y-106583528D02*
X35083828Y-106512100D01*
X35083828Y-106512100D02*
X35012400Y-106369242D01*
X35012400Y-106369242D02*
X35012400Y-106226385D01*
X35012400Y-106226385D02*
X35083828Y-106083528D01*
X35083828Y-106083528D02*
X35226686Y-106012100D01*
X35226686Y-106012100D02*
X35583828Y-106012100D01*
X35583828Y-106012100D02*
X35726686Y-105940671D01*
X37083829Y-106583528D02*
X37083829Y-105083528D01*
X37083829Y-106512100D02*
X36940971Y-106583528D01*
X36940971Y-106583528D02*
X36655257Y-106583528D01*
X36655257Y-106583528D02*
X36512400Y-106512100D01*
X36512400Y-106512100D02*
X36440971Y-106440671D01*
X36440971Y-106440671D02*
X36369543Y-106297814D01*
X36369543Y-106297814D02*
X36369543Y-105869242D01*
X36369543Y-105869242D02*
X36440971Y-105726385D01*
X36440971Y-105726385D02*
X36512400Y-105654957D01*
X36512400Y-105654957D02*
X36655257Y-105583528D01*
X36655257Y-105583528D02*
X36940971Y-105583528D01*
X36940971Y-105583528D02*
X37083829Y-105654957D01*
X38940971Y-105797814D02*
X39440971Y-105797814D01*
X39655257Y-106583528D02*
X38940971Y-106583528D01*
X38940971Y-106583528D02*
X38940971Y-105083528D01*
X38940971Y-105083528D02*
X39655257Y-105083528D01*
X40298114Y-106440671D02*
X40369543Y-106512100D01*
X40369543Y-106512100D02*
X40298114Y-106583528D01*
X40298114Y-106583528D02*
X40226686Y-106512100D01*
X40226686Y-106512100D02*
X40298114Y-106440671D01*
X40298114Y-106440671D02*
X40298114Y-106583528D01*
X41012400Y-106583528D02*
X41012400Y-105083528D01*
X41012400Y-105083528D02*
X41369543Y-105083528D01*
X41369543Y-105083528D02*
X41583829Y-105154957D01*
X41583829Y-105154957D02*
X41726686Y-105297814D01*
X41726686Y-105297814D02*
X41798115Y-105440671D01*
X41798115Y-105440671D02*
X41869543Y-105726385D01*
X41869543Y-105726385D02*
X41869543Y-105940671D01*
X41869543Y-105940671D02*
X41798115Y-106226385D01*
X41798115Y-106226385D02*
X41726686Y-106369242D01*
X41726686Y-106369242D02*
X41583829Y-106512100D01*
X41583829Y-106512100D02*
X41369543Y-106583528D01*
X41369543Y-106583528D02*
X41012400Y-106583528D01*
X42512400Y-106440671D02*
X42583829Y-106512100D01*
X42583829Y-106512100D02*
X42512400Y-106583528D01*
X42512400Y-106583528D02*
X42440972Y-106512100D01*
X42440972Y-106512100D02*
X42512400Y-106440671D01*
X42512400Y-106440671D02*
X42512400Y-106583528D01*
X43155258Y-106154957D02*
X43869544Y-106154957D01*
X43012401Y-106583528D02*
X43512401Y-105083528D01*
X43512401Y-105083528D02*
X44012401Y-106583528D01*
X44512400Y-106440671D02*
X44583829Y-106512100D01*
X44583829Y-106512100D02*
X44512400Y-106583528D01*
X44512400Y-106583528D02*
X44440972Y-106512100D01*
X44440972Y-106512100D02*
X44512400Y-106440671D01*
X44512400Y-106440671D02*
X44512400Y-106583528D01*
X47512400Y-106583528D02*
X47512400Y-105083528D01*
X47655258Y-106012100D02*
X48083829Y-106583528D01*
X48083829Y-105583528D02*
X47512400Y-106154957D01*
X48726686Y-106583528D02*
X48726686Y-105583528D01*
X48726686Y-105083528D02*
X48655258Y-105154957D01*
X48655258Y-105154957D02*
X48726686Y-105226385D01*
X48726686Y-105226385D02*
X48798115Y-105154957D01*
X48798115Y-105154957D02*
X48726686Y-105083528D01*
X48726686Y-105083528D02*
X48726686Y-105226385D01*
X50083830Y-106512100D02*
X49940972Y-106583528D01*
X49940972Y-106583528D02*
X49655258Y-106583528D01*
X49655258Y-106583528D02*
X49512401Y-106512100D01*
X49512401Y-106512100D02*
X49440972Y-106440671D01*
X49440972Y-106440671D02*
X49369544Y-106297814D01*
X49369544Y-106297814D02*
X49369544Y-105869242D01*
X49369544Y-105869242D02*
X49440972Y-105726385D01*
X49440972Y-105726385D02*
X49512401Y-105654957D01*
X49512401Y-105654957D02*
X49655258Y-105583528D01*
X49655258Y-105583528D02*
X49940972Y-105583528D01*
X49940972Y-105583528D02*
X50083830Y-105654957D01*
X51369544Y-106583528D02*
X51369544Y-105797814D01*
X51369544Y-105797814D02*
X51298115Y-105654957D01*
X51298115Y-105654957D02*
X51155258Y-105583528D01*
X51155258Y-105583528D02*
X50869544Y-105583528D01*
X50869544Y-105583528D02*
X50726686Y-105654957D01*
X51369544Y-106512100D02*
X51226686Y-106583528D01*
X51226686Y-106583528D02*
X50869544Y-106583528D01*
X50869544Y-106583528D02*
X50726686Y-106512100D01*
X50726686Y-106512100D02*
X50655258Y-106369242D01*
X50655258Y-106369242D02*
X50655258Y-106226385D01*
X50655258Y-106226385D02*
X50726686Y-106083528D01*
X50726686Y-106083528D02*
X50869544Y-106012100D01*
X50869544Y-106012100D02*
X51226686Y-106012100D01*
X51226686Y-106012100D02*
X51369544Y-105940671D01*
X52726687Y-106583528D02*
X52726687Y-105083528D01*
X52726687Y-106512100D02*
X52583829Y-106583528D01*
X52583829Y-106583528D02*
X52298115Y-106583528D01*
X52298115Y-106583528D02*
X52155258Y-106512100D01*
X52155258Y-106512100D02*
X52083829Y-106440671D01*
X52083829Y-106440671D02*
X52012401Y-106297814D01*
X52012401Y-106297814D02*
X52012401Y-105869242D01*
X52012401Y-105869242D02*
X52083829Y-105726385D01*
X52083829Y-105726385D02*
X52155258Y-105654957D01*
X52155258Y-105654957D02*
X52298115Y-105583528D01*
X52298115Y-105583528D02*
X52583829Y-105583528D01*
X52583829Y-105583528D02*
X52726687Y-105654957D01*
X54440972Y-105083528D02*
X55440972Y-105083528D01*
X55440972Y-105083528D02*
X54798115Y-106583528D01*
X56012400Y-106440671D02*
X56083829Y-106512100D01*
X56083829Y-106512100D02*
X56012400Y-106583528D01*
X56012400Y-106583528D02*
X55940972Y-106512100D01*
X55940972Y-106512100D02*
X56012400Y-106440671D01*
X56012400Y-106440671D02*
X56012400Y-106583528D01*
X57012401Y-105083528D02*
X57155258Y-105083528D01*
X57155258Y-105083528D02*
X57298115Y-105154957D01*
X57298115Y-105154957D02*
X57369544Y-105226385D01*
X57369544Y-105226385D02*
X57440972Y-105369242D01*
X57440972Y-105369242D02*
X57512401Y-105654957D01*
X57512401Y-105654957D02*
X57512401Y-106012100D01*
X57512401Y-106012100D02*
X57440972Y-106297814D01*
X57440972Y-106297814D02*
X57369544Y-106440671D01*
X57369544Y-106440671D02*
X57298115Y-106512100D01*
X57298115Y-106512100D02*
X57155258Y-106583528D01*
X57155258Y-106583528D02*
X57012401Y-106583528D01*
X57012401Y-106583528D02*
X56869544Y-106512100D01*
X56869544Y-106512100D02*
X56798115Y-106440671D01*
X56798115Y-106440671D02*
X56726686Y-106297814D01*
X56726686Y-106297814D02*
X56655258Y-106012100D01*
X56655258Y-106012100D02*
X56655258Y-105654957D01*
X56655258Y-105654957D02*
X56726686Y-105369242D01*
X56726686Y-105369242D02*
X56798115Y-105226385D01*
X56798115Y-105226385D02*
X56869544Y-105154957D01*
X56869544Y-105154957D02*
X57012401Y-105083528D01*
X58155257Y-106440671D02*
X58226686Y-106512100D01*
X58226686Y-106512100D02*
X58155257Y-106583528D01*
X58155257Y-106583528D02*
X58083829Y-106512100D01*
X58083829Y-106512100D02*
X58155257Y-106440671D01*
X58155257Y-106440671D02*
X58155257Y-106583528D01*
X59655258Y-106583528D02*
X58798115Y-106583528D01*
X59226686Y-106583528D02*
X59226686Y-105083528D01*
X59226686Y-105083528D02*
X59083829Y-105297814D01*
X59083829Y-105297814D02*
X58940972Y-105440671D01*
X58940972Y-105440671D02*
X58798115Y-105512100D01*
D10*
D11*
X30012400Y-101489600D02*
X138012400Y-101489600D01*
D10*
D12*
X117226685Y-103783528D02*
X116726685Y-103069242D01*
X116369542Y-103783528D02*
X116369542Y-102283528D01*
X116369542Y-102283528D02*
X116940971Y-102283528D01*
X116940971Y-102283528D02*
X117083828Y-102354957D01*
X117083828Y-102354957D02*
X117155257Y-102426385D01*
X117155257Y-102426385D02*
X117226685Y-102569242D01*
X117226685Y-102569242D02*
X117226685Y-102783528D01*
X117226685Y-102783528D02*
X117155257Y-102926385D01*
X117155257Y-102926385D02*
X117083828Y-102997814D01*
X117083828Y-102997814D02*
X116940971Y-103069242D01*
X116940971Y-103069242D02*
X116369542Y-103069242D01*
X118440971Y-103712100D02*
X118298114Y-103783528D01*
X118298114Y-103783528D02*
X118012400Y-103783528D01*
X118012400Y-103783528D02*
X117869542Y-103712100D01*
X117869542Y-103712100D02*
X117798114Y-103569242D01*
X117798114Y-103569242D02*
X117798114Y-102997814D01*
X117798114Y-102997814D02*
X117869542Y-102854957D01*
X117869542Y-102854957D02*
X118012400Y-102783528D01*
X118012400Y-102783528D02*
X118298114Y-102783528D01*
X118298114Y-102783528D02*
X118440971Y-102854957D01*
X118440971Y-102854957D02*
X118512400Y-102997814D01*
X118512400Y-102997814D02*
X118512400Y-103140671D01*
X118512400Y-103140671D02*
X117798114Y-103283528D01*
X119012399Y-102783528D02*
X119369542Y-103783528D01*
X119369542Y-103783528D02*
X119726685Y-102783528D01*
X120298113Y-103640671D02*
X120369542Y-103712100D01*
X120369542Y-103712100D02*
X120298113Y-103783528D01*
X120298113Y-103783528D02*
X120226685Y-103712100D01*
X120226685Y-103712100D02*
X120298113Y-103640671D01*
X120298113Y-103640671D02*
X120298113Y-103783528D01*
X120298113Y-102854957D02*
X120369542Y-102926385D01*
X120369542Y-102926385D02*
X120298113Y-102997814D01*
X120298113Y-102997814D02*
X120226685Y-102926385D01*
X120226685Y-102926385D02*
X120298113Y-102854957D01*
X120298113Y-102854957D02*
X120298113Y-102997814D01*
X122940971Y-103783528D02*
X122083828Y-103783528D01*
X122512399Y-103783528D02*
X122512399Y-102283528D01*
X122512399Y-102283528D02*
X122369542Y-102497814D01*
X122369542Y-102497814D02*
X122226685Y-102640671D01*
X122226685Y-102640671D02*
X122083828Y-102712100D01*
X123583827Y-103640671D02*
X123655256Y-103712100D01*
X123655256Y-103712100D02*
X123583827Y-103783528D01*
X123583827Y-103783528D02*
X123512399Y-103712100D01*
X123512399Y-103712100D02*
X123583827Y-103640671D01*
X123583827Y-103640671D02*
X123583827Y-103783528D01*
X124583828Y-102283528D02*
X124726685Y-102283528D01*
X124726685Y-102283528D02*
X124869542Y-102354957D01*
X124869542Y-102354957D02*
X124940971Y-102426385D01*
X124940971Y-102426385D02*
X125012399Y-102569242D01*
X125012399Y-102569242D02*
X125083828Y-102854957D01*
X125083828Y-102854957D02*
X125083828Y-103212100D01*
X125083828Y-103212100D02*
X125012399Y-103497814D01*
X125012399Y-103497814D02*
X124940971Y-103640671D01*
X124940971Y-103640671D02*
X124869542Y-103712100D01*
X124869542Y-103712100D02*
X124726685Y-103783528D01*
X124726685Y-103783528D02*
X124583828Y-103783528D01*
X124583828Y-103783528D02*
X124440971Y-103712100D01*
X124440971Y-103712100D02*
X124369542Y-103640671D01*
X124369542Y-103640671D02*
X124298113Y-103497814D01*
X124298113Y-103497814D02*
X124226685Y-103212100D01*
X124226685Y-103212100D02*
X124226685Y-102854957D01*
X124226685Y-102854957D02*
X124298113Y-102569242D01*
X124298113Y-102569242D02*
X124369542Y-102426385D01*
X124369542Y-102426385D02*
X124440971Y-102354957D01*
X124440971Y-102354957D02*
X124583828Y-102283528D01*
D10*
D11*
X31298114Y-103712100D02*
X31512400Y-103783528D01*
X31512400Y-103783528D02*
X31869542Y-103783528D01*
X31869542Y-103783528D02*
X32012400Y-103712100D01*
X32012400Y-103712100D02*
X32083828Y-103640671D01*
X32083828Y-103640671D02*
X32155257Y-103497814D01*
X32155257Y-103497814D02*
X32155257Y-103354957D01*
X32155257Y-103354957D02*
X32083828Y-103212100D01*
X32083828Y-103212100D02*
X32012400Y-103140671D01*
X32012400Y-103140671D02*
X31869542Y-103069242D01*
X31869542Y-103069242D02*
X31583828Y-102997814D01*
X31583828Y-102997814D02*
X31440971Y-102926385D01*
X31440971Y-102926385D02*
X31369542Y-102854957D01*
X31369542Y-102854957D02*
X31298114Y-102712100D01*
X31298114Y-102712100D02*
X31298114Y-102569242D01*
X31298114Y-102569242D02*
X31369542Y-102426385D01*
X31369542Y-102426385D02*
X31440971Y-102354957D01*
X31440971Y-102354957D02*
X31583828Y-102283528D01*
X31583828Y-102283528D02*
X31940971Y-102283528D01*
X31940971Y-102283528D02*
X32155257Y-102354957D01*
X32798113Y-103783528D02*
X32798113Y-102783528D01*
X32798113Y-102283528D02*
X32726685Y-102354957D01*
X32726685Y-102354957D02*
X32798113Y-102426385D01*
X32798113Y-102426385D02*
X32869542Y-102354957D01*
X32869542Y-102354957D02*
X32798113Y-102283528D01*
X32798113Y-102283528D02*
X32798113Y-102426385D01*
X33369542Y-102783528D02*
X34155257Y-102783528D01*
X34155257Y-102783528D02*
X33369542Y-103783528D01*
X33369542Y-103783528D02*
X34155257Y-103783528D01*
X35298114Y-103712100D02*
X35155257Y-103783528D01*
X35155257Y-103783528D02*
X34869543Y-103783528D01*
X34869543Y-103783528D02*
X34726685Y-103712100D01*
X34726685Y-103712100D02*
X34655257Y-103569242D01*
X34655257Y-103569242D02*
X34655257Y-102997814D01*
X34655257Y-102997814D02*
X34726685Y-102854957D01*
X34726685Y-102854957D02*
X34869543Y-102783528D01*
X34869543Y-102783528D02*
X35155257Y-102783528D01*
X35155257Y-102783528D02*
X35298114Y-102854957D01*
X35298114Y-102854957D02*
X35369543Y-102997814D01*
X35369543Y-102997814D02*
X35369543Y-103140671D01*
X35369543Y-103140671D02*
X34655257Y-103283528D01*
X36012399Y-103640671D02*
X36083828Y-103712100D01*
X36083828Y-103712100D02*
X36012399Y-103783528D01*
X36012399Y-103783528D02*
X35940971Y-103712100D01*
X35940971Y-103712100D02*
X36012399Y-103640671D01*
X36012399Y-103640671D02*
X36012399Y-103783528D01*
X36012399Y-102854957D02*
X36083828Y-102926385D01*
X36083828Y-102926385D02*
X36012399Y-102997814D01*
X36012399Y-102997814D02*
X35940971Y-102926385D01*
X35940971Y-102926385D02*
X36012399Y-102854957D01*
X36012399Y-102854957D02*
X36012399Y-102997814D01*
X37869542Y-102283528D02*
X37869542Y-103497814D01*
X37869542Y-103497814D02*
X37940971Y-103640671D01*
X37940971Y-103640671D02*
X38012400Y-103712100D01*
X38012400Y-103712100D02*
X38155257Y-103783528D01*
X38155257Y-103783528D02*
X38440971Y-103783528D01*
X38440971Y-103783528D02*
X38583828Y-103712100D01*
X38583828Y-103712100D02*
X38655257Y-103640671D01*
X38655257Y-103640671D02*
X38726685Y-103497814D01*
X38726685Y-103497814D02*
X38726685Y-102283528D01*
X39369543Y-103712100D02*
X39512400Y-103783528D01*
X39512400Y-103783528D02*
X39798114Y-103783528D01*
X39798114Y-103783528D02*
X39940971Y-103712100D01*
X39940971Y-103712100D02*
X40012400Y-103569242D01*
X40012400Y-103569242D02*
X40012400Y-103497814D01*
X40012400Y-103497814D02*
X39940971Y-103354957D01*
X39940971Y-103354957D02*
X39798114Y-103283528D01*
X39798114Y-103283528D02*
X39583829Y-103283528D01*
X39583829Y-103283528D02*
X39440971Y-103212100D01*
X39440971Y-103212100D02*
X39369543Y-103069242D01*
X39369543Y-103069242D02*
X39369543Y-102997814D01*
X39369543Y-102997814D02*
X39440971Y-102854957D01*
X39440971Y-102854957D02*
X39583829Y-102783528D01*
X39583829Y-102783528D02*
X39798114Y-102783528D01*
X39798114Y-102783528D02*
X39940971Y-102854957D01*
X41226686Y-103712100D02*
X41083829Y-103783528D01*
X41083829Y-103783528D02*
X40798115Y-103783528D01*
X40798115Y-103783528D02*
X40655257Y-103712100D01*
X40655257Y-103712100D02*
X40583829Y-103569242D01*
X40583829Y-103569242D02*
X40583829Y-102997814D01*
X40583829Y-102997814D02*
X40655257Y-102854957D01*
X40655257Y-102854957D02*
X40798115Y-102783528D01*
X40798115Y-102783528D02*
X41083829Y-102783528D01*
X41083829Y-102783528D02*
X41226686Y-102854957D01*
X41226686Y-102854957D02*
X41298115Y-102997814D01*
X41298115Y-102997814D02*
X41298115Y-103140671D01*
X41298115Y-103140671D02*
X40583829Y-103283528D01*
X41940971Y-103783528D02*
X41940971Y-102783528D01*
X41940971Y-103069242D02*
X42012400Y-102926385D01*
X42012400Y-102926385D02*
X42083829Y-102854957D01*
X42083829Y-102854957D02*
X42226686Y-102783528D01*
X42226686Y-102783528D02*
X42369543Y-102783528D01*
D10*
D11*
X116369542Y-106583528D02*
X116369542Y-105083528D01*
X117726686Y-106583528D02*
X117726686Y-105083528D01*
X117726686Y-106512100D02*
X117583828Y-106583528D01*
X117583828Y-106583528D02*
X117298114Y-106583528D01*
X117298114Y-106583528D02*
X117155257Y-106512100D01*
X117155257Y-106512100D02*
X117083828Y-106440671D01*
X117083828Y-106440671D02*
X117012400Y-106297814D01*
X117012400Y-106297814D02*
X117012400Y-105869242D01*
X117012400Y-105869242D02*
X117083828Y-105726385D01*
X117083828Y-105726385D02*
X117155257Y-105654957D01*
X117155257Y-105654957D02*
X117298114Y-105583528D01*
X117298114Y-105583528D02*
X117583828Y-105583528D01*
X117583828Y-105583528D02*
X117726686Y-105654957D01*
X118440971Y-106440671D02*
X118512400Y-106512100D01*
X118512400Y-106512100D02*
X118440971Y-106583528D01*
X118440971Y-106583528D02*
X118369543Y-106512100D01*
X118369543Y-106512100D02*
X118440971Y-106440671D01*
X118440971Y-106440671D02*
X118440971Y-106583528D01*
X118440971Y-105654957D02*
X118512400Y-105726385D01*
X118512400Y-105726385D02*
X118440971Y-105797814D01*
X118440971Y-105797814D02*
X118369543Y-105726385D01*
X118369543Y-105726385D02*
X118440971Y-105654957D01*
X118440971Y-105654957D02*
X118440971Y-105797814D01*
X121083829Y-106583528D02*
X120226686Y-106583528D01*
X120655257Y-106583528D02*
X120655257Y-105083528D01*
X120655257Y-105083528D02*
X120512400Y-105297814D01*
X120512400Y-105297814D02*
X120369543Y-105440671D01*
X120369543Y-105440671D02*
X120226686Y-105512100D01*
X122798114Y-105012100D02*
X121512400Y-106940671D01*
X124083829Y-106583528D02*
X123226686Y-106583528D01*
X123655257Y-106583528D02*
X123655257Y-105083528D01*
X123655257Y-105083528D02*
X123512400Y-105297814D01*
X123512400Y-105297814D02*
X123369543Y-105440671D01*
X123369543Y-105440671D02*
X123226686Y-105512100D01*
D10*
D11*
X30012400Y-97489600D02*
X138012400Y-97489600D01*
D10*
D13*
X31440971Y-98214838D02*
X32583828Y-98214838D01*
X31762400Y-100214838D02*
X32012400Y-98214838D01*
X32988590Y-100214838D02*
X33155257Y-98881504D01*
X33238590Y-98214838D02*
X33131447Y-98310076D01*
X33131447Y-98310076D02*
X33214781Y-98405314D01*
X33214781Y-98405314D02*
X33321924Y-98310076D01*
X33321924Y-98310076D02*
X33238590Y-98214838D01*
X33238590Y-98214838D02*
X33214781Y-98405314D01*
X33810019Y-98881504D02*
X34571923Y-98881504D01*
X34179066Y-98214838D02*
X33964781Y-99929123D01*
X33964781Y-99929123D02*
X34036209Y-100119600D01*
X34036209Y-100119600D02*
X34214781Y-100214838D01*
X34214781Y-100214838D02*
X34405257Y-100214838D01*
X35345733Y-100214838D02*
X35167161Y-100119600D01*
X35167161Y-100119600D02*
X35095733Y-99929123D01*
X35095733Y-99929123D02*
X35310018Y-98214838D01*
X36869542Y-100119600D02*
X36667161Y-100214838D01*
X36667161Y-100214838D02*
X36286208Y-100214838D01*
X36286208Y-100214838D02*
X36107637Y-100119600D01*
X36107637Y-100119600D02*
X36036208Y-99929123D01*
X36036208Y-99929123D02*
X36131447Y-99167219D01*
X36131447Y-99167219D02*
X36250494Y-98976742D01*
X36250494Y-98976742D02*
X36452875Y-98881504D01*
X36452875Y-98881504D02*
X36833827Y-98881504D01*
X36833827Y-98881504D02*
X37012399Y-98976742D01*
X37012399Y-98976742D02*
X37083827Y-99167219D01*
X37083827Y-99167219D02*
X37060018Y-99357695D01*
X37060018Y-99357695D02*
X36083827Y-99548171D01*
X37821923Y-100024361D02*
X37905256Y-100119600D01*
X37905256Y-100119600D02*
X37798113Y-100214838D01*
X37798113Y-100214838D02*
X37714780Y-100119600D01*
X37714780Y-100119600D02*
X37821923Y-100024361D01*
X37821923Y-100024361D02*
X37798113Y-100214838D01*
X37952875Y-98976742D02*
X38036208Y-99071980D01*
X38036208Y-99071980D02*
X37929066Y-99167219D01*
X37929066Y-99167219D02*
X37845732Y-99071980D01*
X37845732Y-99071980D02*
X37952875Y-98976742D01*
X37952875Y-98976742D02*
X37929066Y-99167219D01*
X41405256Y-100214838D02*
X40857637Y-99262457D01*
X40262399Y-100214838D02*
X40512399Y-98214838D01*
X40512399Y-98214838D02*
X41274304Y-98214838D01*
X41274304Y-98214838D02*
X41452875Y-98310076D01*
X41452875Y-98310076D02*
X41536209Y-98405314D01*
X41536209Y-98405314D02*
X41607637Y-98595790D01*
X41607637Y-98595790D02*
X41571923Y-98881504D01*
X41571923Y-98881504D02*
X41452875Y-99071980D01*
X41452875Y-99071980D02*
X41345733Y-99167219D01*
X41345733Y-99167219D02*
X41143352Y-99262457D01*
X41143352Y-99262457D02*
X40381447Y-99262457D01*
X42381447Y-99167219D02*
X43048113Y-99167219D01*
X43202875Y-100214838D02*
X42250494Y-100214838D01*
X42250494Y-100214838D02*
X42500494Y-98214838D01*
X42500494Y-98214838D02*
X43452875Y-98214838D01*
X44048113Y-100214838D02*
X44298113Y-98214838D01*
X44298113Y-98214838D02*
X45190970Y-100214838D01*
X45190970Y-100214838D02*
X45440970Y-98214838D01*
X46929065Y-99167219D02*
X46262399Y-99167219D01*
X46131446Y-100214838D02*
X46381446Y-98214838D01*
X46381446Y-98214838D02*
X47333827Y-98214838D01*
X48464780Y-98214838D02*
X48845732Y-98214838D01*
X48845732Y-98214838D02*
X49024303Y-98310076D01*
X49024303Y-98310076D02*
X49190970Y-98500552D01*
X49190970Y-98500552D02*
X49238589Y-98881504D01*
X49238589Y-98881504D02*
X49155256Y-99548171D01*
X49155256Y-99548171D02*
X49012399Y-99929123D01*
X49012399Y-99929123D02*
X48798113Y-100119600D01*
X48798113Y-100119600D02*
X48595732Y-100214838D01*
X48595732Y-100214838D02*
X48214780Y-100214838D01*
X48214780Y-100214838D02*
X48036208Y-100119600D01*
X48036208Y-100119600D02*
X47869542Y-99929123D01*
X47869542Y-99929123D02*
X47821922Y-99548171D01*
X47821922Y-99548171D02*
X47905256Y-98881504D01*
X47905256Y-98881504D02*
X48048113Y-98500552D01*
X48048113Y-98500552D02*
X48262399Y-98310076D01*
X48262399Y-98310076D02*
X48464780Y-98214838D01*
X51060017Y-100214838D02*
X50512398Y-99262457D01*
X49917160Y-100214838D02*
X50167160Y-98214838D01*
X50167160Y-98214838D02*
X50929065Y-98214838D01*
X50929065Y-98214838D02*
X51107636Y-98310076D01*
X51107636Y-98310076D02*
X51190970Y-98405314D01*
X51190970Y-98405314D02*
X51262398Y-98595790D01*
X51262398Y-98595790D02*
X51226684Y-98881504D01*
X51226684Y-98881504D02*
X51107636Y-99071980D01*
X51107636Y-99071980D02*
X51000494Y-99167219D01*
X51000494Y-99167219D02*
X50798113Y-99262457D01*
X50798113Y-99262457D02*
X50036208Y-99262457D01*
X53071922Y-100024361D02*
X52964779Y-100119600D01*
X52964779Y-100119600D02*
X52667160Y-100214838D01*
X52667160Y-100214838D02*
X52476684Y-100214838D01*
X52476684Y-100214838D02*
X52202874Y-100119600D01*
X52202874Y-100119600D02*
X52036208Y-99929123D01*
X52036208Y-99929123D02*
X51964779Y-99738647D01*
X51964779Y-99738647D02*
X51917160Y-99357695D01*
X51917160Y-99357695D02*
X51952874Y-99071980D01*
X51952874Y-99071980D02*
X52095731Y-98691028D01*
X52095731Y-98691028D02*
X52214779Y-98500552D01*
X52214779Y-98500552D02*
X52429065Y-98310076D01*
X52429065Y-98310076D02*
X52726684Y-98214838D01*
X52726684Y-98214838D02*
X52917160Y-98214838D01*
X52917160Y-98214838D02*
X53190970Y-98310076D01*
X53190970Y-98310076D02*
X53274303Y-98405314D01*
X54024303Y-99167219D02*
X54690969Y-99167219D01*
X54845731Y-100214838D02*
X53893350Y-100214838D01*
X53893350Y-100214838D02*
X54143350Y-98214838D01*
X54143350Y-98214838D02*
X55095731Y-98214838D01*
X57310017Y-99452933D02*
X58833827Y-99452933D01*
X61345732Y-99167219D02*
X62012398Y-99167219D01*
X62167160Y-100214838D02*
X61214779Y-100214838D01*
X61214779Y-100214838D02*
X61464779Y-98214838D01*
X61464779Y-98214838D02*
X62417160Y-98214838D01*
X63012398Y-100214838D02*
X63262398Y-98214838D01*
X63262398Y-98214838D02*
X63738589Y-98214838D01*
X63738589Y-98214838D02*
X64012398Y-98310076D01*
X64012398Y-98310076D02*
X64179065Y-98500552D01*
X64179065Y-98500552D02*
X64250493Y-98691028D01*
X64250493Y-98691028D02*
X64298113Y-99071980D01*
X64298113Y-99071980D02*
X64262398Y-99357695D01*
X64262398Y-99357695D02*
X64119541Y-99738647D01*
X64119541Y-99738647D02*
X64000493Y-99929123D01*
X64000493Y-99929123D02*
X63786208Y-100119600D01*
X63786208Y-100119600D02*
X63488589Y-100214838D01*
X63488589Y-100214838D02*
X63012398Y-100214838D01*
X64976684Y-99643409D02*
X65929065Y-99643409D01*
X64714779Y-100214838D02*
X65631446Y-98214838D01*
X65631446Y-98214838D02*
X66048112Y-100214838D01*
X68143351Y-100119600D02*
X68417160Y-100214838D01*
X68417160Y-100214838D02*
X68893351Y-100214838D01*
X68893351Y-100214838D02*
X69095732Y-100119600D01*
X69095732Y-100119600D02*
X69202875Y-100024361D01*
X69202875Y-100024361D02*
X69321922Y-99833885D01*
X69321922Y-99833885D02*
X69345732Y-99643409D01*
X69345732Y-99643409D02*
X69274303Y-99452933D01*
X69274303Y-99452933D02*
X69190970Y-99357695D01*
X69190970Y-99357695D02*
X69012399Y-99262457D01*
X69012399Y-99262457D02*
X68643351Y-99167219D01*
X68643351Y-99167219D02*
X68464779Y-99071980D01*
X68464779Y-99071980D02*
X68381446Y-98976742D01*
X68381446Y-98976742D02*
X68310018Y-98786266D01*
X68310018Y-98786266D02*
X68333827Y-98595790D01*
X68333827Y-98595790D02*
X68452875Y-98405314D01*
X68452875Y-98405314D02*
X68560018Y-98310076D01*
X68560018Y-98310076D02*
X68762399Y-98214838D01*
X68762399Y-98214838D02*
X69238589Y-98214838D01*
X69238589Y-98214838D02*
X69512399Y-98310076D01*
X70893351Y-100119600D02*
X70690970Y-100214838D01*
X70690970Y-100214838D02*
X70310017Y-100214838D01*
X70310017Y-100214838D02*
X70131446Y-100119600D01*
X70131446Y-100119600D02*
X70060017Y-99929123D01*
X70060017Y-99929123D02*
X70155256Y-99167219D01*
X70155256Y-99167219D02*
X70274303Y-98976742D01*
X70274303Y-98976742D02*
X70476684Y-98881504D01*
X70476684Y-98881504D02*
X70857636Y-98881504D01*
X70857636Y-98881504D02*
X71036208Y-98976742D01*
X71036208Y-98976742D02*
X71107636Y-99167219D01*
X71107636Y-99167219D02*
X71083827Y-99357695D01*
X71083827Y-99357695D02*
X70107636Y-99548171D01*
X71988589Y-98881504D02*
X71821922Y-100214838D01*
X71964779Y-99071980D02*
X72071922Y-98976742D01*
X72071922Y-98976742D02*
X72274303Y-98881504D01*
X72274303Y-98881504D02*
X72560017Y-98881504D01*
X72560017Y-98881504D02*
X72738589Y-98976742D01*
X72738589Y-98976742D02*
X72810017Y-99167219D01*
X72810017Y-99167219D02*
X72679065Y-100214838D01*
X73536208Y-100119600D02*
X73714779Y-100214838D01*
X73714779Y-100214838D02*
X74095732Y-100214838D01*
X74095732Y-100214838D02*
X74298113Y-100119600D01*
X74298113Y-100119600D02*
X74417160Y-99929123D01*
X74417160Y-99929123D02*
X74429065Y-99833885D01*
X74429065Y-99833885D02*
X74357636Y-99643409D01*
X74357636Y-99643409D02*
X74179065Y-99548171D01*
X74179065Y-99548171D02*
X73893351Y-99548171D01*
X73893351Y-99548171D02*
X73714779Y-99452933D01*
X73714779Y-99452933D02*
X73643351Y-99262457D01*
X73643351Y-99262457D02*
X73655256Y-99167219D01*
X73655256Y-99167219D02*
X73774303Y-98976742D01*
X73774303Y-98976742D02*
X73976684Y-98881504D01*
X73976684Y-98881504D02*
X74262398Y-98881504D01*
X74262398Y-98881504D02*
X74440970Y-98976742D01*
X75512399Y-100214838D02*
X75333827Y-100119600D01*
X75333827Y-100119600D02*
X75250494Y-100024361D01*
X75250494Y-100024361D02*
X75179065Y-99833885D01*
X75179065Y-99833885D02*
X75250494Y-99262457D01*
X75250494Y-99262457D02*
X75369541Y-99071980D01*
X75369541Y-99071980D02*
X75476684Y-98976742D01*
X75476684Y-98976742D02*
X75679065Y-98881504D01*
X75679065Y-98881504D02*
X75964779Y-98881504D01*
X75964779Y-98881504D02*
X76143351Y-98976742D01*
X76143351Y-98976742D02*
X76226684Y-99071980D01*
X76226684Y-99071980D02*
X76298113Y-99262457D01*
X76298113Y-99262457D02*
X76226684Y-99833885D01*
X76226684Y-99833885D02*
X76107637Y-100024361D01*
X76107637Y-100024361D02*
X76000494Y-100119600D01*
X76000494Y-100119600D02*
X75798113Y-100214838D01*
X75798113Y-100214838D02*
X75512399Y-100214838D01*
X77024303Y-100214838D02*
X77190970Y-98881504D01*
X77143351Y-99262457D02*
X77262398Y-99071980D01*
X77262398Y-99071980D02*
X77369541Y-98976742D01*
X77369541Y-98976742D02*
X77571922Y-98881504D01*
X77571922Y-98881504D02*
X77762398Y-98881504D01*
D10*
D11*
X31869542Y-95597814D02*
X31369542Y-95597814D01*
X31369542Y-96383528D02*
X31369542Y-94883528D01*
X31369542Y-94883528D02*
X32083828Y-94883528D01*
X32655256Y-96383528D02*
X32655256Y-95383528D01*
X32655256Y-94883528D02*
X32583828Y-94954957D01*
X32583828Y-94954957D02*
X32655256Y-95026385D01*
X32655256Y-95026385D02*
X32726685Y-94954957D01*
X32726685Y-94954957D02*
X32655256Y-94883528D01*
X32655256Y-94883528D02*
X32655256Y-95026385D01*
X33583828Y-96383528D02*
X33440971Y-96312100D01*
X33440971Y-96312100D02*
X33369542Y-96169242D01*
X33369542Y-96169242D02*
X33369542Y-94883528D01*
X34726685Y-96312100D02*
X34583828Y-96383528D01*
X34583828Y-96383528D02*
X34298114Y-96383528D01*
X34298114Y-96383528D02*
X34155256Y-96312100D01*
X34155256Y-96312100D02*
X34083828Y-96169242D01*
X34083828Y-96169242D02*
X34083828Y-95597814D01*
X34083828Y-95597814D02*
X34155256Y-95454957D01*
X34155256Y-95454957D02*
X34298114Y-95383528D01*
X34298114Y-95383528D02*
X34583828Y-95383528D01*
X34583828Y-95383528D02*
X34726685Y-95454957D01*
X34726685Y-95454957D02*
X34798114Y-95597814D01*
X34798114Y-95597814D02*
X34798114Y-95740671D01*
X34798114Y-95740671D02*
X34083828Y-95883528D01*
X35440970Y-96240671D02*
X35512399Y-96312100D01*
X35512399Y-96312100D02*
X35440970Y-96383528D01*
X35440970Y-96383528D02*
X35369542Y-96312100D01*
X35369542Y-96312100D02*
X35440970Y-96240671D01*
X35440970Y-96240671D02*
X35440970Y-96383528D01*
X35440970Y-95454957D02*
X35512399Y-95526385D01*
X35512399Y-95526385D02*
X35440970Y-95597814D01*
X35440970Y-95597814D02*
X35369542Y-95526385D01*
X35369542Y-95526385D02*
X35440970Y-95454957D01*
X35440970Y-95454957D02*
X35440970Y-95597814D01*
X37298113Y-96383528D02*
X37298113Y-95383528D01*
X37298113Y-95669242D02*
X37369542Y-95526385D01*
X37369542Y-95526385D02*
X37440971Y-95454957D01*
X37440971Y-95454957D02*
X37583828Y-95383528D01*
X37583828Y-95383528D02*
X37726685Y-95383528D01*
X38798113Y-96312100D02*
X38655256Y-96383528D01*
X38655256Y-96383528D02*
X38369542Y-96383528D01*
X38369542Y-96383528D02*
X38226684Y-96312100D01*
X38226684Y-96312100D02*
X38155256Y-96169242D01*
X38155256Y-96169242D02*
X38155256Y-95597814D01*
X38155256Y-95597814D02*
X38226684Y-95454957D01*
X38226684Y-95454957D02*
X38369542Y-95383528D01*
X38369542Y-95383528D02*
X38655256Y-95383528D01*
X38655256Y-95383528D02*
X38798113Y-95454957D01*
X38798113Y-95454957D02*
X38869542Y-95597814D01*
X38869542Y-95597814D02*
X38869542Y-95740671D01*
X38869542Y-95740671D02*
X38155256Y-95883528D01*
X39512398Y-95383528D02*
X39512398Y-96383528D01*
X39512398Y-95526385D02*
X39583827Y-95454957D01*
X39583827Y-95454957D02*
X39726684Y-95383528D01*
X39726684Y-95383528D02*
X39940970Y-95383528D01*
X39940970Y-95383528D02*
X40083827Y-95454957D01*
X40083827Y-95454957D02*
X40155256Y-95597814D01*
X40155256Y-95597814D02*
X40155256Y-96383528D01*
X40655256Y-95383528D02*
X41226684Y-95383528D01*
X40869541Y-96383528D02*
X40869541Y-95097814D01*
X40869541Y-95097814D02*
X40940970Y-94954957D01*
X40940970Y-94954957D02*
X41083827Y-94883528D01*
X41083827Y-94883528D02*
X41226684Y-94883528D01*
X41940970Y-96383528D02*
X41798113Y-96312100D01*
X41798113Y-96312100D02*
X41726684Y-96240671D01*
X41726684Y-96240671D02*
X41655256Y-96097814D01*
X41655256Y-96097814D02*
X41655256Y-95669242D01*
X41655256Y-95669242D02*
X41726684Y-95526385D01*
X41726684Y-95526385D02*
X41798113Y-95454957D01*
X41798113Y-95454957D02*
X41940970Y-95383528D01*
X41940970Y-95383528D02*
X42155256Y-95383528D01*
X42155256Y-95383528D02*
X42298113Y-95454957D01*
X42298113Y-95454957D02*
X42369542Y-95526385D01*
X42369542Y-95526385D02*
X42440970Y-95669242D01*
X42440970Y-95669242D02*
X42440970Y-96097814D01*
X42440970Y-96097814D02*
X42369542Y-96240671D01*
X42369542Y-96240671D02*
X42298113Y-96312100D01*
X42298113Y-96312100D02*
X42155256Y-96383528D01*
X42155256Y-96383528D02*
X41940970Y-96383528D01*
X43083827Y-96383528D02*
X43083827Y-95383528D01*
X43083827Y-95669242D02*
X43155256Y-95526385D01*
X43155256Y-95526385D02*
X43226685Y-95454957D01*
X43226685Y-95454957D02*
X43369542Y-95383528D01*
X43369542Y-95383528D02*
X43512399Y-95383528D01*
X44655256Y-96312100D02*
X44512398Y-96383528D01*
X44512398Y-96383528D02*
X44226684Y-96383528D01*
X44226684Y-96383528D02*
X44083827Y-96312100D01*
X44083827Y-96312100D02*
X44012398Y-96240671D01*
X44012398Y-96240671D02*
X43940970Y-96097814D01*
X43940970Y-96097814D02*
X43940970Y-95669242D01*
X43940970Y-95669242D02*
X44012398Y-95526385D01*
X44012398Y-95526385D02*
X44083827Y-95454957D01*
X44083827Y-95454957D02*
X44226684Y-95383528D01*
X44226684Y-95383528D02*
X44512398Y-95383528D01*
X44512398Y-95383528D02*
X44655256Y-95454957D01*
X45869541Y-96312100D02*
X45726684Y-96383528D01*
X45726684Y-96383528D02*
X45440970Y-96383528D01*
X45440970Y-96383528D02*
X45298112Y-96312100D01*
X45298112Y-96312100D02*
X45226684Y-96169242D01*
X45226684Y-96169242D02*
X45226684Y-95597814D01*
X45226684Y-95597814D02*
X45298112Y-95454957D01*
X45298112Y-95454957D02*
X45440970Y-95383528D01*
X45440970Y-95383528D02*
X45726684Y-95383528D01*
X45726684Y-95383528D02*
X45869541Y-95454957D01*
X45869541Y-95454957D02*
X45940970Y-95597814D01*
X45940970Y-95597814D02*
X45940970Y-95740671D01*
X45940970Y-95740671D02*
X45226684Y-95883528D01*
X46583826Y-95812100D02*
X47726684Y-95812100D01*
X49012398Y-96312100D02*
X48869541Y-96383528D01*
X48869541Y-96383528D02*
X48583827Y-96383528D01*
X48583827Y-96383528D02*
X48440969Y-96312100D01*
X48440969Y-96312100D02*
X48369541Y-96169242D01*
X48369541Y-96169242D02*
X48369541Y-95597814D01*
X48369541Y-95597814D02*
X48440969Y-95454957D01*
X48440969Y-95454957D02*
X48583827Y-95383528D01*
X48583827Y-95383528D02*
X48869541Y-95383528D01*
X48869541Y-95383528D02*
X49012398Y-95454957D01*
X49012398Y-95454957D02*
X49083827Y-95597814D01*
X49083827Y-95597814D02*
X49083827Y-95740671D01*
X49083827Y-95740671D02*
X48369541Y-95883528D01*
X50369541Y-96383528D02*
X50369541Y-94883528D01*
X50369541Y-96312100D02*
X50226683Y-96383528D01*
X50226683Y-96383528D02*
X49940969Y-96383528D01*
X49940969Y-96383528D02*
X49798112Y-96312100D01*
X49798112Y-96312100D02*
X49726683Y-96240671D01*
X49726683Y-96240671D02*
X49655255Y-96097814D01*
X49655255Y-96097814D02*
X49655255Y-95669242D01*
X49655255Y-95669242D02*
X49726683Y-95526385D01*
X49726683Y-95526385D02*
X49798112Y-95454957D01*
X49798112Y-95454957D02*
X49940969Y-95383528D01*
X49940969Y-95383528D02*
X50226683Y-95383528D01*
X50226683Y-95383528D02*
X50369541Y-95454957D01*
X51726684Y-96383528D02*
X51726684Y-95597814D01*
X51726684Y-95597814D02*
X51655255Y-95454957D01*
X51655255Y-95454957D02*
X51512398Y-95383528D01*
X51512398Y-95383528D02*
X51226684Y-95383528D01*
X51226684Y-95383528D02*
X51083826Y-95454957D01*
X51726684Y-96312100D02*
X51583826Y-96383528D01*
X51583826Y-96383528D02*
X51226684Y-96383528D01*
X51226684Y-96383528D02*
X51083826Y-96312100D01*
X51083826Y-96312100D02*
X51012398Y-96169242D01*
X51012398Y-96169242D02*
X51012398Y-96026385D01*
X51012398Y-96026385D02*
X51083826Y-95883528D01*
X51083826Y-95883528D02*
X51226684Y-95812100D01*
X51226684Y-95812100D02*
X51583826Y-95812100D01*
X51583826Y-95812100D02*
X51726684Y-95740671D01*
X52440969Y-96240671D02*
X52512398Y-96312100D01*
X52512398Y-96312100D02*
X52440969Y-96383528D01*
X52440969Y-96383528D02*
X52369541Y-96312100D01*
X52369541Y-96312100D02*
X52440969Y-96240671D01*
X52440969Y-96240671D02*
X52440969Y-96383528D01*
X53155255Y-96383528D02*
X53155255Y-94883528D01*
X53298113Y-95812100D02*
X53726684Y-96383528D01*
X53726684Y-95383528D02*
X53155255Y-95954957D01*
X54369541Y-96383528D02*
X54369541Y-95383528D01*
X54369541Y-94883528D02*
X54298113Y-94954957D01*
X54298113Y-94954957D02*
X54369541Y-95026385D01*
X54369541Y-95026385D02*
X54440970Y-94954957D01*
X54440970Y-94954957D02*
X54369541Y-94883528D01*
X54369541Y-94883528D02*
X54369541Y-95026385D01*
X55726685Y-96312100D02*
X55583827Y-96383528D01*
X55583827Y-96383528D02*
X55298113Y-96383528D01*
X55298113Y-96383528D02*
X55155256Y-96312100D01*
X55155256Y-96312100D02*
X55083827Y-96240671D01*
X55083827Y-96240671D02*
X55012399Y-96097814D01*
X55012399Y-96097814D02*
X55012399Y-95669242D01*
X55012399Y-95669242D02*
X55083827Y-95526385D01*
X55083827Y-95526385D02*
X55155256Y-95454957D01*
X55155256Y-95454957D02*
X55298113Y-95383528D01*
X55298113Y-95383528D02*
X55583827Y-95383528D01*
X55583827Y-95383528D02*
X55726685Y-95454957D01*
X57012399Y-96383528D02*
X57012399Y-95597814D01*
X57012399Y-95597814D02*
X56940970Y-95454957D01*
X56940970Y-95454957D02*
X56798113Y-95383528D01*
X56798113Y-95383528D02*
X56512399Y-95383528D01*
X56512399Y-95383528D02*
X56369541Y-95454957D01*
X57012399Y-96312100D02*
X56869541Y-96383528D01*
X56869541Y-96383528D02*
X56512399Y-96383528D01*
X56512399Y-96383528D02*
X56369541Y-96312100D01*
X56369541Y-96312100D02*
X56298113Y-96169242D01*
X56298113Y-96169242D02*
X56298113Y-96026385D01*
X56298113Y-96026385D02*
X56369541Y-95883528D01*
X56369541Y-95883528D02*
X56512399Y-95812100D01*
X56512399Y-95812100D02*
X56869541Y-95812100D01*
X56869541Y-95812100D02*
X57012399Y-95740671D01*
X58369542Y-96383528D02*
X58369542Y-94883528D01*
X58369542Y-96312100D02*
X58226684Y-96383528D01*
X58226684Y-96383528D02*
X57940970Y-96383528D01*
X57940970Y-96383528D02*
X57798113Y-96312100D01*
X57798113Y-96312100D02*
X57726684Y-96240671D01*
X57726684Y-96240671D02*
X57655256Y-96097814D01*
X57655256Y-96097814D02*
X57655256Y-95669242D01*
X57655256Y-95669242D02*
X57726684Y-95526385D01*
X57726684Y-95526385D02*
X57798113Y-95454957D01*
X57798113Y-95454957D02*
X57940970Y-95383528D01*
X57940970Y-95383528D02*
X58226684Y-95383528D01*
X58226684Y-95383528D02*
X58369542Y-95454957D01*
X58726685Y-96526385D02*
X59869542Y-96526385D01*
X60226684Y-95383528D02*
X60226684Y-96883528D01*
X60226684Y-95454957D02*
X60369542Y-95383528D01*
X60369542Y-95383528D02*
X60655256Y-95383528D01*
X60655256Y-95383528D02*
X60798113Y-95454957D01*
X60798113Y-95454957D02*
X60869542Y-95526385D01*
X60869542Y-95526385D02*
X60940970Y-95669242D01*
X60940970Y-95669242D02*
X60940970Y-96097814D01*
X60940970Y-96097814D02*
X60869542Y-96240671D01*
X60869542Y-96240671D02*
X60798113Y-96312100D01*
X60798113Y-96312100D02*
X60655256Y-96383528D01*
X60655256Y-96383528D02*
X60369542Y-96383528D01*
X60369542Y-96383528D02*
X60226684Y-96312100D01*
X62226685Y-96312100D02*
X62083827Y-96383528D01*
X62083827Y-96383528D02*
X61798113Y-96383528D01*
X61798113Y-96383528D02*
X61655256Y-96312100D01*
X61655256Y-96312100D02*
X61583827Y-96240671D01*
X61583827Y-96240671D02*
X61512399Y-96097814D01*
X61512399Y-96097814D02*
X61512399Y-95669242D01*
X61512399Y-95669242D02*
X61583827Y-95526385D01*
X61583827Y-95526385D02*
X61655256Y-95454957D01*
X61655256Y-95454957D02*
X61798113Y-95383528D01*
X61798113Y-95383528D02*
X62083827Y-95383528D01*
X62083827Y-95383528D02*
X62226685Y-95454957D01*
X62869541Y-96383528D02*
X62869541Y-94883528D01*
X62869541Y-95454957D02*
X63012399Y-95383528D01*
X63012399Y-95383528D02*
X63298113Y-95383528D01*
X63298113Y-95383528D02*
X63440970Y-95454957D01*
X63440970Y-95454957D02*
X63512399Y-95526385D01*
X63512399Y-95526385D02*
X63583827Y-95669242D01*
X63583827Y-95669242D02*
X63583827Y-96097814D01*
X63583827Y-96097814D02*
X63512399Y-96240671D01*
X63512399Y-96240671D02*
X63440970Y-96312100D01*
X63440970Y-96312100D02*
X63298113Y-96383528D01*
X63298113Y-96383528D02*
X63012399Y-96383528D01*
X63012399Y-96383528D02*
X62869541Y-96312100D01*
D10*
D11*
X30012400Y-91489600D02*
X138012400Y-91489600D01*
D10*
D11*
X31298114Y-93612100D02*
X31512400Y-93683528D01*
X31512400Y-93683528D02*
X31869542Y-93683528D01*
X31869542Y-93683528D02*
X32012400Y-93612100D01*
X32012400Y-93612100D02*
X32083828Y-93540671D01*
X32083828Y-93540671D02*
X32155257Y-93397814D01*
X32155257Y-93397814D02*
X32155257Y-93254957D01*
X32155257Y-93254957D02*
X32083828Y-93112100D01*
X32083828Y-93112100D02*
X32012400Y-93040671D01*
X32012400Y-93040671D02*
X31869542Y-92969242D01*
X31869542Y-92969242D02*
X31583828Y-92897814D01*
X31583828Y-92897814D02*
X31440971Y-92826385D01*
X31440971Y-92826385D02*
X31369542Y-92754957D01*
X31369542Y-92754957D02*
X31298114Y-92612100D01*
X31298114Y-92612100D02*
X31298114Y-92469242D01*
X31298114Y-92469242D02*
X31369542Y-92326385D01*
X31369542Y-92326385D02*
X31440971Y-92254957D01*
X31440971Y-92254957D02*
X31583828Y-92183528D01*
X31583828Y-92183528D02*
X31940971Y-92183528D01*
X31940971Y-92183528D02*
X32155257Y-92254957D01*
X32798113Y-93683528D02*
X32798113Y-92183528D01*
X33440971Y-93683528D02*
X33440971Y-92897814D01*
X33440971Y-92897814D02*
X33369542Y-92754957D01*
X33369542Y-92754957D02*
X33226685Y-92683528D01*
X33226685Y-92683528D02*
X33012399Y-92683528D01*
X33012399Y-92683528D02*
X32869542Y-92754957D01*
X32869542Y-92754957D02*
X32798113Y-92826385D01*
X34726685Y-93612100D02*
X34583828Y-93683528D01*
X34583828Y-93683528D02*
X34298114Y-93683528D01*
X34298114Y-93683528D02*
X34155256Y-93612100D01*
X34155256Y-93612100D02*
X34083828Y-93469242D01*
X34083828Y-93469242D02*
X34083828Y-92897814D01*
X34083828Y-92897814D02*
X34155256Y-92754957D01*
X34155256Y-92754957D02*
X34298114Y-92683528D01*
X34298114Y-92683528D02*
X34583828Y-92683528D01*
X34583828Y-92683528D02*
X34726685Y-92754957D01*
X34726685Y-92754957D02*
X34798114Y-92897814D01*
X34798114Y-92897814D02*
X34798114Y-93040671D01*
X34798114Y-93040671D02*
X34083828Y-93183528D01*
X36012399Y-93612100D02*
X35869542Y-93683528D01*
X35869542Y-93683528D02*
X35583828Y-93683528D01*
X35583828Y-93683528D02*
X35440970Y-93612100D01*
X35440970Y-93612100D02*
X35369542Y-93469242D01*
X35369542Y-93469242D02*
X35369542Y-92897814D01*
X35369542Y-92897814D02*
X35440970Y-92754957D01*
X35440970Y-92754957D02*
X35583828Y-92683528D01*
X35583828Y-92683528D02*
X35869542Y-92683528D01*
X35869542Y-92683528D02*
X36012399Y-92754957D01*
X36012399Y-92754957D02*
X36083828Y-92897814D01*
X36083828Y-92897814D02*
X36083828Y-93040671D01*
X36083828Y-93040671D02*
X35369542Y-93183528D01*
X36512399Y-92683528D02*
X37083827Y-92683528D01*
X36726684Y-92183528D02*
X36726684Y-93469242D01*
X36726684Y-93469242D02*
X36798113Y-93612100D01*
X36798113Y-93612100D02*
X36940970Y-93683528D01*
X36940970Y-93683528D02*
X37083827Y-93683528D01*
X37583827Y-93540671D02*
X37655256Y-93612100D01*
X37655256Y-93612100D02*
X37583827Y-93683528D01*
X37583827Y-93683528D02*
X37512399Y-93612100D01*
X37512399Y-93612100D02*
X37583827Y-93540671D01*
X37583827Y-93540671D02*
X37583827Y-93683528D01*
X37583827Y-92754957D02*
X37655256Y-92826385D01*
X37655256Y-92826385D02*
X37583827Y-92897814D01*
X37583827Y-92897814D02*
X37512399Y-92826385D01*
X37512399Y-92826385D02*
X37583827Y-92754957D01*
X37583827Y-92754957D02*
X37583827Y-92897814D01*
D10*
D12*
D10*
D11*
X32226685Y-87540671D02*
X32155257Y-87612100D01*
X32155257Y-87612100D02*
X31940971Y-87683528D01*
X31940971Y-87683528D02*
X31798114Y-87683528D01*
X31798114Y-87683528D02*
X31583828Y-87612100D01*
X31583828Y-87612100D02*
X31440971Y-87469242D01*
X31440971Y-87469242D02*
X31369542Y-87326385D01*
X31369542Y-87326385D02*
X31298114Y-87040671D01*
X31298114Y-87040671D02*
X31298114Y-86826385D01*
X31298114Y-86826385D02*
X31369542Y-86540671D01*
X31369542Y-86540671D02*
X31440971Y-86397814D01*
X31440971Y-86397814D02*
X31583828Y-86254957D01*
X31583828Y-86254957D02*
X31798114Y-86183528D01*
X31798114Y-86183528D02*
X31940971Y-86183528D01*
X31940971Y-86183528D02*
X32155257Y-86254957D01*
X32155257Y-86254957D02*
X32226685Y-86326385D01*
X33083828Y-87683528D02*
X32940971Y-87612100D01*
X32940971Y-87612100D02*
X32869542Y-87540671D01*
X32869542Y-87540671D02*
X32798114Y-87397814D01*
X32798114Y-87397814D02*
X32798114Y-86969242D01*
X32798114Y-86969242D02*
X32869542Y-86826385D01*
X32869542Y-86826385D02*
X32940971Y-86754957D01*
X32940971Y-86754957D02*
X33083828Y-86683528D01*
X33083828Y-86683528D02*
X33298114Y-86683528D01*
X33298114Y-86683528D02*
X33440971Y-86754957D01*
X33440971Y-86754957D02*
X33512400Y-86826385D01*
X33512400Y-86826385D02*
X33583828Y-86969242D01*
X33583828Y-86969242D02*
X33583828Y-87397814D01*
X33583828Y-87397814D02*
X33512400Y-87540671D01*
X33512400Y-87540671D02*
X33440971Y-87612100D01*
X33440971Y-87612100D02*
X33298114Y-87683528D01*
X33298114Y-87683528D02*
X33083828Y-87683528D01*
X34226685Y-86683528D02*
X34226685Y-88183528D01*
X34226685Y-86754957D02*
X34369543Y-86683528D01*
X34369543Y-86683528D02*
X34655257Y-86683528D01*
X34655257Y-86683528D02*
X34798114Y-86754957D01*
X34798114Y-86754957D02*
X34869543Y-86826385D01*
X34869543Y-86826385D02*
X34940971Y-86969242D01*
X34940971Y-86969242D02*
X34940971Y-87397814D01*
X34940971Y-87397814D02*
X34869543Y-87540671D01*
X34869543Y-87540671D02*
X34798114Y-87612100D01*
X34798114Y-87612100D02*
X34655257Y-87683528D01*
X34655257Y-87683528D02*
X34369543Y-87683528D01*
X34369543Y-87683528D02*
X34226685Y-87612100D01*
X35440971Y-86683528D02*
X35798114Y-87683528D01*
X36155257Y-86683528D02*
X35798114Y-87683528D01*
X35798114Y-87683528D02*
X35655257Y-88040671D01*
X35655257Y-88040671D02*
X35583828Y-88112100D01*
X35583828Y-88112100D02*
X35440971Y-88183528D01*
X36726685Y-87683528D02*
X36726685Y-86683528D01*
X36726685Y-86969242D02*
X36798114Y-86826385D01*
X36798114Y-86826385D02*
X36869543Y-86754957D01*
X36869543Y-86754957D02*
X37012400Y-86683528D01*
X37012400Y-86683528D02*
X37155257Y-86683528D01*
X37655256Y-87683528D02*
X37655256Y-86683528D01*
X37655256Y-86183528D02*
X37583828Y-86254957D01*
X37583828Y-86254957D02*
X37655256Y-86326385D01*
X37655256Y-86326385D02*
X37726685Y-86254957D01*
X37726685Y-86254957D02*
X37655256Y-86183528D01*
X37655256Y-86183528D02*
X37655256Y-86326385D01*
X39012400Y-86683528D02*
X39012400Y-87897814D01*
X39012400Y-87897814D02*
X38940971Y-88040671D01*
X38940971Y-88040671D02*
X38869542Y-88112100D01*
X38869542Y-88112100D02*
X38726685Y-88183528D01*
X38726685Y-88183528D02*
X38512400Y-88183528D01*
X38512400Y-88183528D02*
X38369542Y-88112100D01*
X39012400Y-87612100D02*
X38869542Y-87683528D01*
X38869542Y-87683528D02*
X38583828Y-87683528D01*
X38583828Y-87683528D02*
X38440971Y-87612100D01*
X38440971Y-87612100D02*
X38369542Y-87540671D01*
X38369542Y-87540671D02*
X38298114Y-87397814D01*
X38298114Y-87397814D02*
X38298114Y-86969242D01*
X38298114Y-86969242D02*
X38369542Y-86826385D01*
X38369542Y-86826385D02*
X38440971Y-86754957D01*
X38440971Y-86754957D02*
X38583828Y-86683528D01*
X38583828Y-86683528D02*
X38869542Y-86683528D01*
X38869542Y-86683528D02*
X39012400Y-86754957D01*
X39726685Y-87683528D02*
X39726685Y-86183528D01*
X40369543Y-87683528D02*
X40369543Y-86897814D01*
X40369543Y-86897814D02*
X40298114Y-86754957D01*
X40298114Y-86754957D02*
X40155257Y-86683528D01*
X40155257Y-86683528D02*
X39940971Y-86683528D01*
X39940971Y-86683528D02*
X39798114Y-86754957D01*
X39798114Y-86754957D02*
X39726685Y-86826385D01*
X40869543Y-86683528D02*
X41440971Y-86683528D01*
X41083828Y-86183528D02*
X41083828Y-87469242D01*
X41083828Y-87469242D02*
X41155257Y-87612100D01*
X41155257Y-87612100D02*
X41298114Y-87683528D01*
X41298114Y-87683528D02*
X41440971Y-87683528D01*
X43512400Y-88254957D02*
X43440971Y-88183528D01*
X43440971Y-88183528D02*
X43298114Y-87969242D01*
X43298114Y-87969242D02*
X43226686Y-87826385D01*
X43226686Y-87826385D02*
X43155257Y-87612100D01*
X43155257Y-87612100D02*
X43083828Y-87254957D01*
X43083828Y-87254957D02*
X43083828Y-86969242D01*
X43083828Y-86969242D02*
X43155257Y-86612100D01*
X43155257Y-86612100D02*
X43226686Y-86397814D01*
X43226686Y-86397814D02*
X43298114Y-86254957D01*
X43298114Y-86254957D02*
X43440971Y-86040671D01*
X43440971Y-86040671D02*
X43512400Y-85969242D01*
X44726686Y-87612100D02*
X44583828Y-87683528D01*
X44583828Y-87683528D02*
X44298114Y-87683528D01*
X44298114Y-87683528D02*
X44155257Y-87612100D01*
X44155257Y-87612100D02*
X44083828Y-87540671D01*
X44083828Y-87540671D02*
X44012400Y-87397814D01*
X44012400Y-87397814D02*
X44012400Y-86969242D01*
X44012400Y-86969242D02*
X44083828Y-86826385D01*
X44083828Y-86826385D02*
X44155257Y-86754957D01*
X44155257Y-86754957D02*
X44298114Y-86683528D01*
X44298114Y-86683528D02*
X44583828Y-86683528D01*
X44583828Y-86683528D02*
X44726686Y-86754957D01*
X45226685Y-88254957D02*
X45298114Y-88183528D01*
X45298114Y-88183528D02*
X45440971Y-87969242D01*
X45440971Y-87969242D02*
X45512400Y-87826385D01*
X45512400Y-87826385D02*
X45583828Y-87612100D01*
X45583828Y-87612100D02*
X45655257Y-87254957D01*
X45655257Y-87254957D02*
X45655257Y-86969242D01*
X45655257Y-86969242D02*
X45583828Y-86612100D01*
X45583828Y-86612100D02*
X45512400Y-86397814D01*
X45512400Y-86397814D02*
X45440971Y-86254957D01*
X45440971Y-86254957D02*
X45298114Y-86040671D01*
X45298114Y-86040671D02*
X45226685Y-85969242D01*
X47440971Y-86326385D02*
X47512399Y-86254957D01*
X47512399Y-86254957D02*
X47655257Y-86183528D01*
X47655257Y-86183528D02*
X48012399Y-86183528D01*
X48012399Y-86183528D02*
X48155257Y-86254957D01*
X48155257Y-86254957D02*
X48226685Y-86326385D01*
X48226685Y-86326385D02*
X48298114Y-86469242D01*
X48298114Y-86469242D02*
X48298114Y-86612100D01*
X48298114Y-86612100D02*
X48226685Y-86826385D01*
X48226685Y-86826385D02*
X47369542Y-87683528D01*
X47369542Y-87683528D02*
X48298114Y-87683528D01*
X49226685Y-86183528D02*
X49369542Y-86183528D01*
X49369542Y-86183528D02*
X49512399Y-86254957D01*
X49512399Y-86254957D02*
X49583828Y-86326385D01*
X49583828Y-86326385D02*
X49655256Y-86469242D01*
X49655256Y-86469242D02*
X49726685Y-86754957D01*
X49726685Y-86754957D02*
X49726685Y-87112100D01*
X49726685Y-87112100D02*
X49655256Y-87397814D01*
X49655256Y-87397814D02*
X49583828Y-87540671D01*
X49583828Y-87540671D02*
X49512399Y-87612100D01*
X49512399Y-87612100D02*
X49369542Y-87683528D01*
X49369542Y-87683528D02*
X49226685Y-87683528D01*
X49226685Y-87683528D02*
X49083828Y-87612100D01*
X49083828Y-87612100D02*
X49012399Y-87540671D01*
X49012399Y-87540671D02*
X48940970Y-87397814D01*
X48940970Y-87397814D02*
X48869542Y-87112100D01*
X48869542Y-87112100D02*
X48869542Y-86754957D01*
X48869542Y-86754957D02*
X48940970Y-86469242D01*
X48940970Y-86469242D02*
X49012399Y-86326385D01*
X49012399Y-86326385D02*
X49083828Y-86254957D01*
X49083828Y-86254957D02*
X49226685Y-86183528D01*
X50298113Y-86326385D02*
X50369541Y-86254957D01*
X50369541Y-86254957D02*
X50512399Y-86183528D01*
X50512399Y-86183528D02*
X50869541Y-86183528D01*
X50869541Y-86183528D02*
X51012399Y-86254957D01*
X51012399Y-86254957D02*
X51083827Y-86326385D01*
X51083827Y-86326385D02*
X51155256Y-86469242D01*
X51155256Y-86469242D02*
X51155256Y-86612100D01*
X51155256Y-86612100D02*
X51083827Y-86826385D01*
X51083827Y-86826385D02*
X50226684Y-87683528D01*
X50226684Y-87683528D02*
X51155256Y-87683528D01*
X52440970Y-86683528D02*
X52440970Y-87683528D01*
X52083827Y-86112100D02*
X51726684Y-87183528D01*
X51726684Y-87183528D02*
X52655255Y-87183528D01*
X54369540Y-87683528D02*
X54369540Y-86183528D01*
X55083826Y-87683528D02*
X55083826Y-86183528D01*
X55083826Y-86183528D02*
X55940969Y-87683528D01*
X55940969Y-87683528D02*
X55940969Y-86183528D01*
X56583827Y-87612100D02*
X56798113Y-87683528D01*
X56798113Y-87683528D02*
X57155255Y-87683528D01*
X57155255Y-87683528D02*
X57298113Y-87612100D01*
X57298113Y-87612100D02*
X57369541Y-87540671D01*
X57369541Y-87540671D02*
X57440970Y-87397814D01*
X57440970Y-87397814D02*
X57440970Y-87254957D01*
X57440970Y-87254957D02*
X57369541Y-87112100D01*
X57369541Y-87112100D02*
X57298113Y-87040671D01*
X57298113Y-87040671D02*
X57155255Y-86969242D01*
X57155255Y-86969242D02*
X56869541Y-86897814D01*
X56869541Y-86897814D02*
X56726684Y-86826385D01*
X56726684Y-86826385D02*
X56655255Y-86754957D01*
X56655255Y-86754957D02*
X56583827Y-86612100D01*
X56583827Y-86612100D02*
X56583827Y-86469242D01*
X56583827Y-86469242D02*
X56655255Y-86326385D01*
X56655255Y-86326385D02*
X56726684Y-86254957D01*
X56726684Y-86254957D02*
X56869541Y-86183528D01*
X56869541Y-86183528D02*
X57226684Y-86183528D01*
X57226684Y-86183528D02*
X57440970Y-86254957D01*
X58012398Y-87254957D02*
X58726684Y-87254957D01*
X57869541Y-87683528D02*
X58369541Y-86183528D01*
X58369541Y-86183528D02*
X58869541Y-87683528D01*
X61226683Y-87683528D02*
X60512397Y-87683528D01*
X60512397Y-87683528D02*
X60512397Y-86183528D01*
X61583826Y-86683528D02*
X61940969Y-87683528D01*
X62298112Y-86683528D02*
X61940969Y-87683528D01*
X61940969Y-87683528D02*
X61798112Y-88040671D01*
X61798112Y-88040671D02*
X61726683Y-88112100D01*
X61726683Y-88112100D02*
X61583826Y-88183528D01*
X63083826Y-87683528D02*
X62940969Y-87612100D01*
X62940969Y-87612100D02*
X62869540Y-87540671D01*
X62869540Y-87540671D02*
X62798112Y-87397814D01*
X62798112Y-87397814D02*
X62798112Y-86969242D01*
X62798112Y-86969242D02*
X62869540Y-86826385D01*
X62869540Y-86826385D02*
X62940969Y-86754957D01*
X62940969Y-86754957D02*
X63083826Y-86683528D01*
X63083826Y-86683528D02*
X63298112Y-86683528D01*
X63298112Y-86683528D02*
X63440969Y-86754957D01*
X63440969Y-86754957D02*
X63512398Y-86826385D01*
X63512398Y-86826385D02*
X63583826Y-86969242D01*
X63583826Y-86969242D02*
X63583826Y-87397814D01*
X63583826Y-87397814D02*
X63512398Y-87540671D01*
X63512398Y-87540671D02*
X63440969Y-87612100D01*
X63440969Y-87612100D02*
X63298112Y-87683528D01*
X63298112Y-87683528D02*
X63083826Y-87683528D01*
X64226683Y-86683528D02*
X64226683Y-87683528D01*
X64226683Y-86826385D02*
X64298112Y-86754957D01*
X64298112Y-86754957D02*
X64440969Y-86683528D01*
X64440969Y-86683528D02*
X64655255Y-86683528D01*
X64655255Y-86683528D02*
X64798112Y-86754957D01*
X64798112Y-86754957D02*
X64869541Y-86897814D01*
X64869541Y-86897814D02*
X64869541Y-87683528D01*
X65655255Y-87612100D02*
X65655255Y-87683528D01*
X65655255Y-87683528D02*
X65583826Y-87826385D01*
X65583826Y-87826385D02*
X65512398Y-87897814D01*
X68298112Y-87540671D02*
X68226684Y-87612100D01*
X68226684Y-87612100D02*
X68012398Y-87683528D01*
X68012398Y-87683528D02*
X67869541Y-87683528D01*
X67869541Y-87683528D02*
X67655255Y-87612100D01*
X67655255Y-87612100D02*
X67512398Y-87469242D01*
X67512398Y-87469242D02*
X67440969Y-87326385D01*
X67440969Y-87326385D02*
X67369541Y-87040671D01*
X67369541Y-87040671D02*
X67369541Y-86826385D01*
X67369541Y-86826385D02*
X67440969Y-86540671D01*
X67440969Y-86540671D02*
X67512398Y-86397814D01*
X67512398Y-86397814D02*
X67655255Y-86254957D01*
X67655255Y-86254957D02*
X67869541Y-86183528D01*
X67869541Y-86183528D02*
X68012398Y-86183528D01*
X68012398Y-86183528D02*
X68226684Y-86254957D01*
X68226684Y-86254957D02*
X68298112Y-86326385D01*
X68940969Y-87683528D02*
X68940969Y-86183528D01*
X68940969Y-86183528D02*
X69798112Y-87683528D01*
X69798112Y-87683528D02*
X69798112Y-86183528D01*
X71369541Y-87683528D02*
X70869541Y-86969242D01*
X70512398Y-87683528D02*
X70512398Y-86183528D01*
X70512398Y-86183528D02*
X71083827Y-86183528D01*
X71083827Y-86183528D02*
X71226684Y-86254957D01*
X71226684Y-86254957D02*
X71298113Y-86326385D01*
X71298113Y-86326385D02*
X71369541Y-86469242D01*
X71369541Y-86469242D02*
X71369541Y-86683528D01*
X71369541Y-86683528D02*
X71298113Y-86826385D01*
X71298113Y-86826385D02*
X71226684Y-86897814D01*
X71226684Y-86897814D02*
X71083827Y-86969242D01*
X71083827Y-86969242D02*
X70512398Y-86969242D01*
X71940970Y-87612100D02*
X72155256Y-87683528D01*
X72155256Y-87683528D02*
X72512398Y-87683528D01*
X72512398Y-87683528D02*
X72655256Y-87612100D01*
X72655256Y-87612100D02*
X72726684Y-87540671D01*
X72726684Y-87540671D02*
X72798113Y-87397814D01*
X72798113Y-87397814D02*
X72798113Y-87254957D01*
X72798113Y-87254957D02*
X72726684Y-87112100D01*
X72726684Y-87112100D02*
X72655256Y-87040671D01*
X72655256Y-87040671D02*
X72512398Y-86969242D01*
X72512398Y-86969242D02*
X72226684Y-86897814D01*
X72226684Y-86897814D02*
X72083827Y-86826385D01*
X72083827Y-86826385D02*
X72012398Y-86754957D01*
X72012398Y-86754957D02*
X71940970Y-86612100D01*
X71940970Y-86612100D02*
X71940970Y-86469242D01*
X71940970Y-86469242D02*
X72012398Y-86326385D01*
X72012398Y-86326385D02*
X72083827Y-86254957D01*
X72083827Y-86254957D02*
X72226684Y-86183528D01*
X72226684Y-86183528D02*
X72583827Y-86183528D01*
X72583827Y-86183528D02*
X72798113Y-86254957D01*
X73512398Y-87612100D02*
X73512398Y-87683528D01*
X73512398Y-87683528D02*
X73440969Y-87826385D01*
X73440969Y-87826385D02*
X73369541Y-87897814D01*
X75298112Y-87683528D02*
X75298112Y-86183528D01*
X76012398Y-87683528D02*
X76012398Y-86183528D01*
X76012398Y-86183528D02*
X76869541Y-87683528D01*
X76869541Y-87683528D02*
X76869541Y-86183528D01*
X78298113Y-87683528D02*
X77583827Y-87683528D01*
X77583827Y-87683528D02*
X77583827Y-86183528D01*
X79940970Y-86183528D02*
X79940970Y-87397814D01*
X79940970Y-87397814D02*
X80012399Y-87540671D01*
X80012399Y-87540671D02*
X80083828Y-87612100D01*
X80083828Y-87612100D02*
X80226685Y-87683528D01*
X80226685Y-87683528D02*
X80512399Y-87683528D01*
X80512399Y-87683528D02*
X80655256Y-87612100D01*
X80655256Y-87612100D02*
X80726685Y-87540671D01*
X80726685Y-87540671D02*
X80798113Y-87397814D01*
X80798113Y-87397814D02*
X80798113Y-86183528D01*
X81512399Y-87683528D02*
X81512399Y-86183528D01*
X81512399Y-86183528D02*
X82012399Y-87254957D01*
X82012399Y-87254957D02*
X82512399Y-86183528D01*
X82512399Y-86183528D02*
X82512399Y-87683528D01*
X84083828Y-87683528D02*
X83583828Y-86969242D01*
X83226685Y-87683528D02*
X83226685Y-86183528D01*
X83226685Y-86183528D02*
X83798114Y-86183528D01*
X83798114Y-86183528D02*
X83940971Y-86254957D01*
X83940971Y-86254957D02*
X84012400Y-86326385D01*
X84012400Y-86326385D02*
X84083828Y-86469242D01*
X84083828Y-86469242D02*
X84083828Y-86683528D01*
X84083828Y-86683528D02*
X84012400Y-86826385D01*
X84012400Y-86826385D02*
X83940971Y-86897814D01*
X83940971Y-86897814D02*
X83798114Y-86969242D01*
X83798114Y-86969242D02*
X83226685Y-86969242D01*
X85440971Y-86183528D02*
X84726685Y-86183528D01*
X84726685Y-86183528D02*
X84655257Y-86897814D01*
X84655257Y-86897814D02*
X84726685Y-86826385D01*
X84726685Y-86826385D02*
X84869543Y-86754957D01*
X84869543Y-86754957D02*
X85226685Y-86754957D01*
X85226685Y-86754957D02*
X85369543Y-86826385D01*
X85369543Y-86826385D02*
X85440971Y-86897814D01*
X85440971Y-86897814D02*
X85512400Y-87040671D01*
X85512400Y-87040671D02*
X85512400Y-87397814D01*
X85512400Y-87397814D02*
X85440971Y-87540671D01*
X85440971Y-87540671D02*
X85369543Y-87612100D01*
X85369543Y-87612100D02*
X85226685Y-87683528D01*
X85226685Y-87683528D02*
X84869543Y-87683528D01*
X84869543Y-87683528D02*
X84726685Y-87612100D01*
X84726685Y-87612100D02*
X84655257Y-87540671D01*
X86083828Y-86326385D02*
X86155256Y-86254957D01*
X86155256Y-86254957D02*
X86298114Y-86183528D01*
X86298114Y-86183528D02*
X86655256Y-86183528D01*
X86655256Y-86183528D02*
X86798114Y-86254957D01*
X86798114Y-86254957D02*
X86869542Y-86326385D01*
X86869542Y-86326385D02*
X86940971Y-86469242D01*
X86940971Y-86469242D02*
X86940971Y-86612100D01*
X86940971Y-86612100D02*
X86869542Y-86826385D01*
X86869542Y-86826385D02*
X86012399Y-87683528D01*
X86012399Y-87683528D02*
X86940971Y-87683528D01*
X87440970Y-86183528D02*
X88440970Y-86183528D01*
X88440970Y-86183528D02*
X87798113Y-87683528D01*
X89298113Y-86183528D02*
X89440970Y-86183528D01*
X89440970Y-86183528D02*
X89583827Y-86254957D01*
X89583827Y-86254957D02*
X89655256Y-86326385D01*
X89655256Y-86326385D02*
X89726684Y-86469242D01*
X89726684Y-86469242D02*
X89798113Y-86754957D01*
X89798113Y-86754957D02*
X89798113Y-87112100D01*
X89798113Y-87112100D02*
X89726684Y-87397814D01*
X89726684Y-87397814D02*
X89655256Y-87540671D01*
X89655256Y-87540671D02*
X89583827Y-87612100D01*
X89583827Y-87612100D02*
X89440970Y-87683528D01*
X89440970Y-87683528D02*
X89298113Y-87683528D01*
X89298113Y-87683528D02*
X89155256Y-87612100D01*
X89155256Y-87612100D02*
X89083827Y-87540671D01*
X89083827Y-87540671D02*
X89012398Y-87397814D01*
X89012398Y-87397814D02*
X88940970Y-87112100D01*
X88940970Y-87112100D02*
X88940970Y-86754957D01*
X88940970Y-86754957D02*
X89012398Y-86469242D01*
X89012398Y-86469242D02*
X89083827Y-86326385D01*
X89083827Y-86326385D02*
X89155256Y-86254957D01*
X89155256Y-86254957D02*
X89298113Y-86183528D01*
D10*
D11*
X32083828Y-84683528D02*
X31369542Y-84683528D01*
X31369542Y-84683528D02*
X31369542Y-83183528D01*
X32583828Y-84683528D02*
X32583828Y-83683528D01*
X32583828Y-83183528D02*
X32512400Y-83254957D01*
X32512400Y-83254957D02*
X32583828Y-83326385D01*
X32583828Y-83326385D02*
X32655257Y-83254957D01*
X32655257Y-83254957D02*
X32583828Y-83183528D01*
X32583828Y-83183528D02*
X32583828Y-83326385D01*
X33940972Y-84612100D02*
X33798114Y-84683528D01*
X33798114Y-84683528D02*
X33512400Y-84683528D01*
X33512400Y-84683528D02*
X33369543Y-84612100D01*
X33369543Y-84612100D02*
X33298114Y-84540671D01*
X33298114Y-84540671D02*
X33226686Y-84397814D01*
X33226686Y-84397814D02*
X33226686Y-83969242D01*
X33226686Y-83969242D02*
X33298114Y-83826385D01*
X33298114Y-83826385D02*
X33369543Y-83754957D01*
X33369543Y-83754957D02*
X33512400Y-83683528D01*
X33512400Y-83683528D02*
X33798114Y-83683528D01*
X33798114Y-83683528D02*
X33940972Y-83754957D01*
X35155257Y-84612100D02*
X35012400Y-84683528D01*
X35012400Y-84683528D02*
X34726686Y-84683528D01*
X34726686Y-84683528D02*
X34583828Y-84612100D01*
X34583828Y-84612100D02*
X34512400Y-84469242D01*
X34512400Y-84469242D02*
X34512400Y-83897814D01*
X34512400Y-83897814D02*
X34583828Y-83754957D01*
X34583828Y-83754957D02*
X34726686Y-83683528D01*
X34726686Y-83683528D02*
X35012400Y-83683528D01*
X35012400Y-83683528D02*
X35155257Y-83754957D01*
X35155257Y-83754957D02*
X35226686Y-83897814D01*
X35226686Y-83897814D02*
X35226686Y-84040671D01*
X35226686Y-84040671D02*
X34512400Y-84183528D01*
X35869542Y-83683528D02*
X35869542Y-84683528D01*
X35869542Y-83826385D02*
X35940971Y-83754957D01*
X35940971Y-83754957D02*
X36083828Y-83683528D01*
X36083828Y-83683528D02*
X36298114Y-83683528D01*
X36298114Y-83683528D02*
X36440971Y-83754957D01*
X36440971Y-83754957D02*
X36512400Y-83897814D01*
X36512400Y-83897814D02*
X36512400Y-84683528D01*
X37155257Y-84612100D02*
X37298114Y-84683528D01*
X37298114Y-84683528D02*
X37583828Y-84683528D01*
X37583828Y-84683528D02*
X37726685Y-84612100D01*
X37726685Y-84612100D02*
X37798114Y-84469242D01*
X37798114Y-84469242D02*
X37798114Y-84397814D01*
X37798114Y-84397814D02*
X37726685Y-84254957D01*
X37726685Y-84254957D02*
X37583828Y-84183528D01*
X37583828Y-84183528D02*
X37369543Y-84183528D01*
X37369543Y-84183528D02*
X37226685Y-84112100D01*
X37226685Y-84112100D02*
X37155257Y-83969242D01*
X37155257Y-83969242D02*
X37155257Y-83897814D01*
X37155257Y-83897814D02*
X37226685Y-83754957D01*
X37226685Y-83754957D02*
X37369543Y-83683528D01*
X37369543Y-83683528D02*
X37583828Y-83683528D01*
X37583828Y-83683528D02*
X37726685Y-83754957D01*
X39012400Y-84612100D02*
X38869543Y-84683528D01*
X38869543Y-84683528D02*
X38583829Y-84683528D01*
X38583829Y-84683528D02*
X38440971Y-84612100D01*
X38440971Y-84612100D02*
X38369543Y-84469242D01*
X38369543Y-84469242D02*
X38369543Y-83897814D01*
X38369543Y-83897814D02*
X38440971Y-83754957D01*
X38440971Y-83754957D02*
X38583829Y-83683528D01*
X38583829Y-83683528D02*
X38869543Y-83683528D01*
X38869543Y-83683528D02*
X39012400Y-83754957D01*
X39012400Y-83754957D02*
X39083829Y-83897814D01*
X39083829Y-83897814D02*
X39083829Y-84040671D01*
X39083829Y-84040671D02*
X38369543Y-84183528D01*
X40869542Y-84540671D02*
X40940971Y-84612100D01*
X40940971Y-84612100D02*
X40869542Y-84683528D01*
X40869542Y-84683528D02*
X40798114Y-84612100D01*
X40798114Y-84612100D02*
X40869542Y-84540671D01*
X40869542Y-84540671D02*
X40869542Y-84683528D01*
X40869542Y-83754957D02*
X40940971Y-83826385D01*
X40940971Y-83826385D02*
X40869542Y-83897814D01*
X40869542Y-83897814D02*
X40798114Y-83826385D01*
X40798114Y-83826385D02*
X40869542Y-83754957D01*
X40869542Y-83754957D02*
X40869542Y-83897814D01*
X42726685Y-84683528D02*
X42726685Y-83183528D01*
X42726685Y-83183528D02*
X43226685Y-84254957D01*
X43226685Y-84254957D02*
X43726685Y-83183528D01*
X43726685Y-83183528D02*
X43726685Y-84683528D01*
X44440971Y-84683528D02*
X44440971Y-83183528D01*
X44940972Y-83183528D02*
X45798115Y-83183528D01*
X45369543Y-84683528D02*
X45369543Y-83183528D01*
X48155257Y-84683528D02*
X47440971Y-84683528D01*
X47440971Y-84683528D02*
X47440971Y-83183528D01*
X48655257Y-84683528D02*
X48655257Y-83683528D01*
X48655257Y-83183528D02*
X48583829Y-83254957D01*
X48583829Y-83254957D02*
X48655257Y-83326385D01*
X48655257Y-83326385D02*
X48726686Y-83254957D01*
X48726686Y-83254957D02*
X48655257Y-83183528D01*
X48655257Y-83183528D02*
X48655257Y-83326385D01*
X50012401Y-84612100D02*
X49869543Y-84683528D01*
X49869543Y-84683528D02*
X49583829Y-84683528D01*
X49583829Y-84683528D02*
X49440972Y-84612100D01*
X49440972Y-84612100D02*
X49369543Y-84540671D01*
X49369543Y-84540671D02*
X49298115Y-84397814D01*
X49298115Y-84397814D02*
X49298115Y-83969242D01*
X49298115Y-83969242D02*
X49369543Y-83826385D01*
X49369543Y-83826385D02*
X49440972Y-83754957D01*
X49440972Y-83754957D02*
X49583829Y-83683528D01*
X49583829Y-83683528D02*
X49869543Y-83683528D01*
X49869543Y-83683528D02*
X50012401Y-83754957D01*
X51226686Y-84612100D02*
X51083829Y-84683528D01*
X51083829Y-84683528D02*
X50798115Y-84683528D01*
X50798115Y-84683528D02*
X50655257Y-84612100D01*
X50655257Y-84612100D02*
X50583829Y-84469242D01*
X50583829Y-84469242D02*
X50583829Y-83897814D01*
X50583829Y-83897814D02*
X50655257Y-83754957D01*
X50655257Y-83754957D02*
X50798115Y-83683528D01*
X50798115Y-83683528D02*
X51083829Y-83683528D01*
X51083829Y-83683528D02*
X51226686Y-83754957D01*
X51226686Y-83754957D02*
X51298115Y-83897814D01*
X51298115Y-83897814D02*
X51298115Y-84040671D01*
X51298115Y-84040671D02*
X50583829Y-84183528D01*
X51940971Y-83683528D02*
X51940971Y-84683528D01*
X51940971Y-83826385D02*
X52012400Y-83754957D01*
X52012400Y-83754957D02*
X52155257Y-83683528D01*
X52155257Y-83683528D02*
X52369543Y-83683528D01*
X52369543Y-83683528D02*
X52512400Y-83754957D01*
X52512400Y-83754957D02*
X52583829Y-83897814D01*
X52583829Y-83897814D02*
X52583829Y-84683528D01*
X53226686Y-84612100D02*
X53369543Y-84683528D01*
X53369543Y-84683528D02*
X53655257Y-84683528D01*
X53655257Y-84683528D02*
X53798114Y-84612100D01*
X53798114Y-84612100D02*
X53869543Y-84469242D01*
X53869543Y-84469242D02*
X53869543Y-84397814D01*
X53869543Y-84397814D02*
X53798114Y-84254957D01*
X53798114Y-84254957D02*
X53655257Y-84183528D01*
X53655257Y-84183528D02*
X53440972Y-84183528D01*
X53440972Y-84183528D02*
X53298114Y-84112100D01*
X53298114Y-84112100D02*
X53226686Y-83969242D01*
X53226686Y-83969242D02*
X53226686Y-83897814D01*
X53226686Y-83897814D02*
X53298114Y-83754957D01*
X53298114Y-83754957D02*
X53440972Y-83683528D01*
X53440972Y-83683528D02*
X53655257Y-83683528D01*
X53655257Y-83683528D02*
X53798114Y-83754957D01*
X55083829Y-84612100D02*
X54940972Y-84683528D01*
X54940972Y-84683528D02*
X54655258Y-84683528D01*
X54655258Y-84683528D02*
X54512400Y-84612100D01*
X54512400Y-84612100D02*
X54440972Y-84469242D01*
X54440972Y-84469242D02*
X54440972Y-83897814D01*
X54440972Y-83897814D02*
X54512400Y-83754957D01*
X54512400Y-83754957D02*
X54655258Y-83683528D01*
X54655258Y-83683528D02*
X54940972Y-83683528D01*
X54940972Y-83683528D02*
X55083829Y-83754957D01*
X55083829Y-83754957D02*
X55155258Y-83897814D01*
X55155258Y-83897814D02*
X55155258Y-84040671D01*
X55155258Y-84040671D02*
X54440972Y-84183528D01*
D10*
D11*
X32226685Y-81540671D02*
X32155257Y-81612100D01*
X32155257Y-81612100D02*
X31940971Y-81683528D01*
X31940971Y-81683528D02*
X31798114Y-81683528D01*
X31798114Y-81683528D02*
X31583828Y-81612100D01*
X31583828Y-81612100D02*
X31440971Y-81469242D01*
X31440971Y-81469242D02*
X31369542Y-81326385D01*
X31369542Y-81326385D02*
X31298114Y-81040671D01*
X31298114Y-81040671D02*
X31298114Y-80826385D01*
X31298114Y-80826385D02*
X31369542Y-80540671D01*
X31369542Y-80540671D02*
X31440971Y-80397814D01*
X31440971Y-80397814D02*
X31583828Y-80254957D01*
X31583828Y-80254957D02*
X31798114Y-80183528D01*
X31798114Y-80183528D02*
X31940971Y-80183528D01*
X31940971Y-80183528D02*
X32155257Y-80254957D01*
X32155257Y-80254957D02*
X32226685Y-80326385D01*
X33083828Y-81683528D02*
X32940971Y-81612100D01*
X32940971Y-81612100D02*
X32869542Y-81540671D01*
X32869542Y-81540671D02*
X32798114Y-81397814D01*
X32798114Y-81397814D02*
X32798114Y-80969242D01*
X32798114Y-80969242D02*
X32869542Y-80826385D01*
X32869542Y-80826385D02*
X32940971Y-80754957D01*
X32940971Y-80754957D02*
X33083828Y-80683528D01*
X33083828Y-80683528D02*
X33298114Y-80683528D01*
X33298114Y-80683528D02*
X33440971Y-80754957D01*
X33440971Y-80754957D02*
X33512400Y-80826385D01*
X33512400Y-80826385D02*
X33583828Y-80969242D01*
X33583828Y-80969242D02*
X33583828Y-81397814D01*
X33583828Y-81397814D02*
X33512400Y-81540671D01*
X33512400Y-81540671D02*
X33440971Y-81612100D01*
X33440971Y-81612100D02*
X33298114Y-81683528D01*
X33298114Y-81683528D02*
X33083828Y-81683528D01*
X34226685Y-80683528D02*
X34226685Y-81683528D01*
X34226685Y-80826385D02*
X34298114Y-80754957D01*
X34298114Y-80754957D02*
X34440971Y-80683528D01*
X34440971Y-80683528D02*
X34655257Y-80683528D01*
X34655257Y-80683528D02*
X34798114Y-80754957D01*
X34798114Y-80754957D02*
X34869543Y-80897814D01*
X34869543Y-80897814D02*
X34869543Y-81683528D01*
X35369543Y-80683528D02*
X35940971Y-80683528D01*
X35583828Y-80183528D02*
X35583828Y-81469242D01*
X35583828Y-81469242D02*
X35655257Y-81612100D01*
X35655257Y-81612100D02*
X35798114Y-81683528D01*
X35798114Y-81683528D02*
X35940971Y-81683528D01*
X37083829Y-81683528D02*
X37083829Y-80897814D01*
X37083829Y-80897814D02*
X37012400Y-80754957D01*
X37012400Y-80754957D02*
X36869543Y-80683528D01*
X36869543Y-80683528D02*
X36583829Y-80683528D01*
X36583829Y-80683528D02*
X36440971Y-80754957D01*
X37083829Y-81612100D02*
X36940971Y-81683528D01*
X36940971Y-81683528D02*
X36583829Y-81683528D01*
X36583829Y-81683528D02*
X36440971Y-81612100D01*
X36440971Y-81612100D02*
X36369543Y-81469242D01*
X36369543Y-81469242D02*
X36369543Y-81326385D01*
X36369543Y-81326385D02*
X36440971Y-81183528D01*
X36440971Y-81183528D02*
X36583829Y-81112100D01*
X36583829Y-81112100D02*
X36940971Y-81112100D01*
X36940971Y-81112100D02*
X37083829Y-81040671D01*
X38440972Y-81612100D02*
X38298114Y-81683528D01*
X38298114Y-81683528D02*
X38012400Y-81683528D01*
X38012400Y-81683528D02*
X37869543Y-81612100D01*
X37869543Y-81612100D02*
X37798114Y-81540671D01*
X37798114Y-81540671D02*
X37726686Y-81397814D01*
X37726686Y-81397814D02*
X37726686Y-80969242D01*
X37726686Y-80969242D02*
X37798114Y-80826385D01*
X37798114Y-80826385D02*
X37869543Y-80754957D01*
X37869543Y-80754957D02*
X38012400Y-80683528D01*
X38012400Y-80683528D02*
X38298114Y-80683528D01*
X38298114Y-80683528D02*
X38440972Y-80754957D01*
X38869543Y-80683528D02*
X39440971Y-80683528D01*
X39083828Y-80183528D02*
X39083828Y-81469242D01*
X39083828Y-81469242D02*
X39155257Y-81612100D01*
X39155257Y-81612100D02*
X39298114Y-81683528D01*
X39298114Y-81683528D02*
X39440971Y-81683528D01*
X41083828Y-81540671D02*
X41155257Y-81612100D01*
X41155257Y-81612100D02*
X41083828Y-81683528D01*
X41083828Y-81683528D02*
X41012400Y-81612100D01*
X41012400Y-81612100D02*
X41083828Y-81540671D01*
X41083828Y-81540671D02*
X41083828Y-81683528D01*
X41083828Y-80754957D02*
X41155257Y-80826385D01*
X41155257Y-80826385D02*
X41083828Y-80897814D01*
X41083828Y-80897814D02*
X41012400Y-80826385D01*
X41012400Y-80826385D02*
X41083828Y-80754957D01*
X41083828Y-80754957D02*
X41083828Y-80897814D01*
X42940971Y-81683528D02*
X42940971Y-80183528D01*
X42940971Y-80754957D02*
X43083829Y-80683528D01*
X43083829Y-80683528D02*
X43369543Y-80683528D01*
X43369543Y-80683528D02*
X43512400Y-80754957D01*
X43512400Y-80754957D02*
X43583829Y-80826385D01*
X43583829Y-80826385D02*
X43655257Y-80969242D01*
X43655257Y-80969242D02*
X43655257Y-81397814D01*
X43655257Y-81397814D02*
X43583829Y-81540671D01*
X43583829Y-81540671D02*
X43512400Y-81612100D01*
X43512400Y-81612100D02*
X43369543Y-81683528D01*
X43369543Y-81683528D02*
X43083829Y-81683528D01*
X43083829Y-81683528D02*
X42940971Y-81612100D01*
X44869543Y-81612100D02*
X44726686Y-81683528D01*
X44726686Y-81683528D02*
X44440972Y-81683528D01*
X44440972Y-81683528D02*
X44298114Y-81612100D01*
X44298114Y-81612100D02*
X44226686Y-81469242D01*
X44226686Y-81469242D02*
X44226686Y-80897814D01*
X44226686Y-80897814D02*
X44298114Y-80754957D01*
X44298114Y-80754957D02*
X44440972Y-80683528D01*
X44440972Y-80683528D02*
X44726686Y-80683528D01*
X44726686Y-80683528D02*
X44869543Y-80754957D01*
X44869543Y-80754957D02*
X44940972Y-80897814D01*
X44940972Y-80897814D02*
X44940972Y-81040671D01*
X44940972Y-81040671D02*
X44226686Y-81183528D01*
X45583828Y-81683528D02*
X45583828Y-80683528D01*
X45583828Y-80969242D02*
X45655257Y-80826385D01*
X45655257Y-80826385D02*
X45726686Y-80754957D01*
X45726686Y-80754957D02*
X45869543Y-80683528D01*
X45869543Y-80683528D02*
X46012400Y-80683528D01*
X46298114Y-80683528D02*
X46869542Y-80683528D01*
X46512399Y-80183528D02*
X46512399Y-81469242D01*
X46512399Y-81469242D02*
X46583828Y-81612100D01*
X46583828Y-81612100D02*
X46726685Y-81683528D01*
X46726685Y-81683528D02*
X46869542Y-81683528D01*
X47369542Y-81683528D02*
X47369542Y-80683528D01*
X47369542Y-80969242D02*
X47440971Y-80826385D01*
X47440971Y-80826385D02*
X47512400Y-80754957D01*
X47512400Y-80754957D02*
X47655257Y-80683528D01*
X47655257Y-80683528D02*
X47798114Y-80683528D01*
X48940971Y-81683528D02*
X48940971Y-80897814D01*
X48940971Y-80897814D02*
X48869542Y-80754957D01*
X48869542Y-80754957D02*
X48726685Y-80683528D01*
X48726685Y-80683528D02*
X48440971Y-80683528D01*
X48440971Y-80683528D02*
X48298113Y-80754957D01*
X48940971Y-81612100D02*
X48798113Y-81683528D01*
X48798113Y-81683528D02*
X48440971Y-81683528D01*
X48440971Y-81683528D02*
X48298113Y-81612100D01*
X48298113Y-81612100D02*
X48226685Y-81469242D01*
X48226685Y-81469242D02*
X48226685Y-81326385D01*
X48226685Y-81326385D02*
X48298113Y-81183528D01*
X48298113Y-81183528D02*
X48440971Y-81112100D01*
X48440971Y-81112100D02*
X48798113Y-81112100D01*
X48798113Y-81112100D02*
X48940971Y-81040671D01*
X49655256Y-80683528D02*
X49655256Y-81683528D01*
X49655256Y-80826385D02*
X49726685Y-80754957D01*
X49726685Y-80754957D02*
X49869542Y-80683528D01*
X49869542Y-80683528D02*
X50083828Y-80683528D01*
X50083828Y-80683528D02*
X50226685Y-80754957D01*
X50226685Y-80754957D02*
X50298114Y-80897814D01*
X50298114Y-80897814D02*
X50298114Y-81683528D01*
X51655257Y-81683528D02*
X51655257Y-80183528D01*
X51655257Y-81612100D02*
X51512399Y-81683528D01*
X51512399Y-81683528D02*
X51226685Y-81683528D01*
X51226685Y-81683528D02*
X51083828Y-81612100D01*
X51083828Y-81612100D02*
X51012399Y-81540671D01*
X51012399Y-81540671D02*
X50940971Y-81397814D01*
X50940971Y-81397814D02*
X50940971Y-80969242D01*
X50940971Y-80969242D02*
X51012399Y-80826385D01*
X51012399Y-80826385D02*
X51083828Y-80754957D01*
X51083828Y-80754957D02*
X51226685Y-80683528D01*
X51226685Y-80683528D02*
X51512399Y-80683528D01*
X51512399Y-80683528D02*
X51655257Y-80754957D01*
X52369542Y-81540671D02*
X52440971Y-81612100D01*
X52440971Y-81612100D02*
X52369542Y-81683528D01*
X52369542Y-81683528D02*
X52298114Y-81612100D01*
X52298114Y-81612100D02*
X52369542Y-81540671D01*
X52369542Y-81540671D02*
X52369542Y-81683528D01*
X53083828Y-81683528D02*
X53083828Y-80683528D01*
X53083828Y-80826385D02*
X53155257Y-80754957D01*
X53155257Y-80754957D02*
X53298114Y-80683528D01*
X53298114Y-80683528D02*
X53512400Y-80683528D01*
X53512400Y-80683528D02*
X53655257Y-80754957D01*
X53655257Y-80754957D02*
X53726686Y-80897814D01*
X53726686Y-80897814D02*
X53726686Y-81683528D01*
X53726686Y-80897814D02*
X53798114Y-80754957D01*
X53798114Y-80754957D02*
X53940971Y-80683528D01*
X53940971Y-80683528D02*
X54155257Y-80683528D01*
X54155257Y-80683528D02*
X54298114Y-80754957D01*
X54298114Y-80754957D02*
X54369543Y-80897814D01*
X54369543Y-80897814D02*
X54369543Y-81683528D01*
X55726686Y-81683528D02*
X55726686Y-80897814D01*
X55726686Y-80897814D02*
X55655257Y-80754957D01*
X55655257Y-80754957D02*
X55512400Y-80683528D01*
X55512400Y-80683528D02*
X55226686Y-80683528D01*
X55226686Y-80683528D02*
X55083828Y-80754957D01*
X55726686Y-81612100D02*
X55583828Y-81683528D01*
X55583828Y-81683528D02*
X55226686Y-81683528D01*
X55226686Y-81683528D02*
X55083828Y-81612100D01*
X55083828Y-81612100D02*
X55012400Y-81469242D01*
X55012400Y-81469242D02*
X55012400Y-81326385D01*
X55012400Y-81326385D02*
X55083828Y-81183528D01*
X55083828Y-81183528D02*
X55226686Y-81112100D01*
X55226686Y-81112100D02*
X55583828Y-81112100D01*
X55583828Y-81112100D02*
X55726686Y-81040671D01*
X56369543Y-81612100D02*
X56512400Y-81683528D01*
X56512400Y-81683528D02*
X56798114Y-81683528D01*
X56798114Y-81683528D02*
X56940971Y-81612100D01*
X56940971Y-81612100D02*
X57012400Y-81469242D01*
X57012400Y-81469242D02*
X57012400Y-81397814D01*
X57012400Y-81397814D02*
X56940971Y-81254957D01*
X56940971Y-81254957D02*
X56798114Y-81183528D01*
X56798114Y-81183528D02*
X56583829Y-81183528D01*
X56583829Y-81183528D02*
X56440971Y-81112100D01*
X56440971Y-81112100D02*
X56369543Y-80969242D01*
X56369543Y-80969242D02*
X56369543Y-80897814D01*
X56369543Y-80897814D02*
X56440971Y-80754957D01*
X56440971Y-80754957D02*
X56583829Y-80683528D01*
X56583829Y-80683528D02*
X56798114Y-80683528D01*
X56798114Y-80683528D02*
X56940971Y-80754957D01*
X57583829Y-81612100D02*
X57726686Y-81683528D01*
X57726686Y-81683528D02*
X58012400Y-81683528D01*
X58012400Y-81683528D02*
X58155257Y-81612100D01*
X58155257Y-81612100D02*
X58226686Y-81469242D01*
X58226686Y-81469242D02*
X58226686Y-81397814D01*
X58226686Y-81397814D02*
X58155257Y-81254957D01*
X58155257Y-81254957D02*
X58012400Y-81183528D01*
X58012400Y-81183528D02*
X57798115Y-81183528D01*
X57798115Y-81183528D02*
X57655257Y-81112100D01*
X57655257Y-81112100D02*
X57583829Y-80969242D01*
X57583829Y-80969242D02*
X57583829Y-80897814D01*
X57583829Y-80897814D02*
X57655257Y-80754957D01*
X57655257Y-80754957D02*
X57798115Y-80683528D01*
X57798115Y-80683528D02*
X58012400Y-80683528D01*
X58012400Y-80683528D02*
X58155257Y-80754957D01*
X59083829Y-81683528D02*
X58940972Y-81612100D01*
X58940972Y-81612100D02*
X58869543Y-81540671D01*
X58869543Y-81540671D02*
X58798115Y-81397814D01*
X58798115Y-81397814D02*
X58798115Y-80969242D01*
X58798115Y-80969242D02*
X58869543Y-80826385D01*
X58869543Y-80826385D02*
X58940972Y-80754957D01*
X58940972Y-80754957D02*
X59083829Y-80683528D01*
X59083829Y-80683528D02*
X59298115Y-80683528D01*
X59298115Y-80683528D02*
X59440972Y-80754957D01*
X59440972Y-80754957D02*
X59512401Y-80826385D01*
X59512401Y-80826385D02*
X59583829Y-80969242D01*
X59583829Y-80969242D02*
X59583829Y-81397814D01*
X59583829Y-81397814D02*
X59512401Y-81540671D01*
X59512401Y-81540671D02*
X59440972Y-81612100D01*
X59440972Y-81612100D02*
X59298115Y-81683528D01*
X59298115Y-81683528D02*
X59083829Y-81683528D01*
X60012401Y-80683528D02*
X60583829Y-80683528D01*
X60226686Y-80183528D02*
X60226686Y-81469242D01*
X60226686Y-81469242D02*
X60298115Y-81612100D01*
X60298115Y-81612100D02*
X60440972Y-81683528D01*
X60440972Y-81683528D02*
X60583829Y-81683528D01*
X62012401Y-80969242D02*
X61940972Y-80897814D01*
X61940972Y-80897814D02*
X61798115Y-80826385D01*
X61798115Y-80826385D02*
X61655258Y-80826385D01*
X61655258Y-80826385D02*
X61512401Y-80897814D01*
X61512401Y-80897814D02*
X61440972Y-80969242D01*
X61440972Y-80969242D02*
X61369544Y-81112100D01*
X61369544Y-81112100D02*
X61369544Y-81254957D01*
X61369544Y-81254957D02*
X61440972Y-81397814D01*
X61440972Y-81397814D02*
X61512401Y-81469242D01*
X61512401Y-81469242D02*
X61655258Y-81540671D01*
X61655258Y-81540671D02*
X61798115Y-81540671D01*
X61798115Y-81540671D02*
X61940972Y-81469242D01*
X61940972Y-81469242D02*
X62012401Y-81397814D01*
X62012401Y-80826385D02*
X62012401Y-81397814D01*
X62012401Y-81397814D02*
X62083829Y-81469242D01*
X62083829Y-81469242D02*
X62155258Y-81469242D01*
X62155258Y-81469242D02*
X62298115Y-81397814D01*
X62298115Y-81397814D02*
X62369544Y-81254957D01*
X62369544Y-81254957D02*
X62369544Y-80897814D01*
X62369544Y-80897814D02*
X62226687Y-80683528D01*
X62226687Y-80683528D02*
X62012401Y-80540671D01*
X62012401Y-80540671D02*
X61726687Y-80469242D01*
X61726687Y-80469242D02*
X61440972Y-80540671D01*
X61440972Y-80540671D02*
X61226687Y-80683528D01*
X61226687Y-80683528D02*
X61083829Y-80897814D01*
X61083829Y-80897814D02*
X61012401Y-81183528D01*
X61012401Y-81183528D02*
X61083829Y-81469242D01*
X61083829Y-81469242D02*
X61226687Y-81683528D01*
X61226687Y-81683528D02*
X61440972Y-81826385D01*
X61440972Y-81826385D02*
X61726687Y-81897814D01*
X61726687Y-81897814D02*
X62012401Y-81826385D01*
X62012401Y-81826385D02*
X62226687Y-81683528D01*
X63012400Y-81683528D02*
X63012400Y-80683528D01*
X63012400Y-80183528D02*
X62940972Y-80254957D01*
X62940972Y-80254957D02*
X63012400Y-80326385D01*
X63012400Y-80326385D02*
X63083829Y-80254957D01*
X63083829Y-80254957D02*
X63012400Y-80183528D01*
X63012400Y-80183528D02*
X63012400Y-80326385D01*
X63726686Y-80683528D02*
X63726686Y-81683528D01*
X63726686Y-80826385D02*
X63798115Y-80754957D01*
X63798115Y-80754957D02*
X63940972Y-80683528D01*
X63940972Y-80683528D02*
X64155258Y-80683528D01*
X64155258Y-80683528D02*
X64298115Y-80754957D01*
X64298115Y-80754957D02*
X64369544Y-80897814D01*
X64369544Y-80897814D02*
X64369544Y-81683528D01*
X65012401Y-81612100D02*
X65155258Y-81683528D01*
X65155258Y-81683528D02*
X65440972Y-81683528D01*
X65440972Y-81683528D02*
X65583829Y-81612100D01*
X65583829Y-81612100D02*
X65655258Y-81469242D01*
X65655258Y-81469242D02*
X65655258Y-81397814D01*
X65655258Y-81397814D02*
X65583829Y-81254957D01*
X65583829Y-81254957D02*
X65440972Y-81183528D01*
X65440972Y-81183528D02*
X65226687Y-81183528D01*
X65226687Y-81183528D02*
X65083829Y-81112100D01*
X65083829Y-81112100D02*
X65012401Y-80969242D01*
X65012401Y-80969242D02*
X65012401Y-80897814D01*
X65012401Y-80897814D02*
X65083829Y-80754957D01*
X65083829Y-80754957D02*
X65226687Y-80683528D01*
X65226687Y-80683528D02*
X65440972Y-80683528D01*
X65440972Y-80683528D02*
X65583829Y-80754957D01*
X66940973Y-81683528D02*
X66940973Y-80897814D01*
X66940973Y-80897814D02*
X66869544Y-80754957D01*
X66869544Y-80754957D02*
X66726687Y-80683528D01*
X66726687Y-80683528D02*
X66440973Y-80683528D01*
X66440973Y-80683528D02*
X66298115Y-80754957D01*
X66940973Y-81612100D02*
X66798115Y-81683528D01*
X66798115Y-81683528D02*
X66440973Y-81683528D01*
X66440973Y-81683528D02*
X66298115Y-81612100D01*
X66298115Y-81612100D02*
X66226687Y-81469242D01*
X66226687Y-81469242D02*
X66226687Y-81326385D01*
X66226687Y-81326385D02*
X66298115Y-81183528D01*
X66298115Y-81183528D02*
X66440973Y-81112100D01*
X66440973Y-81112100D02*
X66798115Y-81112100D01*
X66798115Y-81112100D02*
X66940973Y-81040671D01*
X67655258Y-81112100D02*
X68798116Y-81112100D01*
X69726687Y-81683528D02*
X69583830Y-81612100D01*
X69583830Y-81612100D02*
X69512401Y-81469242D01*
X69512401Y-81469242D02*
X69512401Y-80183528D01*
X70155258Y-80683528D02*
X70512401Y-81683528D01*
X70869544Y-80683528D02*
X70512401Y-81683528D01*
X70512401Y-81683528D02*
X70369544Y-82040671D01*
X70369544Y-82040671D02*
X70298115Y-82112100D01*
X70298115Y-82112100D02*
X70155258Y-82183528D01*
X71655258Y-81683528D02*
X71512401Y-81612100D01*
X71512401Y-81612100D02*
X71440972Y-81540671D01*
X71440972Y-81540671D02*
X71369544Y-81397814D01*
X71369544Y-81397814D02*
X71369544Y-80969242D01*
X71369544Y-80969242D02*
X71440972Y-80826385D01*
X71440972Y-80826385D02*
X71512401Y-80754957D01*
X71512401Y-80754957D02*
X71655258Y-80683528D01*
X71655258Y-80683528D02*
X71869544Y-80683528D01*
X71869544Y-80683528D02*
X72012401Y-80754957D01*
X72012401Y-80754957D02*
X72083830Y-80826385D01*
X72083830Y-80826385D02*
X72155258Y-80969242D01*
X72155258Y-80969242D02*
X72155258Y-81397814D01*
X72155258Y-81397814D02*
X72083830Y-81540671D01*
X72083830Y-81540671D02*
X72012401Y-81612100D01*
X72012401Y-81612100D02*
X71869544Y-81683528D01*
X71869544Y-81683528D02*
X71655258Y-81683528D01*
X72798115Y-80683528D02*
X72798115Y-81683528D01*
X72798115Y-80826385D02*
X72869544Y-80754957D01*
X72869544Y-80754957D02*
X73012401Y-80683528D01*
X73012401Y-80683528D02*
X73226687Y-80683528D01*
X73226687Y-80683528D02*
X73369544Y-80754957D01*
X73369544Y-80754957D02*
X73440973Y-80897814D01*
X73440973Y-80897814D02*
X73440973Y-81683528D01*
X74155258Y-81540671D02*
X74226687Y-81612100D01*
X74226687Y-81612100D02*
X74155258Y-81683528D01*
X74155258Y-81683528D02*
X74083830Y-81612100D01*
X74083830Y-81612100D02*
X74155258Y-81540671D01*
X74155258Y-81540671D02*
X74155258Y-81683528D01*
X74655259Y-80683528D02*
X75226687Y-80683528D01*
X74869544Y-81683528D02*
X74869544Y-80397814D01*
X74869544Y-80397814D02*
X74940973Y-80254957D01*
X74940973Y-80254957D02*
X75083830Y-80183528D01*
X75083830Y-80183528D02*
X75226687Y-80183528D01*
X75726687Y-81683528D02*
X75726687Y-80683528D01*
X75726687Y-80969242D02*
X75798116Y-80826385D01*
X75798116Y-80826385D02*
X75869545Y-80754957D01*
X75869545Y-80754957D02*
X76012402Y-80683528D01*
X76012402Y-80683528D02*
X76155259Y-80683528D01*
D10*
D11*
X31298114Y-78254957D02*
X32012400Y-78254957D01*
X31155257Y-78683528D02*
X31655257Y-77183528D01*
X31655257Y-77183528D02*
X32155257Y-78683528D01*
X33298114Y-77683528D02*
X33298114Y-78683528D01*
X32655256Y-77683528D02*
X32655256Y-78469242D01*
X32655256Y-78469242D02*
X32726685Y-78612100D01*
X32726685Y-78612100D02*
X32869542Y-78683528D01*
X32869542Y-78683528D02*
X33083828Y-78683528D01*
X33083828Y-78683528D02*
X33226685Y-78612100D01*
X33226685Y-78612100D02*
X33298114Y-78540671D01*
X33798114Y-77683528D02*
X34369542Y-77683528D01*
X34012399Y-77183528D02*
X34012399Y-78469242D01*
X34012399Y-78469242D02*
X34083828Y-78612100D01*
X34083828Y-78612100D02*
X34226685Y-78683528D01*
X34226685Y-78683528D02*
X34369542Y-78683528D01*
X34869542Y-78683528D02*
X34869542Y-77183528D01*
X35512400Y-78683528D02*
X35512400Y-77897814D01*
X35512400Y-77897814D02*
X35440971Y-77754957D01*
X35440971Y-77754957D02*
X35298114Y-77683528D01*
X35298114Y-77683528D02*
X35083828Y-77683528D01*
X35083828Y-77683528D02*
X34940971Y-77754957D01*
X34940971Y-77754957D02*
X34869542Y-77826385D01*
X36440971Y-78683528D02*
X36298114Y-78612100D01*
X36298114Y-78612100D02*
X36226685Y-78540671D01*
X36226685Y-78540671D02*
X36155257Y-78397814D01*
X36155257Y-78397814D02*
X36155257Y-77969242D01*
X36155257Y-77969242D02*
X36226685Y-77826385D01*
X36226685Y-77826385D02*
X36298114Y-77754957D01*
X36298114Y-77754957D02*
X36440971Y-77683528D01*
X36440971Y-77683528D02*
X36655257Y-77683528D01*
X36655257Y-77683528D02*
X36798114Y-77754957D01*
X36798114Y-77754957D02*
X36869543Y-77826385D01*
X36869543Y-77826385D02*
X36940971Y-77969242D01*
X36940971Y-77969242D02*
X36940971Y-78397814D01*
X36940971Y-78397814D02*
X36869543Y-78540671D01*
X36869543Y-78540671D02*
X36798114Y-78612100D01*
X36798114Y-78612100D02*
X36655257Y-78683528D01*
X36655257Y-78683528D02*
X36440971Y-78683528D01*
X37583828Y-78683528D02*
X37583828Y-77683528D01*
X37583828Y-77969242D02*
X37655257Y-77826385D01*
X37655257Y-77826385D02*
X37726686Y-77754957D01*
X37726686Y-77754957D02*
X37869543Y-77683528D01*
X37869543Y-77683528D02*
X38012400Y-77683528D01*
X38440971Y-78612100D02*
X38583828Y-78683528D01*
X38583828Y-78683528D02*
X38869542Y-78683528D01*
X38869542Y-78683528D02*
X39012399Y-78612100D01*
X39012399Y-78612100D02*
X39083828Y-78469242D01*
X39083828Y-78469242D02*
X39083828Y-78397814D01*
X39083828Y-78397814D02*
X39012399Y-78254957D01*
X39012399Y-78254957D02*
X38869542Y-78183528D01*
X38869542Y-78183528D02*
X38655257Y-78183528D01*
X38655257Y-78183528D02*
X38512399Y-78112100D01*
X38512399Y-78112100D02*
X38440971Y-77969242D01*
X38440971Y-77969242D02*
X38440971Y-77897814D01*
X38440971Y-77897814D02*
X38512399Y-77754957D01*
X38512399Y-77754957D02*
X38655257Y-77683528D01*
X38655257Y-77683528D02*
X38869542Y-77683528D01*
X38869542Y-77683528D02*
X39012399Y-77754957D01*
X40869542Y-78540671D02*
X40940971Y-78612100D01*
X40940971Y-78612100D02*
X40869542Y-78683528D01*
X40869542Y-78683528D02*
X40798114Y-78612100D01*
X40798114Y-78612100D02*
X40869542Y-78540671D01*
X40869542Y-78540671D02*
X40869542Y-78683528D01*
X40869542Y-77754957D02*
X40940971Y-77826385D01*
X40940971Y-77826385D02*
X40869542Y-77897814D01*
X40869542Y-77897814D02*
X40798114Y-77826385D01*
X40798114Y-77826385D02*
X40869542Y-77754957D01*
X40869542Y-77754957D02*
X40869542Y-77897814D01*
X43226685Y-77897814D02*
X43440971Y-77969242D01*
X43440971Y-77969242D02*
X43512400Y-78040671D01*
X43512400Y-78040671D02*
X43583828Y-78183528D01*
X43583828Y-78183528D02*
X43583828Y-78397814D01*
X43583828Y-78397814D02*
X43512400Y-78540671D01*
X43512400Y-78540671D02*
X43440971Y-78612100D01*
X43440971Y-78612100D02*
X43298114Y-78683528D01*
X43298114Y-78683528D02*
X42726685Y-78683528D01*
X42726685Y-78683528D02*
X42726685Y-77183528D01*
X42726685Y-77183528D02*
X43226685Y-77183528D01*
X43226685Y-77183528D02*
X43369543Y-77254957D01*
X43369543Y-77254957D02*
X43440971Y-77326385D01*
X43440971Y-77326385D02*
X43512400Y-77469242D01*
X43512400Y-77469242D02*
X43512400Y-77612100D01*
X43512400Y-77612100D02*
X43440971Y-77754957D01*
X43440971Y-77754957D02*
X43369543Y-77826385D01*
X43369543Y-77826385D02*
X43226685Y-77897814D01*
X43226685Y-77897814D02*
X42726685Y-77897814D01*
X44798114Y-78612100D02*
X44655257Y-78683528D01*
X44655257Y-78683528D02*
X44369543Y-78683528D01*
X44369543Y-78683528D02*
X44226685Y-78612100D01*
X44226685Y-78612100D02*
X44155257Y-78469242D01*
X44155257Y-78469242D02*
X44155257Y-77897814D01*
X44155257Y-77897814D02*
X44226685Y-77754957D01*
X44226685Y-77754957D02*
X44369543Y-77683528D01*
X44369543Y-77683528D02*
X44655257Y-77683528D01*
X44655257Y-77683528D02*
X44798114Y-77754957D01*
X44798114Y-77754957D02*
X44869543Y-77897814D01*
X44869543Y-77897814D02*
X44869543Y-78040671D01*
X44869543Y-78040671D02*
X44155257Y-78183528D01*
X45512399Y-78683528D02*
X45512399Y-77683528D01*
X45512399Y-77969242D02*
X45583828Y-77826385D01*
X45583828Y-77826385D02*
X45655257Y-77754957D01*
X45655257Y-77754957D02*
X45798114Y-77683528D01*
X45798114Y-77683528D02*
X45940971Y-77683528D01*
X46226685Y-77683528D02*
X46798113Y-77683528D01*
X46440970Y-77183528D02*
X46440970Y-78469242D01*
X46440970Y-78469242D02*
X46512399Y-78612100D01*
X46512399Y-78612100D02*
X46655256Y-78683528D01*
X46655256Y-78683528D02*
X46798113Y-78683528D01*
X47298113Y-78683528D02*
X47298113Y-77683528D01*
X47298113Y-77969242D02*
X47369542Y-77826385D01*
X47369542Y-77826385D02*
X47440971Y-77754957D01*
X47440971Y-77754957D02*
X47583828Y-77683528D01*
X47583828Y-77683528D02*
X47726685Y-77683528D01*
X48869542Y-78683528D02*
X48869542Y-77897814D01*
X48869542Y-77897814D02*
X48798113Y-77754957D01*
X48798113Y-77754957D02*
X48655256Y-77683528D01*
X48655256Y-77683528D02*
X48369542Y-77683528D01*
X48369542Y-77683528D02*
X48226684Y-77754957D01*
X48869542Y-78612100D02*
X48726684Y-78683528D01*
X48726684Y-78683528D02*
X48369542Y-78683528D01*
X48369542Y-78683528D02*
X48226684Y-78612100D01*
X48226684Y-78612100D02*
X48155256Y-78469242D01*
X48155256Y-78469242D02*
X48155256Y-78326385D01*
X48155256Y-78326385D02*
X48226684Y-78183528D01*
X48226684Y-78183528D02*
X48369542Y-78112100D01*
X48369542Y-78112100D02*
X48726684Y-78112100D01*
X48726684Y-78112100D02*
X48869542Y-78040671D01*
X49583827Y-77683528D02*
X49583827Y-78683528D01*
X49583827Y-77826385D02*
X49655256Y-77754957D01*
X49655256Y-77754957D02*
X49798113Y-77683528D01*
X49798113Y-77683528D02*
X50012399Y-77683528D01*
X50012399Y-77683528D02*
X50155256Y-77754957D01*
X50155256Y-77754957D02*
X50226685Y-77897814D01*
X50226685Y-77897814D02*
X50226685Y-78683528D01*
X51583828Y-78683528D02*
X51583828Y-77183528D01*
X51583828Y-78612100D02*
X51440970Y-78683528D01*
X51440970Y-78683528D02*
X51155256Y-78683528D01*
X51155256Y-78683528D02*
X51012399Y-78612100D01*
X51012399Y-78612100D02*
X50940970Y-78540671D01*
X50940970Y-78540671D02*
X50869542Y-78397814D01*
X50869542Y-78397814D02*
X50869542Y-77969242D01*
X50869542Y-77969242D02*
X50940970Y-77826385D01*
X50940970Y-77826385D02*
X51012399Y-77754957D01*
X51012399Y-77754957D02*
X51155256Y-77683528D01*
X51155256Y-77683528D02*
X51440970Y-77683528D01*
X51440970Y-77683528D02*
X51583828Y-77754957D01*
X53440970Y-78683528D02*
X53440970Y-77183528D01*
X53440970Y-77183528D02*
X53940970Y-78254957D01*
X53940970Y-78254957D02*
X54440970Y-77183528D01*
X54440970Y-77183528D02*
X54440970Y-78683528D01*
X55798114Y-78683528D02*
X55798114Y-77897814D01*
X55798114Y-77897814D02*
X55726685Y-77754957D01*
X55726685Y-77754957D02*
X55583828Y-77683528D01*
X55583828Y-77683528D02*
X55298114Y-77683528D01*
X55298114Y-77683528D02*
X55155256Y-77754957D01*
X55798114Y-78612100D02*
X55655256Y-78683528D01*
X55655256Y-78683528D02*
X55298114Y-78683528D01*
X55298114Y-78683528D02*
X55155256Y-78612100D01*
X55155256Y-78612100D02*
X55083828Y-78469242D01*
X55083828Y-78469242D02*
X55083828Y-78326385D01*
X55083828Y-78326385D02*
X55155256Y-78183528D01*
X55155256Y-78183528D02*
X55298114Y-78112100D01*
X55298114Y-78112100D02*
X55655256Y-78112100D01*
X55655256Y-78112100D02*
X55798114Y-78040671D01*
X56440971Y-78612100D02*
X56583828Y-78683528D01*
X56583828Y-78683528D02*
X56869542Y-78683528D01*
X56869542Y-78683528D02*
X57012399Y-78612100D01*
X57012399Y-78612100D02*
X57083828Y-78469242D01*
X57083828Y-78469242D02*
X57083828Y-78397814D01*
X57083828Y-78397814D02*
X57012399Y-78254957D01*
X57012399Y-78254957D02*
X56869542Y-78183528D01*
X56869542Y-78183528D02*
X56655257Y-78183528D01*
X56655257Y-78183528D02*
X56512399Y-78112100D01*
X56512399Y-78112100D02*
X56440971Y-77969242D01*
X56440971Y-77969242D02*
X56440971Y-77897814D01*
X56440971Y-77897814D02*
X56512399Y-77754957D01*
X56512399Y-77754957D02*
X56655257Y-77683528D01*
X56655257Y-77683528D02*
X56869542Y-77683528D01*
X56869542Y-77683528D02*
X57012399Y-77754957D01*
X57655257Y-78612100D02*
X57798114Y-78683528D01*
X57798114Y-78683528D02*
X58083828Y-78683528D01*
X58083828Y-78683528D02*
X58226685Y-78612100D01*
X58226685Y-78612100D02*
X58298114Y-78469242D01*
X58298114Y-78469242D02*
X58298114Y-78397814D01*
X58298114Y-78397814D02*
X58226685Y-78254957D01*
X58226685Y-78254957D02*
X58083828Y-78183528D01*
X58083828Y-78183528D02*
X57869543Y-78183528D01*
X57869543Y-78183528D02*
X57726685Y-78112100D01*
X57726685Y-78112100D02*
X57655257Y-77969242D01*
X57655257Y-77969242D02*
X57655257Y-77897814D01*
X57655257Y-77897814D02*
X57726685Y-77754957D01*
X57726685Y-77754957D02*
X57869543Y-77683528D01*
X57869543Y-77683528D02*
X58083828Y-77683528D01*
X58083828Y-77683528D02*
X58226685Y-77754957D01*
X59155257Y-78683528D02*
X59012400Y-78612100D01*
X59012400Y-78612100D02*
X58940971Y-78540671D01*
X58940971Y-78540671D02*
X58869543Y-78397814D01*
X58869543Y-78397814D02*
X58869543Y-77969242D01*
X58869543Y-77969242D02*
X58940971Y-77826385D01*
X58940971Y-77826385D02*
X59012400Y-77754957D01*
X59012400Y-77754957D02*
X59155257Y-77683528D01*
X59155257Y-77683528D02*
X59369543Y-77683528D01*
X59369543Y-77683528D02*
X59512400Y-77754957D01*
X59512400Y-77754957D02*
X59583829Y-77826385D01*
X59583829Y-77826385D02*
X59655257Y-77969242D01*
X59655257Y-77969242D02*
X59655257Y-78397814D01*
X59655257Y-78397814D02*
X59583829Y-78540671D01*
X59583829Y-78540671D02*
X59512400Y-78612100D01*
X59512400Y-78612100D02*
X59369543Y-78683528D01*
X59369543Y-78683528D02*
X59155257Y-78683528D01*
X60083829Y-77683528D02*
X60655257Y-77683528D01*
X60298114Y-77183528D02*
X60298114Y-78469242D01*
X60298114Y-78469242D02*
X60369543Y-78612100D01*
X60369543Y-78612100D02*
X60512400Y-78683528D01*
X60512400Y-78683528D02*
X60655257Y-78683528D01*
X61226686Y-78612100D02*
X61226686Y-78683528D01*
X61226686Y-78683528D02*
X61155257Y-78826385D01*
X61155257Y-78826385D02*
X61083829Y-78897814D01*
X63012400Y-78683528D02*
X63012400Y-77183528D01*
X63012400Y-77183528D02*
X63512400Y-78254957D01*
X63512400Y-78254957D02*
X64012400Y-77183528D01*
X64012400Y-77183528D02*
X64012400Y-78683528D01*
X65369544Y-78683528D02*
X65369544Y-77897814D01*
X65369544Y-77897814D02*
X65298115Y-77754957D01*
X65298115Y-77754957D02*
X65155258Y-77683528D01*
X65155258Y-77683528D02*
X64869544Y-77683528D01*
X64869544Y-77683528D02*
X64726686Y-77754957D01*
X65369544Y-78612100D02*
X65226686Y-78683528D01*
X65226686Y-78683528D02*
X64869544Y-78683528D01*
X64869544Y-78683528D02*
X64726686Y-78612100D01*
X64726686Y-78612100D02*
X64655258Y-78469242D01*
X64655258Y-78469242D02*
X64655258Y-78326385D01*
X64655258Y-78326385D02*
X64726686Y-78183528D01*
X64726686Y-78183528D02*
X64869544Y-78112100D01*
X64869544Y-78112100D02*
X65226686Y-78112100D01*
X65226686Y-78112100D02*
X65369544Y-78040671D01*
X65869544Y-77683528D02*
X66440972Y-77683528D01*
X66083829Y-77183528D02*
X66083829Y-78469242D01*
X66083829Y-78469242D02*
X66155258Y-78612100D01*
X66155258Y-78612100D02*
X66298115Y-78683528D01*
X66298115Y-78683528D02*
X66440972Y-78683528D01*
X66726687Y-77683528D02*
X67298115Y-77683528D01*
X66940972Y-77183528D02*
X66940972Y-78469242D01*
X66940972Y-78469242D02*
X67012401Y-78612100D01*
X67012401Y-78612100D02*
X67155258Y-78683528D01*
X67155258Y-78683528D02*
X67298115Y-78683528D01*
X67798115Y-78683528D02*
X67798115Y-77183528D01*
X68440973Y-78683528D02*
X68440973Y-77897814D01*
X68440973Y-77897814D02*
X68369544Y-77754957D01*
X68369544Y-77754957D02*
X68226687Y-77683528D01*
X68226687Y-77683528D02*
X68012401Y-77683528D01*
X68012401Y-77683528D02*
X67869544Y-77754957D01*
X67869544Y-77754957D02*
X67798115Y-77826385D01*
X69155258Y-78683528D02*
X69155258Y-77683528D01*
X69155258Y-77183528D02*
X69083830Y-77254957D01*
X69083830Y-77254957D02*
X69155258Y-77326385D01*
X69155258Y-77326385D02*
X69226687Y-77254957D01*
X69226687Y-77254957D02*
X69155258Y-77183528D01*
X69155258Y-77183528D02*
X69155258Y-77326385D01*
X70440973Y-78612100D02*
X70298116Y-78683528D01*
X70298116Y-78683528D02*
X70012402Y-78683528D01*
X70012402Y-78683528D02*
X69869544Y-78612100D01*
X69869544Y-78612100D02*
X69798116Y-78469242D01*
X69798116Y-78469242D02*
X69798116Y-77897814D01*
X69798116Y-77897814D02*
X69869544Y-77754957D01*
X69869544Y-77754957D02*
X70012402Y-77683528D01*
X70012402Y-77683528D02*
X70298116Y-77683528D01*
X70298116Y-77683528D02*
X70440973Y-77754957D01*
X70440973Y-77754957D02*
X70512402Y-77897814D01*
X70512402Y-77897814D02*
X70512402Y-78040671D01*
X70512402Y-78040671D02*
X69798116Y-78183528D01*
X71798116Y-77683528D02*
X71798116Y-78683528D01*
X71155258Y-77683528D02*
X71155258Y-78469242D01*
X71155258Y-78469242D02*
X71226687Y-78612100D01*
X71226687Y-78612100D02*
X71369544Y-78683528D01*
X71369544Y-78683528D02*
X71583830Y-78683528D01*
X71583830Y-78683528D02*
X71726687Y-78612100D01*
X71726687Y-78612100D02*
X71798116Y-78540671D01*
X73655258Y-78683528D02*
X73655258Y-77183528D01*
X73655258Y-77183528D02*
X74155258Y-78254957D01*
X74155258Y-78254957D02*
X74655258Y-77183528D01*
X74655258Y-77183528D02*
X74655258Y-78683528D01*
X75940973Y-78612100D02*
X75798116Y-78683528D01*
X75798116Y-78683528D02*
X75512402Y-78683528D01*
X75512402Y-78683528D02*
X75369544Y-78612100D01*
X75369544Y-78612100D02*
X75298116Y-78469242D01*
X75298116Y-78469242D02*
X75298116Y-77897814D01*
X75298116Y-77897814D02*
X75369544Y-77754957D01*
X75369544Y-77754957D02*
X75512402Y-77683528D01*
X75512402Y-77683528D02*
X75798116Y-77683528D01*
X75798116Y-77683528D02*
X75940973Y-77754957D01*
X75940973Y-77754957D02*
X76012402Y-77897814D01*
X76012402Y-77897814D02*
X76012402Y-78040671D01*
X76012402Y-78040671D02*
X75298116Y-78183528D01*
X76583830Y-78612100D02*
X76726687Y-78683528D01*
X76726687Y-78683528D02*
X77012401Y-78683528D01*
X77012401Y-78683528D02*
X77155258Y-78612100D01*
X77155258Y-78612100D02*
X77226687Y-78469242D01*
X77226687Y-78469242D02*
X77226687Y-78397814D01*
X77226687Y-78397814D02*
X77155258Y-78254957D01*
X77155258Y-78254957D02*
X77012401Y-78183528D01*
X77012401Y-78183528D02*
X76798116Y-78183528D01*
X76798116Y-78183528D02*
X76655258Y-78112100D01*
X76655258Y-78112100D02*
X76583830Y-77969242D01*
X76583830Y-77969242D02*
X76583830Y-77897814D01*
X76583830Y-77897814D02*
X76655258Y-77754957D01*
X76655258Y-77754957D02*
X76798116Y-77683528D01*
X76798116Y-77683528D02*
X77012401Y-77683528D01*
X77012401Y-77683528D02*
X77155258Y-77754957D01*
X77869544Y-77683528D02*
X77869544Y-78683528D01*
X77869544Y-77826385D02*
X77940973Y-77754957D01*
X77940973Y-77754957D02*
X78083830Y-77683528D01*
X78083830Y-77683528D02*
X78298116Y-77683528D01*
X78298116Y-77683528D02*
X78440973Y-77754957D01*
X78440973Y-77754957D02*
X78512402Y-77897814D01*
X78512402Y-77897814D02*
X78512402Y-78683528D01*
X79869545Y-78683528D02*
X79869545Y-77897814D01*
X79869545Y-77897814D02*
X79798116Y-77754957D01*
X79798116Y-77754957D02*
X79655259Y-77683528D01*
X79655259Y-77683528D02*
X79369545Y-77683528D01*
X79369545Y-77683528D02*
X79226687Y-77754957D01*
X79869545Y-78612100D02*
X79726687Y-78683528D01*
X79726687Y-78683528D02*
X79369545Y-78683528D01*
X79369545Y-78683528D02*
X79226687Y-78612100D01*
X79226687Y-78612100D02*
X79155259Y-78469242D01*
X79155259Y-78469242D02*
X79155259Y-78326385D01*
X79155259Y-78326385D02*
X79226687Y-78183528D01*
X79226687Y-78183528D02*
X79369545Y-78112100D01*
X79369545Y-78112100D02*
X79726687Y-78112100D01*
X79726687Y-78112100D02*
X79869545Y-78040671D01*
X81226688Y-77683528D02*
X81226688Y-78897814D01*
X81226688Y-78897814D02*
X81155259Y-79040671D01*
X81155259Y-79040671D02*
X81083830Y-79112100D01*
X81083830Y-79112100D02*
X80940973Y-79183528D01*
X80940973Y-79183528D02*
X80726688Y-79183528D01*
X80726688Y-79183528D02*
X80583830Y-79112100D01*
X81226688Y-78612100D02*
X81083830Y-78683528D01*
X81083830Y-78683528D02*
X80798116Y-78683528D01*
X80798116Y-78683528D02*
X80655259Y-78612100D01*
X80655259Y-78612100D02*
X80583830Y-78540671D01*
X80583830Y-78540671D02*
X80512402Y-78397814D01*
X80512402Y-78397814D02*
X80512402Y-77969242D01*
X80512402Y-77969242D02*
X80583830Y-77826385D01*
X80583830Y-77826385D02*
X80655259Y-77754957D01*
X80655259Y-77754957D02*
X80798116Y-77683528D01*
X80798116Y-77683528D02*
X81083830Y-77683528D01*
X81083830Y-77683528D02*
X81226688Y-77754957D01*
X82512402Y-78612100D02*
X82369545Y-78683528D01*
X82369545Y-78683528D02*
X82083831Y-78683528D01*
X82083831Y-78683528D02*
X81940973Y-78612100D01*
X81940973Y-78612100D02*
X81869545Y-78469242D01*
X81869545Y-78469242D02*
X81869545Y-77897814D01*
X81869545Y-77897814D02*
X81940973Y-77754957D01*
X81940973Y-77754957D02*
X82083831Y-77683528D01*
X82083831Y-77683528D02*
X82369545Y-77683528D01*
X82369545Y-77683528D02*
X82512402Y-77754957D01*
X82512402Y-77754957D02*
X82583831Y-77897814D01*
X82583831Y-77897814D02*
X82583831Y-78040671D01*
X82583831Y-78040671D02*
X81869545Y-78183528D01*
X83298116Y-78612100D02*
X83298116Y-78683528D01*
X83298116Y-78683528D02*
X83226687Y-78826385D01*
X83226687Y-78826385D02*
X83155259Y-78897814D01*
X85083830Y-78683528D02*
X85083830Y-77183528D01*
X85083830Y-77897814D02*
X85940973Y-77897814D01*
X85940973Y-78683528D02*
X85940973Y-77183528D01*
X87298117Y-77683528D02*
X87298117Y-78683528D01*
X86655259Y-77683528D02*
X86655259Y-78469242D01*
X86655259Y-78469242D02*
X86726688Y-78612100D01*
X86726688Y-78612100D02*
X86869545Y-78683528D01*
X86869545Y-78683528D02*
X87083831Y-78683528D01*
X87083831Y-78683528D02*
X87226688Y-78612100D01*
X87226688Y-78612100D02*
X87298117Y-78540671D01*
X88655260Y-77683528D02*
X88655260Y-78897814D01*
X88655260Y-78897814D02*
X88583831Y-79040671D01*
X88583831Y-79040671D02*
X88512402Y-79112100D01*
X88512402Y-79112100D02*
X88369545Y-79183528D01*
X88369545Y-79183528D02*
X88155260Y-79183528D01*
X88155260Y-79183528D02*
X88012402Y-79112100D01*
X88655260Y-78612100D02*
X88512402Y-78683528D01*
X88512402Y-78683528D02*
X88226688Y-78683528D01*
X88226688Y-78683528D02*
X88083831Y-78612100D01*
X88083831Y-78612100D02*
X88012402Y-78540671D01*
X88012402Y-78540671D02*
X87940974Y-78397814D01*
X87940974Y-78397814D02*
X87940974Y-77969242D01*
X87940974Y-77969242D02*
X88012402Y-77826385D01*
X88012402Y-77826385D02*
X88083831Y-77754957D01*
X88083831Y-77754957D02*
X88226688Y-77683528D01*
X88226688Y-77683528D02*
X88512402Y-77683528D01*
X88512402Y-77683528D02*
X88655260Y-77754957D01*
X89583831Y-78683528D02*
X89440974Y-78612100D01*
X89440974Y-78612100D02*
X89369545Y-78540671D01*
X89369545Y-78540671D02*
X89298117Y-78397814D01*
X89298117Y-78397814D02*
X89298117Y-77969242D01*
X89298117Y-77969242D02*
X89369545Y-77826385D01*
X89369545Y-77826385D02*
X89440974Y-77754957D01*
X89440974Y-77754957D02*
X89583831Y-77683528D01*
X89583831Y-77683528D02*
X89798117Y-77683528D01*
X89798117Y-77683528D02*
X89940974Y-77754957D01*
X89940974Y-77754957D02*
X90012403Y-77826385D01*
X90012403Y-77826385D02*
X90083831Y-77969242D01*
X90083831Y-77969242D02*
X90083831Y-78397814D01*
X90083831Y-78397814D02*
X90012403Y-78540671D01*
X90012403Y-78540671D02*
X89940974Y-78612100D01*
X89940974Y-78612100D02*
X89798117Y-78683528D01*
X89798117Y-78683528D02*
X89583831Y-78683528D01*
X92369545Y-77897814D02*
X92583831Y-77969242D01*
X92583831Y-77969242D02*
X92655260Y-78040671D01*
X92655260Y-78040671D02*
X92726688Y-78183528D01*
X92726688Y-78183528D02*
X92726688Y-78397814D01*
X92726688Y-78397814D02*
X92655260Y-78540671D01*
X92655260Y-78540671D02*
X92583831Y-78612100D01*
X92583831Y-78612100D02*
X92440974Y-78683528D01*
X92440974Y-78683528D02*
X91869545Y-78683528D01*
X91869545Y-78683528D02*
X91869545Y-77183528D01*
X91869545Y-77183528D02*
X92369545Y-77183528D01*
X92369545Y-77183528D02*
X92512403Y-77254957D01*
X92512403Y-77254957D02*
X92583831Y-77326385D01*
X92583831Y-77326385D02*
X92655260Y-77469242D01*
X92655260Y-77469242D02*
X92655260Y-77612100D01*
X92655260Y-77612100D02*
X92583831Y-77754957D01*
X92583831Y-77754957D02*
X92512403Y-77826385D01*
X92512403Y-77826385D02*
X92369545Y-77897814D01*
X92369545Y-77897814D02*
X91869545Y-77897814D01*
X94012403Y-77683528D02*
X94012403Y-78683528D01*
X93369545Y-77683528D02*
X93369545Y-78469242D01*
X93369545Y-78469242D02*
X93440974Y-78612100D01*
X93440974Y-78612100D02*
X93583831Y-78683528D01*
X93583831Y-78683528D02*
X93798117Y-78683528D01*
X93798117Y-78683528D02*
X93940974Y-78612100D01*
X93940974Y-78612100D02*
X94012403Y-78540671D01*
X94583831Y-77683528D02*
X94940974Y-78683528D01*
X95298117Y-77683528D02*
X94940974Y-78683528D01*
X94940974Y-78683528D02*
X94798117Y-79040671D01*
X94798117Y-79040671D02*
X94726688Y-79112100D01*
X94726688Y-79112100D02*
X94583831Y-79183528D01*
D10*
D11*
X50012400Y-101489600D02*
X50012400Y-104489600D01*
D10*
D11*
X114012400Y-101489600D02*
X114012400Y-107989600D01*
D12*
D14*
X59941242Y-29289714D02*
X60155528Y-29361142D01*
X60155528Y-29361142D02*
X60226957Y-29432571D01*
X60226957Y-29432571D02*
X60298385Y-29575428D01*
X60298385Y-29575428D02*
X60298385Y-29789714D01*
X60298385Y-29789714D02*
X60226957Y-29932571D01*
X60226957Y-29932571D02*
X60155528Y-30004000D01*
X60155528Y-30004000D02*
X60012671Y-30075428D01*
X60012671Y-30075428D02*
X59441242Y-30075428D01*
X59441242Y-30075428D02*
X59441242Y-28575428D01*
X59441242Y-28575428D02*
X59941242Y-28575428D01*
X59941242Y-28575428D02*
X60084100Y-28646857D01*
X60084100Y-28646857D02*
X60155528Y-28718285D01*
X60155528Y-28718285D02*
X60226957Y-28861142D01*
X60226957Y-28861142D02*
X60226957Y-29004000D01*
X60226957Y-29004000D02*
X60155528Y-29146857D01*
X60155528Y-29146857D02*
X60084100Y-29218285D01*
X60084100Y-29218285D02*
X59941242Y-29289714D01*
X59941242Y-29289714D02*
X59441242Y-29289714D01*
X61155528Y-30075428D02*
X61012671Y-30004000D01*
X61012671Y-30004000D02*
X60941242Y-29932571D01*
X60941242Y-29932571D02*
X60869814Y-29789714D01*
X60869814Y-29789714D02*
X60869814Y-29361142D01*
X60869814Y-29361142D02*
X60941242Y-29218285D01*
X60941242Y-29218285D02*
X61012671Y-29146857D01*
X61012671Y-29146857D02*
X61155528Y-29075428D01*
X61155528Y-29075428D02*
X61369814Y-29075428D01*
X61369814Y-29075428D02*
X61512671Y-29146857D01*
X61512671Y-29146857D02*
X61584100Y-29218285D01*
X61584100Y-29218285D02*
X61655528Y-29361142D01*
X61655528Y-29361142D02*
X61655528Y-29789714D01*
X61655528Y-29789714D02*
X61584100Y-29932571D01*
X61584100Y-29932571D02*
X61512671Y-30004000D01*
X61512671Y-30004000D02*
X61369814Y-30075428D01*
X61369814Y-30075428D02*
X61155528Y-30075428D01*
X62084100Y-29075428D02*
X62655528Y-29075428D01*
X62298385Y-28575428D02*
X62298385Y-29861142D01*
X62298385Y-29861142D02*
X62369814Y-30004000D01*
X62369814Y-30004000D02*
X62512671Y-30075428D01*
X62512671Y-30075428D02*
X62655528Y-30075428D01*
X65155528Y-29932571D02*
X65084100Y-30004000D01*
X65084100Y-30004000D02*
X64869814Y-30075428D01*
X64869814Y-30075428D02*
X64726957Y-30075428D01*
X64726957Y-30075428D02*
X64512671Y-30004000D01*
X64512671Y-30004000D02*
X64369814Y-29861142D01*
X64369814Y-29861142D02*
X64298385Y-29718285D01*
X64298385Y-29718285D02*
X64226957Y-29432571D01*
X64226957Y-29432571D02*
X64226957Y-29218285D01*
X64226957Y-29218285D02*
X64298385Y-28932571D01*
X64298385Y-28932571D02*
X64369814Y-28789714D01*
X64369814Y-28789714D02*
X64512671Y-28646857D01*
X64512671Y-28646857D02*
X64726957Y-28575428D01*
X64726957Y-28575428D02*
X64869814Y-28575428D01*
X64869814Y-28575428D02*
X65084100Y-28646857D01*
X65084100Y-28646857D02*
X65155528Y-28718285D01*
X66012671Y-30075428D02*
X65869814Y-30004000D01*
X65869814Y-30004000D02*
X65798385Y-29932571D01*
X65798385Y-29932571D02*
X65726957Y-29789714D01*
X65726957Y-29789714D02*
X65726957Y-29361142D01*
X65726957Y-29361142D02*
X65798385Y-29218285D01*
X65798385Y-29218285D02*
X65869814Y-29146857D01*
X65869814Y-29146857D02*
X66012671Y-29075428D01*
X66012671Y-29075428D02*
X66226957Y-29075428D01*
X66226957Y-29075428D02*
X66369814Y-29146857D01*
X66369814Y-29146857D02*
X66441243Y-29218285D01*
X66441243Y-29218285D02*
X66512671Y-29361142D01*
X66512671Y-29361142D02*
X66512671Y-29789714D01*
X66512671Y-29789714D02*
X66441243Y-29932571D01*
X66441243Y-29932571D02*
X66369814Y-30004000D01*
X66369814Y-30004000D02*
X66226957Y-30075428D01*
X66226957Y-30075428D02*
X66012671Y-30075428D01*
X67155528Y-29075428D02*
X67155528Y-30575428D01*
X67155528Y-29146857D02*
X67298386Y-29075428D01*
X67298386Y-29075428D02*
X67584100Y-29075428D01*
X67584100Y-29075428D02*
X67726957Y-29146857D01*
X67726957Y-29146857D02*
X67798386Y-29218285D01*
X67798386Y-29218285D02*
X67869814Y-29361142D01*
X67869814Y-29361142D02*
X67869814Y-29789714D01*
X67869814Y-29789714D02*
X67798386Y-29932571D01*
X67798386Y-29932571D02*
X67726957Y-30004000D01*
X67726957Y-30004000D02*
X67584100Y-30075428D01*
X67584100Y-30075428D02*
X67298386Y-30075428D01*
X67298386Y-30075428D02*
X67155528Y-30004000D01*
X68512671Y-29075428D02*
X68512671Y-30575428D01*
X68512671Y-29146857D02*
X68655529Y-29075428D01*
X68655529Y-29075428D02*
X68941243Y-29075428D01*
X68941243Y-29075428D02*
X69084100Y-29146857D01*
X69084100Y-29146857D02*
X69155529Y-29218285D01*
X69155529Y-29218285D02*
X69226957Y-29361142D01*
X69226957Y-29361142D02*
X69226957Y-29789714D01*
X69226957Y-29789714D02*
X69155529Y-29932571D01*
X69155529Y-29932571D02*
X69084100Y-30004000D01*
X69084100Y-30004000D02*
X68941243Y-30075428D01*
X68941243Y-30075428D02*
X68655529Y-30075428D01*
X68655529Y-30075428D02*
X68512671Y-30004000D01*
X70441243Y-30004000D02*
X70298386Y-30075428D01*
X70298386Y-30075428D02*
X70012672Y-30075428D01*
X70012672Y-30075428D02*
X69869814Y-30004000D01*
X69869814Y-30004000D02*
X69798386Y-29861142D01*
X69798386Y-29861142D02*
X69798386Y-29289714D01*
X69798386Y-29289714D02*
X69869814Y-29146857D01*
X69869814Y-29146857D02*
X70012672Y-29075428D01*
X70012672Y-29075428D02*
X70298386Y-29075428D01*
X70298386Y-29075428D02*
X70441243Y-29146857D01*
X70441243Y-29146857D02*
X70512672Y-29289714D01*
X70512672Y-29289714D02*
X70512672Y-29432571D01*
X70512672Y-29432571D02*
X69798386Y-29575428D01*
X71155528Y-30075428D02*
X71155528Y-29075428D01*
X71155528Y-29361142D02*
X71226957Y-29218285D01*
X71226957Y-29218285D02*
X71298386Y-29146857D01*
X71298386Y-29146857D02*
X71441243Y-29075428D01*
X71441243Y-29075428D02*
X71584100Y-29075428D01*
D15*
%TO.P,J1,S1,SHIELD*%
%TO.N,unconnected-(J1-SHIELD-PadS1)*%
X33793000Y-55010029D03*
%TO.P,J1,S2,SHIELD__1*%
%TO.N,unconnected-(J1-SHIELD__1-PadS2)*%
X42433000Y-55010029D03*
D16*
%TO.P,J1,S3,SHIELD__2*%
%TO.N,unconnected-(J1-SHIELD__2-PadS3)*%
X33793000Y-60370029D03*
%TO.P,J1,S4,SHIELD__3*%
%TO.N,unconnected-(J1-SHIELD__3-PadS4)*%
X42433000Y-60370029D03*
%TD*%
D17*
%TO.P,J2,1,Pin_1*%
%TO.N,VBAT*%
X32513000Y-42750029D03*
%TO.P,J2,2,Pin_2*%
%TO.N,NTC BAT*%
X32513000Y-41500029D03*
%TO.P,J2,3,Pin_3*%
%TO.N,GND*%
X32513000Y-40250029D03*
%TD*%
D18*
%TO.P,J4,1,Pin_1*%
%TO.N,ZOUT*%
X33000000Y-27500000D03*
D19*
%TO.P,J4,2,Pin_2*%
%TO.N,ZIN*%
X33000000Y-30040000D03*
%TO.P,J4,3,Pin_3*%
%TO.N,unconnected-(J4-Pin_3-Pad3)*%
X33000000Y-32580000D03*
%TO.P,J4,4,Pin_4*%
%TO.N,unconnected-(J4-Pin_4-Pad4)*%
X33000000Y-35120000D03*
%TD*%
D20*
%TO.N,GND*%
X43613000Y-28400029D03*
X52363000Y-39350029D03*
X47963000Y-44100029D03*
X38350000Y-49000000D03*
X48500000Y-29400000D03*
X41113000Y-28250029D03*
X35400000Y-52576529D03*
X37200000Y-51423529D03*
X46563000Y-54250029D03*
X50913000Y-32650029D03*
X37189500Y-52576529D03*
X48313000Y-37699529D03*
X43663000Y-32250029D03*
X41963000Y-43700000D03*
X46963000Y-58300029D03*
X33500000Y-36500000D03*
X43650000Y-51750000D03*
X41163000Y-32800029D03*
X31913000Y-44500029D03*
%TO.N,VBAT_SENSE*%
X39462986Y-43450014D03*
X36263000Y-43450029D03*
%TO.N,VDD*%
X44963000Y-44900029D03*
X38963000Y-47250029D03*
%TO.N,VCC*%
X51531486Y-29868514D03*
X47213000Y-48250029D03*
X52050000Y-22500000D03*
X49113000Y-44450029D03*
X44606349Y-27443378D03*
%TO.N,VSYS*%
X46050000Y-40600000D03*
X32163000Y-52250029D03*
X50713000Y-48300029D03*
X44163000Y-54200029D03*
X31763000Y-47500029D03*
%TO.N,IOUT*%
X43663000Y-36600029D03*
X48326500Y-32950029D03*
%TO.N,Net-(J1-CC1)*%
X37663215Y-53730029D03*
X33100000Y-56400000D03*
%TO.N,Net-(J1-CC2)*%
X38500000Y-53730029D03*
X33900000Y-57300000D03*
%TO.N,Net-(D1-A)*%
X38963000Y-48400029D03*
X40850000Y-51750000D03*
%TO.N,Net-(U4-~{CHG})*%
X46050000Y-41850000D03*
X32039500Y-50900029D03*
%TO.N,Net-(U4-~{PGOOD})*%
X46050000Y-39850497D03*
X32000000Y-53400000D03*
%TO.N,NTC BAT*%
X35413000Y-47500029D03*
X35313000Y-41500029D03*
%TO.N,SDA*%
X45313000Y-48100029D03*
X48505352Y-35492381D03*
%TO.N,SCL*%
X46563000Y-44900029D03*
X48463000Y-36350029D03*
%TO.N,RST_ISP*%
X51213000Y-35600029D03*
X50800000Y-23073000D03*
%TO.N,VREF*%
X50513000Y-33300029D03*
X42263000Y-36900029D03*
X48538864Y-34571451D03*
%TO.N,VOUT*%
X41100000Y-29500000D03*
X48323775Y-33852320D03*
%TO.N,SWDIO_PSOC*%
X38857648Y-25042352D03*
X36800000Y-24600000D03*
X44663000Y-32200029D03*
X43200000Y-24400000D03*
%TO.N,RST_PSOC*%
X38600000Y-22800000D03*
X44713000Y-30200029D03*
%TO.N,SWCLK_PSOC*%
X37500000Y-25200000D03*
X44713000Y-31450029D03*
%TD*%
D21*
%TO.N,GND*%
X41713000Y-32250029D02*
X41163000Y-32800029D01*
X43663000Y-32250029D02*
X41713000Y-32250029D01*
X35400000Y-52576529D02*
X37189500Y-52576529D01*
D22*
%TO.N,VBAT_SENSE*%
X39462986Y-43450014D02*
X39462971Y-43450029D01*
X39462971Y-43450029D02*
X36263000Y-43450029D01*
D21*
%TO.N,VDD*%
X41313000Y-44900029D02*
X38963000Y-47250029D01*
X44963000Y-44900029D02*
X41313000Y-44900029D01*
%TO.N,VCC*%
X47337500Y-23007599D02*
X47337500Y-24712227D01*
X52050000Y-22500000D02*
X52046500Y-22496500D01*
X49113000Y-45650029D02*
X47213000Y-47550029D01*
X47213000Y-47550029D02*
X47213000Y-48250029D01*
X49113000Y-44450029D02*
X49113000Y-45650029D01*
X50173000Y-28510028D02*
X50173000Y-26130099D01*
X47848599Y-22496500D02*
X47337500Y-23007599D01*
X52046500Y-22496500D02*
X47848599Y-22496500D01*
X51531486Y-29868514D02*
X50173000Y-28510028D01*
X48392901Y-24350000D02*
X47337500Y-24350000D01*
X50173000Y-26130099D02*
X48392901Y-24350000D01*
X47337500Y-24712227D02*
X44606349Y-27443378D01*
%TO.N,VSYS*%
X31463000Y-51550029D02*
X31463000Y-47800029D01*
X46050000Y-40600000D02*
X47350000Y-40600000D01*
X31463000Y-47800029D02*
X31763000Y-47500029D01*
X32163000Y-52250029D02*
X33066500Y-53153529D01*
X50713000Y-48300029D02*
X49413000Y-48300029D01*
X50713000Y-43963000D02*
X50713000Y-48300029D01*
X33066500Y-53153529D02*
X43116500Y-53153529D01*
X44163000Y-53550029D02*
X44163000Y-54200029D01*
X32163000Y-52250029D02*
X31463000Y-51550029D01*
X43116500Y-53153529D02*
X44163000Y-54200029D01*
X47350000Y-40600000D02*
X50713000Y-43963000D01*
X49413000Y-48300029D02*
X44163000Y-53550029D01*
%TO.N,IOUT*%
X48326500Y-33036529D02*
X48246155Y-33116874D01*
X47146155Y-33116874D02*
X43663000Y-36600029D01*
X48326500Y-32950029D02*
X48326500Y-33036529D01*
X48246155Y-33116874D02*
X47146155Y-33116874D01*
%TO.N,Net-(J1-CC1)*%
X37469971Y-53730029D02*
X37663215Y-53730029D01*
X33100000Y-56400000D02*
X33400000Y-56700000D01*
X34500000Y-56700000D02*
X37469971Y-53730029D01*
X33400000Y-56700000D02*
X34500000Y-56700000D01*
%TO.N,Net-(J1-CC2)*%
X37830029Y-54400000D02*
X38500000Y-53730029D01*
X34471342Y-57300000D02*
X37371342Y-54400000D01*
X37371342Y-54400000D02*
X37830029Y-54400000D01*
X33900000Y-57300000D02*
X34471342Y-57300000D01*
%TO.N,Net-(D1-A)*%
X39900000Y-51750000D02*
X38963000Y-50813000D01*
X38963000Y-50813000D02*
X38963000Y-48400029D01*
X40850000Y-51750000D02*
X39900000Y-51750000D01*
%TO.N,Net-(U4-~{CHG})*%
X47900000Y-41850000D02*
X50100000Y-44050000D01*
X44450000Y-52600000D02*
X38450000Y-52600000D01*
X50100000Y-46950000D02*
X44450000Y-52600000D01*
X46050000Y-41850000D02*
X47900000Y-41850000D01*
X37850029Y-52000029D02*
X33139500Y-52000029D01*
X50100000Y-44050000D02*
X50100000Y-46950000D01*
X33139500Y-52000029D02*
X32039500Y-50900029D01*
X38450000Y-52600000D02*
X37850029Y-52000029D01*
%TO.N,Net-(U4-~{PGOOD})*%
X51450000Y-48600000D02*
X47450000Y-52600000D01*
X46050000Y-39850497D02*
X47400497Y-39850497D01*
X51450000Y-43900000D02*
X51450000Y-48600000D01*
X32000000Y-57550000D02*
X32000000Y-53400000D01*
X43400000Y-58400000D02*
X32850000Y-58400000D01*
X47400497Y-39850497D02*
X51450000Y-43900000D01*
X32850000Y-58400000D02*
X32000000Y-57550000D01*
X47450000Y-52600000D02*
X47450000Y-54350000D01*
X47450000Y-54350000D02*
X43400000Y-58400000D01*
%TO.N,NTC BAT*%
X35413000Y-47500029D02*
X35313000Y-47400029D01*
X35313000Y-47400029D02*
X35313000Y-41500029D01*
%TO.N,SDA*%
X45540000Y-44661027D02*
X45540000Y-47873029D01*
X48505352Y-35492381D02*
X48504646Y-35492381D01*
X44750000Y-43871027D02*
X45540000Y-44661027D01*
X48504646Y-35492381D02*
X44750000Y-39247027D01*
X44750000Y-39247027D02*
X44750000Y-43871027D01*
X45540000Y-47873029D02*
X45313000Y-48100029D01*
D22*
%TO.N,SCL*%
X45127000Y-43464029D02*
X45127000Y-39686029D01*
X46563000Y-44900029D02*
X45127000Y-43464029D01*
X45127000Y-39686029D02*
X48463000Y-36350029D01*
D21*
%TO.N,RST_ISP*%
X52487750Y-34325279D02*
X51213000Y-35600029D01*
X52200000Y-24473000D02*
X52200000Y-29721027D01*
X52200000Y-29721027D02*
X52487750Y-30008777D01*
X52487750Y-30008777D02*
X52487750Y-34325279D01*
X50800000Y-23073000D02*
X52200000Y-24473000D01*
%TO.N,VREF*%
X48538864Y-34571451D02*
X49241578Y-34571451D01*
X45933286Y-37177029D02*
X42540000Y-37177029D01*
X42540000Y-37177029D02*
X42313000Y-36950029D01*
X48538864Y-34571451D02*
X45933286Y-37177029D01*
X49241578Y-34571451D02*
X50513000Y-33300029D01*
%TO.N,VOUT*%
X49113000Y-32400029D02*
X48763000Y-32050029D01*
X48323775Y-33852320D02*
X48610709Y-33852320D01*
X41200029Y-29600029D02*
X41100000Y-29500000D01*
X48242502Y-32050029D02*
X45792502Y-29600029D01*
X48763000Y-32050029D02*
X48242502Y-32050029D01*
X45792502Y-29600029D02*
X41200029Y-29600029D01*
X48610709Y-33852320D02*
X49113000Y-33350029D01*
X49113000Y-33350029D02*
X49113000Y-32400029D01*
%TO.N,SWDIO_PSOC*%
X36800000Y-24600000D02*
X36800000Y-29253031D01*
X40923998Y-33377029D02*
X43486000Y-33377029D01*
X36800000Y-29253031D02*
X40923998Y-33377029D01*
X43486000Y-33377029D02*
X44663000Y-32200029D01*
X39500000Y-24400000D02*
X38857648Y-25042352D01*
X43200000Y-24400000D02*
X39500000Y-24400000D01*
%TO.N,RST_PSOC*%
X38600000Y-22800000D02*
X38100000Y-23300000D01*
X38100000Y-23300000D02*
X38100000Y-27687029D01*
X40613000Y-30200029D02*
X44713000Y-30200029D01*
X38100000Y-27687029D02*
X40613000Y-30200029D01*
%TO.N,SWCLK_PSOC*%
X37500000Y-28287029D02*
X40663000Y-31450029D01*
X40663000Y-31450029D02*
X44713000Y-31450029D01*
X37500000Y-25200000D02*
X37500000Y-28287029D01*
%TD*%
%TA.AperFunction,Conductor*%
%TO.N,GND*%
G36*
X47497569Y-22155770D02*
G01*
X47553848Y-22169302D01*
X47597855Y-22206907D01*
X47619997Y-22260390D01*
X47615449Y-22318097D01*
X47585202Y-22367451D01*
X47187586Y-22765067D01*
X47174524Y-22774466D01*
X47138668Y-22813798D01*
X47134718Y-22817936D01*
X47122183Y-22830471D01*
X47113658Y-22841233D01*
X47097477Y-22858984D01*
X47095562Y-22863928D01*
X47082243Y-22889197D01*
X47079247Y-22893570D01*
X47073750Y-22916940D01*
X47068673Y-22933335D01*
X47060000Y-22955725D01*
X47060000Y-22961022D01*
X47056706Y-22989412D01*
X47055495Y-22994560D01*
X47058811Y-23018334D01*
X47060000Y-23035464D01*
X47060000Y-24293991D01*
X47056166Y-24321468D01*
X47059471Y-24357124D01*
X47060000Y-24368566D01*
X47060000Y-24545920D01*
X47050561Y-24593373D01*
X47023681Y-24633601D01*
X44700724Y-26956559D01*
X44660496Y-26983439D01*
X44613043Y-26992878D01*
X44541576Y-26992878D01*
X44417280Y-27029372D01*
X44308299Y-27099411D01*
X44223467Y-27197313D01*
X44169651Y-27315151D01*
X44151216Y-27443377D01*
X44169651Y-27571604D01*
X44223467Y-27689442D01*
X44292982Y-27769667D01*
X44308300Y-27787345D01*
X44310891Y-27789010D01*
X44417280Y-27857383D01*
X44541576Y-27893878D01*
X44541577Y-27893878D01*
X44671121Y-27893878D01*
X44671122Y-27893878D01*
X44795417Y-27857383D01*
X44858669Y-27816733D01*
X44904398Y-27787345D01*
X44989231Y-27689441D01*
X45043046Y-27571604D01*
X45061482Y-27443378D01*
X45061481Y-27443377D01*
X45064019Y-27425731D01*
X45064600Y-27425814D01*
X45067516Y-27393206D01*
X45097489Y-27344681D01*
X47258391Y-25183779D01*
X47309127Y-25153093D01*
X47368312Y-25149473D01*
X47422412Y-25173749D01*
X47459054Y-25220368D01*
X47469860Y-25278672D01*
X47460191Y-25444671D01*
X47490473Y-25616410D01*
X47559547Y-25776539D01*
X47663683Y-25916420D01*
X47663684Y-25916421D01*
X47663685Y-25916422D01*
X47797275Y-26028517D01*
X47953116Y-26106783D01*
X48122805Y-26147000D01*
X48253452Y-26147000D01*
X48253455Y-26147000D01*
X48383211Y-26131834D01*
X48547084Y-26072189D01*
X48692784Y-25976360D01*
X48812458Y-25849513D01*
X48899653Y-25698487D01*
X48943591Y-25551719D01*
X48976632Y-25497714D01*
X49032031Y-25467057D01*
X49095343Y-25467748D01*
X49150061Y-25499605D01*
X49859181Y-26208724D01*
X49886061Y-26248952D01*
X49895500Y-26296405D01*
X49895500Y-28444533D01*
X49892909Y-28460414D01*
X49895368Y-28513588D01*
X49895500Y-28519314D01*
X49895500Y-28537035D01*
X49897082Y-28550670D01*
X49898192Y-28574665D01*
X49900332Y-28579512D01*
X49908784Y-28606806D01*
X49909756Y-28612008D01*
X49922394Y-28632419D01*
X49930400Y-28647608D01*
X49940097Y-28669570D01*
X49943840Y-28673313D01*
X49961585Y-28695715D01*
X49964373Y-28700218D01*
X49983528Y-28714683D01*
X49996483Y-28725956D01*
X50532844Y-29262317D01*
X51040343Y-29769815D01*
X51070316Y-29818336D01*
X51073234Y-29850950D01*
X51073816Y-29850867D01*
X51094788Y-29996740D01*
X51148604Y-30114578D01*
X51159914Y-30127630D01*
X51233437Y-30212481D01*
X51262126Y-30230918D01*
X51342417Y-30282519D01*
X51466713Y-30319014D01*
X51466714Y-30319014D01*
X51596258Y-30319014D01*
X51596259Y-30319014D01*
X51720554Y-30282519D01*
X51749244Y-30264080D01*
X51829535Y-30212481D01*
X51914368Y-30114577D01*
X51930073Y-30080189D01*
X51966797Y-30033775D01*
X52020850Y-30009670D01*
X52079920Y-30013365D01*
X52130548Y-30044019D01*
X52173931Y-30087402D01*
X52200811Y-30127630D01*
X52210250Y-30175083D01*
X52210250Y-34158973D01*
X52200811Y-34206426D01*
X52173931Y-34246654D01*
X51307375Y-35113210D01*
X51267147Y-35140090D01*
X51219694Y-35149529D01*
X51148227Y-35149529D01*
X51023931Y-35186023D01*
X50914950Y-35256062D01*
X50830118Y-35353964D01*
X50776302Y-35471802D01*
X50757867Y-35600028D01*
X50776302Y-35728255D01*
X50830118Y-35846093D01*
X50854681Y-35874440D01*
X50914951Y-35943996D01*
X50933490Y-35955910D01*
X51023931Y-36014034D01*
X51148227Y-36050529D01*
X51148228Y-36050529D01*
X51277772Y-36050529D01*
X51277773Y-36050529D01*
X51402068Y-36014034D01*
X51460602Y-35976416D01*
X51511049Y-35943996D01*
X51595882Y-35846092D01*
X51649697Y-35728255D01*
X51668133Y-35600029D01*
X51668132Y-35600028D01*
X51670670Y-35582382D01*
X51671251Y-35582465D01*
X51674167Y-35549857D01*
X51704140Y-35501332D01*
X52637658Y-34567814D01*
X52650717Y-34558420D01*
X52657876Y-34550565D01*
X52657878Y-34550565D01*
X52686593Y-34519063D01*
X52690509Y-34514963D01*
X52701326Y-34504147D01*
X52750691Y-34473902D01*
X52808405Y-34469364D01*
X52861889Y-34491521D01*
X52899486Y-34535543D01*
X52913000Y-34591836D01*
X52913000Y-61725529D01*
X52896387Y-61787529D01*
X52851000Y-61832916D01*
X52789000Y-61849529D01*
X52782500Y-61849529D01*
X52720500Y-61832916D01*
X52675113Y-61787529D01*
X52658500Y-61725529D01*
X52658500Y-59895167D01*
X52662725Y-59863074D01*
X52663809Y-59859029D01*
X52642935Y-59781125D01*
X52642934Y-59781124D01*
X52585905Y-59724094D01*
X52585902Y-59724093D01*
X52508001Y-59703220D01*
X52508000Y-59703220D01*
X52503953Y-59704304D01*
X52471862Y-59708529D01*
X46700138Y-59708529D01*
X46668046Y-59704304D01*
X46664000Y-59703220D01*
X46663999Y-59703220D01*
X46644185Y-59708529D01*
X46644186Y-59708529D01*
X46586097Y-59724093D01*
X46586095Y-59724094D01*
X46586096Y-59724094D01*
X46529065Y-59781124D01*
X46529065Y-59781125D01*
X46529064Y-59781125D01*
X46508191Y-59859028D01*
X46508191Y-59859029D01*
X46509275Y-59863075D01*
X46513500Y-59895168D01*
X46513500Y-61725529D01*
X46496887Y-61787529D01*
X46451500Y-61832916D01*
X46389500Y-61849529D01*
X43034941Y-61849529D01*
X42978646Y-61836014D01*
X42934623Y-61798414D01*
X42912468Y-61744927D01*
X42917010Y-61687211D01*
X42947260Y-61637848D01*
X43062814Y-61522293D01*
X43062816Y-61522291D01*
X43158789Y-61369551D01*
X43218368Y-61199284D01*
X43228027Y-61113558D01*
X43233500Y-61064986D01*
X43233500Y-59675072D01*
X43218368Y-59540777D01*
X43218368Y-59540774D01*
X43158789Y-59370507D01*
X43062816Y-59217767D01*
X43062815Y-59217766D01*
X43062814Y-59217764D01*
X42935264Y-59090214D01*
X42872867Y-59051008D01*
X42782522Y-58994240D01*
X42612255Y-58934661D01*
X42612253Y-58934660D01*
X42612251Y-58934660D01*
X42524029Y-58924720D01*
X42466158Y-58902630D01*
X42432999Y-58863363D01*
X42399842Y-58902630D01*
X42341971Y-58924720D01*
X42253748Y-58934660D01*
X42253745Y-58934660D01*
X42253745Y-58934661D01*
X42083478Y-58994240D01*
X42083476Y-58994240D01*
X42083476Y-58994241D01*
X41930735Y-59090214D01*
X41803185Y-59217764D01*
X41707212Y-59370505D01*
X41647631Y-59540777D01*
X41632500Y-59675072D01*
X41632500Y-61064986D01*
X41647631Y-61199280D01*
X41647631Y-61199282D01*
X41647632Y-61199284D01*
X41707211Y-61369551D01*
X41707212Y-61369552D01*
X41803185Y-61522293D01*
X41918740Y-61637848D01*
X41948990Y-61687211D01*
X41953532Y-61744927D01*
X41931377Y-61798414D01*
X41887354Y-61836014D01*
X41831059Y-61849529D01*
X34394941Y-61849529D01*
X34338646Y-61836014D01*
X34294623Y-61798414D01*
X34272468Y-61744927D01*
X34277010Y-61687211D01*
X34307260Y-61637848D01*
X34422814Y-61522293D01*
X34422816Y-61522291D01*
X34518789Y-61369551D01*
X34578368Y-61199284D01*
X34588027Y-61113558D01*
X34593500Y-61064986D01*
X34593500Y-59675072D01*
X34578368Y-59540777D01*
X34578368Y-59540774D01*
X34518789Y-59370507D01*
X34422816Y-59217767D01*
X34422815Y-59217766D01*
X34422814Y-59217764D01*
X34295264Y-59090214D01*
X34232867Y-59051008D01*
X34142522Y-58994240D01*
X33972255Y-58934661D01*
X33972253Y-58934660D01*
X33972251Y-58934660D01*
X33884029Y-58924720D01*
X33826158Y-58902630D01*
X33792999Y-58863363D01*
X33759842Y-58902630D01*
X33701971Y-58924720D01*
X33613748Y-58934660D01*
X33613745Y-58934660D01*
X33613745Y-58934661D01*
X33443478Y-58994240D01*
X33443476Y-58994240D01*
X33443476Y-58994241D01*
X33290735Y-59090214D01*
X33163185Y-59217764D01*
X33067212Y-59370505D01*
X33007631Y-59540777D01*
X32992500Y-59675072D01*
X32992500Y-61064986D01*
X33007631Y-61199280D01*
X33007631Y-61199282D01*
X33007632Y-61199284D01*
X33067211Y-61369551D01*
X33067212Y-61369552D01*
X33163185Y-61522293D01*
X33278740Y-61637848D01*
X33308990Y-61687211D01*
X33313532Y-61744927D01*
X33291377Y-61798414D01*
X33247354Y-61836014D01*
X33191059Y-61849529D01*
X33035072Y-61849529D01*
X33026928Y-61849261D01*
X32796744Y-61834111D01*
X32780598Y-61831977D01*
X32558373Y-61787586D01*
X32542646Y-61783353D01*
X32328171Y-61710225D01*
X32313134Y-61703968D01*
X32110086Y-61603358D01*
X32096003Y-61595187D01*
X31907888Y-61468830D01*
X31895002Y-61458887D01*
X31793744Y-61369552D01*
X31725066Y-61308961D01*
X31713591Y-61297411D01*
X31564773Y-61126509D01*
X31554919Y-61113566D01*
X31429783Y-60924632D01*
X31421701Y-60910493D01*
X31404350Y-60874897D01*
X31322405Y-60706786D01*
X31316253Y-60691726D01*
X31244515Y-60476774D01*
X31240385Y-60461023D01*
X31224010Y-60376188D01*
X31197435Y-60238507D01*
X31195408Y-60222371D01*
X31181737Y-59991844D01*
X31181524Y-59983711D01*
X31181891Y-59927169D01*
X31181469Y-59925294D01*
X31181361Y-59708529D01*
X31177482Y-51956375D01*
X31190975Y-51900067D01*
X31228566Y-51856022D01*
X31282059Y-51833849D01*
X31339788Y-51838383D01*
X31389163Y-51868637D01*
X31671857Y-52151330D01*
X31701830Y-52199851D01*
X31704748Y-52232465D01*
X31705330Y-52232382D01*
X31726302Y-52378255D01*
X31780118Y-52496093D01*
X31858855Y-52586961D01*
X31864951Y-52593996D01*
X31893640Y-52612433D01*
X31973931Y-52664034D01*
X32098227Y-52700529D01*
X32098228Y-52700529D01*
X32169693Y-52700529D01*
X32217146Y-52709968D01*
X32257374Y-52736848D01*
X32294949Y-52774423D01*
X32327194Y-52830581D01*
X32326732Y-52895336D01*
X32293689Y-52951028D01*
X32237077Y-52982468D01*
X32172335Y-52981082D01*
X32101156Y-52960183D01*
X32064772Y-52949500D01*
X31935228Y-52949500D01*
X31935227Y-52949500D01*
X31810931Y-52985994D01*
X31701950Y-53056033D01*
X31617118Y-53153935D01*
X31563302Y-53271773D01*
X31544867Y-53399999D01*
X31563302Y-53528226D01*
X31617118Y-53646064D01*
X31692213Y-53732729D01*
X31714682Y-53770598D01*
X31722500Y-53813931D01*
X31722500Y-57484505D01*
X31719909Y-57500386D01*
X31722368Y-57553560D01*
X31722500Y-57559286D01*
X31722500Y-57577007D01*
X31724082Y-57590642D01*
X31725192Y-57614637D01*
X31727332Y-57619484D01*
X31735784Y-57646778D01*
X31736756Y-57651980D01*
X31749394Y-57672391D01*
X31757400Y-57687580D01*
X31767097Y-57709542D01*
X31770840Y-57713285D01*
X31788585Y-57735687D01*
X31791373Y-57740190D01*
X31810528Y-57754655D01*
X31823483Y-57765928D01*
X32607465Y-58549910D01*
X32616863Y-58562971D01*
X32656197Y-58598828D01*
X32660342Y-58602787D01*
X32672872Y-58615317D01*
X32683639Y-58623844D01*
X32701385Y-58640022D01*
X32704724Y-58641315D01*
X32706320Y-58641934D01*
X32731598Y-58655257D01*
X32735971Y-58658253D01*
X32759341Y-58663749D01*
X32775743Y-58668828D01*
X32798126Y-58677500D01*
X32803420Y-58677500D01*
X32831809Y-58680793D01*
X32836963Y-58682006D01*
X32858608Y-58678986D01*
X32860743Y-58678689D01*
X32877873Y-58677500D01*
X33688087Y-58677500D01*
X33748068Y-58692972D01*
X33793000Y-58735451D01*
X33837932Y-58692972D01*
X33897913Y-58677500D01*
X42328087Y-58677500D01*
X42388068Y-58692972D01*
X42433000Y-58735451D01*
X42477932Y-58692972D01*
X42537913Y-58677500D01*
X43334505Y-58677500D01*
X43350386Y-58680090D01*
X43360995Y-58679599D01*
X43360997Y-58679600D01*
X43400685Y-58677764D01*
X43403560Y-58677632D01*
X43409286Y-58677500D01*
X43427013Y-58677500D01*
X43440652Y-58675916D01*
X43464635Y-58674808D01*
X43469478Y-58672669D01*
X43496785Y-58664214D01*
X43501981Y-58663243D01*
X43501981Y-58663242D01*
X43522386Y-58650608D01*
X43537566Y-58642605D01*
X43559542Y-58632903D01*
X43563287Y-58629157D01*
X43585697Y-58611408D01*
X43590189Y-58608627D01*
X43604660Y-58589463D01*
X43615920Y-58576523D01*
X47599906Y-54592536D01*
X47612968Y-54583139D01*
X47620125Y-54575287D01*
X47620128Y-54575286D01*
X47648854Y-54543773D01*
X47652746Y-54539696D01*
X47664405Y-54528039D01*
X47664409Y-54528032D01*
X47665327Y-54527115D01*
X47673853Y-54516351D01*
X47690022Y-54498615D01*
X47691934Y-54493678D01*
X47705262Y-54468393D01*
X47708252Y-54464029D01*
X47713748Y-54440657D01*
X47718823Y-54424270D01*
X47727500Y-54401874D01*
X47727500Y-54396583D01*
X47730794Y-54368190D01*
X47732006Y-54363038D01*
X47728688Y-54339259D01*
X47727500Y-54322128D01*
X47727500Y-52766307D01*
X47736939Y-52718854D01*
X47763819Y-52678626D01*
X48402825Y-52039620D01*
X51599906Y-48842536D01*
X51612968Y-48833139D01*
X51620125Y-48825287D01*
X51620128Y-48825286D01*
X51648854Y-48793773D01*
X51652746Y-48789696D01*
X51664405Y-48778039D01*
X51664409Y-48778032D01*
X51665325Y-48777117D01*
X51673847Y-48766357D01*
X51690022Y-48748615D01*
X51691932Y-48743681D01*
X51705262Y-48718393D01*
X51708252Y-48714030D01*
X51713747Y-48690659D01*
X51718825Y-48674262D01*
X51727500Y-48651874D01*
X51727500Y-48646577D01*
X51730794Y-48618187D01*
X51731814Y-48613848D01*
X51732005Y-48613038D01*
X51728689Y-48589265D01*
X51727500Y-48572135D01*
X51727500Y-43965495D01*
X51730090Y-43949613D01*
X51729520Y-43937285D01*
X51727632Y-43896440D01*
X51727500Y-43890714D01*
X51727500Y-43872987D01*
X51725916Y-43859342D01*
X51724808Y-43835365D01*
X51722668Y-43830518D01*
X51714213Y-43803211D01*
X51713243Y-43798019D01*
X51700607Y-43777611D01*
X51692599Y-43762419D01*
X51682903Y-43740458D01*
X51679158Y-43736713D01*
X51661411Y-43714307D01*
X51658626Y-43709810D01*
X51639466Y-43695340D01*
X51626513Y-43684068D01*
X47643034Y-39700590D01*
X47633634Y-39687525D01*
X47594286Y-39651655D01*
X47590143Y-39647699D01*
X47577628Y-39635184D01*
X47566855Y-39626649D01*
X47549111Y-39610474D01*
X47544168Y-39608559D01*
X47518895Y-39595237D01*
X47514527Y-39592245D01*
X47491164Y-39586750D01*
X47474763Y-39581671D01*
X47452372Y-39572997D01*
X47452371Y-39572997D01*
X47447074Y-39572997D01*
X47418684Y-39569703D01*
X47413535Y-39568492D01*
X47389762Y-39571808D01*
X47372632Y-39572997D01*
X46462271Y-39572997D01*
X46410759Y-39561791D01*
X46368559Y-39530201D01*
X46348049Y-39506530D01*
X46325485Y-39492029D01*
X46239068Y-39436491D01*
X46114773Y-39399997D01*
X46114772Y-39399997D01*
X46066654Y-39399997D01*
X46010359Y-39386482D01*
X45966336Y-39348882D01*
X45944181Y-39295395D01*
X45948723Y-39237679D01*
X45978973Y-39188316D01*
X48330440Y-36836848D01*
X48370668Y-36809968D01*
X48418121Y-36800529D01*
X48527773Y-36800529D01*
X48652068Y-36764034D01*
X48680758Y-36745595D01*
X48761049Y-36693996D01*
X48845882Y-36596092D01*
X48899697Y-36478255D01*
X48918133Y-36350029D01*
X48899697Y-36221803D01*
X48862379Y-36140090D01*
X48845881Y-36103964D01*
X48775452Y-36022684D01*
X48750188Y-35976416D01*
X48746427Y-35923833D01*
X48764851Y-35874440D01*
X48802127Y-35837166D01*
X48803401Y-35836348D01*
X48888234Y-35738444D01*
X48942049Y-35620607D01*
X48960485Y-35492381D01*
X48942049Y-35364155D01*
X48920117Y-35316132D01*
X48888233Y-35246316D01*
X48803401Y-35148414D01*
X48801199Y-35146999D01*
X48759406Y-35102110D01*
X48744239Y-35042683D01*
X48759407Y-34983256D01*
X48801197Y-34938371D01*
X48836913Y-34915418D01*
X48857423Y-34891746D01*
X48899623Y-34860157D01*
X48951135Y-34848951D01*
X49176083Y-34848951D01*
X49191964Y-34851541D01*
X49202573Y-34851050D01*
X49202575Y-34851051D01*
X49242263Y-34849215D01*
X49245138Y-34849083D01*
X49250864Y-34848951D01*
X49268591Y-34848951D01*
X49282230Y-34847367D01*
X49306213Y-34846259D01*
X49311056Y-34844120D01*
X49338363Y-34835665D01*
X49343559Y-34834694D01*
X49343558Y-34834694D01*
X49363964Y-34822059D01*
X49379144Y-34814056D01*
X49401120Y-34804354D01*
X49404865Y-34800608D01*
X49427275Y-34782859D01*
X49431767Y-34780078D01*
X49446238Y-34760914D01*
X49457498Y-34747974D01*
X50418625Y-33786848D01*
X50458853Y-33759968D01*
X50506306Y-33750529D01*
X50577773Y-33750529D01*
X50702068Y-33714034D01*
X50730758Y-33695595D01*
X50811049Y-33643996D01*
X50895882Y-33546092D01*
X50949697Y-33428255D01*
X50968133Y-33300029D01*
X50949697Y-33171803D01*
X50934505Y-33138538D01*
X50895881Y-33053964D01*
X50811049Y-32956062D01*
X50702068Y-32886023D01*
X50577773Y-32849529D01*
X50577772Y-32849529D01*
X50448228Y-32849529D01*
X50448227Y-32849529D01*
X50323931Y-32886023D01*
X50214950Y-32956062D01*
X50130118Y-33053964D01*
X50076302Y-33171802D01*
X50055330Y-33317676D01*
X50054748Y-33317592D01*
X50051828Y-33350210D01*
X50021856Y-33398727D01*
X49162953Y-34257632D01*
X49122725Y-34284512D01*
X49075272Y-34293951D01*
X48951135Y-34293951D01*
X48899623Y-34282745D01*
X48857423Y-34251155D01*
X48836913Y-34227484D01*
X48836910Y-34227482D01*
X48825237Y-34214010D01*
X48825961Y-34213382D01*
X48795937Y-34179505D01*
X48784144Y-34113350D01*
X48808591Y-34050759D01*
X48815369Y-34041783D01*
X48826629Y-34028843D01*
X49262908Y-33592564D01*
X49275967Y-33583170D01*
X49283126Y-33575315D01*
X49283128Y-33575315D01*
X49311844Y-33543813D01*
X49315736Y-33539736D01*
X49327406Y-33528068D01*
X49327410Y-33528061D01*
X49328325Y-33527147D01*
X49336853Y-33516379D01*
X49353022Y-33498644D01*
X49354933Y-33493708D01*
X49368260Y-33468427D01*
X49369332Y-33466862D01*
X49371253Y-33464058D01*
X49376747Y-33440693D01*
X49381825Y-33424291D01*
X49390500Y-33401903D01*
X49390500Y-33396609D01*
X49393794Y-33368219D01*
X49395006Y-33363066D01*
X49391689Y-33339286D01*
X49390500Y-33322156D01*
X49390500Y-32465524D01*
X49393090Y-32449642D01*
X49390632Y-32396469D01*
X49390500Y-32390743D01*
X49390500Y-32373016D01*
X49388916Y-32359371D01*
X49387808Y-32335395D01*
X49385668Y-32330549D01*
X49377216Y-32303255D01*
X49376243Y-32298048D01*
X49372473Y-32291959D01*
X49363606Y-32277639D01*
X49355596Y-32262442D01*
X49345903Y-32240488D01*
X49342162Y-32236747D01*
X49324413Y-32214340D01*
X49321626Y-32209839D01*
X49302466Y-32195370D01*
X49289512Y-32184097D01*
X49005537Y-31900122D01*
X48996137Y-31887057D01*
X48956789Y-31851187D01*
X48952646Y-31847231D01*
X48940131Y-31834716D01*
X48929358Y-31826181D01*
X48911614Y-31810006D01*
X48906671Y-31808091D01*
X48881398Y-31794769D01*
X48877030Y-31791777D01*
X48853667Y-31786282D01*
X48837266Y-31781203D01*
X48814875Y-31772529D01*
X48814874Y-31772529D01*
X48809577Y-31772529D01*
X48781187Y-31769235D01*
X48776038Y-31768024D01*
X48752265Y-31771340D01*
X48735135Y-31772529D01*
X48408808Y-31772529D01*
X48361355Y-31763090D01*
X48321127Y-31736210D01*
X46035039Y-29450122D01*
X46025639Y-29437057D01*
X45986291Y-29401187D01*
X45982148Y-29397231D01*
X45969633Y-29384716D01*
X45958860Y-29376181D01*
X45941116Y-29360006D01*
X45936173Y-29358091D01*
X45910900Y-29344769D01*
X45906532Y-29341777D01*
X45883169Y-29336282D01*
X45866768Y-29331203D01*
X45844377Y-29322529D01*
X45844376Y-29322529D01*
X45839079Y-29322529D01*
X45810689Y-29319235D01*
X45805540Y-29318024D01*
X45781767Y-29321340D01*
X45764637Y-29322529D01*
X41593896Y-29322529D01*
X41547809Y-29313646D01*
X41508325Y-29288271D01*
X41488467Y-29260384D01*
X41482883Y-29253940D01*
X41482882Y-29253937D01*
X41398049Y-29156033D01*
X41379118Y-29143866D01*
X41289068Y-29085994D01*
X41164773Y-29049500D01*
X41164772Y-29049500D01*
X41035228Y-29049500D01*
X41035227Y-29049500D01*
X40910931Y-29085994D01*
X40801950Y-29156033D01*
X40717118Y-29253935D01*
X40663302Y-29371773D01*
X40644867Y-29500000D01*
X40648847Y-29527687D01*
X40642290Y-29588667D01*
X40607311Y-29639046D01*
X40552466Y-29666498D01*
X40491174Y-29664309D01*
X40438428Y-29633013D01*
X38413819Y-27608404D01*
X38386939Y-27568176D01*
X38377500Y-27520723D01*
X38377500Y-25496380D01*
X38394858Y-25433106D01*
X38442073Y-25387548D01*
X38505926Y-25372459D01*
X38568540Y-25392065D01*
X38668579Y-25456357D01*
X38792875Y-25492852D01*
X38792876Y-25492852D01*
X38922420Y-25492852D01*
X38922421Y-25492852D01*
X39007918Y-25467748D01*
X39046717Y-25456356D01*
X39091441Y-25427613D01*
X39148653Y-25408318D01*
X39208195Y-25418330D01*
X39255951Y-25455276D01*
X39280597Y-25510396D01*
X39290473Y-25566410D01*
X39359547Y-25726539D01*
X39463683Y-25866420D01*
X39463684Y-25866421D01*
X39463685Y-25866422D01*
X39597275Y-25978517D01*
X39753116Y-26056783D01*
X39922805Y-26097000D01*
X40053452Y-26097000D01*
X40053455Y-26097000D01*
X40183211Y-26081834D01*
X40347084Y-26022189D01*
X40492784Y-25926360D01*
X40612458Y-25799513D01*
X40699653Y-25648487D01*
X40749668Y-25481423D01*
X40759808Y-25307329D01*
X40729526Y-25135588D01*
X40660453Y-24975461D01*
X40586069Y-24875545D01*
X40562006Y-24812307D01*
X40574724Y-24745849D01*
X40620437Y-24695961D01*
X40685534Y-24677500D01*
X42787729Y-24677500D01*
X42839241Y-24688706D01*
X42881440Y-24720295D01*
X42901951Y-24743967D01*
X42927738Y-24760539D01*
X43010931Y-24814005D01*
X43135227Y-24850500D01*
X43135228Y-24850500D01*
X43264772Y-24850500D01*
X43264773Y-24850500D01*
X43389068Y-24814005D01*
X43436514Y-24783513D01*
X43498049Y-24743967D01*
X43582882Y-24646063D01*
X43636697Y-24528226D01*
X43655133Y-24400000D01*
X43652066Y-24378671D01*
X44340191Y-24378671D01*
X44370473Y-24550410D01*
X44439547Y-24710539D01*
X44543683Y-24850420D01*
X44543684Y-24850421D01*
X44543685Y-24850422D01*
X44677275Y-24962517D01*
X44833116Y-25040783D01*
X45002805Y-25081000D01*
X45133452Y-25081000D01*
X45133455Y-25081000D01*
X45263211Y-25065834D01*
X45427084Y-25006189D01*
X45572784Y-24910360D01*
X45692458Y-24783513D01*
X45779653Y-24632487D01*
X45829668Y-24465423D01*
X45839808Y-24291329D01*
X45833584Y-24256033D01*
X45816193Y-24157398D01*
X45809526Y-24119588D01*
X45740453Y-23959461D01*
X45636315Y-23819578D01*
X45502725Y-23707483D01*
X45346884Y-23629217D01*
X45177195Y-23589000D01*
X45046545Y-23589000D01*
X44968691Y-23598099D01*
X44916787Y-23604166D01*
X44752916Y-23663810D01*
X44607215Y-23759640D01*
X44487542Y-23886486D01*
X44400347Y-24037512D01*
X44386345Y-24084282D01*
X44351675Y-24200093D01*
X44350332Y-24204578D01*
X44340191Y-24378671D01*
X43652066Y-24378671D01*
X43636697Y-24271774D01*
X43629508Y-24256033D01*
X43582881Y-24153935D01*
X43498049Y-24056033D01*
X43389068Y-23985994D01*
X43264773Y-23949500D01*
X43264772Y-23949500D01*
X43135228Y-23949500D01*
X43135227Y-23949500D01*
X43010931Y-23985994D01*
X42901952Y-24056032D01*
X42901951Y-24056032D01*
X42901951Y-24056033D01*
X42881440Y-24079704D01*
X42839241Y-24111294D01*
X42787729Y-24122500D01*
X40560102Y-24122500D01*
X40499355Y-24106601D01*
X40454186Y-24062982D01*
X40436178Y-24002827D01*
X40449947Y-23941562D01*
X40482902Y-23904962D01*
X40482838Y-23904902D01*
X40485446Y-23902136D01*
X40491964Y-23894899D01*
X40492784Y-23894360D01*
X40612458Y-23767513D01*
X40699653Y-23616487D01*
X40749668Y-23449423D01*
X40759808Y-23275329D01*
X40757094Y-23259939D01*
X40734595Y-23132335D01*
X40729526Y-23103588D01*
X40660453Y-22943461D01*
X40586383Y-22843967D01*
X40556316Y-22803579D01*
X40539767Y-22789693D01*
X40422725Y-22691483D01*
X40266884Y-22613217D01*
X40097195Y-22573000D01*
X39966545Y-22573000D01*
X39888691Y-22582099D01*
X39836787Y-22588166D01*
X39672916Y-22647810D01*
X39527215Y-22743640D01*
X39407542Y-22870486D01*
X39320347Y-23021512D01*
X39306769Y-23066867D01*
X39272422Y-23181598D01*
X39270332Y-23188578D01*
X39260191Y-23362671D01*
X39290473Y-23534410D01*
X39359547Y-23694539D01*
X39463685Y-23834422D01*
X39546021Y-23903510D01*
X39581287Y-23952049D01*
X39589637Y-24011461D01*
X39569117Y-24067840D01*
X39524531Y-24107985D01*
X39485088Y-24117819D01*
X39485569Y-24120392D01*
X39476393Y-24122106D01*
X39459356Y-24124081D01*
X39435365Y-24125190D01*
X39430516Y-24127332D01*
X39403234Y-24135781D01*
X39398020Y-24136756D01*
X39377608Y-24149394D01*
X39362422Y-24157398D01*
X39340459Y-24167096D01*
X39336709Y-24170846D01*
X39314317Y-24188582D01*
X39309812Y-24191371D01*
X39295344Y-24210529D01*
X39284074Y-24223479D01*
X38952020Y-24555535D01*
X38911795Y-24582413D01*
X38864342Y-24591852D01*
X38792875Y-24591852D01*
X38668579Y-24628346D01*
X38568540Y-24692639D01*
X38505926Y-24712245D01*
X38442073Y-24697156D01*
X38394858Y-24651598D01*
X38377500Y-24588324D01*
X38377500Y-23466307D01*
X38386939Y-23418854D01*
X38413819Y-23378626D01*
X38505626Y-23286819D01*
X38545854Y-23259939D01*
X38593307Y-23250500D01*
X38664773Y-23250500D01*
X38789068Y-23214005D01*
X38832689Y-23185971D01*
X38898049Y-23143967D01*
X38982882Y-23046063D01*
X39036697Y-22928226D01*
X39055133Y-22800000D01*
X39036697Y-22671774D01*
X39025753Y-22647811D01*
X38982881Y-22553935D01*
X38898049Y-22456033D01*
X38781195Y-22380935D01*
X38738561Y-22334478D01*
X38724286Y-22273061D01*
X38742062Y-22212563D01*
X38787292Y-22168630D01*
X38848278Y-22152620D01*
X47497569Y-22155770D01*
G37*
%TD.AperFunction*%
%TA.AperFunction,Conductor*%
G36*
X50352241Y-48588735D02*
G01*
X50394440Y-48620324D01*
X50414951Y-48643996D01*
X50523931Y-48714033D01*
X50647761Y-48750391D01*
X50702056Y-48783265D01*
X50732973Y-48838701D01*
X50732407Y-48902173D01*
X50700506Y-48957049D01*
X47300086Y-52357468D01*
X47287024Y-52366867D01*
X47251168Y-52406199D01*
X47247218Y-52410337D01*
X47234683Y-52422872D01*
X47226158Y-52433634D01*
X47209977Y-52451385D01*
X47208062Y-52456329D01*
X47194743Y-52481598D01*
X47191747Y-52485971D01*
X47186250Y-52509341D01*
X47181173Y-52525736D01*
X47172500Y-52548126D01*
X47172500Y-52553423D01*
X47169206Y-52581813D01*
X47167995Y-52586961D01*
X47171311Y-52610735D01*
X47172500Y-52627865D01*
X47172500Y-54183693D01*
X47163061Y-54231146D01*
X47136181Y-54271374D01*
X43321375Y-58086181D01*
X43281147Y-58113061D01*
X43233694Y-58122500D01*
X33016306Y-58122500D01*
X32968853Y-58113061D01*
X32928625Y-58086181D01*
X32313819Y-57471375D01*
X32286939Y-57431147D01*
X32277500Y-57383694D01*
X32277500Y-53813931D01*
X32285318Y-53770598D01*
X32307787Y-53732729D01*
X32382881Y-53646064D01*
X32382880Y-53646064D01*
X32382882Y-53646063D01*
X32436697Y-53528226D01*
X32455133Y-53400000D01*
X32436697Y-53271774D01*
X32423302Y-53242443D01*
X32413119Y-53175039D01*
X32440102Y-53112438D01*
X32496097Y-53073559D01*
X32564181Y-53070153D01*
X32623777Y-53103250D01*
X32823965Y-53303438D01*
X32833364Y-53316501D01*
X32872709Y-53352368D01*
X32876852Y-53356325D01*
X32889375Y-53368848D01*
X32900142Y-53377376D01*
X32917885Y-53393551D01*
X32922339Y-53395276D01*
X32922823Y-53395464D01*
X32948103Y-53408789D01*
X32952471Y-53411781D01*
X32975852Y-53417280D01*
X32992222Y-53422349D01*
X33014626Y-53431029D01*
X33019917Y-53431029D01*
X33048308Y-53434322D01*
X33053462Y-53435535D01*
X33077240Y-53432217D01*
X33094372Y-53431029D01*
X37077164Y-53431029D01*
X37133459Y-53444544D01*
X37177482Y-53482144D01*
X37199637Y-53535631D01*
X37195095Y-53593347D01*
X37164845Y-53642710D01*
X34421375Y-56386181D01*
X34381147Y-56413061D01*
X34333694Y-56422500D01*
X34160136Y-56422500D01*
X34097273Y-56405384D01*
X34051764Y-56358762D01*
X34036172Y-56295504D01*
X34054801Y-56233073D01*
X34102509Y-56188704D01*
X34193852Y-56140763D01*
X34321183Y-56027958D01*
X34417818Y-55887959D01*
X34478140Y-55728901D01*
X34493500Y-55602401D01*
X34493500Y-54417657D01*
X34478140Y-54291157D01*
X34417818Y-54132099D01*
X34321183Y-53992100D01*
X34193852Y-53879295D01*
X34124424Y-53842856D01*
X34043224Y-53800238D01*
X33918764Y-53769562D01*
X33878056Y-53759529D01*
X33707944Y-53759529D01*
X33675284Y-53767578D01*
X33542775Y-53800238D01*
X33392149Y-53879294D01*
X33264815Y-53992101D01*
X33168182Y-54132098D01*
X33115362Y-54271374D01*
X33107860Y-54291157D01*
X33094417Y-54401874D01*
X33092500Y-54417658D01*
X33092500Y-55602400D01*
X33107860Y-55728903D01*
X33128372Y-55782989D01*
X33134274Y-55849981D01*
X33104336Y-55910202D01*
X33047364Y-55945936D01*
X32910931Y-55985994D01*
X32801950Y-56056033D01*
X32717118Y-56153935D01*
X32663302Y-56271773D01*
X32644867Y-56400000D01*
X32663302Y-56528226D01*
X32717118Y-56646064D01*
X32801950Y-56743966D01*
X32801951Y-56743967D01*
X32830640Y-56762404D01*
X32910931Y-56814005D01*
X33035227Y-56850500D01*
X33035228Y-56850500D01*
X33105145Y-56850500D01*
X33149939Y-56858873D01*
X33188683Y-56882863D01*
X33206209Y-56898840D01*
X33210352Y-56902796D01*
X33222875Y-56915319D01*
X33233647Y-56923852D01*
X33251382Y-56940020D01*
X33251383Y-56940020D01*
X33251385Y-56940022D01*
X33256319Y-56941933D01*
X33281606Y-56955262D01*
X33285970Y-56958252D01*
X33309332Y-56963746D01*
X33325729Y-56968823D01*
X33348126Y-56977500D01*
X33353423Y-56977500D01*
X33381794Y-56980789D01*
X33386907Y-56981992D01*
X33435816Y-57005734D01*
X33469870Y-57048121D01*
X33482516Y-57101002D01*
X33471323Y-57154209D01*
X33463303Y-57171770D01*
X33444867Y-57300000D01*
X33463302Y-57428226D01*
X33517118Y-57546064D01*
X33601950Y-57643966D01*
X33601951Y-57643967D01*
X33606325Y-57646778D01*
X33710931Y-57714005D01*
X33835227Y-57750500D01*
X33835228Y-57750500D01*
X33964772Y-57750500D01*
X33964773Y-57750500D01*
X34089068Y-57714005D01*
X34112775Y-57698769D01*
X34198049Y-57643967D01*
X34218559Y-57620295D01*
X34260759Y-57588706D01*
X34312271Y-57577500D01*
X34405847Y-57577500D01*
X34421728Y-57580090D01*
X34432337Y-57579599D01*
X34432339Y-57579600D01*
X34472027Y-57577764D01*
X34474902Y-57577632D01*
X34480628Y-57577500D01*
X34498355Y-57577500D01*
X34511994Y-57575916D01*
X34535977Y-57574808D01*
X34540820Y-57572669D01*
X34568127Y-57564214D01*
X34573323Y-57563243D01*
X34573322Y-57563243D01*
X34593728Y-57550608D01*
X34608908Y-57542605D01*
X34630884Y-57532903D01*
X34634629Y-57529157D01*
X34657039Y-57511408D01*
X34657703Y-57510997D01*
X34661531Y-57508627D01*
X34676002Y-57489463D01*
X34687262Y-57476523D01*
X36561385Y-55602400D01*
X41732500Y-55602400D01*
X41747860Y-55728901D01*
X41808182Y-55887959D01*
X41904815Y-56027956D01*
X41904816Y-56027957D01*
X41904817Y-56027958D01*
X42032148Y-56140763D01*
X42182775Y-56219819D01*
X42347944Y-56260529D01*
X42518055Y-56260529D01*
X42518056Y-56260529D01*
X42683225Y-56219819D01*
X42833852Y-56140763D01*
X42961183Y-56027958D01*
X43057818Y-55887959D01*
X43118140Y-55728901D01*
X43133500Y-55602401D01*
X43133500Y-54417657D01*
X43118140Y-54291157D01*
X43057818Y-54132099D01*
X42961183Y-53992100D01*
X42833852Y-53879295D01*
X42764424Y-53842856D01*
X42683224Y-53800238D01*
X42558764Y-53769562D01*
X42518056Y-53759529D01*
X42347944Y-53759529D01*
X42315284Y-53767578D01*
X42182775Y-53800238D01*
X42032149Y-53879294D01*
X41904815Y-53992101D01*
X41808182Y-54132098D01*
X41755362Y-54271374D01*
X41747860Y-54291157D01*
X41734417Y-54401874D01*
X41732500Y-54417658D01*
X41732500Y-55602400D01*
X36561385Y-55602400D01*
X37449967Y-54713818D01*
X37490195Y-54686939D01*
X37537648Y-54677500D01*
X37764534Y-54677500D01*
X37780415Y-54680090D01*
X37791024Y-54679599D01*
X37791026Y-54679600D01*
X37830714Y-54677764D01*
X37833589Y-54677632D01*
X37839315Y-54677500D01*
X37857042Y-54677500D01*
X37870681Y-54675916D01*
X37894664Y-54674808D01*
X37899507Y-54672669D01*
X37926814Y-54664214D01*
X37932010Y-54663243D01*
X37932009Y-54663243D01*
X37952415Y-54650608D01*
X37967595Y-54642605D01*
X37989571Y-54632903D01*
X37993316Y-54629157D01*
X38015726Y-54611408D01*
X38020218Y-54608627D01*
X38034689Y-54589463D01*
X38045949Y-54576523D01*
X38405624Y-54216848D01*
X38445853Y-54189968D01*
X38493306Y-54180529D01*
X38564773Y-54180529D01*
X38689068Y-54144034D01*
X38755516Y-54101330D01*
X38798049Y-54073996D01*
X38882882Y-53976092D01*
X38936697Y-53858255D01*
X38955133Y-53730029D01*
X38936697Y-53601803D01*
X38934160Y-53584156D01*
X38934805Y-53584063D01*
X38927971Y-53546185D01*
X38947339Y-53487991D01*
X38992228Y-53446197D01*
X39051655Y-53431029D01*
X42950193Y-53431029D01*
X42997646Y-53440468D01*
X43037874Y-53467348D01*
X43356624Y-53786098D01*
X43671857Y-54101330D01*
X43701830Y-54149851D01*
X43704748Y-54182465D01*
X43705330Y-54182382D01*
X43726302Y-54328255D01*
X43780118Y-54446093D01*
X43864784Y-54543803D01*
X43864951Y-54543996D01*
X43893640Y-54562433D01*
X43973931Y-54614034D01*
X44098227Y-54650529D01*
X44098228Y-54650529D01*
X44227772Y-54650529D01*
X44227773Y-54650529D01*
X44352068Y-54614034D01*
X44385514Y-54592539D01*
X44461049Y-54543996D01*
X44545882Y-54446092D01*
X44599697Y-54328255D01*
X44618133Y-54200029D01*
X44599697Y-54071803D01*
X44563297Y-53992100D01*
X44545881Y-53953964D01*
X44470787Y-53867300D01*
X44448318Y-53829431D01*
X44440500Y-53786098D01*
X44440500Y-53716336D01*
X44449939Y-53668883D01*
X44476819Y-53628655D01*
X49491625Y-48613848D01*
X49531853Y-48586968D01*
X49579306Y-48577529D01*
X50300729Y-48577529D01*
X50352241Y-48588735D01*
G37*
%TD.AperFunction*%
%TA.AperFunction,Conductor*%
G36*
X32765197Y-52039620D02*
G01*
X32817943Y-52070916D01*
X32896965Y-52149938D01*
X32906364Y-52163001D01*
X32945709Y-52198868D01*
X32949852Y-52202825D01*
X32962375Y-52215348D01*
X32973142Y-52223876D01*
X32990885Y-52240051D01*
X32995339Y-52241776D01*
X32995823Y-52241964D01*
X33021103Y-52255289D01*
X33025471Y-52258281D01*
X33048852Y-52263780D01*
X33065222Y-52268849D01*
X33087626Y-52277529D01*
X33092918Y-52277529D01*
X33121308Y-52280823D01*
X33126461Y-52282035D01*
X33126461Y-52282034D01*
X33126462Y-52282035D01*
X33139633Y-52280197D01*
X33150242Y-52278718D01*
X33167372Y-52277529D01*
X37683722Y-52277529D01*
X37731175Y-52286968D01*
X37771403Y-52313848D01*
X37975267Y-52517712D01*
X38121904Y-52664348D01*
X38152154Y-52713711D01*
X38156696Y-52771427D01*
X38134541Y-52824914D01*
X38090518Y-52862514D01*
X38034223Y-52876029D01*
X33232807Y-52876029D01*
X33185354Y-52866590D01*
X33145126Y-52839710D01*
X32916151Y-52610735D01*
X32654141Y-52348726D01*
X32624167Y-52300199D01*
X32621251Y-52267593D01*
X32620670Y-52267677D01*
X32618133Y-52250029D01*
X32607524Y-52176242D01*
X32614080Y-52115263D01*
X32649059Y-52064884D01*
X32703904Y-52037431D01*
X32765197Y-52039620D01*
G37*
%TD.AperFunction*%
%TA.AperFunction,Conductor*%
G36*
X38352092Y-22152439D02*
G01*
X38413051Y-22168484D01*
X38458246Y-22212428D01*
X38475995Y-22272915D01*
X38461711Y-22334313D01*
X38419086Y-22380754D01*
X38347723Y-22426616D01*
X38301951Y-22456033D01*
X38301949Y-22456034D01*
X38301949Y-22456035D01*
X38217118Y-22553935D01*
X38163302Y-22671773D01*
X38142330Y-22817647D01*
X38141748Y-22817563D01*
X38138828Y-22850181D01*
X38108856Y-22898698D01*
X37950086Y-23057468D01*
X37937024Y-23066867D01*
X37901168Y-23106199D01*
X37897218Y-23110337D01*
X37884683Y-23122872D01*
X37876158Y-23133634D01*
X37859977Y-23151385D01*
X37858062Y-23156329D01*
X37844743Y-23181598D01*
X37841747Y-23185971D01*
X37836250Y-23209341D01*
X37831173Y-23225736D01*
X37822500Y-23248126D01*
X37822500Y-23253423D01*
X37819206Y-23281813D01*
X37817995Y-23286961D01*
X37821311Y-23310735D01*
X37822500Y-23327865D01*
X37822500Y-24659530D01*
X37809384Y-24715034D01*
X37772811Y-24758797D01*
X37720518Y-24781560D01*
X37663566Y-24778507D01*
X37564773Y-24749500D01*
X37564772Y-24749500D01*
X37435228Y-24749500D01*
X37415047Y-24755425D01*
X37409882Y-24756942D01*
X37348589Y-24759130D01*
X37293745Y-24731676D01*
X37258767Y-24681296D01*
X37252211Y-24620319D01*
X37255133Y-24600000D01*
X37236697Y-24471774D01*
X37222616Y-24440942D01*
X37182881Y-24353935D01*
X37098049Y-24256033D01*
X36989068Y-24185994D01*
X36864773Y-24149500D01*
X36864772Y-24149500D01*
X36735228Y-24149500D01*
X36735227Y-24149500D01*
X36610931Y-24185994D01*
X36501950Y-24256033D01*
X36417118Y-24353935D01*
X36363302Y-24471773D01*
X36344867Y-24600000D01*
X36363302Y-24728226D01*
X36417118Y-24846064D01*
X36492213Y-24932729D01*
X36514682Y-24970598D01*
X36522500Y-25013931D01*
X36522500Y-29187536D01*
X36519909Y-29203417D01*
X36522368Y-29256591D01*
X36522500Y-29262317D01*
X36522500Y-29280038D01*
X36524082Y-29293673D01*
X36525192Y-29317668D01*
X36527332Y-29322515D01*
X36535784Y-29349809D01*
X36536756Y-29355011D01*
X36549394Y-29375422D01*
X36557397Y-29390606D01*
X36565332Y-29408575D01*
X36567097Y-29412573D01*
X36570840Y-29416316D01*
X36588585Y-29438718D01*
X36591373Y-29443221D01*
X36610528Y-29457686D01*
X36623483Y-29468959D01*
X40681462Y-33526938D01*
X40690861Y-33540000D01*
X40730207Y-33575868D01*
X40734350Y-33579825D01*
X40746873Y-33592348D01*
X40757640Y-33600876D01*
X40775383Y-33617051D01*
X40779837Y-33618776D01*
X40780321Y-33618964D01*
X40805601Y-33632289D01*
X40809969Y-33635281D01*
X40833350Y-33640780D01*
X40849720Y-33645849D01*
X40872124Y-33654529D01*
X40877416Y-33654529D01*
X40905806Y-33657823D01*
X40910959Y-33659035D01*
X40910959Y-33659034D01*
X40910960Y-33659035D01*
X40924696Y-33657119D01*
X40934740Y-33655718D01*
X40951870Y-33654529D01*
X43420505Y-33654529D01*
X43436386Y-33657119D01*
X43446995Y-33656628D01*
X43446997Y-33656629D01*
X43486685Y-33654793D01*
X43489560Y-33654661D01*
X43495286Y-33654529D01*
X43513013Y-33654529D01*
X43526652Y-33652945D01*
X43550635Y-33651837D01*
X43555478Y-33649698D01*
X43582785Y-33641243D01*
X43587981Y-33640272D01*
X43596041Y-33635281D01*
X43608386Y-33627637D01*
X43623566Y-33619634D01*
X43645542Y-33609932D01*
X43649287Y-33606186D01*
X43671697Y-33588437D01*
X43676189Y-33585656D01*
X43690660Y-33566492D01*
X43701920Y-33553552D01*
X44568624Y-32686848D01*
X44608853Y-32659968D01*
X44656306Y-32650529D01*
X44727773Y-32650529D01*
X44852068Y-32614034D01*
X44880758Y-32595595D01*
X44961049Y-32543996D01*
X45045882Y-32446092D01*
X45099697Y-32328255D01*
X45118133Y-32200029D01*
X45099697Y-32071803D01*
X45045882Y-31953966D01*
X45029521Y-31935084D01*
X45002729Y-31883116D01*
X45002728Y-31824647D01*
X45029520Y-31772679D01*
X45061120Y-31736210D01*
X45095882Y-31696092D01*
X45149697Y-31578255D01*
X45168133Y-31450029D01*
X45149697Y-31321803D01*
X45095882Y-31203966D01*
X45095881Y-31203965D01*
X45095881Y-31203964D01*
X45011049Y-31106062D01*
X44902068Y-31036023D01*
X44777773Y-30999529D01*
X44777772Y-30999529D01*
X44648228Y-30999529D01*
X44648227Y-30999529D01*
X44523931Y-31036023D01*
X44414952Y-31106061D01*
X44414951Y-31106061D01*
X44414951Y-31106062D01*
X44394440Y-31129733D01*
X44352241Y-31161323D01*
X44300729Y-31172529D01*
X40829306Y-31172529D01*
X40781853Y-31163090D01*
X40741625Y-31136210D01*
X37813819Y-28208404D01*
X37786939Y-28168176D01*
X37777500Y-28120723D01*
X37777500Y-28056336D01*
X37791015Y-28000041D01*
X37828615Y-27956018D01*
X37882102Y-27933863D01*
X37939818Y-27938405D01*
X37989181Y-27968655D01*
X40370465Y-30349939D01*
X40379863Y-30363000D01*
X40419197Y-30398857D01*
X40423342Y-30402816D01*
X40435872Y-30415346D01*
X40446639Y-30423873D01*
X40464385Y-30440051D01*
X40467724Y-30441344D01*
X40469320Y-30441963D01*
X40494598Y-30455286D01*
X40498971Y-30458282D01*
X40522341Y-30463778D01*
X40538743Y-30468857D01*
X40561126Y-30477529D01*
X40566420Y-30477529D01*
X40594809Y-30480822D01*
X40599963Y-30482035D01*
X40621608Y-30479015D01*
X40623743Y-30478718D01*
X40640873Y-30477529D01*
X44300729Y-30477529D01*
X44352241Y-30488735D01*
X44394440Y-30520324D01*
X44414951Y-30543996D01*
X44457587Y-30571397D01*
X44523931Y-30614034D01*
X44648227Y-30650529D01*
X44648228Y-30650529D01*
X44777772Y-30650529D01*
X44777773Y-30650529D01*
X44902068Y-30614034D01*
X44930758Y-30595595D01*
X45011049Y-30543996D01*
X45095882Y-30446092D01*
X45149697Y-30328255D01*
X45168133Y-30200029D01*
X45149697Y-30071803D01*
X45141129Y-30053041D01*
X45130239Y-29992683D01*
X45149607Y-29934490D01*
X45194496Y-29892697D01*
X45253923Y-29877529D01*
X45626195Y-29877529D01*
X45673648Y-29886968D01*
X45713876Y-29913848D01*
X47999967Y-32199938D01*
X48009366Y-32213001D01*
X48048711Y-32248868D01*
X48052854Y-32252825D01*
X48065377Y-32265348D01*
X48076149Y-32273881D01*
X48093884Y-32290049D01*
X48093885Y-32290049D01*
X48093887Y-32290051D01*
X48098821Y-32291962D01*
X48124108Y-32305291D01*
X48128472Y-32308281D01*
X48147600Y-32321385D01*
X48146858Y-32322467D01*
X48161210Y-32329664D01*
X48195456Y-32375844D01*
X48205193Y-32432506D01*
X48188328Y-32487470D01*
X48148486Y-32528919D01*
X48028449Y-32606063D01*
X47943618Y-32703964D01*
X47914883Y-32766886D01*
X47869128Y-32819690D01*
X47802089Y-32839374D01*
X47211650Y-32839374D01*
X47195768Y-32836783D01*
X47142595Y-32839242D01*
X47136869Y-32839374D01*
X47119151Y-32839374D01*
X47105511Y-32840956D01*
X47081516Y-32842066D01*
X47076670Y-32844206D01*
X47049377Y-32852658D01*
X47044172Y-32853631D01*
X47023756Y-32866271D01*
X47008574Y-32874273D01*
X46986613Y-32883970D01*
X46982863Y-32887720D01*
X46960473Y-32905455D01*
X46955967Y-32908245D01*
X46941499Y-32927403D01*
X46930229Y-32940353D01*
X43757375Y-36113210D01*
X43717147Y-36140090D01*
X43669694Y-36149529D01*
X43598227Y-36149529D01*
X43473931Y-36186023D01*
X43364950Y-36256062D01*
X43280118Y-36353964D01*
X43226302Y-36471802D01*
X43207867Y-36600028D01*
X43228840Y-36745902D01*
X43228329Y-36745975D01*
X43235257Y-36784376D01*
X43215888Y-36842569D01*
X43171000Y-36884361D01*
X43111573Y-36899529D01*
X42825508Y-36899529D01*
X42768688Y-36885744D01*
X42724500Y-36847456D01*
X42702770Y-36793175D01*
X42699697Y-36771802D01*
X42645881Y-36653964D01*
X42561049Y-36556062D01*
X42452068Y-36486023D01*
X42327773Y-36449529D01*
X42327772Y-36449529D01*
X42198228Y-36449529D01*
X42198227Y-36449529D01*
X42073931Y-36486023D01*
X41964950Y-36556062D01*
X41880118Y-36653964D01*
X41826302Y-36771802D01*
X41807867Y-36900029D01*
X41826302Y-37028255D01*
X41880118Y-37146093D01*
X41964950Y-37243995D01*
X41964951Y-37243996D01*
X41993640Y-37262433D01*
X42073931Y-37314034D01*
X42198227Y-37350529D01*
X42198228Y-37350529D01*
X42269694Y-37350529D01*
X42317147Y-37359968D01*
X42357375Y-37386848D01*
X42362875Y-37392348D01*
X42373647Y-37400881D01*
X42391382Y-37417049D01*
X42391383Y-37417049D01*
X42391385Y-37417051D01*
X42396319Y-37418962D01*
X42421606Y-37432291D01*
X42425970Y-37435281D01*
X42447193Y-37440272D01*
X42449332Y-37440775D01*
X42465729Y-37445852D01*
X42488126Y-37454529D01*
X42493423Y-37454529D01*
X42521813Y-37457823D01*
X42526962Y-37459034D01*
X42548494Y-37456030D01*
X42550735Y-37455718D01*
X42567865Y-37454529D01*
X45850691Y-37454529D01*
X45906986Y-37468044D01*
X45951009Y-37505644D01*
X45973164Y-37559131D01*
X45968622Y-37616847D01*
X45938372Y-37666210D01*
X44600086Y-39004495D01*
X44587024Y-39013894D01*
X44551168Y-39053226D01*
X44547218Y-39057364D01*
X44534683Y-39069899D01*
X44526158Y-39080661D01*
X44509977Y-39098412D01*
X44508062Y-39103356D01*
X44494743Y-39128625D01*
X44491747Y-39132998D01*
X44486250Y-39156368D01*
X44481173Y-39172763D01*
X44472500Y-39195153D01*
X44472500Y-39200450D01*
X44469206Y-39228840D01*
X44467995Y-39233988D01*
X44471311Y-39257762D01*
X44472500Y-39274892D01*
X44472500Y-43805532D01*
X44469909Y-43821413D01*
X44472368Y-43874587D01*
X44472500Y-43880313D01*
X44472500Y-43898034D01*
X44474082Y-43911669D01*
X44475192Y-43935664D01*
X44477332Y-43940511D01*
X44485784Y-43967805D01*
X44486756Y-43973007D01*
X44499394Y-43993418D01*
X44507397Y-44008602D01*
X44514322Y-44024285D01*
X44517097Y-44030569D01*
X44520840Y-44034312D01*
X44538585Y-44056714D01*
X44541373Y-44061217D01*
X44560528Y-44075682D01*
X44573483Y-44086955D01*
X44786039Y-44299511D01*
X44815295Y-44345939D01*
X44821648Y-44400446D01*
X44803854Y-44452358D01*
X44765399Y-44491507D01*
X44703450Y-44531320D01*
X44664951Y-44556062D01*
X44644440Y-44579733D01*
X44602241Y-44611323D01*
X44550729Y-44622529D01*
X41378495Y-44622529D01*
X41362613Y-44619938D01*
X41309440Y-44622397D01*
X41303714Y-44622529D01*
X41285994Y-44622529D01*
X41272356Y-44624110D01*
X41248365Y-44625219D01*
X41243516Y-44627361D01*
X41216234Y-44635810D01*
X41211020Y-44636785D01*
X41190608Y-44649423D01*
X41175422Y-44657427D01*
X41153459Y-44667125D01*
X41149709Y-44670875D01*
X41127317Y-44688611D01*
X41122812Y-44691400D01*
X41108344Y-44710558D01*
X41097074Y-44723508D01*
X39057375Y-46763210D01*
X39017147Y-46790090D01*
X38969694Y-46799529D01*
X38898227Y-46799529D01*
X38773931Y-46836023D01*
X38664950Y-46906062D01*
X38580118Y-47003964D01*
X38526302Y-47121802D01*
X38507867Y-47250028D01*
X38526302Y-47378255D01*
X38580118Y-47496093D01*
X38664950Y-47593995D01*
X38664951Y-47593996D01*
X38693640Y-47612433D01*
X38773931Y-47664034D01*
X38898227Y-47700529D01*
X38898228Y-47700529D01*
X39027772Y-47700529D01*
X39027773Y-47700529D01*
X39152068Y-47664034D01*
X39207118Y-47628655D01*
X39261049Y-47593996D01*
X39345882Y-47496092D01*
X39399697Y-47378255D01*
X39418133Y-47250029D01*
X39418132Y-47250028D01*
X39420670Y-47232382D01*
X39421251Y-47232465D01*
X39424167Y-47199857D01*
X39454140Y-47151332D01*
X41391624Y-45213848D01*
X41431853Y-45186968D01*
X41479306Y-45177529D01*
X44550729Y-45177529D01*
X44602241Y-45188735D01*
X44644440Y-45220324D01*
X44664951Y-45243996D01*
X44707587Y-45271397D01*
X44773931Y-45314034D01*
X44898227Y-45350529D01*
X44898228Y-45350529D01*
X45027772Y-45350529D01*
X45027773Y-45350529D01*
X45103566Y-45328275D01*
X45160517Y-45325222D01*
X45212811Y-45347985D01*
X45249384Y-45391748D01*
X45262500Y-45447252D01*
X45262500Y-47552512D01*
X45251294Y-47604024D01*
X45219702Y-47646225D01*
X45173434Y-47671489D01*
X45123931Y-47686023D01*
X45014950Y-47756062D01*
X44930118Y-47853964D01*
X44876302Y-47971802D01*
X44857867Y-48100029D01*
X44876302Y-48228255D01*
X44930118Y-48346093D01*
X45014950Y-48443995D01*
X45014951Y-48443996D01*
X45043640Y-48462433D01*
X45123931Y-48514034D01*
X45248227Y-48550529D01*
X45248228Y-48550529D01*
X45377772Y-48550529D01*
X45377773Y-48550529D01*
X45502068Y-48514034D01*
X45547158Y-48485056D01*
X45611049Y-48443996D01*
X45695882Y-48346092D01*
X45739753Y-48250029D01*
X46757867Y-48250029D01*
X46776302Y-48378255D01*
X46830118Y-48496093D01*
X46914950Y-48593995D01*
X46914951Y-48593996D01*
X46943640Y-48612433D01*
X47023931Y-48664034D01*
X47148227Y-48700529D01*
X47148228Y-48700529D01*
X47277772Y-48700529D01*
X47277773Y-48700529D01*
X47402068Y-48664034D01*
X47433247Y-48643996D01*
X47511049Y-48593996D01*
X47595882Y-48496092D01*
X47649697Y-48378255D01*
X47668133Y-48250029D01*
X47649697Y-48121803D01*
X47639753Y-48100030D01*
X47595881Y-48003964D01*
X47520787Y-47917300D01*
X47498318Y-47879431D01*
X47490500Y-47836098D01*
X47490500Y-47716336D01*
X47499939Y-47668883D01*
X47526819Y-47628655D01*
X47960253Y-47195221D01*
X49262908Y-45892564D01*
X49275967Y-45883170D01*
X49283126Y-45875315D01*
X49283128Y-45875315D01*
X49311844Y-45843813D01*
X49315736Y-45839736D01*
X49327406Y-45828068D01*
X49327410Y-45828061D01*
X49328325Y-45827147D01*
X49336853Y-45816379D01*
X49353022Y-45798644D01*
X49354933Y-45793708D01*
X49368260Y-45768427D01*
X49371253Y-45764058D01*
X49376747Y-45740693D01*
X49381825Y-45724291D01*
X49390500Y-45701903D01*
X49390500Y-45696609D01*
X49393794Y-45668219D01*
X49395006Y-45663066D01*
X49391689Y-45639286D01*
X49390500Y-45622156D01*
X49390500Y-44863960D01*
X49398318Y-44820627D01*
X49420787Y-44782758D01*
X49483347Y-44710558D01*
X49495882Y-44696092D01*
X49549697Y-44578255D01*
X49568133Y-44450029D01*
X49549697Y-44321803D01*
X49539516Y-44299511D01*
X49495881Y-44203964D01*
X49411049Y-44106062D01*
X49302068Y-44036023D01*
X49177773Y-43999529D01*
X49177772Y-43999529D01*
X49048228Y-43999529D01*
X49048227Y-43999529D01*
X48923931Y-44036023D01*
X48814950Y-44106062D01*
X48730118Y-44203964D01*
X48676302Y-44321802D01*
X48657867Y-44450029D01*
X48676302Y-44578255D01*
X48730118Y-44696093D01*
X48805213Y-44782758D01*
X48827682Y-44820627D01*
X48835500Y-44863960D01*
X48835500Y-45483722D01*
X48826061Y-45531175D01*
X48799181Y-45571403D01*
X47063086Y-47307497D01*
X47050024Y-47316896D01*
X47014168Y-47356228D01*
X47010218Y-47360366D01*
X46997683Y-47372901D01*
X46989158Y-47383663D01*
X46972977Y-47401414D01*
X46971062Y-47406358D01*
X46957743Y-47431627D01*
X46954747Y-47436000D01*
X46949250Y-47459370D01*
X46944173Y-47475765D01*
X46935500Y-47498155D01*
X46935500Y-47503452D01*
X46932206Y-47531842D01*
X46930995Y-47536990D01*
X46934311Y-47560764D01*
X46935500Y-47577894D01*
X46935500Y-47836098D01*
X46927682Y-47879431D01*
X46905213Y-47917300D01*
X46830118Y-48003964D01*
X46776302Y-48121802D01*
X46757867Y-48250029D01*
X45739753Y-48250029D01*
X45749697Y-48228255D01*
X45768133Y-48100029D01*
X45767754Y-48097394D01*
X45774861Y-48034966D01*
X45780019Y-48021646D01*
X45780022Y-48021644D01*
X45781934Y-48016707D01*
X45795260Y-47991425D01*
X45798252Y-47987059D01*
X45803747Y-47963688D01*
X45808825Y-47947291D01*
X45817500Y-47924903D01*
X45817500Y-47919606D01*
X45820794Y-47891216D01*
X45820839Y-47891021D01*
X45822005Y-47886067D01*
X45818689Y-47862294D01*
X45817500Y-47845164D01*
X45817500Y-44808151D01*
X45831015Y-44751856D01*
X45868615Y-44707833D01*
X45922102Y-44685678D01*
X45979818Y-44690220D01*
X46029181Y-44720470D01*
X46076656Y-44767945D01*
X46106629Y-44816465D01*
X46111713Y-44873270D01*
X46107866Y-44900026D01*
X46126302Y-45028255D01*
X46180118Y-45146093D01*
X46264950Y-45243995D01*
X46264951Y-45243996D01*
X46293640Y-45262433D01*
X46373931Y-45314034D01*
X46498227Y-45350529D01*
X46498228Y-45350529D01*
X46627772Y-45350529D01*
X46627773Y-45350529D01*
X46752068Y-45314034D01*
X46780758Y-45295595D01*
X46861049Y-45243996D01*
X46945882Y-45146092D01*
X46999697Y-45028255D01*
X47018133Y-44900029D01*
X46999697Y-44771803D01*
X46997935Y-44767945D01*
X46945881Y-44653964D01*
X46861049Y-44556062D01*
X46752068Y-44486023D01*
X46627773Y-44449529D01*
X46627772Y-44449529D01*
X46518123Y-44449529D01*
X46470670Y-44440090D01*
X46430442Y-44413210D01*
X45413819Y-43396588D01*
X45386939Y-43356360D01*
X45377500Y-43308907D01*
X45377500Y-42031909D01*
X45395313Y-41967876D01*
X45443633Y-41922239D01*
X45508579Y-41908111D01*
X45571490Y-41929550D01*
X45614294Y-41980397D01*
X45667118Y-42096064D01*
X45725828Y-42163819D01*
X45751951Y-42193967D01*
X45780640Y-42212404D01*
X45860931Y-42264005D01*
X45985227Y-42300500D01*
X45985228Y-42300500D01*
X46114772Y-42300500D01*
X46114773Y-42300500D01*
X46239068Y-42264005D01*
X46262775Y-42248769D01*
X46348049Y-42193967D01*
X46368559Y-42170295D01*
X46410759Y-42138706D01*
X46462271Y-42127500D01*
X47733693Y-42127500D01*
X47781146Y-42136939D01*
X47821374Y-42163819D01*
X49786181Y-44128625D01*
X49813061Y-44168853D01*
X49822500Y-44216306D01*
X49822500Y-46783694D01*
X49813061Y-46831147D01*
X49786181Y-46871375D01*
X44371375Y-52286181D01*
X44331147Y-52313061D01*
X44283694Y-52322500D01*
X41214749Y-52322500D01*
X41153774Y-52306472D01*
X41108562Y-52262533D01*
X41090800Y-52202040D01*
X41105080Y-52140633D01*
X41147708Y-52094186D01*
X41148049Y-52093967D01*
X41232882Y-51996063D01*
X41286697Y-51878226D01*
X41305133Y-51750000D01*
X41286697Y-51621774D01*
X41232882Y-51503937D01*
X41232881Y-51503936D01*
X41232881Y-51503935D01*
X41148049Y-51406033D01*
X41039068Y-51335994D01*
X40914773Y-51299500D01*
X40914772Y-51299500D01*
X40785228Y-51299500D01*
X40785227Y-51299500D01*
X40660931Y-51335994D01*
X40551952Y-51406032D01*
X40551951Y-51406032D01*
X40551951Y-51406033D01*
X40531440Y-51429704D01*
X40489241Y-51461294D01*
X40437729Y-51472500D01*
X40066307Y-51472500D01*
X40018854Y-51463061D01*
X39978626Y-51436181D01*
X39276819Y-50734375D01*
X39249939Y-50694147D01*
X39240500Y-50646694D01*
X39240500Y-48813960D01*
X39248318Y-48770627D01*
X39270787Y-48732758D01*
X39345881Y-48646093D01*
X39345880Y-48646093D01*
X39345882Y-48646092D01*
X39399697Y-48528255D01*
X39418133Y-48400029D01*
X39399697Y-48271803D01*
X39345882Y-48153966D01*
X39345881Y-48153965D01*
X39345881Y-48153964D01*
X39261049Y-48056062D01*
X39152068Y-47986023D01*
X39027773Y-47949529D01*
X39027772Y-47949529D01*
X38898228Y-47949529D01*
X38898227Y-47949529D01*
X38773931Y-47986023D01*
X38664950Y-48056062D01*
X38580118Y-48153964D01*
X38526302Y-48271802D01*
X38507867Y-48400029D01*
X38526302Y-48528255D01*
X38580118Y-48646093D01*
X38655213Y-48732758D01*
X38677682Y-48770627D01*
X38685500Y-48813960D01*
X38685500Y-50747505D01*
X38682909Y-50763386D01*
X38685368Y-50816560D01*
X38685500Y-50822286D01*
X38685500Y-50840007D01*
X38687082Y-50853642D01*
X38688192Y-50877637D01*
X38690332Y-50882484D01*
X38698784Y-50909778D01*
X38699756Y-50914980D01*
X38712394Y-50935391D01*
X38720397Y-50950575D01*
X38730096Y-50972541D01*
X38730097Y-50972542D01*
X38733840Y-50976285D01*
X38751585Y-50998687D01*
X38754373Y-51003190D01*
X38773528Y-51017655D01*
X38786483Y-51028928D01*
X39657465Y-51899909D01*
X39666864Y-51912972D01*
X39706209Y-51948839D01*
X39710352Y-51952796D01*
X39722875Y-51965319D01*
X39733647Y-51973852D01*
X39751382Y-51990020D01*
X39751383Y-51990020D01*
X39751385Y-51990022D01*
X39756319Y-51991933D01*
X39781606Y-52005262D01*
X39785970Y-52008252D01*
X39809332Y-52013746D01*
X39825729Y-52018823D01*
X39848126Y-52027500D01*
X39853423Y-52027500D01*
X39881813Y-52030794D01*
X39886962Y-52032005D01*
X39908494Y-52029001D01*
X39910735Y-52028689D01*
X39927865Y-52027500D01*
X40437729Y-52027500D01*
X40489241Y-52038706D01*
X40531440Y-52070295D01*
X40551951Y-52093967D01*
X40552291Y-52094186D01*
X40594920Y-52140633D01*
X40609200Y-52202040D01*
X40591438Y-52262533D01*
X40546226Y-52306472D01*
X40485251Y-52322500D01*
X38616307Y-52322500D01*
X38568854Y-52313061D01*
X38528626Y-52286181D01*
X38092566Y-51850121D01*
X38083166Y-51837057D01*
X38043818Y-51801187D01*
X38039675Y-51797231D01*
X38027160Y-51784716D01*
X38016387Y-51776181D01*
X37998643Y-51760006D01*
X37993700Y-51758091D01*
X37968427Y-51744769D01*
X37964059Y-51741777D01*
X37940696Y-51736282D01*
X37924295Y-51731203D01*
X37901904Y-51722529D01*
X37901903Y-51722529D01*
X37896606Y-51722529D01*
X37868216Y-51719235D01*
X37863067Y-51718024D01*
X37839294Y-51721340D01*
X37822164Y-51722529D01*
X33305807Y-51722529D01*
X33258354Y-51713090D01*
X33218126Y-51686210D01*
X32530642Y-50998727D01*
X32500667Y-50950199D01*
X32497751Y-50917592D01*
X32497170Y-50917676D01*
X32494001Y-50895638D01*
X32482632Y-50816560D01*
X32476197Y-50771802D01*
X32422381Y-50653964D01*
X32337549Y-50556062D01*
X32228568Y-50486023D01*
X32104273Y-50449529D01*
X32104272Y-50449529D01*
X31974728Y-50449529D01*
X31899433Y-50471637D01*
X31842482Y-50474689D01*
X31790189Y-50451926D01*
X31753616Y-50408163D01*
X31740500Y-50352659D01*
X31740500Y-48068980D01*
X31751706Y-48017468D01*
X31783298Y-47975267D01*
X31829566Y-47950003D01*
X31952068Y-47914034D01*
X31995585Y-47886067D01*
X32061049Y-47843996D01*
X32145882Y-47746092D01*
X32199697Y-47628255D01*
X32218133Y-47500029D01*
X32199697Y-47371803D01*
X32158377Y-47281327D01*
X32145881Y-47253964D01*
X32061049Y-47156062D01*
X31952068Y-47086023D01*
X31827773Y-47049529D01*
X31827772Y-47049529D01*
X31698228Y-47049529D01*
X31698227Y-47049529D01*
X31573931Y-47086023D01*
X31464951Y-47156061D01*
X31392795Y-47239335D01*
X31344082Y-47273679D01*
X31284972Y-47281327D01*
X31229122Y-47260511D01*
X31189435Y-47216043D01*
X31175082Y-47158197D01*
X31173050Y-43094897D01*
X31189123Y-43033782D01*
X31233228Y-42988523D01*
X31293910Y-42970877D01*
X31355407Y-42985427D01*
X31401747Y-43028395D01*
X31404435Y-43032631D01*
X31404436Y-43032633D01*
X31493584Y-43173109D01*
X31614867Y-43287001D01*
X31741031Y-43356360D01*
X31760665Y-43367154D01*
X31921810Y-43408529D01*
X31921812Y-43408529D01*
X33062432Y-43408529D01*
X33062434Y-43408529D01*
X33156957Y-43396588D01*
X33186064Y-43392911D01*
X33339521Y-43332153D01*
X33340754Y-43331665D01*
X33340754Y-43331664D01*
X33340756Y-43331664D01*
X33475357Y-43233870D01*
X33581409Y-43105675D01*
X33581409Y-43105673D01*
X33581411Y-43105672D01*
X33614192Y-43036008D01*
X33652249Y-42955134D01*
X33683424Y-42791705D01*
X33672977Y-42625658D01*
X33621564Y-42467425D01*
X33532416Y-42326949D01*
X33467710Y-42266186D01*
X33410813Y-42212756D01*
X33380405Y-42168011D01*
X33371942Y-42114578D01*
X33387035Y-42062626D01*
X33422810Y-42022047D01*
X33475357Y-41983870D01*
X33581409Y-41855675D01*
X33581409Y-41855673D01*
X33581411Y-41855672D01*
X33611425Y-41791889D01*
X33652249Y-41705134D01*
X33683424Y-41541705D01*
X33680802Y-41500028D01*
X34857867Y-41500028D01*
X34876302Y-41628255D01*
X34930118Y-41746093D01*
X35005213Y-41832758D01*
X35027682Y-41870627D01*
X35035500Y-41913960D01*
X35035500Y-47215205D01*
X35024294Y-47266717D01*
X34976302Y-47371802D01*
X34957867Y-47500029D01*
X34976302Y-47628255D01*
X35030118Y-47746093D01*
X35093541Y-47819287D01*
X35114951Y-47843996D01*
X35130462Y-47853964D01*
X35223931Y-47914034D01*
X35348227Y-47950529D01*
X35348228Y-47950529D01*
X35477772Y-47950529D01*
X35477773Y-47950529D01*
X35602068Y-47914034D01*
X35645585Y-47886067D01*
X35711049Y-47843996D01*
X35795882Y-47746092D01*
X35849697Y-47628255D01*
X35868133Y-47500029D01*
X35849697Y-47371803D01*
X35808377Y-47281327D01*
X35795881Y-47253964D01*
X35711050Y-47156063D01*
X35711049Y-47156062D01*
X35647459Y-47115195D01*
X35605668Y-47070308D01*
X35590500Y-47010881D01*
X35590500Y-43631938D01*
X35608313Y-43567905D01*
X35656633Y-43522268D01*
X35721579Y-43508140D01*
X35784490Y-43529579D01*
X35827294Y-43580426D01*
X35880118Y-43696093D01*
X35964937Y-43793980D01*
X35964951Y-43793996D01*
X35993640Y-43812433D01*
X36073931Y-43864034D01*
X36198227Y-43900529D01*
X36198228Y-43900529D01*
X36327772Y-43900529D01*
X36327773Y-43900529D01*
X36452068Y-43864034D01*
X36496677Y-43835365D01*
X36561049Y-43793996D01*
X36604953Y-43743326D01*
X36647155Y-43711735D01*
X36698667Y-43700529D01*
X39027332Y-43700529D01*
X39078844Y-43711735D01*
X39121045Y-43743326D01*
X39164937Y-43793981D01*
X39273917Y-43864019D01*
X39398213Y-43900514D01*
X39398214Y-43900514D01*
X39527758Y-43900514D01*
X39527759Y-43900514D01*
X39652054Y-43864019D01*
X39699867Y-43833291D01*
X39761035Y-43793981D01*
X39845868Y-43696077D01*
X39899683Y-43578240D01*
X39918119Y-43450014D01*
X39899683Y-43321788D01*
X39898698Y-43319632D01*
X39845867Y-43203949D01*
X39761035Y-43106047D01*
X39652054Y-43036008D01*
X39527759Y-42999514D01*
X39527758Y-42999514D01*
X39398214Y-42999514D01*
X39398213Y-42999514D01*
X39273917Y-43036008D01*
X39164937Y-43106046D01*
X39121019Y-43156732D01*
X39078818Y-43188323D01*
X39027306Y-43199529D01*
X36698667Y-43199529D01*
X36647155Y-43188323D01*
X36604954Y-43156732D01*
X36561048Y-43106061D01*
X36452068Y-43036023D01*
X36327773Y-42999529D01*
X36327772Y-42999529D01*
X36198228Y-42999529D01*
X36198227Y-42999529D01*
X36073931Y-43036023D01*
X35964950Y-43106062D01*
X35880118Y-43203964D01*
X35827294Y-43319632D01*
X35784490Y-43370479D01*
X35721579Y-43391918D01*
X35656633Y-43377790D01*
X35608313Y-43332153D01*
X35590500Y-43268120D01*
X35590500Y-41913960D01*
X35598318Y-41870627D01*
X35620787Y-41832758D01*
X35695881Y-41746093D01*
X35695880Y-41746093D01*
X35695882Y-41746092D01*
X35749697Y-41628255D01*
X35768133Y-41500029D01*
X35752014Y-41387920D01*
X35749697Y-41371802D01*
X35695881Y-41253964D01*
X35611049Y-41156062D01*
X35502068Y-41086023D01*
X35377773Y-41049529D01*
X35377772Y-41049529D01*
X35248228Y-41049529D01*
X35248227Y-41049529D01*
X35123931Y-41086023D01*
X35014950Y-41156062D01*
X34930118Y-41253964D01*
X34876302Y-41371802D01*
X34857867Y-41500028D01*
X33680802Y-41500028D01*
X33672977Y-41375658D01*
X33621564Y-41217425D01*
X33532416Y-41076949D01*
X33486666Y-41033987D01*
X33455734Y-40987897D01*
X33448010Y-40932929D01*
X33465041Y-40880098D01*
X33503416Y-40839991D01*
X33511552Y-40834639D01*
X33633147Y-40705757D01*
X33721745Y-40552301D01*
X33737395Y-40500029D01*
X32387000Y-40500029D01*
X32325000Y-40483416D01*
X32279613Y-40438029D01*
X32263000Y-40376029D01*
X32263000Y-39492029D01*
X32763000Y-39492029D01*
X32763000Y-40000029D01*
X33738674Y-40000029D01*
X33681915Y-39868448D01*
X33576101Y-39726316D01*
X33440364Y-39612419D01*
X33282016Y-39532893D01*
X33109595Y-39492029D01*
X32763000Y-39492029D01*
X32263000Y-39492029D01*
X31960856Y-39492029D01*
X31829001Y-39507440D01*
X31662494Y-39568043D01*
X31514451Y-39665414D01*
X31385554Y-39802036D01*
X31336423Y-39833945D01*
X31278127Y-39839738D01*
X31223677Y-39818122D01*
X31185227Y-39773922D01*
X31171360Y-39717006D01*
X31169061Y-35120000D01*
X31994659Y-35120000D01*
X32013976Y-35316133D01*
X32071185Y-35504726D01*
X32112738Y-35582465D01*
X32164090Y-35678538D01*
X32289117Y-35830883D01*
X32441462Y-35955910D01*
X32615273Y-36048814D01*
X32803868Y-36106024D01*
X33000000Y-36125341D01*
X33196132Y-36106024D01*
X33384727Y-36048814D01*
X33558538Y-35955910D01*
X33710883Y-35830883D01*
X33835910Y-35678538D01*
X33928814Y-35504727D01*
X33986024Y-35316132D01*
X34005341Y-35120000D01*
X33986024Y-34923868D01*
X33928814Y-34735273D01*
X33835910Y-34561462D01*
X33710883Y-34409117D01*
X33558538Y-34284090D01*
X33496917Y-34251153D01*
X33384726Y-34191185D01*
X33196133Y-34133976D01*
X33000000Y-34114659D01*
X32803866Y-34133976D01*
X32615273Y-34191185D01*
X32441463Y-34284089D01*
X32289117Y-34409117D01*
X32164089Y-34561463D01*
X32071185Y-34735273D01*
X32013976Y-34923866D01*
X31994659Y-35120000D01*
X31169061Y-35120000D01*
X31167790Y-32580000D01*
X31994659Y-32580000D01*
X32013976Y-32776133D01*
X32071185Y-32964726D01*
X32071186Y-32964727D01*
X32164090Y-33138538D01*
X32289117Y-33290883D01*
X32441462Y-33415910D01*
X32615273Y-33508814D01*
X32803868Y-33566024D01*
X33000000Y-33585341D01*
X33196132Y-33566024D01*
X33384727Y-33508814D01*
X33558538Y-33415910D01*
X33710883Y-33290883D01*
X33835910Y-33138538D01*
X33928814Y-32964727D01*
X33986024Y-32776132D01*
X34005341Y-32580000D01*
X33986024Y-32383868D01*
X33928814Y-32195273D01*
X33835910Y-32021462D01*
X33710883Y-31869117D01*
X33558538Y-31744090D01*
X33527555Y-31727529D01*
X33384726Y-31651185D01*
X33196133Y-31593976D01*
X33000000Y-31574659D01*
X32803866Y-31593976D01*
X32615273Y-31651185D01*
X32441463Y-31744089D01*
X32289117Y-31869117D01*
X32164089Y-32021463D01*
X32071185Y-32195273D01*
X32013976Y-32383866D01*
X31994659Y-32580000D01*
X31167790Y-32580000D01*
X31166520Y-30039999D01*
X31994659Y-30039999D01*
X32013976Y-30236133D01*
X32071185Y-30424726D01*
X32093112Y-30465748D01*
X32164090Y-30598538D01*
X32289117Y-30750883D01*
X32441462Y-30875910D01*
X32615273Y-30968814D01*
X32803868Y-31026024D01*
X33000000Y-31045341D01*
X33196132Y-31026024D01*
X33384727Y-30968814D01*
X33558538Y-30875910D01*
X33710883Y-30750883D01*
X33835910Y-30598538D01*
X33928814Y-30424727D01*
X33986024Y-30236132D01*
X34005341Y-30040000D01*
X33986024Y-29843868D01*
X33928814Y-29655273D01*
X33835910Y-29481462D01*
X33710883Y-29329117D01*
X33558538Y-29204090D01*
X33468628Y-29156032D01*
X33384726Y-29111185D01*
X33196133Y-29053976D01*
X33000000Y-29034659D01*
X32803866Y-29053976D01*
X32615273Y-29111185D01*
X32441463Y-29204089D01*
X32289117Y-29329117D01*
X32164089Y-29481463D01*
X32071185Y-29655273D01*
X32013976Y-29843866D01*
X31994659Y-30039999D01*
X31166520Y-30039999D01*
X31165682Y-28364821D01*
X31999500Y-28364821D01*
X32008233Y-28408723D01*
X32041495Y-28458504D01*
X32091276Y-28491766D01*
X32091278Y-28491767D01*
X32124277Y-28498331D01*
X32135179Y-28500500D01*
X32135180Y-28500500D01*
X33864820Y-28500500D01*
X33864821Y-28500500D01*
X33873553Y-28498762D01*
X33908722Y-28491767D01*
X33958504Y-28458504D01*
X33991767Y-28408722D01*
X34000500Y-28364820D01*
X34000500Y-26635180D01*
X33991767Y-26591278D01*
X33991766Y-26591276D01*
X33958504Y-26541495D01*
X33908723Y-26508233D01*
X33864821Y-26499500D01*
X33864820Y-26499500D01*
X32135180Y-26499500D01*
X32135179Y-26499500D01*
X32091276Y-26508233D01*
X32041495Y-26541495D01*
X32008233Y-26591276D01*
X31999500Y-26635179D01*
X31999500Y-28364821D01*
X31165682Y-28364821D01*
X31163527Y-24056328D01*
X31758609Y-24056328D01*
X31788825Y-24279388D01*
X31849649Y-24466586D01*
X31858383Y-24493464D01*
X31965048Y-24691681D01*
X32061556Y-24812698D01*
X32097363Y-24857599D01*
X32105392Y-24867666D01*
X32274904Y-25015765D01*
X32328708Y-25047911D01*
X32468137Y-25131216D01*
X32586114Y-25175493D01*
X32678876Y-25210307D01*
X32900353Y-25250500D01*
X33069053Y-25250500D01*
X33069055Y-25250500D01*
X33237088Y-25235377D01*
X33454070Y-25175493D01*
X33656873Y-25077829D01*
X33838978Y-24945522D01*
X33994532Y-24782825D01*
X34118535Y-24594968D01*
X34207003Y-24387988D01*
X34257091Y-24168537D01*
X34267190Y-23943670D01*
X34236975Y-23720613D01*
X34167417Y-23506536D01*
X34060752Y-23308319D01*
X33920408Y-23132334D01*
X33750896Y-22984235D01*
X33750893Y-22984233D01*
X33557662Y-22868783D01*
X33346925Y-22789693D01*
X33125447Y-22749500D01*
X32956745Y-22749500D01*
X32889531Y-22755549D01*
X32788709Y-22764623D01*
X32571728Y-22824507D01*
X32368927Y-22922170D01*
X32186825Y-23054475D01*
X32186822Y-23054477D01*
X32186822Y-23054478D01*
X32163287Y-23079094D01*
X32031265Y-23217178D01*
X31907265Y-23405031D01*
X31818796Y-23612012D01*
X31768709Y-23831462D01*
X31758609Y-24056328D01*
X31163527Y-24056328D01*
X31163501Y-24004101D01*
X31163769Y-23995897D01*
X31167161Y-23944357D01*
X31178918Y-23765734D01*
X31181049Y-23749612D01*
X31225444Y-23527368D01*
X31229672Y-23511657D01*
X31302806Y-23297165D01*
X31309054Y-23282150D01*
X31409674Y-23079083D01*
X31417829Y-23065029D01*
X31544205Y-22876888D01*
X31554149Y-22864004D01*
X31562262Y-22854808D01*
X31704067Y-22694078D01*
X31715618Y-22682603D01*
X31886524Y-22533783D01*
X31899457Y-22523937D01*
X32088398Y-22398798D01*
X32102522Y-22390724D01*
X32306234Y-22291428D01*
X32321302Y-22285272D01*
X32536261Y-22213535D01*
X32552008Y-22209407D01*
X32774508Y-22166463D01*
X32790662Y-22164434D01*
X33021630Y-22150740D01*
X33029723Y-22150527D01*
X33059372Y-22150720D01*
X33059372Y-22150719D01*
X33086129Y-22150894D01*
X33087780Y-22150522D01*
X38352092Y-22152439D01*
G37*
%TD.AperFunction*%
%TA.AperFunction,Conductor*%
G36*
X37276225Y-28465780D02*
G01*
X37310527Y-28491683D01*
X37323483Y-28502957D01*
X40420464Y-31599938D01*
X40429863Y-31613000D01*
X40469209Y-31648868D01*
X40473352Y-31652825D01*
X40485875Y-31665348D01*
X40496647Y-31673881D01*
X40514382Y-31690049D01*
X40514383Y-31690049D01*
X40514385Y-31690051D01*
X40519319Y-31691962D01*
X40544606Y-31705291D01*
X40548970Y-31708281D01*
X40572332Y-31713775D01*
X40588729Y-31718852D01*
X40611126Y-31727529D01*
X40616423Y-31727529D01*
X40644813Y-31730823D01*
X40649962Y-31732034D01*
X40671494Y-31729030D01*
X40673735Y-31728718D01*
X40690865Y-31727529D01*
X44204804Y-31727529D01*
X44271843Y-31747213D01*
X44317598Y-31800017D01*
X44327542Y-31869175D01*
X44298518Y-31932731D01*
X44280117Y-31953966D01*
X44226302Y-32071802D01*
X44205330Y-32217676D01*
X44204748Y-32217592D01*
X44201828Y-32250210D01*
X44171856Y-32298727D01*
X43407375Y-33063210D01*
X43367147Y-33090090D01*
X43319694Y-33099529D01*
X41090305Y-33099529D01*
X41042852Y-33090090D01*
X41002624Y-33063210D01*
X37113819Y-29174406D01*
X37086939Y-29134178D01*
X37077500Y-29086725D01*
X37077500Y-28564735D01*
X37096073Y-28499458D01*
X37146228Y-28453735D01*
X37212940Y-28441264D01*
X37276225Y-28465780D01*
G37*
%TD.AperFunction*%
%TD*%
D23*
X54987000Y-22008000D02*
X33026000Y-22000000D01*
X31013000Y-24000000D02*
X31031000Y-59987029D01*
X55000000Y-62000029D02*
X52510000Y-62000029D01*
X31031013Y-59987029D02*
G75*
G03*
X33031000Y-62000029I1999987J-12971D01*
G01*
X33026000Y-22000042D02*
G75*
G03*
X31013000Y-24000000I-13000J-1999958D01*
G01*
X55000000Y-62000058D02*
G75*
G03*
X57013000Y-60000029I12900J2000058D01*
G01*
X46664000Y-59859029D02*
X46664000Y-62000029D01*
X52508000Y-59859029D02*
X46664000Y-59859029D01*
X56987000Y-24021000D02*
X57013000Y-60000029D01*
X56986958Y-24021000D02*
G75*
G03*
X54987000Y-22008000I-2000058J12900D01*
G01*
X52508000Y-59859029D02*
X52508000Y-62000029D01*
X46664000Y-62000029D02*
X33031000Y-62000029D01*
M02*
