%TF.GenerationSoftware,KiCad,Pcbnew,9.0.0*%
%TF.CreationDate,2025-03-20T22:50:16+01:00*%
%TF.ProjectId,nervous-eda,6e657276-6f75-4732-9d65-64612e6b6963,1.0.1*%
%TF.SameCoordinates,Original*%
%TF.FileFunction,Copper,L2,Bot*%
%TF.FilePolarity,Positive*%
%FSLAX46Y46*%
G04 Gerber Fmt 4.6, Leading zero omitted, Abs format (unit mm)*
G04 Created by KiCad (PCBNEW 9.0.0) date 2025-03-20 22:50:16*
%MOMM*%
%LPD*%
G01*
G04 APERTURE LIST*
%ADD10C,0.100000*%
%ADD11C,0.150000*%
%ADD12C,0.300000*%
%ADD13C,0.400000*%
%TA.AperFunction,NonConductor*%
%ADD14C,0.300000*%
%TD*%
%TA.AperFunction,ComponentPad*%
%ADD15O,1.100000X2.200000*%
%TD*%
%TA.AperFunction,ComponentPad*%
%ADD16O,1.300000X2.600000*%
%TD*%
%TA.AperFunction,ComponentPad*%
%ADD17O,2.032000X1.016000*%
%TD*%
%TA.AperFunction,ComponentPad*%
%ADD18R,1.700000X1.700000*%
%TD*%
%TA.AperFunction,ComponentPad*%
%ADD19O,1.700000X1.700000*%
%TD*%
%TA.AperFunction,ViaPad*%
%ADD20C,0.600000*%
%TD*%
%TA.AperFunction,Conductor*%
%ADD21C,0.254000*%
%TD*%
%TA.AperFunction,Conductor*%
%ADD22C,0.200000*%
%TD*%
%TA.AperFunction,Profile*%
%ADD23C,0.254000*%
%TD*%
G04 APERTURE END LIST*
D10*
D11*
X30012000Y-75990000D02*
X138012000Y-75990000D01*
X138012000Y-107990000D01*
X30012000Y-107990000D01*
X30012000Y-75990000D01*
D10*
D11*
X10000000Y-10000000D02*
X140012000Y-10000000D01*
X140012000Y-109990000D01*
X10000000Y-109990000D01*
X10000000Y-10000000D01*
D10*
D11*
X12000000Y-12000000D02*
X138012000Y-12000000D01*
X138012000Y-107990000D01*
X12000000Y-107990000D01*
X12000000Y-12000000D01*
D10*
D11*
X60000000Y-12000000D02*
X60000000Y-10000000D01*
D10*
D11*
X110000000Y-12000000D02*
X110000000Y-10000000D01*
D10*
D11*
X36089160Y-11593604D02*
X35346303Y-11593604D01*
X35717731Y-11593604D02*
X35717731Y-10293604D01*
X35717731Y-10293604D02*
X35593922Y-10479319D01*
X35593922Y-10479319D02*
X35470112Y-10603128D01*
X35470112Y-10603128D02*
X35346303Y-10665033D01*
D10*
D11*
X85346303Y-10417414D02*
X85408207Y-10355509D01*
X85408207Y-10355509D02*
X85532017Y-10293604D01*
X85532017Y-10293604D02*
X85841541Y-10293604D01*
X85841541Y-10293604D02*
X85965350Y-10355509D01*
X85965350Y-10355509D02*
X86027255Y-10417414D01*
X86027255Y-10417414D02*
X86089160Y-10541223D01*
X86089160Y-10541223D02*
X86089160Y-10665033D01*
X86089160Y-10665033D02*
X86027255Y-10850747D01*
X86027255Y-10850747D02*
X85284398Y-11593604D01*
X85284398Y-11593604D02*
X86089160Y-11593604D01*
D10*
D11*
X135284398Y-10293604D02*
X136089160Y-10293604D01*
X136089160Y-10293604D02*
X135655826Y-10788842D01*
X135655826Y-10788842D02*
X135841541Y-10788842D01*
X135841541Y-10788842D02*
X135965350Y-10850747D01*
X135965350Y-10850747D02*
X136027255Y-10912652D01*
X136027255Y-10912652D02*
X136089160Y-11036461D01*
X136089160Y-11036461D02*
X136089160Y-11345985D01*
X136089160Y-11345985D02*
X136027255Y-11469795D01*
X136027255Y-11469795D02*
X135965350Y-11531700D01*
X135965350Y-11531700D02*
X135841541Y-11593604D01*
X135841541Y-11593604D02*
X135470112Y-11593604D01*
X135470112Y-11593604D02*
X135346303Y-11531700D01*
X135346303Y-11531700D02*
X135284398Y-11469795D01*
D10*
D11*
X60000000Y-107990000D02*
X60000000Y-109990000D01*
D10*
D11*
X110000000Y-107990000D02*
X110000000Y-109990000D01*
D10*
D11*
X36089160Y-109583604D02*
X35346303Y-109583604D01*
X35717731Y-109583604D02*
X35717731Y-108283604D01*
X35717731Y-108283604D02*
X35593922Y-108469319D01*
X35593922Y-108469319D02*
X35470112Y-108593128D01*
X35470112Y-108593128D02*
X35346303Y-108655033D01*
D10*
D11*
X85346303Y-108407414D02*
X85408207Y-108345509D01*
X85408207Y-108345509D02*
X85532017Y-108283604D01*
X85532017Y-108283604D02*
X85841541Y-108283604D01*
X85841541Y-108283604D02*
X85965350Y-108345509D01*
X85965350Y-108345509D02*
X86027255Y-108407414D01*
X86027255Y-108407414D02*
X86089160Y-108531223D01*
X86089160Y-108531223D02*
X86089160Y-108655033D01*
X86089160Y-108655033D02*
X86027255Y-108840747D01*
X86027255Y-108840747D02*
X85284398Y-109583604D01*
X85284398Y-109583604D02*
X86089160Y-109583604D01*
D10*
D11*
X135284398Y-108283604D02*
X136089160Y-108283604D01*
X136089160Y-108283604D02*
X135655826Y-108778842D01*
X135655826Y-108778842D02*
X135841541Y-108778842D01*
X135841541Y-108778842D02*
X135965350Y-108840747D01*
X135965350Y-108840747D02*
X136027255Y-108902652D01*
X136027255Y-108902652D02*
X136089160Y-109026461D01*
X136089160Y-109026461D02*
X136089160Y-109335985D01*
X136089160Y-109335985D02*
X136027255Y-109459795D01*
X136027255Y-109459795D02*
X135965350Y-109521700D01*
X135965350Y-109521700D02*
X135841541Y-109583604D01*
X135841541Y-109583604D02*
X135470112Y-109583604D01*
X135470112Y-109583604D02*
X135346303Y-109521700D01*
X135346303Y-109521700D02*
X135284398Y-109459795D01*
D10*
D11*
X10000000Y-60000000D02*
X12000000Y-60000000D01*
D10*
D11*
X10690476Y-35222176D02*
X11309523Y-35222176D01*
X10566666Y-35593604D02*
X10999999Y-34293604D01*
X10999999Y-34293604D02*
X11433333Y-35593604D01*
D10*
D11*
X11092857Y-84912652D02*
X11278571Y-84974557D01*
X11278571Y-84974557D02*
X11340476Y-85036461D01*
X11340476Y-85036461D02*
X11402380Y-85160271D01*
X11402380Y-85160271D02*
X11402380Y-85345985D01*
X11402380Y-85345985D02*
X11340476Y-85469795D01*
X11340476Y-85469795D02*
X11278571Y-85531700D01*
X11278571Y-85531700D02*
X11154761Y-85593604D01*
X11154761Y-85593604D02*
X10659523Y-85593604D01*
X10659523Y-85593604D02*
X10659523Y-84293604D01*
X10659523Y-84293604D02*
X11092857Y-84293604D01*
X11092857Y-84293604D02*
X11216666Y-84355509D01*
X11216666Y-84355509D02*
X11278571Y-84417414D01*
X11278571Y-84417414D02*
X11340476Y-84541223D01*
X11340476Y-84541223D02*
X11340476Y-84665033D01*
X11340476Y-84665033D02*
X11278571Y-84788842D01*
X11278571Y-84788842D02*
X11216666Y-84850747D01*
X11216666Y-84850747D02*
X11092857Y-84912652D01*
X11092857Y-84912652D02*
X10659523Y-84912652D01*
D10*
D11*
X140012000Y-60000000D02*
X138012000Y-60000000D01*
D10*
D11*
X138702476Y-35222176D02*
X139321523Y-35222176D01*
X138578666Y-35593604D02*
X139011999Y-34293604D01*
X139011999Y-34293604D02*
X139445333Y-35593604D01*
D10*
D11*
X139104857Y-84912652D02*
X139290571Y-84974557D01*
X139290571Y-84974557D02*
X139352476Y-85036461D01*
X139352476Y-85036461D02*
X139414380Y-85160271D01*
X139414380Y-85160271D02*
X139414380Y-85345985D01*
X139414380Y-85345985D02*
X139352476Y-85469795D01*
X139352476Y-85469795D02*
X139290571Y-85531700D01*
X139290571Y-85531700D02*
X139166761Y-85593604D01*
X139166761Y-85593604D02*
X138671523Y-85593604D01*
X138671523Y-85593604D02*
X138671523Y-84293604D01*
X138671523Y-84293604D02*
X139104857Y-84293604D01*
X139104857Y-84293604D02*
X139228666Y-84355509D01*
X139228666Y-84355509D02*
X139290571Y-84417414D01*
X139290571Y-84417414D02*
X139352476Y-84541223D01*
X139352476Y-84541223D02*
X139352476Y-84665033D01*
X139352476Y-84665033D02*
X139290571Y-84788842D01*
X139290571Y-84788842D02*
X139228666Y-84850747D01*
X139228666Y-84850747D02*
X139104857Y-84912652D01*
X139104857Y-84912652D02*
X138671523Y-84912652D01*
D10*
D11*
X53467826Y-103776128D02*
X53467826Y-102276128D01*
X53467826Y-102276128D02*
X53824969Y-102276128D01*
X53824969Y-102276128D02*
X54039255Y-102347557D01*
X54039255Y-102347557D02*
X54182112Y-102490414D01*
X54182112Y-102490414D02*
X54253541Y-102633271D01*
X54253541Y-102633271D02*
X54324969Y-102918985D01*
X54324969Y-102918985D02*
X54324969Y-103133271D01*
X54324969Y-103133271D02*
X54253541Y-103418985D01*
X54253541Y-103418985D02*
X54182112Y-103561842D01*
X54182112Y-103561842D02*
X54039255Y-103704700D01*
X54039255Y-103704700D02*
X53824969Y-103776128D01*
X53824969Y-103776128D02*
X53467826Y-103776128D01*
X55610684Y-103776128D02*
X55610684Y-102990414D01*
X55610684Y-102990414D02*
X55539255Y-102847557D01*
X55539255Y-102847557D02*
X55396398Y-102776128D01*
X55396398Y-102776128D02*
X55110684Y-102776128D01*
X55110684Y-102776128D02*
X54967826Y-102847557D01*
X55610684Y-103704700D02*
X55467826Y-103776128D01*
X55467826Y-103776128D02*
X55110684Y-103776128D01*
X55110684Y-103776128D02*
X54967826Y-103704700D01*
X54967826Y-103704700D02*
X54896398Y-103561842D01*
X54896398Y-103561842D02*
X54896398Y-103418985D01*
X54896398Y-103418985D02*
X54967826Y-103276128D01*
X54967826Y-103276128D02*
X55110684Y-103204700D01*
X55110684Y-103204700D02*
X55467826Y-103204700D01*
X55467826Y-103204700D02*
X55610684Y-103133271D01*
X56110684Y-102776128D02*
X56682112Y-102776128D01*
X56324969Y-102276128D02*
X56324969Y-103561842D01*
X56324969Y-103561842D02*
X56396398Y-103704700D01*
X56396398Y-103704700D02*
X56539255Y-103776128D01*
X56539255Y-103776128D02*
X56682112Y-103776128D01*
X57753541Y-103704700D02*
X57610684Y-103776128D01*
X57610684Y-103776128D02*
X57324970Y-103776128D01*
X57324970Y-103776128D02*
X57182112Y-103704700D01*
X57182112Y-103704700D02*
X57110684Y-103561842D01*
X57110684Y-103561842D02*
X57110684Y-102990414D01*
X57110684Y-102990414D02*
X57182112Y-102847557D01*
X57182112Y-102847557D02*
X57324970Y-102776128D01*
X57324970Y-102776128D02*
X57610684Y-102776128D01*
X57610684Y-102776128D02*
X57753541Y-102847557D01*
X57753541Y-102847557D02*
X57824970Y-102990414D01*
X57824970Y-102990414D02*
X57824970Y-103133271D01*
X57824970Y-103133271D02*
X57110684Y-103276128D01*
X58467826Y-103633271D02*
X58539255Y-103704700D01*
X58539255Y-103704700D02*
X58467826Y-103776128D01*
X58467826Y-103776128D02*
X58396398Y-103704700D01*
X58396398Y-103704700D02*
X58467826Y-103633271D01*
X58467826Y-103633271D02*
X58467826Y-103776128D01*
X58467826Y-102847557D02*
X58539255Y-102918985D01*
X58539255Y-102918985D02*
X58467826Y-102990414D01*
X58467826Y-102990414D02*
X58396398Y-102918985D01*
X58396398Y-102918985D02*
X58467826Y-102847557D01*
X58467826Y-102847557D02*
X58467826Y-102990414D01*
X60253541Y-102418985D02*
X60324969Y-102347557D01*
X60324969Y-102347557D02*
X60467827Y-102276128D01*
X60467827Y-102276128D02*
X60824969Y-102276128D01*
X60824969Y-102276128D02*
X60967827Y-102347557D01*
X60967827Y-102347557D02*
X61039255Y-102418985D01*
X61039255Y-102418985D02*
X61110684Y-102561842D01*
X61110684Y-102561842D02*
X61110684Y-102704700D01*
X61110684Y-102704700D02*
X61039255Y-102918985D01*
X61039255Y-102918985D02*
X60182112Y-103776128D01*
X60182112Y-103776128D02*
X61110684Y-103776128D01*
X62039255Y-102276128D02*
X62182112Y-102276128D01*
X62182112Y-102276128D02*
X62324969Y-102347557D01*
X62324969Y-102347557D02*
X62396398Y-102418985D01*
X62396398Y-102418985D02*
X62467826Y-102561842D01*
X62467826Y-102561842D02*
X62539255Y-102847557D01*
X62539255Y-102847557D02*
X62539255Y-103204700D01*
X62539255Y-103204700D02*
X62467826Y-103490414D01*
X62467826Y-103490414D02*
X62396398Y-103633271D01*
X62396398Y-103633271D02*
X62324969Y-103704700D01*
X62324969Y-103704700D02*
X62182112Y-103776128D01*
X62182112Y-103776128D02*
X62039255Y-103776128D01*
X62039255Y-103776128D02*
X61896398Y-103704700D01*
X61896398Y-103704700D02*
X61824969Y-103633271D01*
X61824969Y-103633271D02*
X61753540Y-103490414D01*
X61753540Y-103490414D02*
X61682112Y-103204700D01*
X61682112Y-103204700D02*
X61682112Y-102847557D01*
X61682112Y-102847557D02*
X61753540Y-102561842D01*
X61753540Y-102561842D02*
X61824969Y-102418985D01*
X61824969Y-102418985D02*
X61896398Y-102347557D01*
X61896398Y-102347557D02*
X62039255Y-102276128D01*
X63110683Y-102418985D02*
X63182111Y-102347557D01*
X63182111Y-102347557D02*
X63324969Y-102276128D01*
X63324969Y-102276128D02*
X63682111Y-102276128D01*
X63682111Y-102276128D02*
X63824969Y-102347557D01*
X63824969Y-102347557D02*
X63896397Y-102418985D01*
X63896397Y-102418985D02*
X63967826Y-102561842D01*
X63967826Y-102561842D02*
X63967826Y-102704700D01*
X63967826Y-102704700D02*
X63896397Y-102918985D01*
X63896397Y-102918985D02*
X63039254Y-103776128D01*
X63039254Y-103776128D02*
X63967826Y-103776128D01*
X65324968Y-102276128D02*
X64610682Y-102276128D01*
X64610682Y-102276128D02*
X64539254Y-102990414D01*
X64539254Y-102990414D02*
X64610682Y-102918985D01*
X64610682Y-102918985D02*
X64753540Y-102847557D01*
X64753540Y-102847557D02*
X65110682Y-102847557D01*
X65110682Y-102847557D02*
X65253540Y-102918985D01*
X65253540Y-102918985D02*
X65324968Y-102990414D01*
X65324968Y-102990414D02*
X65396397Y-103133271D01*
X65396397Y-103133271D02*
X65396397Y-103490414D01*
X65396397Y-103490414D02*
X65324968Y-103633271D01*
X65324968Y-103633271D02*
X65253540Y-103704700D01*
X65253540Y-103704700D02*
X65110682Y-103776128D01*
X65110682Y-103776128D02*
X64753540Y-103776128D01*
X64753540Y-103776128D02*
X64610682Y-103704700D01*
X64610682Y-103704700D02*
X64539254Y-103633271D01*
X66039253Y-103204700D02*
X67182111Y-103204700D01*
X68182111Y-102276128D02*
X68324968Y-102276128D01*
X68324968Y-102276128D02*
X68467825Y-102347557D01*
X68467825Y-102347557D02*
X68539254Y-102418985D01*
X68539254Y-102418985D02*
X68610682Y-102561842D01*
X68610682Y-102561842D02*
X68682111Y-102847557D01*
X68682111Y-102847557D02*
X68682111Y-103204700D01*
X68682111Y-103204700D02*
X68610682Y-103490414D01*
X68610682Y-103490414D02*
X68539254Y-103633271D01*
X68539254Y-103633271D02*
X68467825Y-103704700D01*
X68467825Y-103704700D02*
X68324968Y-103776128D01*
X68324968Y-103776128D02*
X68182111Y-103776128D01*
X68182111Y-103776128D02*
X68039254Y-103704700D01*
X68039254Y-103704700D02*
X67967825Y-103633271D01*
X67967825Y-103633271D02*
X67896396Y-103490414D01*
X67896396Y-103490414D02*
X67824968Y-103204700D01*
X67824968Y-103204700D02*
X67824968Y-102847557D01*
X67824968Y-102847557D02*
X67896396Y-102561842D01*
X67896396Y-102561842D02*
X67967825Y-102418985D01*
X67967825Y-102418985D02*
X68039254Y-102347557D01*
X68039254Y-102347557D02*
X68182111Y-102276128D01*
X69182110Y-102276128D02*
X70110682Y-102276128D01*
X70110682Y-102276128D02*
X69610682Y-102847557D01*
X69610682Y-102847557D02*
X69824967Y-102847557D01*
X69824967Y-102847557D02*
X69967825Y-102918985D01*
X69967825Y-102918985D02*
X70039253Y-102990414D01*
X70039253Y-102990414D02*
X70110682Y-103133271D01*
X70110682Y-103133271D02*
X70110682Y-103490414D01*
X70110682Y-103490414D02*
X70039253Y-103633271D01*
X70039253Y-103633271D02*
X69967825Y-103704700D01*
X69967825Y-103704700D02*
X69824967Y-103776128D01*
X69824967Y-103776128D02*
X69396396Y-103776128D01*
X69396396Y-103776128D02*
X69253539Y-103704700D01*
X69253539Y-103704700D02*
X69182110Y-103633271D01*
X70753538Y-103204700D02*
X71896396Y-103204700D01*
X72539253Y-102418985D02*
X72610681Y-102347557D01*
X72610681Y-102347557D02*
X72753539Y-102276128D01*
X72753539Y-102276128D02*
X73110681Y-102276128D01*
X73110681Y-102276128D02*
X73253539Y-102347557D01*
X73253539Y-102347557D02*
X73324967Y-102418985D01*
X73324967Y-102418985D02*
X73396396Y-102561842D01*
X73396396Y-102561842D02*
X73396396Y-102704700D01*
X73396396Y-102704700D02*
X73324967Y-102918985D01*
X73324967Y-102918985D02*
X72467824Y-103776128D01*
X72467824Y-103776128D02*
X73396396Y-103776128D01*
X74324967Y-102276128D02*
X74467824Y-102276128D01*
X74467824Y-102276128D02*
X74610681Y-102347557D01*
X74610681Y-102347557D02*
X74682110Y-102418985D01*
X74682110Y-102418985D02*
X74753538Y-102561842D01*
X74753538Y-102561842D02*
X74824967Y-102847557D01*
X74824967Y-102847557D02*
X74824967Y-103204700D01*
X74824967Y-103204700D02*
X74753538Y-103490414D01*
X74753538Y-103490414D02*
X74682110Y-103633271D01*
X74682110Y-103633271D02*
X74610681Y-103704700D01*
X74610681Y-103704700D02*
X74467824Y-103776128D01*
X74467824Y-103776128D02*
X74324967Y-103776128D01*
X74324967Y-103776128D02*
X74182110Y-103704700D01*
X74182110Y-103704700D02*
X74110681Y-103633271D01*
X74110681Y-103633271D02*
X74039252Y-103490414D01*
X74039252Y-103490414D02*
X73967824Y-103204700D01*
X73967824Y-103204700D02*
X73967824Y-102847557D01*
X73967824Y-102847557D02*
X74039252Y-102561842D01*
X74039252Y-102561842D02*
X74110681Y-102418985D01*
X74110681Y-102418985D02*
X74182110Y-102347557D01*
X74182110Y-102347557D02*
X74324967Y-102276128D01*
D10*
D11*
X30012000Y-104490000D02*
X138012000Y-104490000D01*
D10*
D11*
X31467826Y-106576128D02*
X31467826Y-105076128D01*
X32324969Y-106576128D02*
X31682112Y-105718985D01*
X32324969Y-105076128D02*
X31467826Y-105933271D01*
X32967826Y-106576128D02*
X32967826Y-105576128D01*
X32967826Y-105076128D02*
X32896398Y-105147557D01*
X32896398Y-105147557D02*
X32967826Y-105218985D01*
X32967826Y-105218985D02*
X33039255Y-105147557D01*
X33039255Y-105147557D02*
X32967826Y-105076128D01*
X32967826Y-105076128D02*
X32967826Y-105218985D01*
X34539255Y-106433271D02*
X34467827Y-106504700D01*
X34467827Y-106504700D02*
X34253541Y-106576128D01*
X34253541Y-106576128D02*
X34110684Y-106576128D01*
X34110684Y-106576128D02*
X33896398Y-106504700D01*
X33896398Y-106504700D02*
X33753541Y-106361842D01*
X33753541Y-106361842D02*
X33682112Y-106218985D01*
X33682112Y-106218985D02*
X33610684Y-105933271D01*
X33610684Y-105933271D02*
X33610684Y-105718985D01*
X33610684Y-105718985D02*
X33682112Y-105433271D01*
X33682112Y-105433271D02*
X33753541Y-105290414D01*
X33753541Y-105290414D02*
X33896398Y-105147557D01*
X33896398Y-105147557D02*
X34110684Y-105076128D01*
X34110684Y-105076128D02*
X34253541Y-105076128D01*
X34253541Y-105076128D02*
X34467827Y-105147557D01*
X34467827Y-105147557D02*
X34539255Y-105218985D01*
X35824970Y-106576128D02*
X35824970Y-105790414D01*
X35824970Y-105790414D02*
X35753541Y-105647557D01*
X35753541Y-105647557D02*
X35610684Y-105576128D01*
X35610684Y-105576128D02*
X35324970Y-105576128D01*
X35324970Y-105576128D02*
X35182112Y-105647557D01*
X35824970Y-106504700D02*
X35682112Y-106576128D01*
X35682112Y-106576128D02*
X35324970Y-106576128D01*
X35324970Y-106576128D02*
X35182112Y-106504700D01*
X35182112Y-106504700D02*
X35110684Y-106361842D01*
X35110684Y-106361842D02*
X35110684Y-106218985D01*
X35110684Y-106218985D02*
X35182112Y-106076128D01*
X35182112Y-106076128D02*
X35324970Y-106004700D01*
X35324970Y-106004700D02*
X35682112Y-106004700D01*
X35682112Y-106004700D02*
X35824970Y-105933271D01*
X37182113Y-106576128D02*
X37182113Y-105076128D01*
X37182113Y-106504700D02*
X37039255Y-106576128D01*
X37039255Y-106576128D02*
X36753541Y-106576128D01*
X36753541Y-106576128D02*
X36610684Y-106504700D01*
X36610684Y-106504700D02*
X36539255Y-106433271D01*
X36539255Y-106433271D02*
X36467827Y-106290414D01*
X36467827Y-106290414D02*
X36467827Y-105861842D01*
X36467827Y-105861842D02*
X36539255Y-105718985D01*
X36539255Y-105718985D02*
X36610684Y-105647557D01*
X36610684Y-105647557D02*
X36753541Y-105576128D01*
X36753541Y-105576128D02*
X37039255Y-105576128D01*
X37039255Y-105576128D02*
X37182113Y-105647557D01*
X39039255Y-105790414D02*
X39539255Y-105790414D01*
X39753541Y-106576128D02*
X39039255Y-106576128D01*
X39039255Y-106576128D02*
X39039255Y-105076128D01*
X39039255Y-105076128D02*
X39753541Y-105076128D01*
X40396398Y-106433271D02*
X40467827Y-106504700D01*
X40467827Y-106504700D02*
X40396398Y-106576128D01*
X40396398Y-106576128D02*
X40324970Y-106504700D01*
X40324970Y-106504700D02*
X40396398Y-106433271D01*
X40396398Y-106433271D02*
X40396398Y-106576128D01*
X41110684Y-106576128D02*
X41110684Y-105076128D01*
X41110684Y-105076128D02*
X41467827Y-105076128D01*
X41467827Y-105076128D02*
X41682113Y-105147557D01*
X41682113Y-105147557D02*
X41824970Y-105290414D01*
X41824970Y-105290414D02*
X41896399Y-105433271D01*
X41896399Y-105433271D02*
X41967827Y-105718985D01*
X41967827Y-105718985D02*
X41967827Y-105933271D01*
X41967827Y-105933271D02*
X41896399Y-106218985D01*
X41896399Y-106218985D02*
X41824970Y-106361842D01*
X41824970Y-106361842D02*
X41682113Y-106504700D01*
X41682113Y-106504700D02*
X41467827Y-106576128D01*
X41467827Y-106576128D02*
X41110684Y-106576128D01*
X42610684Y-106433271D02*
X42682113Y-106504700D01*
X42682113Y-106504700D02*
X42610684Y-106576128D01*
X42610684Y-106576128D02*
X42539256Y-106504700D01*
X42539256Y-106504700D02*
X42610684Y-106433271D01*
X42610684Y-106433271D02*
X42610684Y-106576128D01*
X43253542Y-106147557D02*
X43967828Y-106147557D01*
X43110685Y-106576128D02*
X43610685Y-105076128D01*
X43610685Y-105076128D02*
X44110685Y-106576128D01*
X44610684Y-106433271D02*
X44682113Y-106504700D01*
X44682113Y-106504700D02*
X44610684Y-106576128D01*
X44610684Y-106576128D02*
X44539256Y-106504700D01*
X44539256Y-106504700D02*
X44610684Y-106433271D01*
X44610684Y-106433271D02*
X44610684Y-106576128D01*
X46539256Y-106576128D02*
X46824970Y-106576128D01*
X46824970Y-106576128D02*
X46967827Y-106504700D01*
X46967827Y-106504700D02*
X47039256Y-106433271D01*
X47039256Y-106433271D02*
X47182113Y-106218985D01*
X47182113Y-106218985D02*
X47253542Y-105933271D01*
X47253542Y-105933271D02*
X47253542Y-105361842D01*
X47253542Y-105361842D02*
X47182113Y-105218985D01*
X47182113Y-105218985D02*
X47110685Y-105147557D01*
X47110685Y-105147557D02*
X46967827Y-105076128D01*
X46967827Y-105076128D02*
X46682113Y-105076128D01*
X46682113Y-105076128D02*
X46539256Y-105147557D01*
X46539256Y-105147557D02*
X46467827Y-105218985D01*
X46467827Y-105218985D02*
X46396399Y-105361842D01*
X46396399Y-105361842D02*
X46396399Y-105718985D01*
X46396399Y-105718985D02*
X46467827Y-105861842D01*
X46467827Y-105861842D02*
X46539256Y-105933271D01*
X46539256Y-105933271D02*
X46682113Y-106004700D01*
X46682113Y-106004700D02*
X46967827Y-106004700D01*
X46967827Y-106004700D02*
X47110685Y-105933271D01*
X47110685Y-105933271D02*
X47182113Y-105861842D01*
X47182113Y-105861842D02*
X47253542Y-105718985D01*
X47896398Y-106433271D02*
X47967827Y-106504700D01*
X47967827Y-106504700D02*
X47896398Y-106576128D01*
X47896398Y-106576128D02*
X47824970Y-106504700D01*
X47824970Y-106504700D02*
X47896398Y-106433271D01*
X47896398Y-106433271D02*
X47896398Y-106576128D01*
X48896399Y-105076128D02*
X49039256Y-105076128D01*
X49039256Y-105076128D02*
X49182113Y-105147557D01*
X49182113Y-105147557D02*
X49253542Y-105218985D01*
X49253542Y-105218985D02*
X49324970Y-105361842D01*
X49324970Y-105361842D02*
X49396399Y-105647557D01*
X49396399Y-105647557D02*
X49396399Y-106004700D01*
X49396399Y-106004700D02*
X49324970Y-106290414D01*
X49324970Y-106290414D02*
X49253542Y-106433271D01*
X49253542Y-106433271D02*
X49182113Y-106504700D01*
X49182113Y-106504700D02*
X49039256Y-106576128D01*
X49039256Y-106576128D02*
X48896399Y-106576128D01*
X48896399Y-106576128D02*
X48753542Y-106504700D01*
X48753542Y-106504700D02*
X48682113Y-106433271D01*
X48682113Y-106433271D02*
X48610684Y-106290414D01*
X48610684Y-106290414D02*
X48539256Y-106004700D01*
X48539256Y-106004700D02*
X48539256Y-105647557D01*
X48539256Y-105647557D02*
X48610684Y-105361842D01*
X48610684Y-105361842D02*
X48682113Y-105218985D01*
X48682113Y-105218985D02*
X48753542Y-105147557D01*
X48753542Y-105147557D02*
X48896399Y-105076128D01*
X50039255Y-106433271D02*
X50110684Y-106504700D01*
X50110684Y-106504700D02*
X50039255Y-106576128D01*
X50039255Y-106576128D02*
X49967827Y-106504700D01*
X49967827Y-106504700D02*
X50039255Y-106433271D01*
X50039255Y-106433271D02*
X50039255Y-106576128D01*
X51039256Y-105076128D02*
X51182113Y-105076128D01*
X51182113Y-105076128D02*
X51324970Y-105147557D01*
X51324970Y-105147557D02*
X51396399Y-105218985D01*
X51396399Y-105218985D02*
X51467827Y-105361842D01*
X51467827Y-105361842D02*
X51539256Y-105647557D01*
X51539256Y-105647557D02*
X51539256Y-106004700D01*
X51539256Y-106004700D02*
X51467827Y-106290414D01*
X51467827Y-106290414D02*
X51396399Y-106433271D01*
X51396399Y-106433271D02*
X51324970Y-106504700D01*
X51324970Y-106504700D02*
X51182113Y-106576128D01*
X51182113Y-106576128D02*
X51039256Y-106576128D01*
X51039256Y-106576128D02*
X50896399Y-106504700D01*
X50896399Y-106504700D02*
X50824970Y-106433271D01*
X50824970Y-106433271D02*
X50753541Y-106290414D01*
X50753541Y-106290414D02*
X50682113Y-106004700D01*
X50682113Y-106004700D02*
X50682113Y-105647557D01*
X50682113Y-105647557D02*
X50753541Y-105361842D01*
X50753541Y-105361842D02*
X50824970Y-105218985D01*
X50824970Y-105218985D02*
X50896399Y-105147557D01*
X50896399Y-105147557D02*
X51039256Y-105076128D01*
D10*
D11*
X30012000Y-101490000D02*
X138012000Y-101490000D01*
D10*
D12*
X117423653Y-103768328D02*
X116923653Y-103054042D01*
X116566510Y-103768328D02*
X116566510Y-102268328D01*
X116566510Y-102268328D02*
X117137939Y-102268328D01*
X117137939Y-102268328D02*
X117280796Y-102339757D01*
X117280796Y-102339757D02*
X117352225Y-102411185D01*
X117352225Y-102411185D02*
X117423653Y-102554042D01*
X117423653Y-102554042D02*
X117423653Y-102768328D01*
X117423653Y-102768328D02*
X117352225Y-102911185D01*
X117352225Y-102911185D02*
X117280796Y-102982614D01*
X117280796Y-102982614D02*
X117137939Y-103054042D01*
X117137939Y-103054042D02*
X116566510Y-103054042D01*
X118637939Y-103696900D02*
X118495082Y-103768328D01*
X118495082Y-103768328D02*
X118209368Y-103768328D01*
X118209368Y-103768328D02*
X118066510Y-103696900D01*
X118066510Y-103696900D02*
X117995082Y-103554042D01*
X117995082Y-103554042D02*
X117995082Y-102982614D01*
X117995082Y-102982614D02*
X118066510Y-102839757D01*
X118066510Y-102839757D02*
X118209368Y-102768328D01*
X118209368Y-102768328D02*
X118495082Y-102768328D01*
X118495082Y-102768328D02*
X118637939Y-102839757D01*
X118637939Y-102839757D02*
X118709368Y-102982614D01*
X118709368Y-102982614D02*
X118709368Y-103125471D01*
X118709368Y-103125471D02*
X117995082Y-103268328D01*
X119209367Y-102768328D02*
X119566510Y-103768328D01*
X119566510Y-103768328D02*
X119923653Y-102768328D01*
X120495081Y-103625471D02*
X120566510Y-103696900D01*
X120566510Y-103696900D02*
X120495081Y-103768328D01*
X120495081Y-103768328D02*
X120423653Y-103696900D01*
X120423653Y-103696900D02*
X120495081Y-103625471D01*
X120495081Y-103625471D02*
X120495081Y-103768328D01*
X120495081Y-102839757D02*
X120566510Y-102911185D01*
X120566510Y-102911185D02*
X120495081Y-102982614D01*
X120495081Y-102982614D02*
X120423653Y-102911185D01*
X120423653Y-102911185D02*
X120495081Y-102839757D01*
X120495081Y-102839757D02*
X120495081Y-102982614D01*
X123137939Y-103768328D02*
X122280796Y-103768328D01*
X122709367Y-103768328D02*
X122709367Y-102268328D01*
X122709367Y-102268328D02*
X122566510Y-102482614D01*
X122566510Y-102482614D02*
X122423653Y-102625471D01*
X122423653Y-102625471D02*
X122280796Y-102696900D01*
X123780795Y-103625471D02*
X123852224Y-103696900D01*
X123852224Y-103696900D02*
X123780795Y-103768328D01*
X123780795Y-103768328D02*
X123709367Y-103696900D01*
X123709367Y-103696900D02*
X123780795Y-103625471D01*
X123780795Y-103625471D02*
X123780795Y-103768328D01*
X124780796Y-102268328D02*
X124923653Y-102268328D01*
X124923653Y-102268328D02*
X125066510Y-102339757D01*
X125066510Y-102339757D02*
X125137939Y-102411185D01*
X125137939Y-102411185D02*
X125209367Y-102554042D01*
X125209367Y-102554042D02*
X125280796Y-102839757D01*
X125280796Y-102839757D02*
X125280796Y-103196900D01*
X125280796Y-103196900D02*
X125209367Y-103482614D01*
X125209367Y-103482614D02*
X125137939Y-103625471D01*
X125137939Y-103625471D02*
X125066510Y-103696900D01*
X125066510Y-103696900D02*
X124923653Y-103768328D01*
X124923653Y-103768328D02*
X124780796Y-103768328D01*
X124780796Y-103768328D02*
X124637939Y-103696900D01*
X124637939Y-103696900D02*
X124566510Y-103625471D01*
X124566510Y-103625471D02*
X124495081Y-103482614D01*
X124495081Y-103482614D02*
X124423653Y-103196900D01*
X124423653Y-103196900D02*
X124423653Y-102839757D01*
X124423653Y-102839757D02*
X124495081Y-102554042D01*
X124495081Y-102554042D02*
X124566510Y-102411185D01*
X124566510Y-102411185D02*
X124637939Y-102339757D01*
X124637939Y-102339757D02*
X124780796Y-102268328D01*
X125923652Y-103625471D02*
X125995081Y-103696900D01*
X125995081Y-103696900D02*
X125923652Y-103768328D01*
X125923652Y-103768328D02*
X125852224Y-103696900D01*
X125852224Y-103696900D02*
X125923652Y-103625471D01*
X125923652Y-103625471D02*
X125923652Y-103768328D01*
X127423653Y-103768328D02*
X126566510Y-103768328D01*
X126995081Y-103768328D02*
X126995081Y-102268328D01*
X126995081Y-102268328D02*
X126852224Y-102482614D01*
X126852224Y-102482614D02*
X126709367Y-102625471D01*
X126709367Y-102625471D02*
X126566510Y-102696900D01*
D10*
D11*
X31396398Y-103704700D02*
X31610684Y-103776128D01*
X31610684Y-103776128D02*
X31967826Y-103776128D01*
X31967826Y-103776128D02*
X32110684Y-103704700D01*
X32110684Y-103704700D02*
X32182112Y-103633271D01*
X32182112Y-103633271D02*
X32253541Y-103490414D01*
X32253541Y-103490414D02*
X32253541Y-103347557D01*
X32253541Y-103347557D02*
X32182112Y-103204700D01*
X32182112Y-103204700D02*
X32110684Y-103133271D01*
X32110684Y-103133271D02*
X31967826Y-103061842D01*
X31967826Y-103061842D02*
X31682112Y-102990414D01*
X31682112Y-102990414D02*
X31539255Y-102918985D01*
X31539255Y-102918985D02*
X31467826Y-102847557D01*
X31467826Y-102847557D02*
X31396398Y-102704700D01*
X31396398Y-102704700D02*
X31396398Y-102561842D01*
X31396398Y-102561842D02*
X31467826Y-102418985D01*
X31467826Y-102418985D02*
X31539255Y-102347557D01*
X31539255Y-102347557D02*
X31682112Y-102276128D01*
X31682112Y-102276128D02*
X32039255Y-102276128D01*
X32039255Y-102276128D02*
X32253541Y-102347557D01*
X32896397Y-103776128D02*
X32896397Y-102776128D01*
X32896397Y-102276128D02*
X32824969Y-102347557D01*
X32824969Y-102347557D02*
X32896397Y-102418985D01*
X32896397Y-102418985D02*
X32967826Y-102347557D01*
X32967826Y-102347557D02*
X32896397Y-102276128D01*
X32896397Y-102276128D02*
X32896397Y-102418985D01*
X33467826Y-102776128D02*
X34253541Y-102776128D01*
X34253541Y-102776128D02*
X33467826Y-103776128D01*
X33467826Y-103776128D02*
X34253541Y-103776128D01*
X35396398Y-103704700D02*
X35253541Y-103776128D01*
X35253541Y-103776128D02*
X34967827Y-103776128D01*
X34967827Y-103776128D02*
X34824969Y-103704700D01*
X34824969Y-103704700D02*
X34753541Y-103561842D01*
X34753541Y-103561842D02*
X34753541Y-102990414D01*
X34753541Y-102990414D02*
X34824969Y-102847557D01*
X34824969Y-102847557D02*
X34967827Y-102776128D01*
X34967827Y-102776128D02*
X35253541Y-102776128D01*
X35253541Y-102776128D02*
X35396398Y-102847557D01*
X35396398Y-102847557D02*
X35467827Y-102990414D01*
X35467827Y-102990414D02*
X35467827Y-103133271D01*
X35467827Y-103133271D02*
X34753541Y-103276128D01*
X36110683Y-103633271D02*
X36182112Y-103704700D01*
X36182112Y-103704700D02*
X36110683Y-103776128D01*
X36110683Y-103776128D02*
X36039255Y-103704700D01*
X36039255Y-103704700D02*
X36110683Y-103633271D01*
X36110683Y-103633271D02*
X36110683Y-103776128D01*
X36110683Y-102847557D02*
X36182112Y-102918985D01*
X36182112Y-102918985D02*
X36110683Y-102990414D01*
X36110683Y-102990414D02*
X36039255Y-102918985D01*
X36039255Y-102918985D02*
X36110683Y-102847557D01*
X36110683Y-102847557D02*
X36110683Y-102990414D01*
X37967826Y-102276128D02*
X37967826Y-103490414D01*
X37967826Y-103490414D02*
X38039255Y-103633271D01*
X38039255Y-103633271D02*
X38110684Y-103704700D01*
X38110684Y-103704700D02*
X38253541Y-103776128D01*
X38253541Y-103776128D02*
X38539255Y-103776128D01*
X38539255Y-103776128D02*
X38682112Y-103704700D01*
X38682112Y-103704700D02*
X38753541Y-103633271D01*
X38753541Y-103633271D02*
X38824969Y-103490414D01*
X38824969Y-103490414D02*
X38824969Y-102276128D01*
X39467827Y-103704700D02*
X39610684Y-103776128D01*
X39610684Y-103776128D02*
X39896398Y-103776128D01*
X39896398Y-103776128D02*
X40039255Y-103704700D01*
X40039255Y-103704700D02*
X40110684Y-103561842D01*
X40110684Y-103561842D02*
X40110684Y-103490414D01*
X40110684Y-103490414D02*
X40039255Y-103347557D01*
X40039255Y-103347557D02*
X39896398Y-103276128D01*
X39896398Y-103276128D02*
X39682113Y-103276128D01*
X39682113Y-103276128D02*
X39539255Y-103204700D01*
X39539255Y-103204700D02*
X39467827Y-103061842D01*
X39467827Y-103061842D02*
X39467827Y-102990414D01*
X39467827Y-102990414D02*
X39539255Y-102847557D01*
X39539255Y-102847557D02*
X39682113Y-102776128D01*
X39682113Y-102776128D02*
X39896398Y-102776128D01*
X39896398Y-102776128D02*
X40039255Y-102847557D01*
X41324970Y-103704700D02*
X41182113Y-103776128D01*
X41182113Y-103776128D02*
X40896399Y-103776128D01*
X40896399Y-103776128D02*
X40753541Y-103704700D01*
X40753541Y-103704700D02*
X40682113Y-103561842D01*
X40682113Y-103561842D02*
X40682113Y-102990414D01*
X40682113Y-102990414D02*
X40753541Y-102847557D01*
X40753541Y-102847557D02*
X40896399Y-102776128D01*
X40896399Y-102776128D02*
X41182113Y-102776128D01*
X41182113Y-102776128D02*
X41324970Y-102847557D01*
X41324970Y-102847557D02*
X41396399Y-102990414D01*
X41396399Y-102990414D02*
X41396399Y-103133271D01*
X41396399Y-103133271D02*
X40682113Y-103276128D01*
X42039255Y-103776128D02*
X42039255Y-102776128D01*
X42039255Y-103061842D02*
X42110684Y-102918985D01*
X42110684Y-102918985D02*
X42182113Y-102847557D01*
X42182113Y-102847557D02*
X42324970Y-102776128D01*
X42324970Y-102776128D02*
X42467827Y-102776128D01*
D10*
D11*
X116467826Y-106576128D02*
X116467826Y-105076128D01*
X117824970Y-106576128D02*
X117824970Y-105076128D01*
X117824970Y-106504700D02*
X117682112Y-106576128D01*
X117682112Y-106576128D02*
X117396398Y-106576128D01*
X117396398Y-106576128D02*
X117253541Y-106504700D01*
X117253541Y-106504700D02*
X117182112Y-106433271D01*
X117182112Y-106433271D02*
X117110684Y-106290414D01*
X117110684Y-106290414D02*
X117110684Y-105861842D01*
X117110684Y-105861842D02*
X117182112Y-105718985D01*
X117182112Y-105718985D02*
X117253541Y-105647557D01*
X117253541Y-105647557D02*
X117396398Y-105576128D01*
X117396398Y-105576128D02*
X117682112Y-105576128D01*
X117682112Y-105576128D02*
X117824970Y-105647557D01*
X118539255Y-106433271D02*
X118610684Y-106504700D01*
X118610684Y-106504700D02*
X118539255Y-106576128D01*
X118539255Y-106576128D02*
X118467827Y-106504700D01*
X118467827Y-106504700D02*
X118539255Y-106433271D01*
X118539255Y-106433271D02*
X118539255Y-106576128D01*
X118539255Y-105647557D02*
X118610684Y-105718985D01*
X118610684Y-105718985D02*
X118539255Y-105790414D01*
X118539255Y-105790414D02*
X118467827Y-105718985D01*
X118467827Y-105718985D02*
X118539255Y-105647557D01*
X118539255Y-105647557D02*
X118539255Y-105790414D01*
X120324970Y-105218985D02*
X120396398Y-105147557D01*
X120396398Y-105147557D02*
X120539256Y-105076128D01*
X120539256Y-105076128D02*
X120896398Y-105076128D01*
X120896398Y-105076128D02*
X121039256Y-105147557D01*
X121039256Y-105147557D02*
X121110684Y-105218985D01*
X121110684Y-105218985D02*
X121182113Y-105361842D01*
X121182113Y-105361842D02*
X121182113Y-105504700D01*
X121182113Y-105504700D02*
X121110684Y-105718985D01*
X121110684Y-105718985D02*
X120253541Y-106576128D01*
X120253541Y-106576128D02*
X121182113Y-106576128D01*
X122896398Y-105004700D02*
X121610684Y-106933271D01*
X123467827Y-106576128D02*
X123753541Y-106576128D01*
X123753541Y-106576128D02*
X123896398Y-106504700D01*
X123896398Y-106504700D02*
X123967827Y-106433271D01*
X123967827Y-106433271D02*
X124110684Y-106218985D01*
X124110684Y-106218985D02*
X124182113Y-105933271D01*
X124182113Y-105933271D02*
X124182113Y-105361842D01*
X124182113Y-105361842D02*
X124110684Y-105218985D01*
X124110684Y-105218985D02*
X124039256Y-105147557D01*
X124039256Y-105147557D02*
X123896398Y-105076128D01*
X123896398Y-105076128D02*
X123610684Y-105076128D01*
X123610684Y-105076128D02*
X123467827Y-105147557D01*
X123467827Y-105147557D02*
X123396398Y-105218985D01*
X123396398Y-105218985D02*
X123324970Y-105361842D01*
X123324970Y-105361842D02*
X123324970Y-105718985D01*
X123324970Y-105718985D02*
X123396398Y-105861842D01*
X123396398Y-105861842D02*
X123467827Y-105933271D01*
X123467827Y-105933271D02*
X123610684Y-106004700D01*
X123610684Y-106004700D02*
X123896398Y-106004700D01*
X123896398Y-106004700D02*
X124039256Y-105933271D01*
X124039256Y-105933271D02*
X124110684Y-105861842D01*
X124110684Y-105861842D02*
X124182113Y-105718985D01*
D10*
D11*
X30012000Y-97490000D02*
X138012000Y-97490000D01*
D10*
D13*
X31703728Y-98194438D02*
X32846585Y-98194438D01*
X32025157Y-100194438D02*
X32275157Y-98194438D01*
X33263252Y-100194438D02*
X33429919Y-98861104D01*
X33513252Y-98194438D02*
X33406109Y-98289676D01*
X33406109Y-98289676D02*
X33489443Y-98384914D01*
X33489443Y-98384914D02*
X33596586Y-98289676D01*
X33596586Y-98289676D02*
X33513252Y-98194438D01*
X33513252Y-98194438D02*
X33489443Y-98384914D01*
X34096586Y-98861104D02*
X34858490Y-98861104D01*
X34465633Y-98194438D02*
X34251348Y-99908723D01*
X34251348Y-99908723D02*
X34322776Y-100099200D01*
X34322776Y-100099200D02*
X34501348Y-100194438D01*
X34501348Y-100194438D02*
X34691824Y-100194438D01*
X35644205Y-100194438D02*
X35465633Y-100099200D01*
X35465633Y-100099200D02*
X35394205Y-99908723D01*
X35394205Y-99908723D02*
X35608490Y-98194438D01*
X37179919Y-100099200D02*
X36977538Y-100194438D01*
X36977538Y-100194438D02*
X36596585Y-100194438D01*
X36596585Y-100194438D02*
X36418014Y-100099200D01*
X36418014Y-100099200D02*
X36346585Y-99908723D01*
X36346585Y-99908723D02*
X36441824Y-99146819D01*
X36441824Y-99146819D02*
X36560871Y-98956342D01*
X36560871Y-98956342D02*
X36763252Y-98861104D01*
X36763252Y-98861104D02*
X37144204Y-98861104D01*
X37144204Y-98861104D02*
X37322776Y-98956342D01*
X37322776Y-98956342D02*
X37394204Y-99146819D01*
X37394204Y-99146819D02*
X37370395Y-99337295D01*
X37370395Y-99337295D02*
X36394204Y-99527771D01*
X38144205Y-100003961D02*
X38227538Y-100099200D01*
X38227538Y-100099200D02*
X38120395Y-100194438D01*
X38120395Y-100194438D02*
X38037062Y-100099200D01*
X38037062Y-100099200D02*
X38144205Y-100003961D01*
X38144205Y-100003961D02*
X38120395Y-100194438D01*
X38275157Y-98956342D02*
X38358490Y-99051580D01*
X38358490Y-99051580D02*
X38251348Y-99146819D01*
X38251348Y-99146819D02*
X38168014Y-99051580D01*
X38168014Y-99051580D02*
X38275157Y-98956342D01*
X38275157Y-98956342D02*
X38251348Y-99146819D01*
X40596586Y-100194438D02*
X40846586Y-98194438D01*
X40846586Y-98194438D02*
X41739443Y-100194438D01*
X41739443Y-100194438D02*
X41989443Y-98194438D01*
X42822777Y-99146819D02*
X43489443Y-99146819D01*
X43644205Y-100194438D02*
X42691824Y-100194438D01*
X42691824Y-100194438D02*
X42941824Y-98194438D01*
X42941824Y-98194438D02*
X43894205Y-98194438D01*
X45644205Y-100194438D02*
X45096586Y-99242057D01*
X44501348Y-100194438D02*
X44751348Y-98194438D01*
X44751348Y-98194438D02*
X45513253Y-98194438D01*
X45513253Y-98194438D02*
X45691824Y-98289676D01*
X45691824Y-98289676D02*
X45775158Y-98384914D01*
X45775158Y-98384914D02*
X45846586Y-98575390D01*
X45846586Y-98575390D02*
X45810872Y-98861104D01*
X45810872Y-98861104D02*
X45691824Y-99051580D01*
X45691824Y-99051580D02*
X45584682Y-99146819D01*
X45584682Y-99146819D02*
X45382301Y-99242057D01*
X45382301Y-99242057D02*
X44620396Y-99242057D01*
X46465634Y-98194438D02*
X46882301Y-100194438D01*
X46882301Y-100194438D02*
X47798967Y-98194438D01*
X48846587Y-98194438D02*
X49227539Y-98194438D01*
X49227539Y-98194438D02*
X49406110Y-98289676D01*
X49406110Y-98289676D02*
X49572777Y-98480152D01*
X49572777Y-98480152D02*
X49620396Y-98861104D01*
X49620396Y-98861104D02*
X49537063Y-99527771D01*
X49537063Y-99527771D02*
X49394206Y-99908723D01*
X49394206Y-99908723D02*
X49179920Y-100099200D01*
X49179920Y-100099200D02*
X48977539Y-100194438D01*
X48977539Y-100194438D02*
X48596587Y-100194438D01*
X48596587Y-100194438D02*
X48418015Y-100099200D01*
X48418015Y-100099200D02*
X48251349Y-99908723D01*
X48251349Y-99908723D02*
X48203729Y-99527771D01*
X48203729Y-99527771D02*
X48287063Y-98861104D01*
X48287063Y-98861104D02*
X48429920Y-98480152D01*
X48429920Y-98480152D02*
X48644206Y-98289676D01*
X48644206Y-98289676D02*
X48846587Y-98194438D01*
X50560872Y-98194438D02*
X50358491Y-99813485D01*
X50358491Y-99813485D02*
X50429920Y-100003961D01*
X50429920Y-100003961D02*
X50513253Y-100099200D01*
X50513253Y-100099200D02*
X50691825Y-100194438D01*
X50691825Y-100194438D02*
X51072777Y-100194438D01*
X51072777Y-100194438D02*
X51275158Y-100099200D01*
X51275158Y-100099200D02*
X51382301Y-100003961D01*
X51382301Y-100003961D02*
X51501348Y-99813485D01*
X51501348Y-99813485D02*
X51703729Y-98194438D01*
X52322777Y-100099200D02*
X52596586Y-100194438D01*
X52596586Y-100194438D02*
X53072777Y-100194438D01*
X53072777Y-100194438D02*
X53275158Y-100099200D01*
X53275158Y-100099200D02*
X53382301Y-100003961D01*
X53382301Y-100003961D02*
X53501348Y-99813485D01*
X53501348Y-99813485D02*
X53525158Y-99623009D01*
X53525158Y-99623009D02*
X53453729Y-99432533D01*
X53453729Y-99432533D02*
X53370396Y-99337295D01*
X53370396Y-99337295D02*
X53191825Y-99242057D01*
X53191825Y-99242057D02*
X52822777Y-99146819D01*
X52822777Y-99146819D02*
X52644205Y-99051580D01*
X52644205Y-99051580D02*
X52560872Y-98956342D01*
X52560872Y-98956342D02*
X52489444Y-98765866D01*
X52489444Y-98765866D02*
X52513253Y-98575390D01*
X52513253Y-98575390D02*
X52632301Y-98384914D01*
X52632301Y-98384914D02*
X52739444Y-98289676D01*
X52739444Y-98289676D02*
X52941825Y-98194438D01*
X52941825Y-98194438D02*
X53418015Y-98194438D01*
X53418015Y-98194438D02*
X53691825Y-98289676D01*
X55929920Y-99432533D02*
X57453730Y-99432533D01*
X59965635Y-99146819D02*
X60632301Y-99146819D01*
X60787063Y-100194438D02*
X59834682Y-100194438D01*
X59834682Y-100194438D02*
X60084682Y-98194438D01*
X60084682Y-98194438D02*
X61037063Y-98194438D01*
X61644206Y-100194438D02*
X61894206Y-98194438D01*
X61894206Y-98194438D02*
X62370397Y-98194438D01*
X62370397Y-98194438D02*
X62644206Y-98289676D01*
X62644206Y-98289676D02*
X62810873Y-98480152D01*
X62810873Y-98480152D02*
X62882301Y-98670628D01*
X62882301Y-98670628D02*
X62929921Y-99051580D01*
X62929921Y-99051580D02*
X62894206Y-99337295D01*
X62894206Y-99337295D02*
X62751349Y-99718247D01*
X62751349Y-99718247D02*
X62632301Y-99908723D01*
X62632301Y-99908723D02*
X62418016Y-100099200D01*
X62418016Y-100099200D02*
X62120397Y-100194438D01*
X62120397Y-100194438D02*
X61644206Y-100194438D01*
X63620397Y-99623009D02*
X64572778Y-99623009D01*
X63358492Y-100194438D02*
X64275159Y-98194438D01*
X64275159Y-98194438D02*
X64691825Y-100194438D01*
X66798969Y-100099200D02*
X67072778Y-100194438D01*
X67072778Y-100194438D02*
X67548969Y-100194438D01*
X67548969Y-100194438D02*
X67751350Y-100099200D01*
X67751350Y-100099200D02*
X67858493Y-100003961D01*
X67858493Y-100003961D02*
X67977540Y-99813485D01*
X67977540Y-99813485D02*
X68001350Y-99623009D01*
X68001350Y-99623009D02*
X67929921Y-99432533D01*
X67929921Y-99432533D02*
X67846588Y-99337295D01*
X67846588Y-99337295D02*
X67668017Y-99242057D01*
X67668017Y-99242057D02*
X67298969Y-99146819D01*
X67298969Y-99146819D02*
X67120397Y-99051580D01*
X67120397Y-99051580D02*
X67037064Y-98956342D01*
X67037064Y-98956342D02*
X66965636Y-98765866D01*
X66965636Y-98765866D02*
X66989445Y-98575390D01*
X66989445Y-98575390D02*
X67108493Y-98384914D01*
X67108493Y-98384914D02*
X67215636Y-98289676D01*
X67215636Y-98289676D02*
X67418017Y-98194438D01*
X67418017Y-98194438D02*
X67894207Y-98194438D01*
X67894207Y-98194438D02*
X68168017Y-98289676D01*
X69560874Y-100099200D02*
X69358493Y-100194438D01*
X69358493Y-100194438D02*
X68977540Y-100194438D01*
X68977540Y-100194438D02*
X68798969Y-100099200D01*
X68798969Y-100099200D02*
X68727540Y-99908723D01*
X68727540Y-99908723D02*
X68822779Y-99146819D01*
X68822779Y-99146819D02*
X68941826Y-98956342D01*
X68941826Y-98956342D02*
X69144207Y-98861104D01*
X69144207Y-98861104D02*
X69525159Y-98861104D01*
X69525159Y-98861104D02*
X69703731Y-98956342D01*
X69703731Y-98956342D02*
X69775159Y-99146819D01*
X69775159Y-99146819D02*
X69751350Y-99337295D01*
X69751350Y-99337295D02*
X68775159Y-99527771D01*
X70668017Y-98861104D02*
X70501350Y-100194438D01*
X70644207Y-99051580D02*
X70751350Y-98956342D01*
X70751350Y-98956342D02*
X70953731Y-98861104D01*
X70953731Y-98861104D02*
X71239445Y-98861104D01*
X71239445Y-98861104D02*
X71418017Y-98956342D01*
X71418017Y-98956342D02*
X71489445Y-99146819D01*
X71489445Y-99146819D02*
X71358493Y-100194438D01*
X72227541Y-100099200D02*
X72406112Y-100194438D01*
X72406112Y-100194438D02*
X72787065Y-100194438D01*
X72787065Y-100194438D02*
X72989446Y-100099200D01*
X72989446Y-100099200D02*
X73108493Y-99908723D01*
X73108493Y-99908723D02*
X73120398Y-99813485D01*
X73120398Y-99813485D02*
X73048969Y-99623009D01*
X73048969Y-99623009D02*
X72870398Y-99527771D01*
X72870398Y-99527771D02*
X72584684Y-99527771D01*
X72584684Y-99527771D02*
X72406112Y-99432533D01*
X72406112Y-99432533D02*
X72334684Y-99242057D01*
X72334684Y-99242057D02*
X72346589Y-99146819D01*
X72346589Y-99146819D02*
X72465636Y-98956342D01*
X72465636Y-98956342D02*
X72668017Y-98861104D01*
X72668017Y-98861104D02*
X72953731Y-98861104D01*
X72953731Y-98861104D02*
X73132303Y-98956342D01*
X74215637Y-100194438D02*
X74037065Y-100099200D01*
X74037065Y-100099200D02*
X73953732Y-100003961D01*
X73953732Y-100003961D02*
X73882303Y-99813485D01*
X73882303Y-99813485D02*
X73953732Y-99242057D01*
X73953732Y-99242057D02*
X74072779Y-99051580D01*
X74072779Y-99051580D02*
X74179922Y-98956342D01*
X74179922Y-98956342D02*
X74382303Y-98861104D01*
X74382303Y-98861104D02*
X74668017Y-98861104D01*
X74668017Y-98861104D02*
X74846589Y-98956342D01*
X74846589Y-98956342D02*
X74929922Y-99051580D01*
X74929922Y-99051580D02*
X75001351Y-99242057D01*
X75001351Y-99242057D02*
X74929922Y-99813485D01*
X74929922Y-99813485D02*
X74810875Y-100003961D01*
X74810875Y-100003961D02*
X74703732Y-100099200D01*
X74703732Y-100099200D02*
X74501351Y-100194438D01*
X74501351Y-100194438D02*
X74215637Y-100194438D01*
X75739446Y-100194438D02*
X75906113Y-98861104D01*
X75858494Y-99242057D02*
X75977541Y-99051580D01*
X75977541Y-99051580D02*
X76084684Y-98956342D01*
X76084684Y-98956342D02*
X76287065Y-98861104D01*
X76287065Y-98861104D02*
X76477541Y-98861104D01*
D10*
D11*
X31967826Y-95590414D02*
X31467826Y-95590414D01*
X31467826Y-96376128D02*
X31467826Y-94876128D01*
X31467826Y-94876128D02*
X32182112Y-94876128D01*
X32753540Y-96376128D02*
X32753540Y-95376128D01*
X32753540Y-94876128D02*
X32682112Y-94947557D01*
X32682112Y-94947557D02*
X32753540Y-95018985D01*
X32753540Y-95018985D02*
X32824969Y-94947557D01*
X32824969Y-94947557D02*
X32753540Y-94876128D01*
X32753540Y-94876128D02*
X32753540Y-95018985D01*
X33682112Y-96376128D02*
X33539255Y-96304700D01*
X33539255Y-96304700D02*
X33467826Y-96161842D01*
X33467826Y-96161842D02*
X33467826Y-94876128D01*
X34824969Y-96304700D02*
X34682112Y-96376128D01*
X34682112Y-96376128D02*
X34396398Y-96376128D01*
X34396398Y-96376128D02*
X34253540Y-96304700D01*
X34253540Y-96304700D02*
X34182112Y-96161842D01*
X34182112Y-96161842D02*
X34182112Y-95590414D01*
X34182112Y-95590414D02*
X34253540Y-95447557D01*
X34253540Y-95447557D02*
X34396398Y-95376128D01*
X34396398Y-95376128D02*
X34682112Y-95376128D01*
X34682112Y-95376128D02*
X34824969Y-95447557D01*
X34824969Y-95447557D02*
X34896398Y-95590414D01*
X34896398Y-95590414D02*
X34896398Y-95733271D01*
X34896398Y-95733271D02*
X34182112Y-95876128D01*
X35539254Y-96233271D02*
X35610683Y-96304700D01*
X35610683Y-96304700D02*
X35539254Y-96376128D01*
X35539254Y-96376128D02*
X35467826Y-96304700D01*
X35467826Y-96304700D02*
X35539254Y-96233271D01*
X35539254Y-96233271D02*
X35539254Y-96376128D01*
X35539254Y-95447557D02*
X35610683Y-95518985D01*
X35610683Y-95518985D02*
X35539254Y-95590414D01*
X35539254Y-95590414D02*
X35467826Y-95518985D01*
X35467826Y-95518985D02*
X35539254Y-95447557D01*
X35539254Y-95447557D02*
X35539254Y-95590414D01*
X37396397Y-95376128D02*
X37396397Y-96376128D01*
X37396397Y-95518985D02*
X37467826Y-95447557D01*
X37467826Y-95447557D02*
X37610683Y-95376128D01*
X37610683Y-95376128D02*
X37824969Y-95376128D01*
X37824969Y-95376128D02*
X37967826Y-95447557D01*
X37967826Y-95447557D02*
X38039255Y-95590414D01*
X38039255Y-95590414D02*
X38039255Y-96376128D01*
X39324969Y-96304700D02*
X39182112Y-96376128D01*
X39182112Y-96376128D02*
X38896398Y-96376128D01*
X38896398Y-96376128D02*
X38753540Y-96304700D01*
X38753540Y-96304700D02*
X38682112Y-96161842D01*
X38682112Y-96161842D02*
X38682112Y-95590414D01*
X38682112Y-95590414D02*
X38753540Y-95447557D01*
X38753540Y-95447557D02*
X38896398Y-95376128D01*
X38896398Y-95376128D02*
X39182112Y-95376128D01*
X39182112Y-95376128D02*
X39324969Y-95447557D01*
X39324969Y-95447557D02*
X39396398Y-95590414D01*
X39396398Y-95590414D02*
X39396398Y-95733271D01*
X39396398Y-95733271D02*
X38682112Y-95876128D01*
X40039254Y-96376128D02*
X40039254Y-95376128D01*
X40039254Y-95661842D02*
X40110683Y-95518985D01*
X40110683Y-95518985D02*
X40182112Y-95447557D01*
X40182112Y-95447557D02*
X40324969Y-95376128D01*
X40324969Y-95376128D02*
X40467826Y-95376128D01*
X40824968Y-95376128D02*
X41182111Y-96376128D01*
X41182111Y-96376128D02*
X41539254Y-95376128D01*
X42324968Y-96376128D02*
X42182111Y-96304700D01*
X42182111Y-96304700D02*
X42110682Y-96233271D01*
X42110682Y-96233271D02*
X42039254Y-96090414D01*
X42039254Y-96090414D02*
X42039254Y-95661842D01*
X42039254Y-95661842D02*
X42110682Y-95518985D01*
X42110682Y-95518985D02*
X42182111Y-95447557D01*
X42182111Y-95447557D02*
X42324968Y-95376128D01*
X42324968Y-95376128D02*
X42539254Y-95376128D01*
X42539254Y-95376128D02*
X42682111Y-95447557D01*
X42682111Y-95447557D02*
X42753540Y-95518985D01*
X42753540Y-95518985D02*
X42824968Y-95661842D01*
X42824968Y-95661842D02*
X42824968Y-96090414D01*
X42824968Y-96090414D02*
X42753540Y-96233271D01*
X42753540Y-96233271D02*
X42682111Y-96304700D01*
X42682111Y-96304700D02*
X42539254Y-96376128D01*
X42539254Y-96376128D02*
X42324968Y-96376128D01*
X44110683Y-95376128D02*
X44110683Y-96376128D01*
X43467825Y-95376128D02*
X43467825Y-96161842D01*
X43467825Y-96161842D02*
X43539254Y-96304700D01*
X43539254Y-96304700D02*
X43682111Y-96376128D01*
X43682111Y-96376128D02*
X43896397Y-96376128D01*
X43896397Y-96376128D02*
X44039254Y-96304700D01*
X44039254Y-96304700D02*
X44110683Y-96233271D01*
X44753540Y-96304700D02*
X44896397Y-96376128D01*
X44896397Y-96376128D02*
X45182111Y-96376128D01*
X45182111Y-96376128D02*
X45324968Y-96304700D01*
X45324968Y-96304700D02*
X45396397Y-96161842D01*
X45396397Y-96161842D02*
X45396397Y-96090414D01*
X45396397Y-96090414D02*
X45324968Y-95947557D01*
X45324968Y-95947557D02*
X45182111Y-95876128D01*
X45182111Y-95876128D02*
X44967826Y-95876128D01*
X44967826Y-95876128D02*
X44824968Y-95804700D01*
X44824968Y-95804700D02*
X44753540Y-95661842D01*
X44753540Y-95661842D02*
X44753540Y-95590414D01*
X44753540Y-95590414D02*
X44824968Y-95447557D01*
X44824968Y-95447557D02*
X44967826Y-95376128D01*
X44967826Y-95376128D02*
X45182111Y-95376128D01*
X45182111Y-95376128D02*
X45324968Y-95447557D01*
X46039254Y-95804700D02*
X47182112Y-95804700D01*
X48467826Y-96304700D02*
X48324969Y-96376128D01*
X48324969Y-96376128D02*
X48039255Y-96376128D01*
X48039255Y-96376128D02*
X47896397Y-96304700D01*
X47896397Y-96304700D02*
X47824969Y-96161842D01*
X47824969Y-96161842D02*
X47824969Y-95590414D01*
X47824969Y-95590414D02*
X47896397Y-95447557D01*
X47896397Y-95447557D02*
X48039255Y-95376128D01*
X48039255Y-95376128D02*
X48324969Y-95376128D01*
X48324969Y-95376128D02*
X48467826Y-95447557D01*
X48467826Y-95447557D02*
X48539255Y-95590414D01*
X48539255Y-95590414D02*
X48539255Y-95733271D01*
X48539255Y-95733271D02*
X47824969Y-95876128D01*
X49824969Y-96376128D02*
X49824969Y-94876128D01*
X49824969Y-96304700D02*
X49682111Y-96376128D01*
X49682111Y-96376128D02*
X49396397Y-96376128D01*
X49396397Y-96376128D02*
X49253540Y-96304700D01*
X49253540Y-96304700D02*
X49182111Y-96233271D01*
X49182111Y-96233271D02*
X49110683Y-96090414D01*
X49110683Y-96090414D02*
X49110683Y-95661842D01*
X49110683Y-95661842D02*
X49182111Y-95518985D01*
X49182111Y-95518985D02*
X49253540Y-95447557D01*
X49253540Y-95447557D02*
X49396397Y-95376128D01*
X49396397Y-95376128D02*
X49682111Y-95376128D01*
X49682111Y-95376128D02*
X49824969Y-95447557D01*
X51182112Y-96376128D02*
X51182112Y-95590414D01*
X51182112Y-95590414D02*
X51110683Y-95447557D01*
X51110683Y-95447557D02*
X50967826Y-95376128D01*
X50967826Y-95376128D02*
X50682112Y-95376128D01*
X50682112Y-95376128D02*
X50539254Y-95447557D01*
X51182112Y-96304700D02*
X51039254Y-96376128D01*
X51039254Y-96376128D02*
X50682112Y-96376128D01*
X50682112Y-96376128D02*
X50539254Y-96304700D01*
X50539254Y-96304700D02*
X50467826Y-96161842D01*
X50467826Y-96161842D02*
X50467826Y-96018985D01*
X50467826Y-96018985D02*
X50539254Y-95876128D01*
X50539254Y-95876128D02*
X50682112Y-95804700D01*
X50682112Y-95804700D02*
X51039254Y-95804700D01*
X51039254Y-95804700D02*
X51182112Y-95733271D01*
X51896397Y-96233271D02*
X51967826Y-96304700D01*
X51967826Y-96304700D02*
X51896397Y-96376128D01*
X51896397Y-96376128D02*
X51824969Y-96304700D01*
X51824969Y-96304700D02*
X51896397Y-96233271D01*
X51896397Y-96233271D02*
X51896397Y-96376128D01*
X52610683Y-96376128D02*
X52610683Y-94876128D01*
X52753541Y-95804700D02*
X53182112Y-96376128D01*
X53182112Y-95376128D02*
X52610683Y-95947557D01*
X53824969Y-96376128D02*
X53824969Y-95376128D01*
X53824969Y-94876128D02*
X53753541Y-94947557D01*
X53753541Y-94947557D02*
X53824969Y-95018985D01*
X53824969Y-95018985D02*
X53896398Y-94947557D01*
X53896398Y-94947557D02*
X53824969Y-94876128D01*
X53824969Y-94876128D02*
X53824969Y-95018985D01*
X55182113Y-96304700D02*
X55039255Y-96376128D01*
X55039255Y-96376128D02*
X54753541Y-96376128D01*
X54753541Y-96376128D02*
X54610684Y-96304700D01*
X54610684Y-96304700D02*
X54539255Y-96233271D01*
X54539255Y-96233271D02*
X54467827Y-96090414D01*
X54467827Y-96090414D02*
X54467827Y-95661842D01*
X54467827Y-95661842D02*
X54539255Y-95518985D01*
X54539255Y-95518985D02*
X54610684Y-95447557D01*
X54610684Y-95447557D02*
X54753541Y-95376128D01*
X54753541Y-95376128D02*
X55039255Y-95376128D01*
X55039255Y-95376128D02*
X55182113Y-95447557D01*
X56467827Y-96376128D02*
X56467827Y-95590414D01*
X56467827Y-95590414D02*
X56396398Y-95447557D01*
X56396398Y-95447557D02*
X56253541Y-95376128D01*
X56253541Y-95376128D02*
X55967827Y-95376128D01*
X55967827Y-95376128D02*
X55824969Y-95447557D01*
X56467827Y-96304700D02*
X56324969Y-96376128D01*
X56324969Y-96376128D02*
X55967827Y-96376128D01*
X55967827Y-96376128D02*
X55824969Y-96304700D01*
X55824969Y-96304700D02*
X55753541Y-96161842D01*
X55753541Y-96161842D02*
X55753541Y-96018985D01*
X55753541Y-96018985D02*
X55824969Y-95876128D01*
X55824969Y-95876128D02*
X55967827Y-95804700D01*
X55967827Y-95804700D02*
X56324969Y-95804700D01*
X56324969Y-95804700D02*
X56467827Y-95733271D01*
X57824970Y-96376128D02*
X57824970Y-94876128D01*
X57824970Y-96304700D02*
X57682112Y-96376128D01*
X57682112Y-96376128D02*
X57396398Y-96376128D01*
X57396398Y-96376128D02*
X57253541Y-96304700D01*
X57253541Y-96304700D02*
X57182112Y-96233271D01*
X57182112Y-96233271D02*
X57110684Y-96090414D01*
X57110684Y-96090414D02*
X57110684Y-95661842D01*
X57110684Y-95661842D02*
X57182112Y-95518985D01*
X57182112Y-95518985D02*
X57253541Y-95447557D01*
X57253541Y-95447557D02*
X57396398Y-95376128D01*
X57396398Y-95376128D02*
X57682112Y-95376128D01*
X57682112Y-95376128D02*
X57824970Y-95447557D01*
X58182113Y-96518985D02*
X59324970Y-96518985D01*
X59682112Y-95376128D02*
X59682112Y-96876128D01*
X59682112Y-95447557D02*
X59824970Y-95376128D01*
X59824970Y-95376128D02*
X60110684Y-95376128D01*
X60110684Y-95376128D02*
X60253541Y-95447557D01*
X60253541Y-95447557D02*
X60324970Y-95518985D01*
X60324970Y-95518985D02*
X60396398Y-95661842D01*
X60396398Y-95661842D02*
X60396398Y-96090414D01*
X60396398Y-96090414D02*
X60324970Y-96233271D01*
X60324970Y-96233271D02*
X60253541Y-96304700D01*
X60253541Y-96304700D02*
X60110684Y-96376128D01*
X60110684Y-96376128D02*
X59824970Y-96376128D01*
X59824970Y-96376128D02*
X59682112Y-96304700D01*
X61682113Y-96304700D02*
X61539255Y-96376128D01*
X61539255Y-96376128D02*
X61253541Y-96376128D01*
X61253541Y-96376128D02*
X61110684Y-96304700D01*
X61110684Y-96304700D02*
X61039255Y-96233271D01*
X61039255Y-96233271D02*
X60967827Y-96090414D01*
X60967827Y-96090414D02*
X60967827Y-95661842D01*
X60967827Y-95661842D02*
X61039255Y-95518985D01*
X61039255Y-95518985D02*
X61110684Y-95447557D01*
X61110684Y-95447557D02*
X61253541Y-95376128D01*
X61253541Y-95376128D02*
X61539255Y-95376128D01*
X61539255Y-95376128D02*
X61682113Y-95447557D01*
X62324969Y-96376128D02*
X62324969Y-94876128D01*
X62324969Y-95447557D02*
X62467827Y-95376128D01*
X62467827Y-95376128D02*
X62753541Y-95376128D01*
X62753541Y-95376128D02*
X62896398Y-95447557D01*
X62896398Y-95447557D02*
X62967827Y-95518985D01*
X62967827Y-95518985D02*
X63039255Y-95661842D01*
X63039255Y-95661842D02*
X63039255Y-96090414D01*
X63039255Y-96090414D02*
X62967827Y-96233271D01*
X62967827Y-96233271D02*
X62896398Y-96304700D01*
X62896398Y-96304700D02*
X62753541Y-96376128D01*
X62753541Y-96376128D02*
X62467827Y-96376128D01*
X62467827Y-96376128D02*
X62324969Y-96304700D01*
D10*
D11*
X30012000Y-91490000D02*
X138012000Y-91490000D01*
D10*
D11*
X31396398Y-93604700D02*
X31610684Y-93676128D01*
X31610684Y-93676128D02*
X31967826Y-93676128D01*
X31967826Y-93676128D02*
X32110684Y-93604700D01*
X32110684Y-93604700D02*
X32182112Y-93533271D01*
X32182112Y-93533271D02*
X32253541Y-93390414D01*
X32253541Y-93390414D02*
X32253541Y-93247557D01*
X32253541Y-93247557D02*
X32182112Y-93104700D01*
X32182112Y-93104700D02*
X32110684Y-93033271D01*
X32110684Y-93033271D02*
X31967826Y-92961842D01*
X31967826Y-92961842D02*
X31682112Y-92890414D01*
X31682112Y-92890414D02*
X31539255Y-92818985D01*
X31539255Y-92818985D02*
X31467826Y-92747557D01*
X31467826Y-92747557D02*
X31396398Y-92604700D01*
X31396398Y-92604700D02*
X31396398Y-92461842D01*
X31396398Y-92461842D02*
X31467826Y-92318985D01*
X31467826Y-92318985D02*
X31539255Y-92247557D01*
X31539255Y-92247557D02*
X31682112Y-92176128D01*
X31682112Y-92176128D02*
X32039255Y-92176128D01*
X32039255Y-92176128D02*
X32253541Y-92247557D01*
X32896397Y-93676128D02*
X32896397Y-92176128D01*
X33539255Y-93676128D02*
X33539255Y-92890414D01*
X33539255Y-92890414D02*
X33467826Y-92747557D01*
X33467826Y-92747557D02*
X33324969Y-92676128D01*
X33324969Y-92676128D02*
X33110683Y-92676128D01*
X33110683Y-92676128D02*
X32967826Y-92747557D01*
X32967826Y-92747557D02*
X32896397Y-92818985D01*
X34824969Y-93604700D02*
X34682112Y-93676128D01*
X34682112Y-93676128D02*
X34396398Y-93676128D01*
X34396398Y-93676128D02*
X34253540Y-93604700D01*
X34253540Y-93604700D02*
X34182112Y-93461842D01*
X34182112Y-93461842D02*
X34182112Y-92890414D01*
X34182112Y-92890414D02*
X34253540Y-92747557D01*
X34253540Y-92747557D02*
X34396398Y-92676128D01*
X34396398Y-92676128D02*
X34682112Y-92676128D01*
X34682112Y-92676128D02*
X34824969Y-92747557D01*
X34824969Y-92747557D02*
X34896398Y-92890414D01*
X34896398Y-92890414D02*
X34896398Y-93033271D01*
X34896398Y-93033271D02*
X34182112Y-93176128D01*
X36110683Y-93604700D02*
X35967826Y-93676128D01*
X35967826Y-93676128D02*
X35682112Y-93676128D01*
X35682112Y-93676128D02*
X35539254Y-93604700D01*
X35539254Y-93604700D02*
X35467826Y-93461842D01*
X35467826Y-93461842D02*
X35467826Y-92890414D01*
X35467826Y-92890414D02*
X35539254Y-92747557D01*
X35539254Y-92747557D02*
X35682112Y-92676128D01*
X35682112Y-92676128D02*
X35967826Y-92676128D01*
X35967826Y-92676128D02*
X36110683Y-92747557D01*
X36110683Y-92747557D02*
X36182112Y-92890414D01*
X36182112Y-92890414D02*
X36182112Y-93033271D01*
X36182112Y-93033271D02*
X35467826Y-93176128D01*
X36610683Y-92676128D02*
X37182111Y-92676128D01*
X36824968Y-92176128D02*
X36824968Y-93461842D01*
X36824968Y-93461842D02*
X36896397Y-93604700D01*
X36896397Y-93604700D02*
X37039254Y-93676128D01*
X37039254Y-93676128D02*
X37182111Y-93676128D01*
X37682111Y-93533271D02*
X37753540Y-93604700D01*
X37753540Y-93604700D02*
X37682111Y-93676128D01*
X37682111Y-93676128D02*
X37610683Y-93604700D01*
X37610683Y-93604700D02*
X37682111Y-93533271D01*
X37682111Y-93533271D02*
X37682111Y-93676128D01*
X37682111Y-92747557D02*
X37753540Y-92818985D01*
X37753540Y-92818985D02*
X37682111Y-92890414D01*
X37682111Y-92890414D02*
X37610683Y-92818985D01*
X37610683Y-92818985D02*
X37682111Y-92747557D01*
X37682111Y-92747557D02*
X37682111Y-92890414D01*
D10*
D11*
X32324969Y-87533271D02*
X32253541Y-87604700D01*
X32253541Y-87604700D02*
X32039255Y-87676128D01*
X32039255Y-87676128D02*
X31896398Y-87676128D01*
X31896398Y-87676128D02*
X31682112Y-87604700D01*
X31682112Y-87604700D02*
X31539255Y-87461842D01*
X31539255Y-87461842D02*
X31467826Y-87318985D01*
X31467826Y-87318985D02*
X31396398Y-87033271D01*
X31396398Y-87033271D02*
X31396398Y-86818985D01*
X31396398Y-86818985D02*
X31467826Y-86533271D01*
X31467826Y-86533271D02*
X31539255Y-86390414D01*
X31539255Y-86390414D02*
X31682112Y-86247557D01*
X31682112Y-86247557D02*
X31896398Y-86176128D01*
X31896398Y-86176128D02*
X32039255Y-86176128D01*
X32039255Y-86176128D02*
X32253541Y-86247557D01*
X32253541Y-86247557D02*
X32324969Y-86318985D01*
X33182112Y-87676128D02*
X33039255Y-87604700D01*
X33039255Y-87604700D02*
X32967826Y-87533271D01*
X32967826Y-87533271D02*
X32896398Y-87390414D01*
X32896398Y-87390414D02*
X32896398Y-86961842D01*
X32896398Y-86961842D02*
X32967826Y-86818985D01*
X32967826Y-86818985D02*
X33039255Y-86747557D01*
X33039255Y-86747557D02*
X33182112Y-86676128D01*
X33182112Y-86676128D02*
X33396398Y-86676128D01*
X33396398Y-86676128D02*
X33539255Y-86747557D01*
X33539255Y-86747557D02*
X33610684Y-86818985D01*
X33610684Y-86818985D02*
X33682112Y-86961842D01*
X33682112Y-86961842D02*
X33682112Y-87390414D01*
X33682112Y-87390414D02*
X33610684Y-87533271D01*
X33610684Y-87533271D02*
X33539255Y-87604700D01*
X33539255Y-87604700D02*
X33396398Y-87676128D01*
X33396398Y-87676128D02*
X33182112Y-87676128D01*
X34324969Y-86676128D02*
X34324969Y-88176128D01*
X34324969Y-86747557D02*
X34467827Y-86676128D01*
X34467827Y-86676128D02*
X34753541Y-86676128D01*
X34753541Y-86676128D02*
X34896398Y-86747557D01*
X34896398Y-86747557D02*
X34967827Y-86818985D01*
X34967827Y-86818985D02*
X35039255Y-86961842D01*
X35039255Y-86961842D02*
X35039255Y-87390414D01*
X35039255Y-87390414D02*
X34967827Y-87533271D01*
X34967827Y-87533271D02*
X34896398Y-87604700D01*
X34896398Y-87604700D02*
X34753541Y-87676128D01*
X34753541Y-87676128D02*
X34467827Y-87676128D01*
X34467827Y-87676128D02*
X34324969Y-87604700D01*
X35539255Y-86676128D02*
X35896398Y-87676128D01*
X36253541Y-86676128D02*
X35896398Y-87676128D01*
X35896398Y-87676128D02*
X35753541Y-88033271D01*
X35753541Y-88033271D02*
X35682112Y-88104700D01*
X35682112Y-88104700D02*
X35539255Y-88176128D01*
X36824969Y-87676128D02*
X36824969Y-86676128D01*
X36824969Y-86961842D02*
X36896398Y-86818985D01*
X36896398Y-86818985D02*
X36967827Y-86747557D01*
X36967827Y-86747557D02*
X37110684Y-86676128D01*
X37110684Y-86676128D02*
X37253541Y-86676128D01*
X37753540Y-87676128D02*
X37753540Y-86676128D01*
X37753540Y-86176128D02*
X37682112Y-86247557D01*
X37682112Y-86247557D02*
X37753540Y-86318985D01*
X37753540Y-86318985D02*
X37824969Y-86247557D01*
X37824969Y-86247557D02*
X37753540Y-86176128D01*
X37753540Y-86176128D02*
X37753540Y-86318985D01*
X39110684Y-86676128D02*
X39110684Y-87890414D01*
X39110684Y-87890414D02*
X39039255Y-88033271D01*
X39039255Y-88033271D02*
X38967826Y-88104700D01*
X38967826Y-88104700D02*
X38824969Y-88176128D01*
X38824969Y-88176128D02*
X38610684Y-88176128D01*
X38610684Y-88176128D02*
X38467826Y-88104700D01*
X39110684Y-87604700D02*
X38967826Y-87676128D01*
X38967826Y-87676128D02*
X38682112Y-87676128D01*
X38682112Y-87676128D02*
X38539255Y-87604700D01*
X38539255Y-87604700D02*
X38467826Y-87533271D01*
X38467826Y-87533271D02*
X38396398Y-87390414D01*
X38396398Y-87390414D02*
X38396398Y-86961842D01*
X38396398Y-86961842D02*
X38467826Y-86818985D01*
X38467826Y-86818985D02*
X38539255Y-86747557D01*
X38539255Y-86747557D02*
X38682112Y-86676128D01*
X38682112Y-86676128D02*
X38967826Y-86676128D01*
X38967826Y-86676128D02*
X39110684Y-86747557D01*
X39824969Y-87676128D02*
X39824969Y-86176128D01*
X40467827Y-87676128D02*
X40467827Y-86890414D01*
X40467827Y-86890414D02*
X40396398Y-86747557D01*
X40396398Y-86747557D02*
X40253541Y-86676128D01*
X40253541Y-86676128D02*
X40039255Y-86676128D01*
X40039255Y-86676128D02*
X39896398Y-86747557D01*
X39896398Y-86747557D02*
X39824969Y-86818985D01*
X40967827Y-86676128D02*
X41539255Y-86676128D01*
X41182112Y-86176128D02*
X41182112Y-87461842D01*
X41182112Y-87461842D02*
X41253541Y-87604700D01*
X41253541Y-87604700D02*
X41396398Y-87676128D01*
X41396398Y-87676128D02*
X41539255Y-87676128D01*
X43610684Y-88247557D02*
X43539255Y-88176128D01*
X43539255Y-88176128D02*
X43396398Y-87961842D01*
X43396398Y-87961842D02*
X43324970Y-87818985D01*
X43324970Y-87818985D02*
X43253541Y-87604700D01*
X43253541Y-87604700D02*
X43182112Y-87247557D01*
X43182112Y-87247557D02*
X43182112Y-86961842D01*
X43182112Y-86961842D02*
X43253541Y-86604700D01*
X43253541Y-86604700D02*
X43324970Y-86390414D01*
X43324970Y-86390414D02*
X43396398Y-86247557D01*
X43396398Y-86247557D02*
X43539255Y-86033271D01*
X43539255Y-86033271D02*
X43610684Y-85961842D01*
X44824970Y-87604700D02*
X44682112Y-87676128D01*
X44682112Y-87676128D02*
X44396398Y-87676128D01*
X44396398Y-87676128D02*
X44253541Y-87604700D01*
X44253541Y-87604700D02*
X44182112Y-87533271D01*
X44182112Y-87533271D02*
X44110684Y-87390414D01*
X44110684Y-87390414D02*
X44110684Y-86961842D01*
X44110684Y-86961842D02*
X44182112Y-86818985D01*
X44182112Y-86818985D02*
X44253541Y-86747557D01*
X44253541Y-86747557D02*
X44396398Y-86676128D01*
X44396398Y-86676128D02*
X44682112Y-86676128D01*
X44682112Y-86676128D02*
X44824970Y-86747557D01*
X45324969Y-88247557D02*
X45396398Y-88176128D01*
X45396398Y-88176128D02*
X45539255Y-87961842D01*
X45539255Y-87961842D02*
X45610684Y-87818985D01*
X45610684Y-87818985D02*
X45682112Y-87604700D01*
X45682112Y-87604700D02*
X45753541Y-87247557D01*
X45753541Y-87247557D02*
X45753541Y-86961842D01*
X45753541Y-86961842D02*
X45682112Y-86604700D01*
X45682112Y-86604700D02*
X45610684Y-86390414D01*
X45610684Y-86390414D02*
X45539255Y-86247557D01*
X45539255Y-86247557D02*
X45396398Y-86033271D01*
X45396398Y-86033271D02*
X45324969Y-85961842D01*
X47539255Y-86318985D02*
X47610683Y-86247557D01*
X47610683Y-86247557D02*
X47753541Y-86176128D01*
X47753541Y-86176128D02*
X48110683Y-86176128D01*
X48110683Y-86176128D02*
X48253541Y-86247557D01*
X48253541Y-86247557D02*
X48324969Y-86318985D01*
X48324969Y-86318985D02*
X48396398Y-86461842D01*
X48396398Y-86461842D02*
X48396398Y-86604700D01*
X48396398Y-86604700D02*
X48324969Y-86818985D01*
X48324969Y-86818985D02*
X47467826Y-87676128D01*
X47467826Y-87676128D02*
X48396398Y-87676128D01*
X49324969Y-86176128D02*
X49467826Y-86176128D01*
X49467826Y-86176128D02*
X49610683Y-86247557D01*
X49610683Y-86247557D02*
X49682112Y-86318985D01*
X49682112Y-86318985D02*
X49753540Y-86461842D01*
X49753540Y-86461842D02*
X49824969Y-86747557D01*
X49824969Y-86747557D02*
X49824969Y-87104700D01*
X49824969Y-87104700D02*
X49753540Y-87390414D01*
X49753540Y-87390414D02*
X49682112Y-87533271D01*
X49682112Y-87533271D02*
X49610683Y-87604700D01*
X49610683Y-87604700D02*
X49467826Y-87676128D01*
X49467826Y-87676128D02*
X49324969Y-87676128D01*
X49324969Y-87676128D02*
X49182112Y-87604700D01*
X49182112Y-87604700D02*
X49110683Y-87533271D01*
X49110683Y-87533271D02*
X49039254Y-87390414D01*
X49039254Y-87390414D02*
X48967826Y-87104700D01*
X48967826Y-87104700D02*
X48967826Y-86747557D01*
X48967826Y-86747557D02*
X49039254Y-86461842D01*
X49039254Y-86461842D02*
X49110683Y-86318985D01*
X49110683Y-86318985D02*
X49182112Y-86247557D01*
X49182112Y-86247557D02*
X49324969Y-86176128D01*
X50396397Y-86318985D02*
X50467825Y-86247557D01*
X50467825Y-86247557D02*
X50610683Y-86176128D01*
X50610683Y-86176128D02*
X50967825Y-86176128D01*
X50967825Y-86176128D02*
X51110683Y-86247557D01*
X51110683Y-86247557D02*
X51182111Y-86318985D01*
X51182111Y-86318985D02*
X51253540Y-86461842D01*
X51253540Y-86461842D02*
X51253540Y-86604700D01*
X51253540Y-86604700D02*
X51182111Y-86818985D01*
X51182111Y-86818985D02*
X50324968Y-87676128D01*
X50324968Y-87676128D02*
X51253540Y-87676128D01*
X52539254Y-86676128D02*
X52539254Y-87676128D01*
X52182111Y-86104700D02*
X51824968Y-87176128D01*
X51824968Y-87176128D02*
X52753539Y-87176128D01*
X54467824Y-87676128D02*
X54467824Y-86176128D01*
X55182110Y-87676128D02*
X55182110Y-86176128D01*
X55182110Y-86176128D02*
X56039253Y-87676128D01*
X56039253Y-87676128D02*
X56039253Y-86176128D01*
X56682111Y-87604700D02*
X56896397Y-87676128D01*
X56896397Y-87676128D02*
X57253539Y-87676128D01*
X57253539Y-87676128D02*
X57396397Y-87604700D01*
X57396397Y-87604700D02*
X57467825Y-87533271D01*
X57467825Y-87533271D02*
X57539254Y-87390414D01*
X57539254Y-87390414D02*
X57539254Y-87247557D01*
X57539254Y-87247557D02*
X57467825Y-87104700D01*
X57467825Y-87104700D02*
X57396397Y-87033271D01*
X57396397Y-87033271D02*
X57253539Y-86961842D01*
X57253539Y-86961842D02*
X56967825Y-86890414D01*
X56967825Y-86890414D02*
X56824968Y-86818985D01*
X56824968Y-86818985D02*
X56753539Y-86747557D01*
X56753539Y-86747557D02*
X56682111Y-86604700D01*
X56682111Y-86604700D02*
X56682111Y-86461842D01*
X56682111Y-86461842D02*
X56753539Y-86318985D01*
X56753539Y-86318985D02*
X56824968Y-86247557D01*
X56824968Y-86247557D02*
X56967825Y-86176128D01*
X56967825Y-86176128D02*
X57324968Y-86176128D01*
X57324968Y-86176128D02*
X57539254Y-86247557D01*
X58110682Y-87247557D02*
X58824968Y-87247557D01*
X57967825Y-87676128D02*
X58467825Y-86176128D01*
X58467825Y-86176128D02*
X58967825Y-87676128D01*
X61324967Y-87676128D02*
X60610681Y-87676128D01*
X60610681Y-87676128D02*
X60610681Y-86176128D01*
X61682110Y-86676128D02*
X62039253Y-87676128D01*
X62396396Y-86676128D02*
X62039253Y-87676128D01*
X62039253Y-87676128D02*
X61896396Y-88033271D01*
X61896396Y-88033271D02*
X61824967Y-88104700D01*
X61824967Y-88104700D02*
X61682110Y-88176128D01*
X63182110Y-87676128D02*
X63039253Y-87604700D01*
X63039253Y-87604700D02*
X62967824Y-87533271D01*
X62967824Y-87533271D02*
X62896396Y-87390414D01*
X62896396Y-87390414D02*
X62896396Y-86961842D01*
X62896396Y-86961842D02*
X62967824Y-86818985D01*
X62967824Y-86818985D02*
X63039253Y-86747557D01*
X63039253Y-86747557D02*
X63182110Y-86676128D01*
X63182110Y-86676128D02*
X63396396Y-86676128D01*
X63396396Y-86676128D02*
X63539253Y-86747557D01*
X63539253Y-86747557D02*
X63610682Y-86818985D01*
X63610682Y-86818985D02*
X63682110Y-86961842D01*
X63682110Y-86961842D02*
X63682110Y-87390414D01*
X63682110Y-87390414D02*
X63610682Y-87533271D01*
X63610682Y-87533271D02*
X63539253Y-87604700D01*
X63539253Y-87604700D02*
X63396396Y-87676128D01*
X63396396Y-87676128D02*
X63182110Y-87676128D01*
X64324967Y-86676128D02*
X64324967Y-87676128D01*
X64324967Y-86818985D02*
X64396396Y-86747557D01*
X64396396Y-86747557D02*
X64539253Y-86676128D01*
X64539253Y-86676128D02*
X64753539Y-86676128D01*
X64753539Y-86676128D02*
X64896396Y-86747557D01*
X64896396Y-86747557D02*
X64967825Y-86890414D01*
X64967825Y-86890414D02*
X64967825Y-87676128D01*
X65753539Y-87604700D02*
X65753539Y-87676128D01*
X65753539Y-87676128D02*
X65682110Y-87818985D01*
X65682110Y-87818985D02*
X65610682Y-87890414D01*
X68396396Y-87533271D02*
X68324968Y-87604700D01*
X68324968Y-87604700D02*
X68110682Y-87676128D01*
X68110682Y-87676128D02*
X67967825Y-87676128D01*
X67967825Y-87676128D02*
X67753539Y-87604700D01*
X67753539Y-87604700D02*
X67610682Y-87461842D01*
X67610682Y-87461842D02*
X67539253Y-87318985D01*
X67539253Y-87318985D02*
X67467825Y-87033271D01*
X67467825Y-87033271D02*
X67467825Y-86818985D01*
X67467825Y-86818985D02*
X67539253Y-86533271D01*
X67539253Y-86533271D02*
X67610682Y-86390414D01*
X67610682Y-86390414D02*
X67753539Y-86247557D01*
X67753539Y-86247557D02*
X67967825Y-86176128D01*
X67967825Y-86176128D02*
X68110682Y-86176128D01*
X68110682Y-86176128D02*
X68324968Y-86247557D01*
X68324968Y-86247557D02*
X68396396Y-86318985D01*
X69039253Y-87676128D02*
X69039253Y-86176128D01*
X69039253Y-86176128D02*
X69896396Y-87676128D01*
X69896396Y-87676128D02*
X69896396Y-86176128D01*
X71467825Y-87676128D02*
X70967825Y-86961842D01*
X70610682Y-87676128D02*
X70610682Y-86176128D01*
X70610682Y-86176128D02*
X71182111Y-86176128D01*
X71182111Y-86176128D02*
X71324968Y-86247557D01*
X71324968Y-86247557D02*
X71396397Y-86318985D01*
X71396397Y-86318985D02*
X71467825Y-86461842D01*
X71467825Y-86461842D02*
X71467825Y-86676128D01*
X71467825Y-86676128D02*
X71396397Y-86818985D01*
X71396397Y-86818985D02*
X71324968Y-86890414D01*
X71324968Y-86890414D02*
X71182111Y-86961842D01*
X71182111Y-86961842D02*
X70610682Y-86961842D01*
X72039254Y-87604700D02*
X72253540Y-87676128D01*
X72253540Y-87676128D02*
X72610682Y-87676128D01*
X72610682Y-87676128D02*
X72753540Y-87604700D01*
X72753540Y-87604700D02*
X72824968Y-87533271D01*
X72824968Y-87533271D02*
X72896397Y-87390414D01*
X72896397Y-87390414D02*
X72896397Y-87247557D01*
X72896397Y-87247557D02*
X72824968Y-87104700D01*
X72824968Y-87104700D02*
X72753540Y-87033271D01*
X72753540Y-87033271D02*
X72610682Y-86961842D01*
X72610682Y-86961842D02*
X72324968Y-86890414D01*
X72324968Y-86890414D02*
X72182111Y-86818985D01*
X72182111Y-86818985D02*
X72110682Y-86747557D01*
X72110682Y-86747557D02*
X72039254Y-86604700D01*
X72039254Y-86604700D02*
X72039254Y-86461842D01*
X72039254Y-86461842D02*
X72110682Y-86318985D01*
X72110682Y-86318985D02*
X72182111Y-86247557D01*
X72182111Y-86247557D02*
X72324968Y-86176128D01*
X72324968Y-86176128D02*
X72682111Y-86176128D01*
X72682111Y-86176128D02*
X72896397Y-86247557D01*
X73610682Y-87604700D02*
X73610682Y-87676128D01*
X73610682Y-87676128D02*
X73539253Y-87818985D01*
X73539253Y-87818985D02*
X73467825Y-87890414D01*
X75396396Y-87676128D02*
X75396396Y-86176128D01*
X76110682Y-87676128D02*
X76110682Y-86176128D01*
X76110682Y-86176128D02*
X76967825Y-87676128D01*
X76967825Y-87676128D02*
X76967825Y-86176128D01*
X78396397Y-87676128D02*
X77682111Y-87676128D01*
X77682111Y-87676128D02*
X77682111Y-86176128D01*
X80039254Y-86176128D02*
X80039254Y-87390414D01*
X80039254Y-87390414D02*
X80110683Y-87533271D01*
X80110683Y-87533271D02*
X80182112Y-87604700D01*
X80182112Y-87604700D02*
X80324969Y-87676128D01*
X80324969Y-87676128D02*
X80610683Y-87676128D01*
X80610683Y-87676128D02*
X80753540Y-87604700D01*
X80753540Y-87604700D02*
X80824969Y-87533271D01*
X80824969Y-87533271D02*
X80896397Y-87390414D01*
X80896397Y-87390414D02*
X80896397Y-86176128D01*
X81610683Y-87676128D02*
X81610683Y-86176128D01*
X81610683Y-86176128D02*
X82110683Y-87247557D01*
X82110683Y-87247557D02*
X82610683Y-86176128D01*
X82610683Y-86176128D02*
X82610683Y-87676128D01*
X84182112Y-87676128D02*
X83682112Y-86961842D01*
X83324969Y-87676128D02*
X83324969Y-86176128D01*
X83324969Y-86176128D02*
X83896398Y-86176128D01*
X83896398Y-86176128D02*
X84039255Y-86247557D01*
X84039255Y-86247557D02*
X84110684Y-86318985D01*
X84110684Y-86318985D02*
X84182112Y-86461842D01*
X84182112Y-86461842D02*
X84182112Y-86676128D01*
X84182112Y-86676128D02*
X84110684Y-86818985D01*
X84110684Y-86818985D02*
X84039255Y-86890414D01*
X84039255Y-86890414D02*
X83896398Y-86961842D01*
X83896398Y-86961842D02*
X83324969Y-86961842D01*
X85539255Y-86176128D02*
X84824969Y-86176128D01*
X84824969Y-86176128D02*
X84753541Y-86890414D01*
X84753541Y-86890414D02*
X84824969Y-86818985D01*
X84824969Y-86818985D02*
X84967827Y-86747557D01*
X84967827Y-86747557D02*
X85324969Y-86747557D01*
X85324969Y-86747557D02*
X85467827Y-86818985D01*
X85467827Y-86818985D02*
X85539255Y-86890414D01*
X85539255Y-86890414D02*
X85610684Y-87033271D01*
X85610684Y-87033271D02*
X85610684Y-87390414D01*
X85610684Y-87390414D02*
X85539255Y-87533271D01*
X85539255Y-87533271D02*
X85467827Y-87604700D01*
X85467827Y-87604700D02*
X85324969Y-87676128D01*
X85324969Y-87676128D02*
X84967827Y-87676128D01*
X84967827Y-87676128D02*
X84824969Y-87604700D01*
X84824969Y-87604700D02*
X84753541Y-87533271D01*
X86182112Y-86318985D02*
X86253540Y-86247557D01*
X86253540Y-86247557D02*
X86396398Y-86176128D01*
X86396398Y-86176128D02*
X86753540Y-86176128D01*
X86753540Y-86176128D02*
X86896398Y-86247557D01*
X86896398Y-86247557D02*
X86967826Y-86318985D01*
X86967826Y-86318985D02*
X87039255Y-86461842D01*
X87039255Y-86461842D02*
X87039255Y-86604700D01*
X87039255Y-86604700D02*
X86967826Y-86818985D01*
X86967826Y-86818985D02*
X86110683Y-87676128D01*
X86110683Y-87676128D02*
X87039255Y-87676128D01*
X87539254Y-86176128D02*
X88539254Y-86176128D01*
X88539254Y-86176128D02*
X87896397Y-87676128D01*
X89396397Y-86176128D02*
X89539254Y-86176128D01*
X89539254Y-86176128D02*
X89682111Y-86247557D01*
X89682111Y-86247557D02*
X89753540Y-86318985D01*
X89753540Y-86318985D02*
X89824968Y-86461842D01*
X89824968Y-86461842D02*
X89896397Y-86747557D01*
X89896397Y-86747557D02*
X89896397Y-87104700D01*
X89896397Y-87104700D02*
X89824968Y-87390414D01*
X89824968Y-87390414D02*
X89753540Y-87533271D01*
X89753540Y-87533271D02*
X89682111Y-87604700D01*
X89682111Y-87604700D02*
X89539254Y-87676128D01*
X89539254Y-87676128D02*
X89396397Y-87676128D01*
X89396397Y-87676128D02*
X89253540Y-87604700D01*
X89253540Y-87604700D02*
X89182111Y-87533271D01*
X89182111Y-87533271D02*
X89110682Y-87390414D01*
X89110682Y-87390414D02*
X89039254Y-87104700D01*
X89039254Y-87104700D02*
X89039254Y-86747557D01*
X89039254Y-86747557D02*
X89110682Y-86461842D01*
X89110682Y-86461842D02*
X89182111Y-86318985D01*
X89182111Y-86318985D02*
X89253540Y-86247557D01*
X89253540Y-86247557D02*
X89396397Y-86176128D01*
D10*
D11*
X32182112Y-84676128D02*
X31467826Y-84676128D01*
X31467826Y-84676128D02*
X31467826Y-83176128D01*
X32682112Y-84676128D02*
X32682112Y-83676128D01*
X32682112Y-83176128D02*
X32610684Y-83247557D01*
X32610684Y-83247557D02*
X32682112Y-83318985D01*
X32682112Y-83318985D02*
X32753541Y-83247557D01*
X32753541Y-83247557D02*
X32682112Y-83176128D01*
X32682112Y-83176128D02*
X32682112Y-83318985D01*
X34039256Y-84604700D02*
X33896398Y-84676128D01*
X33896398Y-84676128D02*
X33610684Y-84676128D01*
X33610684Y-84676128D02*
X33467827Y-84604700D01*
X33467827Y-84604700D02*
X33396398Y-84533271D01*
X33396398Y-84533271D02*
X33324970Y-84390414D01*
X33324970Y-84390414D02*
X33324970Y-83961842D01*
X33324970Y-83961842D02*
X33396398Y-83818985D01*
X33396398Y-83818985D02*
X33467827Y-83747557D01*
X33467827Y-83747557D02*
X33610684Y-83676128D01*
X33610684Y-83676128D02*
X33896398Y-83676128D01*
X33896398Y-83676128D02*
X34039256Y-83747557D01*
X35253541Y-84604700D02*
X35110684Y-84676128D01*
X35110684Y-84676128D02*
X34824970Y-84676128D01*
X34824970Y-84676128D02*
X34682112Y-84604700D01*
X34682112Y-84604700D02*
X34610684Y-84461842D01*
X34610684Y-84461842D02*
X34610684Y-83890414D01*
X34610684Y-83890414D02*
X34682112Y-83747557D01*
X34682112Y-83747557D02*
X34824970Y-83676128D01*
X34824970Y-83676128D02*
X35110684Y-83676128D01*
X35110684Y-83676128D02*
X35253541Y-83747557D01*
X35253541Y-83747557D02*
X35324970Y-83890414D01*
X35324970Y-83890414D02*
X35324970Y-84033271D01*
X35324970Y-84033271D02*
X34610684Y-84176128D01*
X35967826Y-83676128D02*
X35967826Y-84676128D01*
X35967826Y-83818985D02*
X36039255Y-83747557D01*
X36039255Y-83747557D02*
X36182112Y-83676128D01*
X36182112Y-83676128D02*
X36396398Y-83676128D01*
X36396398Y-83676128D02*
X36539255Y-83747557D01*
X36539255Y-83747557D02*
X36610684Y-83890414D01*
X36610684Y-83890414D02*
X36610684Y-84676128D01*
X37253541Y-84604700D02*
X37396398Y-84676128D01*
X37396398Y-84676128D02*
X37682112Y-84676128D01*
X37682112Y-84676128D02*
X37824969Y-84604700D01*
X37824969Y-84604700D02*
X37896398Y-84461842D01*
X37896398Y-84461842D02*
X37896398Y-84390414D01*
X37896398Y-84390414D02*
X37824969Y-84247557D01*
X37824969Y-84247557D02*
X37682112Y-84176128D01*
X37682112Y-84176128D02*
X37467827Y-84176128D01*
X37467827Y-84176128D02*
X37324969Y-84104700D01*
X37324969Y-84104700D02*
X37253541Y-83961842D01*
X37253541Y-83961842D02*
X37253541Y-83890414D01*
X37253541Y-83890414D02*
X37324969Y-83747557D01*
X37324969Y-83747557D02*
X37467827Y-83676128D01*
X37467827Y-83676128D02*
X37682112Y-83676128D01*
X37682112Y-83676128D02*
X37824969Y-83747557D01*
X39110684Y-84604700D02*
X38967827Y-84676128D01*
X38967827Y-84676128D02*
X38682113Y-84676128D01*
X38682113Y-84676128D02*
X38539255Y-84604700D01*
X38539255Y-84604700D02*
X38467827Y-84461842D01*
X38467827Y-84461842D02*
X38467827Y-83890414D01*
X38467827Y-83890414D02*
X38539255Y-83747557D01*
X38539255Y-83747557D02*
X38682113Y-83676128D01*
X38682113Y-83676128D02*
X38967827Y-83676128D01*
X38967827Y-83676128D02*
X39110684Y-83747557D01*
X39110684Y-83747557D02*
X39182113Y-83890414D01*
X39182113Y-83890414D02*
X39182113Y-84033271D01*
X39182113Y-84033271D02*
X38467827Y-84176128D01*
X40967826Y-84533271D02*
X41039255Y-84604700D01*
X41039255Y-84604700D02*
X40967826Y-84676128D01*
X40967826Y-84676128D02*
X40896398Y-84604700D01*
X40896398Y-84604700D02*
X40967826Y-84533271D01*
X40967826Y-84533271D02*
X40967826Y-84676128D01*
X40967826Y-83747557D02*
X41039255Y-83818985D01*
X41039255Y-83818985D02*
X40967826Y-83890414D01*
X40967826Y-83890414D02*
X40896398Y-83818985D01*
X40896398Y-83818985D02*
X40967826Y-83747557D01*
X40967826Y-83747557D02*
X40967826Y-83890414D01*
X42824969Y-84676128D02*
X42824969Y-83176128D01*
X42824969Y-83176128D02*
X43324969Y-84247557D01*
X43324969Y-84247557D02*
X43824969Y-83176128D01*
X43824969Y-83176128D02*
X43824969Y-84676128D01*
X44539255Y-84676128D02*
X44539255Y-83176128D01*
X45039256Y-83176128D02*
X45896399Y-83176128D01*
X45467827Y-84676128D02*
X45467827Y-83176128D01*
X48253541Y-84676128D02*
X47539255Y-84676128D01*
X47539255Y-84676128D02*
X47539255Y-83176128D01*
X48753541Y-84676128D02*
X48753541Y-83676128D01*
X48753541Y-83176128D02*
X48682113Y-83247557D01*
X48682113Y-83247557D02*
X48753541Y-83318985D01*
X48753541Y-83318985D02*
X48824970Y-83247557D01*
X48824970Y-83247557D02*
X48753541Y-83176128D01*
X48753541Y-83176128D02*
X48753541Y-83318985D01*
X50110685Y-84604700D02*
X49967827Y-84676128D01*
X49967827Y-84676128D02*
X49682113Y-84676128D01*
X49682113Y-84676128D02*
X49539256Y-84604700D01*
X49539256Y-84604700D02*
X49467827Y-84533271D01*
X49467827Y-84533271D02*
X49396399Y-84390414D01*
X49396399Y-84390414D02*
X49396399Y-83961842D01*
X49396399Y-83961842D02*
X49467827Y-83818985D01*
X49467827Y-83818985D02*
X49539256Y-83747557D01*
X49539256Y-83747557D02*
X49682113Y-83676128D01*
X49682113Y-83676128D02*
X49967827Y-83676128D01*
X49967827Y-83676128D02*
X50110685Y-83747557D01*
X51324970Y-84604700D02*
X51182113Y-84676128D01*
X51182113Y-84676128D02*
X50896399Y-84676128D01*
X50896399Y-84676128D02*
X50753541Y-84604700D01*
X50753541Y-84604700D02*
X50682113Y-84461842D01*
X50682113Y-84461842D02*
X50682113Y-83890414D01*
X50682113Y-83890414D02*
X50753541Y-83747557D01*
X50753541Y-83747557D02*
X50896399Y-83676128D01*
X50896399Y-83676128D02*
X51182113Y-83676128D01*
X51182113Y-83676128D02*
X51324970Y-83747557D01*
X51324970Y-83747557D02*
X51396399Y-83890414D01*
X51396399Y-83890414D02*
X51396399Y-84033271D01*
X51396399Y-84033271D02*
X50682113Y-84176128D01*
X52039255Y-83676128D02*
X52039255Y-84676128D01*
X52039255Y-83818985D02*
X52110684Y-83747557D01*
X52110684Y-83747557D02*
X52253541Y-83676128D01*
X52253541Y-83676128D02*
X52467827Y-83676128D01*
X52467827Y-83676128D02*
X52610684Y-83747557D01*
X52610684Y-83747557D02*
X52682113Y-83890414D01*
X52682113Y-83890414D02*
X52682113Y-84676128D01*
X53324970Y-84604700D02*
X53467827Y-84676128D01*
X53467827Y-84676128D02*
X53753541Y-84676128D01*
X53753541Y-84676128D02*
X53896398Y-84604700D01*
X53896398Y-84604700D02*
X53967827Y-84461842D01*
X53967827Y-84461842D02*
X53967827Y-84390414D01*
X53967827Y-84390414D02*
X53896398Y-84247557D01*
X53896398Y-84247557D02*
X53753541Y-84176128D01*
X53753541Y-84176128D02*
X53539256Y-84176128D01*
X53539256Y-84176128D02*
X53396398Y-84104700D01*
X53396398Y-84104700D02*
X53324970Y-83961842D01*
X53324970Y-83961842D02*
X53324970Y-83890414D01*
X53324970Y-83890414D02*
X53396398Y-83747557D01*
X53396398Y-83747557D02*
X53539256Y-83676128D01*
X53539256Y-83676128D02*
X53753541Y-83676128D01*
X53753541Y-83676128D02*
X53896398Y-83747557D01*
X55182113Y-84604700D02*
X55039256Y-84676128D01*
X55039256Y-84676128D02*
X54753542Y-84676128D01*
X54753542Y-84676128D02*
X54610684Y-84604700D01*
X54610684Y-84604700D02*
X54539256Y-84461842D01*
X54539256Y-84461842D02*
X54539256Y-83890414D01*
X54539256Y-83890414D02*
X54610684Y-83747557D01*
X54610684Y-83747557D02*
X54753542Y-83676128D01*
X54753542Y-83676128D02*
X55039256Y-83676128D01*
X55039256Y-83676128D02*
X55182113Y-83747557D01*
X55182113Y-83747557D02*
X55253542Y-83890414D01*
X55253542Y-83890414D02*
X55253542Y-84033271D01*
X55253542Y-84033271D02*
X54539256Y-84176128D01*
D10*
D11*
X32324969Y-81533271D02*
X32253541Y-81604700D01*
X32253541Y-81604700D02*
X32039255Y-81676128D01*
X32039255Y-81676128D02*
X31896398Y-81676128D01*
X31896398Y-81676128D02*
X31682112Y-81604700D01*
X31682112Y-81604700D02*
X31539255Y-81461842D01*
X31539255Y-81461842D02*
X31467826Y-81318985D01*
X31467826Y-81318985D02*
X31396398Y-81033271D01*
X31396398Y-81033271D02*
X31396398Y-80818985D01*
X31396398Y-80818985D02*
X31467826Y-80533271D01*
X31467826Y-80533271D02*
X31539255Y-80390414D01*
X31539255Y-80390414D02*
X31682112Y-80247557D01*
X31682112Y-80247557D02*
X31896398Y-80176128D01*
X31896398Y-80176128D02*
X32039255Y-80176128D01*
X32039255Y-80176128D02*
X32253541Y-80247557D01*
X32253541Y-80247557D02*
X32324969Y-80318985D01*
X33182112Y-81676128D02*
X33039255Y-81604700D01*
X33039255Y-81604700D02*
X32967826Y-81533271D01*
X32967826Y-81533271D02*
X32896398Y-81390414D01*
X32896398Y-81390414D02*
X32896398Y-80961842D01*
X32896398Y-80961842D02*
X32967826Y-80818985D01*
X32967826Y-80818985D02*
X33039255Y-80747557D01*
X33039255Y-80747557D02*
X33182112Y-80676128D01*
X33182112Y-80676128D02*
X33396398Y-80676128D01*
X33396398Y-80676128D02*
X33539255Y-80747557D01*
X33539255Y-80747557D02*
X33610684Y-80818985D01*
X33610684Y-80818985D02*
X33682112Y-80961842D01*
X33682112Y-80961842D02*
X33682112Y-81390414D01*
X33682112Y-81390414D02*
X33610684Y-81533271D01*
X33610684Y-81533271D02*
X33539255Y-81604700D01*
X33539255Y-81604700D02*
X33396398Y-81676128D01*
X33396398Y-81676128D02*
X33182112Y-81676128D01*
X34324969Y-80676128D02*
X34324969Y-81676128D01*
X34324969Y-80818985D02*
X34396398Y-80747557D01*
X34396398Y-80747557D02*
X34539255Y-80676128D01*
X34539255Y-80676128D02*
X34753541Y-80676128D01*
X34753541Y-80676128D02*
X34896398Y-80747557D01*
X34896398Y-80747557D02*
X34967827Y-80890414D01*
X34967827Y-80890414D02*
X34967827Y-81676128D01*
X35467827Y-80676128D02*
X36039255Y-80676128D01*
X35682112Y-80176128D02*
X35682112Y-81461842D01*
X35682112Y-81461842D02*
X35753541Y-81604700D01*
X35753541Y-81604700D02*
X35896398Y-81676128D01*
X35896398Y-81676128D02*
X36039255Y-81676128D01*
X37182113Y-81676128D02*
X37182113Y-80890414D01*
X37182113Y-80890414D02*
X37110684Y-80747557D01*
X37110684Y-80747557D02*
X36967827Y-80676128D01*
X36967827Y-80676128D02*
X36682113Y-80676128D01*
X36682113Y-80676128D02*
X36539255Y-80747557D01*
X37182113Y-81604700D02*
X37039255Y-81676128D01*
X37039255Y-81676128D02*
X36682113Y-81676128D01*
X36682113Y-81676128D02*
X36539255Y-81604700D01*
X36539255Y-81604700D02*
X36467827Y-81461842D01*
X36467827Y-81461842D02*
X36467827Y-81318985D01*
X36467827Y-81318985D02*
X36539255Y-81176128D01*
X36539255Y-81176128D02*
X36682113Y-81104700D01*
X36682113Y-81104700D02*
X37039255Y-81104700D01*
X37039255Y-81104700D02*
X37182113Y-81033271D01*
X38539256Y-81604700D02*
X38396398Y-81676128D01*
X38396398Y-81676128D02*
X38110684Y-81676128D01*
X38110684Y-81676128D02*
X37967827Y-81604700D01*
X37967827Y-81604700D02*
X37896398Y-81533271D01*
X37896398Y-81533271D02*
X37824970Y-81390414D01*
X37824970Y-81390414D02*
X37824970Y-80961842D01*
X37824970Y-80961842D02*
X37896398Y-80818985D01*
X37896398Y-80818985D02*
X37967827Y-80747557D01*
X37967827Y-80747557D02*
X38110684Y-80676128D01*
X38110684Y-80676128D02*
X38396398Y-80676128D01*
X38396398Y-80676128D02*
X38539256Y-80747557D01*
X38967827Y-80676128D02*
X39539255Y-80676128D01*
X39182112Y-80176128D02*
X39182112Y-81461842D01*
X39182112Y-81461842D02*
X39253541Y-81604700D01*
X39253541Y-81604700D02*
X39396398Y-81676128D01*
X39396398Y-81676128D02*
X39539255Y-81676128D01*
X41182112Y-81533271D02*
X41253541Y-81604700D01*
X41253541Y-81604700D02*
X41182112Y-81676128D01*
X41182112Y-81676128D02*
X41110684Y-81604700D01*
X41110684Y-81604700D02*
X41182112Y-81533271D01*
X41182112Y-81533271D02*
X41182112Y-81676128D01*
X41182112Y-80747557D02*
X41253541Y-80818985D01*
X41253541Y-80818985D02*
X41182112Y-80890414D01*
X41182112Y-80890414D02*
X41110684Y-80818985D01*
X41110684Y-80818985D02*
X41182112Y-80747557D01*
X41182112Y-80747557D02*
X41182112Y-80890414D01*
X43039255Y-81676128D02*
X43039255Y-80176128D01*
X43039255Y-80747557D02*
X43182113Y-80676128D01*
X43182113Y-80676128D02*
X43467827Y-80676128D01*
X43467827Y-80676128D02*
X43610684Y-80747557D01*
X43610684Y-80747557D02*
X43682113Y-80818985D01*
X43682113Y-80818985D02*
X43753541Y-80961842D01*
X43753541Y-80961842D02*
X43753541Y-81390414D01*
X43753541Y-81390414D02*
X43682113Y-81533271D01*
X43682113Y-81533271D02*
X43610684Y-81604700D01*
X43610684Y-81604700D02*
X43467827Y-81676128D01*
X43467827Y-81676128D02*
X43182113Y-81676128D01*
X43182113Y-81676128D02*
X43039255Y-81604700D01*
X44967827Y-81604700D02*
X44824970Y-81676128D01*
X44824970Y-81676128D02*
X44539256Y-81676128D01*
X44539256Y-81676128D02*
X44396398Y-81604700D01*
X44396398Y-81604700D02*
X44324970Y-81461842D01*
X44324970Y-81461842D02*
X44324970Y-80890414D01*
X44324970Y-80890414D02*
X44396398Y-80747557D01*
X44396398Y-80747557D02*
X44539256Y-80676128D01*
X44539256Y-80676128D02*
X44824970Y-80676128D01*
X44824970Y-80676128D02*
X44967827Y-80747557D01*
X44967827Y-80747557D02*
X45039256Y-80890414D01*
X45039256Y-80890414D02*
X45039256Y-81033271D01*
X45039256Y-81033271D02*
X44324970Y-81176128D01*
X45682112Y-81676128D02*
X45682112Y-80676128D01*
X45682112Y-80961842D02*
X45753541Y-80818985D01*
X45753541Y-80818985D02*
X45824970Y-80747557D01*
X45824970Y-80747557D02*
X45967827Y-80676128D01*
X45967827Y-80676128D02*
X46110684Y-80676128D01*
X46396398Y-80676128D02*
X46967826Y-80676128D01*
X46610683Y-80176128D02*
X46610683Y-81461842D01*
X46610683Y-81461842D02*
X46682112Y-81604700D01*
X46682112Y-81604700D02*
X46824969Y-81676128D01*
X46824969Y-81676128D02*
X46967826Y-81676128D01*
X47467826Y-81676128D02*
X47467826Y-80676128D01*
X47467826Y-80961842D02*
X47539255Y-80818985D01*
X47539255Y-80818985D02*
X47610684Y-80747557D01*
X47610684Y-80747557D02*
X47753541Y-80676128D01*
X47753541Y-80676128D02*
X47896398Y-80676128D01*
X49039255Y-81676128D02*
X49039255Y-80890414D01*
X49039255Y-80890414D02*
X48967826Y-80747557D01*
X48967826Y-80747557D02*
X48824969Y-80676128D01*
X48824969Y-80676128D02*
X48539255Y-80676128D01*
X48539255Y-80676128D02*
X48396397Y-80747557D01*
X49039255Y-81604700D02*
X48896397Y-81676128D01*
X48896397Y-81676128D02*
X48539255Y-81676128D01*
X48539255Y-81676128D02*
X48396397Y-81604700D01*
X48396397Y-81604700D02*
X48324969Y-81461842D01*
X48324969Y-81461842D02*
X48324969Y-81318985D01*
X48324969Y-81318985D02*
X48396397Y-81176128D01*
X48396397Y-81176128D02*
X48539255Y-81104700D01*
X48539255Y-81104700D02*
X48896397Y-81104700D01*
X48896397Y-81104700D02*
X49039255Y-81033271D01*
X49753540Y-80676128D02*
X49753540Y-81676128D01*
X49753540Y-80818985D02*
X49824969Y-80747557D01*
X49824969Y-80747557D02*
X49967826Y-80676128D01*
X49967826Y-80676128D02*
X50182112Y-80676128D01*
X50182112Y-80676128D02*
X50324969Y-80747557D01*
X50324969Y-80747557D02*
X50396398Y-80890414D01*
X50396398Y-80890414D02*
X50396398Y-81676128D01*
X51753541Y-81676128D02*
X51753541Y-80176128D01*
X51753541Y-81604700D02*
X51610683Y-81676128D01*
X51610683Y-81676128D02*
X51324969Y-81676128D01*
X51324969Y-81676128D02*
X51182112Y-81604700D01*
X51182112Y-81604700D02*
X51110683Y-81533271D01*
X51110683Y-81533271D02*
X51039255Y-81390414D01*
X51039255Y-81390414D02*
X51039255Y-80961842D01*
X51039255Y-80961842D02*
X51110683Y-80818985D01*
X51110683Y-80818985D02*
X51182112Y-80747557D01*
X51182112Y-80747557D02*
X51324969Y-80676128D01*
X51324969Y-80676128D02*
X51610683Y-80676128D01*
X51610683Y-80676128D02*
X51753541Y-80747557D01*
X52467826Y-81533271D02*
X52539255Y-81604700D01*
X52539255Y-81604700D02*
X52467826Y-81676128D01*
X52467826Y-81676128D02*
X52396398Y-81604700D01*
X52396398Y-81604700D02*
X52467826Y-81533271D01*
X52467826Y-81533271D02*
X52467826Y-81676128D01*
X53182112Y-81676128D02*
X53182112Y-80676128D01*
X53182112Y-80818985D02*
X53253541Y-80747557D01*
X53253541Y-80747557D02*
X53396398Y-80676128D01*
X53396398Y-80676128D02*
X53610684Y-80676128D01*
X53610684Y-80676128D02*
X53753541Y-80747557D01*
X53753541Y-80747557D02*
X53824970Y-80890414D01*
X53824970Y-80890414D02*
X53824970Y-81676128D01*
X53824970Y-80890414D02*
X53896398Y-80747557D01*
X53896398Y-80747557D02*
X54039255Y-80676128D01*
X54039255Y-80676128D02*
X54253541Y-80676128D01*
X54253541Y-80676128D02*
X54396398Y-80747557D01*
X54396398Y-80747557D02*
X54467827Y-80890414D01*
X54467827Y-80890414D02*
X54467827Y-81676128D01*
X55824970Y-81676128D02*
X55824970Y-80890414D01*
X55824970Y-80890414D02*
X55753541Y-80747557D01*
X55753541Y-80747557D02*
X55610684Y-80676128D01*
X55610684Y-80676128D02*
X55324970Y-80676128D01*
X55324970Y-80676128D02*
X55182112Y-80747557D01*
X55824970Y-81604700D02*
X55682112Y-81676128D01*
X55682112Y-81676128D02*
X55324970Y-81676128D01*
X55324970Y-81676128D02*
X55182112Y-81604700D01*
X55182112Y-81604700D02*
X55110684Y-81461842D01*
X55110684Y-81461842D02*
X55110684Y-81318985D01*
X55110684Y-81318985D02*
X55182112Y-81176128D01*
X55182112Y-81176128D02*
X55324970Y-81104700D01*
X55324970Y-81104700D02*
X55682112Y-81104700D01*
X55682112Y-81104700D02*
X55824970Y-81033271D01*
X56467827Y-81604700D02*
X56610684Y-81676128D01*
X56610684Y-81676128D02*
X56896398Y-81676128D01*
X56896398Y-81676128D02*
X57039255Y-81604700D01*
X57039255Y-81604700D02*
X57110684Y-81461842D01*
X57110684Y-81461842D02*
X57110684Y-81390414D01*
X57110684Y-81390414D02*
X57039255Y-81247557D01*
X57039255Y-81247557D02*
X56896398Y-81176128D01*
X56896398Y-81176128D02*
X56682113Y-81176128D01*
X56682113Y-81176128D02*
X56539255Y-81104700D01*
X56539255Y-81104700D02*
X56467827Y-80961842D01*
X56467827Y-80961842D02*
X56467827Y-80890414D01*
X56467827Y-80890414D02*
X56539255Y-80747557D01*
X56539255Y-80747557D02*
X56682113Y-80676128D01*
X56682113Y-80676128D02*
X56896398Y-80676128D01*
X56896398Y-80676128D02*
X57039255Y-80747557D01*
X57682113Y-81604700D02*
X57824970Y-81676128D01*
X57824970Y-81676128D02*
X58110684Y-81676128D01*
X58110684Y-81676128D02*
X58253541Y-81604700D01*
X58253541Y-81604700D02*
X58324970Y-81461842D01*
X58324970Y-81461842D02*
X58324970Y-81390414D01*
X58324970Y-81390414D02*
X58253541Y-81247557D01*
X58253541Y-81247557D02*
X58110684Y-81176128D01*
X58110684Y-81176128D02*
X57896399Y-81176128D01*
X57896399Y-81176128D02*
X57753541Y-81104700D01*
X57753541Y-81104700D02*
X57682113Y-80961842D01*
X57682113Y-80961842D02*
X57682113Y-80890414D01*
X57682113Y-80890414D02*
X57753541Y-80747557D01*
X57753541Y-80747557D02*
X57896399Y-80676128D01*
X57896399Y-80676128D02*
X58110684Y-80676128D01*
X58110684Y-80676128D02*
X58253541Y-80747557D01*
X59182113Y-81676128D02*
X59039256Y-81604700D01*
X59039256Y-81604700D02*
X58967827Y-81533271D01*
X58967827Y-81533271D02*
X58896399Y-81390414D01*
X58896399Y-81390414D02*
X58896399Y-80961842D01*
X58896399Y-80961842D02*
X58967827Y-80818985D01*
X58967827Y-80818985D02*
X59039256Y-80747557D01*
X59039256Y-80747557D02*
X59182113Y-80676128D01*
X59182113Y-80676128D02*
X59396399Y-80676128D01*
X59396399Y-80676128D02*
X59539256Y-80747557D01*
X59539256Y-80747557D02*
X59610685Y-80818985D01*
X59610685Y-80818985D02*
X59682113Y-80961842D01*
X59682113Y-80961842D02*
X59682113Y-81390414D01*
X59682113Y-81390414D02*
X59610685Y-81533271D01*
X59610685Y-81533271D02*
X59539256Y-81604700D01*
X59539256Y-81604700D02*
X59396399Y-81676128D01*
X59396399Y-81676128D02*
X59182113Y-81676128D01*
X60110685Y-80676128D02*
X60682113Y-80676128D01*
X60324970Y-80176128D02*
X60324970Y-81461842D01*
X60324970Y-81461842D02*
X60396399Y-81604700D01*
X60396399Y-81604700D02*
X60539256Y-81676128D01*
X60539256Y-81676128D02*
X60682113Y-81676128D01*
X62110685Y-80961842D02*
X62039256Y-80890414D01*
X62039256Y-80890414D02*
X61896399Y-80818985D01*
X61896399Y-80818985D02*
X61753542Y-80818985D01*
X61753542Y-80818985D02*
X61610685Y-80890414D01*
X61610685Y-80890414D02*
X61539256Y-80961842D01*
X61539256Y-80961842D02*
X61467828Y-81104700D01*
X61467828Y-81104700D02*
X61467828Y-81247557D01*
X61467828Y-81247557D02*
X61539256Y-81390414D01*
X61539256Y-81390414D02*
X61610685Y-81461842D01*
X61610685Y-81461842D02*
X61753542Y-81533271D01*
X61753542Y-81533271D02*
X61896399Y-81533271D01*
X61896399Y-81533271D02*
X62039256Y-81461842D01*
X62039256Y-81461842D02*
X62110685Y-81390414D01*
X62110685Y-80818985D02*
X62110685Y-81390414D01*
X62110685Y-81390414D02*
X62182113Y-81461842D01*
X62182113Y-81461842D02*
X62253542Y-81461842D01*
X62253542Y-81461842D02*
X62396399Y-81390414D01*
X62396399Y-81390414D02*
X62467828Y-81247557D01*
X62467828Y-81247557D02*
X62467828Y-80890414D01*
X62467828Y-80890414D02*
X62324971Y-80676128D01*
X62324971Y-80676128D02*
X62110685Y-80533271D01*
X62110685Y-80533271D02*
X61824971Y-80461842D01*
X61824971Y-80461842D02*
X61539256Y-80533271D01*
X61539256Y-80533271D02*
X61324971Y-80676128D01*
X61324971Y-80676128D02*
X61182113Y-80890414D01*
X61182113Y-80890414D02*
X61110685Y-81176128D01*
X61110685Y-81176128D02*
X61182113Y-81461842D01*
X61182113Y-81461842D02*
X61324971Y-81676128D01*
X61324971Y-81676128D02*
X61539256Y-81818985D01*
X61539256Y-81818985D02*
X61824971Y-81890414D01*
X61824971Y-81890414D02*
X62110685Y-81818985D01*
X62110685Y-81818985D02*
X62324971Y-81676128D01*
X63110684Y-81676128D02*
X63110684Y-80676128D01*
X63110684Y-80176128D02*
X63039256Y-80247557D01*
X63039256Y-80247557D02*
X63110684Y-80318985D01*
X63110684Y-80318985D02*
X63182113Y-80247557D01*
X63182113Y-80247557D02*
X63110684Y-80176128D01*
X63110684Y-80176128D02*
X63110684Y-80318985D01*
X63824970Y-80676128D02*
X63824970Y-81676128D01*
X63824970Y-80818985D02*
X63896399Y-80747557D01*
X63896399Y-80747557D02*
X64039256Y-80676128D01*
X64039256Y-80676128D02*
X64253542Y-80676128D01*
X64253542Y-80676128D02*
X64396399Y-80747557D01*
X64396399Y-80747557D02*
X64467828Y-80890414D01*
X64467828Y-80890414D02*
X64467828Y-81676128D01*
X65110685Y-81604700D02*
X65253542Y-81676128D01*
X65253542Y-81676128D02*
X65539256Y-81676128D01*
X65539256Y-81676128D02*
X65682113Y-81604700D01*
X65682113Y-81604700D02*
X65753542Y-81461842D01*
X65753542Y-81461842D02*
X65753542Y-81390414D01*
X65753542Y-81390414D02*
X65682113Y-81247557D01*
X65682113Y-81247557D02*
X65539256Y-81176128D01*
X65539256Y-81176128D02*
X65324971Y-81176128D01*
X65324971Y-81176128D02*
X65182113Y-81104700D01*
X65182113Y-81104700D02*
X65110685Y-80961842D01*
X65110685Y-80961842D02*
X65110685Y-80890414D01*
X65110685Y-80890414D02*
X65182113Y-80747557D01*
X65182113Y-80747557D02*
X65324971Y-80676128D01*
X65324971Y-80676128D02*
X65539256Y-80676128D01*
X65539256Y-80676128D02*
X65682113Y-80747557D01*
X67039257Y-81676128D02*
X67039257Y-80890414D01*
X67039257Y-80890414D02*
X66967828Y-80747557D01*
X66967828Y-80747557D02*
X66824971Y-80676128D01*
X66824971Y-80676128D02*
X66539257Y-80676128D01*
X66539257Y-80676128D02*
X66396399Y-80747557D01*
X67039257Y-81604700D02*
X66896399Y-81676128D01*
X66896399Y-81676128D02*
X66539257Y-81676128D01*
X66539257Y-81676128D02*
X66396399Y-81604700D01*
X66396399Y-81604700D02*
X66324971Y-81461842D01*
X66324971Y-81461842D02*
X66324971Y-81318985D01*
X66324971Y-81318985D02*
X66396399Y-81176128D01*
X66396399Y-81176128D02*
X66539257Y-81104700D01*
X66539257Y-81104700D02*
X66896399Y-81104700D01*
X66896399Y-81104700D02*
X67039257Y-81033271D01*
X67753542Y-81104700D02*
X68896400Y-81104700D01*
X69824971Y-81676128D02*
X69682114Y-81604700D01*
X69682114Y-81604700D02*
X69610685Y-81461842D01*
X69610685Y-81461842D02*
X69610685Y-80176128D01*
X70253542Y-80676128D02*
X70610685Y-81676128D01*
X70967828Y-80676128D02*
X70610685Y-81676128D01*
X70610685Y-81676128D02*
X70467828Y-82033271D01*
X70467828Y-82033271D02*
X70396399Y-82104700D01*
X70396399Y-82104700D02*
X70253542Y-82176128D01*
X71753542Y-81676128D02*
X71610685Y-81604700D01*
X71610685Y-81604700D02*
X71539256Y-81533271D01*
X71539256Y-81533271D02*
X71467828Y-81390414D01*
X71467828Y-81390414D02*
X71467828Y-80961842D01*
X71467828Y-80961842D02*
X71539256Y-80818985D01*
X71539256Y-80818985D02*
X71610685Y-80747557D01*
X71610685Y-80747557D02*
X71753542Y-80676128D01*
X71753542Y-80676128D02*
X71967828Y-80676128D01*
X71967828Y-80676128D02*
X72110685Y-80747557D01*
X72110685Y-80747557D02*
X72182114Y-80818985D01*
X72182114Y-80818985D02*
X72253542Y-80961842D01*
X72253542Y-80961842D02*
X72253542Y-81390414D01*
X72253542Y-81390414D02*
X72182114Y-81533271D01*
X72182114Y-81533271D02*
X72110685Y-81604700D01*
X72110685Y-81604700D02*
X71967828Y-81676128D01*
X71967828Y-81676128D02*
X71753542Y-81676128D01*
X72896399Y-80676128D02*
X72896399Y-81676128D01*
X72896399Y-80818985D02*
X72967828Y-80747557D01*
X72967828Y-80747557D02*
X73110685Y-80676128D01*
X73110685Y-80676128D02*
X73324971Y-80676128D01*
X73324971Y-80676128D02*
X73467828Y-80747557D01*
X73467828Y-80747557D02*
X73539257Y-80890414D01*
X73539257Y-80890414D02*
X73539257Y-81676128D01*
X74253542Y-81533271D02*
X74324971Y-81604700D01*
X74324971Y-81604700D02*
X74253542Y-81676128D01*
X74253542Y-81676128D02*
X74182114Y-81604700D01*
X74182114Y-81604700D02*
X74253542Y-81533271D01*
X74253542Y-81533271D02*
X74253542Y-81676128D01*
X74753543Y-80676128D02*
X75324971Y-80676128D01*
X74967828Y-81676128D02*
X74967828Y-80390414D01*
X74967828Y-80390414D02*
X75039257Y-80247557D01*
X75039257Y-80247557D02*
X75182114Y-80176128D01*
X75182114Y-80176128D02*
X75324971Y-80176128D01*
X75824971Y-81676128D02*
X75824971Y-80676128D01*
X75824971Y-80961842D02*
X75896400Y-80818985D01*
X75896400Y-80818985D02*
X75967829Y-80747557D01*
X75967829Y-80747557D02*
X76110686Y-80676128D01*
X76110686Y-80676128D02*
X76253543Y-80676128D01*
D10*
D11*
X31396398Y-78247557D02*
X32110684Y-78247557D01*
X31253541Y-78676128D02*
X31753541Y-77176128D01*
X31753541Y-77176128D02*
X32253541Y-78676128D01*
X33396398Y-77676128D02*
X33396398Y-78676128D01*
X32753540Y-77676128D02*
X32753540Y-78461842D01*
X32753540Y-78461842D02*
X32824969Y-78604700D01*
X32824969Y-78604700D02*
X32967826Y-78676128D01*
X32967826Y-78676128D02*
X33182112Y-78676128D01*
X33182112Y-78676128D02*
X33324969Y-78604700D01*
X33324969Y-78604700D02*
X33396398Y-78533271D01*
X33896398Y-77676128D02*
X34467826Y-77676128D01*
X34110683Y-77176128D02*
X34110683Y-78461842D01*
X34110683Y-78461842D02*
X34182112Y-78604700D01*
X34182112Y-78604700D02*
X34324969Y-78676128D01*
X34324969Y-78676128D02*
X34467826Y-78676128D01*
X34967826Y-78676128D02*
X34967826Y-77176128D01*
X35610684Y-78676128D02*
X35610684Y-77890414D01*
X35610684Y-77890414D02*
X35539255Y-77747557D01*
X35539255Y-77747557D02*
X35396398Y-77676128D01*
X35396398Y-77676128D02*
X35182112Y-77676128D01*
X35182112Y-77676128D02*
X35039255Y-77747557D01*
X35039255Y-77747557D02*
X34967826Y-77818985D01*
X36539255Y-78676128D02*
X36396398Y-78604700D01*
X36396398Y-78604700D02*
X36324969Y-78533271D01*
X36324969Y-78533271D02*
X36253541Y-78390414D01*
X36253541Y-78390414D02*
X36253541Y-77961842D01*
X36253541Y-77961842D02*
X36324969Y-77818985D01*
X36324969Y-77818985D02*
X36396398Y-77747557D01*
X36396398Y-77747557D02*
X36539255Y-77676128D01*
X36539255Y-77676128D02*
X36753541Y-77676128D01*
X36753541Y-77676128D02*
X36896398Y-77747557D01*
X36896398Y-77747557D02*
X36967827Y-77818985D01*
X36967827Y-77818985D02*
X37039255Y-77961842D01*
X37039255Y-77961842D02*
X37039255Y-78390414D01*
X37039255Y-78390414D02*
X36967827Y-78533271D01*
X36967827Y-78533271D02*
X36896398Y-78604700D01*
X36896398Y-78604700D02*
X36753541Y-78676128D01*
X36753541Y-78676128D02*
X36539255Y-78676128D01*
X37682112Y-78676128D02*
X37682112Y-77676128D01*
X37682112Y-77961842D02*
X37753541Y-77818985D01*
X37753541Y-77818985D02*
X37824970Y-77747557D01*
X37824970Y-77747557D02*
X37967827Y-77676128D01*
X37967827Y-77676128D02*
X38110684Y-77676128D01*
X38539255Y-78604700D02*
X38682112Y-78676128D01*
X38682112Y-78676128D02*
X38967826Y-78676128D01*
X38967826Y-78676128D02*
X39110683Y-78604700D01*
X39110683Y-78604700D02*
X39182112Y-78461842D01*
X39182112Y-78461842D02*
X39182112Y-78390414D01*
X39182112Y-78390414D02*
X39110683Y-78247557D01*
X39110683Y-78247557D02*
X38967826Y-78176128D01*
X38967826Y-78176128D02*
X38753541Y-78176128D01*
X38753541Y-78176128D02*
X38610683Y-78104700D01*
X38610683Y-78104700D02*
X38539255Y-77961842D01*
X38539255Y-77961842D02*
X38539255Y-77890414D01*
X38539255Y-77890414D02*
X38610683Y-77747557D01*
X38610683Y-77747557D02*
X38753541Y-77676128D01*
X38753541Y-77676128D02*
X38967826Y-77676128D01*
X38967826Y-77676128D02*
X39110683Y-77747557D01*
X40967826Y-78533271D02*
X41039255Y-78604700D01*
X41039255Y-78604700D02*
X40967826Y-78676128D01*
X40967826Y-78676128D02*
X40896398Y-78604700D01*
X40896398Y-78604700D02*
X40967826Y-78533271D01*
X40967826Y-78533271D02*
X40967826Y-78676128D01*
X40967826Y-77747557D02*
X41039255Y-77818985D01*
X41039255Y-77818985D02*
X40967826Y-77890414D01*
X40967826Y-77890414D02*
X40896398Y-77818985D01*
X40896398Y-77818985D02*
X40967826Y-77747557D01*
X40967826Y-77747557D02*
X40967826Y-77890414D01*
X43324969Y-77890414D02*
X43539255Y-77961842D01*
X43539255Y-77961842D02*
X43610684Y-78033271D01*
X43610684Y-78033271D02*
X43682112Y-78176128D01*
X43682112Y-78176128D02*
X43682112Y-78390414D01*
X43682112Y-78390414D02*
X43610684Y-78533271D01*
X43610684Y-78533271D02*
X43539255Y-78604700D01*
X43539255Y-78604700D02*
X43396398Y-78676128D01*
X43396398Y-78676128D02*
X42824969Y-78676128D01*
X42824969Y-78676128D02*
X42824969Y-77176128D01*
X42824969Y-77176128D02*
X43324969Y-77176128D01*
X43324969Y-77176128D02*
X43467827Y-77247557D01*
X43467827Y-77247557D02*
X43539255Y-77318985D01*
X43539255Y-77318985D02*
X43610684Y-77461842D01*
X43610684Y-77461842D02*
X43610684Y-77604700D01*
X43610684Y-77604700D02*
X43539255Y-77747557D01*
X43539255Y-77747557D02*
X43467827Y-77818985D01*
X43467827Y-77818985D02*
X43324969Y-77890414D01*
X43324969Y-77890414D02*
X42824969Y-77890414D01*
X44896398Y-78604700D02*
X44753541Y-78676128D01*
X44753541Y-78676128D02*
X44467827Y-78676128D01*
X44467827Y-78676128D02*
X44324969Y-78604700D01*
X44324969Y-78604700D02*
X44253541Y-78461842D01*
X44253541Y-78461842D02*
X44253541Y-77890414D01*
X44253541Y-77890414D02*
X44324969Y-77747557D01*
X44324969Y-77747557D02*
X44467827Y-77676128D01*
X44467827Y-77676128D02*
X44753541Y-77676128D01*
X44753541Y-77676128D02*
X44896398Y-77747557D01*
X44896398Y-77747557D02*
X44967827Y-77890414D01*
X44967827Y-77890414D02*
X44967827Y-78033271D01*
X44967827Y-78033271D02*
X44253541Y-78176128D01*
X45610683Y-78676128D02*
X45610683Y-77676128D01*
X45610683Y-77961842D02*
X45682112Y-77818985D01*
X45682112Y-77818985D02*
X45753541Y-77747557D01*
X45753541Y-77747557D02*
X45896398Y-77676128D01*
X45896398Y-77676128D02*
X46039255Y-77676128D01*
X46324969Y-77676128D02*
X46896397Y-77676128D01*
X46539254Y-77176128D02*
X46539254Y-78461842D01*
X46539254Y-78461842D02*
X46610683Y-78604700D01*
X46610683Y-78604700D02*
X46753540Y-78676128D01*
X46753540Y-78676128D02*
X46896397Y-78676128D01*
X47396397Y-78676128D02*
X47396397Y-77676128D01*
X47396397Y-77961842D02*
X47467826Y-77818985D01*
X47467826Y-77818985D02*
X47539255Y-77747557D01*
X47539255Y-77747557D02*
X47682112Y-77676128D01*
X47682112Y-77676128D02*
X47824969Y-77676128D01*
X48967826Y-78676128D02*
X48967826Y-77890414D01*
X48967826Y-77890414D02*
X48896397Y-77747557D01*
X48896397Y-77747557D02*
X48753540Y-77676128D01*
X48753540Y-77676128D02*
X48467826Y-77676128D01*
X48467826Y-77676128D02*
X48324968Y-77747557D01*
X48967826Y-78604700D02*
X48824968Y-78676128D01*
X48824968Y-78676128D02*
X48467826Y-78676128D01*
X48467826Y-78676128D02*
X48324968Y-78604700D01*
X48324968Y-78604700D02*
X48253540Y-78461842D01*
X48253540Y-78461842D02*
X48253540Y-78318985D01*
X48253540Y-78318985D02*
X48324968Y-78176128D01*
X48324968Y-78176128D02*
X48467826Y-78104700D01*
X48467826Y-78104700D02*
X48824968Y-78104700D01*
X48824968Y-78104700D02*
X48967826Y-78033271D01*
X49682111Y-77676128D02*
X49682111Y-78676128D01*
X49682111Y-77818985D02*
X49753540Y-77747557D01*
X49753540Y-77747557D02*
X49896397Y-77676128D01*
X49896397Y-77676128D02*
X50110683Y-77676128D01*
X50110683Y-77676128D02*
X50253540Y-77747557D01*
X50253540Y-77747557D02*
X50324969Y-77890414D01*
X50324969Y-77890414D02*
X50324969Y-78676128D01*
X51682112Y-78676128D02*
X51682112Y-77176128D01*
X51682112Y-78604700D02*
X51539254Y-78676128D01*
X51539254Y-78676128D02*
X51253540Y-78676128D01*
X51253540Y-78676128D02*
X51110683Y-78604700D01*
X51110683Y-78604700D02*
X51039254Y-78533271D01*
X51039254Y-78533271D02*
X50967826Y-78390414D01*
X50967826Y-78390414D02*
X50967826Y-77961842D01*
X50967826Y-77961842D02*
X51039254Y-77818985D01*
X51039254Y-77818985D02*
X51110683Y-77747557D01*
X51110683Y-77747557D02*
X51253540Y-77676128D01*
X51253540Y-77676128D02*
X51539254Y-77676128D01*
X51539254Y-77676128D02*
X51682112Y-77747557D01*
X53539254Y-78676128D02*
X53539254Y-77176128D01*
X53539254Y-77176128D02*
X54039254Y-78247557D01*
X54039254Y-78247557D02*
X54539254Y-77176128D01*
X54539254Y-77176128D02*
X54539254Y-78676128D01*
X55896398Y-78676128D02*
X55896398Y-77890414D01*
X55896398Y-77890414D02*
X55824969Y-77747557D01*
X55824969Y-77747557D02*
X55682112Y-77676128D01*
X55682112Y-77676128D02*
X55396398Y-77676128D01*
X55396398Y-77676128D02*
X55253540Y-77747557D01*
X55896398Y-78604700D02*
X55753540Y-78676128D01*
X55753540Y-78676128D02*
X55396398Y-78676128D01*
X55396398Y-78676128D02*
X55253540Y-78604700D01*
X55253540Y-78604700D02*
X55182112Y-78461842D01*
X55182112Y-78461842D02*
X55182112Y-78318985D01*
X55182112Y-78318985D02*
X55253540Y-78176128D01*
X55253540Y-78176128D02*
X55396398Y-78104700D01*
X55396398Y-78104700D02*
X55753540Y-78104700D01*
X55753540Y-78104700D02*
X55896398Y-78033271D01*
X56539255Y-78604700D02*
X56682112Y-78676128D01*
X56682112Y-78676128D02*
X56967826Y-78676128D01*
X56967826Y-78676128D02*
X57110683Y-78604700D01*
X57110683Y-78604700D02*
X57182112Y-78461842D01*
X57182112Y-78461842D02*
X57182112Y-78390414D01*
X57182112Y-78390414D02*
X57110683Y-78247557D01*
X57110683Y-78247557D02*
X56967826Y-78176128D01*
X56967826Y-78176128D02*
X56753541Y-78176128D01*
X56753541Y-78176128D02*
X56610683Y-78104700D01*
X56610683Y-78104700D02*
X56539255Y-77961842D01*
X56539255Y-77961842D02*
X56539255Y-77890414D01*
X56539255Y-77890414D02*
X56610683Y-77747557D01*
X56610683Y-77747557D02*
X56753541Y-77676128D01*
X56753541Y-77676128D02*
X56967826Y-77676128D01*
X56967826Y-77676128D02*
X57110683Y-77747557D01*
X57753541Y-78604700D02*
X57896398Y-78676128D01*
X57896398Y-78676128D02*
X58182112Y-78676128D01*
X58182112Y-78676128D02*
X58324969Y-78604700D01*
X58324969Y-78604700D02*
X58396398Y-78461842D01*
X58396398Y-78461842D02*
X58396398Y-78390414D01*
X58396398Y-78390414D02*
X58324969Y-78247557D01*
X58324969Y-78247557D02*
X58182112Y-78176128D01*
X58182112Y-78176128D02*
X57967827Y-78176128D01*
X57967827Y-78176128D02*
X57824969Y-78104700D01*
X57824969Y-78104700D02*
X57753541Y-77961842D01*
X57753541Y-77961842D02*
X57753541Y-77890414D01*
X57753541Y-77890414D02*
X57824969Y-77747557D01*
X57824969Y-77747557D02*
X57967827Y-77676128D01*
X57967827Y-77676128D02*
X58182112Y-77676128D01*
X58182112Y-77676128D02*
X58324969Y-77747557D01*
X59253541Y-78676128D02*
X59110684Y-78604700D01*
X59110684Y-78604700D02*
X59039255Y-78533271D01*
X59039255Y-78533271D02*
X58967827Y-78390414D01*
X58967827Y-78390414D02*
X58967827Y-77961842D01*
X58967827Y-77961842D02*
X59039255Y-77818985D01*
X59039255Y-77818985D02*
X59110684Y-77747557D01*
X59110684Y-77747557D02*
X59253541Y-77676128D01*
X59253541Y-77676128D02*
X59467827Y-77676128D01*
X59467827Y-77676128D02*
X59610684Y-77747557D01*
X59610684Y-77747557D02*
X59682113Y-77818985D01*
X59682113Y-77818985D02*
X59753541Y-77961842D01*
X59753541Y-77961842D02*
X59753541Y-78390414D01*
X59753541Y-78390414D02*
X59682113Y-78533271D01*
X59682113Y-78533271D02*
X59610684Y-78604700D01*
X59610684Y-78604700D02*
X59467827Y-78676128D01*
X59467827Y-78676128D02*
X59253541Y-78676128D01*
X60182113Y-77676128D02*
X60753541Y-77676128D01*
X60396398Y-77176128D02*
X60396398Y-78461842D01*
X60396398Y-78461842D02*
X60467827Y-78604700D01*
X60467827Y-78604700D02*
X60610684Y-78676128D01*
X60610684Y-78676128D02*
X60753541Y-78676128D01*
X61324970Y-78604700D02*
X61324970Y-78676128D01*
X61324970Y-78676128D02*
X61253541Y-78818985D01*
X61253541Y-78818985D02*
X61182113Y-78890414D01*
X63110684Y-78676128D02*
X63110684Y-77176128D01*
X63110684Y-77176128D02*
X63610684Y-78247557D01*
X63610684Y-78247557D02*
X64110684Y-77176128D01*
X64110684Y-77176128D02*
X64110684Y-78676128D01*
X65467828Y-78676128D02*
X65467828Y-77890414D01*
X65467828Y-77890414D02*
X65396399Y-77747557D01*
X65396399Y-77747557D02*
X65253542Y-77676128D01*
X65253542Y-77676128D02*
X64967828Y-77676128D01*
X64967828Y-77676128D02*
X64824970Y-77747557D01*
X65467828Y-78604700D02*
X65324970Y-78676128D01*
X65324970Y-78676128D02*
X64967828Y-78676128D01*
X64967828Y-78676128D02*
X64824970Y-78604700D01*
X64824970Y-78604700D02*
X64753542Y-78461842D01*
X64753542Y-78461842D02*
X64753542Y-78318985D01*
X64753542Y-78318985D02*
X64824970Y-78176128D01*
X64824970Y-78176128D02*
X64967828Y-78104700D01*
X64967828Y-78104700D02*
X65324970Y-78104700D01*
X65324970Y-78104700D02*
X65467828Y-78033271D01*
X65967828Y-77676128D02*
X66539256Y-77676128D01*
X66182113Y-77176128D02*
X66182113Y-78461842D01*
X66182113Y-78461842D02*
X66253542Y-78604700D01*
X66253542Y-78604700D02*
X66396399Y-78676128D01*
X66396399Y-78676128D02*
X66539256Y-78676128D01*
X66824971Y-77676128D02*
X67396399Y-77676128D01*
X67039256Y-77176128D02*
X67039256Y-78461842D01*
X67039256Y-78461842D02*
X67110685Y-78604700D01*
X67110685Y-78604700D02*
X67253542Y-78676128D01*
X67253542Y-78676128D02*
X67396399Y-78676128D01*
X67896399Y-78676128D02*
X67896399Y-77176128D01*
X68539257Y-78676128D02*
X68539257Y-77890414D01*
X68539257Y-77890414D02*
X68467828Y-77747557D01*
X68467828Y-77747557D02*
X68324971Y-77676128D01*
X68324971Y-77676128D02*
X68110685Y-77676128D01*
X68110685Y-77676128D02*
X67967828Y-77747557D01*
X67967828Y-77747557D02*
X67896399Y-77818985D01*
X69253542Y-78676128D02*
X69253542Y-77676128D01*
X69253542Y-77176128D02*
X69182114Y-77247557D01*
X69182114Y-77247557D02*
X69253542Y-77318985D01*
X69253542Y-77318985D02*
X69324971Y-77247557D01*
X69324971Y-77247557D02*
X69253542Y-77176128D01*
X69253542Y-77176128D02*
X69253542Y-77318985D01*
X70539257Y-78604700D02*
X70396400Y-78676128D01*
X70396400Y-78676128D02*
X70110686Y-78676128D01*
X70110686Y-78676128D02*
X69967828Y-78604700D01*
X69967828Y-78604700D02*
X69896400Y-78461842D01*
X69896400Y-78461842D02*
X69896400Y-77890414D01*
X69896400Y-77890414D02*
X69967828Y-77747557D01*
X69967828Y-77747557D02*
X70110686Y-77676128D01*
X70110686Y-77676128D02*
X70396400Y-77676128D01*
X70396400Y-77676128D02*
X70539257Y-77747557D01*
X70539257Y-77747557D02*
X70610686Y-77890414D01*
X70610686Y-77890414D02*
X70610686Y-78033271D01*
X70610686Y-78033271D02*
X69896400Y-78176128D01*
X71896400Y-77676128D02*
X71896400Y-78676128D01*
X71253542Y-77676128D02*
X71253542Y-78461842D01*
X71253542Y-78461842D02*
X71324971Y-78604700D01*
X71324971Y-78604700D02*
X71467828Y-78676128D01*
X71467828Y-78676128D02*
X71682114Y-78676128D01*
X71682114Y-78676128D02*
X71824971Y-78604700D01*
X71824971Y-78604700D02*
X71896400Y-78533271D01*
X73753542Y-78676128D02*
X73753542Y-77176128D01*
X73753542Y-77176128D02*
X74253542Y-78247557D01*
X74253542Y-78247557D02*
X74753542Y-77176128D01*
X74753542Y-77176128D02*
X74753542Y-78676128D01*
X76039257Y-78604700D02*
X75896400Y-78676128D01*
X75896400Y-78676128D02*
X75610686Y-78676128D01*
X75610686Y-78676128D02*
X75467828Y-78604700D01*
X75467828Y-78604700D02*
X75396400Y-78461842D01*
X75396400Y-78461842D02*
X75396400Y-77890414D01*
X75396400Y-77890414D02*
X75467828Y-77747557D01*
X75467828Y-77747557D02*
X75610686Y-77676128D01*
X75610686Y-77676128D02*
X75896400Y-77676128D01*
X75896400Y-77676128D02*
X76039257Y-77747557D01*
X76039257Y-77747557D02*
X76110686Y-77890414D01*
X76110686Y-77890414D02*
X76110686Y-78033271D01*
X76110686Y-78033271D02*
X75396400Y-78176128D01*
X76682114Y-78604700D02*
X76824971Y-78676128D01*
X76824971Y-78676128D02*
X77110685Y-78676128D01*
X77110685Y-78676128D02*
X77253542Y-78604700D01*
X77253542Y-78604700D02*
X77324971Y-78461842D01*
X77324971Y-78461842D02*
X77324971Y-78390414D01*
X77324971Y-78390414D02*
X77253542Y-78247557D01*
X77253542Y-78247557D02*
X77110685Y-78176128D01*
X77110685Y-78176128D02*
X76896400Y-78176128D01*
X76896400Y-78176128D02*
X76753542Y-78104700D01*
X76753542Y-78104700D02*
X76682114Y-77961842D01*
X76682114Y-77961842D02*
X76682114Y-77890414D01*
X76682114Y-77890414D02*
X76753542Y-77747557D01*
X76753542Y-77747557D02*
X76896400Y-77676128D01*
X76896400Y-77676128D02*
X77110685Y-77676128D01*
X77110685Y-77676128D02*
X77253542Y-77747557D01*
X77967828Y-77676128D02*
X77967828Y-78676128D01*
X77967828Y-77818985D02*
X78039257Y-77747557D01*
X78039257Y-77747557D02*
X78182114Y-77676128D01*
X78182114Y-77676128D02*
X78396400Y-77676128D01*
X78396400Y-77676128D02*
X78539257Y-77747557D01*
X78539257Y-77747557D02*
X78610686Y-77890414D01*
X78610686Y-77890414D02*
X78610686Y-78676128D01*
X79967829Y-78676128D02*
X79967829Y-77890414D01*
X79967829Y-77890414D02*
X79896400Y-77747557D01*
X79896400Y-77747557D02*
X79753543Y-77676128D01*
X79753543Y-77676128D02*
X79467829Y-77676128D01*
X79467829Y-77676128D02*
X79324971Y-77747557D01*
X79967829Y-78604700D02*
X79824971Y-78676128D01*
X79824971Y-78676128D02*
X79467829Y-78676128D01*
X79467829Y-78676128D02*
X79324971Y-78604700D01*
X79324971Y-78604700D02*
X79253543Y-78461842D01*
X79253543Y-78461842D02*
X79253543Y-78318985D01*
X79253543Y-78318985D02*
X79324971Y-78176128D01*
X79324971Y-78176128D02*
X79467829Y-78104700D01*
X79467829Y-78104700D02*
X79824971Y-78104700D01*
X79824971Y-78104700D02*
X79967829Y-78033271D01*
X81324972Y-77676128D02*
X81324972Y-78890414D01*
X81324972Y-78890414D02*
X81253543Y-79033271D01*
X81253543Y-79033271D02*
X81182114Y-79104700D01*
X81182114Y-79104700D02*
X81039257Y-79176128D01*
X81039257Y-79176128D02*
X80824972Y-79176128D01*
X80824972Y-79176128D02*
X80682114Y-79104700D01*
X81324972Y-78604700D02*
X81182114Y-78676128D01*
X81182114Y-78676128D02*
X80896400Y-78676128D01*
X80896400Y-78676128D02*
X80753543Y-78604700D01*
X80753543Y-78604700D02*
X80682114Y-78533271D01*
X80682114Y-78533271D02*
X80610686Y-78390414D01*
X80610686Y-78390414D02*
X80610686Y-77961842D01*
X80610686Y-77961842D02*
X80682114Y-77818985D01*
X80682114Y-77818985D02*
X80753543Y-77747557D01*
X80753543Y-77747557D02*
X80896400Y-77676128D01*
X80896400Y-77676128D02*
X81182114Y-77676128D01*
X81182114Y-77676128D02*
X81324972Y-77747557D01*
X82610686Y-78604700D02*
X82467829Y-78676128D01*
X82467829Y-78676128D02*
X82182115Y-78676128D01*
X82182115Y-78676128D02*
X82039257Y-78604700D01*
X82039257Y-78604700D02*
X81967829Y-78461842D01*
X81967829Y-78461842D02*
X81967829Y-77890414D01*
X81967829Y-77890414D02*
X82039257Y-77747557D01*
X82039257Y-77747557D02*
X82182115Y-77676128D01*
X82182115Y-77676128D02*
X82467829Y-77676128D01*
X82467829Y-77676128D02*
X82610686Y-77747557D01*
X82610686Y-77747557D02*
X82682115Y-77890414D01*
X82682115Y-77890414D02*
X82682115Y-78033271D01*
X82682115Y-78033271D02*
X81967829Y-78176128D01*
X83396400Y-78604700D02*
X83396400Y-78676128D01*
X83396400Y-78676128D02*
X83324971Y-78818985D01*
X83324971Y-78818985D02*
X83253543Y-78890414D01*
X85182114Y-78676128D02*
X85182114Y-77176128D01*
X85182114Y-77890414D02*
X86039257Y-77890414D01*
X86039257Y-78676128D02*
X86039257Y-77176128D01*
X87396401Y-77676128D02*
X87396401Y-78676128D01*
X86753543Y-77676128D02*
X86753543Y-78461842D01*
X86753543Y-78461842D02*
X86824972Y-78604700D01*
X86824972Y-78604700D02*
X86967829Y-78676128D01*
X86967829Y-78676128D02*
X87182115Y-78676128D01*
X87182115Y-78676128D02*
X87324972Y-78604700D01*
X87324972Y-78604700D02*
X87396401Y-78533271D01*
X88753544Y-77676128D02*
X88753544Y-78890414D01*
X88753544Y-78890414D02*
X88682115Y-79033271D01*
X88682115Y-79033271D02*
X88610686Y-79104700D01*
X88610686Y-79104700D02*
X88467829Y-79176128D01*
X88467829Y-79176128D02*
X88253544Y-79176128D01*
X88253544Y-79176128D02*
X88110686Y-79104700D01*
X88753544Y-78604700D02*
X88610686Y-78676128D01*
X88610686Y-78676128D02*
X88324972Y-78676128D01*
X88324972Y-78676128D02*
X88182115Y-78604700D01*
X88182115Y-78604700D02*
X88110686Y-78533271D01*
X88110686Y-78533271D02*
X88039258Y-78390414D01*
X88039258Y-78390414D02*
X88039258Y-77961842D01*
X88039258Y-77961842D02*
X88110686Y-77818985D01*
X88110686Y-77818985D02*
X88182115Y-77747557D01*
X88182115Y-77747557D02*
X88324972Y-77676128D01*
X88324972Y-77676128D02*
X88610686Y-77676128D01*
X88610686Y-77676128D02*
X88753544Y-77747557D01*
X89682115Y-78676128D02*
X89539258Y-78604700D01*
X89539258Y-78604700D02*
X89467829Y-78533271D01*
X89467829Y-78533271D02*
X89396401Y-78390414D01*
X89396401Y-78390414D02*
X89396401Y-77961842D01*
X89396401Y-77961842D02*
X89467829Y-77818985D01*
X89467829Y-77818985D02*
X89539258Y-77747557D01*
X89539258Y-77747557D02*
X89682115Y-77676128D01*
X89682115Y-77676128D02*
X89896401Y-77676128D01*
X89896401Y-77676128D02*
X90039258Y-77747557D01*
X90039258Y-77747557D02*
X90110687Y-77818985D01*
X90110687Y-77818985D02*
X90182115Y-77961842D01*
X90182115Y-77961842D02*
X90182115Y-78390414D01*
X90182115Y-78390414D02*
X90110687Y-78533271D01*
X90110687Y-78533271D02*
X90039258Y-78604700D01*
X90039258Y-78604700D02*
X89896401Y-78676128D01*
X89896401Y-78676128D02*
X89682115Y-78676128D01*
X92467829Y-77890414D02*
X92682115Y-77961842D01*
X92682115Y-77961842D02*
X92753544Y-78033271D01*
X92753544Y-78033271D02*
X92824972Y-78176128D01*
X92824972Y-78176128D02*
X92824972Y-78390414D01*
X92824972Y-78390414D02*
X92753544Y-78533271D01*
X92753544Y-78533271D02*
X92682115Y-78604700D01*
X92682115Y-78604700D02*
X92539258Y-78676128D01*
X92539258Y-78676128D02*
X91967829Y-78676128D01*
X91967829Y-78676128D02*
X91967829Y-77176128D01*
X91967829Y-77176128D02*
X92467829Y-77176128D01*
X92467829Y-77176128D02*
X92610687Y-77247557D01*
X92610687Y-77247557D02*
X92682115Y-77318985D01*
X92682115Y-77318985D02*
X92753544Y-77461842D01*
X92753544Y-77461842D02*
X92753544Y-77604700D01*
X92753544Y-77604700D02*
X92682115Y-77747557D01*
X92682115Y-77747557D02*
X92610687Y-77818985D01*
X92610687Y-77818985D02*
X92467829Y-77890414D01*
X92467829Y-77890414D02*
X91967829Y-77890414D01*
X94110687Y-77676128D02*
X94110687Y-78676128D01*
X93467829Y-77676128D02*
X93467829Y-78461842D01*
X93467829Y-78461842D02*
X93539258Y-78604700D01*
X93539258Y-78604700D02*
X93682115Y-78676128D01*
X93682115Y-78676128D02*
X93896401Y-78676128D01*
X93896401Y-78676128D02*
X94039258Y-78604700D01*
X94039258Y-78604700D02*
X94110687Y-78533271D01*
X94682115Y-77676128D02*
X95039258Y-78676128D01*
X95396401Y-77676128D02*
X95039258Y-78676128D01*
X95039258Y-78676128D02*
X94896401Y-79033271D01*
X94896401Y-79033271D02*
X94824972Y-79104700D01*
X94824972Y-79104700D02*
X94682115Y-79176128D01*
D10*
D11*
X50012000Y-101490000D02*
X50012000Y-104490000D01*
D10*
D11*
X114012000Y-101490000D02*
X114012000Y-107990000D01*
D12*
D14*
X60138610Y-29274114D02*
X60352896Y-29345542D01*
X60352896Y-29345542D02*
X60424325Y-29416971D01*
X60424325Y-29416971D02*
X60495753Y-29559828D01*
X60495753Y-29559828D02*
X60495753Y-29774114D01*
X60495753Y-29774114D02*
X60424325Y-29916971D01*
X60424325Y-29916971D02*
X60352896Y-29988400D01*
X60352896Y-29988400D02*
X60210039Y-30059828D01*
X60210039Y-30059828D02*
X59638610Y-30059828D01*
X59638610Y-30059828D02*
X59638610Y-28559828D01*
X59638610Y-28559828D02*
X60138610Y-28559828D01*
X60138610Y-28559828D02*
X60281468Y-28631257D01*
X60281468Y-28631257D02*
X60352896Y-28702685D01*
X60352896Y-28702685D02*
X60424325Y-28845542D01*
X60424325Y-28845542D02*
X60424325Y-28988400D01*
X60424325Y-28988400D02*
X60352896Y-29131257D01*
X60352896Y-29131257D02*
X60281468Y-29202685D01*
X60281468Y-29202685D02*
X60138610Y-29274114D01*
X60138610Y-29274114D02*
X59638610Y-29274114D01*
X61352896Y-30059828D02*
X61210039Y-29988400D01*
X61210039Y-29988400D02*
X61138610Y-29916971D01*
X61138610Y-29916971D02*
X61067182Y-29774114D01*
X61067182Y-29774114D02*
X61067182Y-29345542D01*
X61067182Y-29345542D02*
X61138610Y-29202685D01*
X61138610Y-29202685D02*
X61210039Y-29131257D01*
X61210039Y-29131257D02*
X61352896Y-29059828D01*
X61352896Y-29059828D02*
X61567182Y-29059828D01*
X61567182Y-29059828D02*
X61710039Y-29131257D01*
X61710039Y-29131257D02*
X61781468Y-29202685D01*
X61781468Y-29202685D02*
X61852896Y-29345542D01*
X61852896Y-29345542D02*
X61852896Y-29774114D01*
X61852896Y-29774114D02*
X61781468Y-29916971D01*
X61781468Y-29916971D02*
X61710039Y-29988400D01*
X61710039Y-29988400D02*
X61567182Y-30059828D01*
X61567182Y-30059828D02*
X61352896Y-30059828D01*
X62281468Y-29059828D02*
X62852896Y-29059828D01*
X62495753Y-28559828D02*
X62495753Y-29845542D01*
X62495753Y-29845542D02*
X62567182Y-29988400D01*
X62567182Y-29988400D02*
X62710039Y-30059828D01*
X62710039Y-30059828D02*
X62852896Y-30059828D01*
X65352896Y-29916971D02*
X65281468Y-29988400D01*
X65281468Y-29988400D02*
X65067182Y-30059828D01*
X65067182Y-30059828D02*
X64924325Y-30059828D01*
X64924325Y-30059828D02*
X64710039Y-29988400D01*
X64710039Y-29988400D02*
X64567182Y-29845542D01*
X64567182Y-29845542D02*
X64495753Y-29702685D01*
X64495753Y-29702685D02*
X64424325Y-29416971D01*
X64424325Y-29416971D02*
X64424325Y-29202685D01*
X64424325Y-29202685D02*
X64495753Y-28916971D01*
X64495753Y-28916971D02*
X64567182Y-28774114D01*
X64567182Y-28774114D02*
X64710039Y-28631257D01*
X64710039Y-28631257D02*
X64924325Y-28559828D01*
X64924325Y-28559828D02*
X65067182Y-28559828D01*
X65067182Y-28559828D02*
X65281468Y-28631257D01*
X65281468Y-28631257D02*
X65352896Y-28702685D01*
X66210039Y-30059828D02*
X66067182Y-29988400D01*
X66067182Y-29988400D02*
X65995753Y-29916971D01*
X65995753Y-29916971D02*
X65924325Y-29774114D01*
X65924325Y-29774114D02*
X65924325Y-29345542D01*
X65924325Y-29345542D02*
X65995753Y-29202685D01*
X65995753Y-29202685D02*
X66067182Y-29131257D01*
X66067182Y-29131257D02*
X66210039Y-29059828D01*
X66210039Y-29059828D02*
X66424325Y-29059828D01*
X66424325Y-29059828D02*
X66567182Y-29131257D01*
X66567182Y-29131257D02*
X66638611Y-29202685D01*
X66638611Y-29202685D02*
X66710039Y-29345542D01*
X66710039Y-29345542D02*
X66710039Y-29774114D01*
X66710039Y-29774114D02*
X66638611Y-29916971D01*
X66638611Y-29916971D02*
X66567182Y-29988400D01*
X66567182Y-29988400D02*
X66424325Y-30059828D01*
X66424325Y-30059828D02*
X66210039Y-30059828D01*
X67352896Y-29059828D02*
X67352896Y-30559828D01*
X67352896Y-29131257D02*
X67495754Y-29059828D01*
X67495754Y-29059828D02*
X67781468Y-29059828D01*
X67781468Y-29059828D02*
X67924325Y-29131257D01*
X67924325Y-29131257D02*
X67995754Y-29202685D01*
X67995754Y-29202685D02*
X68067182Y-29345542D01*
X68067182Y-29345542D02*
X68067182Y-29774114D01*
X68067182Y-29774114D02*
X67995754Y-29916971D01*
X67995754Y-29916971D02*
X67924325Y-29988400D01*
X67924325Y-29988400D02*
X67781468Y-30059828D01*
X67781468Y-30059828D02*
X67495754Y-30059828D01*
X67495754Y-30059828D02*
X67352896Y-29988400D01*
X68710039Y-29059828D02*
X68710039Y-30559828D01*
X68710039Y-29131257D02*
X68852897Y-29059828D01*
X68852897Y-29059828D02*
X69138611Y-29059828D01*
X69138611Y-29059828D02*
X69281468Y-29131257D01*
X69281468Y-29131257D02*
X69352897Y-29202685D01*
X69352897Y-29202685D02*
X69424325Y-29345542D01*
X69424325Y-29345542D02*
X69424325Y-29774114D01*
X69424325Y-29774114D02*
X69352897Y-29916971D01*
X69352897Y-29916971D02*
X69281468Y-29988400D01*
X69281468Y-29988400D02*
X69138611Y-30059828D01*
X69138611Y-30059828D02*
X68852897Y-30059828D01*
X68852897Y-30059828D02*
X68710039Y-29988400D01*
X70638611Y-29988400D02*
X70495754Y-30059828D01*
X70495754Y-30059828D02*
X70210040Y-30059828D01*
X70210040Y-30059828D02*
X70067182Y-29988400D01*
X70067182Y-29988400D02*
X69995754Y-29845542D01*
X69995754Y-29845542D02*
X69995754Y-29274114D01*
X69995754Y-29274114D02*
X70067182Y-29131257D01*
X70067182Y-29131257D02*
X70210040Y-29059828D01*
X70210040Y-29059828D02*
X70495754Y-29059828D01*
X70495754Y-29059828D02*
X70638611Y-29131257D01*
X70638611Y-29131257D02*
X70710040Y-29274114D01*
X70710040Y-29274114D02*
X70710040Y-29416971D01*
X70710040Y-29416971D02*
X69995754Y-29559828D01*
X71352896Y-30059828D02*
X71352896Y-29059828D01*
X71352896Y-29345542D02*
X71424325Y-29202685D01*
X71424325Y-29202685D02*
X71495754Y-29131257D01*
X71495754Y-29131257D02*
X71638611Y-29059828D01*
X71638611Y-29059828D02*
X71781468Y-29059828D01*
D15*
%TO.P,J1,S1,SHIELD*%
%TO.N,unconnected-(J1-SHIELD-PadS1)*%
X33793000Y-55010029D03*
%TO.P,J1,S2,SHIELD__1*%
%TO.N,unconnected-(J1-SHIELD__1-PadS2)*%
X42433000Y-55010029D03*
D16*
%TO.P,J1,S3,SHIELD__2*%
%TO.N,unconnected-(J1-SHIELD__2-PadS3)*%
X33793000Y-60370029D03*
%TO.P,J1,S4,SHIELD__3*%
%TO.N,unconnected-(J1-SHIELD__3-PadS4)*%
X42433000Y-60370029D03*
%TD*%
D17*
%TO.P,J2,1,Pin_1*%
%TO.N,VBAT*%
X32513000Y-42750029D03*
%TO.P,J2,2,Pin_2*%
%TO.N,NTC BAT*%
X32513000Y-41500029D03*
%TO.P,J2,3,Pin_3*%
%TO.N,GND*%
X32513000Y-40250029D03*
%TD*%
D18*
%TO.P,J4,1,Pin_1*%
%TO.N,ZOUT*%
X33000000Y-29960000D03*
D19*
%TO.P,J4,2,Pin_2*%
%TO.N,ZIN*%
X33000000Y-32500000D03*
%TD*%
D20*
%TO.N,GND*%
X43175000Y-28675000D03*
X52363000Y-39350029D03*
X46700000Y-43675000D03*
X38350000Y-49000000D03*
X48500000Y-29400000D03*
X41113000Y-28250029D03*
X35400000Y-52576529D03*
X37125000Y-51423529D03*
X46563000Y-54250029D03*
X50913000Y-32650029D03*
X37900000Y-52575000D03*
X48313000Y-37699529D03*
X43225000Y-32050000D03*
X41963000Y-43700000D03*
X46225000Y-48275000D03*
X39000000Y-37500000D03*
X43650000Y-51750000D03*
X41163000Y-32800029D03*
X44850000Y-36275000D03*
X31925000Y-45325000D03*
%TO.N,VBAT_SENSE*%
X39462986Y-43450014D03*
X36263000Y-43450029D03*
%TO.N,VDD*%
X43975000Y-43250000D03*
X38963000Y-47250029D03*
%TO.N,VCC*%
X51531486Y-29868514D03*
X47213000Y-48250029D03*
X52050000Y-22500000D03*
X47025000Y-42675000D03*
X44763000Y-27600029D03*
%TO.N,VSYS*%
X46350000Y-40600000D03*
X32163000Y-52250029D03*
X50713000Y-48300029D03*
X44163000Y-54200029D03*
X31763000Y-47500029D03*
%TO.N,IOUT*%
X41350000Y-34750000D03*
X48326500Y-32950029D03*
%TO.N,Net-(J1-CC1)*%
X37190000Y-53730529D03*
X33100000Y-56400000D03*
%TO.N,Net-(J1-CC2)*%
X37975000Y-53730529D03*
X33900000Y-57300000D03*
%TO.N,Net-(D1-A)*%
X38963000Y-48400029D03*
X40850000Y-51750000D03*
%TO.N,Net-(U4-~{CHG})*%
X46375000Y-41550000D03*
X32039500Y-50900029D03*
%TO.N,Net-(U4-~{PGOOD})*%
X46375000Y-39700000D03*
X32000000Y-53400000D03*
%TO.N,NTC BAT*%
X35413000Y-47500029D03*
X35313000Y-41500029D03*
%TO.N,SDA*%
X45313000Y-48100029D03*
X48505352Y-35492381D03*
%TO.N,SCL*%
X46563000Y-44900029D03*
X48463000Y-36350029D03*
%TO.N,RST_ISP*%
X51213000Y-35600029D03*
X50800000Y-23073000D03*
%TO.N,VREF*%
X50513000Y-33300029D03*
X41325000Y-35875000D03*
X48538864Y-34571451D03*
%TO.N,VOUT*%
X41100000Y-29500000D03*
X48323775Y-33852320D03*
%TO.N,SWDIO_PSOC*%
X38857648Y-25042352D03*
X36800000Y-25375000D03*
X44663000Y-32200029D03*
X43200000Y-24400000D03*
%TO.N,RST_PSOC*%
X38600000Y-22800000D03*
X44713000Y-30200029D03*
%TO.N,SWCLK_PSOC*%
X37500000Y-26050000D03*
X44713000Y-31450029D03*
%TD*%
D21*
%TO.N,GND*%
X41913029Y-32050000D02*
X41163000Y-32800029D01*
X37898471Y-52576529D02*
X35400000Y-52576529D01*
X43225000Y-32050000D02*
X41913029Y-32050000D01*
X37900000Y-52575000D02*
X37898471Y-52576529D01*
D22*
%TO.N,VBAT_SENSE*%
X39462986Y-43450014D02*
X39462971Y-43450029D01*
X39462971Y-43450029D02*
X36263000Y-43450029D01*
D21*
%TO.N,VDD*%
X42324971Y-44900029D02*
X41313000Y-44900029D01*
X41313000Y-44900029D02*
X38963000Y-47250029D01*
X43975000Y-43250000D02*
X42324971Y-44900029D01*
%TO.N,VCC*%
X44763000Y-27286727D02*
X47337500Y-24712227D01*
X47675000Y-47088029D02*
X47213000Y-47550029D01*
X50173000Y-28510028D02*
X50173000Y-26130099D01*
X47213000Y-47550029D02*
X47213000Y-48250029D01*
X47848599Y-22496500D02*
X52046500Y-22496500D01*
X51531486Y-29868514D02*
X50173000Y-28510028D01*
X47025000Y-42675000D02*
X47675000Y-43325000D01*
X48392901Y-24350000D02*
X47337500Y-24350000D01*
X47337500Y-24712227D02*
X47337500Y-23007599D01*
X52046500Y-22496500D02*
X52050000Y-22500000D01*
X44763000Y-27600029D02*
X44763000Y-27286727D01*
X47337500Y-23007599D02*
X47848599Y-22496500D01*
X47675000Y-43325000D02*
X47675000Y-47088029D01*
X50173000Y-26130099D02*
X48392901Y-24350000D01*
%TO.N,VSYS*%
X31463000Y-51550029D02*
X31463000Y-47800029D01*
X48629000Y-48300029D02*
X49413000Y-48300029D01*
X31463000Y-47800029D02*
X31763000Y-47500029D01*
X44199971Y-54200029D02*
X44163000Y-54200029D01*
X47221342Y-40600000D02*
X48629000Y-42007658D01*
X48629000Y-42007658D02*
X48629000Y-48300029D01*
X48629000Y-48300029D02*
X48629000Y-49771000D01*
X32163000Y-52250029D02*
X33066500Y-53153529D01*
X50713000Y-48300029D02*
X49413000Y-48300029D01*
X33066500Y-53153529D02*
X43116500Y-53153529D01*
X32163000Y-52250029D02*
X31463000Y-51550029D01*
X46350000Y-40600000D02*
X47221342Y-40600000D01*
X43116500Y-53153529D02*
X44163000Y-54200029D01*
X48629000Y-49771000D02*
X44199971Y-54200029D01*
%TO.N,IOUT*%
X48326500Y-33036529D02*
X48326500Y-32950029D01*
X48246155Y-33116874D02*
X48326500Y-33036529D01*
X47146155Y-33116874D02*
X48246155Y-33116874D01*
X45513029Y-34750000D02*
X47146155Y-33116874D01*
X41350000Y-34750000D02*
X45513029Y-34750000D01*
%TO.N,Net-(J1-CC1)*%
X37190000Y-53730529D02*
X37190000Y-54010000D01*
X34500000Y-56700000D02*
X33400000Y-56700000D01*
X33400000Y-56700000D02*
X33100000Y-56400000D01*
X37190000Y-54010000D02*
X34500000Y-56700000D01*
%TO.N,Net-(J1-CC2)*%
X37975000Y-53796342D02*
X34471342Y-57300000D01*
X34471342Y-57300000D02*
X33900000Y-57300000D01*
X37975000Y-53730529D02*
X37975000Y-53796342D01*
%TO.N,Net-(D1-A)*%
X39900000Y-51750000D02*
X38963000Y-50813000D01*
X38963000Y-50813000D02*
X38963000Y-48400029D01*
X40850000Y-51750000D02*
X39900000Y-51750000D01*
%TO.N,Net-(U4-~{CHG})*%
X39650000Y-52600000D02*
X39048000Y-51998000D01*
X35637473Y-51998000D02*
X34539502Y-50900029D01*
X34539502Y-50900029D02*
X32039500Y-50900029D01*
X48225000Y-42175000D02*
X48225000Y-48825000D01*
X37366531Y-51998000D02*
X37364002Y-52000529D01*
X37364002Y-52000529D02*
X36885998Y-52000529D01*
X47600000Y-41550000D02*
X48225000Y-42175000D01*
X39048000Y-51998000D02*
X37366531Y-51998000D01*
X46375000Y-41550000D02*
X47600000Y-41550000D01*
X36883469Y-51998000D02*
X35637473Y-51998000D01*
X44450000Y-52600000D02*
X39650000Y-52600000D01*
X48225000Y-48825000D02*
X44450000Y-52600000D01*
X36885998Y-52000529D02*
X36883469Y-51998000D01*
%TO.N,Net-(U4-~{PGOOD})*%
X51275000Y-47475000D02*
X51525000Y-47725000D01*
X41075000Y-58400000D02*
X32850000Y-58400000D01*
X46892684Y-39700000D02*
X49033000Y-41840316D01*
X51525000Y-49050000D02*
X51250000Y-49325000D01*
X50150000Y-49325000D02*
X41075000Y-58400000D01*
X51250000Y-49325000D02*
X50150000Y-49325000D01*
X32000000Y-57550000D02*
X32000000Y-53400000D01*
X49700000Y-47475000D02*
X51275000Y-47475000D01*
X51525000Y-47725000D02*
X51525000Y-49050000D01*
X46375000Y-39700000D02*
X46892684Y-39700000D01*
X32850000Y-58400000D02*
X32000000Y-57550000D01*
X49033000Y-41840316D02*
X49033000Y-46808000D01*
X49033000Y-46808000D02*
X49700000Y-47475000D01*
%TO.N,NTC BAT*%
X35413000Y-47500029D02*
X35313000Y-47400029D01*
X35313000Y-47400029D02*
X35313000Y-41500029D01*
%TO.N,SDA*%
X44750000Y-45075000D02*
X45540000Y-45865000D01*
X48504646Y-35492381D02*
X44750000Y-39247027D01*
X44750000Y-39247027D02*
X44750000Y-45075000D01*
X45540000Y-47873029D02*
X45313000Y-48100029D01*
X45540000Y-45865000D02*
X45540000Y-47873029D01*
X48505352Y-35492381D02*
X48504646Y-35492381D01*
D22*
%TO.N,SCL*%
X45325000Y-39488029D02*
X48463000Y-36350029D01*
X45325000Y-44550000D02*
X45325000Y-39488029D01*
X46563000Y-44900029D02*
X45675029Y-44900029D01*
X45675029Y-44900029D02*
X45325000Y-44550000D01*
D21*
%TO.N,RST_ISP*%
X52487750Y-34325279D02*
X51213000Y-35600029D01*
X52200000Y-24473000D02*
X52200000Y-29721027D01*
X52200000Y-29721027D02*
X52487750Y-30008777D01*
X52487750Y-30008777D02*
X52487750Y-34325279D01*
X50800000Y-23073000D02*
X52200000Y-24473000D01*
%TO.N,VREF*%
X48538864Y-34571451D02*
X49241578Y-34571451D01*
X41800000Y-35400000D02*
X47710315Y-35400000D01*
X47710315Y-35400000D02*
X48538864Y-34571451D01*
X41325000Y-35875000D02*
X41800000Y-35400000D01*
X49241578Y-34571451D02*
X50513000Y-33300029D01*
%TO.N,VOUT*%
X49113000Y-32400029D02*
X48763000Y-32050029D01*
X48323775Y-33852320D02*
X48610709Y-33852320D01*
X41200029Y-29600029D02*
X41100000Y-29500000D01*
X48242502Y-32050029D02*
X45792502Y-29600029D01*
X48763000Y-32050029D02*
X48242502Y-32050029D01*
X45792502Y-29600029D02*
X41200029Y-29600029D01*
X48610709Y-33852320D02*
X49113000Y-33350029D01*
X49113000Y-33350029D02*
X49113000Y-32400029D01*
%TO.N,SWDIO_PSOC*%
X43486000Y-33377029D02*
X44663000Y-32200029D01*
X36800000Y-29253031D02*
X40923998Y-33377029D01*
X39500000Y-24400000D02*
X38857648Y-25042352D01*
X40923998Y-33377029D02*
X43486000Y-33377029D01*
X43200000Y-24400000D02*
X39500000Y-24400000D01*
X36800000Y-25375000D02*
X36800000Y-29253031D01*
%TO.N,RST_PSOC*%
X38600000Y-22800000D02*
X38100000Y-23300000D01*
X38100000Y-23300000D02*
X38100000Y-27687029D01*
X40613000Y-30200029D02*
X44713000Y-30200029D01*
X38100000Y-27687029D02*
X40613000Y-30200029D01*
%TO.N,SWCLK_PSOC*%
X37500000Y-26050000D02*
X37500000Y-28287029D01*
X37500000Y-28287029D02*
X40663000Y-31450029D01*
X40663000Y-31450029D02*
X44713000Y-31450029D01*
%TD*%
%TA.AperFunction,Conductor*%
%TO.N,GND*%
G36*
X47497566Y-22155772D02*
G01*
X47564596Y-22175481D01*
X47610332Y-22228302D01*
X47620250Y-22297464D01*
X47591202Y-22361009D01*
X47585200Y-22367453D01*
X47115443Y-22837210D01*
X47078911Y-22900487D01*
X47078908Y-22900494D01*
X47059999Y-22971062D01*
X47059999Y-23054122D01*
X47060000Y-23054135D01*
X47060000Y-24545920D01*
X47040315Y-24612959D01*
X47023681Y-24633601D01*
X44540945Y-27116336D01*
X44540941Y-27116341D01*
X44504412Y-27179612D01*
X44504408Y-27179622D01*
X44497670Y-27204766D01*
X44465579Y-27260348D01*
X44402511Y-27323416D01*
X44343201Y-27426143D01*
X44312500Y-27540720D01*
X44312500Y-27659338D01*
X44343201Y-27773915D01*
X44402511Y-27876642D01*
X44486387Y-27960518D01*
X44589114Y-28019828D01*
X44703691Y-28050529D01*
X44703694Y-28050529D01*
X44822306Y-28050529D01*
X44822309Y-28050529D01*
X44936886Y-28019828D01*
X45039613Y-27960518D01*
X45123489Y-27876642D01*
X45182799Y-27773915D01*
X45213500Y-27659338D01*
X45213500Y-27540720D01*
X45182799Y-27426143D01*
X45169331Y-27402817D01*
X45152857Y-27334918D01*
X45175707Y-27268891D01*
X45189030Y-27253140D01*
X47261700Y-25180470D01*
X47323022Y-25146987D01*
X47392714Y-25151971D01*
X47448647Y-25193843D01*
X47473064Y-25259307D01*
X47470998Y-25292343D01*
X47464000Y-25327526D01*
X47464000Y-25474479D01*
X47492666Y-25618592D01*
X47492669Y-25618604D01*
X47548899Y-25754357D01*
X47548906Y-25754370D01*
X47630543Y-25876547D01*
X47630546Y-25876551D01*
X47734448Y-25980453D01*
X47734452Y-25980456D01*
X47856629Y-26062093D01*
X47856642Y-26062100D01*
X47992395Y-26118330D01*
X47992400Y-26118332D01*
X48136520Y-26146999D01*
X48136524Y-26147000D01*
X48136525Y-26147000D01*
X48283476Y-26147000D01*
X48283477Y-26146999D01*
X48427600Y-26118332D01*
X48563364Y-26062097D01*
X48685548Y-25980456D01*
X48789456Y-25876548D01*
X48871097Y-25754364D01*
X48927332Y-25618600D01*
X48938769Y-25561099D01*
X48971152Y-25499190D01*
X49031868Y-25464615D01*
X49101637Y-25468354D01*
X49148067Y-25497610D01*
X49859181Y-26208724D01*
X49892666Y-26270047D01*
X49895500Y-26296405D01*
X49895500Y-28465881D01*
X49895499Y-28465899D01*
X49895499Y-28546564D01*
X49914408Y-28617132D01*
X49914411Y-28617139D01*
X49950943Y-28680416D01*
X49950945Y-28680418D01*
X51044667Y-29774139D01*
X51078152Y-29835462D01*
X51080986Y-29861820D01*
X51080986Y-29927823D01*
X51111687Y-30042400D01*
X51170997Y-30145127D01*
X51254873Y-30229003D01*
X51357600Y-30288313D01*
X51472177Y-30319014D01*
X51472180Y-30319014D01*
X51590792Y-30319014D01*
X51590795Y-30319014D01*
X51705372Y-30288313D01*
X51808099Y-30229003D01*
X51891975Y-30145127D01*
X51935507Y-30069727D01*
X51953601Y-30052474D01*
X51968584Y-30032461D01*
X51978450Y-30028780D01*
X51986074Y-30021512D01*
X52010624Y-30016780D01*
X52034048Y-30008044D01*
X52044340Y-30010282D01*
X52054681Y-30008290D01*
X52077889Y-30017581D01*
X52102321Y-30022896D01*
X52115145Y-30032496D01*
X52119546Y-30034258D01*
X52130575Y-30044047D01*
X52173931Y-30087403D01*
X52207416Y-30148726D01*
X52210250Y-30175084D01*
X52210250Y-34158972D01*
X52190565Y-34226011D01*
X52173931Y-34246653D01*
X51307374Y-35113210D01*
X51246051Y-35146695D01*
X51219693Y-35149529D01*
X51153691Y-35149529D01*
X51039114Y-35180230D01*
X51039112Y-35180230D01*
X51039112Y-35180231D01*
X50936387Y-35239540D01*
X50936384Y-35239542D01*
X50852513Y-35323413D01*
X50852511Y-35323416D01*
X50794150Y-35424500D01*
X50793201Y-35426143D01*
X50762500Y-35540720D01*
X50762500Y-35659338D01*
X50793201Y-35773915D01*
X50852511Y-35876642D01*
X50936387Y-35960518D01*
X51039114Y-36019828D01*
X51153691Y-36050529D01*
X51153694Y-36050529D01*
X51272306Y-36050529D01*
X51272309Y-36050529D01*
X51386886Y-36019828D01*
X51489613Y-35960518D01*
X51573489Y-35876642D01*
X51632799Y-35773915D01*
X51663500Y-35659338D01*
X51663500Y-35593336D01*
X51683185Y-35526297D01*
X51699819Y-35505655D01*
X52701319Y-34504155D01*
X52762642Y-34470670D01*
X52832334Y-34475654D01*
X52888267Y-34517526D01*
X52912684Y-34582990D01*
X52913000Y-34591836D01*
X52913000Y-61725529D01*
X52893315Y-61792568D01*
X52840511Y-61838323D01*
X52789000Y-61849529D01*
X43034941Y-61849529D01*
X42967902Y-61829844D01*
X42922147Y-61777040D01*
X42912203Y-61707882D01*
X42941228Y-61644326D01*
X42947260Y-61637848D01*
X43054786Y-61530321D01*
X43054789Y-61530318D01*
X43142394Y-61399208D01*
X43202737Y-61253526D01*
X43233500Y-61098871D01*
X43233500Y-59641187D01*
X43233500Y-59641184D01*
X43233499Y-59641182D01*
X43202738Y-59486539D01*
X43202737Y-59486532D01*
X43202735Y-59486527D01*
X43142397Y-59340856D01*
X43142390Y-59340843D01*
X43054789Y-59209740D01*
X43054786Y-59209736D01*
X42943292Y-59098242D01*
X42943288Y-59098239D01*
X42812185Y-59010638D01*
X42812172Y-59010631D01*
X42666501Y-58950293D01*
X42666489Y-58950290D01*
X42511845Y-58919529D01*
X42511842Y-58919529D01*
X42354158Y-58919529D01*
X42354155Y-58919529D01*
X42199510Y-58950290D01*
X42199498Y-58950293D01*
X42053827Y-59010631D01*
X42053814Y-59010638D01*
X41922711Y-59098239D01*
X41922707Y-59098242D01*
X41811213Y-59209736D01*
X41811210Y-59209740D01*
X41723609Y-59340843D01*
X41723602Y-59340856D01*
X41663264Y-59486527D01*
X41663261Y-59486539D01*
X41632500Y-59641182D01*
X41632500Y-61098875D01*
X41663261Y-61253518D01*
X41663264Y-61253530D01*
X41723602Y-61399201D01*
X41723609Y-61399214D01*
X41811210Y-61530317D01*
X41811213Y-61530321D01*
X41918740Y-61637848D01*
X41952225Y-61699171D01*
X41947241Y-61768863D01*
X41905369Y-61824796D01*
X41839905Y-61849213D01*
X41831059Y-61849529D01*
X34394941Y-61849529D01*
X34327902Y-61829844D01*
X34282147Y-61777040D01*
X34272203Y-61707882D01*
X34301228Y-61644326D01*
X34307260Y-61637848D01*
X34414786Y-61530321D01*
X34414789Y-61530318D01*
X34502394Y-61399208D01*
X34562737Y-61253526D01*
X34593500Y-61098871D01*
X34593500Y-59641187D01*
X34593500Y-59641184D01*
X34593499Y-59641182D01*
X34562738Y-59486539D01*
X34562737Y-59486532D01*
X34562735Y-59486527D01*
X34502397Y-59340856D01*
X34502390Y-59340843D01*
X34414789Y-59209740D01*
X34414786Y-59209736D01*
X34303292Y-59098242D01*
X34303288Y-59098239D01*
X34172185Y-59010638D01*
X34172172Y-59010631D01*
X34026501Y-58950293D01*
X34026489Y-58950290D01*
X33901863Y-58925500D01*
X33901860Y-58925500D01*
X33871842Y-58919529D01*
X33714158Y-58919529D01*
X33684140Y-58925500D01*
X33684137Y-58925500D01*
X33559510Y-58950290D01*
X33559498Y-58950293D01*
X33413827Y-59010631D01*
X33413814Y-59010638D01*
X33282711Y-59098239D01*
X33282707Y-59098242D01*
X33171213Y-59209736D01*
X33171210Y-59209740D01*
X33083609Y-59340843D01*
X33083602Y-59340856D01*
X33023264Y-59486527D01*
X33023261Y-59486539D01*
X32992500Y-59641182D01*
X32992500Y-61098875D01*
X33023261Y-61253518D01*
X33023264Y-61253530D01*
X33083602Y-61399201D01*
X33083609Y-61399214D01*
X33171210Y-61530317D01*
X33171213Y-61530321D01*
X33278740Y-61637848D01*
X33289352Y-61657284D01*
X33303853Y-61674018D01*
X33305769Y-61687349D01*
X33312225Y-61699171D01*
X33310645Y-61721257D01*
X33313797Y-61743176D01*
X33308201Y-61755427D01*
X33307241Y-61768863D01*
X33293970Y-61786589D01*
X33284772Y-61806732D01*
X33273440Y-61814014D01*
X33265369Y-61824796D01*
X33244623Y-61832533D01*
X33225994Y-61844506D01*
X33204075Y-61847657D01*
X33199905Y-61849213D01*
X33191059Y-61849529D01*
X33004072Y-61849529D01*
X32995928Y-61849261D01*
X32765744Y-61834111D01*
X32749598Y-61831977D01*
X32527373Y-61787586D01*
X32511646Y-61783353D01*
X32297171Y-61710225D01*
X32282134Y-61703968D01*
X32079086Y-61603358D01*
X32065003Y-61595187D01*
X31876888Y-61468830D01*
X31864002Y-61458887D01*
X31847167Y-61444034D01*
X31694066Y-61308961D01*
X31682591Y-61297411D01*
X31533773Y-61126509D01*
X31523919Y-61113566D01*
X31398783Y-60924632D01*
X31390701Y-60910493D01*
X31373350Y-60874897D01*
X31291405Y-60706786D01*
X31285253Y-60691726D01*
X31213515Y-60476774D01*
X31209385Y-60461023D01*
X31193010Y-60376188D01*
X31166435Y-60238507D01*
X31164408Y-60222373D01*
X31150737Y-59991837D01*
X31150521Y-59984578D01*
X31150520Y-59984309D01*
X31150719Y-59953655D01*
X31150506Y-59953205D01*
X31150500Y-59939171D01*
X31150504Y-59939155D01*
X31150500Y-59939114D01*
X31150500Y-51929335D01*
X31170185Y-51862296D01*
X31222989Y-51816541D01*
X31292147Y-51806597D01*
X31355703Y-51835622D01*
X31362170Y-51841643D01*
X31492583Y-51972056D01*
X31676181Y-52155654D01*
X31709666Y-52216977D01*
X31712500Y-52243335D01*
X31712500Y-52309338D01*
X31743201Y-52423915D01*
X31802511Y-52526642D01*
X31886387Y-52610518D01*
X31989114Y-52669828D01*
X32103691Y-52700529D01*
X32169693Y-52700529D01*
X32199133Y-52709173D01*
X32229120Y-52715697D01*
X32234135Y-52719451D01*
X32236732Y-52720214D01*
X32257374Y-52736848D01*
X32293129Y-52772603D01*
X32326614Y-52833926D01*
X32321630Y-52903618D01*
X32279758Y-52959551D01*
X32214294Y-52983968D01*
X32173357Y-52980059D01*
X32059309Y-52949500D01*
X31940691Y-52949500D01*
X31826114Y-52980201D01*
X31826112Y-52980201D01*
X31826112Y-52980202D01*
X31723387Y-53039511D01*
X31723384Y-53039513D01*
X31639513Y-53123384D01*
X31639511Y-53123387D01*
X31580201Y-53226114D01*
X31549500Y-53340691D01*
X31549500Y-53459309D01*
X31580201Y-53573886D01*
X31639511Y-53676613D01*
X31639513Y-53676615D01*
X31686181Y-53723283D01*
X31719666Y-53784606D01*
X31722500Y-53810964D01*
X31722500Y-57505853D01*
X31722499Y-57505871D01*
X31722499Y-57586536D01*
X31741408Y-57657104D01*
X31741411Y-57657111D01*
X31777943Y-57720388D01*
X31777945Y-57720390D01*
X32623603Y-58566047D01*
X32623613Y-58566058D01*
X32627943Y-58570388D01*
X32627944Y-58570389D01*
X32679611Y-58622056D01*
X32742889Y-58658589D01*
X32742892Y-58658589D01*
X32742895Y-58658591D01*
X32789940Y-58671197D01*
X32813466Y-58677501D01*
X32813467Y-58677501D01*
X32894130Y-58677501D01*
X32894146Y-58677500D01*
X41030854Y-58677500D01*
X41030870Y-58677501D01*
X41038466Y-58677501D01*
X41111533Y-58677501D01*
X41111534Y-58677501D01*
X41182111Y-58658589D01*
X41245389Y-58622056D01*
X50228626Y-49638819D01*
X50289949Y-49605334D01*
X50316307Y-49602500D01*
X51205854Y-49602500D01*
X51205870Y-49602501D01*
X51213466Y-49602501D01*
X51286533Y-49602501D01*
X51286534Y-49602501D01*
X51357111Y-49583589D01*
X51420389Y-49547056D01*
X51747056Y-49220389D01*
X51783589Y-49157111D01*
X51802501Y-49086534D01*
X51802501Y-49013466D01*
X51802501Y-49005871D01*
X51802500Y-49005853D01*
X51802500Y-47688468D01*
X51802500Y-47688466D01*
X51783589Y-47617889D01*
X51747056Y-47554611D01*
X51695389Y-47502944D01*
X51695387Y-47502942D01*
X51445389Y-47252944D01*
X51445388Y-47252943D01*
X51382111Y-47216411D01*
X51382104Y-47216408D01*
X51311536Y-47197499D01*
X51311534Y-47197499D01*
X51238466Y-47197499D01*
X51230870Y-47197499D01*
X51230854Y-47197500D01*
X49866306Y-47197500D01*
X49799267Y-47177815D01*
X49778625Y-47161181D01*
X49346819Y-46729374D01*
X49313334Y-46668051D01*
X49310500Y-46641693D01*
X49310500Y-41886852D01*
X49310501Y-41886839D01*
X49310501Y-41803783D01*
X49310500Y-41803779D01*
X49291591Y-41733211D01*
X49291589Y-41733208D01*
X49291589Y-41733205D01*
X49255056Y-41669927D01*
X47063073Y-39477944D01*
X47063072Y-39477943D01*
X46999795Y-39441411D01*
X46999788Y-39441408D01*
X46929220Y-39422499D01*
X46929218Y-39422499D01*
X46856150Y-39422499D01*
X46848554Y-39422499D01*
X46848538Y-39422500D01*
X46785964Y-39422500D01*
X46718925Y-39402815D01*
X46698283Y-39386181D01*
X46651615Y-39339513D01*
X46651613Y-39339511D01*
X46548886Y-39280201D01*
X46434309Y-39249500D01*
X46315691Y-39249500D01*
X46219151Y-39275368D01*
X46149301Y-39273705D01*
X46091439Y-39234542D01*
X46063935Y-39170314D01*
X46075522Y-39101412D01*
X46099374Y-39067914D01*
X48330441Y-36836847D01*
X48391764Y-36803363D01*
X48418122Y-36800529D01*
X48522306Y-36800529D01*
X48522309Y-36800529D01*
X48636886Y-36769828D01*
X48739613Y-36710518D01*
X48823489Y-36626642D01*
X48882799Y-36523915D01*
X48913500Y-36409338D01*
X48913500Y-36290720D01*
X48882799Y-36176143D01*
X48823489Y-36073416D01*
X48780135Y-36030062D01*
X48746650Y-35968739D01*
X48751634Y-35899047D01*
X48780135Y-35854700D01*
X48819144Y-35815691D01*
X48865841Y-35768994D01*
X48925151Y-35666267D01*
X48955852Y-35551690D01*
X48955852Y-35433072D01*
X48925151Y-35318495D01*
X48865841Y-35215768D01*
X48781965Y-35131892D01*
X48781735Y-35131662D01*
X48748250Y-35070339D01*
X48753234Y-35000647D01*
X48787324Y-34951046D01*
X48796644Y-34942813D01*
X48815477Y-34931940D01*
X48864864Y-34882552D01*
X48867736Y-34880016D01*
X48896044Y-34866760D01*
X48923470Y-34851785D01*
X48929384Y-34851149D01*
X48931012Y-34850387D01*
X48933442Y-34850712D01*
X48949828Y-34848951D01*
X49197432Y-34848951D01*
X49197448Y-34848952D01*
X49205044Y-34848952D01*
X49278111Y-34848952D01*
X49278112Y-34848952D01*
X49348689Y-34830040D01*
X49411967Y-34793507D01*
X50418625Y-33786847D01*
X50479948Y-33753363D01*
X50506306Y-33750529D01*
X50572306Y-33750529D01*
X50572309Y-33750529D01*
X50686886Y-33719828D01*
X50789613Y-33660518D01*
X50873489Y-33576642D01*
X50932799Y-33473915D01*
X50963500Y-33359338D01*
X50963500Y-33240720D01*
X50932799Y-33126143D01*
X50873489Y-33023416D01*
X50789613Y-32939540D01*
X50686886Y-32880230D01*
X50572309Y-32849529D01*
X50453691Y-32849529D01*
X50339114Y-32880230D01*
X50339112Y-32880230D01*
X50339112Y-32880231D01*
X50236387Y-32939540D01*
X50236384Y-32939542D01*
X50152513Y-33023413D01*
X50152511Y-33023416D01*
X50093201Y-33126143D01*
X50062500Y-33240720D01*
X50062500Y-33240722D01*
X50062500Y-33306722D01*
X50042815Y-33373761D01*
X50026181Y-33394403D01*
X49162952Y-34257632D01*
X49136024Y-34272335D01*
X49110206Y-34288928D01*
X49104005Y-34289819D01*
X49101629Y-34291117D01*
X49075271Y-34293951D01*
X48949828Y-34293951D01*
X48882789Y-34274266D01*
X48862147Y-34257632D01*
X48817675Y-34213160D01*
X48784190Y-34151837D01*
X48789174Y-34082145D01*
X48817673Y-34037800D01*
X49335056Y-33520418D01*
X49371589Y-33457140D01*
X49390501Y-33386563D01*
X49390501Y-33313495D01*
X49390501Y-33305900D01*
X49390500Y-33305882D01*
X49390500Y-32446565D01*
X49390501Y-32446552D01*
X49390501Y-32363496D01*
X49390500Y-32363492D01*
X49371591Y-32292924D01*
X49371589Y-32292921D01*
X49371589Y-32292918D01*
X49335056Y-32229640D01*
X48933389Y-31827973D01*
X48933388Y-31827972D01*
X48870111Y-31791440D01*
X48870104Y-31791437D01*
X48799536Y-31772528D01*
X48799534Y-31772528D01*
X48726466Y-31772528D01*
X48718870Y-31772528D01*
X48718854Y-31772529D01*
X48408808Y-31772529D01*
X48341769Y-31752844D01*
X48321127Y-31736210D01*
X47145435Y-30560518D01*
X45962891Y-29377973D01*
X45962890Y-29377972D01*
X45899613Y-29341440D01*
X45899606Y-29341437D01*
X45829038Y-29322528D01*
X45829036Y-29322528D01*
X45755968Y-29322528D01*
X45748372Y-29322528D01*
X45748356Y-29322529D01*
X41589320Y-29322529D01*
X41522281Y-29302844D01*
X41481933Y-29260529D01*
X41460489Y-29223387D01*
X41376613Y-29139511D01*
X41273886Y-29080201D01*
X41159309Y-29049500D01*
X41040691Y-29049500D01*
X40926114Y-29080201D01*
X40926112Y-29080201D01*
X40926112Y-29080202D01*
X40823387Y-29139511D01*
X40823384Y-29139513D01*
X40739513Y-29223384D01*
X40739511Y-29223387D01*
X40680201Y-29326114D01*
X40649500Y-29440691D01*
X40649500Y-29440693D01*
X40649500Y-29544722D01*
X40629815Y-29611761D01*
X40577011Y-29657516D01*
X40507853Y-29667460D01*
X40444297Y-29638435D01*
X40437819Y-29632403D01*
X38413819Y-27608403D01*
X38380334Y-27547080D01*
X38377500Y-27520722D01*
X38377500Y-25498109D01*
X38397185Y-25431070D01*
X38449989Y-25385315D01*
X38519147Y-25375371D01*
X38576993Y-25399738D01*
X38581028Y-25402834D01*
X38581035Y-25402841D01*
X38683762Y-25462151D01*
X38798339Y-25492852D01*
X38798342Y-25492852D01*
X38916954Y-25492852D01*
X38916957Y-25492852D01*
X39031534Y-25462151D01*
X39031536Y-25462149D01*
X39031538Y-25462149D01*
X39031539Y-25462148D01*
X39096915Y-25424403D01*
X39164814Y-25407929D01*
X39230842Y-25430781D01*
X39274033Y-25485701D01*
X39280533Y-25507597D01*
X39292666Y-25568594D01*
X39292669Y-25568604D01*
X39348899Y-25704357D01*
X39348906Y-25704370D01*
X39430543Y-25826547D01*
X39430546Y-25826551D01*
X39534448Y-25930453D01*
X39534452Y-25930456D01*
X39656629Y-26012093D01*
X39656642Y-26012100D01*
X39792395Y-26068330D01*
X39792400Y-26068332D01*
X39919256Y-26093565D01*
X39936520Y-26096999D01*
X39936524Y-26097000D01*
X39936525Y-26097000D01*
X40083476Y-26097000D01*
X40083477Y-26096999D01*
X40227600Y-26068332D01*
X40363364Y-26012097D01*
X40485548Y-25930456D01*
X40589456Y-25826548D01*
X40671097Y-25704364D01*
X40727332Y-25568600D01*
X40756000Y-25424475D01*
X40756000Y-25277525D01*
X40727332Y-25133400D01*
X40714463Y-25102332D01*
X40671100Y-24997642D01*
X40671093Y-24997629D01*
X40586075Y-24870391D01*
X40565197Y-24803713D01*
X40583681Y-24736333D01*
X40635660Y-24689643D01*
X40689177Y-24677500D01*
X42789036Y-24677500D01*
X42856075Y-24697185D01*
X42876717Y-24713819D01*
X42923387Y-24760489D01*
X43026114Y-24819799D01*
X43140691Y-24850500D01*
X43140694Y-24850500D01*
X43259306Y-24850500D01*
X43259309Y-24850500D01*
X43373886Y-24819799D01*
X43476613Y-24760489D01*
X43560489Y-24676613D01*
X43619799Y-24573886D01*
X43650500Y-24459309D01*
X43650500Y-24340691D01*
X43629286Y-24261520D01*
X44344000Y-24261520D01*
X44344000Y-24408479D01*
X44372666Y-24552592D01*
X44372669Y-24552604D01*
X44428899Y-24688357D01*
X44428906Y-24688370D01*
X44510543Y-24810547D01*
X44510546Y-24810551D01*
X44614448Y-24914453D01*
X44614452Y-24914456D01*
X44736629Y-24996093D01*
X44736642Y-24996100D01*
X44857347Y-25046097D01*
X44872400Y-25052332D01*
X45016520Y-25080999D01*
X45016524Y-25081000D01*
X45016525Y-25081000D01*
X45163476Y-25081000D01*
X45163477Y-25080999D01*
X45307600Y-25052332D01*
X45439649Y-24997636D01*
X45443357Y-24996100D01*
X45443357Y-24996099D01*
X45443364Y-24996097D01*
X45565548Y-24914456D01*
X45669456Y-24810548D01*
X45751097Y-24688364D01*
X45756346Y-24675693D01*
X45773780Y-24633601D01*
X45807332Y-24552600D01*
X45836000Y-24408475D01*
X45836000Y-24261525D01*
X45807332Y-24117400D01*
X45792419Y-24081396D01*
X45751100Y-23981642D01*
X45751093Y-23981629D01*
X45669456Y-23859452D01*
X45669453Y-23859448D01*
X45565551Y-23755546D01*
X45565547Y-23755543D01*
X45443370Y-23673906D01*
X45443357Y-23673899D01*
X45307604Y-23617669D01*
X45307592Y-23617666D01*
X45163479Y-23589000D01*
X45163475Y-23589000D01*
X45016525Y-23589000D01*
X45016520Y-23589000D01*
X44872407Y-23617666D01*
X44872395Y-23617669D01*
X44736642Y-23673899D01*
X44736629Y-23673906D01*
X44614452Y-23755543D01*
X44614448Y-23755546D01*
X44510546Y-23859448D01*
X44510543Y-23859452D01*
X44428906Y-23981629D01*
X44428899Y-23981642D01*
X44372669Y-24117395D01*
X44372666Y-24117407D01*
X44344000Y-24261520D01*
X43629286Y-24261520D01*
X43619799Y-24226114D01*
X43560489Y-24123387D01*
X43476613Y-24039511D01*
X43373886Y-23980201D01*
X43259309Y-23949500D01*
X43140691Y-23949500D01*
X43026114Y-23980201D01*
X43026112Y-23980201D01*
X43026112Y-23980202D01*
X42923387Y-24039511D01*
X42923384Y-24039513D01*
X42876717Y-24086181D01*
X42815394Y-24119666D01*
X42789036Y-24122500D01*
X40559016Y-24122500D01*
X40491977Y-24102815D01*
X40446222Y-24050011D01*
X40436278Y-23980853D01*
X40465303Y-23917297D01*
X40481445Y-23903057D01*
X40480840Y-23902320D01*
X40485544Y-23898458D01*
X40485548Y-23898456D01*
X40589456Y-23794548D01*
X40671097Y-23672364D01*
X40727332Y-23536600D01*
X40756000Y-23392475D01*
X40756000Y-23245525D01*
X40727332Y-23101400D01*
X40725788Y-23097672D01*
X40671100Y-22965642D01*
X40671093Y-22965629D01*
X40589456Y-22843452D01*
X40589453Y-22843448D01*
X40485551Y-22739546D01*
X40485547Y-22739543D01*
X40363370Y-22657906D01*
X40363357Y-22657899D01*
X40227604Y-22601669D01*
X40227592Y-22601666D01*
X40083479Y-22573000D01*
X40083475Y-22573000D01*
X39936525Y-22573000D01*
X39936520Y-22573000D01*
X39792407Y-22601666D01*
X39792395Y-22601669D01*
X39656642Y-22657899D01*
X39656629Y-22657906D01*
X39534452Y-22739543D01*
X39534448Y-22739546D01*
X39430546Y-22843448D01*
X39430543Y-22843452D01*
X39348906Y-22965629D01*
X39348899Y-22965642D01*
X39292669Y-23101395D01*
X39292666Y-23101407D01*
X39264000Y-23245520D01*
X39264000Y-23392479D01*
X39292666Y-23536592D01*
X39292669Y-23536604D01*
X39348899Y-23672357D01*
X39348906Y-23672370D01*
X39430543Y-23794547D01*
X39430546Y-23794551D01*
X39534448Y-23898453D01*
X39539160Y-23902320D01*
X39537430Y-23904426D01*
X39574696Y-23949052D01*
X39583378Y-24018380D01*
X39553199Y-24081396D01*
X39493743Y-24118093D01*
X39471478Y-24121087D01*
X39471525Y-24121438D01*
X39463463Y-24122499D01*
X39392895Y-24141408D01*
X39392888Y-24141411D01*
X39329611Y-24177943D01*
X39329609Y-24177945D01*
X38952022Y-24555533D01*
X38890699Y-24589018D01*
X38864341Y-24591852D01*
X38798339Y-24591852D01*
X38683762Y-24622553D01*
X38683760Y-24622553D01*
X38683760Y-24622554D01*
X38581031Y-24681865D01*
X38576987Y-24684969D01*
X38511818Y-24710164D01*
X38443373Y-24696126D01*
X38393383Y-24647313D01*
X38377500Y-24586594D01*
X38377500Y-23466307D01*
X38386144Y-23436866D01*
X38392668Y-23406880D01*
X38396422Y-23401864D01*
X38397185Y-23399268D01*
X38413819Y-23378626D01*
X38505626Y-23286819D01*
X38566949Y-23253334D01*
X38593307Y-23250500D01*
X38659306Y-23250500D01*
X38659309Y-23250500D01*
X38773886Y-23219799D01*
X38876613Y-23160489D01*
X38960489Y-23076613D01*
X39019799Y-22973886D01*
X39050500Y-22859309D01*
X39050500Y-22740691D01*
X39019799Y-22626114D01*
X38960489Y-22523387D01*
X38876613Y-22439511D01*
X38876610Y-22439509D01*
X38876606Y-22439506D01*
X38780481Y-22384007D01*
X38732266Y-22333440D01*
X38719044Y-22264832D01*
X38745012Y-22199968D01*
X38801927Y-22159440D01*
X38842521Y-22152621D01*
X47497566Y-22155772D01*
G37*
%TD.AperFunction*%
%TA.AperFunction,Conductor*%
G36*
X34440234Y-51197214D02*
G01*
X34460876Y-51213848D01*
X35411076Y-52164047D01*
X35411086Y-52164058D01*
X35415416Y-52168388D01*
X35415417Y-52168389D01*
X35467084Y-52220056D01*
X35530362Y-52256589D01*
X35600939Y-52275500D01*
X36823698Y-52275500D01*
X36826643Y-52275535D01*
X36841467Y-52275887D01*
X36849464Y-52278030D01*
X36922532Y-52278030D01*
X36922536Y-52278029D01*
X37319856Y-52278029D01*
X37319872Y-52278030D01*
X37327468Y-52278030D01*
X37400534Y-52278030D01*
X37400536Y-52278030D01*
X37400537Y-52278029D01*
X37408592Y-52276969D01*
X37408703Y-52277816D01*
X37426302Y-52275500D01*
X38881693Y-52275500D01*
X38948732Y-52295185D01*
X38969374Y-52311819D01*
X39321904Y-52664348D01*
X39355389Y-52725671D01*
X39350405Y-52795362D01*
X39308534Y-52851296D01*
X39243069Y-52875713D01*
X39234223Y-52876029D01*
X33232807Y-52876029D01*
X33165768Y-52856344D01*
X33145126Y-52839710D01*
X32649819Y-52344403D01*
X32616334Y-52283080D01*
X32613500Y-52256722D01*
X32613500Y-52190722D01*
X32613500Y-52190720D01*
X32582799Y-52076143D01*
X32523489Y-51973416D01*
X32439613Y-51889540D01*
X32336886Y-51830230D01*
X32222309Y-51799529D01*
X32222306Y-51799529D01*
X32156306Y-51799529D01*
X32089267Y-51779844D01*
X32068625Y-51763210D01*
X31864492Y-51559076D01*
X31831007Y-51497753D01*
X31835991Y-51428061D01*
X31877863Y-51372128D01*
X31943327Y-51347711D01*
X31972005Y-51350451D01*
X31972135Y-51349468D01*
X31980189Y-51350528D01*
X31980191Y-51350529D01*
X31980193Y-51350529D01*
X32098806Y-51350529D01*
X32098809Y-51350529D01*
X32213386Y-51319828D01*
X32316113Y-51260518D01*
X32362783Y-51213848D01*
X32424106Y-51180363D01*
X32450464Y-51177529D01*
X34373195Y-51177529D01*
X34440234Y-51197214D01*
G37*
%TD.AperFunction*%
%TA.AperFunction,Conductor*%
G36*
X33060888Y-22150520D02*
G01*
X33060923Y-22150517D01*
X38357869Y-22152445D01*
X38424900Y-22172154D01*
X38470636Y-22224975D01*
X38480554Y-22294137D01*
X38451506Y-22357682D01*
X38419824Y-22383831D01*
X38323393Y-22439506D01*
X38323384Y-22439513D01*
X38239513Y-22523384D01*
X38239511Y-22523387D01*
X38180201Y-22626114D01*
X38149500Y-22740691D01*
X38149500Y-22740693D01*
X38149500Y-22806693D01*
X38129815Y-22873732D01*
X38113181Y-22894374D01*
X37877945Y-23129609D01*
X37877943Y-23129611D01*
X37841411Y-23192888D01*
X37841408Y-23192895D01*
X37822499Y-23263463D01*
X37822499Y-23346523D01*
X37822500Y-23346536D01*
X37822500Y-25508422D01*
X37802815Y-25575461D01*
X37750011Y-25621216D01*
X37680853Y-25631160D01*
X37666407Y-25628197D01*
X37559309Y-25599500D01*
X37440691Y-25599500D01*
X37395556Y-25611593D01*
X37325708Y-25609931D01*
X37267845Y-25570769D01*
X37240341Y-25506540D01*
X37243688Y-25459728D01*
X37250500Y-25434309D01*
X37250500Y-25315691D01*
X37219799Y-25201114D01*
X37160489Y-25098387D01*
X37076613Y-25014511D01*
X36973886Y-24955201D01*
X36859309Y-24924500D01*
X36740691Y-24924500D01*
X36626114Y-24955201D01*
X36626112Y-24955201D01*
X36626112Y-24955202D01*
X36523387Y-25014511D01*
X36523384Y-25014513D01*
X36439513Y-25098384D01*
X36439511Y-25098387D01*
X36411452Y-25146987D01*
X36380201Y-25201114D01*
X36349500Y-25315691D01*
X36349500Y-25434309D01*
X36380201Y-25548886D01*
X36439511Y-25651613D01*
X36439513Y-25651615D01*
X36486181Y-25698283D01*
X36519666Y-25759606D01*
X36522500Y-25785964D01*
X36522500Y-29208884D01*
X36522499Y-29208902D01*
X36522499Y-29289567D01*
X36541408Y-29360135D01*
X36541411Y-29360142D01*
X36551705Y-29377973D01*
X36577944Y-29423420D01*
X40753609Y-33599085D01*
X40816887Y-33635618D01*
X40816890Y-33635618D01*
X40816893Y-33635620D01*
X40863938Y-33648226D01*
X40887464Y-33654530D01*
X40887465Y-33654530D01*
X40968128Y-33654530D01*
X40968144Y-33654529D01*
X43441854Y-33654529D01*
X43441870Y-33654530D01*
X43449466Y-33654530D01*
X43522533Y-33654530D01*
X43522534Y-33654530D01*
X43593111Y-33635618D01*
X43656389Y-33599085D01*
X44568625Y-32686847D01*
X44629948Y-32653363D01*
X44656306Y-32650529D01*
X44722306Y-32650529D01*
X44722309Y-32650529D01*
X44836886Y-32619828D01*
X44939613Y-32560518D01*
X45023489Y-32476642D01*
X45082799Y-32373915D01*
X45113500Y-32259338D01*
X45113500Y-32140720D01*
X45082799Y-32026143D01*
X45023489Y-31923416D01*
X45023487Y-31923414D01*
X45019425Y-31916378D01*
X45021529Y-31915162D01*
X45000770Y-31861493D01*
X45014796Y-31793046D01*
X45036655Y-31763475D01*
X45073489Y-31726642D01*
X45132799Y-31623915D01*
X45163500Y-31509338D01*
X45163500Y-31390720D01*
X45132799Y-31276143D01*
X45073489Y-31173416D01*
X44989613Y-31089540D01*
X44886886Y-31030230D01*
X44772309Y-30999529D01*
X44653691Y-30999529D01*
X44539114Y-31030230D01*
X44539112Y-31030230D01*
X44539112Y-31030231D01*
X44436387Y-31089540D01*
X44436384Y-31089542D01*
X44389717Y-31136210D01*
X44328394Y-31169695D01*
X44302036Y-31172529D01*
X40829306Y-31172529D01*
X40762267Y-31152844D01*
X40741625Y-31136210D01*
X37813819Y-28208403D01*
X37799115Y-28181475D01*
X37782523Y-28155657D01*
X37781631Y-28149456D01*
X37780334Y-28147080D01*
X37777500Y-28120722D01*
X37777500Y-28056335D01*
X37797185Y-27989296D01*
X37849989Y-27943541D01*
X37919147Y-27933597D01*
X37982703Y-27962622D01*
X37989167Y-27968641D01*
X39158613Y-29138086D01*
X40386603Y-30366076D01*
X40386613Y-30366087D01*
X40390943Y-30370417D01*
X40390944Y-30370418D01*
X40442611Y-30422085D01*
X40505889Y-30458618D01*
X40505892Y-30458618D01*
X40505895Y-30458620D01*
X40552940Y-30471226D01*
X40576466Y-30477530D01*
X40576467Y-30477530D01*
X40657130Y-30477530D01*
X40657146Y-30477529D01*
X44302036Y-30477529D01*
X44369075Y-30497214D01*
X44389717Y-30513848D01*
X44436387Y-30560518D01*
X44539114Y-30619828D01*
X44653691Y-30650529D01*
X44653694Y-30650529D01*
X44772306Y-30650529D01*
X44772309Y-30650529D01*
X44886886Y-30619828D01*
X44989613Y-30560518D01*
X45073489Y-30476642D01*
X45132799Y-30373915D01*
X45163500Y-30259338D01*
X45163500Y-30140720D01*
X45134803Y-30033621D01*
X45136466Y-29963772D01*
X45175629Y-29905910D01*
X45239857Y-29878406D01*
X45254578Y-29877529D01*
X45626195Y-29877529D01*
X45693234Y-29897214D01*
X45713876Y-29913848D01*
X48020444Y-32220415D01*
X48020446Y-32220418D01*
X48072113Y-32272085D01*
X48135391Y-32308618D01*
X48146161Y-32311504D01*
X48163309Y-32324298D01*
X48175371Y-32340358D01*
X48191009Y-32352959D01*
X48195923Y-32367723D01*
X48205269Y-32380166D01*
X48206733Y-32400196D01*
X48213077Y-32419252D01*
X48209229Y-32434329D01*
X48210364Y-32449849D01*
X48200766Y-32467492D01*
X48195800Y-32486952D01*
X48183646Y-32498962D01*
X48176976Y-32511225D01*
X48164092Y-32518286D01*
X48151158Y-32531069D01*
X48049890Y-32589538D01*
X48049884Y-32589542D01*
X47966013Y-32673413D01*
X47966011Y-32673416D01*
X47905990Y-32777375D01*
X47855422Y-32825590D01*
X47798603Y-32839374D01*
X47190301Y-32839374D01*
X47190285Y-32839373D01*
X47182689Y-32839373D01*
X47109621Y-32839373D01*
X47109618Y-32839373D01*
X47039050Y-32858282D01*
X47039043Y-32858285D01*
X46975766Y-32894817D01*
X46975764Y-32894819D01*
X45434403Y-34436181D01*
X45373080Y-34469666D01*
X45346722Y-34472500D01*
X41760964Y-34472500D01*
X41693925Y-34452815D01*
X41673283Y-34436181D01*
X41626615Y-34389513D01*
X41626613Y-34389511D01*
X41523886Y-34330201D01*
X41409309Y-34299500D01*
X41290691Y-34299500D01*
X41176114Y-34330201D01*
X41176112Y-34330201D01*
X41176112Y-34330202D01*
X41073387Y-34389511D01*
X41073384Y-34389513D01*
X40989513Y-34473384D01*
X40989511Y-34473387D01*
X40930201Y-34576114D01*
X40899500Y-34690691D01*
X40899500Y-34809309D01*
X40930201Y-34923886D01*
X40989511Y-35026613D01*
X41073387Y-35110489D01*
X41176114Y-35169799D01*
X41249177Y-35189376D01*
X41308836Y-35225740D01*
X41339365Y-35288587D01*
X41331070Y-35357962D01*
X41286585Y-35411840D01*
X41249177Y-35428924D01*
X41151114Y-35455201D01*
X41151113Y-35455201D01*
X41151111Y-35455202D01*
X41048387Y-35514511D01*
X41048384Y-35514513D01*
X40964513Y-35598384D01*
X40964511Y-35598387D01*
X40925320Y-35666268D01*
X40905201Y-35701114D01*
X40874500Y-35815691D01*
X40874500Y-35934309D01*
X40905201Y-36048886D01*
X40964511Y-36151613D01*
X41048387Y-36235489D01*
X41151114Y-36294799D01*
X41265691Y-36325500D01*
X41265694Y-36325500D01*
X41384306Y-36325500D01*
X41384309Y-36325500D01*
X41498886Y-36294799D01*
X41601613Y-36235489D01*
X41685489Y-36151613D01*
X41744799Y-36048886D01*
X41775500Y-35934309D01*
X41775500Y-35868306D01*
X41784144Y-35838865D01*
X41790668Y-35808879D01*
X41794422Y-35803863D01*
X41795185Y-35801267D01*
X41811819Y-35780625D01*
X41878625Y-35713819D01*
X41939948Y-35680334D01*
X41966306Y-35677500D01*
X47627720Y-35677500D01*
X47694759Y-35697185D01*
X47740514Y-35749989D01*
X47750458Y-35819147D01*
X47721433Y-35882703D01*
X47715401Y-35889181D01*
X44527945Y-39076636D01*
X44527943Y-39076638D01*
X44491411Y-39139915D01*
X44491408Y-39139922D01*
X44472499Y-39210490D01*
X44472499Y-39293550D01*
X44472500Y-39293563D01*
X44472500Y-42811036D01*
X44452815Y-42878075D01*
X44400011Y-42923830D01*
X44330853Y-42933774D01*
X44267297Y-42904749D01*
X44260819Y-42898717D01*
X44251615Y-42889513D01*
X44251613Y-42889511D01*
X44148886Y-42830201D01*
X44034309Y-42799500D01*
X43915691Y-42799500D01*
X43801114Y-42830201D01*
X43801112Y-42830201D01*
X43801112Y-42830202D01*
X43698387Y-42889511D01*
X43698384Y-42889513D01*
X43614513Y-42973384D01*
X43614511Y-42973387D01*
X43555201Y-43076114D01*
X43524500Y-43190691D01*
X43524500Y-43190693D01*
X43524500Y-43256693D01*
X43504815Y-43323732D01*
X43488181Y-43344374D01*
X42246345Y-44586210D01*
X42185022Y-44619695D01*
X42158664Y-44622529D01*
X41357146Y-44622529D01*
X41357130Y-44622528D01*
X41349534Y-44622528D01*
X41276466Y-44622528D01*
X41276463Y-44622528D01*
X41205895Y-44641437D01*
X41205888Y-44641440D01*
X41142611Y-44677972D01*
X41142609Y-44677974D01*
X39057374Y-46763210D01*
X38996051Y-46796695D01*
X38969693Y-46799529D01*
X38903691Y-46799529D01*
X38789114Y-46830230D01*
X38789112Y-46830230D01*
X38789112Y-46830231D01*
X38686387Y-46889540D01*
X38686384Y-46889542D01*
X38602513Y-46973413D01*
X38602511Y-46973416D01*
X38544471Y-47073944D01*
X38543201Y-47076143D01*
X38512500Y-47190720D01*
X38512500Y-47309338D01*
X38543201Y-47423915D01*
X38602511Y-47526642D01*
X38686387Y-47610518D01*
X38789114Y-47669828D01*
X38903691Y-47700529D01*
X38903694Y-47700529D01*
X39022306Y-47700529D01*
X39022309Y-47700529D01*
X39136886Y-47669828D01*
X39239613Y-47610518D01*
X39323489Y-47526642D01*
X39382799Y-47423915D01*
X39413500Y-47309338D01*
X39413500Y-47243336D01*
X39433185Y-47176297D01*
X39449819Y-47155655D01*
X41391626Y-45213848D01*
X41452949Y-45180363D01*
X41479307Y-45177529D01*
X42280825Y-45177529D01*
X42280841Y-45177530D01*
X42288437Y-45177530D01*
X42361504Y-45177530D01*
X42361505Y-45177530D01*
X42432082Y-45158618D01*
X42495360Y-45122085D01*
X43880625Y-43736818D01*
X43941948Y-43703334D01*
X43968306Y-43700500D01*
X44034306Y-43700500D01*
X44034309Y-43700500D01*
X44148886Y-43669799D01*
X44251613Y-43610489D01*
X44260819Y-43601283D01*
X44322142Y-43567798D01*
X44391834Y-43572782D01*
X44447767Y-43614654D01*
X44472184Y-43680118D01*
X44472500Y-43688964D01*
X44472500Y-45030853D01*
X44472499Y-45030871D01*
X44472499Y-45111536D01*
X44491408Y-45182104D01*
X44491411Y-45182111D01*
X44527943Y-45245388D01*
X44527945Y-45245390D01*
X45226181Y-45943625D01*
X45259666Y-46004948D01*
X45262500Y-46031306D01*
X45262500Y-47552020D01*
X45242815Y-47619059D01*
X45190011Y-47664814D01*
X45170595Y-47671794D01*
X45139115Y-47680229D01*
X45139114Y-47680229D01*
X45036387Y-47739540D01*
X45036384Y-47739542D01*
X44952513Y-47823413D01*
X44952511Y-47823416D01*
X44896848Y-47919827D01*
X44893201Y-47926143D01*
X44862500Y-48040720D01*
X44862500Y-48159338D01*
X44893201Y-48273915D01*
X44952511Y-48376642D01*
X45036387Y-48460518D01*
X45139114Y-48519828D01*
X45253691Y-48550529D01*
X45253694Y-48550529D01*
X45372306Y-48550529D01*
X45372309Y-48550529D01*
X45486886Y-48519828D01*
X45589613Y-48460518D01*
X45673489Y-48376642D01*
X45732799Y-48273915D01*
X45763500Y-48159338D01*
X45763500Y-48074141D01*
X45780112Y-48012142D01*
X45798589Y-47980140D01*
X45817500Y-47909563D01*
X45817500Y-45911536D01*
X45817501Y-45911523D01*
X45817501Y-45828467D01*
X45817500Y-45828463D01*
X45798591Y-45757895D01*
X45798589Y-45757892D01*
X45798589Y-45757889D01*
X45762056Y-45694611D01*
X45710389Y-45642944D01*
X45710388Y-45642943D01*
X45706058Y-45638613D01*
X45706047Y-45638603D01*
X45063819Y-44996374D01*
X45049115Y-44969446D01*
X45032523Y-44943628D01*
X45031631Y-44937427D01*
X45030334Y-44935051D01*
X45027500Y-44908693D01*
X45027500Y-44906122D01*
X45047185Y-44839083D01*
X45099989Y-44793328D01*
X45169147Y-44783384D01*
X45232703Y-44812409D01*
X45239171Y-44818432D01*
X45326862Y-44906122D01*
X45455594Y-45034854D01*
X45455597Y-45034858D01*
X45462665Y-45041926D01*
X45533132Y-45112393D01*
X45556532Y-45122085D01*
X45556533Y-45122086D01*
X45625198Y-45150529D01*
X45625199Y-45150529D01*
X45625201Y-45150530D01*
X45625202Y-45150530D01*
X45739291Y-45150530D01*
X45739299Y-45150529D01*
X46125036Y-45150529D01*
X46192075Y-45170214D01*
X46212717Y-45186848D01*
X46286387Y-45260518D01*
X46389114Y-45319828D01*
X46503691Y-45350529D01*
X46503694Y-45350529D01*
X46622306Y-45350529D01*
X46622309Y-45350529D01*
X46736886Y-45319828D01*
X46839613Y-45260518D01*
X46923489Y-45176642D01*
X46982799Y-45073915D01*
X47013500Y-44959338D01*
X47013500Y-44840720D01*
X46982799Y-44726143D01*
X46923489Y-44623416D01*
X46839613Y-44539540D01*
X46736886Y-44480230D01*
X46622309Y-44449529D01*
X46503691Y-44449529D01*
X46389114Y-44480230D01*
X46389112Y-44480230D01*
X46389112Y-44480231D01*
X46286387Y-44539540D01*
X46286384Y-44539542D01*
X46212717Y-44613210D01*
X46151394Y-44646695D01*
X46125036Y-44649529D01*
X45830151Y-44649529D01*
X45800710Y-44640884D01*
X45770724Y-44634361D01*
X45765708Y-44630606D01*
X45763112Y-44629844D01*
X45742475Y-44613214D01*
X45611817Y-44482556D01*
X45578334Y-44421235D01*
X45575500Y-44394877D01*
X45575500Y-39643151D01*
X45595185Y-39576112D01*
X45611814Y-39555475D01*
X45742914Y-39424375D01*
X45804235Y-39390892D01*
X45873927Y-39395876D01*
X45929860Y-39437748D01*
X45954277Y-39503212D01*
X45950368Y-39544150D01*
X45924500Y-39640691D01*
X45924500Y-39759309D01*
X45955201Y-39873886D01*
X46014511Y-39976613D01*
X46014513Y-39976615D01*
X46088846Y-40050948D01*
X46122331Y-40112271D01*
X46117347Y-40181963D01*
X46079086Y-40233716D01*
X46079134Y-40233764D01*
X46078817Y-40234080D01*
X46076662Y-40236996D01*
X46073393Y-40239504D01*
X45989513Y-40323384D01*
X45989511Y-40323387D01*
X45930201Y-40426114D01*
X45899500Y-40540691D01*
X45899500Y-40659309D01*
X45930201Y-40773886D01*
X45989511Y-40876613D01*
X46073387Y-40960489D01*
X46088280Y-40969087D01*
X46098227Y-40974831D01*
X46146442Y-41025399D01*
X46159663Y-41094006D01*
X46133694Y-41158871D01*
X46104520Y-41184151D01*
X46104836Y-41184563D01*
X46098384Y-41189513D01*
X46014513Y-41273384D01*
X46014511Y-41273387D01*
X45955201Y-41376114D01*
X45924500Y-41490691D01*
X45924500Y-41609309D01*
X45955201Y-41723886D01*
X46014511Y-41826613D01*
X46098387Y-41910489D01*
X46201114Y-41969799D01*
X46315691Y-42000500D01*
X46315694Y-42000500D01*
X46434306Y-42000500D01*
X46434309Y-42000500D01*
X46548886Y-41969799D01*
X46651613Y-41910489D01*
X46698283Y-41863819D01*
X46759606Y-41830334D01*
X46785964Y-41827500D01*
X47433693Y-41827500D01*
X47500732Y-41847185D01*
X47521374Y-41863819D01*
X47911181Y-42253625D01*
X47944666Y-42314948D01*
X47947500Y-42341306D01*
X47947500Y-42905693D01*
X47927815Y-42972732D01*
X47875011Y-43018487D01*
X47805853Y-43028431D01*
X47742297Y-42999406D01*
X47735819Y-42993374D01*
X47511819Y-42769374D01*
X47478334Y-42708051D01*
X47475500Y-42681693D01*
X47475500Y-42615693D01*
X47475500Y-42615691D01*
X47444799Y-42501114D01*
X47385489Y-42398387D01*
X47301613Y-42314511D01*
X47198886Y-42255201D01*
X47084309Y-42224500D01*
X46965691Y-42224500D01*
X46851114Y-42255201D01*
X46851112Y-42255201D01*
X46851112Y-42255202D01*
X46748387Y-42314511D01*
X46748384Y-42314513D01*
X46664513Y-42398384D01*
X46664511Y-42398387D01*
X46641576Y-42438112D01*
X46605201Y-42501114D01*
X46574500Y-42615691D01*
X46574500Y-42734309D01*
X46605201Y-42848886D01*
X46664511Y-42951613D01*
X46748387Y-43035489D01*
X46851114Y-43094799D01*
X46965691Y-43125500D01*
X47031693Y-43125500D01*
X47098732Y-43145185D01*
X47119374Y-43161819D01*
X47361181Y-43403626D01*
X47394666Y-43464949D01*
X47397500Y-43491307D01*
X47397500Y-46921722D01*
X47377815Y-46988761D01*
X47361181Y-47009403D01*
X46990945Y-47379638D01*
X46990943Y-47379640D01*
X46954411Y-47442917D01*
X46954408Y-47442924D01*
X46935499Y-47513492D01*
X46935499Y-47596552D01*
X46935500Y-47596565D01*
X46935500Y-47839065D01*
X46915815Y-47906104D01*
X46899181Y-47926746D01*
X46852513Y-47973413D01*
X46852511Y-47973416D01*
X46813540Y-48040916D01*
X46793201Y-48076143D01*
X46762500Y-48190720D01*
X46762500Y-48309338D01*
X46793201Y-48423915D01*
X46852511Y-48526642D01*
X46936387Y-48610518D01*
X47039114Y-48669828D01*
X47153691Y-48700529D01*
X47153694Y-48700529D01*
X47272306Y-48700529D01*
X47272309Y-48700529D01*
X47386886Y-48669828D01*
X47489613Y-48610518D01*
X47573489Y-48526642D01*
X47632799Y-48423915D01*
X47663500Y-48309338D01*
X47663500Y-48190720D01*
X47632799Y-48076143D01*
X47573489Y-47973416D01*
X47526819Y-47926746D01*
X47512115Y-47899818D01*
X47495523Y-47874000D01*
X47494631Y-47867799D01*
X47493334Y-47865423D01*
X47490500Y-47839065D01*
X47490500Y-47716334D01*
X47510185Y-47649295D01*
X47526815Y-47628657D01*
X47735819Y-47419652D01*
X47797142Y-47386168D01*
X47866834Y-47391152D01*
X47922767Y-47433024D01*
X47947184Y-47498488D01*
X47947500Y-47507334D01*
X47947500Y-48658693D01*
X47927815Y-48725732D01*
X47911181Y-48746374D01*
X44371374Y-52286181D01*
X44310051Y-52319666D01*
X44283693Y-52322500D01*
X41213964Y-52322500D01*
X41146925Y-52302815D01*
X41101170Y-52250011D01*
X41091226Y-52180853D01*
X41120251Y-52117297D01*
X41126283Y-52110819D01*
X41160961Y-52076141D01*
X41210489Y-52026613D01*
X41269799Y-51923886D01*
X41300500Y-51809309D01*
X41300500Y-51690691D01*
X41269799Y-51576114D01*
X41210489Y-51473387D01*
X41126613Y-51389511D01*
X41023886Y-51330201D01*
X40909309Y-51299500D01*
X40790691Y-51299500D01*
X40676114Y-51330201D01*
X40676112Y-51330201D01*
X40676112Y-51330202D01*
X40573387Y-51389511D01*
X40573384Y-51389513D01*
X40526717Y-51436181D01*
X40465394Y-51469666D01*
X40439036Y-51472500D01*
X40066306Y-51472500D01*
X39999267Y-51452815D01*
X39978625Y-51436181D01*
X39276819Y-50734374D01*
X39243334Y-50673051D01*
X39240500Y-50646693D01*
X39240500Y-48810993D01*
X39260185Y-48743954D01*
X39276819Y-48723312D01*
X39299602Y-48700529D01*
X39323489Y-48676642D01*
X39382799Y-48573915D01*
X39413500Y-48459338D01*
X39413500Y-48340720D01*
X39382799Y-48226143D01*
X39323489Y-48123416D01*
X39239613Y-48039540D01*
X39136886Y-47980230D01*
X39022309Y-47949529D01*
X38903691Y-47949529D01*
X38789114Y-47980230D01*
X38789112Y-47980230D01*
X38789112Y-47980231D01*
X38686387Y-48039540D01*
X38686384Y-48039542D01*
X38602513Y-48123413D01*
X38602511Y-48123416D01*
X38563652Y-48190722D01*
X38543201Y-48226143D01*
X38512500Y-48340720D01*
X38512500Y-48459338D01*
X38543201Y-48573915D01*
X38602511Y-48676642D01*
X38602513Y-48676644D01*
X38649181Y-48723312D01*
X38682666Y-48784635D01*
X38685500Y-48810993D01*
X38685500Y-50768853D01*
X38685499Y-50768871D01*
X38685499Y-50849536D01*
X38704408Y-50920104D01*
X38704411Y-50920111D01*
X38740944Y-50983389D01*
X39193736Y-51436181D01*
X39297946Y-51540390D01*
X39331431Y-51601713D01*
X39326447Y-51671404D01*
X39284576Y-51727338D01*
X39219111Y-51751755D01*
X39191517Y-51750646D01*
X39168463Y-51747119D01*
X39155111Y-51739411D01*
X39084534Y-51720499D01*
X39011466Y-51720499D01*
X39011462Y-51720500D01*
X37410677Y-51720500D01*
X37410661Y-51720499D01*
X37403065Y-51720499D01*
X37329997Y-51720499D01*
X37329995Y-51720499D01*
X37321941Y-51721560D01*
X37321829Y-51720712D01*
X37304231Y-51723029D01*
X36945769Y-51723029D01*
X36942824Y-51722994D01*
X36927999Y-51722641D01*
X36920003Y-51720499D01*
X36846935Y-51720499D01*
X36846931Y-51720500D01*
X35803779Y-51720500D01*
X35736740Y-51700815D01*
X35716098Y-51684181D01*
X35229131Y-51197214D01*
X34709891Y-50677973D01*
X34709890Y-50677972D01*
X34646613Y-50641440D01*
X34646606Y-50641437D01*
X34576038Y-50622528D01*
X34576036Y-50622528D01*
X34502968Y-50622528D01*
X34495372Y-50622528D01*
X34495356Y-50622529D01*
X32450464Y-50622529D01*
X32383425Y-50602844D01*
X32362783Y-50586210D01*
X32316115Y-50539542D01*
X32316113Y-50539540D01*
X32213386Y-50480230D01*
X32098809Y-50449529D01*
X31980191Y-50449529D01*
X31896593Y-50471929D01*
X31826743Y-50470266D01*
X31768881Y-50431103D01*
X31741377Y-50366875D01*
X31740500Y-50352154D01*
X31740500Y-48067597D01*
X31760185Y-48000558D01*
X31812989Y-47954803D01*
X31832393Y-47947826D01*
X31936886Y-47919828D01*
X32039613Y-47860518D01*
X32123489Y-47776642D01*
X32182799Y-47673915D01*
X32213500Y-47559338D01*
X32213500Y-47440720D01*
X32182799Y-47326143D01*
X32123489Y-47223416D01*
X32039613Y-47139540D01*
X31936886Y-47080230D01*
X31822309Y-47049529D01*
X31703691Y-47049529D01*
X31589114Y-47080230D01*
X31589112Y-47080230D01*
X31589112Y-47080231D01*
X31486387Y-47139540D01*
X31486384Y-47139542D01*
X31402513Y-47223413D01*
X31402511Y-47223416D01*
X31382303Y-47258418D01*
X31381887Y-47259138D01*
X31331319Y-47307353D01*
X31262712Y-47320575D01*
X31197847Y-47294607D01*
X31157320Y-47237692D01*
X31150500Y-47197137D01*
X31150500Y-43031216D01*
X31170185Y-42964177D01*
X31222989Y-42918422D01*
X31292147Y-42908478D01*
X31355703Y-42937503D01*
X31389061Y-42983764D01*
X31421442Y-43061941D01*
X31421443Y-43061943D01*
X31493509Y-43169797D01*
X31493512Y-43169801D01*
X31585227Y-43261516D01*
X31585231Y-43261519D01*
X31693083Y-43333584D01*
X31693084Y-43333584D01*
X31693085Y-43333585D01*
X31693087Y-43333586D01*
X31778868Y-43369117D01*
X31812923Y-43383223D01*
X31812927Y-43383223D01*
X31812928Y-43383224D01*
X31940140Y-43408529D01*
X31940143Y-43408529D01*
X33085859Y-43408529D01*
X33172215Y-43391351D01*
X33213077Y-43383223D01*
X33332917Y-43333584D01*
X33440769Y-43261519D01*
X33532490Y-43169798D01*
X33604555Y-43061946D01*
X33654194Y-42942106D01*
X33672737Y-42848886D01*
X33679500Y-42814888D01*
X33679500Y-42685169D01*
X33654195Y-42557957D01*
X33654194Y-42557956D01*
X33654194Y-42557952D01*
X33640274Y-42524346D01*
X33604557Y-42438116D01*
X33604556Y-42438114D01*
X33532490Y-42330260D01*
X33532487Y-42330256D01*
X33440772Y-42238541D01*
X33440767Y-42238537D01*
X33425194Y-42228132D01*
X33380388Y-42174521D01*
X33371679Y-42105196D01*
X33401833Y-42042168D01*
X33425194Y-42021926D01*
X33426524Y-42021036D01*
X33440769Y-42011519D01*
X33532490Y-41919798D01*
X33604555Y-41811946D01*
X33654194Y-41692106D01*
X33679500Y-41564886D01*
X33679500Y-41440720D01*
X34862500Y-41440720D01*
X34862500Y-41559338D01*
X34893201Y-41673915D01*
X34952511Y-41776642D01*
X34952513Y-41776644D01*
X34999181Y-41823312D01*
X35032666Y-41884635D01*
X35035500Y-41910993D01*
X35035500Y-47219653D01*
X35018887Y-47281653D01*
X34993202Y-47326139D01*
X34993201Y-47326143D01*
X34962500Y-47440720D01*
X34962500Y-47559338D01*
X34993201Y-47673915D01*
X35052511Y-47776642D01*
X35136387Y-47860518D01*
X35239114Y-47919828D01*
X35353691Y-47950529D01*
X35353694Y-47950529D01*
X35472306Y-47950529D01*
X35472309Y-47950529D01*
X35586886Y-47919828D01*
X35689613Y-47860518D01*
X35773489Y-47776642D01*
X35832799Y-47673915D01*
X35863500Y-47559338D01*
X35863500Y-47440720D01*
X35832799Y-47326143D01*
X35773489Y-47223416D01*
X35689613Y-47139540D01*
X35652498Y-47118111D01*
X35604284Y-47067544D01*
X35590500Y-47010725D01*
X35590500Y-43622694D01*
X35610185Y-43555655D01*
X35662989Y-43509900D01*
X35732147Y-43499956D01*
X35795703Y-43528981D01*
X35833477Y-43587759D01*
X35834263Y-43590561D01*
X35840139Y-43612489D01*
X35843201Y-43623916D01*
X35869691Y-43669797D01*
X35902511Y-43726642D01*
X35986387Y-43810518D01*
X36089114Y-43869828D01*
X36203691Y-43900529D01*
X36203694Y-43900529D01*
X36322306Y-43900529D01*
X36322309Y-43900529D01*
X36436886Y-43869828D01*
X36539613Y-43810518D01*
X36613283Y-43736848D01*
X36674606Y-43703363D01*
X36700964Y-43700529D01*
X39025036Y-43700529D01*
X39092075Y-43720214D01*
X39112717Y-43736847D01*
X39186373Y-43810503D01*
X39289100Y-43869813D01*
X39403677Y-43900514D01*
X39403680Y-43900514D01*
X39522292Y-43900514D01*
X39522295Y-43900514D01*
X39636872Y-43869813D01*
X39739599Y-43810503D01*
X39823475Y-43726627D01*
X39882785Y-43623900D01*
X39913486Y-43509323D01*
X39913486Y-43390705D01*
X39882785Y-43276128D01*
X39823475Y-43173401D01*
X39739599Y-43089525D01*
X39636872Y-43030215D01*
X39522295Y-42999514D01*
X39403677Y-42999514D01*
X39289100Y-43030215D01*
X39289098Y-43030215D01*
X39289098Y-43030216D01*
X39186373Y-43089525D01*
X39186370Y-43089527D01*
X39112688Y-43163210D01*
X39051365Y-43196695D01*
X39025007Y-43199529D01*
X36700964Y-43199529D01*
X36633925Y-43179844D01*
X36613283Y-43163210D01*
X36539615Y-43089542D01*
X36539613Y-43089540D01*
X36436886Y-43030230D01*
X36322309Y-42999529D01*
X36203691Y-42999529D01*
X36089114Y-43030230D01*
X36089112Y-43030230D01*
X36089112Y-43030231D01*
X35986387Y-43089540D01*
X35986384Y-43089542D01*
X35902513Y-43173413D01*
X35902511Y-43173416D01*
X35854431Y-43256693D01*
X35843201Y-43276143D01*
X35834274Y-43309458D01*
X35797910Y-43369117D01*
X35735063Y-43399646D01*
X35665687Y-43391351D01*
X35611809Y-43346866D01*
X35590535Y-43280314D01*
X35590500Y-43277363D01*
X35590500Y-41910993D01*
X35610185Y-41843954D01*
X35626819Y-41823312D01*
X35646352Y-41803779D01*
X35673489Y-41776642D01*
X35732799Y-41673915D01*
X35763500Y-41559338D01*
X35763500Y-41440720D01*
X35732799Y-41326143D01*
X35673489Y-41223416D01*
X35589613Y-41139540D01*
X35486886Y-41080230D01*
X35372309Y-41049529D01*
X35253691Y-41049529D01*
X35139114Y-41080230D01*
X35139112Y-41080230D01*
X35139112Y-41080231D01*
X35036387Y-41139540D01*
X35036384Y-41139542D01*
X34952513Y-41223413D01*
X34952511Y-41223416D01*
X34903707Y-41307947D01*
X34893201Y-41326143D01*
X34862500Y-41440720D01*
X33679500Y-41440720D01*
X33679500Y-41435172D01*
X33679500Y-41435169D01*
X33654195Y-41307957D01*
X33654194Y-41307956D01*
X33654194Y-41307952D01*
X33639876Y-41273384D01*
X33604557Y-41188116D01*
X33604556Y-41188114D01*
X33602183Y-41184563D01*
X33532490Y-41080260D01*
X33532487Y-41080256D01*
X33483256Y-41031025D01*
X33449771Y-40969702D01*
X33454755Y-40900010D01*
X33496627Y-40844077D01*
X33502062Y-40840231D01*
X33504203Y-40838800D01*
X33609777Y-40733226D01*
X33692732Y-40609074D01*
X33737901Y-40500029D01*
X32637000Y-40500029D01*
X32599654Y-40489063D01*
X32656879Y-40465360D01*
X32728331Y-40393908D01*
X32767000Y-40300553D01*
X32767000Y-40199505D01*
X32728331Y-40106150D01*
X32656879Y-40034698D01*
X32573181Y-40000029D01*
X32763000Y-40000029D01*
X33737900Y-40000029D01*
X33692732Y-39890983D01*
X33609777Y-39766831D01*
X33504197Y-39661251D01*
X33380045Y-39578296D01*
X33242101Y-39521158D01*
X33242093Y-39521156D01*
X33095661Y-39492029D01*
X32763000Y-39492029D01*
X32763000Y-40000029D01*
X32573181Y-40000029D01*
X32563524Y-39996029D01*
X32462476Y-39996029D01*
X32369121Y-40034698D01*
X32297669Y-40106150D01*
X32272102Y-40167872D01*
X32263000Y-40126029D01*
X32263000Y-39492029D01*
X31930338Y-39492029D01*
X31783906Y-39521156D01*
X31783898Y-39521158D01*
X31645954Y-39578296D01*
X31521802Y-39661251D01*
X31416225Y-39766828D01*
X31416222Y-39766832D01*
X31377602Y-39824632D01*
X31323990Y-39869437D01*
X31254665Y-39878144D01*
X31191638Y-39847990D01*
X31154918Y-39788547D01*
X31150500Y-39755741D01*
X31150500Y-38274500D01*
X31170185Y-38207461D01*
X31222989Y-38161706D01*
X31274500Y-38150500D01*
X34029934Y-38150500D01*
X34029936Y-38150500D01*
X34085251Y-38127587D01*
X34127587Y-38085251D01*
X34150500Y-38029936D01*
X34150500Y-34970064D01*
X34127587Y-34914749D01*
X34127585Y-34914747D01*
X34127585Y-34914746D01*
X34085253Y-34872414D01*
X34085251Y-34872413D01*
X34029936Y-34849500D01*
X34029934Y-34849500D01*
X31274500Y-34849500D01*
X31207461Y-34829815D01*
X31161706Y-34777011D01*
X31150500Y-34725500D01*
X31150500Y-32598543D01*
X31999499Y-32598543D01*
X32037947Y-32791829D01*
X32037950Y-32791839D01*
X32113364Y-32973907D01*
X32113371Y-32973920D01*
X32222860Y-33137781D01*
X32222863Y-33137785D01*
X32362214Y-33277136D01*
X32362218Y-33277139D01*
X32526079Y-33386628D01*
X32526092Y-33386635D01*
X32708160Y-33462049D01*
X32708165Y-33462051D01*
X32708169Y-33462051D01*
X32708170Y-33462052D01*
X32901456Y-33500500D01*
X32901459Y-33500500D01*
X33098543Y-33500500D01*
X33232191Y-33473915D01*
X33291835Y-33462051D01*
X33473914Y-33386632D01*
X33637782Y-33277139D01*
X33777139Y-33137782D01*
X33886632Y-32973914D01*
X33962051Y-32791835D01*
X33974632Y-32728582D01*
X34000500Y-32598543D01*
X34000500Y-32401456D01*
X33962052Y-32208170D01*
X33962051Y-32208169D01*
X33962051Y-32208165D01*
X33961453Y-32206722D01*
X33886635Y-32026092D01*
X33886628Y-32026079D01*
X33777139Y-31862218D01*
X33777136Y-31862214D01*
X33637785Y-31722863D01*
X33637781Y-31722860D01*
X33473920Y-31613371D01*
X33473907Y-31613364D01*
X33291839Y-31537950D01*
X33291829Y-31537947D01*
X33098543Y-31499500D01*
X33098541Y-31499500D01*
X32901459Y-31499500D01*
X32901457Y-31499500D01*
X32708170Y-31537947D01*
X32708160Y-31537950D01*
X32526092Y-31613364D01*
X32526079Y-31613371D01*
X32362218Y-31722860D01*
X32362214Y-31722863D01*
X32222863Y-31862214D01*
X32222860Y-31862218D01*
X32113371Y-32026079D01*
X32113364Y-32026092D01*
X32037950Y-32208160D01*
X32037947Y-32208170D01*
X31999500Y-32401456D01*
X31999500Y-32401459D01*
X31999500Y-32598541D01*
X31999500Y-32598543D01*
X31999499Y-32598543D01*
X31150500Y-32598543D01*
X31150500Y-30824822D01*
X31999499Y-30824822D01*
X32008231Y-30868717D01*
X32008232Y-30868721D01*
X32008233Y-30868722D01*
X32041496Y-30918504D01*
X32091278Y-30951767D01*
X32091281Y-30951767D01*
X32091282Y-30951768D01*
X32135177Y-30960500D01*
X32135180Y-30960500D01*
X33864822Y-30960500D01*
X33908717Y-30951768D01*
X33908717Y-30951767D01*
X33908722Y-30951767D01*
X33958504Y-30918504D01*
X33991767Y-30868722D01*
X34000500Y-30824820D01*
X34000500Y-29095180D01*
X34000500Y-29095177D01*
X33991768Y-29051282D01*
X33991767Y-29051281D01*
X33991767Y-29051278D01*
X33958504Y-29001496D01*
X33958503Y-29001495D01*
X33908724Y-28968234D01*
X33908717Y-28968231D01*
X33864822Y-28959500D01*
X33864820Y-28959500D01*
X32135180Y-28959500D01*
X32135178Y-28959500D01*
X32091282Y-28968231D01*
X32091275Y-28968234D01*
X32041496Y-29001495D01*
X32041495Y-29001496D01*
X32008234Y-29051275D01*
X32008231Y-29051282D01*
X31999500Y-29095177D01*
X31999500Y-29095180D01*
X31999500Y-30824820D01*
X31999500Y-30824822D01*
X31999499Y-30824822D01*
X31150500Y-30824822D01*
X31150500Y-24004071D01*
X31150768Y-23995926D01*
X31151810Y-23980097D01*
X31156979Y-23901577D01*
X31762400Y-23901577D01*
X31762400Y-24098422D01*
X31793190Y-24292826D01*
X31854017Y-24480029D01*
X31929158Y-24627500D01*
X31943376Y-24655405D01*
X32059072Y-24814646D01*
X32198254Y-24953828D01*
X32357495Y-25069524D01*
X32414142Y-25098387D01*
X32532870Y-25158882D01*
X32532872Y-25158882D01*
X32532875Y-25158884D01*
X32599316Y-25180472D01*
X32720073Y-25219709D01*
X32914478Y-25250500D01*
X32914483Y-25250500D01*
X33111322Y-25250500D01*
X33305726Y-25219709D01*
X33306194Y-25219557D01*
X33492925Y-25158884D01*
X33668305Y-25069524D01*
X33827546Y-24953828D01*
X33966728Y-24814646D01*
X34082424Y-24655405D01*
X34171784Y-24480025D01*
X34232609Y-24292826D01*
X34243175Y-24226114D01*
X34263400Y-24098422D01*
X34263400Y-23901577D01*
X34232609Y-23707173D01*
X34171782Y-23519970D01*
X34118269Y-23414945D01*
X34082424Y-23344595D01*
X33966728Y-23185354D01*
X33827546Y-23046172D01*
X33668305Y-22930476D01*
X33639853Y-22915979D01*
X33492929Y-22841117D01*
X33305726Y-22780290D01*
X33111322Y-22749500D01*
X33111317Y-22749500D01*
X32914483Y-22749500D01*
X32914478Y-22749500D01*
X32720073Y-22780290D01*
X32532870Y-22841117D01*
X32357494Y-22930476D01*
X32297745Y-22973887D01*
X32198254Y-23046172D01*
X32198252Y-23046174D01*
X32198251Y-23046174D01*
X32059074Y-23185351D01*
X32059074Y-23185352D01*
X32059072Y-23185354D01*
X32034048Y-23219797D01*
X31943376Y-23344594D01*
X31854017Y-23519970D01*
X31793190Y-23707173D01*
X31762400Y-23901577D01*
X31156979Y-23901577D01*
X31165921Y-23765738D01*
X31168055Y-23749602D01*
X31212448Y-23527377D01*
X31216680Y-23511650D01*
X31223108Y-23492799D01*
X31289814Y-23297161D01*
X31296062Y-23282146D01*
X31396682Y-23079080D01*
X31404841Y-23065019D01*
X31531208Y-22876892D01*
X31541156Y-22864001D01*
X31691076Y-22694070D01*
X31702627Y-22682595D01*
X31873521Y-22533782D01*
X31886470Y-22523923D01*
X32075410Y-22398780D01*
X32089537Y-22390705D01*
X32293234Y-22291411D01*
X32308299Y-22285256D01*
X32523268Y-22213509D01*
X32539012Y-22209381D01*
X32761528Y-22166428D01*
X32777657Y-22164402D01*
X33008021Y-22150736D01*
X33015328Y-22150519D01*
X33015530Y-22150518D01*
X33046377Y-22150719D01*
X33046801Y-22150517D01*
X33060582Y-22150517D01*
X33060875Y-22150517D01*
X33060888Y-22150520D01*
G37*
%TD.AperFunction*%
%TA.AperFunction,Conductor*%
G36*
X37282703Y-28462622D02*
G01*
X37289166Y-28468640D01*
X38862927Y-30042400D01*
X40436603Y-31616076D01*
X40436613Y-31616087D01*
X40440943Y-31620417D01*
X40440944Y-31620418D01*
X40492611Y-31672085D01*
X40555889Y-31708618D01*
X40626466Y-31727529D01*
X44201373Y-31727529D01*
X44268412Y-31747214D01*
X44314167Y-31800018D01*
X44324111Y-31869176D01*
X44304690Y-31915289D01*
X44306575Y-31916378D01*
X44302512Y-31923414D01*
X44302511Y-31923416D01*
X44243201Y-32026143D01*
X44212500Y-32140720D01*
X44212500Y-32140722D01*
X44212500Y-32206722D01*
X44192815Y-32273761D01*
X44176181Y-32294403D01*
X43407374Y-33063210D01*
X43346051Y-33096695D01*
X43319693Y-33099529D01*
X41090305Y-33099529D01*
X41023266Y-33079844D01*
X41002624Y-33063210D01*
X37113819Y-29174405D01*
X37080334Y-29113082D01*
X37077500Y-29086724D01*
X37077500Y-28556335D01*
X37097185Y-28489296D01*
X37149989Y-28443541D01*
X37219147Y-28433597D01*
X37282703Y-28462622D01*
G37*
%TD.AperFunction*%
%TD*%
D23*
X54987000Y-22008000D02*
X33013000Y-22000000D01*
X31000000Y-38000000D02*
X31000000Y-59987029D01*
X33000000Y-62000029D02*
G75*
G02*
X31000013Y-59987029I0J2000029D01*
G01*
X31000000Y-24000000D02*
G75*
G02*
X33013000Y-22000002I2000070J-30D01*
G01*
X31000000Y-35000000D02*
X31000000Y-24000000D01*
X57013000Y-60000029D02*
G75*
G02*
X55000000Y-62000058I-2000100J29D01*
G01*
X56987000Y-24021000D02*
X57013000Y-60000029D01*
X54987000Y-22008000D02*
G75*
G02*
X56986958Y-24021000I-100J-2000100D01*
G01*
X34000000Y-38000000D02*
X31000000Y-38000000D01*
X34000000Y-35000000D02*
X34000000Y-38000000D01*
X55000000Y-62000029D02*
X33000000Y-62000029D01*
X31000000Y-35000000D02*
X34000000Y-35000000D01*
M02*
