%TF.GenerationSoftware,KiCad,Pcbnew,8.0.8*%
%TF.CreationDate,2025-02-28T15:56:35+01:00*%
%TF.ProjectId,nervous-eda,6e657276-6f75-4732-9d65-64612e6b6963,1.0*%
%TF.SameCoordinates,Original*%
%TF.FileFunction,Legend,Top*%
%TF.FilePolarity,Positive*%
%FSLAX46Y46*%
G04 Gerber Fmt 4.6, Leading zero omitted, Abs format (unit mm)*
G04 Created by KiCad (PCBNEW 8.0.8) date 2025-02-28 15:56:35*
%MOMM*%
%LPD*%
G01*
G04 APERTURE LIST*
%ADD10C,0.100000*%
%ADD11C,0.150000*%
%ADD12C,0.300000*%
%ADD13C,0.400000*%
%ADD14C,0.120000*%
%ADD15C,0.127000*%
%ADD16C,0.200000*%
%TA.AperFunction,Profile*%
%ADD17C,0.254000*%
%TD*%
G04 APERTURE END LIST*
D10*
D11*
X30012000Y-75990000D02*
X138012000Y-75990000D01*
X138012000Y-107990000D01*
X30012000Y-107990000D01*
X30012000Y-75990000D01*
D10*
D11*
X10000000Y-10000000D02*
X140012000Y-10000000D01*
X140012000Y-109990000D01*
X10000000Y-109990000D01*
X10000000Y-10000000D01*
D10*
D11*
X12000000Y-12000000D02*
X138012000Y-12000000D01*
X138012000Y-107990000D01*
X12000000Y-107990000D01*
X12000000Y-12000000D01*
D10*
D11*
X60000000Y-12000000D02*
X60000000Y-10000000D01*
D10*
D11*
X110000000Y-12000000D02*
X110000000Y-10000000D01*
D10*
D11*
X36089160Y-11593604D02*
X35346303Y-11593604D01*
X35717731Y-11593604D02*
X35717731Y-10293604D01*
X35717731Y-10293604D02*
X35593922Y-10479319D01*
X35593922Y-10479319D02*
X35470112Y-10603128D01*
X35470112Y-10603128D02*
X35346303Y-10665033D01*
D10*
D11*
X85346303Y-10417414D02*
X85408207Y-10355509D01*
X85408207Y-10355509D02*
X85532017Y-10293604D01*
X85532017Y-10293604D02*
X85841541Y-10293604D01*
X85841541Y-10293604D02*
X85965350Y-10355509D01*
X85965350Y-10355509D02*
X86027255Y-10417414D01*
X86027255Y-10417414D02*
X86089160Y-10541223D01*
X86089160Y-10541223D02*
X86089160Y-10665033D01*
X86089160Y-10665033D02*
X86027255Y-10850747D01*
X86027255Y-10850747D02*
X85284398Y-11593604D01*
X85284398Y-11593604D02*
X86089160Y-11593604D01*
D10*
D11*
X135284398Y-10293604D02*
X136089160Y-10293604D01*
X136089160Y-10293604D02*
X135655826Y-10788842D01*
X135655826Y-10788842D02*
X135841541Y-10788842D01*
X135841541Y-10788842D02*
X135965350Y-10850747D01*
X135965350Y-10850747D02*
X136027255Y-10912652D01*
X136027255Y-10912652D02*
X136089160Y-11036461D01*
X136089160Y-11036461D02*
X136089160Y-11345985D01*
X136089160Y-11345985D02*
X136027255Y-11469795D01*
X136027255Y-11469795D02*
X135965350Y-11531700D01*
X135965350Y-11531700D02*
X135841541Y-11593604D01*
X135841541Y-11593604D02*
X135470112Y-11593604D01*
X135470112Y-11593604D02*
X135346303Y-11531700D01*
X135346303Y-11531700D02*
X135284398Y-11469795D01*
D10*
D11*
X60000000Y-107990000D02*
X60000000Y-109990000D01*
D10*
D11*
X110000000Y-107990000D02*
X110000000Y-109990000D01*
D10*
D11*
X36089160Y-109583604D02*
X35346303Y-109583604D01*
X35717731Y-109583604D02*
X35717731Y-108283604D01*
X35717731Y-108283604D02*
X35593922Y-108469319D01*
X35593922Y-108469319D02*
X35470112Y-108593128D01*
X35470112Y-108593128D02*
X35346303Y-108655033D01*
D10*
D11*
X85346303Y-108407414D02*
X85408207Y-108345509D01*
X85408207Y-108345509D02*
X85532017Y-108283604D01*
X85532017Y-108283604D02*
X85841541Y-108283604D01*
X85841541Y-108283604D02*
X85965350Y-108345509D01*
X85965350Y-108345509D02*
X86027255Y-108407414D01*
X86027255Y-108407414D02*
X86089160Y-108531223D01*
X86089160Y-108531223D02*
X86089160Y-108655033D01*
X86089160Y-108655033D02*
X86027255Y-108840747D01*
X86027255Y-108840747D02*
X85284398Y-109583604D01*
X85284398Y-109583604D02*
X86089160Y-109583604D01*
D10*
D11*
X135284398Y-108283604D02*
X136089160Y-108283604D01*
X136089160Y-108283604D02*
X135655826Y-108778842D01*
X135655826Y-108778842D02*
X135841541Y-108778842D01*
X135841541Y-108778842D02*
X135965350Y-108840747D01*
X135965350Y-108840747D02*
X136027255Y-108902652D01*
X136027255Y-108902652D02*
X136089160Y-109026461D01*
X136089160Y-109026461D02*
X136089160Y-109335985D01*
X136089160Y-109335985D02*
X136027255Y-109459795D01*
X136027255Y-109459795D02*
X135965350Y-109521700D01*
X135965350Y-109521700D02*
X135841541Y-109583604D01*
X135841541Y-109583604D02*
X135470112Y-109583604D01*
X135470112Y-109583604D02*
X135346303Y-109521700D01*
X135346303Y-109521700D02*
X135284398Y-109459795D01*
D10*
D11*
X10000000Y-60000000D02*
X12000000Y-60000000D01*
D10*
D11*
X10690476Y-35222176D02*
X11309523Y-35222176D01*
X10566666Y-35593604D02*
X10999999Y-34293604D01*
X10999999Y-34293604D02*
X11433333Y-35593604D01*
D10*
D11*
X11092857Y-84912652D02*
X11278571Y-84974557D01*
X11278571Y-84974557D02*
X11340476Y-85036461D01*
X11340476Y-85036461D02*
X11402380Y-85160271D01*
X11402380Y-85160271D02*
X11402380Y-85345985D01*
X11402380Y-85345985D02*
X11340476Y-85469795D01*
X11340476Y-85469795D02*
X11278571Y-85531700D01*
X11278571Y-85531700D02*
X11154761Y-85593604D01*
X11154761Y-85593604D02*
X10659523Y-85593604D01*
X10659523Y-85593604D02*
X10659523Y-84293604D01*
X10659523Y-84293604D02*
X11092857Y-84293604D01*
X11092857Y-84293604D02*
X11216666Y-84355509D01*
X11216666Y-84355509D02*
X11278571Y-84417414D01*
X11278571Y-84417414D02*
X11340476Y-84541223D01*
X11340476Y-84541223D02*
X11340476Y-84665033D01*
X11340476Y-84665033D02*
X11278571Y-84788842D01*
X11278571Y-84788842D02*
X11216666Y-84850747D01*
X11216666Y-84850747D02*
X11092857Y-84912652D01*
X11092857Y-84912652D02*
X10659523Y-84912652D01*
D10*
D11*
X140012000Y-60000000D02*
X138012000Y-60000000D01*
D10*
D11*
X138702476Y-35222176D02*
X139321523Y-35222176D01*
X138578666Y-35593604D02*
X139011999Y-34293604D01*
X139011999Y-34293604D02*
X139445333Y-35593604D01*
D10*
D11*
X139104857Y-84912652D02*
X139290571Y-84974557D01*
X139290571Y-84974557D02*
X139352476Y-85036461D01*
X139352476Y-85036461D02*
X139414380Y-85160271D01*
X139414380Y-85160271D02*
X139414380Y-85345985D01*
X139414380Y-85345985D02*
X139352476Y-85469795D01*
X139352476Y-85469795D02*
X139290571Y-85531700D01*
X139290571Y-85531700D02*
X139166761Y-85593604D01*
X139166761Y-85593604D02*
X138671523Y-85593604D01*
X138671523Y-85593604D02*
X138671523Y-84293604D01*
X138671523Y-84293604D02*
X139104857Y-84293604D01*
X139104857Y-84293604D02*
X139228666Y-84355509D01*
X139228666Y-84355509D02*
X139290571Y-84417414D01*
X139290571Y-84417414D02*
X139352476Y-84541223D01*
X139352476Y-84541223D02*
X139352476Y-84665033D01*
X139352476Y-84665033D02*
X139290571Y-84788842D01*
X139290571Y-84788842D02*
X139228666Y-84850747D01*
X139228666Y-84850747D02*
X139104857Y-84912652D01*
X139104857Y-84912652D02*
X138671523Y-84912652D01*
D10*
D11*
X53467826Y-103776128D02*
X53467826Y-102276128D01*
X53467826Y-102276128D02*
X53824969Y-102276128D01*
X53824969Y-102276128D02*
X54039255Y-102347557D01*
X54039255Y-102347557D02*
X54182112Y-102490414D01*
X54182112Y-102490414D02*
X54253541Y-102633271D01*
X54253541Y-102633271D02*
X54324969Y-102918985D01*
X54324969Y-102918985D02*
X54324969Y-103133271D01*
X54324969Y-103133271D02*
X54253541Y-103418985D01*
X54253541Y-103418985D02*
X54182112Y-103561842D01*
X54182112Y-103561842D02*
X54039255Y-103704700D01*
X54039255Y-103704700D02*
X53824969Y-103776128D01*
X53824969Y-103776128D02*
X53467826Y-103776128D01*
X55610684Y-103776128D02*
X55610684Y-102990414D01*
X55610684Y-102990414D02*
X55539255Y-102847557D01*
X55539255Y-102847557D02*
X55396398Y-102776128D01*
X55396398Y-102776128D02*
X55110684Y-102776128D01*
X55110684Y-102776128D02*
X54967826Y-102847557D01*
X55610684Y-103704700D02*
X55467826Y-103776128D01*
X55467826Y-103776128D02*
X55110684Y-103776128D01*
X55110684Y-103776128D02*
X54967826Y-103704700D01*
X54967826Y-103704700D02*
X54896398Y-103561842D01*
X54896398Y-103561842D02*
X54896398Y-103418985D01*
X54896398Y-103418985D02*
X54967826Y-103276128D01*
X54967826Y-103276128D02*
X55110684Y-103204700D01*
X55110684Y-103204700D02*
X55467826Y-103204700D01*
X55467826Y-103204700D02*
X55610684Y-103133271D01*
X56110684Y-102776128D02*
X56682112Y-102776128D01*
X56324969Y-102276128D02*
X56324969Y-103561842D01*
X56324969Y-103561842D02*
X56396398Y-103704700D01*
X56396398Y-103704700D02*
X56539255Y-103776128D01*
X56539255Y-103776128D02*
X56682112Y-103776128D01*
X57753541Y-103704700D02*
X57610684Y-103776128D01*
X57610684Y-103776128D02*
X57324970Y-103776128D01*
X57324970Y-103776128D02*
X57182112Y-103704700D01*
X57182112Y-103704700D02*
X57110684Y-103561842D01*
X57110684Y-103561842D02*
X57110684Y-102990414D01*
X57110684Y-102990414D02*
X57182112Y-102847557D01*
X57182112Y-102847557D02*
X57324970Y-102776128D01*
X57324970Y-102776128D02*
X57610684Y-102776128D01*
X57610684Y-102776128D02*
X57753541Y-102847557D01*
X57753541Y-102847557D02*
X57824970Y-102990414D01*
X57824970Y-102990414D02*
X57824970Y-103133271D01*
X57824970Y-103133271D02*
X57110684Y-103276128D01*
X58467826Y-103633271D02*
X58539255Y-103704700D01*
X58539255Y-103704700D02*
X58467826Y-103776128D01*
X58467826Y-103776128D02*
X58396398Y-103704700D01*
X58396398Y-103704700D02*
X58467826Y-103633271D01*
X58467826Y-103633271D02*
X58467826Y-103776128D01*
X58467826Y-102847557D02*
X58539255Y-102918985D01*
X58539255Y-102918985D02*
X58467826Y-102990414D01*
X58467826Y-102990414D02*
X58396398Y-102918985D01*
X58396398Y-102918985D02*
X58467826Y-102847557D01*
X58467826Y-102847557D02*
X58467826Y-102990414D01*
X60253541Y-102418985D02*
X60324969Y-102347557D01*
X60324969Y-102347557D02*
X60467827Y-102276128D01*
X60467827Y-102276128D02*
X60824969Y-102276128D01*
X60824969Y-102276128D02*
X60967827Y-102347557D01*
X60967827Y-102347557D02*
X61039255Y-102418985D01*
X61039255Y-102418985D02*
X61110684Y-102561842D01*
X61110684Y-102561842D02*
X61110684Y-102704700D01*
X61110684Y-102704700D02*
X61039255Y-102918985D01*
X61039255Y-102918985D02*
X60182112Y-103776128D01*
X60182112Y-103776128D02*
X61110684Y-103776128D01*
X62039255Y-102276128D02*
X62182112Y-102276128D01*
X62182112Y-102276128D02*
X62324969Y-102347557D01*
X62324969Y-102347557D02*
X62396398Y-102418985D01*
X62396398Y-102418985D02*
X62467826Y-102561842D01*
X62467826Y-102561842D02*
X62539255Y-102847557D01*
X62539255Y-102847557D02*
X62539255Y-103204700D01*
X62539255Y-103204700D02*
X62467826Y-103490414D01*
X62467826Y-103490414D02*
X62396398Y-103633271D01*
X62396398Y-103633271D02*
X62324969Y-103704700D01*
X62324969Y-103704700D02*
X62182112Y-103776128D01*
X62182112Y-103776128D02*
X62039255Y-103776128D01*
X62039255Y-103776128D02*
X61896398Y-103704700D01*
X61896398Y-103704700D02*
X61824969Y-103633271D01*
X61824969Y-103633271D02*
X61753540Y-103490414D01*
X61753540Y-103490414D02*
X61682112Y-103204700D01*
X61682112Y-103204700D02*
X61682112Y-102847557D01*
X61682112Y-102847557D02*
X61753540Y-102561842D01*
X61753540Y-102561842D02*
X61824969Y-102418985D01*
X61824969Y-102418985D02*
X61896398Y-102347557D01*
X61896398Y-102347557D02*
X62039255Y-102276128D01*
X63110683Y-102418985D02*
X63182111Y-102347557D01*
X63182111Y-102347557D02*
X63324969Y-102276128D01*
X63324969Y-102276128D02*
X63682111Y-102276128D01*
X63682111Y-102276128D02*
X63824969Y-102347557D01*
X63824969Y-102347557D02*
X63896397Y-102418985D01*
X63896397Y-102418985D02*
X63967826Y-102561842D01*
X63967826Y-102561842D02*
X63967826Y-102704700D01*
X63967826Y-102704700D02*
X63896397Y-102918985D01*
X63896397Y-102918985D02*
X63039254Y-103776128D01*
X63039254Y-103776128D02*
X63967826Y-103776128D01*
X65253540Y-102776128D02*
X65253540Y-103776128D01*
X64896397Y-102204700D02*
X64539254Y-103276128D01*
X64539254Y-103276128D02*
X65467825Y-103276128D01*
X66039253Y-103204700D02*
X67182111Y-103204700D01*
X68182111Y-102276128D02*
X68324968Y-102276128D01*
X68324968Y-102276128D02*
X68467825Y-102347557D01*
X68467825Y-102347557D02*
X68539254Y-102418985D01*
X68539254Y-102418985D02*
X68610682Y-102561842D01*
X68610682Y-102561842D02*
X68682111Y-102847557D01*
X68682111Y-102847557D02*
X68682111Y-103204700D01*
X68682111Y-103204700D02*
X68610682Y-103490414D01*
X68610682Y-103490414D02*
X68539254Y-103633271D01*
X68539254Y-103633271D02*
X68467825Y-103704700D01*
X68467825Y-103704700D02*
X68324968Y-103776128D01*
X68324968Y-103776128D02*
X68182111Y-103776128D01*
X68182111Y-103776128D02*
X68039254Y-103704700D01*
X68039254Y-103704700D02*
X67967825Y-103633271D01*
X67967825Y-103633271D02*
X67896396Y-103490414D01*
X67896396Y-103490414D02*
X67824968Y-103204700D01*
X67824968Y-103204700D02*
X67824968Y-102847557D01*
X67824968Y-102847557D02*
X67896396Y-102561842D01*
X67896396Y-102561842D02*
X67967825Y-102418985D01*
X67967825Y-102418985D02*
X68039254Y-102347557D01*
X68039254Y-102347557D02*
X68182111Y-102276128D01*
X70039253Y-102276128D02*
X69324967Y-102276128D01*
X69324967Y-102276128D02*
X69253539Y-102990414D01*
X69253539Y-102990414D02*
X69324967Y-102918985D01*
X69324967Y-102918985D02*
X69467825Y-102847557D01*
X69467825Y-102847557D02*
X69824967Y-102847557D01*
X69824967Y-102847557D02*
X69967825Y-102918985D01*
X69967825Y-102918985D02*
X70039253Y-102990414D01*
X70039253Y-102990414D02*
X70110682Y-103133271D01*
X70110682Y-103133271D02*
X70110682Y-103490414D01*
X70110682Y-103490414D02*
X70039253Y-103633271D01*
X70039253Y-103633271D02*
X69967825Y-103704700D01*
X69967825Y-103704700D02*
X69824967Y-103776128D01*
X69824967Y-103776128D02*
X69467825Y-103776128D01*
X69467825Y-103776128D02*
X69324967Y-103704700D01*
X69324967Y-103704700D02*
X69253539Y-103633271D01*
X70753538Y-103204700D02*
X71896396Y-103204700D01*
X72896396Y-102276128D02*
X73039253Y-102276128D01*
X73039253Y-102276128D02*
X73182110Y-102347557D01*
X73182110Y-102347557D02*
X73253539Y-102418985D01*
X73253539Y-102418985D02*
X73324967Y-102561842D01*
X73324967Y-102561842D02*
X73396396Y-102847557D01*
X73396396Y-102847557D02*
X73396396Y-103204700D01*
X73396396Y-103204700D02*
X73324967Y-103490414D01*
X73324967Y-103490414D02*
X73253539Y-103633271D01*
X73253539Y-103633271D02*
X73182110Y-103704700D01*
X73182110Y-103704700D02*
X73039253Y-103776128D01*
X73039253Y-103776128D02*
X72896396Y-103776128D01*
X72896396Y-103776128D02*
X72753539Y-103704700D01*
X72753539Y-103704700D02*
X72682110Y-103633271D01*
X72682110Y-103633271D02*
X72610681Y-103490414D01*
X72610681Y-103490414D02*
X72539253Y-103204700D01*
X72539253Y-103204700D02*
X72539253Y-102847557D01*
X72539253Y-102847557D02*
X72610681Y-102561842D01*
X72610681Y-102561842D02*
X72682110Y-102418985D01*
X72682110Y-102418985D02*
X72753539Y-102347557D01*
X72753539Y-102347557D02*
X72896396Y-102276128D01*
X74682110Y-102276128D02*
X74396395Y-102276128D01*
X74396395Y-102276128D02*
X74253538Y-102347557D01*
X74253538Y-102347557D02*
X74182110Y-102418985D01*
X74182110Y-102418985D02*
X74039252Y-102633271D01*
X74039252Y-102633271D02*
X73967824Y-102918985D01*
X73967824Y-102918985D02*
X73967824Y-103490414D01*
X73967824Y-103490414D02*
X74039252Y-103633271D01*
X74039252Y-103633271D02*
X74110681Y-103704700D01*
X74110681Y-103704700D02*
X74253538Y-103776128D01*
X74253538Y-103776128D02*
X74539252Y-103776128D01*
X74539252Y-103776128D02*
X74682110Y-103704700D01*
X74682110Y-103704700D02*
X74753538Y-103633271D01*
X74753538Y-103633271D02*
X74824967Y-103490414D01*
X74824967Y-103490414D02*
X74824967Y-103133271D01*
X74824967Y-103133271D02*
X74753538Y-102990414D01*
X74753538Y-102990414D02*
X74682110Y-102918985D01*
X74682110Y-102918985D02*
X74539252Y-102847557D01*
X74539252Y-102847557D02*
X74253538Y-102847557D01*
X74253538Y-102847557D02*
X74110681Y-102918985D01*
X74110681Y-102918985D02*
X74039252Y-102990414D01*
X74039252Y-102990414D02*
X73967824Y-103133271D01*
D10*
D11*
X30012000Y-104490000D02*
X138012000Y-104490000D01*
D10*
D11*
X31467826Y-106576128D02*
X31467826Y-105076128D01*
X32324969Y-106576128D02*
X31682112Y-105718985D01*
X32324969Y-105076128D02*
X31467826Y-105933271D01*
X32967826Y-106576128D02*
X32967826Y-105576128D01*
X32967826Y-105076128D02*
X32896398Y-105147557D01*
X32896398Y-105147557D02*
X32967826Y-105218985D01*
X32967826Y-105218985D02*
X33039255Y-105147557D01*
X33039255Y-105147557D02*
X32967826Y-105076128D01*
X32967826Y-105076128D02*
X32967826Y-105218985D01*
X34539255Y-106433271D02*
X34467827Y-106504700D01*
X34467827Y-106504700D02*
X34253541Y-106576128D01*
X34253541Y-106576128D02*
X34110684Y-106576128D01*
X34110684Y-106576128D02*
X33896398Y-106504700D01*
X33896398Y-106504700D02*
X33753541Y-106361842D01*
X33753541Y-106361842D02*
X33682112Y-106218985D01*
X33682112Y-106218985D02*
X33610684Y-105933271D01*
X33610684Y-105933271D02*
X33610684Y-105718985D01*
X33610684Y-105718985D02*
X33682112Y-105433271D01*
X33682112Y-105433271D02*
X33753541Y-105290414D01*
X33753541Y-105290414D02*
X33896398Y-105147557D01*
X33896398Y-105147557D02*
X34110684Y-105076128D01*
X34110684Y-105076128D02*
X34253541Y-105076128D01*
X34253541Y-105076128D02*
X34467827Y-105147557D01*
X34467827Y-105147557D02*
X34539255Y-105218985D01*
X35824970Y-106576128D02*
X35824970Y-105790414D01*
X35824970Y-105790414D02*
X35753541Y-105647557D01*
X35753541Y-105647557D02*
X35610684Y-105576128D01*
X35610684Y-105576128D02*
X35324970Y-105576128D01*
X35324970Y-105576128D02*
X35182112Y-105647557D01*
X35824970Y-106504700D02*
X35682112Y-106576128D01*
X35682112Y-106576128D02*
X35324970Y-106576128D01*
X35324970Y-106576128D02*
X35182112Y-106504700D01*
X35182112Y-106504700D02*
X35110684Y-106361842D01*
X35110684Y-106361842D02*
X35110684Y-106218985D01*
X35110684Y-106218985D02*
X35182112Y-106076128D01*
X35182112Y-106076128D02*
X35324970Y-106004700D01*
X35324970Y-106004700D02*
X35682112Y-106004700D01*
X35682112Y-106004700D02*
X35824970Y-105933271D01*
X37182113Y-106576128D02*
X37182113Y-105076128D01*
X37182113Y-106504700D02*
X37039255Y-106576128D01*
X37039255Y-106576128D02*
X36753541Y-106576128D01*
X36753541Y-106576128D02*
X36610684Y-106504700D01*
X36610684Y-106504700D02*
X36539255Y-106433271D01*
X36539255Y-106433271D02*
X36467827Y-106290414D01*
X36467827Y-106290414D02*
X36467827Y-105861842D01*
X36467827Y-105861842D02*
X36539255Y-105718985D01*
X36539255Y-105718985D02*
X36610684Y-105647557D01*
X36610684Y-105647557D02*
X36753541Y-105576128D01*
X36753541Y-105576128D02*
X37039255Y-105576128D01*
X37039255Y-105576128D02*
X37182113Y-105647557D01*
X39039255Y-105790414D02*
X39539255Y-105790414D01*
X39753541Y-106576128D02*
X39039255Y-106576128D01*
X39039255Y-106576128D02*
X39039255Y-105076128D01*
X39039255Y-105076128D02*
X39753541Y-105076128D01*
X40396398Y-106433271D02*
X40467827Y-106504700D01*
X40467827Y-106504700D02*
X40396398Y-106576128D01*
X40396398Y-106576128D02*
X40324970Y-106504700D01*
X40324970Y-106504700D02*
X40396398Y-106433271D01*
X40396398Y-106433271D02*
X40396398Y-106576128D01*
X41110684Y-106576128D02*
X41110684Y-105076128D01*
X41110684Y-105076128D02*
X41467827Y-105076128D01*
X41467827Y-105076128D02*
X41682113Y-105147557D01*
X41682113Y-105147557D02*
X41824970Y-105290414D01*
X41824970Y-105290414D02*
X41896399Y-105433271D01*
X41896399Y-105433271D02*
X41967827Y-105718985D01*
X41967827Y-105718985D02*
X41967827Y-105933271D01*
X41967827Y-105933271D02*
X41896399Y-106218985D01*
X41896399Y-106218985D02*
X41824970Y-106361842D01*
X41824970Y-106361842D02*
X41682113Y-106504700D01*
X41682113Y-106504700D02*
X41467827Y-106576128D01*
X41467827Y-106576128D02*
X41110684Y-106576128D01*
X42610684Y-106433271D02*
X42682113Y-106504700D01*
X42682113Y-106504700D02*
X42610684Y-106576128D01*
X42610684Y-106576128D02*
X42539256Y-106504700D01*
X42539256Y-106504700D02*
X42610684Y-106433271D01*
X42610684Y-106433271D02*
X42610684Y-106576128D01*
X43253542Y-106147557D02*
X43967828Y-106147557D01*
X43110685Y-106576128D02*
X43610685Y-105076128D01*
X43610685Y-105076128D02*
X44110685Y-106576128D01*
X44610684Y-106433271D02*
X44682113Y-106504700D01*
X44682113Y-106504700D02*
X44610684Y-106576128D01*
X44610684Y-106576128D02*
X44539256Y-106504700D01*
X44539256Y-106504700D02*
X44610684Y-106433271D01*
X44610684Y-106433271D02*
X44610684Y-106576128D01*
X46682113Y-105718985D02*
X46539256Y-105647557D01*
X46539256Y-105647557D02*
X46467827Y-105576128D01*
X46467827Y-105576128D02*
X46396399Y-105433271D01*
X46396399Y-105433271D02*
X46396399Y-105361842D01*
X46396399Y-105361842D02*
X46467827Y-105218985D01*
X46467827Y-105218985D02*
X46539256Y-105147557D01*
X46539256Y-105147557D02*
X46682113Y-105076128D01*
X46682113Y-105076128D02*
X46967827Y-105076128D01*
X46967827Y-105076128D02*
X47110685Y-105147557D01*
X47110685Y-105147557D02*
X47182113Y-105218985D01*
X47182113Y-105218985D02*
X47253542Y-105361842D01*
X47253542Y-105361842D02*
X47253542Y-105433271D01*
X47253542Y-105433271D02*
X47182113Y-105576128D01*
X47182113Y-105576128D02*
X47110685Y-105647557D01*
X47110685Y-105647557D02*
X46967827Y-105718985D01*
X46967827Y-105718985D02*
X46682113Y-105718985D01*
X46682113Y-105718985D02*
X46539256Y-105790414D01*
X46539256Y-105790414D02*
X46467827Y-105861842D01*
X46467827Y-105861842D02*
X46396399Y-106004700D01*
X46396399Y-106004700D02*
X46396399Y-106290414D01*
X46396399Y-106290414D02*
X46467827Y-106433271D01*
X46467827Y-106433271D02*
X46539256Y-106504700D01*
X46539256Y-106504700D02*
X46682113Y-106576128D01*
X46682113Y-106576128D02*
X46967827Y-106576128D01*
X46967827Y-106576128D02*
X47110685Y-106504700D01*
X47110685Y-106504700D02*
X47182113Y-106433271D01*
X47182113Y-106433271D02*
X47253542Y-106290414D01*
X47253542Y-106290414D02*
X47253542Y-106004700D01*
X47253542Y-106004700D02*
X47182113Y-105861842D01*
X47182113Y-105861842D02*
X47110685Y-105790414D01*
X47110685Y-105790414D02*
X46967827Y-105718985D01*
X47896398Y-106433271D02*
X47967827Y-106504700D01*
X47967827Y-106504700D02*
X47896398Y-106576128D01*
X47896398Y-106576128D02*
X47824970Y-106504700D01*
X47824970Y-106504700D02*
X47896398Y-106433271D01*
X47896398Y-106433271D02*
X47896398Y-106576128D01*
X48896399Y-105076128D02*
X49039256Y-105076128D01*
X49039256Y-105076128D02*
X49182113Y-105147557D01*
X49182113Y-105147557D02*
X49253542Y-105218985D01*
X49253542Y-105218985D02*
X49324970Y-105361842D01*
X49324970Y-105361842D02*
X49396399Y-105647557D01*
X49396399Y-105647557D02*
X49396399Y-106004700D01*
X49396399Y-106004700D02*
X49324970Y-106290414D01*
X49324970Y-106290414D02*
X49253542Y-106433271D01*
X49253542Y-106433271D02*
X49182113Y-106504700D01*
X49182113Y-106504700D02*
X49039256Y-106576128D01*
X49039256Y-106576128D02*
X48896399Y-106576128D01*
X48896399Y-106576128D02*
X48753542Y-106504700D01*
X48753542Y-106504700D02*
X48682113Y-106433271D01*
X48682113Y-106433271D02*
X48610684Y-106290414D01*
X48610684Y-106290414D02*
X48539256Y-106004700D01*
X48539256Y-106004700D02*
X48539256Y-105647557D01*
X48539256Y-105647557D02*
X48610684Y-105361842D01*
X48610684Y-105361842D02*
X48682113Y-105218985D01*
X48682113Y-105218985D02*
X48753542Y-105147557D01*
X48753542Y-105147557D02*
X48896399Y-105076128D01*
X50039255Y-106433271D02*
X50110684Y-106504700D01*
X50110684Y-106504700D02*
X50039255Y-106576128D01*
X50039255Y-106576128D02*
X49967827Y-106504700D01*
X49967827Y-106504700D02*
X50039255Y-106433271D01*
X50039255Y-106433271D02*
X50039255Y-106576128D01*
X50967827Y-105718985D02*
X50824970Y-105647557D01*
X50824970Y-105647557D02*
X50753541Y-105576128D01*
X50753541Y-105576128D02*
X50682113Y-105433271D01*
X50682113Y-105433271D02*
X50682113Y-105361842D01*
X50682113Y-105361842D02*
X50753541Y-105218985D01*
X50753541Y-105218985D02*
X50824970Y-105147557D01*
X50824970Y-105147557D02*
X50967827Y-105076128D01*
X50967827Y-105076128D02*
X51253541Y-105076128D01*
X51253541Y-105076128D02*
X51396399Y-105147557D01*
X51396399Y-105147557D02*
X51467827Y-105218985D01*
X51467827Y-105218985D02*
X51539256Y-105361842D01*
X51539256Y-105361842D02*
X51539256Y-105433271D01*
X51539256Y-105433271D02*
X51467827Y-105576128D01*
X51467827Y-105576128D02*
X51396399Y-105647557D01*
X51396399Y-105647557D02*
X51253541Y-105718985D01*
X51253541Y-105718985D02*
X50967827Y-105718985D01*
X50967827Y-105718985D02*
X50824970Y-105790414D01*
X50824970Y-105790414D02*
X50753541Y-105861842D01*
X50753541Y-105861842D02*
X50682113Y-106004700D01*
X50682113Y-106004700D02*
X50682113Y-106290414D01*
X50682113Y-106290414D02*
X50753541Y-106433271D01*
X50753541Y-106433271D02*
X50824970Y-106504700D01*
X50824970Y-106504700D02*
X50967827Y-106576128D01*
X50967827Y-106576128D02*
X51253541Y-106576128D01*
X51253541Y-106576128D02*
X51396399Y-106504700D01*
X51396399Y-106504700D02*
X51467827Y-106433271D01*
X51467827Y-106433271D02*
X51539256Y-106290414D01*
X51539256Y-106290414D02*
X51539256Y-106004700D01*
X51539256Y-106004700D02*
X51467827Y-105861842D01*
X51467827Y-105861842D02*
X51396399Y-105790414D01*
X51396399Y-105790414D02*
X51253541Y-105718985D01*
D10*
D11*
X30012000Y-101490000D02*
X138012000Y-101490000D01*
D10*
D12*
X117423653Y-103768328D02*
X116923653Y-103054042D01*
X116566510Y-103768328D02*
X116566510Y-102268328D01*
X116566510Y-102268328D02*
X117137939Y-102268328D01*
X117137939Y-102268328D02*
X117280796Y-102339757D01*
X117280796Y-102339757D02*
X117352225Y-102411185D01*
X117352225Y-102411185D02*
X117423653Y-102554042D01*
X117423653Y-102554042D02*
X117423653Y-102768328D01*
X117423653Y-102768328D02*
X117352225Y-102911185D01*
X117352225Y-102911185D02*
X117280796Y-102982614D01*
X117280796Y-102982614D02*
X117137939Y-103054042D01*
X117137939Y-103054042D02*
X116566510Y-103054042D01*
X118637939Y-103696900D02*
X118495082Y-103768328D01*
X118495082Y-103768328D02*
X118209368Y-103768328D01*
X118209368Y-103768328D02*
X118066510Y-103696900D01*
X118066510Y-103696900D02*
X117995082Y-103554042D01*
X117995082Y-103554042D02*
X117995082Y-102982614D01*
X117995082Y-102982614D02*
X118066510Y-102839757D01*
X118066510Y-102839757D02*
X118209368Y-102768328D01*
X118209368Y-102768328D02*
X118495082Y-102768328D01*
X118495082Y-102768328D02*
X118637939Y-102839757D01*
X118637939Y-102839757D02*
X118709368Y-102982614D01*
X118709368Y-102982614D02*
X118709368Y-103125471D01*
X118709368Y-103125471D02*
X117995082Y-103268328D01*
X119209367Y-102768328D02*
X119566510Y-103768328D01*
X119566510Y-103768328D02*
X119923653Y-102768328D01*
X120495081Y-103625471D02*
X120566510Y-103696900D01*
X120566510Y-103696900D02*
X120495081Y-103768328D01*
X120495081Y-103768328D02*
X120423653Y-103696900D01*
X120423653Y-103696900D02*
X120495081Y-103625471D01*
X120495081Y-103625471D02*
X120495081Y-103768328D01*
X120495081Y-102839757D02*
X120566510Y-102911185D01*
X120566510Y-102911185D02*
X120495081Y-102982614D01*
X120495081Y-102982614D02*
X120423653Y-102911185D01*
X120423653Y-102911185D02*
X120495081Y-102839757D01*
X120495081Y-102839757D02*
X120495081Y-102982614D01*
X123137939Y-103768328D02*
X122280796Y-103768328D01*
X122709367Y-103768328D02*
X122709367Y-102268328D01*
X122709367Y-102268328D02*
X122566510Y-102482614D01*
X122566510Y-102482614D02*
X122423653Y-102625471D01*
X122423653Y-102625471D02*
X122280796Y-102696900D01*
X123780795Y-103625471D02*
X123852224Y-103696900D01*
X123852224Y-103696900D02*
X123780795Y-103768328D01*
X123780795Y-103768328D02*
X123709367Y-103696900D01*
X123709367Y-103696900D02*
X123780795Y-103625471D01*
X123780795Y-103625471D02*
X123780795Y-103768328D01*
X124780796Y-102268328D02*
X124923653Y-102268328D01*
X124923653Y-102268328D02*
X125066510Y-102339757D01*
X125066510Y-102339757D02*
X125137939Y-102411185D01*
X125137939Y-102411185D02*
X125209367Y-102554042D01*
X125209367Y-102554042D02*
X125280796Y-102839757D01*
X125280796Y-102839757D02*
X125280796Y-103196900D01*
X125280796Y-103196900D02*
X125209367Y-103482614D01*
X125209367Y-103482614D02*
X125137939Y-103625471D01*
X125137939Y-103625471D02*
X125066510Y-103696900D01*
X125066510Y-103696900D02*
X124923653Y-103768328D01*
X124923653Y-103768328D02*
X124780796Y-103768328D01*
X124780796Y-103768328D02*
X124637939Y-103696900D01*
X124637939Y-103696900D02*
X124566510Y-103625471D01*
X124566510Y-103625471D02*
X124495081Y-103482614D01*
X124495081Y-103482614D02*
X124423653Y-103196900D01*
X124423653Y-103196900D02*
X124423653Y-102839757D01*
X124423653Y-102839757D02*
X124495081Y-102554042D01*
X124495081Y-102554042D02*
X124566510Y-102411185D01*
X124566510Y-102411185D02*
X124637939Y-102339757D01*
X124637939Y-102339757D02*
X124780796Y-102268328D01*
D10*
D11*
X31396398Y-103704700D02*
X31610684Y-103776128D01*
X31610684Y-103776128D02*
X31967826Y-103776128D01*
X31967826Y-103776128D02*
X32110684Y-103704700D01*
X32110684Y-103704700D02*
X32182112Y-103633271D01*
X32182112Y-103633271D02*
X32253541Y-103490414D01*
X32253541Y-103490414D02*
X32253541Y-103347557D01*
X32253541Y-103347557D02*
X32182112Y-103204700D01*
X32182112Y-103204700D02*
X32110684Y-103133271D01*
X32110684Y-103133271D02*
X31967826Y-103061842D01*
X31967826Y-103061842D02*
X31682112Y-102990414D01*
X31682112Y-102990414D02*
X31539255Y-102918985D01*
X31539255Y-102918985D02*
X31467826Y-102847557D01*
X31467826Y-102847557D02*
X31396398Y-102704700D01*
X31396398Y-102704700D02*
X31396398Y-102561842D01*
X31396398Y-102561842D02*
X31467826Y-102418985D01*
X31467826Y-102418985D02*
X31539255Y-102347557D01*
X31539255Y-102347557D02*
X31682112Y-102276128D01*
X31682112Y-102276128D02*
X32039255Y-102276128D01*
X32039255Y-102276128D02*
X32253541Y-102347557D01*
X32896397Y-103776128D02*
X32896397Y-102776128D01*
X32896397Y-102276128D02*
X32824969Y-102347557D01*
X32824969Y-102347557D02*
X32896397Y-102418985D01*
X32896397Y-102418985D02*
X32967826Y-102347557D01*
X32967826Y-102347557D02*
X32896397Y-102276128D01*
X32896397Y-102276128D02*
X32896397Y-102418985D01*
X33467826Y-102776128D02*
X34253541Y-102776128D01*
X34253541Y-102776128D02*
X33467826Y-103776128D01*
X33467826Y-103776128D02*
X34253541Y-103776128D01*
X35396398Y-103704700D02*
X35253541Y-103776128D01*
X35253541Y-103776128D02*
X34967827Y-103776128D01*
X34967827Y-103776128D02*
X34824969Y-103704700D01*
X34824969Y-103704700D02*
X34753541Y-103561842D01*
X34753541Y-103561842D02*
X34753541Y-102990414D01*
X34753541Y-102990414D02*
X34824969Y-102847557D01*
X34824969Y-102847557D02*
X34967827Y-102776128D01*
X34967827Y-102776128D02*
X35253541Y-102776128D01*
X35253541Y-102776128D02*
X35396398Y-102847557D01*
X35396398Y-102847557D02*
X35467827Y-102990414D01*
X35467827Y-102990414D02*
X35467827Y-103133271D01*
X35467827Y-103133271D02*
X34753541Y-103276128D01*
X36110683Y-103633271D02*
X36182112Y-103704700D01*
X36182112Y-103704700D02*
X36110683Y-103776128D01*
X36110683Y-103776128D02*
X36039255Y-103704700D01*
X36039255Y-103704700D02*
X36110683Y-103633271D01*
X36110683Y-103633271D02*
X36110683Y-103776128D01*
X36110683Y-102847557D02*
X36182112Y-102918985D01*
X36182112Y-102918985D02*
X36110683Y-102990414D01*
X36110683Y-102990414D02*
X36039255Y-102918985D01*
X36039255Y-102918985D02*
X36110683Y-102847557D01*
X36110683Y-102847557D02*
X36110683Y-102990414D01*
X37967826Y-102276128D02*
X37967826Y-103490414D01*
X37967826Y-103490414D02*
X38039255Y-103633271D01*
X38039255Y-103633271D02*
X38110684Y-103704700D01*
X38110684Y-103704700D02*
X38253541Y-103776128D01*
X38253541Y-103776128D02*
X38539255Y-103776128D01*
X38539255Y-103776128D02*
X38682112Y-103704700D01*
X38682112Y-103704700D02*
X38753541Y-103633271D01*
X38753541Y-103633271D02*
X38824969Y-103490414D01*
X38824969Y-103490414D02*
X38824969Y-102276128D01*
X39467827Y-103704700D02*
X39610684Y-103776128D01*
X39610684Y-103776128D02*
X39896398Y-103776128D01*
X39896398Y-103776128D02*
X40039255Y-103704700D01*
X40039255Y-103704700D02*
X40110684Y-103561842D01*
X40110684Y-103561842D02*
X40110684Y-103490414D01*
X40110684Y-103490414D02*
X40039255Y-103347557D01*
X40039255Y-103347557D02*
X39896398Y-103276128D01*
X39896398Y-103276128D02*
X39682113Y-103276128D01*
X39682113Y-103276128D02*
X39539255Y-103204700D01*
X39539255Y-103204700D02*
X39467827Y-103061842D01*
X39467827Y-103061842D02*
X39467827Y-102990414D01*
X39467827Y-102990414D02*
X39539255Y-102847557D01*
X39539255Y-102847557D02*
X39682113Y-102776128D01*
X39682113Y-102776128D02*
X39896398Y-102776128D01*
X39896398Y-102776128D02*
X40039255Y-102847557D01*
X41324970Y-103704700D02*
X41182113Y-103776128D01*
X41182113Y-103776128D02*
X40896399Y-103776128D01*
X40896399Y-103776128D02*
X40753541Y-103704700D01*
X40753541Y-103704700D02*
X40682113Y-103561842D01*
X40682113Y-103561842D02*
X40682113Y-102990414D01*
X40682113Y-102990414D02*
X40753541Y-102847557D01*
X40753541Y-102847557D02*
X40896399Y-102776128D01*
X40896399Y-102776128D02*
X41182113Y-102776128D01*
X41182113Y-102776128D02*
X41324970Y-102847557D01*
X41324970Y-102847557D02*
X41396399Y-102990414D01*
X41396399Y-102990414D02*
X41396399Y-103133271D01*
X41396399Y-103133271D02*
X40682113Y-103276128D01*
X42039255Y-103776128D02*
X42039255Y-102776128D01*
X42039255Y-103061842D02*
X42110684Y-102918985D01*
X42110684Y-102918985D02*
X42182113Y-102847557D01*
X42182113Y-102847557D02*
X42324970Y-102776128D01*
X42324970Y-102776128D02*
X42467827Y-102776128D01*
D10*
D11*
X116467826Y-106576128D02*
X116467826Y-105076128D01*
X117824970Y-106576128D02*
X117824970Y-105076128D01*
X117824970Y-106504700D02*
X117682112Y-106576128D01*
X117682112Y-106576128D02*
X117396398Y-106576128D01*
X117396398Y-106576128D02*
X117253541Y-106504700D01*
X117253541Y-106504700D02*
X117182112Y-106433271D01*
X117182112Y-106433271D02*
X117110684Y-106290414D01*
X117110684Y-106290414D02*
X117110684Y-105861842D01*
X117110684Y-105861842D02*
X117182112Y-105718985D01*
X117182112Y-105718985D02*
X117253541Y-105647557D01*
X117253541Y-105647557D02*
X117396398Y-105576128D01*
X117396398Y-105576128D02*
X117682112Y-105576128D01*
X117682112Y-105576128D02*
X117824970Y-105647557D01*
X118539255Y-106433271D02*
X118610684Y-106504700D01*
X118610684Y-106504700D02*
X118539255Y-106576128D01*
X118539255Y-106576128D02*
X118467827Y-106504700D01*
X118467827Y-106504700D02*
X118539255Y-106433271D01*
X118539255Y-106433271D02*
X118539255Y-106576128D01*
X118539255Y-105647557D02*
X118610684Y-105718985D01*
X118610684Y-105718985D02*
X118539255Y-105790414D01*
X118539255Y-105790414D02*
X118467827Y-105718985D01*
X118467827Y-105718985D02*
X118539255Y-105647557D01*
X118539255Y-105647557D02*
X118539255Y-105790414D01*
X121182113Y-106576128D02*
X120324970Y-106576128D01*
X120753541Y-106576128D02*
X120753541Y-105076128D01*
X120753541Y-105076128D02*
X120610684Y-105290414D01*
X120610684Y-105290414D02*
X120467827Y-105433271D01*
X120467827Y-105433271D02*
X120324970Y-105504700D01*
X122896398Y-105004700D02*
X121610684Y-106933271D01*
X124182113Y-106576128D02*
X123324970Y-106576128D01*
X123753541Y-106576128D02*
X123753541Y-105076128D01*
X123753541Y-105076128D02*
X123610684Y-105290414D01*
X123610684Y-105290414D02*
X123467827Y-105433271D01*
X123467827Y-105433271D02*
X123324970Y-105504700D01*
D10*
D11*
X30012000Y-97490000D02*
X138012000Y-97490000D01*
D10*
D13*
X31703728Y-98194438D02*
X32846585Y-98194438D01*
X32025157Y-100194438D02*
X32275157Y-98194438D01*
X33263252Y-100194438D02*
X33429919Y-98861104D01*
X33513252Y-98194438D02*
X33406109Y-98289676D01*
X33406109Y-98289676D02*
X33489443Y-98384914D01*
X33489443Y-98384914D02*
X33596586Y-98289676D01*
X33596586Y-98289676D02*
X33513252Y-98194438D01*
X33513252Y-98194438D02*
X33489443Y-98384914D01*
X34096586Y-98861104D02*
X34858490Y-98861104D01*
X34465633Y-98194438D02*
X34251348Y-99908723D01*
X34251348Y-99908723D02*
X34322776Y-100099200D01*
X34322776Y-100099200D02*
X34501348Y-100194438D01*
X34501348Y-100194438D02*
X34691824Y-100194438D01*
X35644205Y-100194438D02*
X35465633Y-100099200D01*
X35465633Y-100099200D02*
X35394205Y-99908723D01*
X35394205Y-99908723D02*
X35608490Y-98194438D01*
X37179919Y-100099200D02*
X36977538Y-100194438D01*
X36977538Y-100194438D02*
X36596585Y-100194438D01*
X36596585Y-100194438D02*
X36418014Y-100099200D01*
X36418014Y-100099200D02*
X36346585Y-99908723D01*
X36346585Y-99908723D02*
X36441824Y-99146819D01*
X36441824Y-99146819D02*
X36560871Y-98956342D01*
X36560871Y-98956342D02*
X36763252Y-98861104D01*
X36763252Y-98861104D02*
X37144204Y-98861104D01*
X37144204Y-98861104D02*
X37322776Y-98956342D01*
X37322776Y-98956342D02*
X37394204Y-99146819D01*
X37394204Y-99146819D02*
X37370395Y-99337295D01*
X37370395Y-99337295D02*
X36394204Y-99527771D01*
X38144205Y-100003961D02*
X38227538Y-100099200D01*
X38227538Y-100099200D02*
X38120395Y-100194438D01*
X38120395Y-100194438D02*
X38037062Y-100099200D01*
X38037062Y-100099200D02*
X38144205Y-100003961D01*
X38144205Y-100003961D02*
X38120395Y-100194438D01*
X38275157Y-98956342D02*
X38358490Y-99051580D01*
X38358490Y-99051580D02*
X38251348Y-99146819D01*
X38251348Y-99146819D02*
X38168014Y-99051580D01*
X38168014Y-99051580D02*
X38275157Y-98956342D01*
X38275157Y-98956342D02*
X38251348Y-99146819D01*
X40596586Y-100194438D02*
X40846586Y-98194438D01*
X40846586Y-98194438D02*
X41739443Y-100194438D01*
X41739443Y-100194438D02*
X41989443Y-98194438D01*
X42822777Y-99146819D02*
X43489443Y-99146819D01*
X43644205Y-100194438D02*
X42691824Y-100194438D01*
X42691824Y-100194438D02*
X42941824Y-98194438D01*
X42941824Y-98194438D02*
X43894205Y-98194438D01*
X45644205Y-100194438D02*
X45096586Y-99242057D01*
X44501348Y-100194438D02*
X44751348Y-98194438D01*
X44751348Y-98194438D02*
X45513253Y-98194438D01*
X45513253Y-98194438D02*
X45691824Y-98289676D01*
X45691824Y-98289676D02*
X45775158Y-98384914D01*
X45775158Y-98384914D02*
X45846586Y-98575390D01*
X45846586Y-98575390D02*
X45810872Y-98861104D01*
X45810872Y-98861104D02*
X45691824Y-99051580D01*
X45691824Y-99051580D02*
X45584682Y-99146819D01*
X45584682Y-99146819D02*
X45382301Y-99242057D01*
X45382301Y-99242057D02*
X44620396Y-99242057D01*
X46465634Y-98194438D02*
X46882301Y-100194438D01*
X46882301Y-100194438D02*
X47798967Y-98194438D01*
X48846587Y-98194438D02*
X49227539Y-98194438D01*
X49227539Y-98194438D02*
X49406110Y-98289676D01*
X49406110Y-98289676D02*
X49572777Y-98480152D01*
X49572777Y-98480152D02*
X49620396Y-98861104D01*
X49620396Y-98861104D02*
X49537063Y-99527771D01*
X49537063Y-99527771D02*
X49394206Y-99908723D01*
X49394206Y-99908723D02*
X49179920Y-100099200D01*
X49179920Y-100099200D02*
X48977539Y-100194438D01*
X48977539Y-100194438D02*
X48596587Y-100194438D01*
X48596587Y-100194438D02*
X48418015Y-100099200D01*
X48418015Y-100099200D02*
X48251349Y-99908723D01*
X48251349Y-99908723D02*
X48203729Y-99527771D01*
X48203729Y-99527771D02*
X48287063Y-98861104D01*
X48287063Y-98861104D02*
X48429920Y-98480152D01*
X48429920Y-98480152D02*
X48644206Y-98289676D01*
X48644206Y-98289676D02*
X48846587Y-98194438D01*
X50560872Y-98194438D02*
X50358491Y-99813485D01*
X50358491Y-99813485D02*
X50429920Y-100003961D01*
X50429920Y-100003961D02*
X50513253Y-100099200D01*
X50513253Y-100099200D02*
X50691825Y-100194438D01*
X50691825Y-100194438D02*
X51072777Y-100194438D01*
X51072777Y-100194438D02*
X51275158Y-100099200D01*
X51275158Y-100099200D02*
X51382301Y-100003961D01*
X51382301Y-100003961D02*
X51501348Y-99813485D01*
X51501348Y-99813485D02*
X51703729Y-98194438D01*
X52322777Y-100099200D02*
X52596586Y-100194438D01*
X52596586Y-100194438D02*
X53072777Y-100194438D01*
X53072777Y-100194438D02*
X53275158Y-100099200D01*
X53275158Y-100099200D02*
X53382301Y-100003961D01*
X53382301Y-100003961D02*
X53501348Y-99813485D01*
X53501348Y-99813485D02*
X53525158Y-99623009D01*
X53525158Y-99623009D02*
X53453729Y-99432533D01*
X53453729Y-99432533D02*
X53370396Y-99337295D01*
X53370396Y-99337295D02*
X53191825Y-99242057D01*
X53191825Y-99242057D02*
X52822777Y-99146819D01*
X52822777Y-99146819D02*
X52644205Y-99051580D01*
X52644205Y-99051580D02*
X52560872Y-98956342D01*
X52560872Y-98956342D02*
X52489444Y-98765866D01*
X52489444Y-98765866D02*
X52513253Y-98575390D01*
X52513253Y-98575390D02*
X52632301Y-98384914D01*
X52632301Y-98384914D02*
X52739444Y-98289676D01*
X52739444Y-98289676D02*
X52941825Y-98194438D01*
X52941825Y-98194438D02*
X53418015Y-98194438D01*
X53418015Y-98194438D02*
X53691825Y-98289676D01*
X55929920Y-99432533D02*
X57453730Y-99432533D01*
X59965635Y-99146819D02*
X60632301Y-99146819D01*
X60787063Y-100194438D02*
X59834682Y-100194438D01*
X59834682Y-100194438D02*
X60084682Y-98194438D01*
X60084682Y-98194438D02*
X61037063Y-98194438D01*
X61644206Y-100194438D02*
X61894206Y-98194438D01*
X61894206Y-98194438D02*
X62370397Y-98194438D01*
X62370397Y-98194438D02*
X62644206Y-98289676D01*
X62644206Y-98289676D02*
X62810873Y-98480152D01*
X62810873Y-98480152D02*
X62882301Y-98670628D01*
X62882301Y-98670628D02*
X62929921Y-99051580D01*
X62929921Y-99051580D02*
X62894206Y-99337295D01*
X62894206Y-99337295D02*
X62751349Y-99718247D01*
X62751349Y-99718247D02*
X62632301Y-99908723D01*
X62632301Y-99908723D02*
X62418016Y-100099200D01*
X62418016Y-100099200D02*
X62120397Y-100194438D01*
X62120397Y-100194438D02*
X61644206Y-100194438D01*
X63620397Y-99623009D02*
X64572778Y-99623009D01*
X63358492Y-100194438D02*
X64275159Y-98194438D01*
X64275159Y-98194438D02*
X64691825Y-100194438D01*
X66798969Y-100099200D02*
X67072778Y-100194438D01*
X67072778Y-100194438D02*
X67548969Y-100194438D01*
X67548969Y-100194438D02*
X67751350Y-100099200D01*
X67751350Y-100099200D02*
X67858493Y-100003961D01*
X67858493Y-100003961D02*
X67977540Y-99813485D01*
X67977540Y-99813485D02*
X68001350Y-99623009D01*
X68001350Y-99623009D02*
X67929921Y-99432533D01*
X67929921Y-99432533D02*
X67846588Y-99337295D01*
X67846588Y-99337295D02*
X67668017Y-99242057D01*
X67668017Y-99242057D02*
X67298969Y-99146819D01*
X67298969Y-99146819D02*
X67120397Y-99051580D01*
X67120397Y-99051580D02*
X67037064Y-98956342D01*
X67037064Y-98956342D02*
X66965636Y-98765866D01*
X66965636Y-98765866D02*
X66989445Y-98575390D01*
X66989445Y-98575390D02*
X67108493Y-98384914D01*
X67108493Y-98384914D02*
X67215636Y-98289676D01*
X67215636Y-98289676D02*
X67418017Y-98194438D01*
X67418017Y-98194438D02*
X67894207Y-98194438D01*
X67894207Y-98194438D02*
X68168017Y-98289676D01*
X69560874Y-100099200D02*
X69358493Y-100194438D01*
X69358493Y-100194438D02*
X68977540Y-100194438D01*
X68977540Y-100194438D02*
X68798969Y-100099200D01*
X68798969Y-100099200D02*
X68727540Y-99908723D01*
X68727540Y-99908723D02*
X68822779Y-99146819D01*
X68822779Y-99146819D02*
X68941826Y-98956342D01*
X68941826Y-98956342D02*
X69144207Y-98861104D01*
X69144207Y-98861104D02*
X69525159Y-98861104D01*
X69525159Y-98861104D02*
X69703731Y-98956342D01*
X69703731Y-98956342D02*
X69775159Y-99146819D01*
X69775159Y-99146819D02*
X69751350Y-99337295D01*
X69751350Y-99337295D02*
X68775159Y-99527771D01*
X70668017Y-98861104D02*
X70501350Y-100194438D01*
X70644207Y-99051580D02*
X70751350Y-98956342D01*
X70751350Y-98956342D02*
X70953731Y-98861104D01*
X70953731Y-98861104D02*
X71239445Y-98861104D01*
X71239445Y-98861104D02*
X71418017Y-98956342D01*
X71418017Y-98956342D02*
X71489445Y-99146819D01*
X71489445Y-99146819D02*
X71358493Y-100194438D01*
X72227541Y-100099200D02*
X72406112Y-100194438D01*
X72406112Y-100194438D02*
X72787065Y-100194438D01*
X72787065Y-100194438D02*
X72989446Y-100099200D01*
X72989446Y-100099200D02*
X73108493Y-99908723D01*
X73108493Y-99908723D02*
X73120398Y-99813485D01*
X73120398Y-99813485D02*
X73048969Y-99623009D01*
X73048969Y-99623009D02*
X72870398Y-99527771D01*
X72870398Y-99527771D02*
X72584684Y-99527771D01*
X72584684Y-99527771D02*
X72406112Y-99432533D01*
X72406112Y-99432533D02*
X72334684Y-99242057D01*
X72334684Y-99242057D02*
X72346589Y-99146819D01*
X72346589Y-99146819D02*
X72465636Y-98956342D01*
X72465636Y-98956342D02*
X72668017Y-98861104D01*
X72668017Y-98861104D02*
X72953731Y-98861104D01*
X72953731Y-98861104D02*
X73132303Y-98956342D01*
X74215637Y-100194438D02*
X74037065Y-100099200D01*
X74037065Y-100099200D02*
X73953732Y-100003961D01*
X73953732Y-100003961D02*
X73882303Y-99813485D01*
X73882303Y-99813485D02*
X73953732Y-99242057D01*
X73953732Y-99242057D02*
X74072779Y-99051580D01*
X74072779Y-99051580D02*
X74179922Y-98956342D01*
X74179922Y-98956342D02*
X74382303Y-98861104D01*
X74382303Y-98861104D02*
X74668017Y-98861104D01*
X74668017Y-98861104D02*
X74846589Y-98956342D01*
X74846589Y-98956342D02*
X74929922Y-99051580D01*
X74929922Y-99051580D02*
X75001351Y-99242057D01*
X75001351Y-99242057D02*
X74929922Y-99813485D01*
X74929922Y-99813485D02*
X74810875Y-100003961D01*
X74810875Y-100003961D02*
X74703732Y-100099200D01*
X74703732Y-100099200D02*
X74501351Y-100194438D01*
X74501351Y-100194438D02*
X74215637Y-100194438D01*
X75739446Y-100194438D02*
X75906113Y-98861104D01*
X75858494Y-99242057D02*
X75977541Y-99051580D01*
X75977541Y-99051580D02*
X76084684Y-98956342D01*
X76084684Y-98956342D02*
X76287065Y-98861104D01*
X76287065Y-98861104D02*
X76477541Y-98861104D01*
D10*
D11*
X31967826Y-95590414D02*
X31467826Y-95590414D01*
X31467826Y-96376128D02*
X31467826Y-94876128D01*
X31467826Y-94876128D02*
X32182112Y-94876128D01*
X32753540Y-96376128D02*
X32753540Y-95376128D01*
X32753540Y-94876128D02*
X32682112Y-94947557D01*
X32682112Y-94947557D02*
X32753540Y-95018985D01*
X32753540Y-95018985D02*
X32824969Y-94947557D01*
X32824969Y-94947557D02*
X32753540Y-94876128D01*
X32753540Y-94876128D02*
X32753540Y-95018985D01*
X33682112Y-96376128D02*
X33539255Y-96304700D01*
X33539255Y-96304700D02*
X33467826Y-96161842D01*
X33467826Y-96161842D02*
X33467826Y-94876128D01*
X34824969Y-96304700D02*
X34682112Y-96376128D01*
X34682112Y-96376128D02*
X34396398Y-96376128D01*
X34396398Y-96376128D02*
X34253540Y-96304700D01*
X34253540Y-96304700D02*
X34182112Y-96161842D01*
X34182112Y-96161842D02*
X34182112Y-95590414D01*
X34182112Y-95590414D02*
X34253540Y-95447557D01*
X34253540Y-95447557D02*
X34396398Y-95376128D01*
X34396398Y-95376128D02*
X34682112Y-95376128D01*
X34682112Y-95376128D02*
X34824969Y-95447557D01*
X34824969Y-95447557D02*
X34896398Y-95590414D01*
X34896398Y-95590414D02*
X34896398Y-95733271D01*
X34896398Y-95733271D02*
X34182112Y-95876128D01*
X35539254Y-96233271D02*
X35610683Y-96304700D01*
X35610683Y-96304700D02*
X35539254Y-96376128D01*
X35539254Y-96376128D02*
X35467826Y-96304700D01*
X35467826Y-96304700D02*
X35539254Y-96233271D01*
X35539254Y-96233271D02*
X35539254Y-96376128D01*
X35539254Y-95447557D02*
X35610683Y-95518985D01*
X35610683Y-95518985D02*
X35539254Y-95590414D01*
X35539254Y-95590414D02*
X35467826Y-95518985D01*
X35467826Y-95518985D02*
X35539254Y-95447557D01*
X35539254Y-95447557D02*
X35539254Y-95590414D01*
X37396397Y-95376128D02*
X37396397Y-96376128D01*
X37396397Y-95518985D02*
X37467826Y-95447557D01*
X37467826Y-95447557D02*
X37610683Y-95376128D01*
X37610683Y-95376128D02*
X37824969Y-95376128D01*
X37824969Y-95376128D02*
X37967826Y-95447557D01*
X37967826Y-95447557D02*
X38039255Y-95590414D01*
X38039255Y-95590414D02*
X38039255Y-96376128D01*
X39324969Y-96304700D02*
X39182112Y-96376128D01*
X39182112Y-96376128D02*
X38896398Y-96376128D01*
X38896398Y-96376128D02*
X38753540Y-96304700D01*
X38753540Y-96304700D02*
X38682112Y-96161842D01*
X38682112Y-96161842D02*
X38682112Y-95590414D01*
X38682112Y-95590414D02*
X38753540Y-95447557D01*
X38753540Y-95447557D02*
X38896398Y-95376128D01*
X38896398Y-95376128D02*
X39182112Y-95376128D01*
X39182112Y-95376128D02*
X39324969Y-95447557D01*
X39324969Y-95447557D02*
X39396398Y-95590414D01*
X39396398Y-95590414D02*
X39396398Y-95733271D01*
X39396398Y-95733271D02*
X38682112Y-95876128D01*
X40039254Y-96376128D02*
X40039254Y-95376128D01*
X40039254Y-95661842D02*
X40110683Y-95518985D01*
X40110683Y-95518985D02*
X40182112Y-95447557D01*
X40182112Y-95447557D02*
X40324969Y-95376128D01*
X40324969Y-95376128D02*
X40467826Y-95376128D01*
X40824968Y-95376128D02*
X41182111Y-96376128D01*
X41182111Y-96376128D02*
X41539254Y-95376128D01*
X42324968Y-96376128D02*
X42182111Y-96304700D01*
X42182111Y-96304700D02*
X42110682Y-96233271D01*
X42110682Y-96233271D02*
X42039254Y-96090414D01*
X42039254Y-96090414D02*
X42039254Y-95661842D01*
X42039254Y-95661842D02*
X42110682Y-95518985D01*
X42110682Y-95518985D02*
X42182111Y-95447557D01*
X42182111Y-95447557D02*
X42324968Y-95376128D01*
X42324968Y-95376128D02*
X42539254Y-95376128D01*
X42539254Y-95376128D02*
X42682111Y-95447557D01*
X42682111Y-95447557D02*
X42753540Y-95518985D01*
X42753540Y-95518985D02*
X42824968Y-95661842D01*
X42824968Y-95661842D02*
X42824968Y-96090414D01*
X42824968Y-96090414D02*
X42753540Y-96233271D01*
X42753540Y-96233271D02*
X42682111Y-96304700D01*
X42682111Y-96304700D02*
X42539254Y-96376128D01*
X42539254Y-96376128D02*
X42324968Y-96376128D01*
X44110683Y-95376128D02*
X44110683Y-96376128D01*
X43467825Y-95376128D02*
X43467825Y-96161842D01*
X43467825Y-96161842D02*
X43539254Y-96304700D01*
X43539254Y-96304700D02*
X43682111Y-96376128D01*
X43682111Y-96376128D02*
X43896397Y-96376128D01*
X43896397Y-96376128D02*
X44039254Y-96304700D01*
X44039254Y-96304700D02*
X44110683Y-96233271D01*
X44753540Y-96304700D02*
X44896397Y-96376128D01*
X44896397Y-96376128D02*
X45182111Y-96376128D01*
X45182111Y-96376128D02*
X45324968Y-96304700D01*
X45324968Y-96304700D02*
X45396397Y-96161842D01*
X45396397Y-96161842D02*
X45396397Y-96090414D01*
X45396397Y-96090414D02*
X45324968Y-95947557D01*
X45324968Y-95947557D02*
X45182111Y-95876128D01*
X45182111Y-95876128D02*
X44967826Y-95876128D01*
X44967826Y-95876128D02*
X44824968Y-95804700D01*
X44824968Y-95804700D02*
X44753540Y-95661842D01*
X44753540Y-95661842D02*
X44753540Y-95590414D01*
X44753540Y-95590414D02*
X44824968Y-95447557D01*
X44824968Y-95447557D02*
X44967826Y-95376128D01*
X44967826Y-95376128D02*
X45182111Y-95376128D01*
X45182111Y-95376128D02*
X45324968Y-95447557D01*
X46039254Y-95804700D02*
X47182112Y-95804700D01*
X48467826Y-96304700D02*
X48324969Y-96376128D01*
X48324969Y-96376128D02*
X48039255Y-96376128D01*
X48039255Y-96376128D02*
X47896397Y-96304700D01*
X47896397Y-96304700D02*
X47824969Y-96161842D01*
X47824969Y-96161842D02*
X47824969Y-95590414D01*
X47824969Y-95590414D02*
X47896397Y-95447557D01*
X47896397Y-95447557D02*
X48039255Y-95376128D01*
X48039255Y-95376128D02*
X48324969Y-95376128D01*
X48324969Y-95376128D02*
X48467826Y-95447557D01*
X48467826Y-95447557D02*
X48539255Y-95590414D01*
X48539255Y-95590414D02*
X48539255Y-95733271D01*
X48539255Y-95733271D02*
X47824969Y-95876128D01*
X49824969Y-96376128D02*
X49824969Y-94876128D01*
X49824969Y-96304700D02*
X49682111Y-96376128D01*
X49682111Y-96376128D02*
X49396397Y-96376128D01*
X49396397Y-96376128D02*
X49253540Y-96304700D01*
X49253540Y-96304700D02*
X49182111Y-96233271D01*
X49182111Y-96233271D02*
X49110683Y-96090414D01*
X49110683Y-96090414D02*
X49110683Y-95661842D01*
X49110683Y-95661842D02*
X49182111Y-95518985D01*
X49182111Y-95518985D02*
X49253540Y-95447557D01*
X49253540Y-95447557D02*
X49396397Y-95376128D01*
X49396397Y-95376128D02*
X49682111Y-95376128D01*
X49682111Y-95376128D02*
X49824969Y-95447557D01*
X51182112Y-96376128D02*
X51182112Y-95590414D01*
X51182112Y-95590414D02*
X51110683Y-95447557D01*
X51110683Y-95447557D02*
X50967826Y-95376128D01*
X50967826Y-95376128D02*
X50682112Y-95376128D01*
X50682112Y-95376128D02*
X50539254Y-95447557D01*
X51182112Y-96304700D02*
X51039254Y-96376128D01*
X51039254Y-96376128D02*
X50682112Y-96376128D01*
X50682112Y-96376128D02*
X50539254Y-96304700D01*
X50539254Y-96304700D02*
X50467826Y-96161842D01*
X50467826Y-96161842D02*
X50467826Y-96018985D01*
X50467826Y-96018985D02*
X50539254Y-95876128D01*
X50539254Y-95876128D02*
X50682112Y-95804700D01*
X50682112Y-95804700D02*
X51039254Y-95804700D01*
X51039254Y-95804700D02*
X51182112Y-95733271D01*
X51896397Y-96233271D02*
X51967826Y-96304700D01*
X51967826Y-96304700D02*
X51896397Y-96376128D01*
X51896397Y-96376128D02*
X51824969Y-96304700D01*
X51824969Y-96304700D02*
X51896397Y-96233271D01*
X51896397Y-96233271D02*
X51896397Y-96376128D01*
X52610683Y-96376128D02*
X52610683Y-94876128D01*
X52753541Y-95804700D02*
X53182112Y-96376128D01*
X53182112Y-95376128D02*
X52610683Y-95947557D01*
X53824969Y-96376128D02*
X53824969Y-95376128D01*
X53824969Y-94876128D02*
X53753541Y-94947557D01*
X53753541Y-94947557D02*
X53824969Y-95018985D01*
X53824969Y-95018985D02*
X53896398Y-94947557D01*
X53896398Y-94947557D02*
X53824969Y-94876128D01*
X53824969Y-94876128D02*
X53824969Y-95018985D01*
X55182113Y-96304700D02*
X55039255Y-96376128D01*
X55039255Y-96376128D02*
X54753541Y-96376128D01*
X54753541Y-96376128D02*
X54610684Y-96304700D01*
X54610684Y-96304700D02*
X54539255Y-96233271D01*
X54539255Y-96233271D02*
X54467827Y-96090414D01*
X54467827Y-96090414D02*
X54467827Y-95661842D01*
X54467827Y-95661842D02*
X54539255Y-95518985D01*
X54539255Y-95518985D02*
X54610684Y-95447557D01*
X54610684Y-95447557D02*
X54753541Y-95376128D01*
X54753541Y-95376128D02*
X55039255Y-95376128D01*
X55039255Y-95376128D02*
X55182113Y-95447557D01*
X56467827Y-96376128D02*
X56467827Y-95590414D01*
X56467827Y-95590414D02*
X56396398Y-95447557D01*
X56396398Y-95447557D02*
X56253541Y-95376128D01*
X56253541Y-95376128D02*
X55967827Y-95376128D01*
X55967827Y-95376128D02*
X55824969Y-95447557D01*
X56467827Y-96304700D02*
X56324969Y-96376128D01*
X56324969Y-96376128D02*
X55967827Y-96376128D01*
X55967827Y-96376128D02*
X55824969Y-96304700D01*
X55824969Y-96304700D02*
X55753541Y-96161842D01*
X55753541Y-96161842D02*
X55753541Y-96018985D01*
X55753541Y-96018985D02*
X55824969Y-95876128D01*
X55824969Y-95876128D02*
X55967827Y-95804700D01*
X55967827Y-95804700D02*
X56324969Y-95804700D01*
X56324969Y-95804700D02*
X56467827Y-95733271D01*
X57824970Y-96376128D02*
X57824970Y-94876128D01*
X57824970Y-96304700D02*
X57682112Y-96376128D01*
X57682112Y-96376128D02*
X57396398Y-96376128D01*
X57396398Y-96376128D02*
X57253541Y-96304700D01*
X57253541Y-96304700D02*
X57182112Y-96233271D01*
X57182112Y-96233271D02*
X57110684Y-96090414D01*
X57110684Y-96090414D02*
X57110684Y-95661842D01*
X57110684Y-95661842D02*
X57182112Y-95518985D01*
X57182112Y-95518985D02*
X57253541Y-95447557D01*
X57253541Y-95447557D02*
X57396398Y-95376128D01*
X57396398Y-95376128D02*
X57682112Y-95376128D01*
X57682112Y-95376128D02*
X57824970Y-95447557D01*
X58182113Y-96518985D02*
X59324970Y-96518985D01*
X59682112Y-95376128D02*
X59682112Y-96876128D01*
X59682112Y-95447557D02*
X59824970Y-95376128D01*
X59824970Y-95376128D02*
X60110684Y-95376128D01*
X60110684Y-95376128D02*
X60253541Y-95447557D01*
X60253541Y-95447557D02*
X60324970Y-95518985D01*
X60324970Y-95518985D02*
X60396398Y-95661842D01*
X60396398Y-95661842D02*
X60396398Y-96090414D01*
X60396398Y-96090414D02*
X60324970Y-96233271D01*
X60324970Y-96233271D02*
X60253541Y-96304700D01*
X60253541Y-96304700D02*
X60110684Y-96376128D01*
X60110684Y-96376128D02*
X59824970Y-96376128D01*
X59824970Y-96376128D02*
X59682112Y-96304700D01*
X61682113Y-96304700D02*
X61539255Y-96376128D01*
X61539255Y-96376128D02*
X61253541Y-96376128D01*
X61253541Y-96376128D02*
X61110684Y-96304700D01*
X61110684Y-96304700D02*
X61039255Y-96233271D01*
X61039255Y-96233271D02*
X60967827Y-96090414D01*
X60967827Y-96090414D02*
X60967827Y-95661842D01*
X60967827Y-95661842D02*
X61039255Y-95518985D01*
X61039255Y-95518985D02*
X61110684Y-95447557D01*
X61110684Y-95447557D02*
X61253541Y-95376128D01*
X61253541Y-95376128D02*
X61539255Y-95376128D01*
X61539255Y-95376128D02*
X61682113Y-95447557D01*
X62324969Y-96376128D02*
X62324969Y-94876128D01*
X62324969Y-95447557D02*
X62467827Y-95376128D01*
X62467827Y-95376128D02*
X62753541Y-95376128D01*
X62753541Y-95376128D02*
X62896398Y-95447557D01*
X62896398Y-95447557D02*
X62967827Y-95518985D01*
X62967827Y-95518985D02*
X63039255Y-95661842D01*
X63039255Y-95661842D02*
X63039255Y-96090414D01*
X63039255Y-96090414D02*
X62967827Y-96233271D01*
X62967827Y-96233271D02*
X62896398Y-96304700D01*
X62896398Y-96304700D02*
X62753541Y-96376128D01*
X62753541Y-96376128D02*
X62467827Y-96376128D01*
X62467827Y-96376128D02*
X62324969Y-96304700D01*
D10*
D11*
X30012000Y-91490000D02*
X138012000Y-91490000D01*
D10*
D11*
X31396398Y-93604700D02*
X31610684Y-93676128D01*
X31610684Y-93676128D02*
X31967826Y-93676128D01*
X31967826Y-93676128D02*
X32110684Y-93604700D01*
X32110684Y-93604700D02*
X32182112Y-93533271D01*
X32182112Y-93533271D02*
X32253541Y-93390414D01*
X32253541Y-93390414D02*
X32253541Y-93247557D01*
X32253541Y-93247557D02*
X32182112Y-93104700D01*
X32182112Y-93104700D02*
X32110684Y-93033271D01*
X32110684Y-93033271D02*
X31967826Y-92961842D01*
X31967826Y-92961842D02*
X31682112Y-92890414D01*
X31682112Y-92890414D02*
X31539255Y-92818985D01*
X31539255Y-92818985D02*
X31467826Y-92747557D01*
X31467826Y-92747557D02*
X31396398Y-92604700D01*
X31396398Y-92604700D02*
X31396398Y-92461842D01*
X31396398Y-92461842D02*
X31467826Y-92318985D01*
X31467826Y-92318985D02*
X31539255Y-92247557D01*
X31539255Y-92247557D02*
X31682112Y-92176128D01*
X31682112Y-92176128D02*
X32039255Y-92176128D01*
X32039255Y-92176128D02*
X32253541Y-92247557D01*
X32896397Y-93676128D02*
X32896397Y-92176128D01*
X33539255Y-93676128D02*
X33539255Y-92890414D01*
X33539255Y-92890414D02*
X33467826Y-92747557D01*
X33467826Y-92747557D02*
X33324969Y-92676128D01*
X33324969Y-92676128D02*
X33110683Y-92676128D01*
X33110683Y-92676128D02*
X32967826Y-92747557D01*
X32967826Y-92747557D02*
X32896397Y-92818985D01*
X34824969Y-93604700D02*
X34682112Y-93676128D01*
X34682112Y-93676128D02*
X34396398Y-93676128D01*
X34396398Y-93676128D02*
X34253540Y-93604700D01*
X34253540Y-93604700D02*
X34182112Y-93461842D01*
X34182112Y-93461842D02*
X34182112Y-92890414D01*
X34182112Y-92890414D02*
X34253540Y-92747557D01*
X34253540Y-92747557D02*
X34396398Y-92676128D01*
X34396398Y-92676128D02*
X34682112Y-92676128D01*
X34682112Y-92676128D02*
X34824969Y-92747557D01*
X34824969Y-92747557D02*
X34896398Y-92890414D01*
X34896398Y-92890414D02*
X34896398Y-93033271D01*
X34896398Y-93033271D02*
X34182112Y-93176128D01*
X36110683Y-93604700D02*
X35967826Y-93676128D01*
X35967826Y-93676128D02*
X35682112Y-93676128D01*
X35682112Y-93676128D02*
X35539254Y-93604700D01*
X35539254Y-93604700D02*
X35467826Y-93461842D01*
X35467826Y-93461842D02*
X35467826Y-92890414D01*
X35467826Y-92890414D02*
X35539254Y-92747557D01*
X35539254Y-92747557D02*
X35682112Y-92676128D01*
X35682112Y-92676128D02*
X35967826Y-92676128D01*
X35967826Y-92676128D02*
X36110683Y-92747557D01*
X36110683Y-92747557D02*
X36182112Y-92890414D01*
X36182112Y-92890414D02*
X36182112Y-93033271D01*
X36182112Y-93033271D02*
X35467826Y-93176128D01*
X36610683Y-92676128D02*
X37182111Y-92676128D01*
X36824968Y-92176128D02*
X36824968Y-93461842D01*
X36824968Y-93461842D02*
X36896397Y-93604700D01*
X36896397Y-93604700D02*
X37039254Y-93676128D01*
X37039254Y-93676128D02*
X37182111Y-93676128D01*
X37682111Y-93533271D02*
X37753540Y-93604700D01*
X37753540Y-93604700D02*
X37682111Y-93676128D01*
X37682111Y-93676128D02*
X37610683Y-93604700D01*
X37610683Y-93604700D02*
X37682111Y-93533271D01*
X37682111Y-93533271D02*
X37682111Y-93676128D01*
X37682111Y-92747557D02*
X37753540Y-92818985D01*
X37753540Y-92818985D02*
X37682111Y-92890414D01*
X37682111Y-92890414D02*
X37610683Y-92818985D01*
X37610683Y-92818985D02*
X37682111Y-92747557D01*
X37682111Y-92747557D02*
X37682111Y-92890414D01*
D10*
D11*
X32324969Y-87533271D02*
X32253541Y-87604700D01*
X32253541Y-87604700D02*
X32039255Y-87676128D01*
X32039255Y-87676128D02*
X31896398Y-87676128D01*
X31896398Y-87676128D02*
X31682112Y-87604700D01*
X31682112Y-87604700D02*
X31539255Y-87461842D01*
X31539255Y-87461842D02*
X31467826Y-87318985D01*
X31467826Y-87318985D02*
X31396398Y-87033271D01*
X31396398Y-87033271D02*
X31396398Y-86818985D01*
X31396398Y-86818985D02*
X31467826Y-86533271D01*
X31467826Y-86533271D02*
X31539255Y-86390414D01*
X31539255Y-86390414D02*
X31682112Y-86247557D01*
X31682112Y-86247557D02*
X31896398Y-86176128D01*
X31896398Y-86176128D02*
X32039255Y-86176128D01*
X32039255Y-86176128D02*
X32253541Y-86247557D01*
X32253541Y-86247557D02*
X32324969Y-86318985D01*
X33182112Y-87676128D02*
X33039255Y-87604700D01*
X33039255Y-87604700D02*
X32967826Y-87533271D01*
X32967826Y-87533271D02*
X32896398Y-87390414D01*
X32896398Y-87390414D02*
X32896398Y-86961842D01*
X32896398Y-86961842D02*
X32967826Y-86818985D01*
X32967826Y-86818985D02*
X33039255Y-86747557D01*
X33039255Y-86747557D02*
X33182112Y-86676128D01*
X33182112Y-86676128D02*
X33396398Y-86676128D01*
X33396398Y-86676128D02*
X33539255Y-86747557D01*
X33539255Y-86747557D02*
X33610684Y-86818985D01*
X33610684Y-86818985D02*
X33682112Y-86961842D01*
X33682112Y-86961842D02*
X33682112Y-87390414D01*
X33682112Y-87390414D02*
X33610684Y-87533271D01*
X33610684Y-87533271D02*
X33539255Y-87604700D01*
X33539255Y-87604700D02*
X33396398Y-87676128D01*
X33396398Y-87676128D02*
X33182112Y-87676128D01*
X34324969Y-86676128D02*
X34324969Y-88176128D01*
X34324969Y-86747557D02*
X34467827Y-86676128D01*
X34467827Y-86676128D02*
X34753541Y-86676128D01*
X34753541Y-86676128D02*
X34896398Y-86747557D01*
X34896398Y-86747557D02*
X34967827Y-86818985D01*
X34967827Y-86818985D02*
X35039255Y-86961842D01*
X35039255Y-86961842D02*
X35039255Y-87390414D01*
X35039255Y-87390414D02*
X34967827Y-87533271D01*
X34967827Y-87533271D02*
X34896398Y-87604700D01*
X34896398Y-87604700D02*
X34753541Y-87676128D01*
X34753541Y-87676128D02*
X34467827Y-87676128D01*
X34467827Y-87676128D02*
X34324969Y-87604700D01*
X35539255Y-86676128D02*
X35896398Y-87676128D01*
X36253541Y-86676128D02*
X35896398Y-87676128D01*
X35896398Y-87676128D02*
X35753541Y-88033271D01*
X35753541Y-88033271D02*
X35682112Y-88104700D01*
X35682112Y-88104700D02*
X35539255Y-88176128D01*
X36824969Y-87676128D02*
X36824969Y-86676128D01*
X36824969Y-86961842D02*
X36896398Y-86818985D01*
X36896398Y-86818985D02*
X36967827Y-86747557D01*
X36967827Y-86747557D02*
X37110684Y-86676128D01*
X37110684Y-86676128D02*
X37253541Y-86676128D01*
X37753540Y-87676128D02*
X37753540Y-86676128D01*
X37753540Y-86176128D02*
X37682112Y-86247557D01*
X37682112Y-86247557D02*
X37753540Y-86318985D01*
X37753540Y-86318985D02*
X37824969Y-86247557D01*
X37824969Y-86247557D02*
X37753540Y-86176128D01*
X37753540Y-86176128D02*
X37753540Y-86318985D01*
X39110684Y-86676128D02*
X39110684Y-87890414D01*
X39110684Y-87890414D02*
X39039255Y-88033271D01*
X39039255Y-88033271D02*
X38967826Y-88104700D01*
X38967826Y-88104700D02*
X38824969Y-88176128D01*
X38824969Y-88176128D02*
X38610684Y-88176128D01*
X38610684Y-88176128D02*
X38467826Y-88104700D01*
X39110684Y-87604700D02*
X38967826Y-87676128D01*
X38967826Y-87676128D02*
X38682112Y-87676128D01*
X38682112Y-87676128D02*
X38539255Y-87604700D01*
X38539255Y-87604700D02*
X38467826Y-87533271D01*
X38467826Y-87533271D02*
X38396398Y-87390414D01*
X38396398Y-87390414D02*
X38396398Y-86961842D01*
X38396398Y-86961842D02*
X38467826Y-86818985D01*
X38467826Y-86818985D02*
X38539255Y-86747557D01*
X38539255Y-86747557D02*
X38682112Y-86676128D01*
X38682112Y-86676128D02*
X38967826Y-86676128D01*
X38967826Y-86676128D02*
X39110684Y-86747557D01*
X39824969Y-87676128D02*
X39824969Y-86176128D01*
X40467827Y-87676128D02*
X40467827Y-86890414D01*
X40467827Y-86890414D02*
X40396398Y-86747557D01*
X40396398Y-86747557D02*
X40253541Y-86676128D01*
X40253541Y-86676128D02*
X40039255Y-86676128D01*
X40039255Y-86676128D02*
X39896398Y-86747557D01*
X39896398Y-86747557D02*
X39824969Y-86818985D01*
X40967827Y-86676128D02*
X41539255Y-86676128D01*
X41182112Y-86176128D02*
X41182112Y-87461842D01*
X41182112Y-87461842D02*
X41253541Y-87604700D01*
X41253541Y-87604700D02*
X41396398Y-87676128D01*
X41396398Y-87676128D02*
X41539255Y-87676128D01*
X43610684Y-88247557D02*
X43539255Y-88176128D01*
X43539255Y-88176128D02*
X43396398Y-87961842D01*
X43396398Y-87961842D02*
X43324970Y-87818985D01*
X43324970Y-87818985D02*
X43253541Y-87604700D01*
X43253541Y-87604700D02*
X43182112Y-87247557D01*
X43182112Y-87247557D02*
X43182112Y-86961842D01*
X43182112Y-86961842D02*
X43253541Y-86604700D01*
X43253541Y-86604700D02*
X43324970Y-86390414D01*
X43324970Y-86390414D02*
X43396398Y-86247557D01*
X43396398Y-86247557D02*
X43539255Y-86033271D01*
X43539255Y-86033271D02*
X43610684Y-85961842D01*
X44824970Y-87604700D02*
X44682112Y-87676128D01*
X44682112Y-87676128D02*
X44396398Y-87676128D01*
X44396398Y-87676128D02*
X44253541Y-87604700D01*
X44253541Y-87604700D02*
X44182112Y-87533271D01*
X44182112Y-87533271D02*
X44110684Y-87390414D01*
X44110684Y-87390414D02*
X44110684Y-86961842D01*
X44110684Y-86961842D02*
X44182112Y-86818985D01*
X44182112Y-86818985D02*
X44253541Y-86747557D01*
X44253541Y-86747557D02*
X44396398Y-86676128D01*
X44396398Y-86676128D02*
X44682112Y-86676128D01*
X44682112Y-86676128D02*
X44824970Y-86747557D01*
X45324969Y-88247557D02*
X45396398Y-88176128D01*
X45396398Y-88176128D02*
X45539255Y-87961842D01*
X45539255Y-87961842D02*
X45610684Y-87818985D01*
X45610684Y-87818985D02*
X45682112Y-87604700D01*
X45682112Y-87604700D02*
X45753541Y-87247557D01*
X45753541Y-87247557D02*
X45753541Y-86961842D01*
X45753541Y-86961842D02*
X45682112Y-86604700D01*
X45682112Y-86604700D02*
X45610684Y-86390414D01*
X45610684Y-86390414D02*
X45539255Y-86247557D01*
X45539255Y-86247557D02*
X45396398Y-86033271D01*
X45396398Y-86033271D02*
X45324969Y-85961842D01*
X47539255Y-86318985D02*
X47610683Y-86247557D01*
X47610683Y-86247557D02*
X47753541Y-86176128D01*
X47753541Y-86176128D02*
X48110683Y-86176128D01*
X48110683Y-86176128D02*
X48253541Y-86247557D01*
X48253541Y-86247557D02*
X48324969Y-86318985D01*
X48324969Y-86318985D02*
X48396398Y-86461842D01*
X48396398Y-86461842D02*
X48396398Y-86604700D01*
X48396398Y-86604700D02*
X48324969Y-86818985D01*
X48324969Y-86818985D02*
X47467826Y-87676128D01*
X47467826Y-87676128D02*
X48396398Y-87676128D01*
X49324969Y-86176128D02*
X49467826Y-86176128D01*
X49467826Y-86176128D02*
X49610683Y-86247557D01*
X49610683Y-86247557D02*
X49682112Y-86318985D01*
X49682112Y-86318985D02*
X49753540Y-86461842D01*
X49753540Y-86461842D02*
X49824969Y-86747557D01*
X49824969Y-86747557D02*
X49824969Y-87104700D01*
X49824969Y-87104700D02*
X49753540Y-87390414D01*
X49753540Y-87390414D02*
X49682112Y-87533271D01*
X49682112Y-87533271D02*
X49610683Y-87604700D01*
X49610683Y-87604700D02*
X49467826Y-87676128D01*
X49467826Y-87676128D02*
X49324969Y-87676128D01*
X49324969Y-87676128D02*
X49182112Y-87604700D01*
X49182112Y-87604700D02*
X49110683Y-87533271D01*
X49110683Y-87533271D02*
X49039254Y-87390414D01*
X49039254Y-87390414D02*
X48967826Y-87104700D01*
X48967826Y-87104700D02*
X48967826Y-86747557D01*
X48967826Y-86747557D02*
X49039254Y-86461842D01*
X49039254Y-86461842D02*
X49110683Y-86318985D01*
X49110683Y-86318985D02*
X49182112Y-86247557D01*
X49182112Y-86247557D02*
X49324969Y-86176128D01*
X50396397Y-86318985D02*
X50467825Y-86247557D01*
X50467825Y-86247557D02*
X50610683Y-86176128D01*
X50610683Y-86176128D02*
X50967825Y-86176128D01*
X50967825Y-86176128D02*
X51110683Y-86247557D01*
X51110683Y-86247557D02*
X51182111Y-86318985D01*
X51182111Y-86318985D02*
X51253540Y-86461842D01*
X51253540Y-86461842D02*
X51253540Y-86604700D01*
X51253540Y-86604700D02*
X51182111Y-86818985D01*
X51182111Y-86818985D02*
X50324968Y-87676128D01*
X50324968Y-87676128D02*
X51253540Y-87676128D01*
X52539254Y-86676128D02*
X52539254Y-87676128D01*
X52182111Y-86104700D02*
X51824968Y-87176128D01*
X51824968Y-87176128D02*
X52753539Y-87176128D01*
X54467824Y-87676128D02*
X54467824Y-86176128D01*
X55182110Y-87676128D02*
X55182110Y-86176128D01*
X55182110Y-86176128D02*
X56039253Y-87676128D01*
X56039253Y-87676128D02*
X56039253Y-86176128D01*
X56682111Y-87604700D02*
X56896397Y-87676128D01*
X56896397Y-87676128D02*
X57253539Y-87676128D01*
X57253539Y-87676128D02*
X57396397Y-87604700D01*
X57396397Y-87604700D02*
X57467825Y-87533271D01*
X57467825Y-87533271D02*
X57539254Y-87390414D01*
X57539254Y-87390414D02*
X57539254Y-87247557D01*
X57539254Y-87247557D02*
X57467825Y-87104700D01*
X57467825Y-87104700D02*
X57396397Y-87033271D01*
X57396397Y-87033271D02*
X57253539Y-86961842D01*
X57253539Y-86961842D02*
X56967825Y-86890414D01*
X56967825Y-86890414D02*
X56824968Y-86818985D01*
X56824968Y-86818985D02*
X56753539Y-86747557D01*
X56753539Y-86747557D02*
X56682111Y-86604700D01*
X56682111Y-86604700D02*
X56682111Y-86461842D01*
X56682111Y-86461842D02*
X56753539Y-86318985D01*
X56753539Y-86318985D02*
X56824968Y-86247557D01*
X56824968Y-86247557D02*
X56967825Y-86176128D01*
X56967825Y-86176128D02*
X57324968Y-86176128D01*
X57324968Y-86176128D02*
X57539254Y-86247557D01*
X58110682Y-87247557D02*
X58824968Y-87247557D01*
X57967825Y-87676128D02*
X58467825Y-86176128D01*
X58467825Y-86176128D02*
X58967825Y-87676128D01*
X61324967Y-87676128D02*
X60610681Y-87676128D01*
X60610681Y-87676128D02*
X60610681Y-86176128D01*
X61682110Y-86676128D02*
X62039253Y-87676128D01*
X62396396Y-86676128D02*
X62039253Y-87676128D01*
X62039253Y-87676128D02*
X61896396Y-88033271D01*
X61896396Y-88033271D02*
X61824967Y-88104700D01*
X61824967Y-88104700D02*
X61682110Y-88176128D01*
X63182110Y-87676128D02*
X63039253Y-87604700D01*
X63039253Y-87604700D02*
X62967824Y-87533271D01*
X62967824Y-87533271D02*
X62896396Y-87390414D01*
X62896396Y-87390414D02*
X62896396Y-86961842D01*
X62896396Y-86961842D02*
X62967824Y-86818985D01*
X62967824Y-86818985D02*
X63039253Y-86747557D01*
X63039253Y-86747557D02*
X63182110Y-86676128D01*
X63182110Y-86676128D02*
X63396396Y-86676128D01*
X63396396Y-86676128D02*
X63539253Y-86747557D01*
X63539253Y-86747557D02*
X63610682Y-86818985D01*
X63610682Y-86818985D02*
X63682110Y-86961842D01*
X63682110Y-86961842D02*
X63682110Y-87390414D01*
X63682110Y-87390414D02*
X63610682Y-87533271D01*
X63610682Y-87533271D02*
X63539253Y-87604700D01*
X63539253Y-87604700D02*
X63396396Y-87676128D01*
X63396396Y-87676128D02*
X63182110Y-87676128D01*
X64324967Y-86676128D02*
X64324967Y-87676128D01*
X64324967Y-86818985D02*
X64396396Y-86747557D01*
X64396396Y-86747557D02*
X64539253Y-86676128D01*
X64539253Y-86676128D02*
X64753539Y-86676128D01*
X64753539Y-86676128D02*
X64896396Y-86747557D01*
X64896396Y-86747557D02*
X64967825Y-86890414D01*
X64967825Y-86890414D02*
X64967825Y-87676128D01*
X65753539Y-87604700D02*
X65753539Y-87676128D01*
X65753539Y-87676128D02*
X65682110Y-87818985D01*
X65682110Y-87818985D02*
X65610682Y-87890414D01*
X68396396Y-87533271D02*
X68324968Y-87604700D01*
X68324968Y-87604700D02*
X68110682Y-87676128D01*
X68110682Y-87676128D02*
X67967825Y-87676128D01*
X67967825Y-87676128D02*
X67753539Y-87604700D01*
X67753539Y-87604700D02*
X67610682Y-87461842D01*
X67610682Y-87461842D02*
X67539253Y-87318985D01*
X67539253Y-87318985D02*
X67467825Y-87033271D01*
X67467825Y-87033271D02*
X67467825Y-86818985D01*
X67467825Y-86818985D02*
X67539253Y-86533271D01*
X67539253Y-86533271D02*
X67610682Y-86390414D01*
X67610682Y-86390414D02*
X67753539Y-86247557D01*
X67753539Y-86247557D02*
X67967825Y-86176128D01*
X67967825Y-86176128D02*
X68110682Y-86176128D01*
X68110682Y-86176128D02*
X68324968Y-86247557D01*
X68324968Y-86247557D02*
X68396396Y-86318985D01*
X69039253Y-87676128D02*
X69039253Y-86176128D01*
X69039253Y-86176128D02*
X69896396Y-87676128D01*
X69896396Y-87676128D02*
X69896396Y-86176128D01*
X71467825Y-87676128D02*
X70967825Y-86961842D01*
X70610682Y-87676128D02*
X70610682Y-86176128D01*
X70610682Y-86176128D02*
X71182111Y-86176128D01*
X71182111Y-86176128D02*
X71324968Y-86247557D01*
X71324968Y-86247557D02*
X71396397Y-86318985D01*
X71396397Y-86318985D02*
X71467825Y-86461842D01*
X71467825Y-86461842D02*
X71467825Y-86676128D01*
X71467825Y-86676128D02*
X71396397Y-86818985D01*
X71396397Y-86818985D02*
X71324968Y-86890414D01*
X71324968Y-86890414D02*
X71182111Y-86961842D01*
X71182111Y-86961842D02*
X70610682Y-86961842D01*
X72039254Y-87604700D02*
X72253540Y-87676128D01*
X72253540Y-87676128D02*
X72610682Y-87676128D01*
X72610682Y-87676128D02*
X72753540Y-87604700D01*
X72753540Y-87604700D02*
X72824968Y-87533271D01*
X72824968Y-87533271D02*
X72896397Y-87390414D01*
X72896397Y-87390414D02*
X72896397Y-87247557D01*
X72896397Y-87247557D02*
X72824968Y-87104700D01*
X72824968Y-87104700D02*
X72753540Y-87033271D01*
X72753540Y-87033271D02*
X72610682Y-86961842D01*
X72610682Y-86961842D02*
X72324968Y-86890414D01*
X72324968Y-86890414D02*
X72182111Y-86818985D01*
X72182111Y-86818985D02*
X72110682Y-86747557D01*
X72110682Y-86747557D02*
X72039254Y-86604700D01*
X72039254Y-86604700D02*
X72039254Y-86461842D01*
X72039254Y-86461842D02*
X72110682Y-86318985D01*
X72110682Y-86318985D02*
X72182111Y-86247557D01*
X72182111Y-86247557D02*
X72324968Y-86176128D01*
X72324968Y-86176128D02*
X72682111Y-86176128D01*
X72682111Y-86176128D02*
X72896397Y-86247557D01*
X73610682Y-87604700D02*
X73610682Y-87676128D01*
X73610682Y-87676128D02*
X73539253Y-87818985D01*
X73539253Y-87818985D02*
X73467825Y-87890414D01*
X75396396Y-87676128D02*
X75396396Y-86176128D01*
X76110682Y-87676128D02*
X76110682Y-86176128D01*
X76110682Y-86176128D02*
X76967825Y-87676128D01*
X76967825Y-87676128D02*
X76967825Y-86176128D01*
X78396397Y-87676128D02*
X77682111Y-87676128D01*
X77682111Y-87676128D02*
X77682111Y-86176128D01*
X80039254Y-86176128D02*
X80039254Y-87390414D01*
X80039254Y-87390414D02*
X80110683Y-87533271D01*
X80110683Y-87533271D02*
X80182112Y-87604700D01*
X80182112Y-87604700D02*
X80324969Y-87676128D01*
X80324969Y-87676128D02*
X80610683Y-87676128D01*
X80610683Y-87676128D02*
X80753540Y-87604700D01*
X80753540Y-87604700D02*
X80824969Y-87533271D01*
X80824969Y-87533271D02*
X80896397Y-87390414D01*
X80896397Y-87390414D02*
X80896397Y-86176128D01*
X81610683Y-87676128D02*
X81610683Y-86176128D01*
X81610683Y-86176128D02*
X82110683Y-87247557D01*
X82110683Y-87247557D02*
X82610683Y-86176128D01*
X82610683Y-86176128D02*
X82610683Y-87676128D01*
X84182112Y-87676128D02*
X83682112Y-86961842D01*
X83324969Y-87676128D02*
X83324969Y-86176128D01*
X83324969Y-86176128D02*
X83896398Y-86176128D01*
X83896398Y-86176128D02*
X84039255Y-86247557D01*
X84039255Y-86247557D02*
X84110684Y-86318985D01*
X84110684Y-86318985D02*
X84182112Y-86461842D01*
X84182112Y-86461842D02*
X84182112Y-86676128D01*
X84182112Y-86676128D02*
X84110684Y-86818985D01*
X84110684Y-86818985D02*
X84039255Y-86890414D01*
X84039255Y-86890414D02*
X83896398Y-86961842D01*
X83896398Y-86961842D02*
X83324969Y-86961842D01*
X85539255Y-86176128D02*
X84824969Y-86176128D01*
X84824969Y-86176128D02*
X84753541Y-86890414D01*
X84753541Y-86890414D02*
X84824969Y-86818985D01*
X84824969Y-86818985D02*
X84967827Y-86747557D01*
X84967827Y-86747557D02*
X85324969Y-86747557D01*
X85324969Y-86747557D02*
X85467827Y-86818985D01*
X85467827Y-86818985D02*
X85539255Y-86890414D01*
X85539255Y-86890414D02*
X85610684Y-87033271D01*
X85610684Y-87033271D02*
X85610684Y-87390414D01*
X85610684Y-87390414D02*
X85539255Y-87533271D01*
X85539255Y-87533271D02*
X85467827Y-87604700D01*
X85467827Y-87604700D02*
X85324969Y-87676128D01*
X85324969Y-87676128D02*
X84967827Y-87676128D01*
X84967827Y-87676128D02*
X84824969Y-87604700D01*
X84824969Y-87604700D02*
X84753541Y-87533271D01*
X86182112Y-86318985D02*
X86253540Y-86247557D01*
X86253540Y-86247557D02*
X86396398Y-86176128D01*
X86396398Y-86176128D02*
X86753540Y-86176128D01*
X86753540Y-86176128D02*
X86896398Y-86247557D01*
X86896398Y-86247557D02*
X86967826Y-86318985D01*
X86967826Y-86318985D02*
X87039255Y-86461842D01*
X87039255Y-86461842D02*
X87039255Y-86604700D01*
X87039255Y-86604700D02*
X86967826Y-86818985D01*
X86967826Y-86818985D02*
X86110683Y-87676128D01*
X86110683Y-87676128D02*
X87039255Y-87676128D01*
X87539254Y-86176128D02*
X88539254Y-86176128D01*
X88539254Y-86176128D02*
X87896397Y-87676128D01*
X89396397Y-86176128D02*
X89539254Y-86176128D01*
X89539254Y-86176128D02*
X89682111Y-86247557D01*
X89682111Y-86247557D02*
X89753540Y-86318985D01*
X89753540Y-86318985D02*
X89824968Y-86461842D01*
X89824968Y-86461842D02*
X89896397Y-86747557D01*
X89896397Y-86747557D02*
X89896397Y-87104700D01*
X89896397Y-87104700D02*
X89824968Y-87390414D01*
X89824968Y-87390414D02*
X89753540Y-87533271D01*
X89753540Y-87533271D02*
X89682111Y-87604700D01*
X89682111Y-87604700D02*
X89539254Y-87676128D01*
X89539254Y-87676128D02*
X89396397Y-87676128D01*
X89396397Y-87676128D02*
X89253540Y-87604700D01*
X89253540Y-87604700D02*
X89182111Y-87533271D01*
X89182111Y-87533271D02*
X89110682Y-87390414D01*
X89110682Y-87390414D02*
X89039254Y-87104700D01*
X89039254Y-87104700D02*
X89039254Y-86747557D01*
X89039254Y-86747557D02*
X89110682Y-86461842D01*
X89110682Y-86461842D02*
X89182111Y-86318985D01*
X89182111Y-86318985D02*
X89253540Y-86247557D01*
X89253540Y-86247557D02*
X89396397Y-86176128D01*
D10*
D11*
X32182112Y-84676128D02*
X31467826Y-84676128D01*
X31467826Y-84676128D02*
X31467826Y-83176128D01*
X32682112Y-84676128D02*
X32682112Y-83676128D01*
X32682112Y-83176128D02*
X32610684Y-83247557D01*
X32610684Y-83247557D02*
X32682112Y-83318985D01*
X32682112Y-83318985D02*
X32753541Y-83247557D01*
X32753541Y-83247557D02*
X32682112Y-83176128D01*
X32682112Y-83176128D02*
X32682112Y-83318985D01*
X34039256Y-84604700D02*
X33896398Y-84676128D01*
X33896398Y-84676128D02*
X33610684Y-84676128D01*
X33610684Y-84676128D02*
X33467827Y-84604700D01*
X33467827Y-84604700D02*
X33396398Y-84533271D01*
X33396398Y-84533271D02*
X33324970Y-84390414D01*
X33324970Y-84390414D02*
X33324970Y-83961842D01*
X33324970Y-83961842D02*
X33396398Y-83818985D01*
X33396398Y-83818985D02*
X33467827Y-83747557D01*
X33467827Y-83747557D02*
X33610684Y-83676128D01*
X33610684Y-83676128D02*
X33896398Y-83676128D01*
X33896398Y-83676128D02*
X34039256Y-83747557D01*
X35253541Y-84604700D02*
X35110684Y-84676128D01*
X35110684Y-84676128D02*
X34824970Y-84676128D01*
X34824970Y-84676128D02*
X34682112Y-84604700D01*
X34682112Y-84604700D02*
X34610684Y-84461842D01*
X34610684Y-84461842D02*
X34610684Y-83890414D01*
X34610684Y-83890414D02*
X34682112Y-83747557D01*
X34682112Y-83747557D02*
X34824970Y-83676128D01*
X34824970Y-83676128D02*
X35110684Y-83676128D01*
X35110684Y-83676128D02*
X35253541Y-83747557D01*
X35253541Y-83747557D02*
X35324970Y-83890414D01*
X35324970Y-83890414D02*
X35324970Y-84033271D01*
X35324970Y-84033271D02*
X34610684Y-84176128D01*
X35967826Y-83676128D02*
X35967826Y-84676128D01*
X35967826Y-83818985D02*
X36039255Y-83747557D01*
X36039255Y-83747557D02*
X36182112Y-83676128D01*
X36182112Y-83676128D02*
X36396398Y-83676128D01*
X36396398Y-83676128D02*
X36539255Y-83747557D01*
X36539255Y-83747557D02*
X36610684Y-83890414D01*
X36610684Y-83890414D02*
X36610684Y-84676128D01*
X37253541Y-84604700D02*
X37396398Y-84676128D01*
X37396398Y-84676128D02*
X37682112Y-84676128D01*
X37682112Y-84676128D02*
X37824969Y-84604700D01*
X37824969Y-84604700D02*
X37896398Y-84461842D01*
X37896398Y-84461842D02*
X37896398Y-84390414D01*
X37896398Y-84390414D02*
X37824969Y-84247557D01*
X37824969Y-84247557D02*
X37682112Y-84176128D01*
X37682112Y-84176128D02*
X37467827Y-84176128D01*
X37467827Y-84176128D02*
X37324969Y-84104700D01*
X37324969Y-84104700D02*
X37253541Y-83961842D01*
X37253541Y-83961842D02*
X37253541Y-83890414D01*
X37253541Y-83890414D02*
X37324969Y-83747557D01*
X37324969Y-83747557D02*
X37467827Y-83676128D01*
X37467827Y-83676128D02*
X37682112Y-83676128D01*
X37682112Y-83676128D02*
X37824969Y-83747557D01*
X39110684Y-84604700D02*
X38967827Y-84676128D01*
X38967827Y-84676128D02*
X38682113Y-84676128D01*
X38682113Y-84676128D02*
X38539255Y-84604700D01*
X38539255Y-84604700D02*
X38467827Y-84461842D01*
X38467827Y-84461842D02*
X38467827Y-83890414D01*
X38467827Y-83890414D02*
X38539255Y-83747557D01*
X38539255Y-83747557D02*
X38682113Y-83676128D01*
X38682113Y-83676128D02*
X38967827Y-83676128D01*
X38967827Y-83676128D02*
X39110684Y-83747557D01*
X39110684Y-83747557D02*
X39182113Y-83890414D01*
X39182113Y-83890414D02*
X39182113Y-84033271D01*
X39182113Y-84033271D02*
X38467827Y-84176128D01*
X40967826Y-84533271D02*
X41039255Y-84604700D01*
X41039255Y-84604700D02*
X40967826Y-84676128D01*
X40967826Y-84676128D02*
X40896398Y-84604700D01*
X40896398Y-84604700D02*
X40967826Y-84533271D01*
X40967826Y-84533271D02*
X40967826Y-84676128D01*
X40967826Y-83747557D02*
X41039255Y-83818985D01*
X41039255Y-83818985D02*
X40967826Y-83890414D01*
X40967826Y-83890414D02*
X40896398Y-83818985D01*
X40896398Y-83818985D02*
X40967826Y-83747557D01*
X40967826Y-83747557D02*
X40967826Y-83890414D01*
X42824969Y-84676128D02*
X42824969Y-83176128D01*
X42824969Y-83176128D02*
X43324969Y-84247557D01*
X43324969Y-84247557D02*
X43824969Y-83176128D01*
X43824969Y-83176128D02*
X43824969Y-84676128D01*
X44539255Y-84676128D02*
X44539255Y-83176128D01*
X45039256Y-83176128D02*
X45896399Y-83176128D01*
X45467827Y-84676128D02*
X45467827Y-83176128D01*
X48253541Y-84676128D02*
X47539255Y-84676128D01*
X47539255Y-84676128D02*
X47539255Y-83176128D01*
X48753541Y-84676128D02*
X48753541Y-83676128D01*
X48753541Y-83176128D02*
X48682113Y-83247557D01*
X48682113Y-83247557D02*
X48753541Y-83318985D01*
X48753541Y-83318985D02*
X48824970Y-83247557D01*
X48824970Y-83247557D02*
X48753541Y-83176128D01*
X48753541Y-83176128D02*
X48753541Y-83318985D01*
X50110685Y-84604700D02*
X49967827Y-84676128D01*
X49967827Y-84676128D02*
X49682113Y-84676128D01*
X49682113Y-84676128D02*
X49539256Y-84604700D01*
X49539256Y-84604700D02*
X49467827Y-84533271D01*
X49467827Y-84533271D02*
X49396399Y-84390414D01*
X49396399Y-84390414D02*
X49396399Y-83961842D01*
X49396399Y-83961842D02*
X49467827Y-83818985D01*
X49467827Y-83818985D02*
X49539256Y-83747557D01*
X49539256Y-83747557D02*
X49682113Y-83676128D01*
X49682113Y-83676128D02*
X49967827Y-83676128D01*
X49967827Y-83676128D02*
X50110685Y-83747557D01*
X51324970Y-84604700D02*
X51182113Y-84676128D01*
X51182113Y-84676128D02*
X50896399Y-84676128D01*
X50896399Y-84676128D02*
X50753541Y-84604700D01*
X50753541Y-84604700D02*
X50682113Y-84461842D01*
X50682113Y-84461842D02*
X50682113Y-83890414D01*
X50682113Y-83890414D02*
X50753541Y-83747557D01*
X50753541Y-83747557D02*
X50896399Y-83676128D01*
X50896399Y-83676128D02*
X51182113Y-83676128D01*
X51182113Y-83676128D02*
X51324970Y-83747557D01*
X51324970Y-83747557D02*
X51396399Y-83890414D01*
X51396399Y-83890414D02*
X51396399Y-84033271D01*
X51396399Y-84033271D02*
X50682113Y-84176128D01*
X52039255Y-83676128D02*
X52039255Y-84676128D01*
X52039255Y-83818985D02*
X52110684Y-83747557D01*
X52110684Y-83747557D02*
X52253541Y-83676128D01*
X52253541Y-83676128D02*
X52467827Y-83676128D01*
X52467827Y-83676128D02*
X52610684Y-83747557D01*
X52610684Y-83747557D02*
X52682113Y-83890414D01*
X52682113Y-83890414D02*
X52682113Y-84676128D01*
X53324970Y-84604700D02*
X53467827Y-84676128D01*
X53467827Y-84676128D02*
X53753541Y-84676128D01*
X53753541Y-84676128D02*
X53896398Y-84604700D01*
X53896398Y-84604700D02*
X53967827Y-84461842D01*
X53967827Y-84461842D02*
X53967827Y-84390414D01*
X53967827Y-84390414D02*
X53896398Y-84247557D01*
X53896398Y-84247557D02*
X53753541Y-84176128D01*
X53753541Y-84176128D02*
X53539256Y-84176128D01*
X53539256Y-84176128D02*
X53396398Y-84104700D01*
X53396398Y-84104700D02*
X53324970Y-83961842D01*
X53324970Y-83961842D02*
X53324970Y-83890414D01*
X53324970Y-83890414D02*
X53396398Y-83747557D01*
X53396398Y-83747557D02*
X53539256Y-83676128D01*
X53539256Y-83676128D02*
X53753541Y-83676128D01*
X53753541Y-83676128D02*
X53896398Y-83747557D01*
X55182113Y-84604700D02*
X55039256Y-84676128D01*
X55039256Y-84676128D02*
X54753542Y-84676128D01*
X54753542Y-84676128D02*
X54610684Y-84604700D01*
X54610684Y-84604700D02*
X54539256Y-84461842D01*
X54539256Y-84461842D02*
X54539256Y-83890414D01*
X54539256Y-83890414D02*
X54610684Y-83747557D01*
X54610684Y-83747557D02*
X54753542Y-83676128D01*
X54753542Y-83676128D02*
X55039256Y-83676128D01*
X55039256Y-83676128D02*
X55182113Y-83747557D01*
X55182113Y-83747557D02*
X55253542Y-83890414D01*
X55253542Y-83890414D02*
X55253542Y-84033271D01*
X55253542Y-84033271D02*
X54539256Y-84176128D01*
D10*
D11*
X32324969Y-81533271D02*
X32253541Y-81604700D01*
X32253541Y-81604700D02*
X32039255Y-81676128D01*
X32039255Y-81676128D02*
X31896398Y-81676128D01*
X31896398Y-81676128D02*
X31682112Y-81604700D01*
X31682112Y-81604700D02*
X31539255Y-81461842D01*
X31539255Y-81461842D02*
X31467826Y-81318985D01*
X31467826Y-81318985D02*
X31396398Y-81033271D01*
X31396398Y-81033271D02*
X31396398Y-80818985D01*
X31396398Y-80818985D02*
X31467826Y-80533271D01*
X31467826Y-80533271D02*
X31539255Y-80390414D01*
X31539255Y-80390414D02*
X31682112Y-80247557D01*
X31682112Y-80247557D02*
X31896398Y-80176128D01*
X31896398Y-80176128D02*
X32039255Y-80176128D01*
X32039255Y-80176128D02*
X32253541Y-80247557D01*
X32253541Y-80247557D02*
X32324969Y-80318985D01*
X33182112Y-81676128D02*
X33039255Y-81604700D01*
X33039255Y-81604700D02*
X32967826Y-81533271D01*
X32967826Y-81533271D02*
X32896398Y-81390414D01*
X32896398Y-81390414D02*
X32896398Y-80961842D01*
X32896398Y-80961842D02*
X32967826Y-80818985D01*
X32967826Y-80818985D02*
X33039255Y-80747557D01*
X33039255Y-80747557D02*
X33182112Y-80676128D01*
X33182112Y-80676128D02*
X33396398Y-80676128D01*
X33396398Y-80676128D02*
X33539255Y-80747557D01*
X33539255Y-80747557D02*
X33610684Y-80818985D01*
X33610684Y-80818985D02*
X33682112Y-80961842D01*
X33682112Y-80961842D02*
X33682112Y-81390414D01*
X33682112Y-81390414D02*
X33610684Y-81533271D01*
X33610684Y-81533271D02*
X33539255Y-81604700D01*
X33539255Y-81604700D02*
X33396398Y-81676128D01*
X33396398Y-81676128D02*
X33182112Y-81676128D01*
X34324969Y-80676128D02*
X34324969Y-81676128D01*
X34324969Y-80818985D02*
X34396398Y-80747557D01*
X34396398Y-80747557D02*
X34539255Y-80676128D01*
X34539255Y-80676128D02*
X34753541Y-80676128D01*
X34753541Y-80676128D02*
X34896398Y-80747557D01*
X34896398Y-80747557D02*
X34967827Y-80890414D01*
X34967827Y-80890414D02*
X34967827Y-81676128D01*
X35467827Y-80676128D02*
X36039255Y-80676128D01*
X35682112Y-80176128D02*
X35682112Y-81461842D01*
X35682112Y-81461842D02*
X35753541Y-81604700D01*
X35753541Y-81604700D02*
X35896398Y-81676128D01*
X35896398Y-81676128D02*
X36039255Y-81676128D01*
X37182113Y-81676128D02*
X37182113Y-80890414D01*
X37182113Y-80890414D02*
X37110684Y-80747557D01*
X37110684Y-80747557D02*
X36967827Y-80676128D01*
X36967827Y-80676128D02*
X36682113Y-80676128D01*
X36682113Y-80676128D02*
X36539255Y-80747557D01*
X37182113Y-81604700D02*
X37039255Y-81676128D01*
X37039255Y-81676128D02*
X36682113Y-81676128D01*
X36682113Y-81676128D02*
X36539255Y-81604700D01*
X36539255Y-81604700D02*
X36467827Y-81461842D01*
X36467827Y-81461842D02*
X36467827Y-81318985D01*
X36467827Y-81318985D02*
X36539255Y-81176128D01*
X36539255Y-81176128D02*
X36682113Y-81104700D01*
X36682113Y-81104700D02*
X37039255Y-81104700D01*
X37039255Y-81104700D02*
X37182113Y-81033271D01*
X38539256Y-81604700D02*
X38396398Y-81676128D01*
X38396398Y-81676128D02*
X38110684Y-81676128D01*
X38110684Y-81676128D02*
X37967827Y-81604700D01*
X37967827Y-81604700D02*
X37896398Y-81533271D01*
X37896398Y-81533271D02*
X37824970Y-81390414D01*
X37824970Y-81390414D02*
X37824970Y-80961842D01*
X37824970Y-80961842D02*
X37896398Y-80818985D01*
X37896398Y-80818985D02*
X37967827Y-80747557D01*
X37967827Y-80747557D02*
X38110684Y-80676128D01*
X38110684Y-80676128D02*
X38396398Y-80676128D01*
X38396398Y-80676128D02*
X38539256Y-80747557D01*
X38967827Y-80676128D02*
X39539255Y-80676128D01*
X39182112Y-80176128D02*
X39182112Y-81461842D01*
X39182112Y-81461842D02*
X39253541Y-81604700D01*
X39253541Y-81604700D02*
X39396398Y-81676128D01*
X39396398Y-81676128D02*
X39539255Y-81676128D01*
X41182112Y-81533271D02*
X41253541Y-81604700D01*
X41253541Y-81604700D02*
X41182112Y-81676128D01*
X41182112Y-81676128D02*
X41110684Y-81604700D01*
X41110684Y-81604700D02*
X41182112Y-81533271D01*
X41182112Y-81533271D02*
X41182112Y-81676128D01*
X41182112Y-80747557D02*
X41253541Y-80818985D01*
X41253541Y-80818985D02*
X41182112Y-80890414D01*
X41182112Y-80890414D02*
X41110684Y-80818985D01*
X41110684Y-80818985D02*
X41182112Y-80747557D01*
X41182112Y-80747557D02*
X41182112Y-80890414D01*
X43039255Y-81676128D02*
X43039255Y-80176128D01*
X43039255Y-80747557D02*
X43182113Y-80676128D01*
X43182113Y-80676128D02*
X43467827Y-80676128D01*
X43467827Y-80676128D02*
X43610684Y-80747557D01*
X43610684Y-80747557D02*
X43682113Y-80818985D01*
X43682113Y-80818985D02*
X43753541Y-80961842D01*
X43753541Y-80961842D02*
X43753541Y-81390414D01*
X43753541Y-81390414D02*
X43682113Y-81533271D01*
X43682113Y-81533271D02*
X43610684Y-81604700D01*
X43610684Y-81604700D02*
X43467827Y-81676128D01*
X43467827Y-81676128D02*
X43182113Y-81676128D01*
X43182113Y-81676128D02*
X43039255Y-81604700D01*
X44967827Y-81604700D02*
X44824970Y-81676128D01*
X44824970Y-81676128D02*
X44539256Y-81676128D01*
X44539256Y-81676128D02*
X44396398Y-81604700D01*
X44396398Y-81604700D02*
X44324970Y-81461842D01*
X44324970Y-81461842D02*
X44324970Y-80890414D01*
X44324970Y-80890414D02*
X44396398Y-80747557D01*
X44396398Y-80747557D02*
X44539256Y-80676128D01*
X44539256Y-80676128D02*
X44824970Y-80676128D01*
X44824970Y-80676128D02*
X44967827Y-80747557D01*
X44967827Y-80747557D02*
X45039256Y-80890414D01*
X45039256Y-80890414D02*
X45039256Y-81033271D01*
X45039256Y-81033271D02*
X44324970Y-81176128D01*
X45682112Y-81676128D02*
X45682112Y-80676128D01*
X45682112Y-80961842D02*
X45753541Y-80818985D01*
X45753541Y-80818985D02*
X45824970Y-80747557D01*
X45824970Y-80747557D02*
X45967827Y-80676128D01*
X45967827Y-80676128D02*
X46110684Y-80676128D01*
X46396398Y-80676128D02*
X46967826Y-80676128D01*
X46610683Y-80176128D02*
X46610683Y-81461842D01*
X46610683Y-81461842D02*
X46682112Y-81604700D01*
X46682112Y-81604700D02*
X46824969Y-81676128D01*
X46824969Y-81676128D02*
X46967826Y-81676128D01*
X47467826Y-81676128D02*
X47467826Y-80676128D01*
X47467826Y-80961842D02*
X47539255Y-80818985D01*
X47539255Y-80818985D02*
X47610684Y-80747557D01*
X47610684Y-80747557D02*
X47753541Y-80676128D01*
X47753541Y-80676128D02*
X47896398Y-80676128D01*
X49039255Y-81676128D02*
X49039255Y-80890414D01*
X49039255Y-80890414D02*
X48967826Y-80747557D01*
X48967826Y-80747557D02*
X48824969Y-80676128D01*
X48824969Y-80676128D02*
X48539255Y-80676128D01*
X48539255Y-80676128D02*
X48396397Y-80747557D01*
X49039255Y-81604700D02*
X48896397Y-81676128D01*
X48896397Y-81676128D02*
X48539255Y-81676128D01*
X48539255Y-81676128D02*
X48396397Y-81604700D01*
X48396397Y-81604700D02*
X48324969Y-81461842D01*
X48324969Y-81461842D02*
X48324969Y-81318985D01*
X48324969Y-81318985D02*
X48396397Y-81176128D01*
X48396397Y-81176128D02*
X48539255Y-81104700D01*
X48539255Y-81104700D02*
X48896397Y-81104700D01*
X48896397Y-81104700D02*
X49039255Y-81033271D01*
X49753540Y-80676128D02*
X49753540Y-81676128D01*
X49753540Y-80818985D02*
X49824969Y-80747557D01*
X49824969Y-80747557D02*
X49967826Y-80676128D01*
X49967826Y-80676128D02*
X50182112Y-80676128D01*
X50182112Y-80676128D02*
X50324969Y-80747557D01*
X50324969Y-80747557D02*
X50396398Y-80890414D01*
X50396398Y-80890414D02*
X50396398Y-81676128D01*
X51753541Y-81676128D02*
X51753541Y-80176128D01*
X51753541Y-81604700D02*
X51610683Y-81676128D01*
X51610683Y-81676128D02*
X51324969Y-81676128D01*
X51324969Y-81676128D02*
X51182112Y-81604700D01*
X51182112Y-81604700D02*
X51110683Y-81533271D01*
X51110683Y-81533271D02*
X51039255Y-81390414D01*
X51039255Y-81390414D02*
X51039255Y-80961842D01*
X51039255Y-80961842D02*
X51110683Y-80818985D01*
X51110683Y-80818985D02*
X51182112Y-80747557D01*
X51182112Y-80747557D02*
X51324969Y-80676128D01*
X51324969Y-80676128D02*
X51610683Y-80676128D01*
X51610683Y-80676128D02*
X51753541Y-80747557D01*
X52467826Y-81533271D02*
X52539255Y-81604700D01*
X52539255Y-81604700D02*
X52467826Y-81676128D01*
X52467826Y-81676128D02*
X52396398Y-81604700D01*
X52396398Y-81604700D02*
X52467826Y-81533271D01*
X52467826Y-81533271D02*
X52467826Y-81676128D01*
X53182112Y-81676128D02*
X53182112Y-80676128D01*
X53182112Y-80818985D02*
X53253541Y-80747557D01*
X53253541Y-80747557D02*
X53396398Y-80676128D01*
X53396398Y-80676128D02*
X53610684Y-80676128D01*
X53610684Y-80676128D02*
X53753541Y-80747557D01*
X53753541Y-80747557D02*
X53824970Y-80890414D01*
X53824970Y-80890414D02*
X53824970Y-81676128D01*
X53824970Y-80890414D02*
X53896398Y-80747557D01*
X53896398Y-80747557D02*
X54039255Y-80676128D01*
X54039255Y-80676128D02*
X54253541Y-80676128D01*
X54253541Y-80676128D02*
X54396398Y-80747557D01*
X54396398Y-80747557D02*
X54467827Y-80890414D01*
X54467827Y-80890414D02*
X54467827Y-81676128D01*
X55824970Y-81676128D02*
X55824970Y-80890414D01*
X55824970Y-80890414D02*
X55753541Y-80747557D01*
X55753541Y-80747557D02*
X55610684Y-80676128D01*
X55610684Y-80676128D02*
X55324970Y-80676128D01*
X55324970Y-80676128D02*
X55182112Y-80747557D01*
X55824970Y-81604700D02*
X55682112Y-81676128D01*
X55682112Y-81676128D02*
X55324970Y-81676128D01*
X55324970Y-81676128D02*
X55182112Y-81604700D01*
X55182112Y-81604700D02*
X55110684Y-81461842D01*
X55110684Y-81461842D02*
X55110684Y-81318985D01*
X55110684Y-81318985D02*
X55182112Y-81176128D01*
X55182112Y-81176128D02*
X55324970Y-81104700D01*
X55324970Y-81104700D02*
X55682112Y-81104700D01*
X55682112Y-81104700D02*
X55824970Y-81033271D01*
X56467827Y-81604700D02*
X56610684Y-81676128D01*
X56610684Y-81676128D02*
X56896398Y-81676128D01*
X56896398Y-81676128D02*
X57039255Y-81604700D01*
X57039255Y-81604700D02*
X57110684Y-81461842D01*
X57110684Y-81461842D02*
X57110684Y-81390414D01*
X57110684Y-81390414D02*
X57039255Y-81247557D01*
X57039255Y-81247557D02*
X56896398Y-81176128D01*
X56896398Y-81176128D02*
X56682113Y-81176128D01*
X56682113Y-81176128D02*
X56539255Y-81104700D01*
X56539255Y-81104700D02*
X56467827Y-80961842D01*
X56467827Y-80961842D02*
X56467827Y-80890414D01*
X56467827Y-80890414D02*
X56539255Y-80747557D01*
X56539255Y-80747557D02*
X56682113Y-80676128D01*
X56682113Y-80676128D02*
X56896398Y-80676128D01*
X56896398Y-80676128D02*
X57039255Y-80747557D01*
X57682113Y-81604700D02*
X57824970Y-81676128D01*
X57824970Y-81676128D02*
X58110684Y-81676128D01*
X58110684Y-81676128D02*
X58253541Y-81604700D01*
X58253541Y-81604700D02*
X58324970Y-81461842D01*
X58324970Y-81461842D02*
X58324970Y-81390414D01*
X58324970Y-81390414D02*
X58253541Y-81247557D01*
X58253541Y-81247557D02*
X58110684Y-81176128D01*
X58110684Y-81176128D02*
X57896399Y-81176128D01*
X57896399Y-81176128D02*
X57753541Y-81104700D01*
X57753541Y-81104700D02*
X57682113Y-80961842D01*
X57682113Y-80961842D02*
X57682113Y-80890414D01*
X57682113Y-80890414D02*
X57753541Y-80747557D01*
X57753541Y-80747557D02*
X57896399Y-80676128D01*
X57896399Y-80676128D02*
X58110684Y-80676128D01*
X58110684Y-80676128D02*
X58253541Y-80747557D01*
X59182113Y-81676128D02*
X59039256Y-81604700D01*
X59039256Y-81604700D02*
X58967827Y-81533271D01*
X58967827Y-81533271D02*
X58896399Y-81390414D01*
X58896399Y-81390414D02*
X58896399Y-80961842D01*
X58896399Y-80961842D02*
X58967827Y-80818985D01*
X58967827Y-80818985D02*
X59039256Y-80747557D01*
X59039256Y-80747557D02*
X59182113Y-80676128D01*
X59182113Y-80676128D02*
X59396399Y-80676128D01*
X59396399Y-80676128D02*
X59539256Y-80747557D01*
X59539256Y-80747557D02*
X59610685Y-80818985D01*
X59610685Y-80818985D02*
X59682113Y-80961842D01*
X59682113Y-80961842D02*
X59682113Y-81390414D01*
X59682113Y-81390414D02*
X59610685Y-81533271D01*
X59610685Y-81533271D02*
X59539256Y-81604700D01*
X59539256Y-81604700D02*
X59396399Y-81676128D01*
X59396399Y-81676128D02*
X59182113Y-81676128D01*
X60110685Y-80676128D02*
X60682113Y-80676128D01*
X60324970Y-80176128D02*
X60324970Y-81461842D01*
X60324970Y-81461842D02*
X60396399Y-81604700D01*
X60396399Y-81604700D02*
X60539256Y-81676128D01*
X60539256Y-81676128D02*
X60682113Y-81676128D01*
X62110685Y-80961842D02*
X62039256Y-80890414D01*
X62039256Y-80890414D02*
X61896399Y-80818985D01*
X61896399Y-80818985D02*
X61753542Y-80818985D01*
X61753542Y-80818985D02*
X61610685Y-80890414D01*
X61610685Y-80890414D02*
X61539256Y-80961842D01*
X61539256Y-80961842D02*
X61467828Y-81104700D01*
X61467828Y-81104700D02*
X61467828Y-81247557D01*
X61467828Y-81247557D02*
X61539256Y-81390414D01*
X61539256Y-81390414D02*
X61610685Y-81461842D01*
X61610685Y-81461842D02*
X61753542Y-81533271D01*
X61753542Y-81533271D02*
X61896399Y-81533271D01*
X61896399Y-81533271D02*
X62039256Y-81461842D01*
X62039256Y-81461842D02*
X62110685Y-81390414D01*
X62110685Y-80818985D02*
X62110685Y-81390414D01*
X62110685Y-81390414D02*
X62182113Y-81461842D01*
X62182113Y-81461842D02*
X62253542Y-81461842D01*
X62253542Y-81461842D02*
X62396399Y-81390414D01*
X62396399Y-81390414D02*
X62467828Y-81247557D01*
X62467828Y-81247557D02*
X62467828Y-80890414D01*
X62467828Y-80890414D02*
X62324971Y-80676128D01*
X62324971Y-80676128D02*
X62110685Y-80533271D01*
X62110685Y-80533271D02*
X61824971Y-80461842D01*
X61824971Y-80461842D02*
X61539256Y-80533271D01*
X61539256Y-80533271D02*
X61324971Y-80676128D01*
X61324971Y-80676128D02*
X61182113Y-80890414D01*
X61182113Y-80890414D02*
X61110685Y-81176128D01*
X61110685Y-81176128D02*
X61182113Y-81461842D01*
X61182113Y-81461842D02*
X61324971Y-81676128D01*
X61324971Y-81676128D02*
X61539256Y-81818985D01*
X61539256Y-81818985D02*
X61824971Y-81890414D01*
X61824971Y-81890414D02*
X62110685Y-81818985D01*
X62110685Y-81818985D02*
X62324971Y-81676128D01*
X63110684Y-81676128D02*
X63110684Y-80676128D01*
X63110684Y-80176128D02*
X63039256Y-80247557D01*
X63039256Y-80247557D02*
X63110684Y-80318985D01*
X63110684Y-80318985D02*
X63182113Y-80247557D01*
X63182113Y-80247557D02*
X63110684Y-80176128D01*
X63110684Y-80176128D02*
X63110684Y-80318985D01*
X63824970Y-80676128D02*
X63824970Y-81676128D01*
X63824970Y-80818985D02*
X63896399Y-80747557D01*
X63896399Y-80747557D02*
X64039256Y-80676128D01*
X64039256Y-80676128D02*
X64253542Y-80676128D01*
X64253542Y-80676128D02*
X64396399Y-80747557D01*
X64396399Y-80747557D02*
X64467828Y-80890414D01*
X64467828Y-80890414D02*
X64467828Y-81676128D01*
X65110685Y-81604700D02*
X65253542Y-81676128D01*
X65253542Y-81676128D02*
X65539256Y-81676128D01*
X65539256Y-81676128D02*
X65682113Y-81604700D01*
X65682113Y-81604700D02*
X65753542Y-81461842D01*
X65753542Y-81461842D02*
X65753542Y-81390414D01*
X65753542Y-81390414D02*
X65682113Y-81247557D01*
X65682113Y-81247557D02*
X65539256Y-81176128D01*
X65539256Y-81176128D02*
X65324971Y-81176128D01*
X65324971Y-81176128D02*
X65182113Y-81104700D01*
X65182113Y-81104700D02*
X65110685Y-80961842D01*
X65110685Y-80961842D02*
X65110685Y-80890414D01*
X65110685Y-80890414D02*
X65182113Y-80747557D01*
X65182113Y-80747557D02*
X65324971Y-80676128D01*
X65324971Y-80676128D02*
X65539256Y-80676128D01*
X65539256Y-80676128D02*
X65682113Y-80747557D01*
X67039257Y-81676128D02*
X67039257Y-80890414D01*
X67039257Y-80890414D02*
X66967828Y-80747557D01*
X66967828Y-80747557D02*
X66824971Y-80676128D01*
X66824971Y-80676128D02*
X66539257Y-80676128D01*
X66539257Y-80676128D02*
X66396399Y-80747557D01*
X67039257Y-81604700D02*
X66896399Y-81676128D01*
X66896399Y-81676128D02*
X66539257Y-81676128D01*
X66539257Y-81676128D02*
X66396399Y-81604700D01*
X66396399Y-81604700D02*
X66324971Y-81461842D01*
X66324971Y-81461842D02*
X66324971Y-81318985D01*
X66324971Y-81318985D02*
X66396399Y-81176128D01*
X66396399Y-81176128D02*
X66539257Y-81104700D01*
X66539257Y-81104700D02*
X66896399Y-81104700D01*
X66896399Y-81104700D02*
X67039257Y-81033271D01*
X67753542Y-81104700D02*
X68896400Y-81104700D01*
X69824971Y-81676128D02*
X69682114Y-81604700D01*
X69682114Y-81604700D02*
X69610685Y-81461842D01*
X69610685Y-81461842D02*
X69610685Y-80176128D01*
X70253542Y-80676128D02*
X70610685Y-81676128D01*
X70967828Y-80676128D02*
X70610685Y-81676128D01*
X70610685Y-81676128D02*
X70467828Y-82033271D01*
X70467828Y-82033271D02*
X70396399Y-82104700D01*
X70396399Y-82104700D02*
X70253542Y-82176128D01*
X71753542Y-81676128D02*
X71610685Y-81604700D01*
X71610685Y-81604700D02*
X71539256Y-81533271D01*
X71539256Y-81533271D02*
X71467828Y-81390414D01*
X71467828Y-81390414D02*
X71467828Y-80961842D01*
X71467828Y-80961842D02*
X71539256Y-80818985D01*
X71539256Y-80818985D02*
X71610685Y-80747557D01*
X71610685Y-80747557D02*
X71753542Y-80676128D01*
X71753542Y-80676128D02*
X71967828Y-80676128D01*
X71967828Y-80676128D02*
X72110685Y-80747557D01*
X72110685Y-80747557D02*
X72182114Y-80818985D01*
X72182114Y-80818985D02*
X72253542Y-80961842D01*
X72253542Y-80961842D02*
X72253542Y-81390414D01*
X72253542Y-81390414D02*
X72182114Y-81533271D01*
X72182114Y-81533271D02*
X72110685Y-81604700D01*
X72110685Y-81604700D02*
X71967828Y-81676128D01*
X71967828Y-81676128D02*
X71753542Y-81676128D01*
X72896399Y-80676128D02*
X72896399Y-81676128D01*
X72896399Y-80818985D02*
X72967828Y-80747557D01*
X72967828Y-80747557D02*
X73110685Y-80676128D01*
X73110685Y-80676128D02*
X73324971Y-80676128D01*
X73324971Y-80676128D02*
X73467828Y-80747557D01*
X73467828Y-80747557D02*
X73539257Y-80890414D01*
X73539257Y-80890414D02*
X73539257Y-81676128D01*
X74253542Y-81533271D02*
X74324971Y-81604700D01*
X74324971Y-81604700D02*
X74253542Y-81676128D01*
X74253542Y-81676128D02*
X74182114Y-81604700D01*
X74182114Y-81604700D02*
X74253542Y-81533271D01*
X74253542Y-81533271D02*
X74253542Y-81676128D01*
X74753543Y-80676128D02*
X75324971Y-80676128D01*
X74967828Y-81676128D02*
X74967828Y-80390414D01*
X74967828Y-80390414D02*
X75039257Y-80247557D01*
X75039257Y-80247557D02*
X75182114Y-80176128D01*
X75182114Y-80176128D02*
X75324971Y-80176128D01*
X75824971Y-81676128D02*
X75824971Y-80676128D01*
X75824971Y-80961842D02*
X75896400Y-80818985D01*
X75896400Y-80818985D02*
X75967829Y-80747557D01*
X75967829Y-80747557D02*
X76110686Y-80676128D01*
X76110686Y-80676128D02*
X76253543Y-80676128D01*
D10*
D11*
X31396398Y-78247557D02*
X32110684Y-78247557D01*
X31253541Y-78676128D02*
X31753541Y-77176128D01*
X31753541Y-77176128D02*
X32253541Y-78676128D01*
X33396398Y-77676128D02*
X33396398Y-78676128D01*
X32753540Y-77676128D02*
X32753540Y-78461842D01*
X32753540Y-78461842D02*
X32824969Y-78604700D01*
X32824969Y-78604700D02*
X32967826Y-78676128D01*
X32967826Y-78676128D02*
X33182112Y-78676128D01*
X33182112Y-78676128D02*
X33324969Y-78604700D01*
X33324969Y-78604700D02*
X33396398Y-78533271D01*
X33896398Y-77676128D02*
X34467826Y-77676128D01*
X34110683Y-77176128D02*
X34110683Y-78461842D01*
X34110683Y-78461842D02*
X34182112Y-78604700D01*
X34182112Y-78604700D02*
X34324969Y-78676128D01*
X34324969Y-78676128D02*
X34467826Y-78676128D01*
X34967826Y-78676128D02*
X34967826Y-77176128D01*
X35610684Y-78676128D02*
X35610684Y-77890414D01*
X35610684Y-77890414D02*
X35539255Y-77747557D01*
X35539255Y-77747557D02*
X35396398Y-77676128D01*
X35396398Y-77676128D02*
X35182112Y-77676128D01*
X35182112Y-77676128D02*
X35039255Y-77747557D01*
X35039255Y-77747557D02*
X34967826Y-77818985D01*
X36539255Y-78676128D02*
X36396398Y-78604700D01*
X36396398Y-78604700D02*
X36324969Y-78533271D01*
X36324969Y-78533271D02*
X36253541Y-78390414D01*
X36253541Y-78390414D02*
X36253541Y-77961842D01*
X36253541Y-77961842D02*
X36324969Y-77818985D01*
X36324969Y-77818985D02*
X36396398Y-77747557D01*
X36396398Y-77747557D02*
X36539255Y-77676128D01*
X36539255Y-77676128D02*
X36753541Y-77676128D01*
X36753541Y-77676128D02*
X36896398Y-77747557D01*
X36896398Y-77747557D02*
X36967827Y-77818985D01*
X36967827Y-77818985D02*
X37039255Y-77961842D01*
X37039255Y-77961842D02*
X37039255Y-78390414D01*
X37039255Y-78390414D02*
X36967827Y-78533271D01*
X36967827Y-78533271D02*
X36896398Y-78604700D01*
X36896398Y-78604700D02*
X36753541Y-78676128D01*
X36753541Y-78676128D02*
X36539255Y-78676128D01*
X37682112Y-78676128D02*
X37682112Y-77676128D01*
X37682112Y-77961842D02*
X37753541Y-77818985D01*
X37753541Y-77818985D02*
X37824970Y-77747557D01*
X37824970Y-77747557D02*
X37967827Y-77676128D01*
X37967827Y-77676128D02*
X38110684Y-77676128D01*
X38539255Y-78604700D02*
X38682112Y-78676128D01*
X38682112Y-78676128D02*
X38967826Y-78676128D01*
X38967826Y-78676128D02*
X39110683Y-78604700D01*
X39110683Y-78604700D02*
X39182112Y-78461842D01*
X39182112Y-78461842D02*
X39182112Y-78390414D01*
X39182112Y-78390414D02*
X39110683Y-78247557D01*
X39110683Y-78247557D02*
X38967826Y-78176128D01*
X38967826Y-78176128D02*
X38753541Y-78176128D01*
X38753541Y-78176128D02*
X38610683Y-78104700D01*
X38610683Y-78104700D02*
X38539255Y-77961842D01*
X38539255Y-77961842D02*
X38539255Y-77890414D01*
X38539255Y-77890414D02*
X38610683Y-77747557D01*
X38610683Y-77747557D02*
X38753541Y-77676128D01*
X38753541Y-77676128D02*
X38967826Y-77676128D01*
X38967826Y-77676128D02*
X39110683Y-77747557D01*
X40967826Y-78533271D02*
X41039255Y-78604700D01*
X41039255Y-78604700D02*
X40967826Y-78676128D01*
X40967826Y-78676128D02*
X40896398Y-78604700D01*
X40896398Y-78604700D02*
X40967826Y-78533271D01*
X40967826Y-78533271D02*
X40967826Y-78676128D01*
X40967826Y-77747557D02*
X41039255Y-77818985D01*
X41039255Y-77818985D02*
X40967826Y-77890414D01*
X40967826Y-77890414D02*
X40896398Y-77818985D01*
X40896398Y-77818985D02*
X40967826Y-77747557D01*
X40967826Y-77747557D02*
X40967826Y-77890414D01*
X43324969Y-77890414D02*
X43539255Y-77961842D01*
X43539255Y-77961842D02*
X43610684Y-78033271D01*
X43610684Y-78033271D02*
X43682112Y-78176128D01*
X43682112Y-78176128D02*
X43682112Y-78390414D01*
X43682112Y-78390414D02*
X43610684Y-78533271D01*
X43610684Y-78533271D02*
X43539255Y-78604700D01*
X43539255Y-78604700D02*
X43396398Y-78676128D01*
X43396398Y-78676128D02*
X42824969Y-78676128D01*
X42824969Y-78676128D02*
X42824969Y-77176128D01*
X42824969Y-77176128D02*
X43324969Y-77176128D01*
X43324969Y-77176128D02*
X43467827Y-77247557D01*
X43467827Y-77247557D02*
X43539255Y-77318985D01*
X43539255Y-77318985D02*
X43610684Y-77461842D01*
X43610684Y-77461842D02*
X43610684Y-77604700D01*
X43610684Y-77604700D02*
X43539255Y-77747557D01*
X43539255Y-77747557D02*
X43467827Y-77818985D01*
X43467827Y-77818985D02*
X43324969Y-77890414D01*
X43324969Y-77890414D02*
X42824969Y-77890414D01*
X44896398Y-78604700D02*
X44753541Y-78676128D01*
X44753541Y-78676128D02*
X44467827Y-78676128D01*
X44467827Y-78676128D02*
X44324969Y-78604700D01*
X44324969Y-78604700D02*
X44253541Y-78461842D01*
X44253541Y-78461842D02*
X44253541Y-77890414D01*
X44253541Y-77890414D02*
X44324969Y-77747557D01*
X44324969Y-77747557D02*
X44467827Y-77676128D01*
X44467827Y-77676128D02*
X44753541Y-77676128D01*
X44753541Y-77676128D02*
X44896398Y-77747557D01*
X44896398Y-77747557D02*
X44967827Y-77890414D01*
X44967827Y-77890414D02*
X44967827Y-78033271D01*
X44967827Y-78033271D02*
X44253541Y-78176128D01*
X45610683Y-78676128D02*
X45610683Y-77676128D01*
X45610683Y-77961842D02*
X45682112Y-77818985D01*
X45682112Y-77818985D02*
X45753541Y-77747557D01*
X45753541Y-77747557D02*
X45896398Y-77676128D01*
X45896398Y-77676128D02*
X46039255Y-77676128D01*
X46324969Y-77676128D02*
X46896397Y-77676128D01*
X46539254Y-77176128D02*
X46539254Y-78461842D01*
X46539254Y-78461842D02*
X46610683Y-78604700D01*
X46610683Y-78604700D02*
X46753540Y-78676128D01*
X46753540Y-78676128D02*
X46896397Y-78676128D01*
X47396397Y-78676128D02*
X47396397Y-77676128D01*
X47396397Y-77961842D02*
X47467826Y-77818985D01*
X47467826Y-77818985D02*
X47539255Y-77747557D01*
X47539255Y-77747557D02*
X47682112Y-77676128D01*
X47682112Y-77676128D02*
X47824969Y-77676128D01*
X48967826Y-78676128D02*
X48967826Y-77890414D01*
X48967826Y-77890414D02*
X48896397Y-77747557D01*
X48896397Y-77747557D02*
X48753540Y-77676128D01*
X48753540Y-77676128D02*
X48467826Y-77676128D01*
X48467826Y-77676128D02*
X48324968Y-77747557D01*
X48967826Y-78604700D02*
X48824968Y-78676128D01*
X48824968Y-78676128D02*
X48467826Y-78676128D01*
X48467826Y-78676128D02*
X48324968Y-78604700D01*
X48324968Y-78604700D02*
X48253540Y-78461842D01*
X48253540Y-78461842D02*
X48253540Y-78318985D01*
X48253540Y-78318985D02*
X48324968Y-78176128D01*
X48324968Y-78176128D02*
X48467826Y-78104700D01*
X48467826Y-78104700D02*
X48824968Y-78104700D01*
X48824968Y-78104700D02*
X48967826Y-78033271D01*
X49682111Y-77676128D02*
X49682111Y-78676128D01*
X49682111Y-77818985D02*
X49753540Y-77747557D01*
X49753540Y-77747557D02*
X49896397Y-77676128D01*
X49896397Y-77676128D02*
X50110683Y-77676128D01*
X50110683Y-77676128D02*
X50253540Y-77747557D01*
X50253540Y-77747557D02*
X50324969Y-77890414D01*
X50324969Y-77890414D02*
X50324969Y-78676128D01*
X51682112Y-78676128D02*
X51682112Y-77176128D01*
X51682112Y-78604700D02*
X51539254Y-78676128D01*
X51539254Y-78676128D02*
X51253540Y-78676128D01*
X51253540Y-78676128D02*
X51110683Y-78604700D01*
X51110683Y-78604700D02*
X51039254Y-78533271D01*
X51039254Y-78533271D02*
X50967826Y-78390414D01*
X50967826Y-78390414D02*
X50967826Y-77961842D01*
X50967826Y-77961842D02*
X51039254Y-77818985D01*
X51039254Y-77818985D02*
X51110683Y-77747557D01*
X51110683Y-77747557D02*
X51253540Y-77676128D01*
X51253540Y-77676128D02*
X51539254Y-77676128D01*
X51539254Y-77676128D02*
X51682112Y-77747557D01*
X53539254Y-78676128D02*
X53539254Y-77176128D01*
X53539254Y-77176128D02*
X54039254Y-78247557D01*
X54039254Y-78247557D02*
X54539254Y-77176128D01*
X54539254Y-77176128D02*
X54539254Y-78676128D01*
X55896398Y-78676128D02*
X55896398Y-77890414D01*
X55896398Y-77890414D02*
X55824969Y-77747557D01*
X55824969Y-77747557D02*
X55682112Y-77676128D01*
X55682112Y-77676128D02*
X55396398Y-77676128D01*
X55396398Y-77676128D02*
X55253540Y-77747557D01*
X55896398Y-78604700D02*
X55753540Y-78676128D01*
X55753540Y-78676128D02*
X55396398Y-78676128D01*
X55396398Y-78676128D02*
X55253540Y-78604700D01*
X55253540Y-78604700D02*
X55182112Y-78461842D01*
X55182112Y-78461842D02*
X55182112Y-78318985D01*
X55182112Y-78318985D02*
X55253540Y-78176128D01*
X55253540Y-78176128D02*
X55396398Y-78104700D01*
X55396398Y-78104700D02*
X55753540Y-78104700D01*
X55753540Y-78104700D02*
X55896398Y-78033271D01*
X56539255Y-78604700D02*
X56682112Y-78676128D01*
X56682112Y-78676128D02*
X56967826Y-78676128D01*
X56967826Y-78676128D02*
X57110683Y-78604700D01*
X57110683Y-78604700D02*
X57182112Y-78461842D01*
X57182112Y-78461842D02*
X57182112Y-78390414D01*
X57182112Y-78390414D02*
X57110683Y-78247557D01*
X57110683Y-78247557D02*
X56967826Y-78176128D01*
X56967826Y-78176128D02*
X56753541Y-78176128D01*
X56753541Y-78176128D02*
X56610683Y-78104700D01*
X56610683Y-78104700D02*
X56539255Y-77961842D01*
X56539255Y-77961842D02*
X56539255Y-77890414D01*
X56539255Y-77890414D02*
X56610683Y-77747557D01*
X56610683Y-77747557D02*
X56753541Y-77676128D01*
X56753541Y-77676128D02*
X56967826Y-77676128D01*
X56967826Y-77676128D02*
X57110683Y-77747557D01*
X57753541Y-78604700D02*
X57896398Y-78676128D01*
X57896398Y-78676128D02*
X58182112Y-78676128D01*
X58182112Y-78676128D02*
X58324969Y-78604700D01*
X58324969Y-78604700D02*
X58396398Y-78461842D01*
X58396398Y-78461842D02*
X58396398Y-78390414D01*
X58396398Y-78390414D02*
X58324969Y-78247557D01*
X58324969Y-78247557D02*
X58182112Y-78176128D01*
X58182112Y-78176128D02*
X57967827Y-78176128D01*
X57967827Y-78176128D02*
X57824969Y-78104700D01*
X57824969Y-78104700D02*
X57753541Y-77961842D01*
X57753541Y-77961842D02*
X57753541Y-77890414D01*
X57753541Y-77890414D02*
X57824969Y-77747557D01*
X57824969Y-77747557D02*
X57967827Y-77676128D01*
X57967827Y-77676128D02*
X58182112Y-77676128D01*
X58182112Y-77676128D02*
X58324969Y-77747557D01*
X59253541Y-78676128D02*
X59110684Y-78604700D01*
X59110684Y-78604700D02*
X59039255Y-78533271D01*
X59039255Y-78533271D02*
X58967827Y-78390414D01*
X58967827Y-78390414D02*
X58967827Y-77961842D01*
X58967827Y-77961842D02*
X59039255Y-77818985D01*
X59039255Y-77818985D02*
X59110684Y-77747557D01*
X59110684Y-77747557D02*
X59253541Y-77676128D01*
X59253541Y-77676128D02*
X59467827Y-77676128D01*
X59467827Y-77676128D02*
X59610684Y-77747557D01*
X59610684Y-77747557D02*
X59682113Y-77818985D01*
X59682113Y-77818985D02*
X59753541Y-77961842D01*
X59753541Y-77961842D02*
X59753541Y-78390414D01*
X59753541Y-78390414D02*
X59682113Y-78533271D01*
X59682113Y-78533271D02*
X59610684Y-78604700D01*
X59610684Y-78604700D02*
X59467827Y-78676128D01*
X59467827Y-78676128D02*
X59253541Y-78676128D01*
X60182113Y-77676128D02*
X60753541Y-77676128D01*
X60396398Y-77176128D02*
X60396398Y-78461842D01*
X60396398Y-78461842D02*
X60467827Y-78604700D01*
X60467827Y-78604700D02*
X60610684Y-78676128D01*
X60610684Y-78676128D02*
X60753541Y-78676128D01*
X61324970Y-78604700D02*
X61324970Y-78676128D01*
X61324970Y-78676128D02*
X61253541Y-78818985D01*
X61253541Y-78818985D02*
X61182113Y-78890414D01*
X63110684Y-78676128D02*
X63110684Y-77176128D01*
X63110684Y-77176128D02*
X63610684Y-78247557D01*
X63610684Y-78247557D02*
X64110684Y-77176128D01*
X64110684Y-77176128D02*
X64110684Y-78676128D01*
X65467828Y-78676128D02*
X65467828Y-77890414D01*
X65467828Y-77890414D02*
X65396399Y-77747557D01*
X65396399Y-77747557D02*
X65253542Y-77676128D01*
X65253542Y-77676128D02*
X64967828Y-77676128D01*
X64967828Y-77676128D02*
X64824970Y-77747557D01*
X65467828Y-78604700D02*
X65324970Y-78676128D01*
X65324970Y-78676128D02*
X64967828Y-78676128D01*
X64967828Y-78676128D02*
X64824970Y-78604700D01*
X64824970Y-78604700D02*
X64753542Y-78461842D01*
X64753542Y-78461842D02*
X64753542Y-78318985D01*
X64753542Y-78318985D02*
X64824970Y-78176128D01*
X64824970Y-78176128D02*
X64967828Y-78104700D01*
X64967828Y-78104700D02*
X65324970Y-78104700D01*
X65324970Y-78104700D02*
X65467828Y-78033271D01*
X65967828Y-77676128D02*
X66539256Y-77676128D01*
X66182113Y-77176128D02*
X66182113Y-78461842D01*
X66182113Y-78461842D02*
X66253542Y-78604700D01*
X66253542Y-78604700D02*
X66396399Y-78676128D01*
X66396399Y-78676128D02*
X66539256Y-78676128D01*
X66824971Y-77676128D02*
X67396399Y-77676128D01*
X67039256Y-77176128D02*
X67039256Y-78461842D01*
X67039256Y-78461842D02*
X67110685Y-78604700D01*
X67110685Y-78604700D02*
X67253542Y-78676128D01*
X67253542Y-78676128D02*
X67396399Y-78676128D01*
X67896399Y-78676128D02*
X67896399Y-77176128D01*
X68539257Y-78676128D02*
X68539257Y-77890414D01*
X68539257Y-77890414D02*
X68467828Y-77747557D01*
X68467828Y-77747557D02*
X68324971Y-77676128D01*
X68324971Y-77676128D02*
X68110685Y-77676128D01*
X68110685Y-77676128D02*
X67967828Y-77747557D01*
X67967828Y-77747557D02*
X67896399Y-77818985D01*
X69253542Y-78676128D02*
X69253542Y-77676128D01*
X69253542Y-77176128D02*
X69182114Y-77247557D01*
X69182114Y-77247557D02*
X69253542Y-77318985D01*
X69253542Y-77318985D02*
X69324971Y-77247557D01*
X69324971Y-77247557D02*
X69253542Y-77176128D01*
X69253542Y-77176128D02*
X69253542Y-77318985D01*
X70539257Y-78604700D02*
X70396400Y-78676128D01*
X70396400Y-78676128D02*
X70110686Y-78676128D01*
X70110686Y-78676128D02*
X69967828Y-78604700D01*
X69967828Y-78604700D02*
X69896400Y-78461842D01*
X69896400Y-78461842D02*
X69896400Y-77890414D01*
X69896400Y-77890414D02*
X69967828Y-77747557D01*
X69967828Y-77747557D02*
X70110686Y-77676128D01*
X70110686Y-77676128D02*
X70396400Y-77676128D01*
X70396400Y-77676128D02*
X70539257Y-77747557D01*
X70539257Y-77747557D02*
X70610686Y-77890414D01*
X70610686Y-77890414D02*
X70610686Y-78033271D01*
X70610686Y-78033271D02*
X69896400Y-78176128D01*
X71896400Y-77676128D02*
X71896400Y-78676128D01*
X71253542Y-77676128D02*
X71253542Y-78461842D01*
X71253542Y-78461842D02*
X71324971Y-78604700D01*
X71324971Y-78604700D02*
X71467828Y-78676128D01*
X71467828Y-78676128D02*
X71682114Y-78676128D01*
X71682114Y-78676128D02*
X71824971Y-78604700D01*
X71824971Y-78604700D02*
X71896400Y-78533271D01*
X73753542Y-78676128D02*
X73753542Y-77176128D01*
X73753542Y-77176128D02*
X74253542Y-78247557D01*
X74253542Y-78247557D02*
X74753542Y-77176128D01*
X74753542Y-77176128D02*
X74753542Y-78676128D01*
X76039257Y-78604700D02*
X75896400Y-78676128D01*
X75896400Y-78676128D02*
X75610686Y-78676128D01*
X75610686Y-78676128D02*
X75467828Y-78604700D01*
X75467828Y-78604700D02*
X75396400Y-78461842D01*
X75396400Y-78461842D02*
X75396400Y-77890414D01*
X75396400Y-77890414D02*
X75467828Y-77747557D01*
X75467828Y-77747557D02*
X75610686Y-77676128D01*
X75610686Y-77676128D02*
X75896400Y-77676128D01*
X75896400Y-77676128D02*
X76039257Y-77747557D01*
X76039257Y-77747557D02*
X76110686Y-77890414D01*
X76110686Y-77890414D02*
X76110686Y-78033271D01*
X76110686Y-78033271D02*
X75396400Y-78176128D01*
X76682114Y-78604700D02*
X76824971Y-78676128D01*
X76824971Y-78676128D02*
X77110685Y-78676128D01*
X77110685Y-78676128D02*
X77253542Y-78604700D01*
X77253542Y-78604700D02*
X77324971Y-78461842D01*
X77324971Y-78461842D02*
X77324971Y-78390414D01*
X77324971Y-78390414D02*
X77253542Y-78247557D01*
X77253542Y-78247557D02*
X77110685Y-78176128D01*
X77110685Y-78176128D02*
X76896400Y-78176128D01*
X76896400Y-78176128D02*
X76753542Y-78104700D01*
X76753542Y-78104700D02*
X76682114Y-77961842D01*
X76682114Y-77961842D02*
X76682114Y-77890414D01*
X76682114Y-77890414D02*
X76753542Y-77747557D01*
X76753542Y-77747557D02*
X76896400Y-77676128D01*
X76896400Y-77676128D02*
X77110685Y-77676128D01*
X77110685Y-77676128D02*
X77253542Y-77747557D01*
X77967828Y-77676128D02*
X77967828Y-78676128D01*
X77967828Y-77818985D02*
X78039257Y-77747557D01*
X78039257Y-77747557D02*
X78182114Y-77676128D01*
X78182114Y-77676128D02*
X78396400Y-77676128D01*
X78396400Y-77676128D02*
X78539257Y-77747557D01*
X78539257Y-77747557D02*
X78610686Y-77890414D01*
X78610686Y-77890414D02*
X78610686Y-78676128D01*
X79967829Y-78676128D02*
X79967829Y-77890414D01*
X79967829Y-77890414D02*
X79896400Y-77747557D01*
X79896400Y-77747557D02*
X79753543Y-77676128D01*
X79753543Y-77676128D02*
X79467829Y-77676128D01*
X79467829Y-77676128D02*
X79324971Y-77747557D01*
X79967829Y-78604700D02*
X79824971Y-78676128D01*
X79824971Y-78676128D02*
X79467829Y-78676128D01*
X79467829Y-78676128D02*
X79324971Y-78604700D01*
X79324971Y-78604700D02*
X79253543Y-78461842D01*
X79253543Y-78461842D02*
X79253543Y-78318985D01*
X79253543Y-78318985D02*
X79324971Y-78176128D01*
X79324971Y-78176128D02*
X79467829Y-78104700D01*
X79467829Y-78104700D02*
X79824971Y-78104700D01*
X79824971Y-78104700D02*
X79967829Y-78033271D01*
X81324972Y-77676128D02*
X81324972Y-78890414D01*
X81324972Y-78890414D02*
X81253543Y-79033271D01*
X81253543Y-79033271D02*
X81182114Y-79104700D01*
X81182114Y-79104700D02*
X81039257Y-79176128D01*
X81039257Y-79176128D02*
X80824972Y-79176128D01*
X80824972Y-79176128D02*
X80682114Y-79104700D01*
X81324972Y-78604700D02*
X81182114Y-78676128D01*
X81182114Y-78676128D02*
X80896400Y-78676128D01*
X80896400Y-78676128D02*
X80753543Y-78604700D01*
X80753543Y-78604700D02*
X80682114Y-78533271D01*
X80682114Y-78533271D02*
X80610686Y-78390414D01*
X80610686Y-78390414D02*
X80610686Y-77961842D01*
X80610686Y-77961842D02*
X80682114Y-77818985D01*
X80682114Y-77818985D02*
X80753543Y-77747557D01*
X80753543Y-77747557D02*
X80896400Y-77676128D01*
X80896400Y-77676128D02*
X81182114Y-77676128D01*
X81182114Y-77676128D02*
X81324972Y-77747557D01*
X82610686Y-78604700D02*
X82467829Y-78676128D01*
X82467829Y-78676128D02*
X82182115Y-78676128D01*
X82182115Y-78676128D02*
X82039257Y-78604700D01*
X82039257Y-78604700D02*
X81967829Y-78461842D01*
X81967829Y-78461842D02*
X81967829Y-77890414D01*
X81967829Y-77890414D02*
X82039257Y-77747557D01*
X82039257Y-77747557D02*
X82182115Y-77676128D01*
X82182115Y-77676128D02*
X82467829Y-77676128D01*
X82467829Y-77676128D02*
X82610686Y-77747557D01*
X82610686Y-77747557D02*
X82682115Y-77890414D01*
X82682115Y-77890414D02*
X82682115Y-78033271D01*
X82682115Y-78033271D02*
X81967829Y-78176128D01*
X83396400Y-78604700D02*
X83396400Y-78676128D01*
X83396400Y-78676128D02*
X83324971Y-78818985D01*
X83324971Y-78818985D02*
X83253543Y-78890414D01*
X85182114Y-78676128D02*
X85182114Y-77176128D01*
X85182114Y-77890414D02*
X86039257Y-77890414D01*
X86039257Y-78676128D02*
X86039257Y-77176128D01*
X87396401Y-77676128D02*
X87396401Y-78676128D01*
X86753543Y-77676128D02*
X86753543Y-78461842D01*
X86753543Y-78461842D02*
X86824972Y-78604700D01*
X86824972Y-78604700D02*
X86967829Y-78676128D01*
X86967829Y-78676128D02*
X87182115Y-78676128D01*
X87182115Y-78676128D02*
X87324972Y-78604700D01*
X87324972Y-78604700D02*
X87396401Y-78533271D01*
X88753544Y-77676128D02*
X88753544Y-78890414D01*
X88753544Y-78890414D02*
X88682115Y-79033271D01*
X88682115Y-79033271D02*
X88610686Y-79104700D01*
X88610686Y-79104700D02*
X88467829Y-79176128D01*
X88467829Y-79176128D02*
X88253544Y-79176128D01*
X88253544Y-79176128D02*
X88110686Y-79104700D01*
X88753544Y-78604700D02*
X88610686Y-78676128D01*
X88610686Y-78676128D02*
X88324972Y-78676128D01*
X88324972Y-78676128D02*
X88182115Y-78604700D01*
X88182115Y-78604700D02*
X88110686Y-78533271D01*
X88110686Y-78533271D02*
X88039258Y-78390414D01*
X88039258Y-78390414D02*
X88039258Y-77961842D01*
X88039258Y-77961842D02*
X88110686Y-77818985D01*
X88110686Y-77818985D02*
X88182115Y-77747557D01*
X88182115Y-77747557D02*
X88324972Y-77676128D01*
X88324972Y-77676128D02*
X88610686Y-77676128D01*
X88610686Y-77676128D02*
X88753544Y-77747557D01*
X89682115Y-78676128D02*
X89539258Y-78604700D01*
X89539258Y-78604700D02*
X89467829Y-78533271D01*
X89467829Y-78533271D02*
X89396401Y-78390414D01*
X89396401Y-78390414D02*
X89396401Y-77961842D01*
X89396401Y-77961842D02*
X89467829Y-77818985D01*
X89467829Y-77818985D02*
X89539258Y-77747557D01*
X89539258Y-77747557D02*
X89682115Y-77676128D01*
X89682115Y-77676128D02*
X89896401Y-77676128D01*
X89896401Y-77676128D02*
X90039258Y-77747557D01*
X90039258Y-77747557D02*
X90110687Y-77818985D01*
X90110687Y-77818985D02*
X90182115Y-77961842D01*
X90182115Y-77961842D02*
X90182115Y-78390414D01*
X90182115Y-78390414D02*
X90110687Y-78533271D01*
X90110687Y-78533271D02*
X90039258Y-78604700D01*
X90039258Y-78604700D02*
X89896401Y-78676128D01*
X89896401Y-78676128D02*
X89682115Y-78676128D01*
X92467829Y-77890414D02*
X92682115Y-77961842D01*
X92682115Y-77961842D02*
X92753544Y-78033271D01*
X92753544Y-78033271D02*
X92824972Y-78176128D01*
X92824972Y-78176128D02*
X92824972Y-78390414D01*
X92824972Y-78390414D02*
X92753544Y-78533271D01*
X92753544Y-78533271D02*
X92682115Y-78604700D01*
X92682115Y-78604700D02*
X92539258Y-78676128D01*
X92539258Y-78676128D02*
X91967829Y-78676128D01*
X91967829Y-78676128D02*
X91967829Y-77176128D01*
X91967829Y-77176128D02*
X92467829Y-77176128D01*
X92467829Y-77176128D02*
X92610687Y-77247557D01*
X92610687Y-77247557D02*
X92682115Y-77318985D01*
X92682115Y-77318985D02*
X92753544Y-77461842D01*
X92753544Y-77461842D02*
X92753544Y-77604700D01*
X92753544Y-77604700D02*
X92682115Y-77747557D01*
X92682115Y-77747557D02*
X92610687Y-77818985D01*
X92610687Y-77818985D02*
X92467829Y-77890414D01*
X92467829Y-77890414D02*
X91967829Y-77890414D01*
X94110687Y-77676128D02*
X94110687Y-78676128D01*
X93467829Y-77676128D02*
X93467829Y-78461842D01*
X93467829Y-78461842D02*
X93539258Y-78604700D01*
X93539258Y-78604700D02*
X93682115Y-78676128D01*
X93682115Y-78676128D02*
X93896401Y-78676128D01*
X93896401Y-78676128D02*
X94039258Y-78604700D01*
X94039258Y-78604700D02*
X94110687Y-78533271D01*
X94682115Y-77676128D02*
X95039258Y-78676128D01*
X95396401Y-77676128D02*
X95039258Y-78676128D01*
X95039258Y-78676128D02*
X94896401Y-79033271D01*
X94896401Y-79033271D02*
X94824972Y-79104700D01*
X94824972Y-79104700D02*
X94682115Y-79176128D01*
D10*
D11*
X50012000Y-101490000D02*
X50012000Y-104490000D01*
D10*
D11*
X114012000Y-101490000D02*
X114012000Y-107990000D01*
X39975000Y-22885000D02*
X45100000Y-22885000D01*
X45100000Y-25785000D01*
X39975000Y-25785000D01*
X39975000Y-22885000D01*
X48180000Y-22970000D02*
X53330000Y-22970000D01*
X53330000Y-25770000D01*
X48180000Y-25770000D01*
X48180000Y-22970000D01*
D12*
X59424325Y-37559828D02*
X60281468Y-37559828D01*
X59852896Y-39059828D02*
X59852896Y-37559828D01*
X60995753Y-39059828D02*
X60852896Y-38988400D01*
X60852896Y-38988400D02*
X60781467Y-38916971D01*
X60781467Y-38916971D02*
X60710039Y-38774114D01*
X60710039Y-38774114D02*
X60710039Y-38345542D01*
X60710039Y-38345542D02*
X60781467Y-38202685D01*
X60781467Y-38202685D02*
X60852896Y-38131257D01*
X60852896Y-38131257D02*
X60995753Y-38059828D01*
X60995753Y-38059828D02*
X61210039Y-38059828D01*
X61210039Y-38059828D02*
X61352896Y-38131257D01*
X61352896Y-38131257D02*
X61424325Y-38202685D01*
X61424325Y-38202685D02*
X61495753Y-38345542D01*
X61495753Y-38345542D02*
X61495753Y-38774114D01*
X61495753Y-38774114D02*
X61424325Y-38916971D01*
X61424325Y-38916971D02*
X61352896Y-38988400D01*
X61352896Y-38988400D02*
X61210039Y-39059828D01*
X61210039Y-39059828D02*
X60995753Y-39059828D01*
X62138610Y-38059828D02*
X62138610Y-39559828D01*
X62138610Y-38131257D02*
X62281468Y-38059828D01*
X62281468Y-38059828D02*
X62567182Y-38059828D01*
X62567182Y-38059828D02*
X62710039Y-38131257D01*
X62710039Y-38131257D02*
X62781468Y-38202685D01*
X62781468Y-38202685D02*
X62852896Y-38345542D01*
X62852896Y-38345542D02*
X62852896Y-38774114D01*
X62852896Y-38774114D02*
X62781468Y-38916971D01*
X62781468Y-38916971D02*
X62710039Y-38988400D01*
X62710039Y-38988400D02*
X62567182Y-39059828D01*
X62567182Y-39059828D02*
X62281468Y-39059828D01*
X62281468Y-39059828D02*
X62138610Y-38988400D01*
X64567182Y-38988400D02*
X64781468Y-39059828D01*
X64781468Y-39059828D02*
X65138610Y-39059828D01*
X65138610Y-39059828D02*
X65281468Y-38988400D01*
X65281468Y-38988400D02*
X65352896Y-38916971D01*
X65352896Y-38916971D02*
X65424325Y-38774114D01*
X65424325Y-38774114D02*
X65424325Y-38631257D01*
X65424325Y-38631257D02*
X65352896Y-38488400D01*
X65352896Y-38488400D02*
X65281468Y-38416971D01*
X65281468Y-38416971D02*
X65138610Y-38345542D01*
X65138610Y-38345542D02*
X64852896Y-38274114D01*
X64852896Y-38274114D02*
X64710039Y-38202685D01*
X64710039Y-38202685D02*
X64638610Y-38131257D01*
X64638610Y-38131257D02*
X64567182Y-37988400D01*
X64567182Y-37988400D02*
X64567182Y-37845542D01*
X64567182Y-37845542D02*
X64638610Y-37702685D01*
X64638610Y-37702685D02*
X64710039Y-37631257D01*
X64710039Y-37631257D02*
X64852896Y-37559828D01*
X64852896Y-37559828D02*
X65210039Y-37559828D01*
X65210039Y-37559828D02*
X65424325Y-37631257D01*
X66067181Y-39059828D02*
X66067181Y-38059828D01*
X66067181Y-37559828D02*
X65995753Y-37631257D01*
X65995753Y-37631257D02*
X66067181Y-37702685D01*
X66067181Y-37702685D02*
X66138610Y-37631257D01*
X66138610Y-37631257D02*
X66067181Y-37559828D01*
X66067181Y-37559828D02*
X66067181Y-37702685D01*
X66995753Y-39059828D02*
X66852896Y-38988400D01*
X66852896Y-38988400D02*
X66781467Y-38845542D01*
X66781467Y-38845542D02*
X66781467Y-37559828D01*
X67567181Y-39059828D02*
X67567181Y-37559828D01*
X67710039Y-38488400D02*
X68138610Y-39059828D01*
X68138610Y-38059828D02*
X67567181Y-38631257D01*
X68710039Y-38988400D02*
X68852896Y-39059828D01*
X68852896Y-39059828D02*
X69138610Y-39059828D01*
X69138610Y-39059828D02*
X69281467Y-38988400D01*
X69281467Y-38988400D02*
X69352896Y-38845542D01*
X69352896Y-38845542D02*
X69352896Y-38774114D01*
X69352896Y-38774114D02*
X69281467Y-38631257D01*
X69281467Y-38631257D02*
X69138610Y-38559828D01*
X69138610Y-38559828D02*
X68924325Y-38559828D01*
X68924325Y-38559828D02*
X68781467Y-38488400D01*
X68781467Y-38488400D02*
X68710039Y-38345542D01*
X68710039Y-38345542D02*
X68710039Y-38274114D01*
X68710039Y-38274114D02*
X68781467Y-38131257D01*
X68781467Y-38131257D02*
X68924325Y-38059828D01*
X68924325Y-38059828D02*
X69138610Y-38059828D01*
X69138610Y-38059828D02*
X69281467Y-38131257D01*
X70638611Y-38988400D02*
X70495753Y-39059828D01*
X70495753Y-39059828D02*
X70210039Y-39059828D01*
X70210039Y-39059828D02*
X70067182Y-38988400D01*
X70067182Y-38988400D02*
X69995753Y-38916971D01*
X69995753Y-38916971D02*
X69924325Y-38774114D01*
X69924325Y-38774114D02*
X69924325Y-38345542D01*
X69924325Y-38345542D02*
X69995753Y-38202685D01*
X69995753Y-38202685D02*
X70067182Y-38131257D01*
X70067182Y-38131257D02*
X70210039Y-38059828D01*
X70210039Y-38059828D02*
X70495753Y-38059828D01*
X70495753Y-38059828D02*
X70638611Y-38131257D01*
X71281467Y-39059828D02*
X71281467Y-38059828D01*
X71281467Y-38345542D02*
X71352896Y-38202685D01*
X71352896Y-38202685D02*
X71424325Y-38131257D01*
X71424325Y-38131257D02*
X71567182Y-38059828D01*
X71567182Y-38059828D02*
X71710039Y-38059828D01*
X72781467Y-38988400D02*
X72638610Y-39059828D01*
X72638610Y-39059828D02*
X72352896Y-39059828D01*
X72352896Y-39059828D02*
X72210038Y-38988400D01*
X72210038Y-38988400D02*
X72138610Y-38845542D01*
X72138610Y-38845542D02*
X72138610Y-38274114D01*
X72138610Y-38274114D02*
X72210038Y-38131257D01*
X72210038Y-38131257D02*
X72352896Y-38059828D01*
X72352896Y-38059828D02*
X72638610Y-38059828D01*
X72638610Y-38059828D02*
X72781467Y-38131257D01*
X72781467Y-38131257D02*
X72852896Y-38274114D01*
X72852896Y-38274114D02*
X72852896Y-38416971D01*
X72852896Y-38416971D02*
X72138610Y-38559828D01*
X74067181Y-38988400D02*
X73924324Y-39059828D01*
X73924324Y-39059828D02*
X73638610Y-39059828D01*
X73638610Y-39059828D02*
X73495752Y-38988400D01*
X73495752Y-38988400D02*
X73424324Y-38845542D01*
X73424324Y-38845542D02*
X73424324Y-38274114D01*
X73424324Y-38274114D02*
X73495752Y-38131257D01*
X73495752Y-38131257D02*
X73638610Y-38059828D01*
X73638610Y-38059828D02*
X73924324Y-38059828D01*
X73924324Y-38059828D02*
X74067181Y-38131257D01*
X74067181Y-38131257D02*
X74138610Y-38274114D01*
X74138610Y-38274114D02*
X74138610Y-38416971D01*
X74138610Y-38416971D02*
X73424324Y-38559828D01*
X74781466Y-38059828D02*
X74781466Y-39059828D01*
X74781466Y-38202685D02*
X74852895Y-38131257D01*
X74852895Y-38131257D02*
X74995752Y-38059828D01*
X74995752Y-38059828D02*
X75210038Y-38059828D01*
X75210038Y-38059828D02*
X75352895Y-38131257D01*
X75352895Y-38131257D02*
X75424324Y-38274114D01*
X75424324Y-38274114D02*
X75424324Y-39059828D01*
D11*
G36*
X46073625Y-25234218D02*
G01*
X46086174Y-25234985D01*
X46098476Y-25236263D01*
X46110531Y-25238053D01*
X46122339Y-25240355D01*
X46133899Y-25243167D01*
X46145212Y-25246491D01*
X46156278Y-25250327D01*
X46167096Y-25254673D01*
X46177668Y-25259531D01*
X46187991Y-25264901D01*
X46198068Y-25270782D01*
X46207897Y-25277174D01*
X46217479Y-25284078D01*
X46226814Y-25291493D01*
X46235901Y-25299419D01*
X46244585Y-25308013D01*
X46252708Y-25317429D01*
X46260271Y-25327668D01*
X46267274Y-25338730D01*
X46273717Y-25350615D01*
X46279599Y-25363322D01*
X46284921Y-25376853D01*
X46289683Y-25391206D01*
X46293885Y-25406382D01*
X46295776Y-25414278D01*
X46297527Y-25422380D01*
X46299137Y-25430688D01*
X46300608Y-25439202D01*
X46301938Y-25447921D01*
X46303129Y-25456846D01*
X46304179Y-25465977D01*
X46305090Y-25475313D01*
X46305860Y-25484855D01*
X46306490Y-25494603D01*
X46306981Y-25504556D01*
X46307331Y-25514716D01*
X46307541Y-25525080D01*
X46307611Y-25535651D01*
X46307611Y-25742378D01*
X46639000Y-25742378D01*
X46639000Y-25849063D01*
X45826159Y-25849063D01*
X45826159Y-25545030D01*
X45826187Y-25536237D01*
X45919949Y-25536237D01*
X45919949Y-25742378D01*
X46213822Y-25742378D01*
X46213822Y-25534088D01*
X46213668Y-25521402D01*
X46213208Y-25509184D01*
X46212441Y-25497435D01*
X46211367Y-25486155D01*
X46209986Y-25475344D01*
X46208299Y-25465001D01*
X46206304Y-25455126D01*
X46204003Y-25445721D01*
X46201395Y-25436784D01*
X46198480Y-25428315D01*
X46195258Y-25420316D01*
X46191730Y-25412785D01*
X46187894Y-25405722D01*
X46181566Y-25396007D01*
X46174547Y-25387347D01*
X46166903Y-25379595D01*
X46158700Y-25372605D01*
X46149936Y-25366378D01*
X46140613Y-25360914D01*
X46130730Y-25356212D01*
X46120286Y-25352272D01*
X46109284Y-25349095D01*
X46101637Y-25347400D01*
X46093742Y-25346045D01*
X46085598Y-25345028D01*
X46077205Y-25344350D01*
X46068564Y-25344012D01*
X46064150Y-25343969D01*
X46054608Y-25344194D01*
X46045328Y-25344869D01*
X46036308Y-25345994D01*
X46027550Y-25347569D01*
X46019052Y-25349593D01*
X46010816Y-25352068D01*
X46002841Y-25354993D01*
X45995127Y-25358367D01*
X45987673Y-25362192D01*
X45980481Y-25366466D01*
X45975831Y-25369566D01*
X45969162Y-25374473D01*
X45962928Y-25379668D01*
X45957131Y-25385152D01*
X45951770Y-25390925D01*
X45945301Y-25399070D01*
X45939607Y-25407729D01*
X45934689Y-25416900D01*
X45931509Y-25424115D01*
X45928765Y-25431619D01*
X45927178Y-25436782D01*
X45925095Y-25446319D01*
X45923683Y-25455550D01*
X45922773Y-25463407D01*
X45921989Y-25472064D01*
X45921332Y-25481521D01*
X45920803Y-25491779D01*
X45920400Y-25502837D01*
X45920203Y-25510654D01*
X45920062Y-25518826D01*
X45919977Y-25527354D01*
X45919949Y-25536237D01*
X45826187Y-25536237D01*
X45826190Y-25535163D01*
X45826281Y-25525591D01*
X45826434Y-25516314D01*
X45826648Y-25507331D01*
X45826923Y-25498643D01*
X45827258Y-25490249D01*
X45827655Y-25482150D01*
X45828113Y-25474346D01*
X45828915Y-25463192D01*
X45829853Y-25452701D01*
X45830930Y-25442873D01*
X45832143Y-25433707D01*
X45833494Y-25425205D01*
X45833975Y-25422518D01*
X45836002Y-25411550D01*
X45838344Y-25400923D01*
X45841002Y-25390635D01*
X45843977Y-25380688D01*
X45847267Y-25371081D01*
X45850874Y-25361813D01*
X45854796Y-25352886D01*
X45859034Y-25344299D01*
X45863589Y-25336052D01*
X45868459Y-25328145D01*
X45871882Y-25323062D01*
X45877318Y-25315689D01*
X45883150Y-25308591D01*
X45889376Y-25301767D01*
X45895997Y-25295218D01*
X45903014Y-25288944D01*
X45910425Y-25282945D01*
X45918232Y-25277221D01*
X45926433Y-25271771D01*
X45935030Y-25266596D01*
X45944021Y-25261696D01*
X45950235Y-25258582D01*
X45959740Y-25254182D01*
X45969423Y-25250215D01*
X45979285Y-25246681D01*
X45989326Y-25243579D01*
X45999545Y-25240911D01*
X46009943Y-25238675D01*
X46020519Y-25236871D01*
X46031274Y-25235501D01*
X46042208Y-25234563D01*
X46053320Y-25234058D01*
X46060828Y-25233962D01*
X46073625Y-25234218D01*
G37*
G36*
X46372872Y-25138805D02*
G01*
X46363884Y-25038373D01*
X46371685Y-25037396D01*
X46383054Y-25035655D01*
X46394024Y-25033585D01*
X46404596Y-25031186D01*
X46414769Y-25028456D01*
X46424544Y-25025397D01*
X46433921Y-25022008D01*
X46442899Y-25018290D01*
X46451479Y-25014241D01*
X46459660Y-25009863D01*
X46467443Y-25005156D01*
X46474891Y-24999994D01*
X46482068Y-24994327D01*
X46488974Y-24988156D01*
X46495608Y-24981479D01*
X46501970Y-24974298D01*
X46508062Y-24966612D01*
X46513882Y-24958421D01*
X46519430Y-24949725D01*
X46524708Y-24940524D01*
X46529714Y-24930818D01*
X46532900Y-24924067D01*
X46537335Y-24913617D01*
X46541334Y-24902930D01*
X46544896Y-24892006D01*
X46548022Y-24880845D01*
X46550712Y-24869447D01*
X46552263Y-24861717D01*
X46553620Y-24853881D01*
X46554783Y-24845940D01*
X46555753Y-24837894D01*
X46556528Y-24829742D01*
X46557110Y-24821486D01*
X46557497Y-24813123D01*
X46557691Y-24804656D01*
X46557715Y-24800382D01*
X46557556Y-24789077D01*
X46557077Y-24778023D01*
X46556278Y-24767219D01*
X46555160Y-24756666D01*
X46553723Y-24746364D01*
X46551966Y-24736312D01*
X46549890Y-24726511D01*
X46547494Y-24716961D01*
X46544779Y-24707662D01*
X46541744Y-24698613D01*
X46539544Y-24692720D01*
X46535981Y-24684140D01*
X46532182Y-24675986D01*
X46528146Y-24668258D01*
X46523873Y-24660956D01*
X46519362Y-24654080D01*
X46514615Y-24647630D01*
X46509631Y-24641605D01*
X46502616Y-24634235D01*
X46495181Y-24627623D01*
X46489327Y-24623160D01*
X46481228Y-24617802D01*
X46472951Y-24613158D01*
X46464497Y-24609229D01*
X46455866Y-24606014D01*
X46447058Y-24603513D01*
X46438073Y-24601727D01*
X46428911Y-24600656D01*
X46419572Y-24600299D01*
X46410196Y-24600644D01*
X46401119Y-24601679D01*
X46392342Y-24603404D01*
X46383863Y-24605819D01*
X46375684Y-24608923D01*
X46367804Y-24612718D01*
X46360224Y-24617203D01*
X46352942Y-24622378D01*
X46345908Y-24628298D01*
X46339167Y-24635115D01*
X46332719Y-24642830D01*
X46328075Y-24649206D01*
X46323596Y-24656086D01*
X46319283Y-24663471D01*
X46315133Y-24671361D01*
X46311149Y-24679756D01*
X46307330Y-24688656D01*
X46304875Y-24694869D01*
X46301480Y-24704206D01*
X46298646Y-24712819D01*
X46295564Y-24722812D01*
X46292234Y-24734187D01*
X46289877Y-24742537D01*
X46287410Y-24751501D01*
X46284834Y-24761078D01*
X46282147Y-24771269D01*
X46279350Y-24782074D01*
X46276444Y-24793492D01*
X46273427Y-24805524D01*
X46270301Y-24818170D01*
X46267065Y-24831429D01*
X46265406Y-24838289D01*
X46262047Y-24851902D01*
X46258713Y-24864997D01*
X46255404Y-24877572D01*
X46252119Y-24889629D01*
X46248858Y-24901166D01*
X46245622Y-24912185D01*
X46242410Y-24922684D01*
X46239223Y-24932664D01*
X46236060Y-24942126D01*
X46232921Y-24951068D01*
X46229807Y-24959491D01*
X46226718Y-24967396D01*
X46223652Y-24974781D01*
X46219100Y-24984886D01*
X46214603Y-24993823D01*
X46210712Y-25000913D01*
X46206708Y-25007775D01*
X46200490Y-25017638D01*
X46194018Y-25026986D01*
X46187292Y-25035819D01*
X46180311Y-25044137D01*
X46173077Y-25051939D01*
X46165588Y-25059226D01*
X46157845Y-25065998D01*
X46149848Y-25072255D01*
X46141597Y-25077997D01*
X46138790Y-25079796D01*
X46130231Y-25084859D01*
X46121479Y-25089425D01*
X46112536Y-25093492D01*
X46103399Y-25097061D01*
X46094071Y-25100132D01*
X46084550Y-25102705D01*
X46074837Y-25104780D01*
X46064931Y-25106358D01*
X46054833Y-25107437D01*
X46044543Y-25108018D01*
X46037576Y-25108128D01*
X46026108Y-25107824D01*
X46014783Y-25106912D01*
X46003604Y-25105393D01*
X45992568Y-25103265D01*
X45981677Y-25100529D01*
X45970930Y-25097185D01*
X45960327Y-25093234D01*
X45949868Y-25088674D01*
X45939554Y-25083507D01*
X45929384Y-25077732D01*
X45922684Y-25073544D01*
X45916093Y-25069072D01*
X45909703Y-25064354D01*
X45903514Y-25059388D01*
X45897527Y-25054175D01*
X45891742Y-25048715D01*
X45886158Y-25043007D01*
X45880775Y-25037052D01*
X45875594Y-25030850D01*
X45870615Y-25024400D01*
X45865837Y-25017704D01*
X45861260Y-25010759D01*
X45856885Y-25003568D01*
X45852712Y-24996129D01*
X45848740Y-24988443D01*
X45844969Y-24980510D01*
X45841400Y-24972329D01*
X45838040Y-24963966D01*
X45834897Y-24955486D01*
X45831971Y-24946888D01*
X45829261Y-24938172D01*
X45826768Y-24929339D01*
X45824492Y-24920388D01*
X45822433Y-24911320D01*
X45820591Y-24902134D01*
X45818965Y-24892831D01*
X45817556Y-24883410D01*
X45816364Y-24873871D01*
X45815388Y-24864215D01*
X45814630Y-24854442D01*
X45814088Y-24844551D01*
X45813762Y-24834542D01*
X45813654Y-24824416D01*
X45813768Y-24813312D01*
X45814109Y-24802373D01*
X45814678Y-24791599D01*
X45815474Y-24780989D01*
X45816497Y-24770545D01*
X45817748Y-24760265D01*
X45819227Y-24750151D01*
X45820933Y-24740201D01*
X45822866Y-24730416D01*
X45825027Y-24720796D01*
X45827415Y-24711341D01*
X45830031Y-24702050D01*
X45832874Y-24692925D01*
X45835944Y-24683964D01*
X45839242Y-24675168D01*
X45842768Y-24666537D01*
X45846490Y-24658112D01*
X45850428Y-24649935D01*
X45854581Y-24642005D01*
X45858949Y-24634322D01*
X45863532Y-24626886D01*
X45868331Y-24619698D01*
X45873345Y-24612757D01*
X45878574Y-24606063D01*
X45884018Y-24599616D01*
X45889678Y-24593417D01*
X45895553Y-24587465D01*
X45901643Y-24581761D01*
X45907948Y-24576303D01*
X45914468Y-24571093D01*
X45921204Y-24566131D01*
X45928155Y-24561415D01*
X45935272Y-24556933D01*
X45942504Y-24552717D01*
X45949853Y-24548769D01*
X45957318Y-24545088D01*
X45964898Y-24541673D01*
X45972595Y-24538527D01*
X45980408Y-24535647D01*
X45988337Y-24533034D01*
X45996381Y-24530689D01*
X46004542Y-24528610D01*
X46012819Y-24526799D01*
X46021212Y-24525255D01*
X46029720Y-24523978D01*
X46038345Y-24522968D01*
X46047086Y-24522226D01*
X46055943Y-24521750D01*
X46063759Y-24623941D01*
X46054235Y-24625121D01*
X46045007Y-24626610D01*
X46036075Y-24628406D01*
X46027440Y-24630511D01*
X46019100Y-24632925D01*
X46011057Y-24635647D01*
X46003310Y-24638677D01*
X45995859Y-24642015D01*
X45988704Y-24645662D01*
X45981846Y-24649617D01*
X45975283Y-24653881D01*
X45965995Y-24660854D01*
X45957373Y-24668522D01*
X45949417Y-24676883D01*
X45946913Y-24679824D01*
X45939859Y-24689125D01*
X45935542Y-24695769D01*
X45931534Y-24702766D01*
X45927833Y-24710118D01*
X45924441Y-24717824D01*
X45921358Y-24725884D01*
X45918583Y-24734298D01*
X45916116Y-24743066D01*
X45913957Y-24752189D01*
X45912107Y-24761665D01*
X45910565Y-24771496D01*
X45909332Y-24781681D01*
X45908407Y-24792220D01*
X45907790Y-24803113D01*
X45907482Y-24814361D01*
X45907443Y-24820117D01*
X45907583Y-24832003D01*
X45908002Y-24843479D01*
X45908700Y-24854546D01*
X45909678Y-24865204D01*
X45910935Y-24875453D01*
X45912472Y-24885293D01*
X45914287Y-24894724D01*
X45916383Y-24903746D01*
X45918757Y-24912359D01*
X45921411Y-24920562D01*
X45924344Y-24928356D01*
X45927557Y-24935742D01*
X45932899Y-24946053D01*
X45938871Y-24955443D01*
X45943200Y-24961192D01*
X45949999Y-24969084D01*
X45957058Y-24976199D01*
X45964379Y-24982538D01*
X45971960Y-24988101D01*
X45979803Y-24992888D01*
X45987906Y-24996899D01*
X45996271Y-25000133D01*
X46004896Y-25002591D01*
X46013783Y-25004273D01*
X46022931Y-25005178D01*
X46029174Y-25005351D01*
X46037243Y-25005074D01*
X46045038Y-25004245D01*
X46055003Y-25002279D01*
X46064479Y-24999330D01*
X46073467Y-24995397D01*
X46081967Y-24990482D01*
X46089978Y-24984583D01*
X46097501Y-24977702D01*
X46101079Y-24973892D01*
X46106368Y-24967268D01*
X46111685Y-24958899D01*
X46117030Y-24948785D01*
X46120608Y-24941073D01*
X46124198Y-24932586D01*
X46127801Y-24923323D01*
X46131416Y-24913284D01*
X46135043Y-24902471D01*
X46138682Y-24890881D01*
X46142333Y-24878516D01*
X46145997Y-24865376D01*
X46149673Y-24851460D01*
X46153361Y-24836769D01*
X46155209Y-24829133D01*
X46157061Y-24821303D01*
X46158916Y-24813278D01*
X46160753Y-24805237D01*
X46162576Y-24797355D01*
X46164384Y-24789631D01*
X46167959Y-24774662D01*
X46171478Y-24760330D01*
X46174940Y-24746634D01*
X46178346Y-24733574D01*
X46181695Y-24721152D01*
X46184988Y-24709365D01*
X46188224Y-24698216D01*
X46191404Y-24687703D01*
X46194527Y-24677826D01*
X46197594Y-24668586D01*
X46200604Y-24659983D01*
X46203558Y-24652016D01*
X46206455Y-24644685D01*
X46210695Y-24634883D01*
X46214842Y-24626235D01*
X46219125Y-24617875D01*
X46223543Y-24609803D01*
X46228098Y-24602021D01*
X46232788Y-24594526D01*
X46237614Y-24587320D01*
X46242576Y-24580403D01*
X46247674Y-24573774D01*
X46252907Y-24567433D01*
X46258277Y-24561382D01*
X46263782Y-24555618D01*
X46269423Y-24550143D01*
X46278140Y-24542472D01*
X46287162Y-24535450D01*
X46293347Y-24531129D01*
X46302860Y-24525123D01*
X46312641Y-24519708D01*
X46322689Y-24514883D01*
X46333006Y-24510649D01*
X46343590Y-24507006D01*
X46354443Y-24503954D01*
X46365563Y-24501492D01*
X46376951Y-24499622D01*
X46388607Y-24498342D01*
X46396527Y-24497817D01*
X46404566Y-24497554D01*
X46408630Y-24497521D01*
X46416685Y-24497665D01*
X46424683Y-24498098D01*
X46432622Y-24498820D01*
X46440503Y-24499829D01*
X46448327Y-24501128D01*
X46456092Y-24502714D01*
X46463800Y-24504590D01*
X46471449Y-24506754D01*
X46479040Y-24509206D01*
X46486574Y-24511947D01*
X46494049Y-24514976D01*
X46501466Y-24518294D01*
X46508826Y-24521900D01*
X46516127Y-24525795D01*
X46523370Y-24529979D01*
X46530556Y-24534451D01*
X46537613Y-24539168D01*
X46544471Y-24544138D01*
X46551132Y-24549359D01*
X46557593Y-24554833D01*
X46563857Y-24560558D01*
X46569922Y-24566535D01*
X46575788Y-24572764D01*
X46581456Y-24579245D01*
X46586925Y-24585978D01*
X46592196Y-24592962D01*
X46597269Y-24600199D01*
X46602143Y-24607687D01*
X46606819Y-24615427D01*
X46611296Y-24623419D01*
X46615575Y-24631663D01*
X46619655Y-24640159D01*
X46623512Y-24648848D01*
X46627120Y-24657671D01*
X46630479Y-24666629D01*
X46633590Y-24675721D01*
X46636451Y-24684947D01*
X46639064Y-24694308D01*
X46641427Y-24703803D01*
X46643542Y-24713432D01*
X46645409Y-24723196D01*
X46647026Y-24733093D01*
X46648394Y-24743126D01*
X46649514Y-24753292D01*
X46650385Y-24763593D01*
X46651007Y-24774029D01*
X46651380Y-24784598D01*
X46651505Y-24795302D01*
X46651377Y-24808842D01*
X46650995Y-24822105D01*
X46650358Y-24835092D01*
X46649465Y-24847802D01*
X46648318Y-24860236D01*
X46646916Y-24872394D01*
X46645259Y-24884276D01*
X46643347Y-24895881D01*
X46641180Y-24907210D01*
X46638758Y-24918263D01*
X46636082Y-24929040D01*
X46633150Y-24939540D01*
X46629963Y-24949764D01*
X46626522Y-24959711D01*
X46622825Y-24969382D01*
X46618874Y-24978777D01*
X46614668Y-24987885D01*
X46610206Y-24996744D01*
X46605490Y-25005355D01*
X46600519Y-25013716D01*
X46595293Y-25021829D01*
X46589812Y-25029693D01*
X46584076Y-25037308D01*
X46578085Y-25044674D01*
X46571840Y-25051791D01*
X46565339Y-25058660D01*
X46558583Y-25065280D01*
X46551573Y-25071651D01*
X46544307Y-25077773D01*
X46536787Y-25083646D01*
X46529012Y-25089271D01*
X46520981Y-25094646D01*
X46512732Y-25099742D01*
X46504348Y-25104526D01*
X46495830Y-25108998D01*
X46487178Y-25113160D01*
X46478392Y-25117010D01*
X46469471Y-25120548D01*
X46460415Y-25123775D01*
X46451226Y-25126691D01*
X46441902Y-25129295D01*
X46432443Y-25131588D01*
X46422851Y-25133569D01*
X46413124Y-25135239D01*
X46403262Y-25136598D01*
X46393267Y-25137645D01*
X46383137Y-25138381D01*
X46372872Y-25138805D01*
G37*
G36*
X46249234Y-23618245D02*
G01*
X46264319Y-23618827D01*
X46279202Y-23619796D01*
X46293884Y-23621153D01*
X46308365Y-23622898D01*
X46322644Y-23625031D01*
X46336721Y-23627551D01*
X46350598Y-23630459D01*
X46364272Y-23633755D01*
X46377745Y-23637438D01*
X46391017Y-23641510D01*
X46404087Y-23645969D01*
X46416955Y-23650815D01*
X46429622Y-23656050D01*
X46442088Y-23661672D01*
X46454352Y-23667682D01*
X46466307Y-23674022D01*
X46477894Y-23680685D01*
X46489113Y-23687669D01*
X46499964Y-23694976D01*
X46510448Y-23702605D01*
X46520563Y-23710556D01*
X46530311Y-23718828D01*
X46539690Y-23727424D01*
X46548702Y-23736341D01*
X46557346Y-23745580D01*
X46565622Y-23755141D01*
X46573530Y-23765025D01*
X46581070Y-23775230D01*
X46588243Y-23785758D01*
X46595047Y-23796608D01*
X46601484Y-23807779D01*
X46607541Y-23819168D01*
X46613207Y-23830668D01*
X46618483Y-23842279D01*
X46623368Y-23854002D01*
X46627862Y-23865837D01*
X46631965Y-23877782D01*
X46635678Y-23889840D01*
X46639000Y-23902008D01*
X46641930Y-23914288D01*
X46644471Y-23926680D01*
X46646620Y-23939183D01*
X46648378Y-23951797D01*
X46649746Y-23964523D01*
X46650723Y-23977360D01*
X46651309Y-23990309D01*
X46651505Y-24003369D01*
X46651289Y-24017490D01*
X46650644Y-24031423D01*
X46649568Y-24045169D01*
X46648061Y-24058727D01*
X46646124Y-24072097D01*
X46643756Y-24085279D01*
X46640958Y-24098273D01*
X46637729Y-24111080D01*
X46634070Y-24123699D01*
X46629981Y-24136130D01*
X46625461Y-24148374D01*
X46620510Y-24160429D01*
X46615129Y-24172297D01*
X46609318Y-24183978D01*
X46603076Y-24195470D01*
X46596404Y-24206775D01*
X46589334Y-24217792D01*
X46581950Y-24228472D01*
X46574252Y-24238815D01*
X46566240Y-24248821D01*
X46557912Y-24258489D01*
X46549271Y-24267820D01*
X46540315Y-24276813D01*
X46531044Y-24285470D01*
X46521459Y-24293788D01*
X46511560Y-24301770D01*
X46501346Y-24309414D01*
X46490817Y-24316720D01*
X46479975Y-24323690D01*
X46468817Y-24330322D01*
X46457345Y-24336616D01*
X46445559Y-24342574D01*
X46433572Y-24348158D01*
X46421498Y-24353381D01*
X46409337Y-24358245D01*
X46397089Y-24362748D01*
X46384754Y-24366891D01*
X46372332Y-24370674D01*
X46359823Y-24374096D01*
X46347227Y-24377158D01*
X46334544Y-24379860D01*
X46321774Y-24382202D01*
X46308917Y-24384183D01*
X46295973Y-24385805D01*
X46282942Y-24387065D01*
X46269823Y-24387966D01*
X46256618Y-24388506D01*
X46243326Y-24388687D01*
X46230809Y-24388581D01*
X46218463Y-24388266D01*
X46206288Y-24387740D01*
X46194285Y-24387004D01*
X46182453Y-24386058D01*
X46170793Y-24384902D01*
X46159304Y-24383535D01*
X46147986Y-24381958D01*
X46136839Y-24380170D01*
X46125864Y-24378173D01*
X46115061Y-24375965D01*
X46104428Y-24373547D01*
X46093967Y-24370918D01*
X46083678Y-24368079D01*
X46073559Y-24365030D01*
X46063612Y-24361771D01*
X46053837Y-24358301D01*
X46044232Y-24354622D01*
X46034799Y-24350731D01*
X46025538Y-24346631D01*
X46016448Y-24342320D01*
X46007529Y-24337799D01*
X45998781Y-24333068D01*
X45990205Y-24328127D01*
X45981800Y-24322975D01*
X45973567Y-24317613D01*
X45965505Y-24312040D01*
X45957614Y-24306258D01*
X45949894Y-24300265D01*
X45942346Y-24294062D01*
X45934970Y-24287648D01*
X45927764Y-24281024D01*
X45920744Y-24274222D01*
X45913946Y-24267298D01*
X45907372Y-24260252D01*
X45901020Y-24253083D01*
X45894891Y-24245792D01*
X45888985Y-24238380D01*
X45883301Y-24230845D01*
X45877841Y-24223188D01*
X45872604Y-24215409D01*
X45867589Y-24207507D01*
X45862797Y-24199484D01*
X45858228Y-24191338D01*
X45853882Y-24183071D01*
X45849759Y-24174681D01*
X45845859Y-24166169D01*
X45842182Y-24157535D01*
X45838727Y-24148779D01*
X45835495Y-24139901D01*
X45832487Y-24130900D01*
X45829701Y-24121778D01*
X45827138Y-24112533D01*
X45824798Y-24103167D01*
X45822680Y-24093678D01*
X45820786Y-24084067D01*
X45819114Y-24074334D01*
X45817666Y-24064479D01*
X45816440Y-24054501D01*
X45815437Y-24044402D01*
X45814657Y-24034180D01*
X45814100Y-24023837D01*
X45813766Y-24013371D01*
X45813654Y-24002783D01*
X45813663Y-24002197D01*
X45904317Y-24002197D01*
X45904624Y-24016239D01*
X45905544Y-24030034D01*
X45907078Y-24043582D01*
X45909226Y-24056883D01*
X45911988Y-24069936D01*
X45915363Y-24082742D01*
X45919352Y-24095301D01*
X45923954Y-24107612D01*
X45929170Y-24119676D01*
X45935000Y-24131493D01*
X45941443Y-24143062D01*
X45948501Y-24154384D01*
X45956171Y-24165459D01*
X45964456Y-24176287D01*
X45973354Y-24186867D01*
X45982866Y-24197200D01*
X45993070Y-24207067D01*
X46004096Y-24216297D01*
X46015944Y-24224890D01*
X46028612Y-24232847D01*
X46042102Y-24240168D01*
X46049155Y-24243589D01*
X46056413Y-24246852D01*
X46063877Y-24249955D01*
X46071546Y-24252899D01*
X46079420Y-24255684D01*
X46087499Y-24258310D01*
X46095784Y-24260776D01*
X46104274Y-24263084D01*
X46112969Y-24265232D01*
X46121870Y-24267222D01*
X46130976Y-24269052D01*
X46140288Y-24270723D01*
X46149804Y-24272234D01*
X46159526Y-24273587D01*
X46169454Y-24274781D01*
X46179586Y-24275815D01*
X46189924Y-24276690D01*
X46200468Y-24277407D01*
X46211216Y-24277964D01*
X46222170Y-24278361D01*
X46233329Y-24278600D01*
X46244694Y-24278680D01*
X46253817Y-24278603D01*
X46262817Y-24278374D01*
X46271697Y-24277991D01*
X46280454Y-24277455D01*
X46289090Y-24276767D01*
X46297604Y-24275925D01*
X46305996Y-24274930D01*
X46314266Y-24273783D01*
X46322415Y-24272482D01*
X46330442Y-24271028D01*
X46338347Y-24269421D01*
X46346131Y-24267661D01*
X46353793Y-24265748D01*
X46361333Y-24263682D01*
X46376048Y-24259091D01*
X46390276Y-24253888D01*
X46404017Y-24248073D01*
X46417271Y-24241646D01*
X46430038Y-24234606D01*
X46442318Y-24226954D01*
X46454111Y-24218691D01*
X46465417Y-24209815D01*
X46476236Y-24200327D01*
X46486481Y-24190377D01*
X46496066Y-24180118D01*
X46504989Y-24169550D01*
X46513251Y-24158671D01*
X46520852Y-24147482D01*
X46527793Y-24135984D01*
X46534072Y-24124175D01*
X46539690Y-24112057D01*
X46544648Y-24099629D01*
X46548944Y-24086891D01*
X46552580Y-24073843D01*
X46555554Y-24060485D01*
X46557867Y-24046818D01*
X46559520Y-24032840D01*
X46560511Y-24018553D01*
X46560842Y-24003955D01*
X46560508Y-23989076D01*
X46559508Y-23974530D01*
X46557840Y-23960317D01*
X46555505Y-23946436D01*
X46552503Y-23932888D01*
X46548834Y-23919673D01*
X46544498Y-23906791D01*
X46539495Y-23894241D01*
X46533825Y-23882025D01*
X46527487Y-23870141D01*
X46520483Y-23858590D01*
X46512811Y-23847371D01*
X46504473Y-23836486D01*
X46495467Y-23825933D01*
X46485794Y-23815713D01*
X46475454Y-23805825D01*
X46464502Y-23796408D01*
X46452990Y-23787599D01*
X46440920Y-23779397D01*
X46428291Y-23771802D01*
X46415104Y-23764816D01*
X46401357Y-23758436D01*
X46387052Y-23752664D01*
X46379690Y-23750006D01*
X46372189Y-23747500D01*
X46364547Y-23745146D01*
X46356766Y-23742944D01*
X46348845Y-23740893D01*
X46340785Y-23738995D01*
X46332585Y-23737248D01*
X46324245Y-23735653D01*
X46315766Y-23734210D01*
X46307147Y-23732919D01*
X46298388Y-23731780D01*
X46289490Y-23730793D01*
X46280451Y-23729957D01*
X46271274Y-23729274D01*
X46261956Y-23728742D01*
X46252499Y-23728362D01*
X46242902Y-23728135D01*
X46233166Y-23728059D01*
X46220857Y-23728188D01*
X46208744Y-23728578D01*
X46196829Y-23729226D01*
X46185111Y-23730135D01*
X46173589Y-23731302D01*
X46162265Y-23732730D01*
X46151137Y-23734417D01*
X46140207Y-23736363D01*
X46129473Y-23738569D01*
X46118936Y-23741034D01*
X46108596Y-23743759D01*
X46098453Y-23746743D01*
X46088507Y-23749987D01*
X46078758Y-23753490D01*
X46069206Y-23757253D01*
X46059851Y-23761276D01*
X46050725Y-23765548D01*
X46041859Y-23770062D01*
X46033255Y-23774817D01*
X46024912Y-23779814D01*
X46016830Y-23785051D01*
X46009009Y-23790530D01*
X46001449Y-23796250D01*
X45994150Y-23802211D01*
X45987112Y-23808413D01*
X45980335Y-23814856D01*
X45973819Y-23821541D01*
X45967564Y-23828467D01*
X45961570Y-23835634D01*
X45955837Y-23843042D01*
X45950365Y-23850691D01*
X45945154Y-23858582D01*
X45940209Y-23866653D01*
X45935583Y-23874845D01*
X45931276Y-23883158D01*
X45927288Y-23891591D01*
X45923619Y-23900145D01*
X45920269Y-23908820D01*
X45917238Y-23917615D01*
X45914526Y-23926530D01*
X45912134Y-23935567D01*
X45910060Y-23944723D01*
X45908305Y-23954001D01*
X45906869Y-23963399D01*
X45905753Y-23972917D01*
X45904955Y-23982557D01*
X45904477Y-23992316D01*
X45904317Y-24002197D01*
X45813663Y-24002197D01*
X45813863Y-23988923D01*
X45814491Y-23975235D01*
X45815536Y-23961720D01*
X45817000Y-23948378D01*
X45818882Y-23935208D01*
X45821183Y-23922210D01*
X45823902Y-23909385D01*
X45827039Y-23896733D01*
X45830594Y-23884253D01*
X45834567Y-23871945D01*
X45838959Y-23859810D01*
X45843769Y-23847847D01*
X45848998Y-23836057D01*
X45854644Y-23824440D01*
X45860709Y-23812995D01*
X45867192Y-23801722D01*
X45874050Y-23790679D01*
X45881239Y-23779969D01*
X45888760Y-23769594D01*
X45896611Y-23759554D01*
X45904794Y-23749847D01*
X45913308Y-23740475D01*
X45922154Y-23731438D01*
X45931330Y-23722734D01*
X45940838Y-23714365D01*
X45950677Y-23706330D01*
X45960848Y-23698630D01*
X45971349Y-23691263D01*
X45982182Y-23684231D01*
X45993347Y-23677534D01*
X46004842Y-23671171D01*
X46016669Y-23665142D01*
X46028737Y-23659439D01*
X46041008Y-23654105D01*
X46053479Y-23649138D01*
X46066152Y-23644540D01*
X46079027Y-23640309D01*
X46092103Y-23636446D01*
X46105381Y-23632951D01*
X46118860Y-23629824D01*
X46132541Y-23627065D01*
X46146423Y-23624674D01*
X46160506Y-23622650D01*
X46174792Y-23620995D01*
X46189278Y-23619707D01*
X46203966Y-23618787D01*
X46218856Y-23618236D01*
X46233947Y-23618052D01*
X46249234Y-23618245D01*
G37*
G36*
X46351379Y-22910724D02*
G01*
X46378344Y-22804039D01*
X46386610Y-22806192D01*
X46394754Y-22808449D01*
X46402773Y-22810811D01*
X46410669Y-22813278D01*
X46418441Y-22815849D01*
X46426090Y-22818524D01*
X46433615Y-22821304D01*
X46441016Y-22824189D01*
X46448294Y-22827178D01*
X46462478Y-22833471D01*
X46476168Y-22840181D01*
X46489363Y-22847310D01*
X46502064Y-22854857D01*
X46514270Y-22862823D01*
X46525981Y-22871206D01*
X46537198Y-22880008D01*
X46547921Y-22889228D01*
X46558148Y-22898867D01*
X46567881Y-22908923D01*
X46577120Y-22919398D01*
X46581554Y-22924793D01*
X46590024Y-22935813D01*
X46597948Y-22947138D01*
X46605326Y-22958766D01*
X46612157Y-22970698D01*
X46618442Y-22982934D01*
X46624180Y-22995474D01*
X46629372Y-23008317D01*
X46634017Y-23021464D01*
X46638116Y-23034915D01*
X46641668Y-23048670D01*
X46644674Y-23062728D01*
X46647133Y-23077090D01*
X46649046Y-23091756D01*
X46650412Y-23106726D01*
X46651231Y-23122000D01*
X46651505Y-23137577D01*
X46651453Y-23145675D01*
X46651296Y-23153678D01*
X46651036Y-23161586D01*
X46650671Y-23169399D01*
X46649629Y-23184740D01*
X46648171Y-23199700D01*
X46646295Y-23214281D01*
X46644003Y-23228481D01*
X46641295Y-23242302D01*
X46638169Y-23255742D01*
X46634627Y-23268802D01*
X46630668Y-23281482D01*
X46626292Y-23293782D01*
X46621500Y-23305702D01*
X46616290Y-23317241D01*
X46610664Y-23328401D01*
X46604622Y-23339180D01*
X46598162Y-23349580D01*
X46591308Y-23359613D01*
X46584081Y-23369342D01*
X46576482Y-23378768D01*
X46568511Y-23387889D01*
X46560167Y-23396707D01*
X46551451Y-23405221D01*
X46542362Y-23413432D01*
X46532900Y-23421338D01*
X46523067Y-23428941D01*
X46512860Y-23436240D01*
X46502282Y-23443236D01*
X46491330Y-23449927D01*
X46480007Y-23456315D01*
X46468310Y-23462399D01*
X46456242Y-23468179D01*
X46443801Y-23473655D01*
X46431091Y-23478813D01*
X46418265Y-23483639D01*
X46405323Y-23488131D01*
X46392265Y-23492291D01*
X46379092Y-23496118D01*
X46365802Y-23499612D01*
X46352396Y-23502774D01*
X46338874Y-23505602D01*
X46325236Y-23508098D01*
X46311482Y-23510261D01*
X46297612Y-23512091D01*
X46283626Y-23513589D01*
X46269524Y-23514754D01*
X46255306Y-23515586D01*
X46240972Y-23516085D01*
X46226522Y-23516251D01*
X46218640Y-23516204D01*
X46210822Y-23516063D01*
X46195375Y-23515500D01*
X46180182Y-23514561D01*
X46165242Y-23513247D01*
X46150555Y-23511557D01*
X46136122Y-23509492D01*
X46121942Y-23507051D01*
X46108016Y-23504234D01*
X46094343Y-23501042D01*
X46080923Y-23497475D01*
X46067757Y-23493532D01*
X46054844Y-23489213D01*
X46042184Y-23484519D01*
X46029778Y-23479450D01*
X46017626Y-23474005D01*
X46005727Y-23468184D01*
X45994131Y-23462017D01*
X45982890Y-23455532D01*
X45972003Y-23448730D01*
X45961470Y-23441611D01*
X45951291Y-23434173D01*
X45941466Y-23426419D01*
X45931996Y-23418346D01*
X45922879Y-23409957D01*
X45914117Y-23401249D01*
X45905709Y-23392225D01*
X45897655Y-23382882D01*
X45889956Y-23373223D01*
X45882610Y-23363245D01*
X45875618Y-23352950D01*
X45868981Y-23342338D01*
X45862698Y-23331408D01*
X45856759Y-23320226D01*
X45851203Y-23308907D01*
X45846031Y-23297451D01*
X45841241Y-23285857D01*
X45836835Y-23274126D01*
X45832812Y-23262257D01*
X45829172Y-23250251D01*
X45825915Y-23238107D01*
X45823041Y-23225827D01*
X45820551Y-23213408D01*
X45818444Y-23200853D01*
X45816719Y-23188160D01*
X45815378Y-23175329D01*
X45814420Y-23162362D01*
X45813846Y-23149256D01*
X45813654Y-23136014D01*
X45813898Y-23121046D01*
X45814628Y-23106378D01*
X45815845Y-23092011D01*
X45817550Y-23077945D01*
X45819741Y-23064180D01*
X45822419Y-23050715D01*
X45825585Y-23037551D01*
X45829237Y-23024688D01*
X45833376Y-23012126D01*
X45838002Y-22999864D01*
X45843115Y-22987903D01*
X45848715Y-22976242D01*
X45854802Y-22964883D01*
X45861376Y-22953824D01*
X45868437Y-22943066D01*
X45875985Y-22932608D01*
X45883975Y-22922497D01*
X45892361Y-22912776D01*
X45901145Y-22903446D01*
X45910325Y-22894507D01*
X45919903Y-22885958D01*
X45929877Y-22877800D01*
X45940248Y-22870033D01*
X45951016Y-22862657D01*
X45962181Y-22855672D01*
X45973743Y-22849077D01*
X45985702Y-22842874D01*
X45998057Y-22837061D01*
X46010810Y-22831638D01*
X46023959Y-22826607D01*
X46037506Y-22821966D01*
X46051449Y-22817717D01*
X46076264Y-22922839D01*
X46065220Y-22926431D01*
X46054557Y-22930221D01*
X46044276Y-22934210D01*
X46034376Y-22938397D01*
X46024858Y-22942783D01*
X46015722Y-22947367D01*
X46006968Y-22952149D01*
X45998595Y-22957130D01*
X45990603Y-22962310D01*
X45982994Y-22967688D01*
X45975766Y-22973264D01*
X45968919Y-22979039D01*
X45962454Y-22985012D01*
X45956371Y-22991184D01*
X45950670Y-22997554D01*
X45945350Y-23004123D01*
X45940381Y-23010897D01*
X45935733Y-23017886D01*
X45931405Y-23025088D01*
X45927398Y-23032504D01*
X45923711Y-23040133D01*
X45920345Y-23047977D01*
X45917300Y-23056034D01*
X45914575Y-23064304D01*
X45912171Y-23072789D01*
X45910087Y-23081487D01*
X45908324Y-23090398D01*
X45906882Y-23099524D01*
X45905760Y-23108863D01*
X45904958Y-23118416D01*
X45904477Y-23128183D01*
X45904317Y-23138163D01*
X45904493Y-23149646D01*
X45905019Y-23160893D01*
X45905897Y-23171903D01*
X45907126Y-23182676D01*
X45908706Y-23193213D01*
X45910637Y-23203513D01*
X45912919Y-23213577D01*
X45915552Y-23223404D01*
X45918537Y-23232994D01*
X45921872Y-23242348D01*
X45925559Y-23251465D01*
X45929596Y-23260346D01*
X45933985Y-23268990D01*
X45938725Y-23277397D01*
X45943816Y-23285568D01*
X45949258Y-23293502D01*
X45954995Y-23301149D01*
X45960972Y-23308507D01*
X45967189Y-23315577D01*
X45973645Y-23322359D01*
X45980341Y-23328852D01*
X45987277Y-23335057D01*
X45994453Y-23340973D01*
X46001868Y-23346600D01*
X46009522Y-23351939D01*
X46017417Y-23356990D01*
X46025551Y-23361752D01*
X46033924Y-23366225D01*
X46042538Y-23370410D01*
X46051391Y-23374306D01*
X46060484Y-23377914D01*
X46069816Y-23381234D01*
X46079287Y-23384286D01*
X46088797Y-23387141D01*
X46098344Y-23389800D01*
X46107930Y-23392261D01*
X46117554Y-23394526D01*
X46127216Y-23396594D01*
X46136916Y-23398464D01*
X46146655Y-23400138D01*
X46156431Y-23401615D01*
X46166246Y-23402895D01*
X46176099Y-23403978D01*
X46185990Y-23404864D01*
X46195919Y-23405553D01*
X46205887Y-23406046D01*
X46215892Y-23406341D01*
X46225936Y-23406440D01*
X46238802Y-23406323D01*
X46251462Y-23405972D01*
X46263917Y-23405389D01*
X46276165Y-23404571D01*
X46288206Y-23403520D01*
X46300042Y-23402236D01*
X46311672Y-23400717D01*
X46323096Y-23398966D01*
X46334313Y-23396981D01*
X46345325Y-23394762D01*
X46356130Y-23392309D01*
X46366730Y-23389623D01*
X46377123Y-23386704D01*
X46387310Y-23383551D01*
X46397291Y-23380164D01*
X46407066Y-23376544D01*
X46416562Y-23372654D01*
X46425754Y-23368506D01*
X46434642Y-23364099D01*
X46443227Y-23359435D01*
X46451507Y-23354513D01*
X46459484Y-23349333D01*
X46467157Y-23343894D01*
X46474526Y-23338198D01*
X46481592Y-23332244D01*
X46488354Y-23326032D01*
X46494811Y-23319562D01*
X46500966Y-23312834D01*
X46506816Y-23305847D01*
X46512363Y-23298603D01*
X46517605Y-23291101D01*
X46522545Y-23283341D01*
X46527182Y-23275387D01*
X46531520Y-23267352D01*
X46535560Y-23259237D01*
X46539300Y-23251040D01*
X46542740Y-23242763D01*
X46545882Y-23234404D01*
X46548724Y-23225965D01*
X46551267Y-23217444D01*
X46553511Y-23208843D01*
X46555456Y-23200161D01*
X46557102Y-23191398D01*
X46558448Y-23182554D01*
X46559495Y-23173630D01*
X46560243Y-23164624D01*
X46560692Y-23155537D01*
X46560842Y-23146370D01*
X46560636Y-23135290D01*
X46560017Y-23124425D01*
X46558987Y-23113773D01*
X46557545Y-23103334D01*
X46555690Y-23093110D01*
X46553423Y-23083099D01*
X46550744Y-23073301D01*
X46547653Y-23063718D01*
X46544149Y-23054348D01*
X46540234Y-23045192D01*
X46535906Y-23036250D01*
X46531166Y-23027521D01*
X46526014Y-23019006D01*
X46520450Y-23010705D01*
X46514474Y-23002618D01*
X46508085Y-22994744D01*
X46501291Y-22987134D01*
X46494096Y-22979839D01*
X46486502Y-22972858D01*
X46478508Y-22966192D01*
X46470113Y-22959840D01*
X46461319Y-22953803D01*
X46452125Y-22948080D01*
X46442531Y-22942671D01*
X46432536Y-22937577D01*
X46422142Y-22932798D01*
X46411348Y-22928333D01*
X46400154Y-22924182D01*
X46388561Y-22920346D01*
X46376567Y-22916824D01*
X46364173Y-22913617D01*
X46351379Y-22910724D01*
G37*
G36*
X54864000Y-25117012D02*
G01*
X54051159Y-25117012D01*
X54051159Y-25010326D01*
X54864000Y-25010326D01*
X54864000Y-25117012D01*
G37*
G36*
X54597872Y-24860264D02*
G01*
X54588884Y-24759831D01*
X54596685Y-24758854D01*
X54608054Y-24757114D01*
X54619024Y-24755044D01*
X54629596Y-24752644D01*
X54639769Y-24749915D01*
X54649544Y-24746856D01*
X54658921Y-24743467D01*
X54667899Y-24739748D01*
X54676479Y-24735700D01*
X54684660Y-24731322D01*
X54692443Y-24726614D01*
X54699891Y-24721452D01*
X54707068Y-24715786D01*
X54713974Y-24709614D01*
X54720608Y-24702938D01*
X54726970Y-24695756D01*
X54733062Y-24688070D01*
X54738882Y-24679879D01*
X54744430Y-24671183D01*
X54749708Y-24661982D01*
X54754714Y-24652276D01*
X54757900Y-24645525D01*
X54762335Y-24635075D01*
X54766334Y-24624388D01*
X54769896Y-24613464D01*
X54773022Y-24602304D01*
X54775712Y-24590906D01*
X54777263Y-24583175D01*
X54778620Y-24575340D01*
X54779783Y-24567399D01*
X54780753Y-24559352D01*
X54781528Y-24551201D01*
X54782110Y-24542944D01*
X54782497Y-24534582D01*
X54782691Y-24526114D01*
X54782715Y-24521841D01*
X54782556Y-24510536D01*
X54782077Y-24499481D01*
X54781278Y-24488677D01*
X54780160Y-24478124D01*
X54778723Y-24467822D01*
X54776966Y-24457771D01*
X54774890Y-24447970D01*
X54772494Y-24438420D01*
X54769779Y-24429120D01*
X54766744Y-24420072D01*
X54764544Y-24414179D01*
X54760981Y-24405599D01*
X54757182Y-24397445D01*
X54753146Y-24389717D01*
X54748873Y-24382415D01*
X54744362Y-24375539D01*
X54739615Y-24369088D01*
X54734631Y-24363064D01*
X54727616Y-24355694D01*
X54720181Y-24349081D01*
X54714327Y-24344618D01*
X54706228Y-24339260D01*
X54697951Y-24334616D01*
X54689497Y-24330687D01*
X54680866Y-24327472D01*
X54672058Y-24324972D01*
X54663073Y-24323186D01*
X54653911Y-24322114D01*
X54644572Y-24321757D01*
X54635196Y-24322102D01*
X54626119Y-24323137D01*
X54617342Y-24324862D01*
X54608863Y-24327277D01*
X54600684Y-24330382D01*
X54592804Y-24334177D01*
X54585224Y-24338662D01*
X54577942Y-24343837D01*
X54570908Y-24349756D01*
X54564167Y-24356574D01*
X54557719Y-24364289D01*
X54553075Y-24370664D01*
X54548596Y-24377544D01*
X54544283Y-24384930D01*
X54540133Y-24392820D01*
X54536149Y-24401214D01*
X54532330Y-24410114D01*
X54529875Y-24416328D01*
X54526480Y-24425664D01*
X54523646Y-24434277D01*
X54520564Y-24444271D01*
X54517234Y-24455645D01*
X54514877Y-24463995D01*
X54512410Y-24472959D01*
X54509834Y-24482536D01*
X54507147Y-24492727D01*
X54504350Y-24503532D01*
X54501444Y-24514950D01*
X54498427Y-24526982D01*
X54495301Y-24539628D01*
X54492065Y-24552888D01*
X54490406Y-24559747D01*
X54487047Y-24573361D01*
X54483713Y-24586455D01*
X54480404Y-24599031D01*
X54477119Y-24611087D01*
X54473858Y-24622625D01*
X54470622Y-24633643D01*
X54467410Y-24644142D01*
X54464223Y-24654123D01*
X54461060Y-24663584D01*
X54457921Y-24672526D01*
X54454807Y-24680950D01*
X54451718Y-24688854D01*
X54448652Y-24696239D01*
X54444100Y-24706344D01*
X54439603Y-24715281D01*
X54435712Y-24722372D01*
X54431708Y-24729234D01*
X54425490Y-24739097D01*
X54419018Y-24748445D01*
X54412292Y-24757278D01*
X54405311Y-24765595D01*
X54398077Y-24773398D01*
X54390588Y-24780685D01*
X54382845Y-24787457D01*
X54374848Y-24793714D01*
X54366597Y-24799455D01*
X54363790Y-24801255D01*
X54355231Y-24806318D01*
X54346479Y-24810883D01*
X54337536Y-24814950D01*
X54328399Y-24818520D01*
X54319071Y-24821591D01*
X54309550Y-24824164D01*
X54299837Y-24826239D01*
X54289931Y-24827816D01*
X54279833Y-24828895D01*
X54269543Y-24829476D01*
X54262576Y-24829587D01*
X54251108Y-24829283D01*
X54239783Y-24828371D01*
X54228604Y-24826851D01*
X54217568Y-24824723D01*
X54206677Y-24821988D01*
X54195930Y-24818644D01*
X54185327Y-24814692D01*
X54174868Y-24810133D01*
X54164554Y-24804965D01*
X54154384Y-24799190D01*
X54147684Y-24795002D01*
X54141093Y-24790531D01*
X54134703Y-24785812D01*
X54128514Y-24780847D01*
X54122527Y-24775634D01*
X54116742Y-24770173D01*
X54111158Y-24764466D01*
X54105775Y-24758511D01*
X54100594Y-24752308D01*
X54095615Y-24745859D01*
X54090837Y-24739162D01*
X54086260Y-24732218D01*
X54081885Y-24725026D01*
X54077712Y-24717588D01*
X54073740Y-24709902D01*
X54069969Y-24701968D01*
X54066400Y-24693788D01*
X54063040Y-24685425D01*
X54059897Y-24676944D01*
X54056971Y-24668346D01*
X54054261Y-24659630D01*
X54051768Y-24650797D01*
X54049492Y-24641846D01*
X54047433Y-24632778D01*
X54045591Y-24623592D01*
X54043965Y-24614289D01*
X54042556Y-24604868D01*
X54041364Y-24595330D01*
X54040388Y-24585674D01*
X54039630Y-24575900D01*
X54039088Y-24566009D01*
X54038762Y-24556000D01*
X54038654Y-24545874D01*
X54038768Y-24534770D01*
X54039109Y-24523831D01*
X54039678Y-24513057D01*
X54040474Y-24502448D01*
X54041497Y-24492003D01*
X54042748Y-24481724D01*
X54044227Y-24471609D01*
X54045933Y-24461659D01*
X54047866Y-24451874D01*
X54050027Y-24442254D01*
X54052415Y-24432799D01*
X54055031Y-24423509D01*
X54057874Y-24414383D01*
X54060944Y-24405422D01*
X54064242Y-24396627D01*
X54067768Y-24387996D01*
X54071490Y-24379571D01*
X54075428Y-24371393D01*
X54079581Y-24363463D01*
X54083949Y-24355780D01*
X54088532Y-24348344D01*
X54093331Y-24341156D01*
X54098345Y-24334215D01*
X54103574Y-24327521D01*
X54109018Y-24321075D01*
X54114678Y-24314876D01*
X54120553Y-24308924D01*
X54126643Y-24303219D01*
X54132948Y-24297762D01*
X54139468Y-24292552D01*
X54146204Y-24287589D01*
X54153155Y-24282874D01*
X54160272Y-24278391D01*
X54167504Y-24274176D01*
X54174853Y-24270227D01*
X54182318Y-24266546D01*
X54189898Y-24263132D01*
X54197595Y-24259985D01*
X54205408Y-24257105D01*
X54213337Y-24254493D01*
X54221381Y-24252147D01*
X54229542Y-24250069D01*
X54237819Y-24248258D01*
X54246212Y-24246713D01*
X54254720Y-24245437D01*
X54263345Y-24244427D01*
X54272086Y-24243684D01*
X54280943Y-24243209D01*
X54288759Y-24345400D01*
X54279235Y-24346580D01*
X54270007Y-24348068D01*
X54261075Y-24349865D01*
X54252440Y-24351970D01*
X54244100Y-24354383D01*
X54236057Y-24357105D01*
X54228310Y-24360135D01*
X54220859Y-24363474D01*
X54213704Y-24367121D01*
X54206846Y-24371076D01*
X54200283Y-24375339D01*
X54190995Y-24382313D01*
X54182373Y-24389980D01*
X54174417Y-24398341D01*
X54171913Y-24401283D01*
X54164859Y-24410584D01*
X54160542Y-24417227D01*
X54156534Y-24424225D01*
X54152833Y-24431576D01*
X54149441Y-24439282D01*
X54146358Y-24447342D01*
X54143583Y-24455756D01*
X54141116Y-24464525D01*
X54138957Y-24473647D01*
X54137107Y-24483124D01*
X54135565Y-24492955D01*
X54134332Y-24503139D01*
X54133407Y-24513679D01*
X54132790Y-24524572D01*
X54132482Y-24535819D01*
X54132443Y-24541576D01*
X54132583Y-24553461D01*
X54133002Y-24564937D01*
X54133700Y-24576005D01*
X54134678Y-24586663D01*
X54135935Y-24596912D01*
X54137472Y-24606752D01*
X54139287Y-24616183D01*
X54141383Y-24625204D01*
X54143757Y-24633817D01*
X54146411Y-24642020D01*
X54149344Y-24649815D01*
X54152557Y-24657200D01*
X54157899Y-24667511D01*
X54163871Y-24676901D01*
X54168200Y-24682650D01*
X54174999Y-24690542D01*
X54182058Y-24697657D01*
X54189379Y-24703997D01*
X54196960Y-24709560D01*
X54204803Y-24714347D01*
X54212906Y-24718357D01*
X54221271Y-24721591D01*
X54229896Y-24724049D01*
X54238783Y-24725731D01*
X54247931Y-24726637D01*
X54254174Y-24726809D01*
X54262243Y-24726533D01*
X54270038Y-24725703D01*
X54280003Y-24723737D01*
X54289479Y-24720788D01*
X54298467Y-24716856D01*
X54306967Y-24711940D01*
X54314978Y-24706042D01*
X54322501Y-24699160D01*
X54326079Y-24695351D01*
X54331368Y-24688727D01*
X54336685Y-24680357D01*
X54342030Y-24670244D01*
X54345608Y-24662532D01*
X54349198Y-24654044D01*
X54352801Y-24644781D01*
X54356416Y-24634743D01*
X54360043Y-24623929D01*
X54363682Y-24612340D01*
X54367333Y-24599975D01*
X54370997Y-24586835D01*
X54374673Y-24572919D01*
X54378361Y-24558228D01*
X54380209Y-24550591D01*
X54382061Y-24542761D01*
X54383916Y-24534737D01*
X54385753Y-24526695D01*
X54387576Y-24518813D01*
X54389384Y-24511090D01*
X54392959Y-24496121D01*
X54396478Y-24481788D01*
X54399940Y-24468092D01*
X54403346Y-24455033D01*
X54406695Y-24442610D01*
X54409988Y-24430824D01*
X54413224Y-24419674D01*
X54416404Y-24409161D01*
X54419527Y-24399285D01*
X54422594Y-24390045D01*
X54425604Y-24381441D01*
X54428558Y-24373474D01*
X54431455Y-24366144D01*
X54435695Y-24356342D01*
X54439842Y-24347693D01*
X54444125Y-24339333D01*
X54448543Y-24331262D01*
X54453098Y-24323479D01*
X54457788Y-24315985D01*
X54462614Y-24308779D01*
X54467576Y-24301861D01*
X54472674Y-24295232D01*
X54477907Y-24288892D01*
X54483277Y-24282840D01*
X54488782Y-24277077D01*
X54494423Y-24271602D01*
X54503140Y-24263930D01*
X54512162Y-24256908D01*
X54518347Y-24252587D01*
X54527860Y-24246581D01*
X54537641Y-24241166D01*
X54547689Y-24236342D01*
X54558006Y-24232108D01*
X54568590Y-24228465D01*
X54579443Y-24225412D01*
X54590563Y-24222951D01*
X54601951Y-24221080D01*
X54613607Y-24219800D01*
X54621527Y-24219275D01*
X54629566Y-24219012D01*
X54633630Y-24218980D01*
X54641685Y-24219124D01*
X54649683Y-24219557D01*
X54657622Y-24220278D01*
X54665503Y-24221288D01*
X54673327Y-24222586D01*
X54681092Y-24224173D01*
X54688800Y-24226048D01*
X54696449Y-24228212D01*
X54704040Y-24230664D01*
X54711574Y-24233405D01*
X54719049Y-24236435D01*
X54726466Y-24239753D01*
X54733826Y-24243359D01*
X54741127Y-24247254D01*
X54748370Y-24251437D01*
X54755556Y-24255909D01*
X54762613Y-24260627D01*
X54769471Y-24265596D01*
X54776132Y-24270818D01*
X54782593Y-24276291D01*
X54788857Y-24282016D01*
X54794922Y-24287994D01*
X54800788Y-24294222D01*
X54806456Y-24300703D01*
X54811925Y-24307436D01*
X54817196Y-24314421D01*
X54822269Y-24321657D01*
X54827143Y-24329145D01*
X54831819Y-24336886D01*
X54836296Y-24344878D01*
X54840575Y-24353122D01*
X54844655Y-24361617D01*
X54848512Y-24370306D01*
X54852120Y-24379130D01*
X54855479Y-24388087D01*
X54858590Y-24397179D01*
X54861451Y-24406406D01*
X54864064Y-24415766D01*
X54866427Y-24425261D01*
X54868542Y-24434890D01*
X54870409Y-24444654D01*
X54872026Y-24454552D01*
X54873394Y-24464584D01*
X54874514Y-24474751D01*
X54875385Y-24485052D01*
X54876007Y-24495487D01*
X54876380Y-24506057D01*
X54876505Y-24516761D01*
X54876377Y-24530300D01*
X54875995Y-24543563D01*
X54875358Y-24556550D01*
X54874465Y-24569261D01*
X54873318Y-24581695D01*
X54871916Y-24593853D01*
X54870259Y-24605734D01*
X54868347Y-24617340D01*
X54866180Y-24628669D01*
X54863758Y-24639722D01*
X54861082Y-24650498D01*
X54858150Y-24660998D01*
X54854963Y-24671222D01*
X54851522Y-24681170D01*
X54847825Y-24690841D01*
X54843874Y-24700236D01*
X54839668Y-24709344D01*
X54835206Y-24718203D01*
X54830490Y-24726813D01*
X54825519Y-24735175D01*
X54820293Y-24743287D01*
X54814812Y-24751151D01*
X54809076Y-24758766D01*
X54803085Y-24766132D01*
X54796840Y-24773250D01*
X54790339Y-24780118D01*
X54783583Y-24786738D01*
X54776573Y-24793109D01*
X54769307Y-24799231D01*
X54761787Y-24805104D01*
X54754012Y-24810729D01*
X54745981Y-24816105D01*
X54737732Y-24821200D01*
X54729348Y-24825984D01*
X54720830Y-24830457D01*
X54712178Y-24834618D01*
X54703392Y-24838468D01*
X54694471Y-24842007D01*
X54685415Y-24845234D01*
X54676226Y-24848149D01*
X54666902Y-24850753D01*
X54657443Y-24853046D01*
X54647851Y-24855028D01*
X54638124Y-24856698D01*
X54628262Y-24858056D01*
X54618267Y-24859104D01*
X54608137Y-24859839D01*
X54597872Y-24860264D01*
G37*
G36*
X54298625Y-23462864D02*
G01*
X54311174Y-23463631D01*
X54323476Y-23464910D01*
X54335531Y-23466699D01*
X54347339Y-23469001D01*
X54358899Y-23471813D01*
X54370212Y-23475137D01*
X54381278Y-23478973D01*
X54392096Y-23483319D01*
X54402668Y-23488178D01*
X54412991Y-23493547D01*
X54423068Y-23499428D01*
X54432897Y-23505820D01*
X54442479Y-23512724D01*
X54451814Y-23520139D01*
X54460901Y-23528066D01*
X54469585Y-23536659D01*
X54477708Y-23546075D01*
X54485271Y-23556314D01*
X54492274Y-23567376D01*
X54498717Y-23579261D01*
X54504599Y-23591969D01*
X54509921Y-23605499D01*
X54514683Y-23619852D01*
X54518885Y-23635028D01*
X54520776Y-23642924D01*
X54522527Y-23651027D01*
X54524137Y-23659334D01*
X54525608Y-23667848D01*
X54526938Y-23676567D01*
X54528129Y-23685492D01*
X54529179Y-23694623D01*
X54530090Y-23703959D01*
X54530860Y-23713501D01*
X54531490Y-23723249D01*
X54531981Y-23733203D01*
X54532331Y-23743362D01*
X54532541Y-23753727D01*
X54532611Y-23764297D01*
X54532611Y-23971024D01*
X54864000Y-23971024D01*
X54864000Y-24077710D01*
X54051159Y-24077710D01*
X54051159Y-23773676D01*
X54051187Y-23764883D01*
X54144949Y-23764883D01*
X54144949Y-23971024D01*
X54438822Y-23971024D01*
X54438822Y-23762734D01*
X54438668Y-23750048D01*
X54438208Y-23737830D01*
X54437441Y-23726082D01*
X54436367Y-23714801D01*
X54434986Y-23703990D01*
X54433299Y-23693647D01*
X54431304Y-23683773D01*
X54429003Y-23674367D01*
X54426395Y-23665430D01*
X54423480Y-23656962D01*
X54420258Y-23648962D01*
X54416730Y-23641431D01*
X54412894Y-23634368D01*
X54406566Y-23624653D01*
X54399547Y-23615993D01*
X54391903Y-23608241D01*
X54383700Y-23601251D01*
X54374936Y-23595024D01*
X54365613Y-23589560D01*
X54355730Y-23584858D01*
X54345286Y-23580918D01*
X54334284Y-23577741D01*
X54326637Y-23576047D01*
X54318742Y-23574691D01*
X54310598Y-23573674D01*
X54302205Y-23572997D01*
X54293564Y-23572658D01*
X54289150Y-23572615D01*
X54279608Y-23572840D01*
X54270328Y-23573515D01*
X54261308Y-23574640D01*
X54252550Y-23576215D01*
X54244052Y-23578240D01*
X54235816Y-23580714D01*
X54227841Y-23583639D01*
X54220127Y-23587014D01*
X54212673Y-23590838D01*
X54205481Y-23595112D01*
X54200831Y-23598212D01*
X54194162Y-23603119D01*
X54187928Y-23608315D01*
X54182131Y-23613799D01*
X54176770Y-23619571D01*
X54170301Y-23627717D01*
X54164607Y-23636375D01*
X54159689Y-23645546D01*
X54156509Y-23652761D01*
X54153765Y-23660265D01*
X54152178Y-23665428D01*
X54150095Y-23674966D01*
X54148683Y-23684196D01*
X54147773Y-23692053D01*
X54146989Y-23700710D01*
X54146332Y-23710168D01*
X54145803Y-23720425D01*
X54145400Y-23731483D01*
X54145203Y-23739300D01*
X54145062Y-23747472D01*
X54144977Y-23756000D01*
X54144949Y-23764883D01*
X54051187Y-23764883D01*
X54051190Y-23763809D01*
X54051281Y-23754237D01*
X54051434Y-23744960D01*
X54051648Y-23735977D01*
X54051923Y-23727289D01*
X54052258Y-23718895D01*
X54052655Y-23710797D01*
X54053113Y-23702992D01*
X54053915Y-23691838D01*
X54054853Y-23681347D01*
X54055930Y-23671519D01*
X54057143Y-23662353D01*
X54058494Y-23653851D01*
X54058975Y-23651164D01*
X54061002Y-23640196D01*
X54063344Y-23629569D01*
X54066002Y-23619282D01*
X54068977Y-23609334D01*
X54072267Y-23599727D01*
X54075874Y-23590460D01*
X54079796Y-23581532D01*
X54084034Y-23572945D01*
X54088589Y-23564698D01*
X54093459Y-23556791D01*
X54096882Y-23551708D01*
X54102318Y-23544335D01*
X54108150Y-23537237D01*
X54114376Y-23530413D01*
X54120997Y-23523865D01*
X54128014Y-23517591D01*
X54135425Y-23511591D01*
X54143232Y-23505867D01*
X54151433Y-23500417D01*
X54160030Y-23495242D01*
X54169021Y-23490342D01*
X54175235Y-23487228D01*
X54184740Y-23482828D01*
X54194423Y-23478861D01*
X54204285Y-23475327D01*
X54214326Y-23472225D01*
X54224545Y-23469557D01*
X54234943Y-23467321D01*
X54245519Y-23465518D01*
X54256274Y-23464147D01*
X54267208Y-23463209D01*
X54278320Y-23462705D01*
X54285828Y-23462608D01*
X54298625Y-23462864D01*
G37*
D14*
%TO.C,R8*%
X49053641Y-39780000D02*
X48746359Y-39780000D01*
X49053641Y-39020000D02*
X48746359Y-39020000D01*
%TO.C,C8*%
X41144836Y-37590000D02*
X40929164Y-37590000D01*
X41144836Y-38310000D02*
X40929164Y-38310000D01*
%TO.C,C16*%
X36821252Y-37575000D02*
X36298748Y-37575000D01*
X36821252Y-36105000D02*
X36298748Y-36105000D01*
%TO.C,C11*%
X48810000Y-27892164D02*
X48810000Y-28107836D01*
X48090000Y-27892164D02*
X48090000Y-28107836D01*
D15*
%TO.C,J1*%
X33643000Y-58670029D02*
X33643000Y-56470029D01*
X33643000Y-62140029D02*
X42583000Y-62140029D01*
X42583000Y-58670029D02*
X42583000Y-56470029D01*
D14*
%TO.C,R3*%
X36966641Y-48930029D02*
X36659359Y-48930029D01*
X36966641Y-48170029D02*
X36659359Y-48170029D01*
D15*
%TO.C,U10*%
X40218000Y-26575029D02*
X45818000Y-26575029D01*
X40218000Y-27075029D02*
X40218000Y-26575029D01*
X40218000Y-36575029D02*
X40218000Y-37075029D01*
X40218000Y-37075029D02*
X45818000Y-37075029D01*
X45818000Y-26575029D02*
X45818000Y-27075029D01*
X45818000Y-37075029D02*
X45818000Y-36575029D01*
D16*
X39618000Y-26825029D02*
G75*
G02*
X39418000Y-26825029I-100000J0D01*
G01*
X39418000Y-26825029D02*
G75*
G02*
X39618000Y-26825029I100000J0D01*
G01*
D14*
%TO.C,R1*%
X32933000Y-52603670D02*
X32933000Y-52296388D01*
X33693000Y-52603670D02*
X33693000Y-52296388D01*
%TO.C,C1*%
X36662164Y-49440029D02*
X36877836Y-49440029D01*
X36662164Y-50160029D02*
X36877836Y-50160029D01*
%TO.C,F1*%
X39997936Y-50340000D02*
X41202064Y-50340000D01*
X39997936Y-53060000D02*
X41202064Y-53060000D01*
%TO.C,C7*%
X37240000Y-27892164D02*
X37240000Y-28107836D01*
X37960000Y-27892164D02*
X37960000Y-28107836D01*
%TO.C,C14*%
X46007836Y-49635000D02*
X45792164Y-49635000D01*
X46007836Y-48915000D02*
X45792164Y-48915000D01*
%TO.C,R7*%
X50070000Y-40003641D02*
X50070000Y-39696359D01*
X50830000Y-40003641D02*
X50830000Y-39696359D01*
%TO.C,R13*%
X38116641Y-45430000D02*
X37809359Y-45430000D01*
X38116641Y-44670000D02*
X37809359Y-44670000D01*
%TO.C,R12*%
X34725742Y-44527529D02*
X35200258Y-44527529D01*
X34725742Y-45572529D02*
X35200258Y-45572529D01*
D15*
%TO.C,U6*%
X43963000Y-46920029D02*
X43508000Y-46920029D01*
X43963000Y-44080029D02*
X43508000Y-44080029D01*
X42618000Y-46920029D02*
X41308000Y-46920029D01*
X42618000Y-44080029D02*
X41308000Y-44080029D01*
X40418000Y-46920029D02*
X39963000Y-46920029D01*
X40418000Y-44080029D02*
X39963000Y-44080029D01*
D16*
X44973000Y-46500029D02*
G75*
G02*
X44773000Y-46500029I-100000J0D01*
G01*
X44773000Y-46500029D02*
G75*
G02*
X44973000Y-46500029I100000J0D01*
G01*
D14*
%TO.C,R2*%
X32480000Y-54746359D02*
X32480000Y-55053641D01*
X31720000Y-54746359D02*
X31720000Y-55053641D01*
%TO.C,C10*%
X46370836Y-38310000D02*
X46155164Y-38310000D01*
X46370836Y-37590000D02*
X46155164Y-37590000D01*
%TO.C,D1*%
X44310000Y-49600000D02*
X44310000Y-47600000D01*
X44310000Y-49600000D02*
X40300000Y-49600000D01*
X44310000Y-47600000D02*
X40300000Y-47600000D01*
%TO.C,C9*%
X43542164Y-38310000D02*
X43757836Y-38310000D01*
X43542164Y-37590000D02*
X43757836Y-37590000D01*
%TO.C,R4*%
X31720000Y-57163641D02*
X31720000Y-56856359D01*
X32480000Y-57163641D02*
X32480000Y-56856359D01*
%TO.C,C2*%
X34773000Y-52342193D02*
X34773000Y-52557865D01*
X34053000Y-52342193D02*
X34053000Y-52557865D01*
%TO.C,R11*%
X45759359Y-45470029D02*
X46066641Y-45470029D01*
X45759359Y-46230029D02*
X46066641Y-46230029D01*
%TO.C,C15*%
X36821252Y-31325000D02*
X36298748Y-31325000D01*
X36821252Y-29855000D02*
X36298748Y-29855000D01*
D15*
%TO.C,U5*%
X49133000Y-44900029D02*
X49793000Y-44900029D01*
X49793000Y-47800029D02*
X49133000Y-47800029D01*
X50263000Y-46015029D02*
X50263000Y-46685029D01*
D16*
X47153000Y-45300029D02*
G75*
G02*
X46953000Y-45300029I-100000J0D01*
G01*
X46953000Y-45300029D02*
G75*
G02*
X47153000Y-45300029I100000J0D01*
G01*
D14*
%TO.C,R17*%
X44920000Y-42003641D02*
X44920000Y-41696359D01*
X45680000Y-42003641D02*
X45680000Y-41696359D01*
%TO.C,R5*%
X36966641Y-47780000D02*
X36659359Y-47780000D01*
X36966641Y-47020000D02*
X36659359Y-47020000D01*
%TO.C,C3*%
X32305164Y-46040000D02*
X32520836Y-46040000D01*
X32305164Y-46760000D02*
X32520836Y-46760000D01*
D15*
%TO.C,J2*%
X36963000Y-44130029D02*
X31463000Y-44130029D01*
X31463000Y-38870029D02*
X36963000Y-38870029D01*
X36963000Y-38870029D02*
X36963000Y-44130029D01*
X34291000Y-42770029D02*
X33910000Y-43024029D01*
X33910000Y-42516029D01*
X34291000Y-42770029D01*
G36*
X34291000Y-42770029D02*
G01*
X33910000Y-43024029D01*
X33910000Y-42516029D01*
X34291000Y-42770029D01*
G37*
D14*
%TO.C,R14*%
X45283000Y-55953670D02*
X45283000Y-55646388D01*
X46043000Y-55953670D02*
X46043000Y-55646388D01*
%TO.C,R6*%
X50070000Y-42003641D02*
X50070000Y-41696359D01*
X50830000Y-42003641D02*
X50830000Y-41696359D01*
%TO.C,R15*%
X36332936Y-34035000D02*
X36787064Y-34035000D01*
X36332936Y-35505000D02*
X36787064Y-35505000D01*
D15*
%TO.C,D4*%
X48038000Y-41699029D02*
X48038000Y-41426029D01*
X48988000Y-41699029D02*
X48988000Y-41426029D01*
D16*
X48213000Y-43062529D02*
G75*
G02*
X48013000Y-43062529I-100000J0D01*
G01*
X48013000Y-43062529D02*
G75*
G02*
X48213000Y-43062529I100000J0D01*
G01*
D14*
%TO.C,C13*%
X50542164Y-43640000D02*
X50757836Y-43640000D01*
X50542164Y-44360000D02*
X50757836Y-44360000D01*
%TO.C,J4*%
X31670000Y-28630000D02*
X33000000Y-28630000D01*
X31670000Y-29960000D02*
X31670000Y-28630000D01*
X31670000Y-31230000D02*
X31670000Y-33830000D01*
X31670000Y-31230000D02*
X34330000Y-31230000D01*
X31670000Y-33830000D02*
X34330000Y-33830000D01*
X34330000Y-31230000D02*
X34330000Y-33830000D01*
%TO.C,R9*%
X38106641Y-46630029D02*
X37799359Y-46630029D01*
X38106641Y-45870029D02*
X37799359Y-45870029D01*
D15*
%TO.C,U3*%
X48655500Y-48650029D02*
X50315500Y-48650029D01*
X48655500Y-51750029D02*
X50315500Y-51750029D01*
D16*
X47185500Y-49200029D02*
G75*
G02*
X46985500Y-49200029I-100000J0D01*
G01*
X46985500Y-49200029D02*
G75*
G02*
X47185500Y-49200029I100000J0D01*
G01*
D14*
%TO.C,R10*%
X45709359Y-46670029D02*
X46016641Y-46670029D01*
X45709359Y-47430029D02*
X46016641Y-47430029D01*
%TO.C,C12*%
X48357836Y-44360000D02*
X48142164Y-44360000D01*
X48357836Y-43640000D02*
X48142164Y-43640000D01*
%TO.C,R16*%
X36332936Y-31945000D02*
X36787064Y-31945000D01*
X36332936Y-33415000D02*
X36787064Y-33415000D01*
%TO.C,C4*%
X34292164Y-46040000D02*
X34507836Y-46040000D01*
X34292164Y-46760000D02*
X34507836Y-46760000D01*
D15*
%TO.C,U4*%
X35068000Y-47650029D02*
X34768000Y-47650029D01*
X35068000Y-47650029D02*
X35068000Y-47950029D01*
X32068000Y-47650029D02*
X32368000Y-47650029D01*
X32068000Y-47650029D02*
X32068000Y-47950029D01*
X35068000Y-50650029D02*
X35068000Y-50350029D01*
X35068000Y-50650029D02*
X34768000Y-50650029D01*
X32068000Y-50650029D02*
X32068000Y-50350029D01*
X32068000Y-50650029D02*
X32368000Y-50650029D01*
D16*
X35418000Y-46675029D02*
G75*
G02*
X35218000Y-46675029I-100000J0D01*
G01*
X35218000Y-46675029D02*
G75*
G02*
X35418000Y-46675029I100000J0D01*
G01*
D14*
%TO.C,C6*%
X41240000Y-41857836D02*
X41240000Y-41642164D01*
X41960000Y-41857836D02*
X41960000Y-41642164D01*
%TO.C,C5*%
X45353000Y-44257865D02*
X45353000Y-44042193D01*
X46073000Y-44257865D02*
X46073000Y-44042193D01*
D15*
%TO.C,D5*%
X43036300Y-41699029D02*
X43036300Y-41426029D01*
X43986300Y-41699029D02*
X43986300Y-41426029D01*
D16*
X43211300Y-43062529D02*
G75*
G02*
X43011300Y-43062529I-100000J0D01*
G01*
X43011300Y-43062529D02*
G75*
G02*
X43211300Y-43062529I100000J0D01*
G01*
D14*
%TO.C,R19*%
X43346359Y-39070000D02*
X43653641Y-39070000D01*
X43346359Y-39830000D02*
X43653641Y-39830000D01*
%TD*%
D17*
X54987000Y-22008000D02*
X33013000Y-22000000D01*
X31000000Y-38000000D02*
X31000000Y-59987029D01*
X33000000Y-62000029D02*
G75*
G02*
X31000013Y-59987029I0J2000029D01*
G01*
X31000000Y-24000000D02*
G75*
G02*
X33013000Y-22000002I2000070J-30D01*
G01*
X31000000Y-35000000D02*
X31000000Y-24000000D01*
X57013000Y-60000029D02*
G75*
G02*
X55000000Y-62000058I-2000100J29D01*
G01*
X56987000Y-24021000D02*
X57013000Y-60000029D01*
X54987000Y-22008000D02*
G75*
G02*
X56986958Y-24021000I-100J-2000100D01*
G01*
X34000000Y-38000000D02*
X31000000Y-38000000D01*
X34000000Y-35000000D02*
X34000000Y-38000000D01*
X55000000Y-62000029D02*
X33000000Y-62000029D01*
X31000000Y-35000000D02*
X34000000Y-35000000D01*
M02*
