%TF.GenerationSoftware,KiCad,Pcbnew,9.0.2*%
%TF.CreationDate,2025-10-01T11:11:21+02:00*%
%TF.ProjectId,nervous-eda,6e657276-6f75-4732-9d65-64612e6b6963,1.1.2*%
%TF.SameCoordinates,Original*%
%TF.FileFunction,Soldermask,Top*%
%TF.FilePolarity,Negative*%
%FSLAX46Y46*%
G04 Gerber Fmt 4.6, Leading zero omitted, Abs format (unit mm)*
G04 Created by KiCad (PCBNEW 9.0.2) date 2025-10-01 11:11:21*
%MOMM*%
%LPD*%
G01*
G04 APERTURE LIST*
G04 Aperture macros list*
%AMRoundRect*
0 Rectangle with rounded corners*
0 $1 Rounding radius*
0 $2 $3 $4 $5 $6 $7 $8 $9 X,Y pos of 4 corners*
0 Add a 4 corners polygon primitive as box body*
4,1,4,$2,$3,$4,$5,$6,$7,$8,$9,$2,$3,0*
0 Add four circle primitives for the rounded corners*
1,1,$1+$1,$2,$3*
1,1,$1+$1,$4,$5*
1,1,$1+$1,$6,$7*
1,1,$1+$1,$8,$9*
0 Add four rect primitives between the rounded corners*
20,1,$1+$1,$2,$3,$4,$5,0*
20,1,$1+$1,$4,$5,$6,$7,0*
20,1,$1+$1,$6,$7,$8,$9,0*
20,1,$1+$1,$8,$9,$2,$3,0*%
G04 Aperture macros list end*
%ADD10C,0.100000*%
%ADD11C,0.150000*%
%ADD12C,0.300000*%
%ADD13C,0.400000*%
%ADD14C,0.010000*%
%ADD15C,0.991000*%
%ADD16C,0.787000*%
%ADD17RoundRect,0.135000X0.135000X0.185000X-0.135000X0.185000X-0.135000X-0.185000X0.135000X-0.185000X0*%
%ADD18RoundRect,0.140000X0.140000X0.170000X-0.140000X0.170000X-0.140000X-0.170000X0.140000X-0.170000X0*%
%ADD19RoundRect,0.250000X0.250000X0.475000X-0.250000X0.475000X-0.250000X-0.475000X0.250000X-0.475000X0*%
%ADD20RoundRect,0.140000X-0.170000X0.140000X-0.170000X-0.140000X0.170000X-0.140000X0.170000X0.140000X0*%
%ADD21RoundRect,0.076200X-0.150000X-0.350000X0.150000X-0.350000X0.150000X0.350000X-0.150000X0.350000X0*%
%ADD22RoundRect,0.076200X-0.500000X-0.350000X0.500000X-0.350000X0.500000X0.350000X-0.500000X0.350000X0*%
%ADD23O,1.252400X2.352400*%
%ADD24O,1.452400X2.752400*%
%ADD25RoundRect,0.014400X-0.935600X-0.225600X0.935600X-0.225600X0.935600X0.225600X-0.935600X0.225600X0*%
%ADD26RoundRect,0.135000X0.185000X-0.135000X0.185000X0.135000X-0.185000X0.135000X-0.185000X-0.135000X0*%
%ADD27RoundRect,0.140000X-0.140000X-0.170000X0.140000X-0.170000X0.140000X0.170000X-0.140000X0.170000X0*%
%ADD28RoundRect,0.250000X-0.375000X-1.075000X0.375000X-1.075000X0.375000X1.075000X-0.375000X1.075000X0*%
%ADD29C,2.000000*%
%ADD30RoundRect,0.200000X-0.200000X-0.275000X0.200000X-0.275000X0.200000X0.275000X-0.200000X0.275000X0*%
%ADD31RoundRect,0.135000X-0.185000X0.135000X-0.185000X-0.135000X0.185000X-0.135000X0.185000X0.135000X0*%
%ADD32RoundRect,0.225000X0.225000X0.375000X-0.225000X0.375000X-0.225000X-0.375000X0.225000X-0.375000X0*%
%ADD33RoundRect,0.102000X0.400000X-0.400000X0.400000X0.400000X-0.400000X0.400000X-0.400000X-0.400000X0*%
%ADD34RoundRect,0.102000X0.199999X-0.199999X0.199999X0.199999X-0.199999X0.199999X-0.199999X-0.199999X0*%
%ADD35RoundRect,0.135000X-0.135000X-0.185000X0.135000X-0.185000X0.135000X0.185000X-0.135000X0.185000X0*%
%ADD36RoundRect,0.119100X-0.587900X-0.277900X0.587900X-0.277900X0.587900X0.277900X-0.587900X0.277900X0*%
%ADD37R,1.050000X1.150000*%
%ADD38R,0.600000X1.100000*%
%ADD39O,2.236000X1.220000*%
%ADD40R,0.850000X0.850000*%
%ADD41RoundRect,0.250000X-0.262500X-0.450000X0.262500X-0.450000X0.262500X0.450000X-0.262500X0.450000X0*%
%ADD42RoundRect,0.102000X0.200000X-0.250000X0.200000X0.250000X-0.200000X0.250000X-0.200000X-0.250000X0*%
%ADD43R,1.700000X1.700000*%
%ADD44C,1.700000*%
%ADD45RoundRect,0.105560X-0.616440X-0.271440X0.616440X-0.271440X0.616440X0.271440X-0.616440X0.271440X0*%
%ADD46RoundRect,0.011400X-0.178600X0.358600X-0.178600X-0.358600X0.178600X-0.358600X0.178600X0.358600X0*%
%ADD47RoundRect,0.011400X-0.358600X-0.178600X0.358600X-0.178600X0.358600X0.178600X-0.358600X0.178600X0*%
%ADD48RoundRect,0.070000X-0.840000X0.840000X-0.840000X-0.840000X0.840000X-0.840000X0.840000X0.840000X0*%
%ADD49RoundRect,0.140000X0.170000X-0.140000X0.170000X0.140000X-0.170000X0.140000X-0.170000X-0.140000X0*%
%TA.AperFunction,Profile*%
%ADD50C,0.254000*%
%TD*%
G04 APERTURE END LIST*
D10*
D11*
X30012000Y-75990000D02*
X138012000Y-75990000D01*
X138012000Y-107990000D01*
X30012000Y-107990000D01*
X30012000Y-75990000D01*
D10*
D11*
X10000000Y-10000000D02*
X140012000Y-10000000D01*
X140012000Y-109990000D01*
X10000000Y-109990000D01*
X10000000Y-10000000D01*
D10*
D11*
X12000000Y-12000000D02*
X138012000Y-12000000D01*
X138012000Y-107990000D01*
X12000000Y-107990000D01*
X12000000Y-12000000D01*
D10*
D11*
X60000000Y-12000000D02*
X60000000Y-10000000D01*
D10*
D11*
X110000000Y-12000000D02*
X110000000Y-10000000D01*
D10*
D11*
X36089160Y-11593604D02*
X35346303Y-11593604D01*
X35717731Y-11593604D02*
X35717731Y-10293604D01*
X35717731Y-10293604D02*
X35593922Y-10479319D01*
X35593922Y-10479319D02*
X35470112Y-10603128D01*
X35470112Y-10603128D02*
X35346303Y-10665033D01*
D10*
D11*
X85346303Y-10417414D02*
X85408207Y-10355509D01*
X85408207Y-10355509D02*
X85532017Y-10293604D01*
X85532017Y-10293604D02*
X85841541Y-10293604D01*
X85841541Y-10293604D02*
X85965350Y-10355509D01*
X85965350Y-10355509D02*
X86027255Y-10417414D01*
X86027255Y-10417414D02*
X86089160Y-10541223D01*
X86089160Y-10541223D02*
X86089160Y-10665033D01*
X86089160Y-10665033D02*
X86027255Y-10850747D01*
X86027255Y-10850747D02*
X85284398Y-11593604D01*
X85284398Y-11593604D02*
X86089160Y-11593604D01*
D10*
D11*
X135284398Y-10293604D02*
X136089160Y-10293604D01*
X136089160Y-10293604D02*
X135655826Y-10788842D01*
X135655826Y-10788842D02*
X135841541Y-10788842D01*
X135841541Y-10788842D02*
X135965350Y-10850747D01*
X135965350Y-10850747D02*
X136027255Y-10912652D01*
X136027255Y-10912652D02*
X136089160Y-11036461D01*
X136089160Y-11036461D02*
X136089160Y-11345985D01*
X136089160Y-11345985D02*
X136027255Y-11469795D01*
X136027255Y-11469795D02*
X135965350Y-11531700D01*
X135965350Y-11531700D02*
X135841541Y-11593604D01*
X135841541Y-11593604D02*
X135470112Y-11593604D01*
X135470112Y-11593604D02*
X135346303Y-11531700D01*
X135346303Y-11531700D02*
X135284398Y-11469795D01*
D10*
D11*
X60000000Y-107990000D02*
X60000000Y-109990000D01*
D10*
D11*
X110000000Y-107990000D02*
X110000000Y-109990000D01*
D10*
D11*
X36089160Y-109583604D02*
X35346303Y-109583604D01*
X35717731Y-109583604D02*
X35717731Y-108283604D01*
X35717731Y-108283604D02*
X35593922Y-108469319D01*
X35593922Y-108469319D02*
X35470112Y-108593128D01*
X35470112Y-108593128D02*
X35346303Y-108655033D01*
D10*
D11*
X85346303Y-108407414D02*
X85408207Y-108345509D01*
X85408207Y-108345509D02*
X85532017Y-108283604D01*
X85532017Y-108283604D02*
X85841541Y-108283604D01*
X85841541Y-108283604D02*
X85965350Y-108345509D01*
X85965350Y-108345509D02*
X86027255Y-108407414D01*
X86027255Y-108407414D02*
X86089160Y-108531223D01*
X86089160Y-108531223D02*
X86089160Y-108655033D01*
X86089160Y-108655033D02*
X86027255Y-108840747D01*
X86027255Y-108840747D02*
X85284398Y-109583604D01*
X85284398Y-109583604D02*
X86089160Y-109583604D01*
D10*
D11*
X135284398Y-108283604D02*
X136089160Y-108283604D01*
X136089160Y-108283604D02*
X135655826Y-108778842D01*
X135655826Y-108778842D02*
X135841541Y-108778842D01*
X135841541Y-108778842D02*
X135965350Y-108840747D01*
X135965350Y-108840747D02*
X136027255Y-108902652D01*
X136027255Y-108902652D02*
X136089160Y-109026461D01*
X136089160Y-109026461D02*
X136089160Y-109335985D01*
X136089160Y-109335985D02*
X136027255Y-109459795D01*
X136027255Y-109459795D02*
X135965350Y-109521700D01*
X135965350Y-109521700D02*
X135841541Y-109583604D01*
X135841541Y-109583604D02*
X135470112Y-109583604D01*
X135470112Y-109583604D02*
X135346303Y-109521700D01*
X135346303Y-109521700D02*
X135284398Y-109459795D01*
D10*
D11*
X10000000Y-60000000D02*
X12000000Y-60000000D01*
D10*
D11*
X10690476Y-35222176D02*
X11309523Y-35222176D01*
X10566666Y-35593604D02*
X10999999Y-34293604D01*
X10999999Y-34293604D02*
X11433333Y-35593604D01*
D10*
D11*
X11092857Y-84912652D02*
X11278571Y-84974557D01*
X11278571Y-84974557D02*
X11340476Y-85036461D01*
X11340476Y-85036461D02*
X11402380Y-85160271D01*
X11402380Y-85160271D02*
X11402380Y-85345985D01*
X11402380Y-85345985D02*
X11340476Y-85469795D01*
X11340476Y-85469795D02*
X11278571Y-85531700D01*
X11278571Y-85531700D02*
X11154761Y-85593604D01*
X11154761Y-85593604D02*
X10659523Y-85593604D01*
X10659523Y-85593604D02*
X10659523Y-84293604D01*
X10659523Y-84293604D02*
X11092857Y-84293604D01*
X11092857Y-84293604D02*
X11216666Y-84355509D01*
X11216666Y-84355509D02*
X11278571Y-84417414D01*
X11278571Y-84417414D02*
X11340476Y-84541223D01*
X11340476Y-84541223D02*
X11340476Y-84665033D01*
X11340476Y-84665033D02*
X11278571Y-84788842D01*
X11278571Y-84788842D02*
X11216666Y-84850747D01*
X11216666Y-84850747D02*
X11092857Y-84912652D01*
X11092857Y-84912652D02*
X10659523Y-84912652D01*
D10*
D11*
X140012000Y-60000000D02*
X138012000Y-60000000D01*
D10*
D11*
X138702476Y-35222176D02*
X139321523Y-35222176D01*
X138578666Y-35593604D02*
X139011999Y-34293604D01*
X139011999Y-34293604D02*
X139445333Y-35593604D01*
D10*
D11*
X139104857Y-84912652D02*
X139290571Y-84974557D01*
X139290571Y-84974557D02*
X139352476Y-85036461D01*
X139352476Y-85036461D02*
X139414380Y-85160271D01*
X139414380Y-85160271D02*
X139414380Y-85345985D01*
X139414380Y-85345985D02*
X139352476Y-85469795D01*
X139352476Y-85469795D02*
X139290571Y-85531700D01*
X139290571Y-85531700D02*
X139166761Y-85593604D01*
X139166761Y-85593604D02*
X138671523Y-85593604D01*
X138671523Y-85593604D02*
X138671523Y-84293604D01*
X138671523Y-84293604D02*
X139104857Y-84293604D01*
X139104857Y-84293604D02*
X139228666Y-84355509D01*
X139228666Y-84355509D02*
X139290571Y-84417414D01*
X139290571Y-84417414D02*
X139352476Y-84541223D01*
X139352476Y-84541223D02*
X139352476Y-84665033D01*
X139352476Y-84665033D02*
X139290571Y-84788842D01*
X139290571Y-84788842D02*
X139228666Y-84850747D01*
X139228666Y-84850747D02*
X139104857Y-84912652D01*
X139104857Y-84912652D02*
X138671523Y-84912652D01*
D10*
D11*
X53467826Y-103776128D02*
X53467826Y-102276128D01*
X53467826Y-102276128D02*
X53824969Y-102276128D01*
X53824969Y-102276128D02*
X54039255Y-102347557D01*
X54039255Y-102347557D02*
X54182112Y-102490414D01*
X54182112Y-102490414D02*
X54253541Y-102633271D01*
X54253541Y-102633271D02*
X54324969Y-102918985D01*
X54324969Y-102918985D02*
X54324969Y-103133271D01*
X54324969Y-103133271D02*
X54253541Y-103418985D01*
X54253541Y-103418985D02*
X54182112Y-103561842D01*
X54182112Y-103561842D02*
X54039255Y-103704700D01*
X54039255Y-103704700D02*
X53824969Y-103776128D01*
X53824969Y-103776128D02*
X53467826Y-103776128D01*
X55610684Y-103776128D02*
X55610684Y-102990414D01*
X55610684Y-102990414D02*
X55539255Y-102847557D01*
X55539255Y-102847557D02*
X55396398Y-102776128D01*
X55396398Y-102776128D02*
X55110684Y-102776128D01*
X55110684Y-102776128D02*
X54967826Y-102847557D01*
X55610684Y-103704700D02*
X55467826Y-103776128D01*
X55467826Y-103776128D02*
X55110684Y-103776128D01*
X55110684Y-103776128D02*
X54967826Y-103704700D01*
X54967826Y-103704700D02*
X54896398Y-103561842D01*
X54896398Y-103561842D02*
X54896398Y-103418985D01*
X54896398Y-103418985D02*
X54967826Y-103276128D01*
X54967826Y-103276128D02*
X55110684Y-103204700D01*
X55110684Y-103204700D02*
X55467826Y-103204700D01*
X55467826Y-103204700D02*
X55610684Y-103133271D01*
X56110684Y-102776128D02*
X56682112Y-102776128D01*
X56324969Y-102276128D02*
X56324969Y-103561842D01*
X56324969Y-103561842D02*
X56396398Y-103704700D01*
X56396398Y-103704700D02*
X56539255Y-103776128D01*
X56539255Y-103776128D02*
X56682112Y-103776128D01*
X57753541Y-103704700D02*
X57610684Y-103776128D01*
X57610684Y-103776128D02*
X57324970Y-103776128D01*
X57324970Y-103776128D02*
X57182112Y-103704700D01*
X57182112Y-103704700D02*
X57110684Y-103561842D01*
X57110684Y-103561842D02*
X57110684Y-102990414D01*
X57110684Y-102990414D02*
X57182112Y-102847557D01*
X57182112Y-102847557D02*
X57324970Y-102776128D01*
X57324970Y-102776128D02*
X57610684Y-102776128D01*
X57610684Y-102776128D02*
X57753541Y-102847557D01*
X57753541Y-102847557D02*
X57824970Y-102990414D01*
X57824970Y-102990414D02*
X57824970Y-103133271D01*
X57824970Y-103133271D02*
X57110684Y-103276128D01*
X58467826Y-103633271D02*
X58539255Y-103704700D01*
X58539255Y-103704700D02*
X58467826Y-103776128D01*
X58467826Y-103776128D02*
X58396398Y-103704700D01*
X58396398Y-103704700D02*
X58467826Y-103633271D01*
X58467826Y-103633271D02*
X58467826Y-103776128D01*
X58467826Y-102847557D02*
X58539255Y-102918985D01*
X58539255Y-102918985D02*
X58467826Y-102990414D01*
X58467826Y-102990414D02*
X58396398Y-102918985D01*
X58396398Y-102918985D02*
X58467826Y-102847557D01*
X58467826Y-102847557D02*
X58467826Y-102990414D01*
X60253541Y-102418985D02*
X60324969Y-102347557D01*
X60324969Y-102347557D02*
X60467827Y-102276128D01*
X60467827Y-102276128D02*
X60824969Y-102276128D01*
X60824969Y-102276128D02*
X60967827Y-102347557D01*
X60967827Y-102347557D02*
X61039255Y-102418985D01*
X61039255Y-102418985D02*
X61110684Y-102561842D01*
X61110684Y-102561842D02*
X61110684Y-102704700D01*
X61110684Y-102704700D02*
X61039255Y-102918985D01*
X61039255Y-102918985D02*
X60182112Y-103776128D01*
X60182112Y-103776128D02*
X61110684Y-103776128D01*
X62039255Y-102276128D02*
X62182112Y-102276128D01*
X62182112Y-102276128D02*
X62324969Y-102347557D01*
X62324969Y-102347557D02*
X62396398Y-102418985D01*
X62396398Y-102418985D02*
X62467826Y-102561842D01*
X62467826Y-102561842D02*
X62539255Y-102847557D01*
X62539255Y-102847557D02*
X62539255Y-103204700D01*
X62539255Y-103204700D02*
X62467826Y-103490414D01*
X62467826Y-103490414D02*
X62396398Y-103633271D01*
X62396398Y-103633271D02*
X62324969Y-103704700D01*
X62324969Y-103704700D02*
X62182112Y-103776128D01*
X62182112Y-103776128D02*
X62039255Y-103776128D01*
X62039255Y-103776128D02*
X61896398Y-103704700D01*
X61896398Y-103704700D02*
X61824969Y-103633271D01*
X61824969Y-103633271D02*
X61753540Y-103490414D01*
X61753540Y-103490414D02*
X61682112Y-103204700D01*
X61682112Y-103204700D02*
X61682112Y-102847557D01*
X61682112Y-102847557D02*
X61753540Y-102561842D01*
X61753540Y-102561842D02*
X61824969Y-102418985D01*
X61824969Y-102418985D02*
X61896398Y-102347557D01*
X61896398Y-102347557D02*
X62039255Y-102276128D01*
X63110683Y-102418985D02*
X63182111Y-102347557D01*
X63182111Y-102347557D02*
X63324969Y-102276128D01*
X63324969Y-102276128D02*
X63682111Y-102276128D01*
X63682111Y-102276128D02*
X63824969Y-102347557D01*
X63824969Y-102347557D02*
X63896397Y-102418985D01*
X63896397Y-102418985D02*
X63967826Y-102561842D01*
X63967826Y-102561842D02*
X63967826Y-102704700D01*
X63967826Y-102704700D02*
X63896397Y-102918985D01*
X63896397Y-102918985D02*
X63039254Y-103776128D01*
X63039254Y-103776128D02*
X63967826Y-103776128D01*
X65324968Y-102276128D02*
X64610682Y-102276128D01*
X64610682Y-102276128D02*
X64539254Y-102990414D01*
X64539254Y-102990414D02*
X64610682Y-102918985D01*
X64610682Y-102918985D02*
X64753540Y-102847557D01*
X64753540Y-102847557D02*
X65110682Y-102847557D01*
X65110682Y-102847557D02*
X65253540Y-102918985D01*
X65253540Y-102918985D02*
X65324968Y-102990414D01*
X65324968Y-102990414D02*
X65396397Y-103133271D01*
X65396397Y-103133271D02*
X65396397Y-103490414D01*
X65396397Y-103490414D02*
X65324968Y-103633271D01*
X65324968Y-103633271D02*
X65253540Y-103704700D01*
X65253540Y-103704700D02*
X65110682Y-103776128D01*
X65110682Y-103776128D02*
X64753540Y-103776128D01*
X64753540Y-103776128D02*
X64610682Y-103704700D01*
X64610682Y-103704700D02*
X64539254Y-103633271D01*
X66039253Y-103204700D02*
X67182111Y-103204700D01*
X68182111Y-102276128D02*
X68324968Y-102276128D01*
X68324968Y-102276128D02*
X68467825Y-102347557D01*
X68467825Y-102347557D02*
X68539254Y-102418985D01*
X68539254Y-102418985D02*
X68610682Y-102561842D01*
X68610682Y-102561842D02*
X68682111Y-102847557D01*
X68682111Y-102847557D02*
X68682111Y-103204700D01*
X68682111Y-103204700D02*
X68610682Y-103490414D01*
X68610682Y-103490414D02*
X68539254Y-103633271D01*
X68539254Y-103633271D02*
X68467825Y-103704700D01*
X68467825Y-103704700D02*
X68324968Y-103776128D01*
X68324968Y-103776128D02*
X68182111Y-103776128D01*
X68182111Y-103776128D02*
X68039254Y-103704700D01*
X68039254Y-103704700D02*
X67967825Y-103633271D01*
X67967825Y-103633271D02*
X67896396Y-103490414D01*
X67896396Y-103490414D02*
X67824968Y-103204700D01*
X67824968Y-103204700D02*
X67824968Y-102847557D01*
X67824968Y-102847557D02*
X67896396Y-102561842D01*
X67896396Y-102561842D02*
X67967825Y-102418985D01*
X67967825Y-102418985D02*
X68039254Y-102347557D01*
X68039254Y-102347557D02*
X68182111Y-102276128D01*
X69182110Y-102276128D02*
X70110682Y-102276128D01*
X70110682Y-102276128D02*
X69610682Y-102847557D01*
X69610682Y-102847557D02*
X69824967Y-102847557D01*
X69824967Y-102847557D02*
X69967825Y-102918985D01*
X69967825Y-102918985D02*
X70039253Y-102990414D01*
X70039253Y-102990414D02*
X70110682Y-103133271D01*
X70110682Y-103133271D02*
X70110682Y-103490414D01*
X70110682Y-103490414D02*
X70039253Y-103633271D01*
X70039253Y-103633271D02*
X69967825Y-103704700D01*
X69967825Y-103704700D02*
X69824967Y-103776128D01*
X69824967Y-103776128D02*
X69396396Y-103776128D01*
X69396396Y-103776128D02*
X69253539Y-103704700D01*
X69253539Y-103704700D02*
X69182110Y-103633271D01*
X70753538Y-103204700D02*
X71896396Y-103204700D01*
X72539253Y-102418985D02*
X72610681Y-102347557D01*
X72610681Y-102347557D02*
X72753539Y-102276128D01*
X72753539Y-102276128D02*
X73110681Y-102276128D01*
X73110681Y-102276128D02*
X73253539Y-102347557D01*
X73253539Y-102347557D02*
X73324967Y-102418985D01*
X73324967Y-102418985D02*
X73396396Y-102561842D01*
X73396396Y-102561842D02*
X73396396Y-102704700D01*
X73396396Y-102704700D02*
X73324967Y-102918985D01*
X73324967Y-102918985D02*
X72467824Y-103776128D01*
X72467824Y-103776128D02*
X73396396Y-103776128D01*
X74324967Y-102276128D02*
X74467824Y-102276128D01*
X74467824Y-102276128D02*
X74610681Y-102347557D01*
X74610681Y-102347557D02*
X74682110Y-102418985D01*
X74682110Y-102418985D02*
X74753538Y-102561842D01*
X74753538Y-102561842D02*
X74824967Y-102847557D01*
X74824967Y-102847557D02*
X74824967Y-103204700D01*
X74824967Y-103204700D02*
X74753538Y-103490414D01*
X74753538Y-103490414D02*
X74682110Y-103633271D01*
X74682110Y-103633271D02*
X74610681Y-103704700D01*
X74610681Y-103704700D02*
X74467824Y-103776128D01*
X74467824Y-103776128D02*
X74324967Y-103776128D01*
X74324967Y-103776128D02*
X74182110Y-103704700D01*
X74182110Y-103704700D02*
X74110681Y-103633271D01*
X74110681Y-103633271D02*
X74039252Y-103490414D01*
X74039252Y-103490414D02*
X73967824Y-103204700D01*
X73967824Y-103204700D02*
X73967824Y-102847557D01*
X73967824Y-102847557D02*
X74039252Y-102561842D01*
X74039252Y-102561842D02*
X74110681Y-102418985D01*
X74110681Y-102418985D02*
X74182110Y-102347557D01*
X74182110Y-102347557D02*
X74324967Y-102276128D01*
D10*
D11*
X30012000Y-104490000D02*
X138012000Y-104490000D01*
D10*
D11*
X31467826Y-106576128D02*
X31467826Y-105076128D01*
X32324969Y-106576128D02*
X31682112Y-105718985D01*
X32324969Y-105076128D02*
X31467826Y-105933271D01*
X32967826Y-106576128D02*
X32967826Y-105576128D01*
X32967826Y-105076128D02*
X32896398Y-105147557D01*
X32896398Y-105147557D02*
X32967826Y-105218985D01*
X32967826Y-105218985D02*
X33039255Y-105147557D01*
X33039255Y-105147557D02*
X32967826Y-105076128D01*
X32967826Y-105076128D02*
X32967826Y-105218985D01*
X34539255Y-106433271D02*
X34467827Y-106504700D01*
X34467827Y-106504700D02*
X34253541Y-106576128D01*
X34253541Y-106576128D02*
X34110684Y-106576128D01*
X34110684Y-106576128D02*
X33896398Y-106504700D01*
X33896398Y-106504700D02*
X33753541Y-106361842D01*
X33753541Y-106361842D02*
X33682112Y-106218985D01*
X33682112Y-106218985D02*
X33610684Y-105933271D01*
X33610684Y-105933271D02*
X33610684Y-105718985D01*
X33610684Y-105718985D02*
X33682112Y-105433271D01*
X33682112Y-105433271D02*
X33753541Y-105290414D01*
X33753541Y-105290414D02*
X33896398Y-105147557D01*
X33896398Y-105147557D02*
X34110684Y-105076128D01*
X34110684Y-105076128D02*
X34253541Y-105076128D01*
X34253541Y-105076128D02*
X34467827Y-105147557D01*
X34467827Y-105147557D02*
X34539255Y-105218985D01*
X35824970Y-106576128D02*
X35824970Y-105790414D01*
X35824970Y-105790414D02*
X35753541Y-105647557D01*
X35753541Y-105647557D02*
X35610684Y-105576128D01*
X35610684Y-105576128D02*
X35324970Y-105576128D01*
X35324970Y-105576128D02*
X35182112Y-105647557D01*
X35824970Y-106504700D02*
X35682112Y-106576128D01*
X35682112Y-106576128D02*
X35324970Y-106576128D01*
X35324970Y-106576128D02*
X35182112Y-106504700D01*
X35182112Y-106504700D02*
X35110684Y-106361842D01*
X35110684Y-106361842D02*
X35110684Y-106218985D01*
X35110684Y-106218985D02*
X35182112Y-106076128D01*
X35182112Y-106076128D02*
X35324970Y-106004700D01*
X35324970Y-106004700D02*
X35682112Y-106004700D01*
X35682112Y-106004700D02*
X35824970Y-105933271D01*
X37182113Y-106576128D02*
X37182113Y-105076128D01*
X37182113Y-106504700D02*
X37039255Y-106576128D01*
X37039255Y-106576128D02*
X36753541Y-106576128D01*
X36753541Y-106576128D02*
X36610684Y-106504700D01*
X36610684Y-106504700D02*
X36539255Y-106433271D01*
X36539255Y-106433271D02*
X36467827Y-106290414D01*
X36467827Y-106290414D02*
X36467827Y-105861842D01*
X36467827Y-105861842D02*
X36539255Y-105718985D01*
X36539255Y-105718985D02*
X36610684Y-105647557D01*
X36610684Y-105647557D02*
X36753541Y-105576128D01*
X36753541Y-105576128D02*
X37039255Y-105576128D01*
X37039255Y-105576128D02*
X37182113Y-105647557D01*
X39039255Y-105790414D02*
X39539255Y-105790414D01*
X39753541Y-106576128D02*
X39039255Y-106576128D01*
X39039255Y-106576128D02*
X39039255Y-105076128D01*
X39039255Y-105076128D02*
X39753541Y-105076128D01*
X40396398Y-106433271D02*
X40467827Y-106504700D01*
X40467827Y-106504700D02*
X40396398Y-106576128D01*
X40396398Y-106576128D02*
X40324970Y-106504700D01*
X40324970Y-106504700D02*
X40396398Y-106433271D01*
X40396398Y-106433271D02*
X40396398Y-106576128D01*
X41110684Y-106576128D02*
X41110684Y-105076128D01*
X41110684Y-105076128D02*
X41467827Y-105076128D01*
X41467827Y-105076128D02*
X41682113Y-105147557D01*
X41682113Y-105147557D02*
X41824970Y-105290414D01*
X41824970Y-105290414D02*
X41896399Y-105433271D01*
X41896399Y-105433271D02*
X41967827Y-105718985D01*
X41967827Y-105718985D02*
X41967827Y-105933271D01*
X41967827Y-105933271D02*
X41896399Y-106218985D01*
X41896399Y-106218985D02*
X41824970Y-106361842D01*
X41824970Y-106361842D02*
X41682113Y-106504700D01*
X41682113Y-106504700D02*
X41467827Y-106576128D01*
X41467827Y-106576128D02*
X41110684Y-106576128D01*
X42610684Y-106433271D02*
X42682113Y-106504700D01*
X42682113Y-106504700D02*
X42610684Y-106576128D01*
X42610684Y-106576128D02*
X42539256Y-106504700D01*
X42539256Y-106504700D02*
X42610684Y-106433271D01*
X42610684Y-106433271D02*
X42610684Y-106576128D01*
X43253542Y-106147557D02*
X43967828Y-106147557D01*
X43110685Y-106576128D02*
X43610685Y-105076128D01*
X43610685Y-105076128D02*
X44110685Y-106576128D01*
X44610684Y-106433271D02*
X44682113Y-106504700D01*
X44682113Y-106504700D02*
X44610684Y-106576128D01*
X44610684Y-106576128D02*
X44539256Y-106504700D01*
X44539256Y-106504700D02*
X44610684Y-106433271D01*
X44610684Y-106433271D02*
X44610684Y-106576128D01*
X46539256Y-106576128D02*
X46824970Y-106576128D01*
X46824970Y-106576128D02*
X46967827Y-106504700D01*
X46967827Y-106504700D02*
X47039256Y-106433271D01*
X47039256Y-106433271D02*
X47182113Y-106218985D01*
X47182113Y-106218985D02*
X47253542Y-105933271D01*
X47253542Y-105933271D02*
X47253542Y-105361842D01*
X47253542Y-105361842D02*
X47182113Y-105218985D01*
X47182113Y-105218985D02*
X47110685Y-105147557D01*
X47110685Y-105147557D02*
X46967827Y-105076128D01*
X46967827Y-105076128D02*
X46682113Y-105076128D01*
X46682113Y-105076128D02*
X46539256Y-105147557D01*
X46539256Y-105147557D02*
X46467827Y-105218985D01*
X46467827Y-105218985D02*
X46396399Y-105361842D01*
X46396399Y-105361842D02*
X46396399Y-105718985D01*
X46396399Y-105718985D02*
X46467827Y-105861842D01*
X46467827Y-105861842D02*
X46539256Y-105933271D01*
X46539256Y-105933271D02*
X46682113Y-106004700D01*
X46682113Y-106004700D02*
X46967827Y-106004700D01*
X46967827Y-106004700D02*
X47110685Y-105933271D01*
X47110685Y-105933271D02*
X47182113Y-105861842D01*
X47182113Y-105861842D02*
X47253542Y-105718985D01*
X47896398Y-106433271D02*
X47967827Y-106504700D01*
X47967827Y-106504700D02*
X47896398Y-106576128D01*
X47896398Y-106576128D02*
X47824970Y-106504700D01*
X47824970Y-106504700D02*
X47896398Y-106433271D01*
X47896398Y-106433271D02*
X47896398Y-106576128D01*
X48896399Y-105076128D02*
X49039256Y-105076128D01*
X49039256Y-105076128D02*
X49182113Y-105147557D01*
X49182113Y-105147557D02*
X49253542Y-105218985D01*
X49253542Y-105218985D02*
X49324970Y-105361842D01*
X49324970Y-105361842D02*
X49396399Y-105647557D01*
X49396399Y-105647557D02*
X49396399Y-106004700D01*
X49396399Y-106004700D02*
X49324970Y-106290414D01*
X49324970Y-106290414D02*
X49253542Y-106433271D01*
X49253542Y-106433271D02*
X49182113Y-106504700D01*
X49182113Y-106504700D02*
X49039256Y-106576128D01*
X49039256Y-106576128D02*
X48896399Y-106576128D01*
X48896399Y-106576128D02*
X48753542Y-106504700D01*
X48753542Y-106504700D02*
X48682113Y-106433271D01*
X48682113Y-106433271D02*
X48610684Y-106290414D01*
X48610684Y-106290414D02*
X48539256Y-106004700D01*
X48539256Y-106004700D02*
X48539256Y-105647557D01*
X48539256Y-105647557D02*
X48610684Y-105361842D01*
X48610684Y-105361842D02*
X48682113Y-105218985D01*
X48682113Y-105218985D02*
X48753542Y-105147557D01*
X48753542Y-105147557D02*
X48896399Y-105076128D01*
X50039255Y-106433271D02*
X50110684Y-106504700D01*
X50110684Y-106504700D02*
X50039255Y-106576128D01*
X50039255Y-106576128D02*
X49967827Y-106504700D01*
X49967827Y-106504700D02*
X50039255Y-106433271D01*
X50039255Y-106433271D02*
X50039255Y-106576128D01*
X50682113Y-105218985D02*
X50753541Y-105147557D01*
X50753541Y-105147557D02*
X50896399Y-105076128D01*
X50896399Y-105076128D02*
X51253541Y-105076128D01*
X51253541Y-105076128D02*
X51396399Y-105147557D01*
X51396399Y-105147557D02*
X51467827Y-105218985D01*
X51467827Y-105218985D02*
X51539256Y-105361842D01*
X51539256Y-105361842D02*
X51539256Y-105504700D01*
X51539256Y-105504700D02*
X51467827Y-105718985D01*
X51467827Y-105718985D02*
X50610684Y-106576128D01*
X50610684Y-106576128D02*
X51539256Y-106576128D01*
D10*
D11*
X30012000Y-101490000D02*
X138012000Y-101490000D01*
D10*
D12*
X117423653Y-103768328D02*
X116923653Y-103054042D01*
X116566510Y-103768328D02*
X116566510Y-102268328D01*
X116566510Y-102268328D02*
X117137939Y-102268328D01*
X117137939Y-102268328D02*
X117280796Y-102339757D01*
X117280796Y-102339757D02*
X117352225Y-102411185D01*
X117352225Y-102411185D02*
X117423653Y-102554042D01*
X117423653Y-102554042D02*
X117423653Y-102768328D01*
X117423653Y-102768328D02*
X117352225Y-102911185D01*
X117352225Y-102911185D02*
X117280796Y-102982614D01*
X117280796Y-102982614D02*
X117137939Y-103054042D01*
X117137939Y-103054042D02*
X116566510Y-103054042D01*
X118637939Y-103696900D02*
X118495082Y-103768328D01*
X118495082Y-103768328D02*
X118209368Y-103768328D01*
X118209368Y-103768328D02*
X118066510Y-103696900D01*
X118066510Y-103696900D02*
X117995082Y-103554042D01*
X117995082Y-103554042D02*
X117995082Y-102982614D01*
X117995082Y-102982614D02*
X118066510Y-102839757D01*
X118066510Y-102839757D02*
X118209368Y-102768328D01*
X118209368Y-102768328D02*
X118495082Y-102768328D01*
X118495082Y-102768328D02*
X118637939Y-102839757D01*
X118637939Y-102839757D02*
X118709368Y-102982614D01*
X118709368Y-102982614D02*
X118709368Y-103125471D01*
X118709368Y-103125471D02*
X117995082Y-103268328D01*
X119209367Y-102768328D02*
X119566510Y-103768328D01*
X119566510Y-103768328D02*
X119923653Y-102768328D01*
X120495081Y-103625471D02*
X120566510Y-103696900D01*
X120566510Y-103696900D02*
X120495081Y-103768328D01*
X120495081Y-103768328D02*
X120423653Y-103696900D01*
X120423653Y-103696900D02*
X120495081Y-103625471D01*
X120495081Y-103625471D02*
X120495081Y-103768328D01*
X120495081Y-102839757D02*
X120566510Y-102911185D01*
X120566510Y-102911185D02*
X120495081Y-102982614D01*
X120495081Y-102982614D02*
X120423653Y-102911185D01*
X120423653Y-102911185D02*
X120495081Y-102839757D01*
X120495081Y-102839757D02*
X120495081Y-102982614D01*
X123137939Y-103768328D02*
X122280796Y-103768328D01*
X122709367Y-103768328D02*
X122709367Y-102268328D01*
X122709367Y-102268328D02*
X122566510Y-102482614D01*
X122566510Y-102482614D02*
X122423653Y-102625471D01*
X122423653Y-102625471D02*
X122280796Y-102696900D01*
X123780795Y-103625471D02*
X123852224Y-103696900D01*
X123852224Y-103696900D02*
X123780795Y-103768328D01*
X123780795Y-103768328D02*
X123709367Y-103696900D01*
X123709367Y-103696900D02*
X123780795Y-103625471D01*
X123780795Y-103625471D02*
X123780795Y-103768328D01*
X125280796Y-103768328D02*
X124423653Y-103768328D01*
X124852224Y-103768328D02*
X124852224Y-102268328D01*
X124852224Y-102268328D02*
X124709367Y-102482614D01*
X124709367Y-102482614D02*
X124566510Y-102625471D01*
X124566510Y-102625471D02*
X124423653Y-102696900D01*
X125923652Y-103625471D02*
X125995081Y-103696900D01*
X125995081Y-103696900D02*
X125923652Y-103768328D01*
X125923652Y-103768328D02*
X125852224Y-103696900D01*
X125852224Y-103696900D02*
X125923652Y-103625471D01*
X125923652Y-103625471D02*
X125923652Y-103768328D01*
X126566510Y-102411185D02*
X126637938Y-102339757D01*
X126637938Y-102339757D02*
X126780796Y-102268328D01*
X126780796Y-102268328D02*
X127137938Y-102268328D01*
X127137938Y-102268328D02*
X127280796Y-102339757D01*
X127280796Y-102339757D02*
X127352224Y-102411185D01*
X127352224Y-102411185D02*
X127423653Y-102554042D01*
X127423653Y-102554042D02*
X127423653Y-102696900D01*
X127423653Y-102696900D02*
X127352224Y-102911185D01*
X127352224Y-102911185D02*
X126495081Y-103768328D01*
X126495081Y-103768328D02*
X127423653Y-103768328D01*
D10*
D11*
X31396398Y-103704700D02*
X31610684Y-103776128D01*
X31610684Y-103776128D02*
X31967826Y-103776128D01*
X31967826Y-103776128D02*
X32110684Y-103704700D01*
X32110684Y-103704700D02*
X32182112Y-103633271D01*
X32182112Y-103633271D02*
X32253541Y-103490414D01*
X32253541Y-103490414D02*
X32253541Y-103347557D01*
X32253541Y-103347557D02*
X32182112Y-103204700D01*
X32182112Y-103204700D02*
X32110684Y-103133271D01*
X32110684Y-103133271D02*
X31967826Y-103061842D01*
X31967826Y-103061842D02*
X31682112Y-102990414D01*
X31682112Y-102990414D02*
X31539255Y-102918985D01*
X31539255Y-102918985D02*
X31467826Y-102847557D01*
X31467826Y-102847557D02*
X31396398Y-102704700D01*
X31396398Y-102704700D02*
X31396398Y-102561842D01*
X31396398Y-102561842D02*
X31467826Y-102418985D01*
X31467826Y-102418985D02*
X31539255Y-102347557D01*
X31539255Y-102347557D02*
X31682112Y-102276128D01*
X31682112Y-102276128D02*
X32039255Y-102276128D01*
X32039255Y-102276128D02*
X32253541Y-102347557D01*
X32896397Y-103776128D02*
X32896397Y-102776128D01*
X32896397Y-102276128D02*
X32824969Y-102347557D01*
X32824969Y-102347557D02*
X32896397Y-102418985D01*
X32896397Y-102418985D02*
X32967826Y-102347557D01*
X32967826Y-102347557D02*
X32896397Y-102276128D01*
X32896397Y-102276128D02*
X32896397Y-102418985D01*
X33467826Y-102776128D02*
X34253541Y-102776128D01*
X34253541Y-102776128D02*
X33467826Y-103776128D01*
X33467826Y-103776128D02*
X34253541Y-103776128D01*
X35396398Y-103704700D02*
X35253541Y-103776128D01*
X35253541Y-103776128D02*
X34967827Y-103776128D01*
X34967827Y-103776128D02*
X34824969Y-103704700D01*
X34824969Y-103704700D02*
X34753541Y-103561842D01*
X34753541Y-103561842D02*
X34753541Y-102990414D01*
X34753541Y-102990414D02*
X34824969Y-102847557D01*
X34824969Y-102847557D02*
X34967827Y-102776128D01*
X34967827Y-102776128D02*
X35253541Y-102776128D01*
X35253541Y-102776128D02*
X35396398Y-102847557D01*
X35396398Y-102847557D02*
X35467827Y-102990414D01*
X35467827Y-102990414D02*
X35467827Y-103133271D01*
X35467827Y-103133271D02*
X34753541Y-103276128D01*
X36110683Y-103633271D02*
X36182112Y-103704700D01*
X36182112Y-103704700D02*
X36110683Y-103776128D01*
X36110683Y-103776128D02*
X36039255Y-103704700D01*
X36039255Y-103704700D02*
X36110683Y-103633271D01*
X36110683Y-103633271D02*
X36110683Y-103776128D01*
X36110683Y-102847557D02*
X36182112Y-102918985D01*
X36182112Y-102918985D02*
X36110683Y-102990414D01*
X36110683Y-102990414D02*
X36039255Y-102918985D01*
X36039255Y-102918985D02*
X36110683Y-102847557D01*
X36110683Y-102847557D02*
X36110683Y-102990414D01*
X37967826Y-102276128D02*
X37967826Y-103490414D01*
X37967826Y-103490414D02*
X38039255Y-103633271D01*
X38039255Y-103633271D02*
X38110684Y-103704700D01*
X38110684Y-103704700D02*
X38253541Y-103776128D01*
X38253541Y-103776128D02*
X38539255Y-103776128D01*
X38539255Y-103776128D02*
X38682112Y-103704700D01*
X38682112Y-103704700D02*
X38753541Y-103633271D01*
X38753541Y-103633271D02*
X38824969Y-103490414D01*
X38824969Y-103490414D02*
X38824969Y-102276128D01*
X39467827Y-103704700D02*
X39610684Y-103776128D01*
X39610684Y-103776128D02*
X39896398Y-103776128D01*
X39896398Y-103776128D02*
X40039255Y-103704700D01*
X40039255Y-103704700D02*
X40110684Y-103561842D01*
X40110684Y-103561842D02*
X40110684Y-103490414D01*
X40110684Y-103490414D02*
X40039255Y-103347557D01*
X40039255Y-103347557D02*
X39896398Y-103276128D01*
X39896398Y-103276128D02*
X39682113Y-103276128D01*
X39682113Y-103276128D02*
X39539255Y-103204700D01*
X39539255Y-103204700D02*
X39467827Y-103061842D01*
X39467827Y-103061842D02*
X39467827Y-102990414D01*
X39467827Y-102990414D02*
X39539255Y-102847557D01*
X39539255Y-102847557D02*
X39682113Y-102776128D01*
X39682113Y-102776128D02*
X39896398Y-102776128D01*
X39896398Y-102776128D02*
X40039255Y-102847557D01*
X41324970Y-103704700D02*
X41182113Y-103776128D01*
X41182113Y-103776128D02*
X40896399Y-103776128D01*
X40896399Y-103776128D02*
X40753541Y-103704700D01*
X40753541Y-103704700D02*
X40682113Y-103561842D01*
X40682113Y-103561842D02*
X40682113Y-102990414D01*
X40682113Y-102990414D02*
X40753541Y-102847557D01*
X40753541Y-102847557D02*
X40896399Y-102776128D01*
X40896399Y-102776128D02*
X41182113Y-102776128D01*
X41182113Y-102776128D02*
X41324970Y-102847557D01*
X41324970Y-102847557D02*
X41396399Y-102990414D01*
X41396399Y-102990414D02*
X41396399Y-103133271D01*
X41396399Y-103133271D02*
X40682113Y-103276128D01*
X42039255Y-103776128D02*
X42039255Y-102776128D01*
X42039255Y-103061842D02*
X42110684Y-102918985D01*
X42110684Y-102918985D02*
X42182113Y-102847557D01*
X42182113Y-102847557D02*
X42324970Y-102776128D01*
X42324970Y-102776128D02*
X42467827Y-102776128D01*
D10*
D11*
X116467826Y-106576128D02*
X116467826Y-105076128D01*
X117824970Y-106576128D02*
X117824970Y-105076128D01*
X117824970Y-106504700D02*
X117682112Y-106576128D01*
X117682112Y-106576128D02*
X117396398Y-106576128D01*
X117396398Y-106576128D02*
X117253541Y-106504700D01*
X117253541Y-106504700D02*
X117182112Y-106433271D01*
X117182112Y-106433271D02*
X117110684Y-106290414D01*
X117110684Y-106290414D02*
X117110684Y-105861842D01*
X117110684Y-105861842D02*
X117182112Y-105718985D01*
X117182112Y-105718985D02*
X117253541Y-105647557D01*
X117253541Y-105647557D02*
X117396398Y-105576128D01*
X117396398Y-105576128D02*
X117682112Y-105576128D01*
X117682112Y-105576128D02*
X117824970Y-105647557D01*
X118539255Y-106433271D02*
X118610684Y-106504700D01*
X118610684Y-106504700D02*
X118539255Y-106576128D01*
X118539255Y-106576128D02*
X118467827Y-106504700D01*
X118467827Y-106504700D02*
X118539255Y-106433271D01*
X118539255Y-106433271D02*
X118539255Y-106576128D01*
X118539255Y-105647557D02*
X118610684Y-105718985D01*
X118610684Y-105718985D02*
X118539255Y-105790414D01*
X118539255Y-105790414D02*
X118467827Y-105718985D01*
X118467827Y-105718985D02*
X118539255Y-105647557D01*
X118539255Y-105647557D02*
X118539255Y-105790414D01*
X120253541Y-105076128D02*
X121253541Y-105076128D01*
X121253541Y-105076128D02*
X120610684Y-106576128D01*
X122896398Y-105004700D02*
X121610684Y-106933271D01*
X123467827Y-106576128D02*
X123753541Y-106576128D01*
X123753541Y-106576128D02*
X123896398Y-106504700D01*
X123896398Y-106504700D02*
X123967827Y-106433271D01*
X123967827Y-106433271D02*
X124110684Y-106218985D01*
X124110684Y-106218985D02*
X124182113Y-105933271D01*
X124182113Y-105933271D02*
X124182113Y-105361842D01*
X124182113Y-105361842D02*
X124110684Y-105218985D01*
X124110684Y-105218985D02*
X124039256Y-105147557D01*
X124039256Y-105147557D02*
X123896398Y-105076128D01*
X123896398Y-105076128D02*
X123610684Y-105076128D01*
X123610684Y-105076128D02*
X123467827Y-105147557D01*
X123467827Y-105147557D02*
X123396398Y-105218985D01*
X123396398Y-105218985D02*
X123324970Y-105361842D01*
X123324970Y-105361842D02*
X123324970Y-105718985D01*
X123324970Y-105718985D02*
X123396398Y-105861842D01*
X123396398Y-105861842D02*
X123467827Y-105933271D01*
X123467827Y-105933271D02*
X123610684Y-106004700D01*
X123610684Y-106004700D02*
X123896398Y-106004700D01*
X123896398Y-106004700D02*
X124039256Y-105933271D01*
X124039256Y-105933271D02*
X124110684Y-105861842D01*
X124110684Y-105861842D02*
X124182113Y-105718985D01*
D10*
D11*
X30012000Y-97490000D02*
X138012000Y-97490000D01*
D10*
D13*
X31703728Y-98194438D02*
X32846585Y-98194438D01*
X32025157Y-100194438D02*
X32275157Y-98194438D01*
X33263252Y-100194438D02*
X33429919Y-98861104D01*
X33513252Y-98194438D02*
X33406109Y-98289676D01*
X33406109Y-98289676D02*
X33489443Y-98384914D01*
X33489443Y-98384914D02*
X33596586Y-98289676D01*
X33596586Y-98289676D02*
X33513252Y-98194438D01*
X33513252Y-98194438D02*
X33489443Y-98384914D01*
X34096586Y-98861104D02*
X34858490Y-98861104D01*
X34465633Y-98194438D02*
X34251348Y-99908723D01*
X34251348Y-99908723D02*
X34322776Y-100099200D01*
X34322776Y-100099200D02*
X34501348Y-100194438D01*
X34501348Y-100194438D02*
X34691824Y-100194438D01*
X35644205Y-100194438D02*
X35465633Y-100099200D01*
X35465633Y-100099200D02*
X35394205Y-99908723D01*
X35394205Y-99908723D02*
X35608490Y-98194438D01*
X37179919Y-100099200D02*
X36977538Y-100194438D01*
X36977538Y-100194438D02*
X36596585Y-100194438D01*
X36596585Y-100194438D02*
X36418014Y-100099200D01*
X36418014Y-100099200D02*
X36346585Y-99908723D01*
X36346585Y-99908723D02*
X36441824Y-99146819D01*
X36441824Y-99146819D02*
X36560871Y-98956342D01*
X36560871Y-98956342D02*
X36763252Y-98861104D01*
X36763252Y-98861104D02*
X37144204Y-98861104D01*
X37144204Y-98861104D02*
X37322776Y-98956342D01*
X37322776Y-98956342D02*
X37394204Y-99146819D01*
X37394204Y-99146819D02*
X37370395Y-99337295D01*
X37370395Y-99337295D02*
X36394204Y-99527771D01*
X38144205Y-100003961D02*
X38227538Y-100099200D01*
X38227538Y-100099200D02*
X38120395Y-100194438D01*
X38120395Y-100194438D02*
X38037062Y-100099200D01*
X38037062Y-100099200D02*
X38144205Y-100003961D01*
X38144205Y-100003961D02*
X38120395Y-100194438D01*
X38275157Y-98956342D02*
X38358490Y-99051580D01*
X38358490Y-99051580D02*
X38251348Y-99146819D01*
X38251348Y-99146819D02*
X38168014Y-99051580D01*
X38168014Y-99051580D02*
X38275157Y-98956342D01*
X38275157Y-98956342D02*
X38251348Y-99146819D01*
X40596586Y-100194438D02*
X40846586Y-98194438D01*
X40846586Y-98194438D02*
X41739443Y-100194438D01*
X41739443Y-100194438D02*
X41989443Y-98194438D01*
X42822777Y-99146819D02*
X43489443Y-99146819D01*
X43644205Y-100194438D02*
X42691824Y-100194438D01*
X42691824Y-100194438D02*
X42941824Y-98194438D01*
X42941824Y-98194438D02*
X43894205Y-98194438D01*
X45644205Y-100194438D02*
X45096586Y-99242057D01*
X44501348Y-100194438D02*
X44751348Y-98194438D01*
X44751348Y-98194438D02*
X45513253Y-98194438D01*
X45513253Y-98194438D02*
X45691824Y-98289676D01*
X45691824Y-98289676D02*
X45775158Y-98384914D01*
X45775158Y-98384914D02*
X45846586Y-98575390D01*
X45846586Y-98575390D02*
X45810872Y-98861104D01*
X45810872Y-98861104D02*
X45691824Y-99051580D01*
X45691824Y-99051580D02*
X45584682Y-99146819D01*
X45584682Y-99146819D02*
X45382301Y-99242057D01*
X45382301Y-99242057D02*
X44620396Y-99242057D01*
X46465634Y-98194438D02*
X46882301Y-100194438D01*
X46882301Y-100194438D02*
X47798967Y-98194438D01*
X48846587Y-98194438D02*
X49227539Y-98194438D01*
X49227539Y-98194438D02*
X49406110Y-98289676D01*
X49406110Y-98289676D02*
X49572777Y-98480152D01*
X49572777Y-98480152D02*
X49620396Y-98861104D01*
X49620396Y-98861104D02*
X49537063Y-99527771D01*
X49537063Y-99527771D02*
X49394206Y-99908723D01*
X49394206Y-99908723D02*
X49179920Y-100099200D01*
X49179920Y-100099200D02*
X48977539Y-100194438D01*
X48977539Y-100194438D02*
X48596587Y-100194438D01*
X48596587Y-100194438D02*
X48418015Y-100099200D01*
X48418015Y-100099200D02*
X48251349Y-99908723D01*
X48251349Y-99908723D02*
X48203729Y-99527771D01*
X48203729Y-99527771D02*
X48287063Y-98861104D01*
X48287063Y-98861104D02*
X48429920Y-98480152D01*
X48429920Y-98480152D02*
X48644206Y-98289676D01*
X48644206Y-98289676D02*
X48846587Y-98194438D01*
X50560872Y-98194438D02*
X50358491Y-99813485D01*
X50358491Y-99813485D02*
X50429920Y-100003961D01*
X50429920Y-100003961D02*
X50513253Y-100099200D01*
X50513253Y-100099200D02*
X50691825Y-100194438D01*
X50691825Y-100194438D02*
X51072777Y-100194438D01*
X51072777Y-100194438D02*
X51275158Y-100099200D01*
X51275158Y-100099200D02*
X51382301Y-100003961D01*
X51382301Y-100003961D02*
X51501348Y-99813485D01*
X51501348Y-99813485D02*
X51703729Y-98194438D01*
X52322777Y-100099200D02*
X52596586Y-100194438D01*
X52596586Y-100194438D02*
X53072777Y-100194438D01*
X53072777Y-100194438D02*
X53275158Y-100099200D01*
X53275158Y-100099200D02*
X53382301Y-100003961D01*
X53382301Y-100003961D02*
X53501348Y-99813485D01*
X53501348Y-99813485D02*
X53525158Y-99623009D01*
X53525158Y-99623009D02*
X53453729Y-99432533D01*
X53453729Y-99432533D02*
X53370396Y-99337295D01*
X53370396Y-99337295D02*
X53191825Y-99242057D01*
X53191825Y-99242057D02*
X52822777Y-99146819D01*
X52822777Y-99146819D02*
X52644205Y-99051580D01*
X52644205Y-99051580D02*
X52560872Y-98956342D01*
X52560872Y-98956342D02*
X52489444Y-98765866D01*
X52489444Y-98765866D02*
X52513253Y-98575390D01*
X52513253Y-98575390D02*
X52632301Y-98384914D01*
X52632301Y-98384914D02*
X52739444Y-98289676D01*
X52739444Y-98289676D02*
X52941825Y-98194438D01*
X52941825Y-98194438D02*
X53418015Y-98194438D01*
X53418015Y-98194438D02*
X53691825Y-98289676D01*
X55929920Y-99432533D02*
X57453730Y-99432533D01*
X59965635Y-99146819D02*
X60632301Y-99146819D01*
X60787063Y-100194438D02*
X59834682Y-100194438D01*
X59834682Y-100194438D02*
X60084682Y-98194438D01*
X60084682Y-98194438D02*
X61037063Y-98194438D01*
X61644206Y-100194438D02*
X61894206Y-98194438D01*
X61894206Y-98194438D02*
X62370397Y-98194438D01*
X62370397Y-98194438D02*
X62644206Y-98289676D01*
X62644206Y-98289676D02*
X62810873Y-98480152D01*
X62810873Y-98480152D02*
X62882301Y-98670628D01*
X62882301Y-98670628D02*
X62929921Y-99051580D01*
X62929921Y-99051580D02*
X62894206Y-99337295D01*
X62894206Y-99337295D02*
X62751349Y-99718247D01*
X62751349Y-99718247D02*
X62632301Y-99908723D01*
X62632301Y-99908723D02*
X62418016Y-100099200D01*
X62418016Y-100099200D02*
X62120397Y-100194438D01*
X62120397Y-100194438D02*
X61644206Y-100194438D01*
X63620397Y-99623009D02*
X64572778Y-99623009D01*
X63358492Y-100194438D02*
X64275159Y-98194438D01*
X64275159Y-98194438D02*
X64691825Y-100194438D01*
X66798969Y-100099200D02*
X67072778Y-100194438D01*
X67072778Y-100194438D02*
X67548969Y-100194438D01*
X67548969Y-100194438D02*
X67751350Y-100099200D01*
X67751350Y-100099200D02*
X67858493Y-100003961D01*
X67858493Y-100003961D02*
X67977540Y-99813485D01*
X67977540Y-99813485D02*
X68001350Y-99623009D01*
X68001350Y-99623009D02*
X67929921Y-99432533D01*
X67929921Y-99432533D02*
X67846588Y-99337295D01*
X67846588Y-99337295D02*
X67668017Y-99242057D01*
X67668017Y-99242057D02*
X67298969Y-99146819D01*
X67298969Y-99146819D02*
X67120397Y-99051580D01*
X67120397Y-99051580D02*
X67037064Y-98956342D01*
X67037064Y-98956342D02*
X66965636Y-98765866D01*
X66965636Y-98765866D02*
X66989445Y-98575390D01*
X66989445Y-98575390D02*
X67108493Y-98384914D01*
X67108493Y-98384914D02*
X67215636Y-98289676D01*
X67215636Y-98289676D02*
X67418017Y-98194438D01*
X67418017Y-98194438D02*
X67894207Y-98194438D01*
X67894207Y-98194438D02*
X68168017Y-98289676D01*
X69560874Y-100099200D02*
X69358493Y-100194438D01*
X69358493Y-100194438D02*
X68977540Y-100194438D01*
X68977540Y-100194438D02*
X68798969Y-100099200D01*
X68798969Y-100099200D02*
X68727540Y-99908723D01*
X68727540Y-99908723D02*
X68822779Y-99146819D01*
X68822779Y-99146819D02*
X68941826Y-98956342D01*
X68941826Y-98956342D02*
X69144207Y-98861104D01*
X69144207Y-98861104D02*
X69525159Y-98861104D01*
X69525159Y-98861104D02*
X69703731Y-98956342D01*
X69703731Y-98956342D02*
X69775159Y-99146819D01*
X69775159Y-99146819D02*
X69751350Y-99337295D01*
X69751350Y-99337295D02*
X68775159Y-99527771D01*
X70668017Y-98861104D02*
X70501350Y-100194438D01*
X70644207Y-99051580D02*
X70751350Y-98956342D01*
X70751350Y-98956342D02*
X70953731Y-98861104D01*
X70953731Y-98861104D02*
X71239445Y-98861104D01*
X71239445Y-98861104D02*
X71418017Y-98956342D01*
X71418017Y-98956342D02*
X71489445Y-99146819D01*
X71489445Y-99146819D02*
X71358493Y-100194438D01*
X72227541Y-100099200D02*
X72406112Y-100194438D01*
X72406112Y-100194438D02*
X72787065Y-100194438D01*
X72787065Y-100194438D02*
X72989446Y-100099200D01*
X72989446Y-100099200D02*
X73108493Y-99908723D01*
X73108493Y-99908723D02*
X73120398Y-99813485D01*
X73120398Y-99813485D02*
X73048969Y-99623009D01*
X73048969Y-99623009D02*
X72870398Y-99527771D01*
X72870398Y-99527771D02*
X72584684Y-99527771D01*
X72584684Y-99527771D02*
X72406112Y-99432533D01*
X72406112Y-99432533D02*
X72334684Y-99242057D01*
X72334684Y-99242057D02*
X72346589Y-99146819D01*
X72346589Y-99146819D02*
X72465636Y-98956342D01*
X72465636Y-98956342D02*
X72668017Y-98861104D01*
X72668017Y-98861104D02*
X72953731Y-98861104D01*
X72953731Y-98861104D02*
X73132303Y-98956342D01*
X74215637Y-100194438D02*
X74037065Y-100099200D01*
X74037065Y-100099200D02*
X73953732Y-100003961D01*
X73953732Y-100003961D02*
X73882303Y-99813485D01*
X73882303Y-99813485D02*
X73953732Y-99242057D01*
X73953732Y-99242057D02*
X74072779Y-99051580D01*
X74072779Y-99051580D02*
X74179922Y-98956342D01*
X74179922Y-98956342D02*
X74382303Y-98861104D01*
X74382303Y-98861104D02*
X74668017Y-98861104D01*
X74668017Y-98861104D02*
X74846589Y-98956342D01*
X74846589Y-98956342D02*
X74929922Y-99051580D01*
X74929922Y-99051580D02*
X75001351Y-99242057D01*
X75001351Y-99242057D02*
X74929922Y-99813485D01*
X74929922Y-99813485D02*
X74810875Y-100003961D01*
X74810875Y-100003961D02*
X74703732Y-100099200D01*
X74703732Y-100099200D02*
X74501351Y-100194438D01*
X74501351Y-100194438D02*
X74215637Y-100194438D01*
X75739446Y-100194438D02*
X75906113Y-98861104D01*
X75858494Y-99242057D02*
X75977541Y-99051580D01*
X75977541Y-99051580D02*
X76084684Y-98956342D01*
X76084684Y-98956342D02*
X76287065Y-98861104D01*
X76287065Y-98861104D02*
X76477541Y-98861104D01*
D10*
D11*
X31967826Y-95590414D02*
X31467826Y-95590414D01*
X31467826Y-96376128D02*
X31467826Y-94876128D01*
X31467826Y-94876128D02*
X32182112Y-94876128D01*
X32753540Y-96376128D02*
X32753540Y-95376128D01*
X32753540Y-94876128D02*
X32682112Y-94947557D01*
X32682112Y-94947557D02*
X32753540Y-95018985D01*
X32753540Y-95018985D02*
X32824969Y-94947557D01*
X32824969Y-94947557D02*
X32753540Y-94876128D01*
X32753540Y-94876128D02*
X32753540Y-95018985D01*
X33682112Y-96376128D02*
X33539255Y-96304700D01*
X33539255Y-96304700D02*
X33467826Y-96161842D01*
X33467826Y-96161842D02*
X33467826Y-94876128D01*
X34824969Y-96304700D02*
X34682112Y-96376128D01*
X34682112Y-96376128D02*
X34396398Y-96376128D01*
X34396398Y-96376128D02*
X34253540Y-96304700D01*
X34253540Y-96304700D02*
X34182112Y-96161842D01*
X34182112Y-96161842D02*
X34182112Y-95590414D01*
X34182112Y-95590414D02*
X34253540Y-95447557D01*
X34253540Y-95447557D02*
X34396398Y-95376128D01*
X34396398Y-95376128D02*
X34682112Y-95376128D01*
X34682112Y-95376128D02*
X34824969Y-95447557D01*
X34824969Y-95447557D02*
X34896398Y-95590414D01*
X34896398Y-95590414D02*
X34896398Y-95733271D01*
X34896398Y-95733271D02*
X34182112Y-95876128D01*
X35539254Y-96233271D02*
X35610683Y-96304700D01*
X35610683Y-96304700D02*
X35539254Y-96376128D01*
X35539254Y-96376128D02*
X35467826Y-96304700D01*
X35467826Y-96304700D02*
X35539254Y-96233271D01*
X35539254Y-96233271D02*
X35539254Y-96376128D01*
X35539254Y-95447557D02*
X35610683Y-95518985D01*
X35610683Y-95518985D02*
X35539254Y-95590414D01*
X35539254Y-95590414D02*
X35467826Y-95518985D01*
X35467826Y-95518985D02*
X35539254Y-95447557D01*
X35539254Y-95447557D02*
X35539254Y-95590414D01*
X37396397Y-95376128D02*
X37396397Y-96376128D01*
X37396397Y-95518985D02*
X37467826Y-95447557D01*
X37467826Y-95447557D02*
X37610683Y-95376128D01*
X37610683Y-95376128D02*
X37824969Y-95376128D01*
X37824969Y-95376128D02*
X37967826Y-95447557D01*
X37967826Y-95447557D02*
X38039255Y-95590414D01*
X38039255Y-95590414D02*
X38039255Y-96376128D01*
X39324969Y-96304700D02*
X39182112Y-96376128D01*
X39182112Y-96376128D02*
X38896398Y-96376128D01*
X38896398Y-96376128D02*
X38753540Y-96304700D01*
X38753540Y-96304700D02*
X38682112Y-96161842D01*
X38682112Y-96161842D02*
X38682112Y-95590414D01*
X38682112Y-95590414D02*
X38753540Y-95447557D01*
X38753540Y-95447557D02*
X38896398Y-95376128D01*
X38896398Y-95376128D02*
X39182112Y-95376128D01*
X39182112Y-95376128D02*
X39324969Y-95447557D01*
X39324969Y-95447557D02*
X39396398Y-95590414D01*
X39396398Y-95590414D02*
X39396398Y-95733271D01*
X39396398Y-95733271D02*
X38682112Y-95876128D01*
X40039254Y-96376128D02*
X40039254Y-95376128D01*
X40039254Y-95661842D02*
X40110683Y-95518985D01*
X40110683Y-95518985D02*
X40182112Y-95447557D01*
X40182112Y-95447557D02*
X40324969Y-95376128D01*
X40324969Y-95376128D02*
X40467826Y-95376128D01*
X40824968Y-95376128D02*
X41182111Y-96376128D01*
X41182111Y-96376128D02*
X41539254Y-95376128D01*
X42324968Y-96376128D02*
X42182111Y-96304700D01*
X42182111Y-96304700D02*
X42110682Y-96233271D01*
X42110682Y-96233271D02*
X42039254Y-96090414D01*
X42039254Y-96090414D02*
X42039254Y-95661842D01*
X42039254Y-95661842D02*
X42110682Y-95518985D01*
X42110682Y-95518985D02*
X42182111Y-95447557D01*
X42182111Y-95447557D02*
X42324968Y-95376128D01*
X42324968Y-95376128D02*
X42539254Y-95376128D01*
X42539254Y-95376128D02*
X42682111Y-95447557D01*
X42682111Y-95447557D02*
X42753540Y-95518985D01*
X42753540Y-95518985D02*
X42824968Y-95661842D01*
X42824968Y-95661842D02*
X42824968Y-96090414D01*
X42824968Y-96090414D02*
X42753540Y-96233271D01*
X42753540Y-96233271D02*
X42682111Y-96304700D01*
X42682111Y-96304700D02*
X42539254Y-96376128D01*
X42539254Y-96376128D02*
X42324968Y-96376128D01*
X44110683Y-95376128D02*
X44110683Y-96376128D01*
X43467825Y-95376128D02*
X43467825Y-96161842D01*
X43467825Y-96161842D02*
X43539254Y-96304700D01*
X43539254Y-96304700D02*
X43682111Y-96376128D01*
X43682111Y-96376128D02*
X43896397Y-96376128D01*
X43896397Y-96376128D02*
X44039254Y-96304700D01*
X44039254Y-96304700D02*
X44110683Y-96233271D01*
X44753540Y-96304700D02*
X44896397Y-96376128D01*
X44896397Y-96376128D02*
X45182111Y-96376128D01*
X45182111Y-96376128D02*
X45324968Y-96304700D01*
X45324968Y-96304700D02*
X45396397Y-96161842D01*
X45396397Y-96161842D02*
X45396397Y-96090414D01*
X45396397Y-96090414D02*
X45324968Y-95947557D01*
X45324968Y-95947557D02*
X45182111Y-95876128D01*
X45182111Y-95876128D02*
X44967826Y-95876128D01*
X44967826Y-95876128D02*
X44824968Y-95804700D01*
X44824968Y-95804700D02*
X44753540Y-95661842D01*
X44753540Y-95661842D02*
X44753540Y-95590414D01*
X44753540Y-95590414D02*
X44824968Y-95447557D01*
X44824968Y-95447557D02*
X44967826Y-95376128D01*
X44967826Y-95376128D02*
X45182111Y-95376128D01*
X45182111Y-95376128D02*
X45324968Y-95447557D01*
X46039254Y-95804700D02*
X47182112Y-95804700D01*
X48467826Y-96304700D02*
X48324969Y-96376128D01*
X48324969Y-96376128D02*
X48039255Y-96376128D01*
X48039255Y-96376128D02*
X47896397Y-96304700D01*
X47896397Y-96304700D02*
X47824969Y-96161842D01*
X47824969Y-96161842D02*
X47824969Y-95590414D01*
X47824969Y-95590414D02*
X47896397Y-95447557D01*
X47896397Y-95447557D02*
X48039255Y-95376128D01*
X48039255Y-95376128D02*
X48324969Y-95376128D01*
X48324969Y-95376128D02*
X48467826Y-95447557D01*
X48467826Y-95447557D02*
X48539255Y-95590414D01*
X48539255Y-95590414D02*
X48539255Y-95733271D01*
X48539255Y-95733271D02*
X47824969Y-95876128D01*
X49824969Y-96376128D02*
X49824969Y-94876128D01*
X49824969Y-96304700D02*
X49682111Y-96376128D01*
X49682111Y-96376128D02*
X49396397Y-96376128D01*
X49396397Y-96376128D02*
X49253540Y-96304700D01*
X49253540Y-96304700D02*
X49182111Y-96233271D01*
X49182111Y-96233271D02*
X49110683Y-96090414D01*
X49110683Y-96090414D02*
X49110683Y-95661842D01*
X49110683Y-95661842D02*
X49182111Y-95518985D01*
X49182111Y-95518985D02*
X49253540Y-95447557D01*
X49253540Y-95447557D02*
X49396397Y-95376128D01*
X49396397Y-95376128D02*
X49682111Y-95376128D01*
X49682111Y-95376128D02*
X49824969Y-95447557D01*
X51182112Y-96376128D02*
X51182112Y-95590414D01*
X51182112Y-95590414D02*
X51110683Y-95447557D01*
X51110683Y-95447557D02*
X50967826Y-95376128D01*
X50967826Y-95376128D02*
X50682112Y-95376128D01*
X50682112Y-95376128D02*
X50539254Y-95447557D01*
X51182112Y-96304700D02*
X51039254Y-96376128D01*
X51039254Y-96376128D02*
X50682112Y-96376128D01*
X50682112Y-96376128D02*
X50539254Y-96304700D01*
X50539254Y-96304700D02*
X50467826Y-96161842D01*
X50467826Y-96161842D02*
X50467826Y-96018985D01*
X50467826Y-96018985D02*
X50539254Y-95876128D01*
X50539254Y-95876128D02*
X50682112Y-95804700D01*
X50682112Y-95804700D02*
X51039254Y-95804700D01*
X51039254Y-95804700D02*
X51182112Y-95733271D01*
X51896397Y-96233271D02*
X51967826Y-96304700D01*
X51967826Y-96304700D02*
X51896397Y-96376128D01*
X51896397Y-96376128D02*
X51824969Y-96304700D01*
X51824969Y-96304700D02*
X51896397Y-96233271D01*
X51896397Y-96233271D02*
X51896397Y-96376128D01*
X52610683Y-96376128D02*
X52610683Y-94876128D01*
X52753541Y-95804700D02*
X53182112Y-96376128D01*
X53182112Y-95376128D02*
X52610683Y-95947557D01*
X53824969Y-96376128D02*
X53824969Y-95376128D01*
X53824969Y-94876128D02*
X53753541Y-94947557D01*
X53753541Y-94947557D02*
X53824969Y-95018985D01*
X53824969Y-95018985D02*
X53896398Y-94947557D01*
X53896398Y-94947557D02*
X53824969Y-94876128D01*
X53824969Y-94876128D02*
X53824969Y-95018985D01*
X55182113Y-96304700D02*
X55039255Y-96376128D01*
X55039255Y-96376128D02*
X54753541Y-96376128D01*
X54753541Y-96376128D02*
X54610684Y-96304700D01*
X54610684Y-96304700D02*
X54539255Y-96233271D01*
X54539255Y-96233271D02*
X54467827Y-96090414D01*
X54467827Y-96090414D02*
X54467827Y-95661842D01*
X54467827Y-95661842D02*
X54539255Y-95518985D01*
X54539255Y-95518985D02*
X54610684Y-95447557D01*
X54610684Y-95447557D02*
X54753541Y-95376128D01*
X54753541Y-95376128D02*
X55039255Y-95376128D01*
X55039255Y-95376128D02*
X55182113Y-95447557D01*
X56467827Y-96376128D02*
X56467827Y-95590414D01*
X56467827Y-95590414D02*
X56396398Y-95447557D01*
X56396398Y-95447557D02*
X56253541Y-95376128D01*
X56253541Y-95376128D02*
X55967827Y-95376128D01*
X55967827Y-95376128D02*
X55824969Y-95447557D01*
X56467827Y-96304700D02*
X56324969Y-96376128D01*
X56324969Y-96376128D02*
X55967827Y-96376128D01*
X55967827Y-96376128D02*
X55824969Y-96304700D01*
X55824969Y-96304700D02*
X55753541Y-96161842D01*
X55753541Y-96161842D02*
X55753541Y-96018985D01*
X55753541Y-96018985D02*
X55824969Y-95876128D01*
X55824969Y-95876128D02*
X55967827Y-95804700D01*
X55967827Y-95804700D02*
X56324969Y-95804700D01*
X56324969Y-95804700D02*
X56467827Y-95733271D01*
X57824970Y-96376128D02*
X57824970Y-94876128D01*
X57824970Y-96304700D02*
X57682112Y-96376128D01*
X57682112Y-96376128D02*
X57396398Y-96376128D01*
X57396398Y-96376128D02*
X57253541Y-96304700D01*
X57253541Y-96304700D02*
X57182112Y-96233271D01*
X57182112Y-96233271D02*
X57110684Y-96090414D01*
X57110684Y-96090414D02*
X57110684Y-95661842D01*
X57110684Y-95661842D02*
X57182112Y-95518985D01*
X57182112Y-95518985D02*
X57253541Y-95447557D01*
X57253541Y-95447557D02*
X57396398Y-95376128D01*
X57396398Y-95376128D02*
X57682112Y-95376128D01*
X57682112Y-95376128D02*
X57824970Y-95447557D01*
X58182113Y-96518985D02*
X59324970Y-96518985D01*
X59682112Y-95376128D02*
X59682112Y-96876128D01*
X59682112Y-95447557D02*
X59824970Y-95376128D01*
X59824970Y-95376128D02*
X60110684Y-95376128D01*
X60110684Y-95376128D02*
X60253541Y-95447557D01*
X60253541Y-95447557D02*
X60324970Y-95518985D01*
X60324970Y-95518985D02*
X60396398Y-95661842D01*
X60396398Y-95661842D02*
X60396398Y-96090414D01*
X60396398Y-96090414D02*
X60324970Y-96233271D01*
X60324970Y-96233271D02*
X60253541Y-96304700D01*
X60253541Y-96304700D02*
X60110684Y-96376128D01*
X60110684Y-96376128D02*
X59824970Y-96376128D01*
X59824970Y-96376128D02*
X59682112Y-96304700D01*
X61682113Y-96304700D02*
X61539255Y-96376128D01*
X61539255Y-96376128D02*
X61253541Y-96376128D01*
X61253541Y-96376128D02*
X61110684Y-96304700D01*
X61110684Y-96304700D02*
X61039255Y-96233271D01*
X61039255Y-96233271D02*
X60967827Y-96090414D01*
X60967827Y-96090414D02*
X60967827Y-95661842D01*
X60967827Y-95661842D02*
X61039255Y-95518985D01*
X61039255Y-95518985D02*
X61110684Y-95447557D01*
X61110684Y-95447557D02*
X61253541Y-95376128D01*
X61253541Y-95376128D02*
X61539255Y-95376128D01*
X61539255Y-95376128D02*
X61682113Y-95447557D01*
X62324969Y-96376128D02*
X62324969Y-94876128D01*
X62324969Y-95447557D02*
X62467827Y-95376128D01*
X62467827Y-95376128D02*
X62753541Y-95376128D01*
X62753541Y-95376128D02*
X62896398Y-95447557D01*
X62896398Y-95447557D02*
X62967827Y-95518985D01*
X62967827Y-95518985D02*
X63039255Y-95661842D01*
X63039255Y-95661842D02*
X63039255Y-96090414D01*
X63039255Y-96090414D02*
X62967827Y-96233271D01*
X62967827Y-96233271D02*
X62896398Y-96304700D01*
X62896398Y-96304700D02*
X62753541Y-96376128D01*
X62753541Y-96376128D02*
X62467827Y-96376128D01*
X62467827Y-96376128D02*
X62324969Y-96304700D01*
D10*
D11*
X30012000Y-91490000D02*
X138012000Y-91490000D01*
D10*
D11*
X31396398Y-93604700D02*
X31610684Y-93676128D01*
X31610684Y-93676128D02*
X31967826Y-93676128D01*
X31967826Y-93676128D02*
X32110684Y-93604700D01*
X32110684Y-93604700D02*
X32182112Y-93533271D01*
X32182112Y-93533271D02*
X32253541Y-93390414D01*
X32253541Y-93390414D02*
X32253541Y-93247557D01*
X32253541Y-93247557D02*
X32182112Y-93104700D01*
X32182112Y-93104700D02*
X32110684Y-93033271D01*
X32110684Y-93033271D02*
X31967826Y-92961842D01*
X31967826Y-92961842D02*
X31682112Y-92890414D01*
X31682112Y-92890414D02*
X31539255Y-92818985D01*
X31539255Y-92818985D02*
X31467826Y-92747557D01*
X31467826Y-92747557D02*
X31396398Y-92604700D01*
X31396398Y-92604700D02*
X31396398Y-92461842D01*
X31396398Y-92461842D02*
X31467826Y-92318985D01*
X31467826Y-92318985D02*
X31539255Y-92247557D01*
X31539255Y-92247557D02*
X31682112Y-92176128D01*
X31682112Y-92176128D02*
X32039255Y-92176128D01*
X32039255Y-92176128D02*
X32253541Y-92247557D01*
X32896397Y-93676128D02*
X32896397Y-92176128D01*
X33539255Y-93676128D02*
X33539255Y-92890414D01*
X33539255Y-92890414D02*
X33467826Y-92747557D01*
X33467826Y-92747557D02*
X33324969Y-92676128D01*
X33324969Y-92676128D02*
X33110683Y-92676128D01*
X33110683Y-92676128D02*
X32967826Y-92747557D01*
X32967826Y-92747557D02*
X32896397Y-92818985D01*
X34824969Y-93604700D02*
X34682112Y-93676128D01*
X34682112Y-93676128D02*
X34396398Y-93676128D01*
X34396398Y-93676128D02*
X34253540Y-93604700D01*
X34253540Y-93604700D02*
X34182112Y-93461842D01*
X34182112Y-93461842D02*
X34182112Y-92890414D01*
X34182112Y-92890414D02*
X34253540Y-92747557D01*
X34253540Y-92747557D02*
X34396398Y-92676128D01*
X34396398Y-92676128D02*
X34682112Y-92676128D01*
X34682112Y-92676128D02*
X34824969Y-92747557D01*
X34824969Y-92747557D02*
X34896398Y-92890414D01*
X34896398Y-92890414D02*
X34896398Y-93033271D01*
X34896398Y-93033271D02*
X34182112Y-93176128D01*
X36110683Y-93604700D02*
X35967826Y-93676128D01*
X35967826Y-93676128D02*
X35682112Y-93676128D01*
X35682112Y-93676128D02*
X35539254Y-93604700D01*
X35539254Y-93604700D02*
X35467826Y-93461842D01*
X35467826Y-93461842D02*
X35467826Y-92890414D01*
X35467826Y-92890414D02*
X35539254Y-92747557D01*
X35539254Y-92747557D02*
X35682112Y-92676128D01*
X35682112Y-92676128D02*
X35967826Y-92676128D01*
X35967826Y-92676128D02*
X36110683Y-92747557D01*
X36110683Y-92747557D02*
X36182112Y-92890414D01*
X36182112Y-92890414D02*
X36182112Y-93033271D01*
X36182112Y-93033271D02*
X35467826Y-93176128D01*
X36610683Y-92676128D02*
X37182111Y-92676128D01*
X36824968Y-92176128D02*
X36824968Y-93461842D01*
X36824968Y-93461842D02*
X36896397Y-93604700D01*
X36896397Y-93604700D02*
X37039254Y-93676128D01*
X37039254Y-93676128D02*
X37182111Y-93676128D01*
X37682111Y-93533271D02*
X37753540Y-93604700D01*
X37753540Y-93604700D02*
X37682111Y-93676128D01*
X37682111Y-93676128D02*
X37610683Y-93604700D01*
X37610683Y-93604700D02*
X37682111Y-93533271D01*
X37682111Y-93533271D02*
X37682111Y-93676128D01*
X37682111Y-92747557D02*
X37753540Y-92818985D01*
X37753540Y-92818985D02*
X37682111Y-92890414D01*
X37682111Y-92890414D02*
X37610683Y-92818985D01*
X37610683Y-92818985D02*
X37682111Y-92747557D01*
X37682111Y-92747557D02*
X37682111Y-92890414D01*
D10*
D11*
X32324969Y-87533271D02*
X32253541Y-87604700D01*
X32253541Y-87604700D02*
X32039255Y-87676128D01*
X32039255Y-87676128D02*
X31896398Y-87676128D01*
X31896398Y-87676128D02*
X31682112Y-87604700D01*
X31682112Y-87604700D02*
X31539255Y-87461842D01*
X31539255Y-87461842D02*
X31467826Y-87318985D01*
X31467826Y-87318985D02*
X31396398Y-87033271D01*
X31396398Y-87033271D02*
X31396398Y-86818985D01*
X31396398Y-86818985D02*
X31467826Y-86533271D01*
X31467826Y-86533271D02*
X31539255Y-86390414D01*
X31539255Y-86390414D02*
X31682112Y-86247557D01*
X31682112Y-86247557D02*
X31896398Y-86176128D01*
X31896398Y-86176128D02*
X32039255Y-86176128D01*
X32039255Y-86176128D02*
X32253541Y-86247557D01*
X32253541Y-86247557D02*
X32324969Y-86318985D01*
X33182112Y-87676128D02*
X33039255Y-87604700D01*
X33039255Y-87604700D02*
X32967826Y-87533271D01*
X32967826Y-87533271D02*
X32896398Y-87390414D01*
X32896398Y-87390414D02*
X32896398Y-86961842D01*
X32896398Y-86961842D02*
X32967826Y-86818985D01*
X32967826Y-86818985D02*
X33039255Y-86747557D01*
X33039255Y-86747557D02*
X33182112Y-86676128D01*
X33182112Y-86676128D02*
X33396398Y-86676128D01*
X33396398Y-86676128D02*
X33539255Y-86747557D01*
X33539255Y-86747557D02*
X33610684Y-86818985D01*
X33610684Y-86818985D02*
X33682112Y-86961842D01*
X33682112Y-86961842D02*
X33682112Y-87390414D01*
X33682112Y-87390414D02*
X33610684Y-87533271D01*
X33610684Y-87533271D02*
X33539255Y-87604700D01*
X33539255Y-87604700D02*
X33396398Y-87676128D01*
X33396398Y-87676128D02*
X33182112Y-87676128D01*
X34324969Y-86676128D02*
X34324969Y-88176128D01*
X34324969Y-86747557D02*
X34467827Y-86676128D01*
X34467827Y-86676128D02*
X34753541Y-86676128D01*
X34753541Y-86676128D02*
X34896398Y-86747557D01*
X34896398Y-86747557D02*
X34967827Y-86818985D01*
X34967827Y-86818985D02*
X35039255Y-86961842D01*
X35039255Y-86961842D02*
X35039255Y-87390414D01*
X35039255Y-87390414D02*
X34967827Y-87533271D01*
X34967827Y-87533271D02*
X34896398Y-87604700D01*
X34896398Y-87604700D02*
X34753541Y-87676128D01*
X34753541Y-87676128D02*
X34467827Y-87676128D01*
X34467827Y-87676128D02*
X34324969Y-87604700D01*
X35539255Y-86676128D02*
X35896398Y-87676128D01*
X36253541Y-86676128D02*
X35896398Y-87676128D01*
X35896398Y-87676128D02*
X35753541Y-88033271D01*
X35753541Y-88033271D02*
X35682112Y-88104700D01*
X35682112Y-88104700D02*
X35539255Y-88176128D01*
X36824969Y-87676128D02*
X36824969Y-86676128D01*
X36824969Y-86961842D02*
X36896398Y-86818985D01*
X36896398Y-86818985D02*
X36967827Y-86747557D01*
X36967827Y-86747557D02*
X37110684Y-86676128D01*
X37110684Y-86676128D02*
X37253541Y-86676128D01*
X37753540Y-87676128D02*
X37753540Y-86676128D01*
X37753540Y-86176128D02*
X37682112Y-86247557D01*
X37682112Y-86247557D02*
X37753540Y-86318985D01*
X37753540Y-86318985D02*
X37824969Y-86247557D01*
X37824969Y-86247557D02*
X37753540Y-86176128D01*
X37753540Y-86176128D02*
X37753540Y-86318985D01*
X39110684Y-86676128D02*
X39110684Y-87890414D01*
X39110684Y-87890414D02*
X39039255Y-88033271D01*
X39039255Y-88033271D02*
X38967826Y-88104700D01*
X38967826Y-88104700D02*
X38824969Y-88176128D01*
X38824969Y-88176128D02*
X38610684Y-88176128D01*
X38610684Y-88176128D02*
X38467826Y-88104700D01*
X39110684Y-87604700D02*
X38967826Y-87676128D01*
X38967826Y-87676128D02*
X38682112Y-87676128D01*
X38682112Y-87676128D02*
X38539255Y-87604700D01*
X38539255Y-87604700D02*
X38467826Y-87533271D01*
X38467826Y-87533271D02*
X38396398Y-87390414D01*
X38396398Y-87390414D02*
X38396398Y-86961842D01*
X38396398Y-86961842D02*
X38467826Y-86818985D01*
X38467826Y-86818985D02*
X38539255Y-86747557D01*
X38539255Y-86747557D02*
X38682112Y-86676128D01*
X38682112Y-86676128D02*
X38967826Y-86676128D01*
X38967826Y-86676128D02*
X39110684Y-86747557D01*
X39824969Y-87676128D02*
X39824969Y-86176128D01*
X40467827Y-87676128D02*
X40467827Y-86890414D01*
X40467827Y-86890414D02*
X40396398Y-86747557D01*
X40396398Y-86747557D02*
X40253541Y-86676128D01*
X40253541Y-86676128D02*
X40039255Y-86676128D01*
X40039255Y-86676128D02*
X39896398Y-86747557D01*
X39896398Y-86747557D02*
X39824969Y-86818985D01*
X40967827Y-86676128D02*
X41539255Y-86676128D01*
X41182112Y-86176128D02*
X41182112Y-87461842D01*
X41182112Y-87461842D02*
X41253541Y-87604700D01*
X41253541Y-87604700D02*
X41396398Y-87676128D01*
X41396398Y-87676128D02*
X41539255Y-87676128D01*
X43610684Y-88247557D02*
X43539255Y-88176128D01*
X43539255Y-88176128D02*
X43396398Y-87961842D01*
X43396398Y-87961842D02*
X43324970Y-87818985D01*
X43324970Y-87818985D02*
X43253541Y-87604700D01*
X43253541Y-87604700D02*
X43182112Y-87247557D01*
X43182112Y-87247557D02*
X43182112Y-86961842D01*
X43182112Y-86961842D02*
X43253541Y-86604700D01*
X43253541Y-86604700D02*
X43324970Y-86390414D01*
X43324970Y-86390414D02*
X43396398Y-86247557D01*
X43396398Y-86247557D02*
X43539255Y-86033271D01*
X43539255Y-86033271D02*
X43610684Y-85961842D01*
X44824970Y-87604700D02*
X44682112Y-87676128D01*
X44682112Y-87676128D02*
X44396398Y-87676128D01*
X44396398Y-87676128D02*
X44253541Y-87604700D01*
X44253541Y-87604700D02*
X44182112Y-87533271D01*
X44182112Y-87533271D02*
X44110684Y-87390414D01*
X44110684Y-87390414D02*
X44110684Y-86961842D01*
X44110684Y-86961842D02*
X44182112Y-86818985D01*
X44182112Y-86818985D02*
X44253541Y-86747557D01*
X44253541Y-86747557D02*
X44396398Y-86676128D01*
X44396398Y-86676128D02*
X44682112Y-86676128D01*
X44682112Y-86676128D02*
X44824970Y-86747557D01*
X45324969Y-88247557D02*
X45396398Y-88176128D01*
X45396398Y-88176128D02*
X45539255Y-87961842D01*
X45539255Y-87961842D02*
X45610684Y-87818985D01*
X45610684Y-87818985D02*
X45682112Y-87604700D01*
X45682112Y-87604700D02*
X45753541Y-87247557D01*
X45753541Y-87247557D02*
X45753541Y-86961842D01*
X45753541Y-86961842D02*
X45682112Y-86604700D01*
X45682112Y-86604700D02*
X45610684Y-86390414D01*
X45610684Y-86390414D02*
X45539255Y-86247557D01*
X45539255Y-86247557D02*
X45396398Y-86033271D01*
X45396398Y-86033271D02*
X45324969Y-85961842D01*
X47539255Y-86318985D02*
X47610683Y-86247557D01*
X47610683Y-86247557D02*
X47753541Y-86176128D01*
X47753541Y-86176128D02*
X48110683Y-86176128D01*
X48110683Y-86176128D02*
X48253541Y-86247557D01*
X48253541Y-86247557D02*
X48324969Y-86318985D01*
X48324969Y-86318985D02*
X48396398Y-86461842D01*
X48396398Y-86461842D02*
X48396398Y-86604700D01*
X48396398Y-86604700D02*
X48324969Y-86818985D01*
X48324969Y-86818985D02*
X47467826Y-87676128D01*
X47467826Y-87676128D02*
X48396398Y-87676128D01*
X49324969Y-86176128D02*
X49467826Y-86176128D01*
X49467826Y-86176128D02*
X49610683Y-86247557D01*
X49610683Y-86247557D02*
X49682112Y-86318985D01*
X49682112Y-86318985D02*
X49753540Y-86461842D01*
X49753540Y-86461842D02*
X49824969Y-86747557D01*
X49824969Y-86747557D02*
X49824969Y-87104700D01*
X49824969Y-87104700D02*
X49753540Y-87390414D01*
X49753540Y-87390414D02*
X49682112Y-87533271D01*
X49682112Y-87533271D02*
X49610683Y-87604700D01*
X49610683Y-87604700D02*
X49467826Y-87676128D01*
X49467826Y-87676128D02*
X49324969Y-87676128D01*
X49324969Y-87676128D02*
X49182112Y-87604700D01*
X49182112Y-87604700D02*
X49110683Y-87533271D01*
X49110683Y-87533271D02*
X49039254Y-87390414D01*
X49039254Y-87390414D02*
X48967826Y-87104700D01*
X48967826Y-87104700D02*
X48967826Y-86747557D01*
X48967826Y-86747557D02*
X49039254Y-86461842D01*
X49039254Y-86461842D02*
X49110683Y-86318985D01*
X49110683Y-86318985D02*
X49182112Y-86247557D01*
X49182112Y-86247557D02*
X49324969Y-86176128D01*
X50396397Y-86318985D02*
X50467825Y-86247557D01*
X50467825Y-86247557D02*
X50610683Y-86176128D01*
X50610683Y-86176128D02*
X50967825Y-86176128D01*
X50967825Y-86176128D02*
X51110683Y-86247557D01*
X51110683Y-86247557D02*
X51182111Y-86318985D01*
X51182111Y-86318985D02*
X51253540Y-86461842D01*
X51253540Y-86461842D02*
X51253540Y-86604700D01*
X51253540Y-86604700D02*
X51182111Y-86818985D01*
X51182111Y-86818985D02*
X50324968Y-87676128D01*
X50324968Y-87676128D02*
X51253540Y-87676128D01*
X52539254Y-86676128D02*
X52539254Y-87676128D01*
X52182111Y-86104700D02*
X51824968Y-87176128D01*
X51824968Y-87176128D02*
X52753539Y-87176128D01*
X54467824Y-87676128D02*
X54467824Y-86176128D01*
X55182110Y-87676128D02*
X55182110Y-86176128D01*
X55182110Y-86176128D02*
X56039253Y-87676128D01*
X56039253Y-87676128D02*
X56039253Y-86176128D01*
X56682111Y-87604700D02*
X56896397Y-87676128D01*
X56896397Y-87676128D02*
X57253539Y-87676128D01*
X57253539Y-87676128D02*
X57396397Y-87604700D01*
X57396397Y-87604700D02*
X57467825Y-87533271D01*
X57467825Y-87533271D02*
X57539254Y-87390414D01*
X57539254Y-87390414D02*
X57539254Y-87247557D01*
X57539254Y-87247557D02*
X57467825Y-87104700D01*
X57467825Y-87104700D02*
X57396397Y-87033271D01*
X57396397Y-87033271D02*
X57253539Y-86961842D01*
X57253539Y-86961842D02*
X56967825Y-86890414D01*
X56967825Y-86890414D02*
X56824968Y-86818985D01*
X56824968Y-86818985D02*
X56753539Y-86747557D01*
X56753539Y-86747557D02*
X56682111Y-86604700D01*
X56682111Y-86604700D02*
X56682111Y-86461842D01*
X56682111Y-86461842D02*
X56753539Y-86318985D01*
X56753539Y-86318985D02*
X56824968Y-86247557D01*
X56824968Y-86247557D02*
X56967825Y-86176128D01*
X56967825Y-86176128D02*
X57324968Y-86176128D01*
X57324968Y-86176128D02*
X57539254Y-86247557D01*
X58110682Y-87247557D02*
X58824968Y-87247557D01*
X57967825Y-87676128D02*
X58467825Y-86176128D01*
X58467825Y-86176128D02*
X58967825Y-87676128D01*
X61324967Y-87676128D02*
X60610681Y-87676128D01*
X60610681Y-87676128D02*
X60610681Y-86176128D01*
X61682110Y-86676128D02*
X62039253Y-87676128D01*
X62396396Y-86676128D02*
X62039253Y-87676128D01*
X62039253Y-87676128D02*
X61896396Y-88033271D01*
X61896396Y-88033271D02*
X61824967Y-88104700D01*
X61824967Y-88104700D02*
X61682110Y-88176128D01*
X63182110Y-87676128D02*
X63039253Y-87604700D01*
X63039253Y-87604700D02*
X62967824Y-87533271D01*
X62967824Y-87533271D02*
X62896396Y-87390414D01*
X62896396Y-87390414D02*
X62896396Y-86961842D01*
X62896396Y-86961842D02*
X62967824Y-86818985D01*
X62967824Y-86818985D02*
X63039253Y-86747557D01*
X63039253Y-86747557D02*
X63182110Y-86676128D01*
X63182110Y-86676128D02*
X63396396Y-86676128D01*
X63396396Y-86676128D02*
X63539253Y-86747557D01*
X63539253Y-86747557D02*
X63610682Y-86818985D01*
X63610682Y-86818985D02*
X63682110Y-86961842D01*
X63682110Y-86961842D02*
X63682110Y-87390414D01*
X63682110Y-87390414D02*
X63610682Y-87533271D01*
X63610682Y-87533271D02*
X63539253Y-87604700D01*
X63539253Y-87604700D02*
X63396396Y-87676128D01*
X63396396Y-87676128D02*
X63182110Y-87676128D01*
X64324967Y-86676128D02*
X64324967Y-87676128D01*
X64324967Y-86818985D02*
X64396396Y-86747557D01*
X64396396Y-86747557D02*
X64539253Y-86676128D01*
X64539253Y-86676128D02*
X64753539Y-86676128D01*
X64753539Y-86676128D02*
X64896396Y-86747557D01*
X64896396Y-86747557D02*
X64967825Y-86890414D01*
X64967825Y-86890414D02*
X64967825Y-87676128D01*
X65753539Y-87604700D02*
X65753539Y-87676128D01*
X65753539Y-87676128D02*
X65682110Y-87818985D01*
X65682110Y-87818985D02*
X65610682Y-87890414D01*
X68396396Y-87533271D02*
X68324968Y-87604700D01*
X68324968Y-87604700D02*
X68110682Y-87676128D01*
X68110682Y-87676128D02*
X67967825Y-87676128D01*
X67967825Y-87676128D02*
X67753539Y-87604700D01*
X67753539Y-87604700D02*
X67610682Y-87461842D01*
X67610682Y-87461842D02*
X67539253Y-87318985D01*
X67539253Y-87318985D02*
X67467825Y-87033271D01*
X67467825Y-87033271D02*
X67467825Y-86818985D01*
X67467825Y-86818985D02*
X67539253Y-86533271D01*
X67539253Y-86533271D02*
X67610682Y-86390414D01*
X67610682Y-86390414D02*
X67753539Y-86247557D01*
X67753539Y-86247557D02*
X67967825Y-86176128D01*
X67967825Y-86176128D02*
X68110682Y-86176128D01*
X68110682Y-86176128D02*
X68324968Y-86247557D01*
X68324968Y-86247557D02*
X68396396Y-86318985D01*
X69039253Y-87676128D02*
X69039253Y-86176128D01*
X69039253Y-86176128D02*
X69896396Y-87676128D01*
X69896396Y-87676128D02*
X69896396Y-86176128D01*
X71467825Y-87676128D02*
X70967825Y-86961842D01*
X70610682Y-87676128D02*
X70610682Y-86176128D01*
X70610682Y-86176128D02*
X71182111Y-86176128D01*
X71182111Y-86176128D02*
X71324968Y-86247557D01*
X71324968Y-86247557D02*
X71396397Y-86318985D01*
X71396397Y-86318985D02*
X71467825Y-86461842D01*
X71467825Y-86461842D02*
X71467825Y-86676128D01*
X71467825Y-86676128D02*
X71396397Y-86818985D01*
X71396397Y-86818985D02*
X71324968Y-86890414D01*
X71324968Y-86890414D02*
X71182111Y-86961842D01*
X71182111Y-86961842D02*
X70610682Y-86961842D01*
X72039254Y-87604700D02*
X72253540Y-87676128D01*
X72253540Y-87676128D02*
X72610682Y-87676128D01*
X72610682Y-87676128D02*
X72753540Y-87604700D01*
X72753540Y-87604700D02*
X72824968Y-87533271D01*
X72824968Y-87533271D02*
X72896397Y-87390414D01*
X72896397Y-87390414D02*
X72896397Y-87247557D01*
X72896397Y-87247557D02*
X72824968Y-87104700D01*
X72824968Y-87104700D02*
X72753540Y-87033271D01*
X72753540Y-87033271D02*
X72610682Y-86961842D01*
X72610682Y-86961842D02*
X72324968Y-86890414D01*
X72324968Y-86890414D02*
X72182111Y-86818985D01*
X72182111Y-86818985D02*
X72110682Y-86747557D01*
X72110682Y-86747557D02*
X72039254Y-86604700D01*
X72039254Y-86604700D02*
X72039254Y-86461842D01*
X72039254Y-86461842D02*
X72110682Y-86318985D01*
X72110682Y-86318985D02*
X72182111Y-86247557D01*
X72182111Y-86247557D02*
X72324968Y-86176128D01*
X72324968Y-86176128D02*
X72682111Y-86176128D01*
X72682111Y-86176128D02*
X72896397Y-86247557D01*
X73610682Y-87604700D02*
X73610682Y-87676128D01*
X73610682Y-87676128D02*
X73539253Y-87818985D01*
X73539253Y-87818985D02*
X73467825Y-87890414D01*
X75396396Y-87676128D02*
X75396396Y-86176128D01*
X76110682Y-87676128D02*
X76110682Y-86176128D01*
X76110682Y-86176128D02*
X76967825Y-87676128D01*
X76967825Y-87676128D02*
X76967825Y-86176128D01*
X78396397Y-87676128D02*
X77682111Y-87676128D01*
X77682111Y-87676128D02*
X77682111Y-86176128D01*
X80039254Y-86176128D02*
X80039254Y-87390414D01*
X80039254Y-87390414D02*
X80110683Y-87533271D01*
X80110683Y-87533271D02*
X80182112Y-87604700D01*
X80182112Y-87604700D02*
X80324969Y-87676128D01*
X80324969Y-87676128D02*
X80610683Y-87676128D01*
X80610683Y-87676128D02*
X80753540Y-87604700D01*
X80753540Y-87604700D02*
X80824969Y-87533271D01*
X80824969Y-87533271D02*
X80896397Y-87390414D01*
X80896397Y-87390414D02*
X80896397Y-86176128D01*
X81610683Y-87676128D02*
X81610683Y-86176128D01*
X81610683Y-86176128D02*
X82110683Y-87247557D01*
X82110683Y-87247557D02*
X82610683Y-86176128D01*
X82610683Y-86176128D02*
X82610683Y-87676128D01*
X84182112Y-87676128D02*
X83682112Y-86961842D01*
X83324969Y-87676128D02*
X83324969Y-86176128D01*
X83324969Y-86176128D02*
X83896398Y-86176128D01*
X83896398Y-86176128D02*
X84039255Y-86247557D01*
X84039255Y-86247557D02*
X84110684Y-86318985D01*
X84110684Y-86318985D02*
X84182112Y-86461842D01*
X84182112Y-86461842D02*
X84182112Y-86676128D01*
X84182112Y-86676128D02*
X84110684Y-86818985D01*
X84110684Y-86818985D02*
X84039255Y-86890414D01*
X84039255Y-86890414D02*
X83896398Y-86961842D01*
X83896398Y-86961842D02*
X83324969Y-86961842D01*
X85539255Y-86176128D02*
X84824969Y-86176128D01*
X84824969Y-86176128D02*
X84753541Y-86890414D01*
X84753541Y-86890414D02*
X84824969Y-86818985D01*
X84824969Y-86818985D02*
X84967827Y-86747557D01*
X84967827Y-86747557D02*
X85324969Y-86747557D01*
X85324969Y-86747557D02*
X85467827Y-86818985D01*
X85467827Y-86818985D02*
X85539255Y-86890414D01*
X85539255Y-86890414D02*
X85610684Y-87033271D01*
X85610684Y-87033271D02*
X85610684Y-87390414D01*
X85610684Y-87390414D02*
X85539255Y-87533271D01*
X85539255Y-87533271D02*
X85467827Y-87604700D01*
X85467827Y-87604700D02*
X85324969Y-87676128D01*
X85324969Y-87676128D02*
X84967827Y-87676128D01*
X84967827Y-87676128D02*
X84824969Y-87604700D01*
X84824969Y-87604700D02*
X84753541Y-87533271D01*
X86182112Y-86318985D02*
X86253540Y-86247557D01*
X86253540Y-86247557D02*
X86396398Y-86176128D01*
X86396398Y-86176128D02*
X86753540Y-86176128D01*
X86753540Y-86176128D02*
X86896398Y-86247557D01*
X86896398Y-86247557D02*
X86967826Y-86318985D01*
X86967826Y-86318985D02*
X87039255Y-86461842D01*
X87039255Y-86461842D02*
X87039255Y-86604700D01*
X87039255Y-86604700D02*
X86967826Y-86818985D01*
X86967826Y-86818985D02*
X86110683Y-87676128D01*
X86110683Y-87676128D02*
X87039255Y-87676128D01*
X87539254Y-86176128D02*
X88539254Y-86176128D01*
X88539254Y-86176128D02*
X87896397Y-87676128D01*
X89396397Y-86176128D02*
X89539254Y-86176128D01*
X89539254Y-86176128D02*
X89682111Y-86247557D01*
X89682111Y-86247557D02*
X89753540Y-86318985D01*
X89753540Y-86318985D02*
X89824968Y-86461842D01*
X89824968Y-86461842D02*
X89896397Y-86747557D01*
X89896397Y-86747557D02*
X89896397Y-87104700D01*
X89896397Y-87104700D02*
X89824968Y-87390414D01*
X89824968Y-87390414D02*
X89753540Y-87533271D01*
X89753540Y-87533271D02*
X89682111Y-87604700D01*
X89682111Y-87604700D02*
X89539254Y-87676128D01*
X89539254Y-87676128D02*
X89396397Y-87676128D01*
X89396397Y-87676128D02*
X89253540Y-87604700D01*
X89253540Y-87604700D02*
X89182111Y-87533271D01*
X89182111Y-87533271D02*
X89110682Y-87390414D01*
X89110682Y-87390414D02*
X89039254Y-87104700D01*
X89039254Y-87104700D02*
X89039254Y-86747557D01*
X89039254Y-86747557D02*
X89110682Y-86461842D01*
X89110682Y-86461842D02*
X89182111Y-86318985D01*
X89182111Y-86318985D02*
X89253540Y-86247557D01*
X89253540Y-86247557D02*
X89396397Y-86176128D01*
D10*
D11*
X32182112Y-84676128D02*
X31467826Y-84676128D01*
X31467826Y-84676128D02*
X31467826Y-83176128D01*
X32682112Y-84676128D02*
X32682112Y-83676128D01*
X32682112Y-83176128D02*
X32610684Y-83247557D01*
X32610684Y-83247557D02*
X32682112Y-83318985D01*
X32682112Y-83318985D02*
X32753541Y-83247557D01*
X32753541Y-83247557D02*
X32682112Y-83176128D01*
X32682112Y-83176128D02*
X32682112Y-83318985D01*
X34039256Y-84604700D02*
X33896398Y-84676128D01*
X33896398Y-84676128D02*
X33610684Y-84676128D01*
X33610684Y-84676128D02*
X33467827Y-84604700D01*
X33467827Y-84604700D02*
X33396398Y-84533271D01*
X33396398Y-84533271D02*
X33324970Y-84390414D01*
X33324970Y-84390414D02*
X33324970Y-83961842D01*
X33324970Y-83961842D02*
X33396398Y-83818985D01*
X33396398Y-83818985D02*
X33467827Y-83747557D01*
X33467827Y-83747557D02*
X33610684Y-83676128D01*
X33610684Y-83676128D02*
X33896398Y-83676128D01*
X33896398Y-83676128D02*
X34039256Y-83747557D01*
X35253541Y-84604700D02*
X35110684Y-84676128D01*
X35110684Y-84676128D02*
X34824970Y-84676128D01*
X34824970Y-84676128D02*
X34682112Y-84604700D01*
X34682112Y-84604700D02*
X34610684Y-84461842D01*
X34610684Y-84461842D02*
X34610684Y-83890414D01*
X34610684Y-83890414D02*
X34682112Y-83747557D01*
X34682112Y-83747557D02*
X34824970Y-83676128D01*
X34824970Y-83676128D02*
X35110684Y-83676128D01*
X35110684Y-83676128D02*
X35253541Y-83747557D01*
X35253541Y-83747557D02*
X35324970Y-83890414D01*
X35324970Y-83890414D02*
X35324970Y-84033271D01*
X35324970Y-84033271D02*
X34610684Y-84176128D01*
X35967826Y-83676128D02*
X35967826Y-84676128D01*
X35967826Y-83818985D02*
X36039255Y-83747557D01*
X36039255Y-83747557D02*
X36182112Y-83676128D01*
X36182112Y-83676128D02*
X36396398Y-83676128D01*
X36396398Y-83676128D02*
X36539255Y-83747557D01*
X36539255Y-83747557D02*
X36610684Y-83890414D01*
X36610684Y-83890414D02*
X36610684Y-84676128D01*
X37253541Y-84604700D02*
X37396398Y-84676128D01*
X37396398Y-84676128D02*
X37682112Y-84676128D01*
X37682112Y-84676128D02*
X37824969Y-84604700D01*
X37824969Y-84604700D02*
X37896398Y-84461842D01*
X37896398Y-84461842D02*
X37896398Y-84390414D01*
X37896398Y-84390414D02*
X37824969Y-84247557D01*
X37824969Y-84247557D02*
X37682112Y-84176128D01*
X37682112Y-84176128D02*
X37467827Y-84176128D01*
X37467827Y-84176128D02*
X37324969Y-84104700D01*
X37324969Y-84104700D02*
X37253541Y-83961842D01*
X37253541Y-83961842D02*
X37253541Y-83890414D01*
X37253541Y-83890414D02*
X37324969Y-83747557D01*
X37324969Y-83747557D02*
X37467827Y-83676128D01*
X37467827Y-83676128D02*
X37682112Y-83676128D01*
X37682112Y-83676128D02*
X37824969Y-83747557D01*
X39110684Y-84604700D02*
X38967827Y-84676128D01*
X38967827Y-84676128D02*
X38682113Y-84676128D01*
X38682113Y-84676128D02*
X38539255Y-84604700D01*
X38539255Y-84604700D02*
X38467827Y-84461842D01*
X38467827Y-84461842D02*
X38467827Y-83890414D01*
X38467827Y-83890414D02*
X38539255Y-83747557D01*
X38539255Y-83747557D02*
X38682113Y-83676128D01*
X38682113Y-83676128D02*
X38967827Y-83676128D01*
X38967827Y-83676128D02*
X39110684Y-83747557D01*
X39110684Y-83747557D02*
X39182113Y-83890414D01*
X39182113Y-83890414D02*
X39182113Y-84033271D01*
X39182113Y-84033271D02*
X38467827Y-84176128D01*
X40967826Y-84533271D02*
X41039255Y-84604700D01*
X41039255Y-84604700D02*
X40967826Y-84676128D01*
X40967826Y-84676128D02*
X40896398Y-84604700D01*
X40896398Y-84604700D02*
X40967826Y-84533271D01*
X40967826Y-84533271D02*
X40967826Y-84676128D01*
X40967826Y-83747557D02*
X41039255Y-83818985D01*
X41039255Y-83818985D02*
X40967826Y-83890414D01*
X40967826Y-83890414D02*
X40896398Y-83818985D01*
X40896398Y-83818985D02*
X40967826Y-83747557D01*
X40967826Y-83747557D02*
X40967826Y-83890414D01*
X42824969Y-84676128D02*
X42824969Y-83176128D01*
X42824969Y-83176128D02*
X43324969Y-84247557D01*
X43324969Y-84247557D02*
X43824969Y-83176128D01*
X43824969Y-83176128D02*
X43824969Y-84676128D01*
X44539255Y-84676128D02*
X44539255Y-83176128D01*
X45039256Y-83176128D02*
X45896399Y-83176128D01*
X45467827Y-84676128D02*
X45467827Y-83176128D01*
X48253541Y-84676128D02*
X47539255Y-84676128D01*
X47539255Y-84676128D02*
X47539255Y-83176128D01*
X48753541Y-84676128D02*
X48753541Y-83676128D01*
X48753541Y-83176128D02*
X48682113Y-83247557D01*
X48682113Y-83247557D02*
X48753541Y-83318985D01*
X48753541Y-83318985D02*
X48824970Y-83247557D01*
X48824970Y-83247557D02*
X48753541Y-83176128D01*
X48753541Y-83176128D02*
X48753541Y-83318985D01*
X50110685Y-84604700D02*
X49967827Y-84676128D01*
X49967827Y-84676128D02*
X49682113Y-84676128D01*
X49682113Y-84676128D02*
X49539256Y-84604700D01*
X49539256Y-84604700D02*
X49467827Y-84533271D01*
X49467827Y-84533271D02*
X49396399Y-84390414D01*
X49396399Y-84390414D02*
X49396399Y-83961842D01*
X49396399Y-83961842D02*
X49467827Y-83818985D01*
X49467827Y-83818985D02*
X49539256Y-83747557D01*
X49539256Y-83747557D02*
X49682113Y-83676128D01*
X49682113Y-83676128D02*
X49967827Y-83676128D01*
X49967827Y-83676128D02*
X50110685Y-83747557D01*
X51324970Y-84604700D02*
X51182113Y-84676128D01*
X51182113Y-84676128D02*
X50896399Y-84676128D01*
X50896399Y-84676128D02*
X50753541Y-84604700D01*
X50753541Y-84604700D02*
X50682113Y-84461842D01*
X50682113Y-84461842D02*
X50682113Y-83890414D01*
X50682113Y-83890414D02*
X50753541Y-83747557D01*
X50753541Y-83747557D02*
X50896399Y-83676128D01*
X50896399Y-83676128D02*
X51182113Y-83676128D01*
X51182113Y-83676128D02*
X51324970Y-83747557D01*
X51324970Y-83747557D02*
X51396399Y-83890414D01*
X51396399Y-83890414D02*
X51396399Y-84033271D01*
X51396399Y-84033271D02*
X50682113Y-84176128D01*
X52039255Y-83676128D02*
X52039255Y-84676128D01*
X52039255Y-83818985D02*
X52110684Y-83747557D01*
X52110684Y-83747557D02*
X52253541Y-83676128D01*
X52253541Y-83676128D02*
X52467827Y-83676128D01*
X52467827Y-83676128D02*
X52610684Y-83747557D01*
X52610684Y-83747557D02*
X52682113Y-83890414D01*
X52682113Y-83890414D02*
X52682113Y-84676128D01*
X53324970Y-84604700D02*
X53467827Y-84676128D01*
X53467827Y-84676128D02*
X53753541Y-84676128D01*
X53753541Y-84676128D02*
X53896398Y-84604700D01*
X53896398Y-84604700D02*
X53967827Y-84461842D01*
X53967827Y-84461842D02*
X53967827Y-84390414D01*
X53967827Y-84390414D02*
X53896398Y-84247557D01*
X53896398Y-84247557D02*
X53753541Y-84176128D01*
X53753541Y-84176128D02*
X53539256Y-84176128D01*
X53539256Y-84176128D02*
X53396398Y-84104700D01*
X53396398Y-84104700D02*
X53324970Y-83961842D01*
X53324970Y-83961842D02*
X53324970Y-83890414D01*
X53324970Y-83890414D02*
X53396398Y-83747557D01*
X53396398Y-83747557D02*
X53539256Y-83676128D01*
X53539256Y-83676128D02*
X53753541Y-83676128D01*
X53753541Y-83676128D02*
X53896398Y-83747557D01*
X55182113Y-84604700D02*
X55039256Y-84676128D01*
X55039256Y-84676128D02*
X54753542Y-84676128D01*
X54753542Y-84676128D02*
X54610684Y-84604700D01*
X54610684Y-84604700D02*
X54539256Y-84461842D01*
X54539256Y-84461842D02*
X54539256Y-83890414D01*
X54539256Y-83890414D02*
X54610684Y-83747557D01*
X54610684Y-83747557D02*
X54753542Y-83676128D01*
X54753542Y-83676128D02*
X55039256Y-83676128D01*
X55039256Y-83676128D02*
X55182113Y-83747557D01*
X55182113Y-83747557D02*
X55253542Y-83890414D01*
X55253542Y-83890414D02*
X55253542Y-84033271D01*
X55253542Y-84033271D02*
X54539256Y-84176128D01*
D10*
D11*
X32324969Y-81533271D02*
X32253541Y-81604700D01*
X32253541Y-81604700D02*
X32039255Y-81676128D01*
X32039255Y-81676128D02*
X31896398Y-81676128D01*
X31896398Y-81676128D02*
X31682112Y-81604700D01*
X31682112Y-81604700D02*
X31539255Y-81461842D01*
X31539255Y-81461842D02*
X31467826Y-81318985D01*
X31467826Y-81318985D02*
X31396398Y-81033271D01*
X31396398Y-81033271D02*
X31396398Y-80818985D01*
X31396398Y-80818985D02*
X31467826Y-80533271D01*
X31467826Y-80533271D02*
X31539255Y-80390414D01*
X31539255Y-80390414D02*
X31682112Y-80247557D01*
X31682112Y-80247557D02*
X31896398Y-80176128D01*
X31896398Y-80176128D02*
X32039255Y-80176128D01*
X32039255Y-80176128D02*
X32253541Y-80247557D01*
X32253541Y-80247557D02*
X32324969Y-80318985D01*
X33182112Y-81676128D02*
X33039255Y-81604700D01*
X33039255Y-81604700D02*
X32967826Y-81533271D01*
X32967826Y-81533271D02*
X32896398Y-81390414D01*
X32896398Y-81390414D02*
X32896398Y-80961842D01*
X32896398Y-80961842D02*
X32967826Y-80818985D01*
X32967826Y-80818985D02*
X33039255Y-80747557D01*
X33039255Y-80747557D02*
X33182112Y-80676128D01*
X33182112Y-80676128D02*
X33396398Y-80676128D01*
X33396398Y-80676128D02*
X33539255Y-80747557D01*
X33539255Y-80747557D02*
X33610684Y-80818985D01*
X33610684Y-80818985D02*
X33682112Y-80961842D01*
X33682112Y-80961842D02*
X33682112Y-81390414D01*
X33682112Y-81390414D02*
X33610684Y-81533271D01*
X33610684Y-81533271D02*
X33539255Y-81604700D01*
X33539255Y-81604700D02*
X33396398Y-81676128D01*
X33396398Y-81676128D02*
X33182112Y-81676128D01*
X34324969Y-80676128D02*
X34324969Y-81676128D01*
X34324969Y-80818985D02*
X34396398Y-80747557D01*
X34396398Y-80747557D02*
X34539255Y-80676128D01*
X34539255Y-80676128D02*
X34753541Y-80676128D01*
X34753541Y-80676128D02*
X34896398Y-80747557D01*
X34896398Y-80747557D02*
X34967827Y-80890414D01*
X34967827Y-80890414D02*
X34967827Y-81676128D01*
X35467827Y-80676128D02*
X36039255Y-80676128D01*
X35682112Y-80176128D02*
X35682112Y-81461842D01*
X35682112Y-81461842D02*
X35753541Y-81604700D01*
X35753541Y-81604700D02*
X35896398Y-81676128D01*
X35896398Y-81676128D02*
X36039255Y-81676128D01*
X37182113Y-81676128D02*
X37182113Y-80890414D01*
X37182113Y-80890414D02*
X37110684Y-80747557D01*
X37110684Y-80747557D02*
X36967827Y-80676128D01*
X36967827Y-80676128D02*
X36682113Y-80676128D01*
X36682113Y-80676128D02*
X36539255Y-80747557D01*
X37182113Y-81604700D02*
X37039255Y-81676128D01*
X37039255Y-81676128D02*
X36682113Y-81676128D01*
X36682113Y-81676128D02*
X36539255Y-81604700D01*
X36539255Y-81604700D02*
X36467827Y-81461842D01*
X36467827Y-81461842D02*
X36467827Y-81318985D01*
X36467827Y-81318985D02*
X36539255Y-81176128D01*
X36539255Y-81176128D02*
X36682113Y-81104700D01*
X36682113Y-81104700D02*
X37039255Y-81104700D01*
X37039255Y-81104700D02*
X37182113Y-81033271D01*
X38539256Y-81604700D02*
X38396398Y-81676128D01*
X38396398Y-81676128D02*
X38110684Y-81676128D01*
X38110684Y-81676128D02*
X37967827Y-81604700D01*
X37967827Y-81604700D02*
X37896398Y-81533271D01*
X37896398Y-81533271D02*
X37824970Y-81390414D01*
X37824970Y-81390414D02*
X37824970Y-80961842D01*
X37824970Y-80961842D02*
X37896398Y-80818985D01*
X37896398Y-80818985D02*
X37967827Y-80747557D01*
X37967827Y-80747557D02*
X38110684Y-80676128D01*
X38110684Y-80676128D02*
X38396398Y-80676128D01*
X38396398Y-80676128D02*
X38539256Y-80747557D01*
X38967827Y-80676128D02*
X39539255Y-80676128D01*
X39182112Y-80176128D02*
X39182112Y-81461842D01*
X39182112Y-81461842D02*
X39253541Y-81604700D01*
X39253541Y-81604700D02*
X39396398Y-81676128D01*
X39396398Y-81676128D02*
X39539255Y-81676128D01*
X41182112Y-81533271D02*
X41253541Y-81604700D01*
X41253541Y-81604700D02*
X41182112Y-81676128D01*
X41182112Y-81676128D02*
X41110684Y-81604700D01*
X41110684Y-81604700D02*
X41182112Y-81533271D01*
X41182112Y-81533271D02*
X41182112Y-81676128D01*
X41182112Y-80747557D02*
X41253541Y-80818985D01*
X41253541Y-80818985D02*
X41182112Y-80890414D01*
X41182112Y-80890414D02*
X41110684Y-80818985D01*
X41110684Y-80818985D02*
X41182112Y-80747557D01*
X41182112Y-80747557D02*
X41182112Y-80890414D01*
X43039255Y-81676128D02*
X43039255Y-80176128D01*
X43039255Y-80747557D02*
X43182113Y-80676128D01*
X43182113Y-80676128D02*
X43467827Y-80676128D01*
X43467827Y-80676128D02*
X43610684Y-80747557D01*
X43610684Y-80747557D02*
X43682113Y-80818985D01*
X43682113Y-80818985D02*
X43753541Y-80961842D01*
X43753541Y-80961842D02*
X43753541Y-81390414D01*
X43753541Y-81390414D02*
X43682113Y-81533271D01*
X43682113Y-81533271D02*
X43610684Y-81604700D01*
X43610684Y-81604700D02*
X43467827Y-81676128D01*
X43467827Y-81676128D02*
X43182113Y-81676128D01*
X43182113Y-81676128D02*
X43039255Y-81604700D01*
X44967827Y-81604700D02*
X44824970Y-81676128D01*
X44824970Y-81676128D02*
X44539256Y-81676128D01*
X44539256Y-81676128D02*
X44396398Y-81604700D01*
X44396398Y-81604700D02*
X44324970Y-81461842D01*
X44324970Y-81461842D02*
X44324970Y-80890414D01*
X44324970Y-80890414D02*
X44396398Y-80747557D01*
X44396398Y-80747557D02*
X44539256Y-80676128D01*
X44539256Y-80676128D02*
X44824970Y-80676128D01*
X44824970Y-80676128D02*
X44967827Y-80747557D01*
X44967827Y-80747557D02*
X45039256Y-80890414D01*
X45039256Y-80890414D02*
X45039256Y-81033271D01*
X45039256Y-81033271D02*
X44324970Y-81176128D01*
X45682112Y-81676128D02*
X45682112Y-80676128D01*
X45682112Y-80961842D02*
X45753541Y-80818985D01*
X45753541Y-80818985D02*
X45824970Y-80747557D01*
X45824970Y-80747557D02*
X45967827Y-80676128D01*
X45967827Y-80676128D02*
X46110684Y-80676128D01*
X46396398Y-80676128D02*
X46967826Y-80676128D01*
X46610683Y-80176128D02*
X46610683Y-81461842D01*
X46610683Y-81461842D02*
X46682112Y-81604700D01*
X46682112Y-81604700D02*
X46824969Y-81676128D01*
X46824969Y-81676128D02*
X46967826Y-81676128D01*
X47467826Y-81676128D02*
X47467826Y-80676128D01*
X47467826Y-80961842D02*
X47539255Y-80818985D01*
X47539255Y-80818985D02*
X47610684Y-80747557D01*
X47610684Y-80747557D02*
X47753541Y-80676128D01*
X47753541Y-80676128D02*
X47896398Y-80676128D01*
X49039255Y-81676128D02*
X49039255Y-80890414D01*
X49039255Y-80890414D02*
X48967826Y-80747557D01*
X48967826Y-80747557D02*
X48824969Y-80676128D01*
X48824969Y-80676128D02*
X48539255Y-80676128D01*
X48539255Y-80676128D02*
X48396397Y-80747557D01*
X49039255Y-81604700D02*
X48896397Y-81676128D01*
X48896397Y-81676128D02*
X48539255Y-81676128D01*
X48539255Y-81676128D02*
X48396397Y-81604700D01*
X48396397Y-81604700D02*
X48324969Y-81461842D01*
X48324969Y-81461842D02*
X48324969Y-81318985D01*
X48324969Y-81318985D02*
X48396397Y-81176128D01*
X48396397Y-81176128D02*
X48539255Y-81104700D01*
X48539255Y-81104700D02*
X48896397Y-81104700D01*
X48896397Y-81104700D02*
X49039255Y-81033271D01*
X49753540Y-80676128D02*
X49753540Y-81676128D01*
X49753540Y-80818985D02*
X49824969Y-80747557D01*
X49824969Y-80747557D02*
X49967826Y-80676128D01*
X49967826Y-80676128D02*
X50182112Y-80676128D01*
X50182112Y-80676128D02*
X50324969Y-80747557D01*
X50324969Y-80747557D02*
X50396398Y-80890414D01*
X50396398Y-80890414D02*
X50396398Y-81676128D01*
X51753541Y-81676128D02*
X51753541Y-80176128D01*
X51753541Y-81604700D02*
X51610683Y-81676128D01*
X51610683Y-81676128D02*
X51324969Y-81676128D01*
X51324969Y-81676128D02*
X51182112Y-81604700D01*
X51182112Y-81604700D02*
X51110683Y-81533271D01*
X51110683Y-81533271D02*
X51039255Y-81390414D01*
X51039255Y-81390414D02*
X51039255Y-80961842D01*
X51039255Y-80961842D02*
X51110683Y-80818985D01*
X51110683Y-80818985D02*
X51182112Y-80747557D01*
X51182112Y-80747557D02*
X51324969Y-80676128D01*
X51324969Y-80676128D02*
X51610683Y-80676128D01*
X51610683Y-80676128D02*
X51753541Y-80747557D01*
X52467826Y-81533271D02*
X52539255Y-81604700D01*
X52539255Y-81604700D02*
X52467826Y-81676128D01*
X52467826Y-81676128D02*
X52396398Y-81604700D01*
X52396398Y-81604700D02*
X52467826Y-81533271D01*
X52467826Y-81533271D02*
X52467826Y-81676128D01*
X53182112Y-81676128D02*
X53182112Y-80676128D01*
X53182112Y-80818985D02*
X53253541Y-80747557D01*
X53253541Y-80747557D02*
X53396398Y-80676128D01*
X53396398Y-80676128D02*
X53610684Y-80676128D01*
X53610684Y-80676128D02*
X53753541Y-80747557D01*
X53753541Y-80747557D02*
X53824970Y-80890414D01*
X53824970Y-80890414D02*
X53824970Y-81676128D01*
X53824970Y-80890414D02*
X53896398Y-80747557D01*
X53896398Y-80747557D02*
X54039255Y-80676128D01*
X54039255Y-80676128D02*
X54253541Y-80676128D01*
X54253541Y-80676128D02*
X54396398Y-80747557D01*
X54396398Y-80747557D02*
X54467827Y-80890414D01*
X54467827Y-80890414D02*
X54467827Y-81676128D01*
X55824970Y-81676128D02*
X55824970Y-80890414D01*
X55824970Y-80890414D02*
X55753541Y-80747557D01*
X55753541Y-80747557D02*
X55610684Y-80676128D01*
X55610684Y-80676128D02*
X55324970Y-80676128D01*
X55324970Y-80676128D02*
X55182112Y-80747557D01*
X55824970Y-81604700D02*
X55682112Y-81676128D01*
X55682112Y-81676128D02*
X55324970Y-81676128D01*
X55324970Y-81676128D02*
X55182112Y-81604700D01*
X55182112Y-81604700D02*
X55110684Y-81461842D01*
X55110684Y-81461842D02*
X55110684Y-81318985D01*
X55110684Y-81318985D02*
X55182112Y-81176128D01*
X55182112Y-81176128D02*
X55324970Y-81104700D01*
X55324970Y-81104700D02*
X55682112Y-81104700D01*
X55682112Y-81104700D02*
X55824970Y-81033271D01*
X56467827Y-81604700D02*
X56610684Y-81676128D01*
X56610684Y-81676128D02*
X56896398Y-81676128D01*
X56896398Y-81676128D02*
X57039255Y-81604700D01*
X57039255Y-81604700D02*
X57110684Y-81461842D01*
X57110684Y-81461842D02*
X57110684Y-81390414D01*
X57110684Y-81390414D02*
X57039255Y-81247557D01*
X57039255Y-81247557D02*
X56896398Y-81176128D01*
X56896398Y-81176128D02*
X56682113Y-81176128D01*
X56682113Y-81176128D02*
X56539255Y-81104700D01*
X56539255Y-81104700D02*
X56467827Y-80961842D01*
X56467827Y-80961842D02*
X56467827Y-80890414D01*
X56467827Y-80890414D02*
X56539255Y-80747557D01*
X56539255Y-80747557D02*
X56682113Y-80676128D01*
X56682113Y-80676128D02*
X56896398Y-80676128D01*
X56896398Y-80676128D02*
X57039255Y-80747557D01*
X57682113Y-81604700D02*
X57824970Y-81676128D01*
X57824970Y-81676128D02*
X58110684Y-81676128D01*
X58110684Y-81676128D02*
X58253541Y-81604700D01*
X58253541Y-81604700D02*
X58324970Y-81461842D01*
X58324970Y-81461842D02*
X58324970Y-81390414D01*
X58324970Y-81390414D02*
X58253541Y-81247557D01*
X58253541Y-81247557D02*
X58110684Y-81176128D01*
X58110684Y-81176128D02*
X57896399Y-81176128D01*
X57896399Y-81176128D02*
X57753541Y-81104700D01*
X57753541Y-81104700D02*
X57682113Y-80961842D01*
X57682113Y-80961842D02*
X57682113Y-80890414D01*
X57682113Y-80890414D02*
X57753541Y-80747557D01*
X57753541Y-80747557D02*
X57896399Y-80676128D01*
X57896399Y-80676128D02*
X58110684Y-80676128D01*
X58110684Y-80676128D02*
X58253541Y-80747557D01*
X59182113Y-81676128D02*
X59039256Y-81604700D01*
X59039256Y-81604700D02*
X58967827Y-81533271D01*
X58967827Y-81533271D02*
X58896399Y-81390414D01*
X58896399Y-81390414D02*
X58896399Y-80961842D01*
X58896399Y-80961842D02*
X58967827Y-80818985D01*
X58967827Y-80818985D02*
X59039256Y-80747557D01*
X59039256Y-80747557D02*
X59182113Y-80676128D01*
X59182113Y-80676128D02*
X59396399Y-80676128D01*
X59396399Y-80676128D02*
X59539256Y-80747557D01*
X59539256Y-80747557D02*
X59610685Y-80818985D01*
X59610685Y-80818985D02*
X59682113Y-80961842D01*
X59682113Y-80961842D02*
X59682113Y-81390414D01*
X59682113Y-81390414D02*
X59610685Y-81533271D01*
X59610685Y-81533271D02*
X59539256Y-81604700D01*
X59539256Y-81604700D02*
X59396399Y-81676128D01*
X59396399Y-81676128D02*
X59182113Y-81676128D01*
X60110685Y-80676128D02*
X60682113Y-80676128D01*
X60324970Y-80176128D02*
X60324970Y-81461842D01*
X60324970Y-81461842D02*
X60396399Y-81604700D01*
X60396399Y-81604700D02*
X60539256Y-81676128D01*
X60539256Y-81676128D02*
X60682113Y-81676128D01*
X62110685Y-80961842D02*
X62039256Y-80890414D01*
X62039256Y-80890414D02*
X61896399Y-80818985D01*
X61896399Y-80818985D02*
X61753542Y-80818985D01*
X61753542Y-80818985D02*
X61610685Y-80890414D01*
X61610685Y-80890414D02*
X61539256Y-80961842D01*
X61539256Y-80961842D02*
X61467828Y-81104700D01*
X61467828Y-81104700D02*
X61467828Y-81247557D01*
X61467828Y-81247557D02*
X61539256Y-81390414D01*
X61539256Y-81390414D02*
X61610685Y-81461842D01*
X61610685Y-81461842D02*
X61753542Y-81533271D01*
X61753542Y-81533271D02*
X61896399Y-81533271D01*
X61896399Y-81533271D02*
X62039256Y-81461842D01*
X62039256Y-81461842D02*
X62110685Y-81390414D01*
X62110685Y-80818985D02*
X62110685Y-81390414D01*
X62110685Y-81390414D02*
X62182113Y-81461842D01*
X62182113Y-81461842D02*
X62253542Y-81461842D01*
X62253542Y-81461842D02*
X62396399Y-81390414D01*
X62396399Y-81390414D02*
X62467828Y-81247557D01*
X62467828Y-81247557D02*
X62467828Y-80890414D01*
X62467828Y-80890414D02*
X62324971Y-80676128D01*
X62324971Y-80676128D02*
X62110685Y-80533271D01*
X62110685Y-80533271D02*
X61824971Y-80461842D01*
X61824971Y-80461842D02*
X61539256Y-80533271D01*
X61539256Y-80533271D02*
X61324971Y-80676128D01*
X61324971Y-80676128D02*
X61182113Y-80890414D01*
X61182113Y-80890414D02*
X61110685Y-81176128D01*
X61110685Y-81176128D02*
X61182113Y-81461842D01*
X61182113Y-81461842D02*
X61324971Y-81676128D01*
X61324971Y-81676128D02*
X61539256Y-81818985D01*
X61539256Y-81818985D02*
X61824971Y-81890414D01*
X61824971Y-81890414D02*
X62110685Y-81818985D01*
X62110685Y-81818985D02*
X62324971Y-81676128D01*
X63110684Y-81676128D02*
X63110684Y-80676128D01*
X63110684Y-80176128D02*
X63039256Y-80247557D01*
X63039256Y-80247557D02*
X63110684Y-80318985D01*
X63110684Y-80318985D02*
X63182113Y-80247557D01*
X63182113Y-80247557D02*
X63110684Y-80176128D01*
X63110684Y-80176128D02*
X63110684Y-80318985D01*
X63824970Y-80676128D02*
X63824970Y-81676128D01*
X63824970Y-80818985D02*
X63896399Y-80747557D01*
X63896399Y-80747557D02*
X64039256Y-80676128D01*
X64039256Y-80676128D02*
X64253542Y-80676128D01*
X64253542Y-80676128D02*
X64396399Y-80747557D01*
X64396399Y-80747557D02*
X64467828Y-80890414D01*
X64467828Y-80890414D02*
X64467828Y-81676128D01*
X65110685Y-81604700D02*
X65253542Y-81676128D01*
X65253542Y-81676128D02*
X65539256Y-81676128D01*
X65539256Y-81676128D02*
X65682113Y-81604700D01*
X65682113Y-81604700D02*
X65753542Y-81461842D01*
X65753542Y-81461842D02*
X65753542Y-81390414D01*
X65753542Y-81390414D02*
X65682113Y-81247557D01*
X65682113Y-81247557D02*
X65539256Y-81176128D01*
X65539256Y-81176128D02*
X65324971Y-81176128D01*
X65324971Y-81176128D02*
X65182113Y-81104700D01*
X65182113Y-81104700D02*
X65110685Y-80961842D01*
X65110685Y-80961842D02*
X65110685Y-80890414D01*
X65110685Y-80890414D02*
X65182113Y-80747557D01*
X65182113Y-80747557D02*
X65324971Y-80676128D01*
X65324971Y-80676128D02*
X65539256Y-80676128D01*
X65539256Y-80676128D02*
X65682113Y-80747557D01*
X67039257Y-81676128D02*
X67039257Y-80890414D01*
X67039257Y-80890414D02*
X66967828Y-80747557D01*
X66967828Y-80747557D02*
X66824971Y-80676128D01*
X66824971Y-80676128D02*
X66539257Y-80676128D01*
X66539257Y-80676128D02*
X66396399Y-80747557D01*
X67039257Y-81604700D02*
X66896399Y-81676128D01*
X66896399Y-81676128D02*
X66539257Y-81676128D01*
X66539257Y-81676128D02*
X66396399Y-81604700D01*
X66396399Y-81604700D02*
X66324971Y-81461842D01*
X66324971Y-81461842D02*
X66324971Y-81318985D01*
X66324971Y-81318985D02*
X66396399Y-81176128D01*
X66396399Y-81176128D02*
X66539257Y-81104700D01*
X66539257Y-81104700D02*
X66896399Y-81104700D01*
X66896399Y-81104700D02*
X67039257Y-81033271D01*
X67753542Y-81104700D02*
X68896400Y-81104700D01*
X69824971Y-81676128D02*
X69682114Y-81604700D01*
X69682114Y-81604700D02*
X69610685Y-81461842D01*
X69610685Y-81461842D02*
X69610685Y-80176128D01*
X70253542Y-80676128D02*
X70610685Y-81676128D01*
X70967828Y-80676128D02*
X70610685Y-81676128D01*
X70610685Y-81676128D02*
X70467828Y-82033271D01*
X70467828Y-82033271D02*
X70396399Y-82104700D01*
X70396399Y-82104700D02*
X70253542Y-82176128D01*
X71753542Y-81676128D02*
X71610685Y-81604700D01*
X71610685Y-81604700D02*
X71539256Y-81533271D01*
X71539256Y-81533271D02*
X71467828Y-81390414D01*
X71467828Y-81390414D02*
X71467828Y-80961842D01*
X71467828Y-80961842D02*
X71539256Y-80818985D01*
X71539256Y-80818985D02*
X71610685Y-80747557D01*
X71610685Y-80747557D02*
X71753542Y-80676128D01*
X71753542Y-80676128D02*
X71967828Y-80676128D01*
X71967828Y-80676128D02*
X72110685Y-80747557D01*
X72110685Y-80747557D02*
X72182114Y-80818985D01*
X72182114Y-80818985D02*
X72253542Y-80961842D01*
X72253542Y-80961842D02*
X72253542Y-81390414D01*
X72253542Y-81390414D02*
X72182114Y-81533271D01*
X72182114Y-81533271D02*
X72110685Y-81604700D01*
X72110685Y-81604700D02*
X71967828Y-81676128D01*
X71967828Y-81676128D02*
X71753542Y-81676128D01*
X72896399Y-80676128D02*
X72896399Y-81676128D01*
X72896399Y-80818985D02*
X72967828Y-80747557D01*
X72967828Y-80747557D02*
X73110685Y-80676128D01*
X73110685Y-80676128D02*
X73324971Y-80676128D01*
X73324971Y-80676128D02*
X73467828Y-80747557D01*
X73467828Y-80747557D02*
X73539257Y-80890414D01*
X73539257Y-80890414D02*
X73539257Y-81676128D01*
X74253542Y-81533271D02*
X74324971Y-81604700D01*
X74324971Y-81604700D02*
X74253542Y-81676128D01*
X74253542Y-81676128D02*
X74182114Y-81604700D01*
X74182114Y-81604700D02*
X74253542Y-81533271D01*
X74253542Y-81533271D02*
X74253542Y-81676128D01*
X74753543Y-80676128D02*
X75324971Y-80676128D01*
X74967828Y-81676128D02*
X74967828Y-80390414D01*
X74967828Y-80390414D02*
X75039257Y-80247557D01*
X75039257Y-80247557D02*
X75182114Y-80176128D01*
X75182114Y-80176128D02*
X75324971Y-80176128D01*
X75824971Y-81676128D02*
X75824971Y-80676128D01*
X75824971Y-80961842D02*
X75896400Y-80818985D01*
X75896400Y-80818985D02*
X75967829Y-80747557D01*
X75967829Y-80747557D02*
X76110686Y-80676128D01*
X76110686Y-80676128D02*
X76253543Y-80676128D01*
D10*
D11*
X31396398Y-78247557D02*
X32110684Y-78247557D01*
X31253541Y-78676128D02*
X31753541Y-77176128D01*
X31753541Y-77176128D02*
X32253541Y-78676128D01*
X33396398Y-77676128D02*
X33396398Y-78676128D01*
X32753540Y-77676128D02*
X32753540Y-78461842D01*
X32753540Y-78461842D02*
X32824969Y-78604700D01*
X32824969Y-78604700D02*
X32967826Y-78676128D01*
X32967826Y-78676128D02*
X33182112Y-78676128D01*
X33182112Y-78676128D02*
X33324969Y-78604700D01*
X33324969Y-78604700D02*
X33396398Y-78533271D01*
X33896398Y-77676128D02*
X34467826Y-77676128D01*
X34110683Y-77176128D02*
X34110683Y-78461842D01*
X34110683Y-78461842D02*
X34182112Y-78604700D01*
X34182112Y-78604700D02*
X34324969Y-78676128D01*
X34324969Y-78676128D02*
X34467826Y-78676128D01*
X34967826Y-78676128D02*
X34967826Y-77176128D01*
X35610684Y-78676128D02*
X35610684Y-77890414D01*
X35610684Y-77890414D02*
X35539255Y-77747557D01*
X35539255Y-77747557D02*
X35396398Y-77676128D01*
X35396398Y-77676128D02*
X35182112Y-77676128D01*
X35182112Y-77676128D02*
X35039255Y-77747557D01*
X35039255Y-77747557D02*
X34967826Y-77818985D01*
X36539255Y-78676128D02*
X36396398Y-78604700D01*
X36396398Y-78604700D02*
X36324969Y-78533271D01*
X36324969Y-78533271D02*
X36253541Y-78390414D01*
X36253541Y-78390414D02*
X36253541Y-77961842D01*
X36253541Y-77961842D02*
X36324969Y-77818985D01*
X36324969Y-77818985D02*
X36396398Y-77747557D01*
X36396398Y-77747557D02*
X36539255Y-77676128D01*
X36539255Y-77676128D02*
X36753541Y-77676128D01*
X36753541Y-77676128D02*
X36896398Y-77747557D01*
X36896398Y-77747557D02*
X36967827Y-77818985D01*
X36967827Y-77818985D02*
X37039255Y-77961842D01*
X37039255Y-77961842D02*
X37039255Y-78390414D01*
X37039255Y-78390414D02*
X36967827Y-78533271D01*
X36967827Y-78533271D02*
X36896398Y-78604700D01*
X36896398Y-78604700D02*
X36753541Y-78676128D01*
X36753541Y-78676128D02*
X36539255Y-78676128D01*
X37682112Y-78676128D02*
X37682112Y-77676128D01*
X37682112Y-77961842D02*
X37753541Y-77818985D01*
X37753541Y-77818985D02*
X37824970Y-77747557D01*
X37824970Y-77747557D02*
X37967827Y-77676128D01*
X37967827Y-77676128D02*
X38110684Y-77676128D01*
X38539255Y-78604700D02*
X38682112Y-78676128D01*
X38682112Y-78676128D02*
X38967826Y-78676128D01*
X38967826Y-78676128D02*
X39110683Y-78604700D01*
X39110683Y-78604700D02*
X39182112Y-78461842D01*
X39182112Y-78461842D02*
X39182112Y-78390414D01*
X39182112Y-78390414D02*
X39110683Y-78247557D01*
X39110683Y-78247557D02*
X38967826Y-78176128D01*
X38967826Y-78176128D02*
X38753541Y-78176128D01*
X38753541Y-78176128D02*
X38610683Y-78104700D01*
X38610683Y-78104700D02*
X38539255Y-77961842D01*
X38539255Y-77961842D02*
X38539255Y-77890414D01*
X38539255Y-77890414D02*
X38610683Y-77747557D01*
X38610683Y-77747557D02*
X38753541Y-77676128D01*
X38753541Y-77676128D02*
X38967826Y-77676128D01*
X38967826Y-77676128D02*
X39110683Y-77747557D01*
X40967826Y-78533271D02*
X41039255Y-78604700D01*
X41039255Y-78604700D02*
X40967826Y-78676128D01*
X40967826Y-78676128D02*
X40896398Y-78604700D01*
X40896398Y-78604700D02*
X40967826Y-78533271D01*
X40967826Y-78533271D02*
X40967826Y-78676128D01*
X40967826Y-77747557D02*
X41039255Y-77818985D01*
X41039255Y-77818985D02*
X40967826Y-77890414D01*
X40967826Y-77890414D02*
X40896398Y-77818985D01*
X40896398Y-77818985D02*
X40967826Y-77747557D01*
X40967826Y-77747557D02*
X40967826Y-77890414D01*
X43324969Y-77890414D02*
X43539255Y-77961842D01*
X43539255Y-77961842D02*
X43610684Y-78033271D01*
X43610684Y-78033271D02*
X43682112Y-78176128D01*
X43682112Y-78176128D02*
X43682112Y-78390414D01*
X43682112Y-78390414D02*
X43610684Y-78533271D01*
X43610684Y-78533271D02*
X43539255Y-78604700D01*
X43539255Y-78604700D02*
X43396398Y-78676128D01*
X43396398Y-78676128D02*
X42824969Y-78676128D01*
X42824969Y-78676128D02*
X42824969Y-77176128D01*
X42824969Y-77176128D02*
X43324969Y-77176128D01*
X43324969Y-77176128D02*
X43467827Y-77247557D01*
X43467827Y-77247557D02*
X43539255Y-77318985D01*
X43539255Y-77318985D02*
X43610684Y-77461842D01*
X43610684Y-77461842D02*
X43610684Y-77604700D01*
X43610684Y-77604700D02*
X43539255Y-77747557D01*
X43539255Y-77747557D02*
X43467827Y-77818985D01*
X43467827Y-77818985D02*
X43324969Y-77890414D01*
X43324969Y-77890414D02*
X42824969Y-77890414D01*
X44896398Y-78604700D02*
X44753541Y-78676128D01*
X44753541Y-78676128D02*
X44467827Y-78676128D01*
X44467827Y-78676128D02*
X44324969Y-78604700D01*
X44324969Y-78604700D02*
X44253541Y-78461842D01*
X44253541Y-78461842D02*
X44253541Y-77890414D01*
X44253541Y-77890414D02*
X44324969Y-77747557D01*
X44324969Y-77747557D02*
X44467827Y-77676128D01*
X44467827Y-77676128D02*
X44753541Y-77676128D01*
X44753541Y-77676128D02*
X44896398Y-77747557D01*
X44896398Y-77747557D02*
X44967827Y-77890414D01*
X44967827Y-77890414D02*
X44967827Y-78033271D01*
X44967827Y-78033271D02*
X44253541Y-78176128D01*
X45610683Y-78676128D02*
X45610683Y-77676128D01*
X45610683Y-77961842D02*
X45682112Y-77818985D01*
X45682112Y-77818985D02*
X45753541Y-77747557D01*
X45753541Y-77747557D02*
X45896398Y-77676128D01*
X45896398Y-77676128D02*
X46039255Y-77676128D01*
X46324969Y-77676128D02*
X46896397Y-77676128D01*
X46539254Y-77176128D02*
X46539254Y-78461842D01*
X46539254Y-78461842D02*
X46610683Y-78604700D01*
X46610683Y-78604700D02*
X46753540Y-78676128D01*
X46753540Y-78676128D02*
X46896397Y-78676128D01*
X47396397Y-78676128D02*
X47396397Y-77676128D01*
X47396397Y-77961842D02*
X47467826Y-77818985D01*
X47467826Y-77818985D02*
X47539255Y-77747557D01*
X47539255Y-77747557D02*
X47682112Y-77676128D01*
X47682112Y-77676128D02*
X47824969Y-77676128D01*
X48967826Y-78676128D02*
X48967826Y-77890414D01*
X48967826Y-77890414D02*
X48896397Y-77747557D01*
X48896397Y-77747557D02*
X48753540Y-77676128D01*
X48753540Y-77676128D02*
X48467826Y-77676128D01*
X48467826Y-77676128D02*
X48324968Y-77747557D01*
X48967826Y-78604700D02*
X48824968Y-78676128D01*
X48824968Y-78676128D02*
X48467826Y-78676128D01*
X48467826Y-78676128D02*
X48324968Y-78604700D01*
X48324968Y-78604700D02*
X48253540Y-78461842D01*
X48253540Y-78461842D02*
X48253540Y-78318985D01*
X48253540Y-78318985D02*
X48324968Y-78176128D01*
X48324968Y-78176128D02*
X48467826Y-78104700D01*
X48467826Y-78104700D02*
X48824968Y-78104700D01*
X48824968Y-78104700D02*
X48967826Y-78033271D01*
X49682111Y-77676128D02*
X49682111Y-78676128D01*
X49682111Y-77818985D02*
X49753540Y-77747557D01*
X49753540Y-77747557D02*
X49896397Y-77676128D01*
X49896397Y-77676128D02*
X50110683Y-77676128D01*
X50110683Y-77676128D02*
X50253540Y-77747557D01*
X50253540Y-77747557D02*
X50324969Y-77890414D01*
X50324969Y-77890414D02*
X50324969Y-78676128D01*
X51682112Y-78676128D02*
X51682112Y-77176128D01*
X51682112Y-78604700D02*
X51539254Y-78676128D01*
X51539254Y-78676128D02*
X51253540Y-78676128D01*
X51253540Y-78676128D02*
X51110683Y-78604700D01*
X51110683Y-78604700D02*
X51039254Y-78533271D01*
X51039254Y-78533271D02*
X50967826Y-78390414D01*
X50967826Y-78390414D02*
X50967826Y-77961842D01*
X50967826Y-77961842D02*
X51039254Y-77818985D01*
X51039254Y-77818985D02*
X51110683Y-77747557D01*
X51110683Y-77747557D02*
X51253540Y-77676128D01*
X51253540Y-77676128D02*
X51539254Y-77676128D01*
X51539254Y-77676128D02*
X51682112Y-77747557D01*
X53539254Y-78676128D02*
X53539254Y-77176128D01*
X53539254Y-77176128D02*
X54039254Y-78247557D01*
X54039254Y-78247557D02*
X54539254Y-77176128D01*
X54539254Y-77176128D02*
X54539254Y-78676128D01*
X55896398Y-78676128D02*
X55896398Y-77890414D01*
X55896398Y-77890414D02*
X55824969Y-77747557D01*
X55824969Y-77747557D02*
X55682112Y-77676128D01*
X55682112Y-77676128D02*
X55396398Y-77676128D01*
X55396398Y-77676128D02*
X55253540Y-77747557D01*
X55896398Y-78604700D02*
X55753540Y-78676128D01*
X55753540Y-78676128D02*
X55396398Y-78676128D01*
X55396398Y-78676128D02*
X55253540Y-78604700D01*
X55253540Y-78604700D02*
X55182112Y-78461842D01*
X55182112Y-78461842D02*
X55182112Y-78318985D01*
X55182112Y-78318985D02*
X55253540Y-78176128D01*
X55253540Y-78176128D02*
X55396398Y-78104700D01*
X55396398Y-78104700D02*
X55753540Y-78104700D01*
X55753540Y-78104700D02*
X55896398Y-78033271D01*
X56539255Y-78604700D02*
X56682112Y-78676128D01*
X56682112Y-78676128D02*
X56967826Y-78676128D01*
X56967826Y-78676128D02*
X57110683Y-78604700D01*
X57110683Y-78604700D02*
X57182112Y-78461842D01*
X57182112Y-78461842D02*
X57182112Y-78390414D01*
X57182112Y-78390414D02*
X57110683Y-78247557D01*
X57110683Y-78247557D02*
X56967826Y-78176128D01*
X56967826Y-78176128D02*
X56753541Y-78176128D01*
X56753541Y-78176128D02*
X56610683Y-78104700D01*
X56610683Y-78104700D02*
X56539255Y-77961842D01*
X56539255Y-77961842D02*
X56539255Y-77890414D01*
X56539255Y-77890414D02*
X56610683Y-77747557D01*
X56610683Y-77747557D02*
X56753541Y-77676128D01*
X56753541Y-77676128D02*
X56967826Y-77676128D01*
X56967826Y-77676128D02*
X57110683Y-77747557D01*
X57753541Y-78604700D02*
X57896398Y-78676128D01*
X57896398Y-78676128D02*
X58182112Y-78676128D01*
X58182112Y-78676128D02*
X58324969Y-78604700D01*
X58324969Y-78604700D02*
X58396398Y-78461842D01*
X58396398Y-78461842D02*
X58396398Y-78390414D01*
X58396398Y-78390414D02*
X58324969Y-78247557D01*
X58324969Y-78247557D02*
X58182112Y-78176128D01*
X58182112Y-78176128D02*
X57967827Y-78176128D01*
X57967827Y-78176128D02*
X57824969Y-78104700D01*
X57824969Y-78104700D02*
X57753541Y-77961842D01*
X57753541Y-77961842D02*
X57753541Y-77890414D01*
X57753541Y-77890414D02*
X57824969Y-77747557D01*
X57824969Y-77747557D02*
X57967827Y-77676128D01*
X57967827Y-77676128D02*
X58182112Y-77676128D01*
X58182112Y-77676128D02*
X58324969Y-77747557D01*
X59253541Y-78676128D02*
X59110684Y-78604700D01*
X59110684Y-78604700D02*
X59039255Y-78533271D01*
X59039255Y-78533271D02*
X58967827Y-78390414D01*
X58967827Y-78390414D02*
X58967827Y-77961842D01*
X58967827Y-77961842D02*
X59039255Y-77818985D01*
X59039255Y-77818985D02*
X59110684Y-77747557D01*
X59110684Y-77747557D02*
X59253541Y-77676128D01*
X59253541Y-77676128D02*
X59467827Y-77676128D01*
X59467827Y-77676128D02*
X59610684Y-77747557D01*
X59610684Y-77747557D02*
X59682113Y-77818985D01*
X59682113Y-77818985D02*
X59753541Y-77961842D01*
X59753541Y-77961842D02*
X59753541Y-78390414D01*
X59753541Y-78390414D02*
X59682113Y-78533271D01*
X59682113Y-78533271D02*
X59610684Y-78604700D01*
X59610684Y-78604700D02*
X59467827Y-78676128D01*
X59467827Y-78676128D02*
X59253541Y-78676128D01*
X60182113Y-77676128D02*
X60753541Y-77676128D01*
X60396398Y-77176128D02*
X60396398Y-78461842D01*
X60396398Y-78461842D02*
X60467827Y-78604700D01*
X60467827Y-78604700D02*
X60610684Y-78676128D01*
X60610684Y-78676128D02*
X60753541Y-78676128D01*
X61324970Y-78604700D02*
X61324970Y-78676128D01*
X61324970Y-78676128D02*
X61253541Y-78818985D01*
X61253541Y-78818985D02*
X61182113Y-78890414D01*
X63110684Y-78676128D02*
X63110684Y-77176128D01*
X63110684Y-77176128D02*
X63610684Y-78247557D01*
X63610684Y-78247557D02*
X64110684Y-77176128D01*
X64110684Y-77176128D02*
X64110684Y-78676128D01*
X65467828Y-78676128D02*
X65467828Y-77890414D01*
X65467828Y-77890414D02*
X65396399Y-77747557D01*
X65396399Y-77747557D02*
X65253542Y-77676128D01*
X65253542Y-77676128D02*
X64967828Y-77676128D01*
X64967828Y-77676128D02*
X64824970Y-77747557D01*
X65467828Y-78604700D02*
X65324970Y-78676128D01*
X65324970Y-78676128D02*
X64967828Y-78676128D01*
X64967828Y-78676128D02*
X64824970Y-78604700D01*
X64824970Y-78604700D02*
X64753542Y-78461842D01*
X64753542Y-78461842D02*
X64753542Y-78318985D01*
X64753542Y-78318985D02*
X64824970Y-78176128D01*
X64824970Y-78176128D02*
X64967828Y-78104700D01*
X64967828Y-78104700D02*
X65324970Y-78104700D01*
X65324970Y-78104700D02*
X65467828Y-78033271D01*
X65967828Y-77676128D02*
X66539256Y-77676128D01*
X66182113Y-77176128D02*
X66182113Y-78461842D01*
X66182113Y-78461842D02*
X66253542Y-78604700D01*
X66253542Y-78604700D02*
X66396399Y-78676128D01*
X66396399Y-78676128D02*
X66539256Y-78676128D01*
X66824971Y-77676128D02*
X67396399Y-77676128D01*
X67039256Y-77176128D02*
X67039256Y-78461842D01*
X67039256Y-78461842D02*
X67110685Y-78604700D01*
X67110685Y-78604700D02*
X67253542Y-78676128D01*
X67253542Y-78676128D02*
X67396399Y-78676128D01*
X67896399Y-78676128D02*
X67896399Y-77176128D01*
X68539257Y-78676128D02*
X68539257Y-77890414D01*
X68539257Y-77890414D02*
X68467828Y-77747557D01*
X68467828Y-77747557D02*
X68324971Y-77676128D01*
X68324971Y-77676128D02*
X68110685Y-77676128D01*
X68110685Y-77676128D02*
X67967828Y-77747557D01*
X67967828Y-77747557D02*
X67896399Y-77818985D01*
X69253542Y-78676128D02*
X69253542Y-77676128D01*
X69253542Y-77176128D02*
X69182114Y-77247557D01*
X69182114Y-77247557D02*
X69253542Y-77318985D01*
X69253542Y-77318985D02*
X69324971Y-77247557D01*
X69324971Y-77247557D02*
X69253542Y-77176128D01*
X69253542Y-77176128D02*
X69253542Y-77318985D01*
X70539257Y-78604700D02*
X70396400Y-78676128D01*
X70396400Y-78676128D02*
X70110686Y-78676128D01*
X70110686Y-78676128D02*
X69967828Y-78604700D01*
X69967828Y-78604700D02*
X69896400Y-78461842D01*
X69896400Y-78461842D02*
X69896400Y-77890414D01*
X69896400Y-77890414D02*
X69967828Y-77747557D01*
X69967828Y-77747557D02*
X70110686Y-77676128D01*
X70110686Y-77676128D02*
X70396400Y-77676128D01*
X70396400Y-77676128D02*
X70539257Y-77747557D01*
X70539257Y-77747557D02*
X70610686Y-77890414D01*
X70610686Y-77890414D02*
X70610686Y-78033271D01*
X70610686Y-78033271D02*
X69896400Y-78176128D01*
X71896400Y-77676128D02*
X71896400Y-78676128D01*
X71253542Y-77676128D02*
X71253542Y-78461842D01*
X71253542Y-78461842D02*
X71324971Y-78604700D01*
X71324971Y-78604700D02*
X71467828Y-78676128D01*
X71467828Y-78676128D02*
X71682114Y-78676128D01*
X71682114Y-78676128D02*
X71824971Y-78604700D01*
X71824971Y-78604700D02*
X71896400Y-78533271D01*
X73753542Y-78676128D02*
X73753542Y-77176128D01*
X73753542Y-77176128D02*
X74253542Y-78247557D01*
X74253542Y-78247557D02*
X74753542Y-77176128D01*
X74753542Y-77176128D02*
X74753542Y-78676128D01*
X76039257Y-78604700D02*
X75896400Y-78676128D01*
X75896400Y-78676128D02*
X75610686Y-78676128D01*
X75610686Y-78676128D02*
X75467828Y-78604700D01*
X75467828Y-78604700D02*
X75396400Y-78461842D01*
X75396400Y-78461842D02*
X75396400Y-77890414D01*
X75396400Y-77890414D02*
X75467828Y-77747557D01*
X75467828Y-77747557D02*
X75610686Y-77676128D01*
X75610686Y-77676128D02*
X75896400Y-77676128D01*
X75896400Y-77676128D02*
X76039257Y-77747557D01*
X76039257Y-77747557D02*
X76110686Y-77890414D01*
X76110686Y-77890414D02*
X76110686Y-78033271D01*
X76110686Y-78033271D02*
X75396400Y-78176128D01*
X76682114Y-78604700D02*
X76824971Y-78676128D01*
X76824971Y-78676128D02*
X77110685Y-78676128D01*
X77110685Y-78676128D02*
X77253542Y-78604700D01*
X77253542Y-78604700D02*
X77324971Y-78461842D01*
X77324971Y-78461842D02*
X77324971Y-78390414D01*
X77324971Y-78390414D02*
X77253542Y-78247557D01*
X77253542Y-78247557D02*
X77110685Y-78176128D01*
X77110685Y-78176128D02*
X76896400Y-78176128D01*
X76896400Y-78176128D02*
X76753542Y-78104700D01*
X76753542Y-78104700D02*
X76682114Y-77961842D01*
X76682114Y-77961842D02*
X76682114Y-77890414D01*
X76682114Y-77890414D02*
X76753542Y-77747557D01*
X76753542Y-77747557D02*
X76896400Y-77676128D01*
X76896400Y-77676128D02*
X77110685Y-77676128D01*
X77110685Y-77676128D02*
X77253542Y-77747557D01*
X77967828Y-77676128D02*
X77967828Y-78676128D01*
X77967828Y-77818985D02*
X78039257Y-77747557D01*
X78039257Y-77747557D02*
X78182114Y-77676128D01*
X78182114Y-77676128D02*
X78396400Y-77676128D01*
X78396400Y-77676128D02*
X78539257Y-77747557D01*
X78539257Y-77747557D02*
X78610686Y-77890414D01*
X78610686Y-77890414D02*
X78610686Y-78676128D01*
X79967829Y-78676128D02*
X79967829Y-77890414D01*
X79967829Y-77890414D02*
X79896400Y-77747557D01*
X79896400Y-77747557D02*
X79753543Y-77676128D01*
X79753543Y-77676128D02*
X79467829Y-77676128D01*
X79467829Y-77676128D02*
X79324971Y-77747557D01*
X79967829Y-78604700D02*
X79824971Y-78676128D01*
X79824971Y-78676128D02*
X79467829Y-78676128D01*
X79467829Y-78676128D02*
X79324971Y-78604700D01*
X79324971Y-78604700D02*
X79253543Y-78461842D01*
X79253543Y-78461842D02*
X79253543Y-78318985D01*
X79253543Y-78318985D02*
X79324971Y-78176128D01*
X79324971Y-78176128D02*
X79467829Y-78104700D01*
X79467829Y-78104700D02*
X79824971Y-78104700D01*
X79824971Y-78104700D02*
X79967829Y-78033271D01*
X81324972Y-77676128D02*
X81324972Y-78890414D01*
X81324972Y-78890414D02*
X81253543Y-79033271D01*
X81253543Y-79033271D02*
X81182114Y-79104700D01*
X81182114Y-79104700D02*
X81039257Y-79176128D01*
X81039257Y-79176128D02*
X80824972Y-79176128D01*
X80824972Y-79176128D02*
X80682114Y-79104700D01*
X81324972Y-78604700D02*
X81182114Y-78676128D01*
X81182114Y-78676128D02*
X80896400Y-78676128D01*
X80896400Y-78676128D02*
X80753543Y-78604700D01*
X80753543Y-78604700D02*
X80682114Y-78533271D01*
X80682114Y-78533271D02*
X80610686Y-78390414D01*
X80610686Y-78390414D02*
X80610686Y-77961842D01*
X80610686Y-77961842D02*
X80682114Y-77818985D01*
X80682114Y-77818985D02*
X80753543Y-77747557D01*
X80753543Y-77747557D02*
X80896400Y-77676128D01*
X80896400Y-77676128D02*
X81182114Y-77676128D01*
X81182114Y-77676128D02*
X81324972Y-77747557D01*
X82610686Y-78604700D02*
X82467829Y-78676128D01*
X82467829Y-78676128D02*
X82182115Y-78676128D01*
X82182115Y-78676128D02*
X82039257Y-78604700D01*
X82039257Y-78604700D02*
X81967829Y-78461842D01*
X81967829Y-78461842D02*
X81967829Y-77890414D01*
X81967829Y-77890414D02*
X82039257Y-77747557D01*
X82039257Y-77747557D02*
X82182115Y-77676128D01*
X82182115Y-77676128D02*
X82467829Y-77676128D01*
X82467829Y-77676128D02*
X82610686Y-77747557D01*
X82610686Y-77747557D02*
X82682115Y-77890414D01*
X82682115Y-77890414D02*
X82682115Y-78033271D01*
X82682115Y-78033271D02*
X81967829Y-78176128D01*
X83396400Y-78604700D02*
X83396400Y-78676128D01*
X83396400Y-78676128D02*
X83324971Y-78818985D01*
X83324971Y-78818985D02*
X83253543Y-78890414D01*
X85182114Y-78676128D02*
X85182114Y-77176128D01*
X85182114Y-77890414D02*
X86039257Y-77890414D01*
X86039257Y-78676128D02*
X86039257Y-77176128D01*
X87396401Y-77676128D02*
X87396401Y-78676128D01*
X86753543Y-77676128D02*
X86753543Y-78461842D01*
X86753543Y-78461842D02*
X86824972Y-78604700D01*
X86824972Y-78604700D02*
X86967829Y-78676128D01*
X86967829Y-78676128D02*
X87182115Y-78676128D01*
X87182115Y-78676128D02*
X87324972Y-78604700D01*
X87324972Y-78604700D02*
X87396401Y-78533271D01*
X88753544Y-77676128D02*
X88753544Y-78890414D01*
X88753544Y-78890414D02*
X88682115Y-79033271D01*
X88682115Y-79033271D02*
X88610686Y-79104700D01*
X88610686Y-79104700D02*
X88467829Y-79176128D01*
X88467829Y-79176128D02*
X88253544Y-79176128D01*
X88253544Y-79176128D02*
X88110686Y-79104700D01*
X88753544Y-78604700D02*
X88610686Y-78676128D01*
X88610686Y-78676128D02*
X88324972Y-78676128D01*
X88324972Y-78676128D02*
X88182115Y-78604700D01*
X88182115Y-78604700D02*
X88110686Y-78533271D01*
X88110686Y-78533271D02*
X88039258Y-78390414D01*
X88039258Y-78390414D02*
X88039258Y-77961842D01*
X88039258Y-77961842D02*
X88110686Y-77818985D01*
X88110686Y-77818985D02*
X88182115Y-77747557D01*
X88182115Y-77747557D02*
X88324972Y-77676128D01*
X88324972Y-77676128D02*
X88610686Y-77676128D01*
X88610686Y-77676128D02*
X88753544Y-77747557D01*
X89682115Y-78676128D02*
X89539258Y-78604700D01*
X89539258Y-78604700D02*
X89467829Y-78533271D01*
X89467829Y-78533271D02*
X89396401Y-78390414D01*
X89396401Y-78390414D02*
X89396401Y-77961842D01*
X89396401Y-77961842D02*
X89467829Y-77818985D01*
X89467829Y-77818985D02*
X89539258Y-77747557D01*
X89539258Y-77747557D02*
X89682115Y-77676128D01*
X89682115Y-77676128D02*
X89896401Y-77676128D01*
X89896401Y-77676128D02*
X90039258Y-77747557D01*
X90039258Y-77747557D02*
X90110687Y-77818985D01*
X90110687Y-77818985D02*
X90182115Y-77961842D01*
X90182115Y-77961842D02*
X90182115Y-78390414D01*
X90182115Y-78390414D02*
X90110687Y-78533271D01*
X90110687Y-78533271D02*
X90039258Y-78604700D01*
X90039258Y-78604700D02*
X89896401Y-78676128D01*
X89896401Y-78676128D02*
X89682115Y-78676128D01*
X92467829Y-77890414D02*
X92682115Y-77961842D01*
X92682115Y-77961842D02*
X92753544Y-78033271D01*
X92753544Y-78033271D02*
X92824972Y-78176128D01*
X92824972Y-78176128D02*
X92824972Y-78390414D01*
X92824972Y-78390414D02*
X92753544Y-78533271D01*
X92753544Y-78533271D02*
X92682115Y-78604700D01*
X92682115Y-78604700D02*
X92539258Y-78676128D01*
X92539258Y-78676128D02*
X91967829Y-78676128D01*
X91967829Y-78676128D02*
X91967829Y-77176128D01*
X91967829Y-77176128D02*
X92467829Y-77176128D01*
X92467829Y-77176128D02*
X92610687Y-77247557D01*
X92610687Y-77247557D02*
X92682115Y-77318985D01*
X92682115Y-77318985D02*
X92753544Y-77461842D01*
X92753544Y-77461842D02*
X92753544Y-77604700D01*
X92753544Y-77604700D02*
X92682115Y-77747557D01*
X92682115Y-77747557D02*
X92610687Y-77818985D01*
X92610687Y-77818985D02*
X92467829Y-77890414D01*
X92467829Y-77890414D02*
X91967829Y-77890414D01*
X94110687Y-77676128D02*
X94110687Y-78676128D01*
X93467829Y-77676128D02*
X93467829Y-78461842D01*
X93467829Y-78461842D02*
X93539258Y-78604700D01*
X93539258Y-78604700D02*
X93682115Y-78676128D01*
X93682115Y-78676128D02*
X93896401Y-78676128D01*
X93896401Y-78676128D02*
X94039258Y-78604700D01*
X94039258Y-78604700D02*
X94110687Y-78533271D01*
X94682115Y-77676128D02*
X95039258Y-78676128D01*
X95396401Y-77676128D02*
X95039258Y-78676128D01*
X95039258Y-78676128D02*
X94896401Y-79033271D01*
X94896401Y-79033271D02*
X94824972Y-79104700D01*
X94824972Y-79104700D02*
X94682115Y-79176128D01*
D10*
D11*
X50012000Y-101490000D02*
X50012000Y-104490000D01*
D10*
D11*
X114012000Y-101490000D02*
X114012000Y-107990000D01*
D12*
X59424325Y-43559828D02*
X60281468Y-43559828D01*
X59852896Y-45059828D02*
X59852896Y-43559828D01*
X60995753Y-45059828D02*
X60852896Y-44988400D01*
X60852896Y-44988400D02*
X60781467Y-44916971D01*
X60781467Y-44916971D02*
X60710039Y-44774114D01*
X60710039Y-44774114D02*
X60710039Y-44345542D01*
X60710039Y-44345542D02*
X60781467Y-44202685D01*
X60781467Y-44202685D02*
X60852896Y-44131257D01*
X60852896Y-44131257D02*
X60995753Y-44059828D01*
X60995753Y-44059828D02*
X61210039Y-44059828D01*
X61210039Y-44059828D02*
X61352896Y-44131257D01*
X61352896Y-44131257D02*
X61424325Y-44202685D01*
X61424325Y-44202685D02*
X61495753Y-44345542D01*
X61495753Y-44345542D02*
X61495753Y-44774114D01*
X61495753Y-44774114D02*
X61424325Y-44916971D01*
X61424325Y-44916971D02*
X61352896Y-44988400D01*
X61352896Y-44988400D02*
X61210039Y-45059828D01*
X61210039Y-45059828D02*
X60995753Y-45059828D01*
X62138610Y-44059828D02*
X62138610Y-45559828D01*
X62138610Y-44131257D02*
X62281468Y-44059828D01*
X62281468Y-44059828D02*
X62567182Y-44059828D01*
X62567182Y-44059828D02*
X62710039Y-44131257D01*
X62710039Y-44131257D02*
X62781468Y-44202685D01*
X62781468Y-44202685D02*
X62852896Y-44345542D01*
X62852896Y-44345542D02*
X62852896Y-44774114D01*
X62852896Y-44774114D02*
X62781468Y-44916971D01*
X62781468Y-44916971D02*
X62710039Y-44988400D01*
X62710039Y-44988400D02*
X62567182Y-45059828D01*
X62567182Y-45059828D02*
X62281468Y-45059828D01*
X62281468Y-45059828D02*
X62138610Y-44988400D01*
X64567182Y-44988400D02*
X64781468Y-45059828D01*
X64781468Y-45059828D02*
X65138610Y-45059828D01*
X65138610Y-45059828D02*
X65281468Y-44988400D01*
X65281468Y-44988400D02*
X65352896Y-44916971D01*
X65352896Y-44916971D02*
X65424325Y-44774114D01*
X65424325Y-44774114D02*
X65424325Y-44631257D01*
X65424325Y-44631257D02*
X65352896Y-44488400D01*
X65352896Y-44488400D02*
X65281468Y-44416971D01*
X65281468Y-44416971D02*
X65138610Y-44345542D01*
X65138610Y-44345542D02*
X64852896Y-44274114D01*
X64852896Y-44274114D02*
X64710039Y-44202685D01*
X64710039Y-44202685D02*
X64638610Y-44131257D01*
X64638610Y-44131257D02*
X64567182Y-43988400D01*
X64567182Y-43988400D02*
X64567182Y-43845542D01*
X64567182Y-43845542D02*
X64638610Y-43702685D01*
X64638610Y-43702685D02*
X64710039Y-43631257D01*
X64710039Y-43631257D02*
X64852896Y-43559828D01*
X64852896Y-43559828D02*
X65210039Y-43559828D01*
X65210039Y-43559828D02*
X65424325Y-43631257D01*
X66281467Y-45059828D02*
X66138610Y-44988400D01*
X66138610Y-44988400D02*
X66067181Y-44916971D01*
X66067181Y-44916971D02*
X65995753Y-44774114D01*
X65995753Y-44774114D02*
X65995753Y-44345542D01*
X65995753Y-44345542D02*
X66067181Y-44202685D01*
X66067181Y-44202685D02*
X66138610Y-44131257D01*
X66138610Y-44131257D02*
X66281467Y-44059828D01*
X66281467Y-44059828D02*
X66495753Y-44059828D01*
X66495753Y-44059828D02*
X66638610Y-44131257D01*
X66638610Y-44131257D02*
X66710039Y-44202685D01*
X66710039Y-44202685D02*
X66781467Y-44345542D01*
X66781467Y-44345542D02*
X66781467Y-44774114D01*
X66781467Y-44774114D02*
X66710039Y-44916971D01*
X66710039Y-44916971D02*
X66638610Y-44988400D01*
X66638610Y-44988400D02*
X66495753Y-45059828D01*
X66495753Y-45059828D02*
X66281467Y-45059828D01*
X67638610Y-45059828D02*
X67495753Y-44988400D01*
X67495753Y-44988400D02*
X67424324Y-44845542D01*
X67424324Y-44845542D02*
X67424324Y-43559828D01*
X68852896Y-45059828D02*
X68852896Y-43559828D01*
X68852896Y-44988400D02*
X68710038Y-45059828D01*
X68710038Y-45059828D02*
X68424324Y-45059828D01*
X68424324Y-45059828D02*
X68281467Y-44988400D01*
X68281467Y-44988400D02*
X68210038Y-44916971D01*
X68210038Y-44916971D02*
X68138610Y-44774114D01*
X68138610Y-44774114D02*
X68138610Y-44345542D01*
X68138610Y-44345542D02*
X68210038Y-44202685D01*
X68210038Y-44202685D02*
X68281467Y-44131257D01*
X68281467Y-44131257D02*
X68424324Y-44059828D01*
X68424324Y-44059828D02*
X68710038Y-44059828D01*
X68710038Y-44059828D02*
X68852896Y-44131257D01*
X70138610Y-44988400D02*
X69995753Y-45059828D01*
X69995753Y-45059828D02*
X69710039Y-45059828D01*
X69710039Y-45059828D02*
X69567181Y-44988400D01*
X69567181Y-44988400D02*
X69495753Y-44845542D01*
X69495753Y-44845542D02*
X69495753Y-44274114D01*
X69495753Y-44274114D02*
X69567181Y-44131257D01*
X69567181Y-44131257D02*
X69710039Y-44059828D01*
X69710039Y-44059828D02*
X69995753Y-44059828D01*
X69995753Y-44059828D02*
X70138610Y-44131257D01*
X70138610Y-44131257D02*
X70210039Y-44274114D01*
X70210039Y-44274114D02*
X70210039Y-44416971D01*
X70210039Y-44416971D02*
X69495753Y-44559828D01*
X70852895Y-45059828D02*
X70852895Y-44059828D01*
X70852895Y-44345542D02*
X70924324Y-44202685D01*
X70924324Y-44202685D02*
X70995753Y-44131257D01*
X70995753Y-44131257D02*
X71138610Y-44059828D01*
X71138610Y-44059828D02*
X71281467Y-44059828D01*
X72924323Y-45059828D02*
X72924323Y-43559828D01*
X72924323Y-43559828D02*
X73424323Y-44631257D01*
X73424323Y-44631257D02*
X73924323Y-43559828D01*
X73924323Y-43559828D02*
X73924323Y-45059828D01*
X75281467Y-45059828D02*
X75281467Y-44274114D01*
X75281467Y-44274114D02*
X75210038Y-44131257D01*
X75210038Y-44131257D02*
X75067181Y-44059828D01*
X75067181Y-44059828D02*
X74781467Y-44059828D01*
X74781467Y-44059828D02*
X74638609Y-44131257D01*
X75281467Y-44988400D02*
X75138609Y-45059828D01*
X75138609Y-45059828D02*
X74781467Y-45059828D01*
X74781467Y-45059828D02*
X74638609Y-44988400D01*
X74638609Y-44988400D02*
X74567181Y-44845542D01*
X74567181Y-44845542D02*
X74567181Y-44702685D01*
X74567181Y-44702685D02*
X74638609Y-44559828D01*
X74638609Y-44559828D02*
X74781467Y-44488400D01*
X74781467Y-44488400D02*
X75138609Y-44488400D01*
X75138609Y-44488400D02*
X75281467Y-44416971D01*
X75924324Y-44988400D02*
X76067181Y-45059828D01*
X76067181Y-45059828D02*
X76352895Y-45059828D01*
X76352895Y-45059828D02*
X76495752Y-44988400D01*
X76495752Y-44988400D02*
X76567181Y-44845542D01*
X76567181Y-44845542D02*
X76567181Y-44774114D01*
X76567181Y-44774114D02*
X76495752Y-44631257D01*
X76495752Y-44631257D02*
X76352895Y-44559828D01*
X76352895Y-44559828D02*
X76138610Y-44559828D01*
X76138610Y-44559828D02*
X75995752Y-44488400D01*
X75995752Y-44488400D02*
X75924324Y-44345542D01*
X75924324Y-44345542D02*
X75924324Y-44274114D01*
X75924324Y-44274114D02*
X75995752Y-44131257D01*
X75995752Y-44131257D02*
X76138610Y-44059828D01*
X76138610Y-44059828D02*
X76352895Y-44059828D01*
X76352895Y-44059828D02*
X76495752Y-44131257D01*
X77210038Y-45059828D02*
X77210038Y-43559828D01*
X77352896Y-44488400D02*
X77781467Y-45059828D01*
X77781467Y-44059828D02*
X77210038Y-44631257D01*
D14*
%TO.C,U6*%
X41038000Y-44475029D02*
X42888000Y-44475029D01*
X42888000Y-43800029D01*
X43238000Y-43800029D01*
X43238000Y-47200029D01*
X42888000Y-47200029D01*
X42888000Y-46525029D01*
X41038000Y-46525029D01*
X41038000Y-47200029D01*
X40688000Y-47200029D01*
X40688000Y-43800029D01*
X41038000Y-43800029D01*
X41038000Y-44475029D01*
G36*
X41038000Y-44475029D02*
G01*
X42888000Y-44475029D01*
X42888000Y-43800029D01*
X43238000Y-43800029D01*
X43238000Y-47200029D01*
X42888000Y-47200029D01*
X42888000Y-46525029D01*
X41038000Y-46525029D01*
X41038000Y-47200029D01*
X40688000Y-47200029D01*
X40688000Y-43800029D01*
X41038000Y-43800029D01*
X41038000Y-44475029D01*
G37*
X40329000Y-44351029D02*
X40336000Y-44352029D01*
X40344000Y-44353029D01*
X40352000Y-44355029D01*
X40359000Y-44357029D01*
X40367000Y-44360029D01*
X40374000Y-44363029D01*
X40381000Y-44366029D01*
X40388000Y-44370029D01*
X40395000Y-44374029D01*
X40401000Y-44379029D01*
X40407000Y-44383029D01*
X40413000Y-44389029D01*
X40419000Y-44394029D01*
X40424000Y-44400029D01*
X40430000Y-44406029D01*
X40434000Y-44412029D01*
X40439000Y-44418029D01*
X40443000Y-44425029D01*
X40447000Y-44432029D01*
X40450000Y-44439029D01*
X40453000Y-44446029D01*
X40456000Y-44454029D01*
X40458000Y-44461029D01*
X40460000Y-44469029D01*
X40461000Y-44477029D01*
X40462000Y-44484029D01*
X40463000Y-44492029D01*
X40463000Y-44500029D01*
X40463000Y-44508029D01*
X40462000Y-44516029D01*
X40461000Y-44523029D01*
X40460000Y-44531029D01*
X40458000Y-44539029D01*
X40456000Y-44546029D01*
X40453000Y-44554029D01*
X40450000Y-44561029D01*
X40447000Y-44568029D01*
X40443000Y-44575029D01*
X40439000Y-44582029D01*
X40434000Y-44588029D01*
X40430000Y-44594029D01*
X40424000Y-44600029D01*
X40419000Y-44606029D01*
X40413000Y-44611029D01*
X40407000Y-44617029D01*
X40401000Y-44621029D01*
X40395000Y-44626029D01*
X40388000Y-44630029D01*
X40381000Y-44634029D01*
X40374000Y-44637029D01*
X40367000Y-44640029D01*
X40359000Y-44643029D01*
X40352000Y-44645029D01*
X40344000Y-44647029D01*
X40336000Y-44648029D01*
X40329000Y-44649029D01*
X40321000Y-44650029D01*
X40313000Y-44650029D01*
X39513000Y-44650029D01*
X39513000Y-44500029D01*
X39513000Y-44350029D01*
X40313000Y-44350029D01*
X40321000Y-44350029D01*
X40329000Y-44351029D01*
G36*
X40329000Y-44351029D02*
G01*
X40336000Y-44352029D01*
X40344000Y-44353029D01*
X40352000Y-44355029D01*
X40359000Y-44357029D01*
X40367000Y-44360029D01*
X40374000Y-44363029D01*
X40381000Y-44366029D01*
X40388000Y-44370029D01*
X40395000Y-44374029D01*
X40401000Y-44379029D01*
X40407000Y-44383029D01*
X40413000Y-44389029D01*
X40419000Y-44394029D01*
X40424000Y-44400029D01*
X40430000Y-44406029D01*
X40434000Y-44412029D01*
X40439000Y-44418029D01*
X40443000Y-44425029D01*
X40447000Y-44432029D01*
X40450000Y-44439029D01*
X40453000Y-44446029D01*
X40456000Y-44454029D01*
X40458000Y-44461029D01*
X40460000Y-44469029D01*
X40461000Y-44477029D01*
X40462000Y-44484029D01*
X40463000Y-44492029D01*
X40463000Y-44500029D01*
X40463000Y-44508029D01*
X40462000Y-44516029D01*
X40461000Y-44523029D01*
X40460000Y-44531029D01*
X40458000Y-44539029D01*
X40456000Y-44546029D01*
X40453000Y-44554029D01*
X40450000Y-44561029D01*
X40447000Y-44568029D01*
X40443000Y-44575029D01*
X40439000Y-44582029D01*
X40434000Y-44588029D01*
X40430000Y-44594029D01*
X40424000Y-44600029D01*
X40419000Y-44606029D01*
X40413000Y-44611029D01*
X40407000Y-44617029D01*
X40401000Y-44621029D01*
X40395000Y-44626029D01*
X40388000Y-44630029D01*
X40381000Y-44634029D01*
X40374000Y-44637029D01*
X40367000Y-44640029D01*
X40359000Y-44643029D01*
X40352000Y-44645029D01*
X40344000Y-44647029D01*
X40336000Y-44648029D01*
X40329000Y-44649029D01*
X40321000Y-44650029D01*
X40313000Y-44650029D01*
X39513000Y-44650029D01*
X39513000Y-44500029D01*
X39513000Y-44350029D01*
X40313000Y-44350029D01*
X40321000Y-44350029D01*
X40329000Y-44351029D01*
G37*
X40329000Y-44751029D02*
X40336000Y-44752029D01*
X40344000Y-44753029D01*
X40352000Y-44755029D01*
X40359000Y-44757029D01*
X40367000Y-44760029D01*
X40374000Y-44763029D01*
X40381000Y-44766029D01*
X40388000Y-44770029D01*
X40395000Y-44774029D01*
X40401000Y-44779029D01*
X40407000Y-44783029D01*
X40413000Y-44789029D01*
X40419000Y-44794029D01*
X40424000Y-44800029D01*
X40430000Y-44806029D01*
X40434000Y-44812029D01*
X40439000Y-44818029D01*
X40443000Y-44825029D01*
X40447000Y-44832029D01*
X40450000Y-44839029D01*
X40453000Y-44846029D01*
X40456000Y-44854029D01*
X40458000Y-44861029D01*
X40460000Y-44869029D01*
X40461000Y-44877029D01*
X40462000Y-44884029D01*
X40463000Y-44892029D01*
X40463000Y-44900029D01*
X40463000Y-44908029D01*
X40462000Y-44916029D01*
X40461000Y-44923029D01*
X40460000Y-44931029D01*
X40458000Y-44939029D01*
X40456000Y-44946029D01*
X40453000Y-44954029D01*
X40450000Y-44961029D01*
X40447000Y-44968029D01*
X40443000Y-44975029D01*
X40439000Y-44982029D01*
X40434000Y-44988029D01*
X40430000Y-44994029D01*
X40424000Y-45000029D01*
X40419000Y-45006029D01*
X40413000Y-45011029D01*
X40407000Y-45017029D01*
X40401000Y-45021029D01*
X40395000Y-45026029D01*
X40388000Y-45030029D01*
X40381000Y-45034029D01*
X40374000Y-45037029D01*
X40367000Y-45040029D01*
X40359000Y-45043029D01*
X40352000Y-45045029D01*
X40344000Y-45047029D01*
X40336000Y-45048029D01*
X40329000Y-45049029D01*
X40321000Y-45050029D01*
X40313000Y-45050029D01*
X39513000Y-45050029D01*
X39513000Y-44900029D01*
X39513000Y-44750029D01*
X40313000Y-44750029D01*
X40321000Y-44750029D01*
X40329000Y-44751029D01*
G36*
X40329000Y-44751029D02*
G01*
X40336000Y-44752029D01*
X40344000Y-44753029D01*
X40352000Y-44755029D01*
X40359000Y-44757029D01*
X40367000Y-44760029D01*
X40374000Y-44763029D01*
X40381000Y-44766029D01*
X40388000Y-44770029D01*
X40395000Y-44774029D01*
X40401000Y-44779029D01*
X40407000Y-44783029D01*
X40413000Y-44789029D01*
X40419000Y-44794029D01*
X40424000Y-44800029D01*
X40430000Y-44806029D01*
X40434000Y-44812029D01*
X40439000Y-44818029D01*
X40443000Y-44825029D01*
X40447000Y-44832029D01*
X40450000Y-44839029D01*
X40453000Y-44846029D01*
X40456000Y-44854029D01*
X40458000Y-44861029D01*
X40460000Y-44869029D01*
X40461000Y-44877029D01*
X40462000Y-44884029D01*
X40463000Y-44892029D01*
X40463000Y-44900029D01*
X40463000Y-44908029D01*
X40462000Y-44916029D01*
X40461000Y-44923029D01*
X40460000Y-44931029D01*
X40458000Y-44939029D01*
X40456000Y-44946029D01*
X40453000Y-44954029D01*
X40450000Y-44961029D01*
X40447000Y-44968029D01*
X40443000Y-44975029D01*
X40439000Y-44982029D01*
X40434000Y-44988029D01*
X40430000Y-44994029D01*
X40424000Y-45000029D01*
X40419000Y-45006029D01*
X40413000Y-45011029D01*
X40407000Y-45017029D01*
X40401000Y-45021029D01*
X40395000Y-45026029D01*
X40388000Y-45030029D01*
X40381000Y-45034029D01*
X40374000Y-45037029D01*
X40367000Y-45040029D01*
X40359000Y-45043029D01*
X40352000Y-45045029D01*
X40344000Y-45047029D01*
X40336000Y-45048029D01*
X40329000Y-45049029D01*
X40321000Y-45050029D01*
X40313000Y-45050029D01*
X39513000Y-45050029D01*
X39513000Y-44900029D01*
X39513000Y-44750029D01*
X40313000Y-44750029D01*
X40321000Y-44750029D01*
X40329000Y-44751029D01*
G37*
X40329000Y-45151029D02*
X40336000Y-45152029D01*
X40344000Y-45153029D01*
X40352000Y-45155029D01*
X40359000Y-45157029D01*
X40367000Y-45160029D01*
X40374000Y-45163029D01*
X40381000Y-45166029D01*
X40388000Y-45170029D01*
X40395000Y-45174029D01*
X40401000Y-45179029D01*
X40407000Y-45183029D01*
X40413000Y-45189029D01*
X40419000Y-45194029D01*
X40424000Y-45200029D01*
X40430000Y-45206029D01*
X40434000Y-45212029D01*
X40439000Y-45218029D01*
X40443000Y-45225029D01*
X40447000Y-45232029D01*
X40450000Y-45239029D01*
X40453000Y-45246029D01*
X40456000Y-45254029D01*
X40458000Y-45261029D01*
X40460000Y-45269029D01*
X40461000Y-45277029D01*
X40462000Y-45284029D01*
X40463000Y-45292029D01*
X40463000Y-45300029D01*
X40463000Y-45308029D01*
X40462000Y-45316029D01*
X40461000Y-45323029D01*
X40460000Y-45331029D01*
X40458000Y-45339029D01*
X40456000Y-45346029D01*
X40453000Y-45354029D01*
X40450000Y-45361029D01*
X40447000Y-45368029D01*
X40443000Y-45375029D01*
X40439000Y-45382029D01*
X40434000Y-45388029D01*
X40430000Y-45394029D01*
X40424000Y-45400029D01*
X40419000Y-45406029D01*
X40413000Y-45411029D01*
X40407000Y-45417029D01*
X40401000Y-45421029D01*
X40395000Y-45426029D01*
X40388000Y-45430029D01*
X40381000Y-45434029D01*
X40374000Y-45437029D01*
X40367000Y-45440029D01*
X40359000Y-45443029D01*
X40352000Y-45445029D01*
X40344000Y-45447029D01*
X40336000Y-45448029D01*
X40329000Y-45449029D01*
X40321000Y-45450029D01*
X40313000Y-45450029D01*
X39513000Y-45450029D01*
X39513000Y-45300029D01*
X39513000Y-45150029D01*
X40313000Y-45150029D01*
X40321000Y-45150029D01*
X40329000Y-45151029D01*
G36*
X40329000Y-45151029D02*
G01*
X40336000Y-45152029D01*
X40344000Y-45153029D01*
X40352000Y-45155029D01*
X40359000Y-45157029D01*
X40367000Y-45160029D01*
X40374000Y-45163029D01*
X40381000Y-45166029D01*
X40388000Y-45170029D01*
X40395000Y-45174029D01*
X40401000Y-45179029D01*
X40407000Y-45183029D01*
X40413000Y-45189029D01*
X40419000Y-45194029D01*
X40424000Y-45200029D01*
X40430000Y-45206029D01*
X40434000Y-45212029D01*
X40439000Y-45218029D01*
X40443000Y-45225029D01*
X40447000Y-45232029D01*
X40450000Y-45239029D01*
X40453000Y-45246029D01*
X40456000Y-45254029D01*
X40458000Y-45261029D01*
X40460000Y-45269029D01*
X40461000Y-45277029D01*
X40462000Y-45284029D01*
X40463000Y-45292029D01*
X40463000Y-45300029D01*
X40463000Y-45308029D01*
X40462000Y-45316029D01*
X40461000Y-45323029D01*
X40460000Y-45331029D01*
X40458000Y-45339029D01*
X40456000Y-45346029D01*
X40453000Y-45354029D01*
X40450000Y-45361029D01*
X40447000Y-45368029D01*
X40443000Y-45375029D01*
X40439000Y-45382029D01*
X40434000Y-45388029D01*
X40430000Y-45394029D01*
X40424000Y-45400029D01*
X40419000Y-45406029D01*
X40413000Y-45411029D01*
X40407000Y-45417029D01*
X40401000Y-45421029D01*
X40395000Y-45426029D01*
X40388000Y-45430029D01*
X40381000Y-45434029D01*
X40374000Y-45437029D01*
X40367000Y-45440029D01*
X40359000Y-45443029D01*
X40352000Y-45445029D01*
X40344000Y-45447029D01*
X40336000Y-45448029D01*
X40329000Y-45449029D01*
X40321000Y-45450029D01*
X40313000Y-45450029D01*
X39513000Y-45450029D01*
X39513000Y-45300029D01*
X39513000Y-45150029D01*
X40313000Y-45150029D01*
X40321000Y-45150029D01*
X40329000Y-45151029D01*
G37*
X40329000Y-45551029D02*
X40336000Y-45552029D01*
X40344000Y-45553029D01*
X40352000Y-45555029D01*
X40359000Y-45557029D01*
X40367000Y-45560029D01*
X40374000Y-45563029D01*
X40381000Y-45566029D01*
X40388000Y-45570029D01*
X40395000Y-45574029D01*
X40401000Y-45579029D01*
X40407000Y-45583029D01*
X40413000Y-45589029D01*
X40419000Y-45594029D01*
X40424000Y-45600029D01*
X40430000Y-45606029D01*
X40434000Y-45612029D01*
X40439000Y-45618029D01*
X40443000Y-45625029D01*
X40447000Y-45632029D01*
X40450000Y-45639029D01*
X40453000Y-45646029D01*
X40456000Y-45654029D01*
X40458000Y-45661029D01*
X40460000Y-45669029D01*
X40461000Y-45677029D01*
X40462000Y-45684029D01*
X40463000Y-45692029D01*
X40463000Y-45700029D01*
X40463000Y-45708029D01*
X40462000Y-45716029D01*
X40461000Y-45723029D01*
X40460000Y-45731029D01*
X40458000Y-45739029D01*
X40456000Y-45746029D01*
X40453000Y-45754029D01*
X40450000Y-45761029D01*
X40447000Y-45768029D01*
X40443000Y-45775029D01*
X40439000Y-45782029D01*
X40434000Y-45788029D01*
X40430000Y-45794029D01*
X40424000Y-45800029D01*
X40419000Y-45806029D01*
X40413000Y-45811029D01*
X40407000Y-45817029D01*
X40401000Y-45821029D01*
X40395000Y-45826029D01*
X40388000Y-45830029D01*
X40381000Y-45834029D01*
X40374000Y-45837029D01*
X40367000Y-45840029D01*
X40359000Y-45843029D01*
X40352000Y-45845029D01*
X40344000Y-45847029D01*
X40336000Y-45848029D01*
X40329000Y-45849029D01*
X40321000Y-45850029D01*
X40313000Y-45850029D01*
X39513000Y-45850029D01*
X39513000Y-45700029D01*
X39513000Y-45550029D01*
X40313000Y-45550029D01*
X40321000Y-45550029D01*
X40329000Y-45551029D01*
G36*
X40329000Y-45551029D02*
G01*
X40336000Y-45552029D01*
X40344000Y-45553029D01*
X40352000Y-45555029D01*
X40359000Y-45557029D01*
X40367000Y-45560029D01*
X40374000Y-45563029D01*
X40381000Y-45566029D01*
X40388000Y-45570029D01*
X40395000Y-45574029D01*
X40401000Y-45579029D01*
X40407000Y-45583029D01*
X40413000Y-45589029D01*
X40419000Y-45594029D01*
X40424000Y-45600029D01*
X40430000Y-45606029D01*
X40434000Y-45612029D01*
X40439000Y-45618029D01*
X40443000Y-45625029D01*
X40447000Y-45632029D01*
X40450000Y-45639029D01*
X40453000Y-45646029D01*
X40456000Y-45654029D01*
X40458000Y-45661029D01*
X40460000Y-45669029D01*
X40461000Y-45677029D01*
X40462000Y-45684029D01*
X40463000Y-45692029D01*
X40463000Y-45700029D01*
X40463000Y-45708029D01*
X40462000Y-45716029D01*
X40461000Y-45723029D01*
X40460000Y-45731029D01*
X40458000Y-45739029D01*
X40456000Y-45746029D01*
X40453000Y-45754029D01*
X40450000Y-45761029D01*
X40447000Y-45768029D01*
X40443000Y-45775029D01*
X40439000Y-45782029D01*
X40434000Y-45788029D01*
X40430000Y-45794029D01*
X40424000Y-45800029D01*
X40419000Y-45806029D01*
X40413000Y-45811029D01*
X40407000Y-45817029D01*
X40401000Y-45821029D01*
X40395000Y-45826029D01*
X40388000Y-45830029D01*
X40381000Y-45834029D01*
X40374000Y-45837029D01*
X40367000Y-45840029D01*
X40359000Y-45843029D01*
X40352000Y-45845029D01*
X40344000Y-45847029D01*
X40336000Y-45848029D01*
X40329000Y-45849029D01*
X40321000Y-45850029D01*
X40313000Y-45850029D01*
X39513000Y-45850029D01*
X39513000Y-45700029D01*
X39513000Y-45550029D01*
X40313000Y-45550029D01*
X40321000Y-45550029D01*
X40329000Y-45551029D01*
G37*
X40329000Y-45951029D02*
X40336000Y-45952029D01*
X40344000Y-45953029D01*
X40352000Y-45955029D01*
X40359000Y-45957029D01*
X40367000Y-45960029D01*
X40374000Y-45963029D01*
X40381000Y-45966029D01*
X40388000Y-45970029D01*
X40395000Y-45974029D01*
X40401000Y-45979029D01*
X40407000Y-45983029D01*
X40413000Y-45989029D01*
X40419000Y-45994029D01*
X40424000Y-46000029D01*
X40430000Y-46006029D01*
X40434000Y-46012029D01*
X40439000Y-46018029D01*
X40443000Y-46025029D01*
X40447000Y-46032029D01*
X40450000Y-46039029D01*
X40453000Y-46046029D01*
X40456000Y-46054029D01*
X40458000Y-46061029D01*
X40460000Y-46069029D01*
X40461000Y-46077029D01*
X40462000Y-46084029D01*
X40463000Y-46092029D01*
X40463000Y-46100029D01*
X40463000Y-46108029D01*
X40462000Y-46116029D01*
X40461000Y-46123029D01*
X40460000Y-46131029D01*
X40458000Y-46139029D01*
X40456000Y-46146029D01*
X40453000Y-46154029D01*
X40450000Y-46161029D01*
X40447000Y-46168029D01*
X40443000Y-46175029D01*
X40439000Y-46182029D01*
X40434000Y-46188029D01*
X40430000Y-46194029D01*
X40424000Y-46200029D01*
X40419000Y-46206029D01*
X40413000Y-46211029D01*
X40407000Y-46217029D01*
X40401000Y-46221029D01*
X40395000Y-46226029D01*
X40388000Y-46230029D01*
X40381000Y-46234029D01*
X40374000Y-46237029D01*
X40367000Y-46240029D01*
X40359000Y-46243029D01*
X40352000Y-46245029D01*
X40344000Y-46247029D01*
X40336000Y-46248029D01*
X40329000Y-46249029D01*
X40321000Y-46250029D01*
X40313000Y-46250029D01*
X39513000Y-46250029D01*
X39513000Y-46100029D01*
X39513000Y-45950029D01*
X40313000Y-45950029D01*
X40321000Y-45950029D01*
X40329000Y-45951029D01*
G36*
X40329000Y-45951029D02*
G01*
X40336000Y-45952029D01*
X40344000Y-45953029D01*
X40352000Y-45955029D01*
X40359000Y-45957029D01*
X40367000Y-45960029D01*
X40374000Y-45963029D01*
X40381000Y-45966029D01*
X40388000Y-45970029D01*
X40395000Y-45974029D01*
X40401000Y-45979029D01*
X40407000Y-45983029D01*
X40413000Y-45989029D01*
X40419000Y-45994029D01*
X40424000Y-46000029D01*
X40430000Y-46006029D01*
X40434000Y-46012029D01*
X40439000Y-46018029D01*
X40443000Y-46025029D01*
X40447000Y-46032029D01*
X40450000Y-46039029D01*
X40453000Y-46046029D01*
X40456000Y-46054029D01*
X40458000Y-46061029D01*
X40460000Y-46069029D01*
X40461000Y-46077029D01*
X40462000Y-46084029D01*
X40463000Y-46092029D01*
X40463000Y-46100029D01*
X40463000Y-46108029D01*
X40462000Y-46116029D01*
X40461000Y-46123029D01*
X40460000Y-46131029D01*
X40458000Y-46139029D01*
X40456000Y-46146029D01*
X40453000Y-46154029D01*
X40450000Y-46161029D01*
X40447000Y-46168029D01*
X40443000Y-46175029D01*
X40439000Y-46182029D01*
X40434000Y-46188029D01*
X40430000Y-46194029D01*
X40424000Y-46200029D01*
X40419000Y-46206029D01*
X40413000Y-46211029D01*
X40407000Y-46217029D01*
X40401000Y-46221029D01*
X40395000Y-46226029D01*
X40388000Y-46230029D01*
X40381000Y-46234029D01*
X40374000Y-46237029D01*
X40367000Y-46240029D01*
X40359000Y-46243029D01*
X40352000Y-46245029D01*
X40344000Y-46247029D01*
X40336000Y-46248029D01*
X40329000Y-46249029D01*
X40321000Y-46250029D01*
X40313000Y-46250029D01*
X39513000Y-46250029D01*
X39513000Y-46100029D01*
X39513000Y-45950029D01*
X40313000Y-45950029D01*
X40321000Y-45950029D01*
X40329000Y-45951029D01*
G37*
X40329000Y-46351029D02*
X40336000Y-46352029D01*
X40344000Y-46353029D01*
X40352000Y-46355029D01*
X40359000Y-46357029D01*
X40367000Y-46360029D01*
X40374000Y-46363029D01*
X40381000Y-46366029D01*
X40388000Y-46370029D01*
X40395000Y-46374029D01*
X40401000Y-46379029D01*
X40407000Y-46383029D01*
X40413000Y-46389029D01*
X40419000Y-46394029D01*
X40424000Y-46400029D01*
X40430000Y-46406029D01*
X40434000Y-46412029D01*
X40439000Y-46418029D01*
X40443000Y-46425029D01*
X40447000Y-46432029D01*
X40450000Y-46439029D01*
X40453000Y-46446029D01*
X40456000Y-46454029D01*
X40458000Y-46461029D01*
X40460000Y-46469029D01*
X40461000Y-46477029D01*
X40462000Y-46484029D01*
X40463000Y-46492029D01*
X40463000Y-46500029D01*
X40463000Y-46508029D01*
X40462000Y-46516029D01*
X40461000Y-46523029D01*
X40460000Y-46531029D01*
X40458000Y-46539029D01*
X40456000Y-46546029D01*
X40453000Y-46554029D01*
X40450000Y-46561029D01*
X40447000Y-46568029D01*
X40443000Y-46575029D01*
X40439000Y-46582029D01*
X40434000Y-46588029D01*
X40430000Y-46594029D01*
X40424000Y-46600029D01*
X40419000Y-46606029D01*
X40413000Y-46611029D01*
X40407000Y-46617029D01*
X40401000Y-46621029D01*
X40395000Y-46626029D01*
X40388000Y-46630029D01*
X40381000Y-46634029D01*
X40374000Y-46637029D01*
X40367000Y-46640029D01*
X40359000Y-46643029D01*
X40352000Y-46645029D01*
X40344000Y-46647029D01*
X40336000Y-46648029D01*
X40329000Y-46649029D01*
X40321000Y-46650029D01*
X40313000Y-46650029D01*
X39513000Y-46650029D01*
X39513000Y-46500029D01*
X39513000Y-46350029D01*
X40313000Y-46350029D01*
X40321000Y-46350029D01*
X40329000Y-46351029D01*
G36*
X40329000Y-46351029D02*
G01*
X40336000Y-46352029D01*
X40344000Y-46353029D01*
X40352000Y-46355029D01*
X40359000Y-46357029D01*
X40367000Y-46360029D01*
X40374000Y-46363029D01*
X40381000Y-46366029D01*
X40388000Y-46370029D01*
X40395000Y-46374029D01*
X40401000Y-46379029D01*
X40407000Y-46383029D01*
X40413000Y-46389029D01*
X40419000Y-46394029D01*
X40424000Y-46400029D01*
X40430000Y-46406029D01*
X40434000Y-46412029D01*
X40439000Y-46418029D01*
X40443000Y-46425029D01*
X40447000Y-46432029D01*
X40450000Y-46439029D01*
X40453000Y-46446029D01*
X40456000Y-46454029D01*
X40458000Y-46461029D01*
X40460000Y-46469029D01*
X40461000Y-46477029D01*
X40462000Y-46484029D01*
X40463000Y-46492029D01*
X40463000Y-46500029D01*
X40463000Y-46508029D01*
X40462000Y-46516029D01*
X40461000Y-46523029D01*
X40460000Y-46531029D01*
X40458000Y-46539029D01*
X40456000Y-46546029D01*
X40453000Y-46554029D01*
X40450000Y-46561029D01*
X40447000Y-46568029D01*
X40443000Y-46575029D01*
X40439000Y-46582029D01*
X40434000Y-46588029D01*
X40430000Y-46594029D01*
X40424000Y-46600029D01*
X40419000Y-46606029D01*
X40413000Y-46611029D01*
X40407000Y-46617029D01*
X40401000Y-46621029D01*
X40395000Y-46626029D01*
X40388000Y-46630029D01*
X40381000Y-46634029D01*
X40374000Y-46637029D01*
X40367000Y-46640029D01*
X40359000Y-46643029D01*
X40352000Y-46645029D01*
X40344000Y-46647029D01*
X40336000Y-46648029D01*
X40329000Y-46649029D01*
X40321000Y-46650029D01*
X40313000Y-46650029D01*
X39513000Y-46650029D01*
X39513000Y-46500029D01*
X39513000Y-46350029D01*
X40313000Y-46350029D01*
X40321000Y-46350029D01*
X40329000Y-46351029D01*
G37*
X44413000Y-44500029D02*
X44413000Y-44650029D01*
X43613000Y-44650029D01*
X43605000Y-44650029D01*
X43597000Y-44649029D01*
X43590000Y-44648029D01*
X43582000Y-44647029D01*
X43574000Y-44645029D01*
X43567000Y-44643029D01*
X43559000Y-44640029D01*
X43552000Y-44637029D01*
X43545000Y-44634029D01*
X43538000Y-44630029D01*
X43531000Y-44626029D01*
X43525000Y-44621029D01*
X43519000Y-44617029D01*
X43513000Y-44611029D01*
X43507000Y-44606029D01*
X43502000Y-44600029D01*
X43496000Y-44594029D01*
X43492000Y-44588029D01*
X43487000Y-44582029D01*
X43483000Y-44575029D01*
X43479000Y-44568029D01*
X43476000Y-44561029D01*
X43473000Y-44554029D01*
X43470000Y-44546029D01*
X43468000Y-44539029D01*
X43466000Y-44531029D01*
X43465000Y-44523029D01*
X43464000Y-44516029D01*
X43463000Y-44508029D01*
X43463000Y-44500029D01*
X43463000Y-44492029D01*
X43464000Y-44484029D01*
X43465000Y-44477029D01*
X43466000Y-44469029D01*
X43468000Y-44461029D01*
X43470000Y-44454029D01*
X43473000Y-44446029D01*
X43476000Y-44439029D01*
X43479000Y-44432029D01*
X43483000Y-44425029D01*
X43487000Y-44418029D01*
X43492000Y-44412029D01*
X43496000Y-44406029D01*
X43502000Y-44400029D01*
X43507000Y-44394029D01*
X43513000Y-44389029D01*
X43519000Y-44383029D01*
X43525000Y-44379029D01*
X43531000Y-44374029D01*
X43538000Y-44370029D01*
X43545000Y-44366029D01*
X43552000Y-44363029D01*
X43559000Y-44360029D01*
X43567000Y-44357029D01*
X43574000Y-44355029D01*
X43582000Y-44353029D01*
X43590000Y-44352029D01*
X43597000Y-44351029D01*
X43605000Y-44350029D01*
X43613000Y-44350029D01*
X44413000Y-44350029D01*
X44413000Y-44500029D01*
G36*
X44413000Y-44500029D02*
G01*
X44413000Y-44650029D01*
X43613000Y-44650029D01*
X43605000Y-44650029D01*
X43597000Y-44649029D01*
X43590000Y-44648029D01*
X43582000Y-44647029D01*
X43574000Y-44645029D01*
X43567000Y-44643029D01*
X43559000Y-44640029D01*
X43552000Y-44637029D01*
X43545000Y-44634029D01*
X43538000Y-44630029D01*
X43531000Y-44626029D01*
X43525000Y-44621029D01*
X43519000Y-44617029D01*
X43513000Y-44611029D01*
X43507000Y-44606029D01*
X43502000Y-44600029D01*
X43496000Y-44594029D01*
X43492000Y-44588029D01*
X43487000Y-44582029D01*
X43483000Y-44575029D01*
X43479000Y-44568029D01*
X43476000Y-44561029D01*
X43473000Y-44554029D01*
X43470000Y-44546029D01*
X43468000Y-44539029D01*
X43466000Y-44531029D01*
X43465000Y-44523029D01*
X43464000Y-44516029D01*
X43463000Y-44508029D01*
X43463000Y-44500029D01*
X43463000Y-44492029D01*
X43464000Y-44484029D01*
X43465000Y-44477029D01*
X43466000Y-44469029D01*
X43468000Y-44461029D01*
X43470000Y-44454029D01*
X43473000Y-44446029D01*
X43476000Y-44439029D01*
X43479000Y-44432029D01*
X43483000Y-44425029D01*
X43487000Y-44418029D01*
X43492000Y-44412029D01*
X43496000Y-44406029D01*
X43502000Y-44400029D01*
X43507000Y-44394029D01*
X43513000Y-44389029D01*
X43519000Y-44383029D01*
X43525000Y-44379029D01*
X43531000Y-44374029D01*
X43538000Y-44370029D01*
X43545000Y-44366029D01*
X43552000Y-44363029D01*
X43559000Y-44360029D01*
X43567000Y-44357029D01*
X43574000Y-44355029D01*
X43582000Y-44353029D01*
X43590000Y-44352029D01*
X43597000Y-44351029D01*
X43605000Y-44350029D01*
X43613000Y-44350029D01*
X44413000Y-44350029D01*
X44413000Y-44500029D01*
G37*
X44413000Y-44900029D02*
X44413000Y-45050029D01*
X43613000Y-45050029D01*
X43605000Y-45050029D01*
X43597000Y-45049029D01*
X43590000Y-45048029D01*
X43582000Y-45047029D01*
X43574000Y-45045029D01*
X43567000Y-45043029D01*
X43559000Y-45040029D01*
X43552000Y-45037029D01*
X43545000Y-45034029D01*
X43538000Y-45030029D01*
X43531000Y-45026029D01*
X43525000Y-45021029D01*
X43519000Y-45017029D01*
X43513000Y-45011029D01*
X43507000Y-45006029D01*
X43502000Y-45000029D01*
X43496000Y-44994029D01*
X43492000Y-44988029D01*
X43487000Y-44982029D01*
X43483000Y-44975029D01*
X43479000Y-44968029D01*
X43476000Y-44961029D01*
X43473000Y-44954029D01*
X43470000Y-44946029D01*
X43468000Y-44939029D01*
X43466000Y-44931029D01*
X43465000Y-44923029D01*
X43464000Y-44916029D01*
X43463000Y-44908029D01*
X43463000Y-44900029D01*
X43463000Y-44892029D01*
X43464000Y-44884029D01*
X43465000Y-44877029D01*
X43466000Y-44869029D01*
X43468000Y-44861029D01*
X43470000Y-44854029D01*
X43473000Y-44846029D01*
X43476000Y-44839029D01*
X43479000Y-44832029D01*
X43483000Y-44825029D01*
X43487000Y-44818029D01*
X43492000Y-44812029D01*
X43496000Y-44806029D01*
X43502000Y-44800029D01*
X43507000Y-44794029D01*
X43513000Y-44789029D01*
X43519000Y-44783029D01*
X43525000Y-44779029D01*
X43531000Y-44774029D01*
X43538000Y-44770029D01*
X43545000Y-44766029D01*
X43552000Y-44763029D01*
X43559000Y-44760029D01*
X43567000Y-44757029D01*
X43574000Y-44755029D01*
X43582000Y-44753029D01*
X43590000Y-44752029D01*
X43597000Y-44751029D01*
X43605000Y-44750029D01*
X43613000Y-44750029D01*
X44413000Y-44750029D01*
X44413000Y-44900029D01*
G36*
X44413000Y-44900029D02*
G01*
X44413000Y-45050029D01*
X43613000Y-45050029D01*
X43605000Y-45050029D01*
X43597000Y-45049029D01*
X43590000Y-45048029D01*
X43582000Y-45047029D01*
X43574000Y-45045029D01*
X43567000Y-45043029D01*
X43559000Y-45040029D01*
X43552000Y-45037029D01*
X43545000Y-45034029D01*
X43538000Y-45030029D01*
X43531000Y-45026029D01*
X43525000Y-45021029D01*
X43519000Y-45017029D01*
X43513000Y-45011029D01*
X43507000Y-45006029D01*
X43502000Y-45000029D01*
X43496000Y-44994029D01*
X43492000Y-44988029D01*
X43487000Y-44982029D01*
X43483000Y-44975029D01*
X43479000Y-44968029D01*
X43476000Y-44961029D01*
X43473000Y-44954029D01*
X43470000Y-44946029D01*
X43468000Y-44939029D01*
X43466000Y-44931029D01*
X43465000Y-44923029D01*
X43464000Y-44916029D01*
X43463000Y-44908029D01*
X43463000Y-44900029D01*
X43463000Y-44892029D01*
X43464000Y-44884029D01*
X43465000Y-44877029D01*
X43466000Y-44869029D01*
X43468000Y-44861029D01*
X43470000Y-44854029D01*
X43473000Y-44846029D01*
X43476000Y-44839029D01*
X43479000Y-44832029D01*
X43483000Y-44825029D01*
X43487000Y-44818029D01*
X43492000Y-44812029D01*
X43496000Y-44806029D01*
X43502000Y-44800029D01*
X43507000Y-44794029D01*
X43513000Y-44789029D01*
X43519000Y-44783029D01*
X43525000Y-44779029D01*
X43531000Y-44774029D01*
X43538000Y-44770029D01*
X43545000Y-44766029D01*
X43552000Y-44763029D01*
X43559000Y-44760029D01*
X43567000Y-44757029D01*
X43574000Y-44755029D01*
X43582000Y-44753029D01*
X43590000Y-44752029D01*
X43597000Y-44751029D01*
X43605000Y-44750029D01*
X43613000Y-44750029D01*
X44413000Y-44750029D01*
X44413000Y-44900029D01*
G37*
X44413000Y-45300029D02*
X44413000Y-45450029D01*
X43613000Y-45450029D01*
X43605000Y-45450029D01*
X43597000Y-45449029D01*
X43590000Y-45448029D01*
X43582000Y-45447029D01*
X43574000Y-45445029D01*
X43567000Y-45443029D01*
X43559000Y-45440029D01*
X43552000Y-45437029D01*
X43545000Y-45434029D01*
X43538000Y-45430029D01*
X43531000Y-45426029D01*
X43525000Y-45421029D01*
X43519000Y-45417029D01*
X43513000Y-45411029D01*
X43507000Y-45406029D01*
X43502000Y-45400029D01*
X43496000Y-45394029D01*
X43492000Y-45388029D01*
X43487000Y-45382029D01*
X43483000Y-45375029D01*
X43479000Y-45368029D01*
X43476000Y-45361029D01*
X43473000Y-45354029D01*
X43470000Y-45346029D01*
X43468000Y-45339029D01*
X43466000Y-45331029D01*
X43465000Y-45323029D01*
X43464000Y-45316029D01*
X43463000Y-45308029D01*
X43463000Y-45300029D01*
X43463000Y-45292029D01*
X43464000Y-45284029D01*
X43465000Y-45277029D01*
X43466000Y-45269029D01*
X43468000Y-45261029D01*
X43470000Y-45254029D01*
X43473000Y-45246029D01*
X43476000Y-45239029D01*
X43479000Y-45232029D01*
X43483000Y-45225029D01*
X43487000Y-45218029D01*
X43492000Y-45212029D01*
X43496000Y-45206029D01*
X43502000Y-45200029D01*
X43507000Y-45194029D01*
X43513000Y-45189029D01*
X43519000Y-45183029D01*
X43525000Y-45179029D01*
X43531000Y-45174029D01*
X43538000Y-45170029D01*
X43545000Y-45166029D01*
X43552000Y-45163029D01*
X43559000Y-45160029D01*
X43567000Y-45157029D01*
X43574000Y-45155029D01*
X43582000Y-45153029D01*
X43590000Y-45152029D01*
X43597000Y-45151029D01*
X43605000Y-45150029D01*
X43613000Y-45150029D01*
X44413000Y-45150029D01*
X44413000Y-45300029D01*
G36*
X44413000Y-45300029D02*
G01*
X44413000Y-45450029D01*
X43613000Y-45450029D01*
X43605000Y-45450029D01*
X43597000Y-45449029D01*
X43590000Y-45448029D01*
X43582000Y-45447029D01*
X43574000Y-45445029D01*
X43567000Y-45443029D01*
X43559000Y-45440029D01*
X43552000Y-45437029D01*
X43545000Y-45434029D01*
X43538000Y-45430029D01*
X43531000Y-45426029D01*
X43525000Y-45421029D01*
X43519000Y-45417029D01*
X43513000Y-45411029D01*
X43507000Y-45406029D01*
X43502000Y-45400029D01*
X43496000Y-45394029D01*
X43492000Y-45388029D01*
X43487000Y-45382029D01*
X43483000Y-45375029D01*
X43479000Y-45368029D01*
X43476000Y-45361029D01*
X43473000Y-45354029D01*
X43470000Y-45346029D01*
X43468000Y-45339029D01*
X43466000Y-45331029D01*
X43465000Y-45323029D01*
X43464000Y-45316029D01*
X43463000Y-45308029D01*
X43463000Y-45300029D01*
X43463000Y-45292029D01*
X43464000Y-45284029D01*
X43465000Y-45277029D01*
X43466000Y-45269029D01*
X43468000Y-45261029D01*
X43470000Y-45254029D01*
X43473000Y-45246029D01*
X43476000Y-45239029D01*
X43479000Y-45232029D01*
X43483000Y-45225029D01*
X43487000Y-45218029D01*
X43492000Y-45212029D01*
X43496000Y-45206029D01*
X43502000Y-45200029D01*
X43507000Y-45194029D01*
X43513000Y-45189029D01*
X43519000Y-45183029D01*
X43525000Y-45179029D01*
X43531000Y-45174029D01*
X43538000Y-45170029D01*
X43545000Y-45166029D01*
X43552000Y-45163029D01*
X43559000Y-45160029D01*
X43567000Y-45157029D01*
X43574000Y-45155029D01*
X43582000Y-45153029D01*
X43590000Y-45152029D01*
X43597000Y-45151029D01*
X43605000Y-45150029D01*
X43613000Y-45150029D01*
X44413000Y-45150029D01*
X44413000Y-45300029D01*
G37*
X44413000Y-45700029D02*
X44413000Y-45850029D01*
X43613000Y-45850029D01*
X43605000Y-45850029D01*
X43597000Y-45849029D01*
X43590000Y-45848029D01*
X43582000Y-45847029D01*
X43574000Y-45845029D01*
X43567000Y-45843029D01*
X43559000Y-45840029D01*
X43552000Y-45837029D01*
X43545000Y-45834029D01*
X43538000Y-45830029D01*
X43531000Y-45826029D01*
X43525000Y-45821029D01*
X43519000Y-45817029D01*
X43513000Y-45811029D01*
X43507000Y-45806029D01*
X43502000Y-45800029D01*
X43496000Y-45794029D01*
X43492000Y-45788029D01*
X43487000Y-45782029D01*
X43483000Y-45775029D01*
X43479000Y-45768029D01*
X43476000Y-45761029D01*
X43473000Y-45754029D01*
X43470000Y-45746029D01*
X43468000Y-45739029D01*
X43466000Y-45731029D01*
X43465000Y-45723029D01*
X43464000Y-45716029D01*
X43463000Y-45708029D01*
X43463000Y-45700029D01*
X43463000Y-45692029D01*
X43464000Y-45684029D01*
X43465000Y-45677029D01*
X43466000Y-45669029D01*
X43468000Y-45661029D01*
X43470000Y-45654029D01*
X43473000Y-45646029D01*
X43476000Y-45639029D01*
X43479000Y-45632029D01*
X43483000Y-45625029D01*
X43487000Y-45618029D01*
X43492000Y-45612029D01*
X43496000Y-45606029D01*
X43502000Y-45600029D01*
X43507000Y-45594029D01*
X43513000Y-45589029D01*
X43519000Y-45583029D01*
X43525000Y-45579029D01*
X43531000Y-45574029D01*
X43538000Y-45570029D01*
X43545000Y-45566029D01*
X43552000Y-45563029D01*
X43559000Y-45560029D01*
X43567000Y-45557029D01*
X43574000Y-45555029D01*
X43582000Y-45553029D01*
X43590000Y-45552029D01*
X43597000Y-45551029D01*
X43605000Y-45550029D01*
X43613000Y-45550029D01*
X44413000Y-45550029D01*
X44413000Y-45700029D01*
G36*
X44413000Y-45700029D02*
G01*
X44413000Y-45850029D01*
X43613000Y-45850029D01*
X43605000Y-45850029D01*
X43597000Y-45849029D01*
X43590000Y-45848029D01*
X43582000Y-45847029D01*
X43574000Y-45845029D01*
X43567000Y-45843029D01*
X43559000Y-45840029D01*
X43552000Y-45837029D01*
X43545000Y-45834029D01*
X43538000Y-45830029D01*
X43531000Y-45826029D01*
X43525000Y-45821029D01*
X43519000Y-45817029D01*
X43513000Y-45811029D01*
X43507000Y-45806029D01*
X43502000Y-45800029D01*
X43496000Y-45794029D01*
X43492000Y-45788029D01*
X43487000Y-45782029D01*
X43483000Y-45775029D01*
X43479000Y-45768029D01*
X43476000Y-45761029D01*
X43473000Y-45754029D01*
X43470000Y-45746029D01*
X43468000Y-45739029D01*
X43466000Y-45731029D01*
X43465000Y-45723029D01*
X43464000Y-45716029D01*
X43463000Y-45708029D01*
X43463000Y-45700029D01*
X43463000Y-45692029D01*
X43464000Y-45684029D01*
X43465000Y-45677029D01*
X43466000Y-45669029D01*
X43468000Y-45661029D01*
X43470000Y-45654029D01*
X43473000Y-45646029D01*
X43476000Y-45639029D01*
X43479000Y-45632029D01*
X43483000Y-45625029D01*
X43487000Y-45618029D01*
X43492000Y-45612029D01*
X43496000Y-45606029D01*
X43502000Y-45600029D01*
X43507000Y-45594029D01*
X43513000Y-45589029D01*
X43519000Y-45583029D01*
X43525000Y-45579029D01*
X43531000Y-45574029D01*
X43538000Y-45570029D01*
X43545000Y-45566029D01*
X43552000Y-45563029D01*
X43559000Y-45560029D01*
X43567000Y-45557029D01*
X43574000Y-45555029D01*
X43582000Y-45553029D01*
X43590000Y-45552029D01*
X43597000Y-45551029D01*
X43605000Y-45550029D01*
X43613000Y-45550029D01*
X44413000Y-45550029D01*
X44413000Y-45700029D01*
G37*
X44413000Y-46100029D02*
X44413000Y-46250029D01*
X43613000Y-46250029D01*
X43605000Y-46250029D01*
X43597000Y-46249029D01*
X43590000Y-46248029D01*
X43582000Y-46247029D01*
X43574000Y-46245029D01*
X43567000Y-46243029D01*
X43559000Y-46240029D01*
X43552000Y-46237029D01*
X43545000Y-46234029D01*
X43538000Y-46230029D01*
X43531000Y-46226029D01*
X43525000Y-46221029D01*
X43519000Y-46217029D01*
X43513000Y-46211029D01*
X43507000Y-46206029D01*
X43502000Y-46200029D01*
X43496000Y-46194029D01*
X43492000Y-46188029D01*
X43487000Y-46182029D01*
X43483000Y-46175029D01*
X43479000Y-46168029D01*
X43476000Y-46161029D01*
X43473000Y-46154029D01*
X43470000Y-46146029D01*
X43468000Y-46139029D01*
X43466000Y-46131029D01*
X43465000Y-46123029D01*
X43464000Y-46116029D01*
X43463000Y-46108029D01*
X43463000Y-46100029D01*
X43463000Y-46092029D01*
X43464000Y-46084029D01*
X43465000Y-46077029D01*
X43466000Y-46069029D01*
X43468000Y-46061029D01*
X43470000Y-46054029D01*
X43473000Y-46046029D01*
X43476000Y-46039029D01*
X43479000Y-46032029D01*
X43483000Y-46025029D01*
X43487000Y-46018029D01*
X43492000Y-46012029D01*
X43496000Y-46006029D01*
X43502000Y-46000029D01*
X43507000Y-45994029D01*
X43513000Y-45989029D01*
X43519000Y-45983029D01*
X43525000Y-45979029D01*
X43531000Y-45974029D01*
X43538000Y-45970029D01*
X43545000Y-45966029D01*
X43552000Y-45963029D01*
X43559000Y-45960029D01*
X43567000Y-45957029D01*
X43574000Y-45955029D01*
X43582000Y-45953029D01*
X43590000Y-45952029D01*
X43597000Y-45951029D01*
X43605000Y-45950029D01*
X43613000Y-45950029D01*
X44413000Y-45950029D01*
X44413000Y-46100029D01*
G36*
X44413000Y-46100029D02*
G01*
X44413000Y-46250029D01*
X43613000Y-46250029D01*
X43605000Y-46250029D01*
X43597000Y-46249029D01*
X43590000Y-46248029D01*
X43582000Y-46247029D01*
X43574000Y-46245029D01*
X43567000Y-46243029D01*
X43559000Y-46240029D01*
X43552000Y-46237029D01*
X43545000Y-46234029D01*
X43538000Y-46230029D01*
X43531000Y-46226029D01*
X43525000Y-46221029D01*
X43519000Y-46217029D01*
X43513000Y-46211029D01*
X43507000Y-46206029D01*
X43502000Y-46200029D01*
X43496000Y-46194029D01*
X43492000Y-46188029D01*
X43487000Y-46182029D01*
X43483000Y-46175029D01*
X43479000Y-46168029D01*
X43476000Y-46161029D01*
X43473000Y-46154029D01*
X43470000Y-46146029D01*
X43468000Y-46139029D01*
X43466000Y-46131029D01*
X43465000Y-46123029D01*
X43464000Y-46116029D01*
X43463000Y-46108029D01*
X43463000Y-46100029D01*
X43463000Y-46092029D01*
X43464000Y-46084029D01*
X43465000Y-46077029D01*
X43466000Y-46069029D01*
X43468000Y-46061029D01*
X43470000Y-46054029D01*
X43473000Y-46046029D01*
X43476000Y-46039029D01*
X43479000Y-46032029D01*
X43483000Y-46025029D01*
X43487000Y-46018029D01*
X43492000Y-46012029D01*
X43496000Y-46006029D01*
X43502000Y-46000029D01*
X43507000Y-45994029D01*
X43513000Y-45989029D01*
X43519000Y-45983029D01*
X43525000Y-45979029D01*
X43531000Y-45974029D01*
X43538000Y-45970029D01*
X43545000Y-45966029D01*
X43552000Y-45963029D01*
X43559000Y-45960029D01*
X43567000Y-45957029D01*
X43574000Y-45955029D01*
X43582000Y-45953029D01*
X43590000Y-45952029D01*
X43597000Y-45951029D01*
X43605000Y-45950029D01*
X43613000Y-45950029D01*
X44413000Y-45950029D01*
X44413000Y-46100029D01*
G37*
X44413000Y-46500029D02*
X44413000Y-46650029D01*
X43613000Y-46650029D01*
X43605000Y-46650029D01*
X43597000Y-46649029D01*
X43590000Y-46648029D01*
X43582000Y-46647029D01*
X43574000Y-46645029D01*
X43567000Y-46643029D01*
X43559000Y-46640029D01*
X43552000Y-46637029D01*
X43545000Y-46634029D01*
X43538000Y-46630029D01*
X43531000Y-46626029D01*
X43525000Y-46621029D01*
X43519000Y-46617029D01*
X43513000Y-46611029D01*
X43507000Y-46606029D01*
X43502000Y-46600029D01*
X43496000Y-46594029D01*
X43492000Y-46588029D01*
X43487000Y-46582029D01*
X43483000Y-46575029D01*
X43479000Y-46568029D01*
X43476000Y-46561029D01*
X43473000Y-46554029D01*
X43470000Y-46546029D01*
X43468000Y-46539029D01*
X43466000Y-46531029D01*
X43465000Y-46523029D01*
X43464000Y-46516029D01*
X43463000Y-46508029D01*
X43463000Y-46500029D01*
X43463000Y-46492029D01*
X43464000Y-46484029D01*
X43465000Y-46477029D01*
X43466000Y-46469029D01*
X43468000Y-46461029D01*
X43470000Y-46454029D01*
X43473000Y-46446029D01*
X43476000Y-46439029D01*
X43479000Y-46432029D01*
X43483000Y-46425029D01*
X43487000Y-46418029D01*
X43492000Y-46412029D01*
X43496000Y-46406029D01*
X43502000Y-46400029D01*
X43507000Y-46394029D01*
X43513000Y-46389029D01*
X43519000Y-46383029D01*
X43525000Y-46379029D01*
X43531000Y-46374029D01*
X43538000Y-46370029D01*
X43545000Y-46366029D01*
X43552000Y-46363029D01*
X43559000Y-46360029D01*
X43567000Y-46357029D01*
X43574000Y-46355029D01*
X43582000Y-46353029D01*
X43590000Y-46352029D01*
X43597000Y-46351029D01*
X43605000Y-46350029D01*
X43613000Y-46350029D01*
X44413000Y-46350029D01*
X44413000Y-46500029D01*
G36*
X44413000Y-46500029D02*
G01*
X44413000Y-46650029D01*
X43613000Y-46650029D01*
X43605000Y-46650029D01*
X43597000Y-46649029D01*
X43590000Y-46648029D01*
X43582000Y-46647029D01*
X43574000Y-46645029D01*
X43567000Y-46643029D01*
X43559000Y-46640029D01*
X43552000Y-46637029D01*
X43545000Y-46634029D01*
X43538000Y-46630029D01*
X43531000Y-46626029D01*
X43525000Y-46621029D01*
X43519000Y-46617029D01*
X43513000Y-46611029D01*
X43507000Y-46606029D01*
X43502000Y-46600029D01*
X43496000Y-46594029D01*
X43492000Y-46588029D01*
X43487000Y-46582029D01*
X43483000Y-46575029D01*
X43479000Y-46568029D01*
X43476000Y-46561029D01*
X43473000Y-46554029D01*
X43470000Y-46546029D01*
X43468000Y-46539029D01*
X43466000Y-46531029D01*
X43465000Y-46523029D01*
X43464000Y-46516029D01*
X43463000Y-46508029D01*
X43463000Y-46500029D01*
X43463000Y-46492029D01*
X43464000Y-46484029D01*
X43465000Y-46477029D01*
X43466000Y-46469029D01*
X43468000Y-46461029D01*
X43470000Y-46454029D01*
X43473000Y-46446029D01*
X43476000Y-46439029D01*
X43479000Y-46432029D01*
X43483000Y-46425029D01*
X43487000Y-46418029D01*
X43492000Y-46412029D01*
X43496000Y-46406029D01*
X43502000Y-46400029D01*
X43507000Y-46394029D01*
X43513000Y-46389029D01*
X43519000Y-46383029D01*
X43525000Y-46379029D01*
X43531000Y-46374029D01*
X43538000Y-46370029D01*
X43545000Y-46366029D01*
X43552000Y-46363029D01*
X43559000Y-46360029D01*
X43567000Y-46357029D01*
X43574000Y-46355029D01*
X43582000Y-46353029D01*
X43590000Y-46352029D01*
X43597000Y-46351029D01*
X43605000Y-46350029D01*
X43613000Y-46350029D01*
X44413000Y-46350029D01*
X44413000Y-46500029D01*
G37*
%TD*%
D15*
%TO.C,J3*%
X53290000Y-24385000D03*
X48210000Y-25401000D03*
X48210000Y-23369000D03*
D16*
X52020000Y-23750000D03*
X52020000Y-25020000D03*
X50750000Y-23750000D03*
X50750000Y-25020000D03*
X49480000Y-23735000D03*
X49480000Y-25020000D03*
%TD*%
D17*
%TO.C,R8*%
X49410000Y-39400000D03*
X48390000Y-39400000D03*
%TD*%
D18*
%TO.C,C8*%
X41517000Y-37950000D03*
X40557000Y-37950000D03*
%TD*%
D19*
%TO.C,C16*%
X37510000Y-36840000D03*
X35610000Y-36840000D03*
%TD*%
D20*
%TO.C,C11*%
X48450000Y-27520000D03*
X48450000Y-28480000D03*
%TD*%
D21*
%TO.C,J1*%
X35113000Y-54600029D03*
X35613000Y-54600029D03*
X36113000Y-54600029D03*
X36613000Y-54600029D03*
X37113000Y-54600029D03*
X37613000Y-54600029D03*
X38613000Y-54600029D03*
X39113000Y-54600029D03*
X39613000Y-54600029D03*
X40113000Y-54600029D03*
X40613000Y-54600029D03*
X41113000Y-54600029D03*
D22*
X41213000Y-55900029D03*
D21*
X40363000Y-55900029D03*
X39863000Y-55900029D03*
X39363000Y-55900029D03*
X38863000Y-55900029D03*
X38363000Y-55900029D03*
X37863000Y-55900029D03*
X37363000Y-55900029D03*
X36863000Y-55900029D03*
X36363000Y-55900029D03*
X35863000Y-55900029D03*
D22*
X35013000Y-55900029D03*
D23*
X33793000Y-55010029D03*
X42433000Y-55010029D03*
D24*
X33793000Y-60370029D03*
X42433000Y-60370029D03*
%TD*%
D17*
%TO.C,R3*%
X37323000Y-48550029D03*
X36303000Y-48550029D03*
%TD*%
D25*
%TO.C,U10*%
X39513000Y-27600029D03*
X39513000Y-28250029D03*
X39513000Y-28900029D03*
X39513000Y-29550029D03*
X39513000Y-30200029D03*
X39513000Y-30850029D03*
X39513000Y-31500029D03*
X39513000Y-32150029D03*
X39513000Y-32800029D03*
X39513000Y-33450029D03*
X39513000Y-34100029D03*
X39513000Y-34750029D03*
X39513000Y-35400029D03*
X39513000Y-36050029D03*
X46523000Y-36050029D03*
X46523000Y-35400029D03*
X46523000Y-34750029D03*
X46523000Y-34100029D03*
X46523000Y-33450029D03*
X46523000Y-32800029D03*
X46523000Y-32150029D03*
X46523000Y-31500029D03*
X46523000Y-30850029D03*
X46523000Y-30200029D03*
X46523000Y-29550029D03*
X46523000Y-28900029D03*
X46523000Y-28250029D03*
X46523000Y-27600029D03*
%TD*%
D26*
%TO.C,R1*%
X33313000Y-52960029D03*
X33313000Y-51940029D03*
%TD*%
D27*
%TO.C,C1*%
X36290000Y-49800029D03*
X37250000Y-49800029D03*
%TD*%
D28*
%TO.C,F1*%
X39200000Y-51700000D03*
X42000000Y-51700000D03*
%TD*%
D20*
%TO.C,C7*%
X37600000Y-27520000D03*
X37600000Y-28480000D03*
%TD*%
D29*
%TO.C,H1*%
X33012900Y-24000000D03*
%TD*%
D18*
%TO.C,C14*%
X46380000Y-49275000D03*
X45420000Y-49275000D03*
%TD*%
D26*
%TO.C,R7*%
X50450000Y-40360000D03*
X50450000Y-39340000D03*
%TD*%
D17*
%TO.C,R13*%
X38473000Y-45050000D03*
X37453000Y-45050000D03*
%TD*%
D30*
%TO.C,R12*%
X34138000Y-45050029D03*
X35788000Y-45050029D03*
%TD*%
D31*
%TO.C,R2*%
X32100000Y-54390000D03*
X32100000Y-55410000D03*
%TD*%
D18*
%TO.C,C10*%
X46743000Y-37950000D03*
X45783000Y-37950000D03*
%TD*%
D15*
%TO.C,J5*%
X45090000Y-24335000D03*
X40010000Y-25351000D03*
X40010000Y-23319000D03*
D16*
X43820000Y-23700000D03*
X43820000Y-24970000D03*
X42550000Y-23700000D03*
X42550000Y-24970000D03*
X41280000Y-23685000D03*
X41280000Y-24970000D03*
%TD*%
D32*
%TO.C,D1*%
X43600000Y-48600000D03*
X40300000Y-48600000D03*
%TD*%
D27*
%TO.C,C9*%
X43170000Y-37950000D03*
X44130000Y-37950000D03*
%TD*%
D29*
%TO.C,H2*%
X55000000Y-60000029D03*
%TD*%
D26*
%TO.C,R4*%
X32100000Y-57520000D03*
X32100000Y-56500000D03*
%TD*%
D33*
%TO.C,U7*%
X49312499Y-38100030D03*
D34*
X50212500Y-38300027D03*
X50537500Y-37650028D03*
X50862500Y-38300027D03*
X51187500Y-37650028D03*
X51512500Y-38300027D03*
D33*
X52412500Y-38100030D03*
D34*
X52612500Y-37200029D03*
X51962500Y-36875029D03*
X52612500Y-36550029D03*
X51962500Y-36225029D03*
X52612500Y-35900029D03*
X51962500Y-35575029D03*
X52612500Y-35250029D03*
X51962500Y-34925029D03*
X52612500Y-34600029D03*
X51962500Y-34275029D03*
X52612500Y-33950029D03*
X51962500Y-33625029D03*
X52612500Y-33300029D03*
X51962500Y-32975029D03*
X52612500Y-32650029D03*
X51962500Y-32325029D03*
X52612500Y-32000029D03*
D33*
X52412500Y-31100029D03*
D34*
X51512500Y-30900029D03*
X51187500Y-31550029D03*
X50862500Y-30900029D03*
X50537500Y-31550029D03*
X50212500Y-30900029D03*
D33*
X49312499Y-31100029D03*
D34*
X49112502Y-32000029D03*
X49762501Y-32325029D03*
X49112502Y-32650029D03*
X49762501Y-32975029D03*
X49112502Y-33300029D03*
X49762501Y-33625029D03*
X49112502Y-33950029D03*
X49762501Y-34275029D03*
X49112502Y-34600029D03*
X49762501Y-34925029D03*
X49112502Y-35250029D03*
X49762501Y-35575029D03*
X49112502Y-35900029D03*
X49762501Y-36225029D03*
X49112502Y-36550029D03*
X49762501Y-36875029D03*
X49112502Y-37200029D03*
X53362500Y-38300027D03*
X54362500Y-38300027D03*
X55362500Y-38300027D03*
D33*
X56312500Y-38100030D03*
D34*
X56513000Y-37100029D03*
X56513000Y-36100029D03*
X56513000Y-35100029D03*
X56513000Y-34100029D03*
X56513000Y-33100029D03*
X56513000Y-32100029D03*
D33*
X56312500Y-31100029D03*
D34*
X55362500Y-30900029D03*
X54362500Y-30900029D03*
X53362500Y-30900029D03*
%TD*%
D20*
%TO.C,C2*%
X34413000Y-51970029D03*
X34413000Y-52930029D03*
%TD*%
D35*
%TO.C,R11*%
X45403000Y-45850029D03*
X46423000Y-45850029D03*
%TD*%
D19*
%TO.C,C15*%
X37510000Y-30590000D03*
X35610000Y-30590000D03*
%TD*%
D36*
%TO.C,U5*%
X48208000Y-45400029D03*
X48208000Y-46350029D03*
X48208000Y-47300029D03*
X50718000Y-47300029D03*
X50718000Y-45400029D03*
%TD*%
D26*
%TO.C,R17*%
X45300000Y-42360000D03*
X45300000Y-41340000D03*
%TD*%
D17*
%TO.C,R5*%
X37323000Y-47400000D03*
X36303000Y-47400000D03*
%TD*%
D27*
%TO.C,C3*%
X31933000Y-46400000D03*
X32893000Y-46400000D03*
%TD*%
D37*
%TO.C,U1*%
X48088000Y-57475029D03*
X49538000Y-57475029D03*
X48088000Y-54125029D03*
X49538000Y-54125029D03*
D38*
X47063000Y-55800029D03*
%TD*%
D39*
%TO.C,J2*%
X32513000Y-42750029D03*
X32513000Y-41500029D03*
X32513000Y-40250029D03*
%TD*%
D26*
%TO.C,R14*%
X45663000Y-56310029D03*
X45663000Y-55290029D03*
%TD*%
%TO.C,R6*%
X50450000Y-42360000D03*
X50450000Y-41340000D03*
%TD*%
D40*
%TO.C,U2*%
X45700000Y-50700000D03*
X43800000Y-50700000D03*
X44750000Y-52700000D03*
%TD*%
D41*
%TO.C,R15*%
X35647500Y-34770000D03*
X37472500Y-34770000D03*
%TD*%
D42*
%TO.C,D4*%
X48163000Y-42212529D03*
X48863000Y-42212529D03*
X48863000Y-40912529D03*
X48163000Y-40912529D03*
%TD*%
D27*
%TO.C,C13*%
X50170000Y-44000000D03*
X51130000Y-44000000D03*
%TD*%
D43*
%TO.C,J4*%
X33000000Y-32500000D03*
D44*
X33000000Y-29960000D03*
%TD*%
D17*
%TO.C,R9*%
X38463000Y-46250029D03*
X37443000Y-46250029D03*
%TD*%
D45*
%TO.C,U3*%
X48325500Y-49250029D03*
X48325500Y-50200029D03*
X48325500Y-51150029D03*
X50645500Y-51150029D03*
X50645500Y-50200029D03*
X50645500Y-49250029D03*
%TD*%
D35*
%TO.C,R10*%
X45353000Y-47050029D03*
X46373000Y-47050029D03*
%TD*%
D18*
%TO.C,C12*%
X48730000Y-44000000D03*
X47770000Y-44000000D03*
%TD*%
D41*
%TO.C,R16*%
X35647500Y-32680000D03*
X37472500Y-32680000D03*
%TD*%
D27*
%TO.C,C4*%
X33920000Y-46400000D03*
X34880000Y-46400000D03*
%TD*%
D46*
%TO.C,U4*%
X34318000Y-47715029D03*
X33818000Y-47715029D03*
X33318000Y-47715029D03*
X32818000Y-47715029D03*
D47*
X32133000Y-48400029D03*
X32133000Y-48900029D03*
X32133000Y-49400029D03*
X32133000Y-49900029D03*
D46*
X32818000Y-50585029D03*
X33318000Y-50585029D03*
X33818000Y-50585029D03*
X34318000Y-50585029D03*
D47*
X35003000Y-49900029D03*
X35003000Y-49400029D03*
X35003000Y-48900029D03*
X35003000Y-48400029D03*
D48*
X33568000Y-49150029D03*
%TD*%
D49*
%TO.C,C6*%
X41600000Y-42230000D03*
X41600000Y-41270000D03*
%TD*%
%TO.C,C5*%
X45713000Y-44630029D03*
X45713000Y-43670029D03*
%TD*%
D42*
%TO.C,D5*%
X43161300Y-42212529D03*
X43861300Y-42212529D03*
X43861300Y-40912529D03*
X43161300Y-40912529D03*
%TD*%
D35*
%TO.C,R19*%
X42990000Y-39450000D03*
X44010000Y-39450000D03*
%TD*%
D50*
X54987000Y-22008000D02*
X33013000Y-22000000D01*
X31000000Y-38000000D02*
X31000000Y-59987029D01*
X33000000Y-62000029D02*
G75*
G02*
X31000013Y-59987029I0J2000029D01*
G01*
X31000000Y-24000000D02*
G75*
G02*
X33013000Y-22000002I2000070J-30D01*
G01*
X31000000Y-35000000D02*
X31000000Y-24000000D01*
X57013000Y-60000029D02*
G75*
G02*
X55000000Y-62000058I-2000100J29D01*
G01*
X56987000Y-24021000D02*
X57013000Y-60000029D01*
X54987000Y-22008000D02*
G75*
G02*
X56986958Y-24021000I-100J-2000100D01*
G01*
X34000000Y-38000000D02*
X31000000Y-38000000D01*
X34000000Y-35000000D02*
X34000000Y-38000000D01*
X55000000Y-62000029D02*
X33000000Y-62000029D01*
X31000000Y-35000000D02*
X34000000Y-35000000D01*
M02*
