M48
; DRILL file {KiCad 8.0.8} date 2025-02-28T15:56:20+0100
; FORMAT={-:-/ absolute / inch / decimal}
; #@! TF.CreationDate,2025-02-28T15:56:20+01:00
; #@! TF.GenerationSoftware,Kicad,Pcbnew,8.0.8
; #@! TF.FileFunction,Plated,1,2,PTH
FMAT,2
INCH
; #@! TA.AperFunction,Plated,PTH,ViaDrill
T1C0.0118
; #@! TA.AperFunction,Plated,PTH,ComponentDrill
T2C0.0200
; #@! TA.AperFunction,Plated,PTH,ComponentDrill
T3C0.0236
; #@! TA.AperFunction,Plated,PTH,ComponentDrill
T4C0.0394
%
G90
G05
T1
X1.2505Y-1.8701
X1.2569Y-1.7844
X1.2598Y-2.1024
X1.2614Y-2.0039
X1.2663Y-2.0571
X1.3031Y-2.2205
X1.3346Y-2.2559
X1.3903Y-1.6339
X1.3937Y-2.0699
X1.3942Y-1.8701
X1.4277Y-1.7106
X1.4488Y-0.999
X1.4616Y-2.0245
X1.4642Y-2.1154
X1.4764Y-1.0256
X1.4921Y-2.0699
X1.4951Y-2.1154
X1.5098Y-1.9291
X1.5197Y-0.8976
X1.5298Y-0.9859
X1.534Y-1.8602
X1.534Y-1.9055
X1.5354Y-1.4764
X1.5537Y-1.7106
X1.6083Y-2.0374
X1.6181Y-1.1614
X1.6186Y-1.1122
X1.6206Y-1.2913
X1.627Y-1.4124
X1.628Y-1.3681
X1.6521Y-1.7205
X1.6998Y-1.1289
X1.7008Y-0.9606
X1.7018Y-1.2618
X1.7185Y-2.0374
X1.7313Y-1.7028
X1.7387Y-2.1339
X1.7584Y-1.2677
X1.7604Y-1.189
X1.7604Y-1.2382
X1.7623Y-1.0866
X1.7657Y-1.4281
X1.784Y-1.8937
X1.8199Y-1.9006
X1.8248Y-1.5984
X1.8258Y-1.563
X1.8258Y-1.6358
X1.8332Y-1.7677
X1.8332Y-2.1358
X1.8386Y-1.7195
X1.8514Y-1.6801
X1.8588Y-1.8996
X1.9021Y-1.4842
X1.9025Y-1.3328
X1.9026Y-1.2972
X1.908Y-1.4311
X1.9094Y-1.1575
X1.9097Y-1.3973
X1.911Y-1.3611
X1.9887Y-1.311
X1.9966Y-1.9016
X2.0Y-0.9084
X2.0044Y-1.2854
X2.0163Y-1.4016
X2.0288Y-1.1759
X2.0492Y-0.8858
X2.0615Y-1.5492
T2
X1.28Y-1.5846
X1.28Y-1.6339
X1.28Y-1.6831
T4
X1.2992Y-1.1795
X1.2992Y-1.2795
T3
G00X1.3304Y-2.1461
M15
G01X1.3304Y-2.1854
M16
G05
G00X1.3304Y-2.3472
M15
G01X1.3304Y-2.4063
M16
G05
G00X1.6706Y-2.1461
M15
G01X1.6706Y-2.1854
M16
G05
G00X1.6706Y-2.3472
M15
G01X1.6706Y-2.4063
M16
G05
M30
