%TF.GenerationSoftware,KiCad,Pcbnew,7.0.1*%
%TF.CreationDate,2024-08-21T14:39:36+02:00*%
%TF.ProjectId,renforce-eda,72656e66-6f72-4636-952d-6564612e6b69,1.0*%
%TF.SameCoordinates,Original*%
%TF.FileFunction,Drillmap*%
%TF.FilePolarity,Positive*%
%FSLAX45Y45*%
G04 Gerber Fmt 4.5, Leading zero omitted, Abs format (unit mm)*
G04 Created by KiCad (PCBNEW 7.0.1) date 2024-08-21 14:39:36*
%MOMM*%
%LPD*%
G01*
G04 APERTURE LIST*
%ADD10C,0.254000*%
%ADD11C,0.200000*%
%ADD12C,0.030000*%
%ADD13C,0.050800*%
%ADD14C,0.060000*%
%ADD15C,0.100000*%
G04 APERTURE END LIST*
D10*
X5498700Y-2200800D02*
X3302600Y-2200000D01*
X3101300Y-2400000D02*
X3103100Y-5998703D01*
X5500000Y-6200003D02*
X5251000Y-6200003D01*
X3103101Y-5998703D02*
G75*
G03*
X3303100Y-6200003I199999J-1297D01*
G01*
X3302600Y-2200004D02*
G75*
G03*
X3101300Y-2400000I-1300J-199996D01*
G01*
X5500000Y-6200006D02*
G75*
G03*
X5701300Y-6000003I1290J200006D01*
G01*
X4666400Y-5985903D02*
X4666400Y-6200003D01*
X5250800Y-5985903D02*
X4666400Y-5985903D01*
X5698700Y-2402100D02*
X5701300Y-6000003D01*
X5698696Y-2402100D02*
G75*
G03*
X5498700Y-2200800I-200006J1290D01*
G01*
X5250800Y-5985903D02*
X5250800Y-6200003D01*
X4666400Y-6200003D02*
X3303100Y-6200003D01*
D11*
D12*
X3161300Y-4735003D02*
X3191300Y-4765003D01*
X3191300Y-4735003D02*
X3161300Y-4765003D01*
X3176300Y-4435003D02*
X3206300Y-4465003D01*
X3206300Y-4435003D02*
X3176300Y-4465003D01*
X3185000Y-5325000D02*
X3215000Y-5355000D01*
X3215000Y-5325000D02*
X3185000Y-5355000D01*
X3188950Y-5075003D02*
X3218950Y-5105003D01*
X3218950Y-5075003D02*
X3188950Y-5105003D01*
X3201300Y-5210003D02*
X3231300Y-5240003D01*
X3231300Y-5210003D02*
X3201300Y-5240003D01*
X3295000Y-5625000D02*
X3325000Y-5655000D01*
X3325000Y-5625000D02*
X3295000Y-5655000D01*
X3335000Y-3635000D02*
X3365000Y-3665000D01*
X3365000Y-3635000D02*
X3335000Y-3665000D01*
X3375000Y-5715000D02*
X3405000Y-5745000D01*
X3405000Y-5715000D02*
X3375000Y-5745000D01*
X3516300Y-4135003D02*
X3546300Y-4165003D01*
X3546300Y-4135003D02*
X3516300Y-4165003D01*
X3525000Y-5242653D02*
X3555000Y-5272653D01*
X3555000Y-5242653D02*
X3525000Y-5272653D01*
X3526300Y-4735003D02*
X3556300Y-4765003D01*
X3556300Y-4735003D02*
X3526300Y-4765003D01*
X3611300Y-4330003D02*
X3641300Y-4360003D01*
X3641300Y-4330003D02*
X3611300Y-4360003D01*
X3665000Y-2445000D02*
X3695000Y-2475000D01*
X3695000Y-2445000D02*
X3665000Y-2475000D01*
X3703950Y-5242653D02*
X3733950Y-5272653D01*
X3733950Y-5242653D02*
X3703950Y-5272653D01*
X3705000Y-5127353D02*
X3735000Y-5157353D01*
X3735000Y-5127353D02*
X3705000Y-5157353D01*
X3735000Y-2505000D02*
X3765000Y-2535000D01*
X3765000Y-2505000D02*
X3735000Y-2535000D01*
X3751321Y-5358003D02*
X3781321Y-5388003D01*
X3781321Y-5358003D02*
X3751321Y-5388003D01*
X3820000Y-4885000D02*
X3850000Y-4915000D01*
X3850000Y-4885000D02*
X3820000Y-4915000D01*
X3835000Y-5358003D02*
X3865000Y-5388003D01*
X3865000Y-5358003D02*
X3835000Y-5388003D01*
X3845000Y-2265000D02*
X3875000Y-2295000D01*
X3875000Y-2265000D02*
X3845000Y-2295000D01*
X3870765Y-2489235D02*
X3900765Y-2519235D01*
X3900765Y-2489235D02*
X3870765Y-2519235D01*
X3881300Y-4710003D02*
X3911300Y-4740003D01*
X3911300Y-4710003D02*
X3881300Y-4740003D01*
X3881300Y-4825003D02*
X3911300Y-4855003D01*
X3911300Y-4825003D02*
X3881300Y-4855003D01*
X3931299Y-4330001D02*
X3961299Y-4360001D01*
X3961299Y-4330001D02*
X3931299Y-4360001D01*
X4070000Y-5160000D02*
X4100000Y-5190000D01*
X4100000Y-5160000D02*
X4070000Y-5190000D01*
X4095000Y-2935000D02*
X4125000Y-2965000D01*
X4125000Y-2935000D02*
X4095000Y-2965000D01*
X4096300Y-2810003D02*
X4126300Y-2840003D01*
X4126300Y-2810003D02*
X4096300Y-2840003D01*
X4101300Y-3265003D02*
X4131300Y-3295003D01*
X4131300Y-3265003D02*
X4101300Y-3295003D01*
X4181300Y-4355000D02*
X4211300Y-4385000D01*
X4211300Y-4355000D02*
X4181300Y-4385000D01*
X4211300Y-3675003D02*
X4241300Y-3705003D01*
X4241300Y-3675003D02*
X4211300Y-3705003D01*
X4305000Y-2425000D02*
X4335000Y-2455000D01*
X4335000Y-2425000D02*
X4305000Y-2455000D01*
X4346300Y-2825003D02*
X4376300Y-2855003D01*
X4376300Y-2825003D02*
X4346300Y-2855003D01*
X4350000Y-5160000D02*
X4380000Y-5190000D01*
X4380000Y-5160000D02*
X4350000Y-5190000D01*
X4351300Y-3210003D02*
X4381300Y-3240003D01*
X4381300Y-3210003D02*
X4351300Y-3240003D01*
X4351300Y-3645003D02*
X4381300Y-3675003D01*
X4381300Y-3645003D02*
X4351300Y-3675003D01*
X4401300Y-5405003D02*
X4431300Y-5435003D01*
X4431300Y-5405003D02*
X4401300Y-5435003D01*
X4445635Y-2729338D02*
X4475635Y-2759338D01*
X4475635Y-2729338D02*
X4445635Y-2759338D01*
X4451300Y-3205003D02*
X4481300Y-3235003D01*
X4481300Y-3205003D02*
X4451300Y-3235003D01*
X4456300Y-3005003D02*
X4486300Y-3035003D01*
X4486300Y-3005003D02*
X4456300Y-3035003D01*
X4456300Y-3130003D02*
X4486300Y-3160003D01*
X4486300Y-3130003D02*
X4456300Y-3160003D01*
X4481300Y-4475003D02*
X4511300Y-4505003D01*
X4511300Y-4475003D02*
X4481300Y-4505003D01*
X4516300Y-4795003D02*
X4546300Y-4825003D01*
X4546300Y-4795003D02*
X4516300Y-4825003D01*
X4590000Y-3970050D02*
X4620000Y-4000050D01*
X4620000Y-3970050D02*
X4590000Y-4000050D01*
X4590000Y-4045000D02*
X4620000Y-4075000D01*
X4620000Y-4045000D02*
X4590000Y-4075000D01*
X4590000Y-4170000D02*
X4620000Y-4200000D01*
X4620000Y-4170000D02*
X4590000Y-4200000D01*
X4641300Y-4475003D02*
X4671300Y-4505003D01*
X4671300Y-4475003D02*
X4641300Y-4505003D01*
X4641300Y-5410003D02*
X4671300Y-5440003D01*
X4671300Y-5410003D02*
X4641300Y-5440003D01*
X4681300Y-5815003D02*
X4711300Y-5845003D01*
X4711300Y-5815003D02*
X4681300Y-5845003D01*
X4706300Y-4810003D02*
X4736300Y-4840003D01*
X4736300Y-4810003D02*
X4706300Y-4840003D01*
X4781300Y-4395003D02*
X4811300Y-4425003D01*
X4811300Y-4395003D02*
X4781300Y-4425003D01*
X4816300Y-3754953D02*
X4846300Y-3784953D01*
X4846300Y-3754953D02*
X4816300Y-3784953D01*
X4817378Y-3370232D02*
X4847378Y-3400232D01*
X4847378Y-3370232D02*
X4817378Y-3400232D01*
X4817650Y-3280003D02*
X4847650Y-3310003D01*
X4847650Y-3280003D02*
X4817650Y-3310003D01*
X4831300Y-3620003D02*
X4861300Y-3650003D01*
X4861300Y-3620003D02*
X4831300Y-3650003D01*
X4835000Y-2925000D02*
X4865000Y-2955000D01*
X4865000Y-2925000D02*
X4835000Y-2955000D01*
X4835535Y-3534238D02*
X4865535Y-3564238D01*
X4865535Y-3534238D02*
X4835535Y-3564238D01*
X4838886Y-3442145D02*
X4868886Y-3472145D01*
X4868886Y-3442145D02*
X4838886Y-3472145D01*
X4896300Y-4430003D02*
X4926300Y-4460003D01*
X4926300Y-4430003D02*
X4896300Y-4460003D01*
X5036300Y-3315003D02*
X5066300Y-3345003D01*
X5066300Y-3315003D02*
X5036300Y-3345003D01*
X5056300Y-4815003D02*
X5086300Y-4845003D01*
X5086300Y-4815003D02*
X5056300Y-4845003D01*
X5065000Y-2292300D02*
X5095000Y-2322300D01*
X5095000Y-2292300D02*
X5065000Y-2322300D01*
X5076300Y-3250003D02*
X5106300Y-3280003D01*
X5106300Y-3250003D02*
X5076300Y-3280003D01*
X5106300Y-3545003D02*
X5136300Y-3575003D01*
X5136300Y-3545003D02*
X5106300Y-3575003D01*
X5138149Y-2971851D02*
X5168149Y-3001851D01*
X5168149Y-2971851D02*
X5138149Y-3001851D01*
X5190000Y-2235000D02*
X5220000Y-2265000D01*
X5220000Y-2235000D02*
X5190000Y-2265000D01*
X5221300Y-3920003D02*
X5251300Y-3950003D01*
X5251300Y-3920003D02*
X5221300Y-3950003D01*
D13*
X3276700Y-4025003D02*
G75*
G03*
X3276700Y-4025003I-25400J0D01*
G01*
X3276700Y-4150003D02*
G75*
G03*
X3276700Y-4150003I-25400J0D01*
G01*
X3276700Y-4275003D02*
G75*
G03*
X3276700Y-4275003I-25400J0D01*
G01*
D14*
X3379300Y-5471003D02*
X3379300Y-5531003D01*
X3349300Y-5501003D02*
X3409300Y-5501003D01*
D11*
X3349300Y-5451003D02*
X3349300Y-5551003D01*
X3349300Y-5551003D02*
G75*
G03*
X3409300Y-5551003I30000J0D01*
G01*
X3409300Y-5551003D02*
X3409300Y-5451003D01*
X3409300Y-5451003D02*
G75*
G03*
X3349300Y-5451003I-30000J0D01*
G01*
D14*
X3379300Y-6007003D02*
X3379300Y-6067003D01*
X3349300Y-6037003D02*
X3409300Y-6037003D01*
D11*
X3349300Y-5962003D02*
X3349300Y-6112003D01*
X3349300Y-6112003D02*
G75*
G03*
X3409300Y-6112003I30000J0D01*
G01*
X3409300Y-6112003D02*
X3409300Y-5962003D01*
X3409300Y-5962003D02*
G75*
G03*
X3349300Y-5962003I-30000J0D01*
G01*
D14*
X4243300Y-5471003D02*
X4243300Y-5531003D01*
X4213300Y-5501003D02*
X4273300Y-5501003D01*
D11*
X4213300Y-5451003D02*
X4213300Y-5551003D01*
X4213300Y-5551003D02*
G75*
G03*
X4273300Y-5551003I30000J0D01*
G01*
X4273300Y-5551003D02*
X4273300Y-5451003D01*
X4273300Y-5451003D02*
G75*
G03*
X4213300Y-5451003I-30000J0D01*
G01*
D14*
X4243300Y-6007003D02*
X4243300Y-6067003D01*
X4213300Y-6037003D02*
X4273300Y-6037003D01*
D11*
X4213300Y-5962003D02*
X4213300Y-6112003D01*
X4213300Y-6112003D02*
G75*
G03*
X4273300Y-6112003I30000J0D01*
G01*
X4273300Y-6112003D02*
X4273300Y-5962003D01*
X4273300Y-5962003D02*
G75*
G03*
X4213300Y-5962003I-30000J0D01*
G01*
D15*
X3335356Y-2785356D02*
X3335356Y-2714644D01*
X3264644Y-2714644D01*
X3264644Y-2785356D01*
X3335356Y-2785356D01*
X3335356Y-3039356D02*
X3335356Y-2968644D01*
X3264644Y-2968644D01*
X3264644Y-3039356D01*
X3335356Y-3039356D01*
X3335356Y-3293356D02*
X3335356Y-3222644D01*
X3264644Y-3222644D01*
X3264644Y-3293356D01*
X3335356Y-3293356D01*
X3335356Y-3547356D02*
X3335356Y-3476644D01*
X3264644Y-3476644D01*
X3264644Y-3547356D01*
X3335356Y-3547356D01*
D11*
X3336219Y-6525234D02*
X3336219Y-6325234D01*
X3336219Y-6325234D02*
X3383838Y-6325234D01*
X3383838Y-6325234D02*
X3412409Y-6334758D01*
X3412409Y-6334758D02*
X3431457Y-6353805D01*
X3431457Y-6353805D02*
X3440981Y-6372853D01*
X3440981Y-6372853D02*
X3450505Y-6410948D01*
X3450505Y-6410948D02*
X3450505Y-6439519D01*
X3450505Y-6439519D02*
X3440981Y-6477615D01*
X3440981Y-6477615D02*
X3431457Y-6496662D01*
X3431457Y-6496662D02*
X3412409Y-6515710D01*
X3412409Y-6515710D02*
X3383838Y-6525234D01*
X3383838Y-6525234D02*
X3336219Y-6525234D01*
X3536219Y-6525234D02*
X3536219Y-6391900D01*
X3536219Y-6429996D02*
X3545743Y-6410948D01*
X3545743Y-6410948D02*
X3555267Y-6401424D01*
X3555267Y-6401424D02*
X3574314Y-6391900D01*
X3574314Y-6391900D02*
X3593362Y-6391900D01*
X3660028Y-6525234D02*
X3660028Y-6391900D01*
X3660028Y-6325234D02*
X3650505Y-6334758D01*
X3650505Y-6334758D02*
X3660028Y-6344281D01*
X3660028Y-6344281D02*
X3669552Y-6334758D01*
X3669552Y-6334758D02*
X3660028Y-6325234D01*
X3660028Y-6325234D02*
X3660028Y-6344281D01*
X3783838Y-6525234D02*
X3764790Y-6515710D01*
X3764790Y-6515710D02*
X3755267Y-6496662D01*
X3755267Y-6496662D02*
X3755267Y-6325234D01*
X3888600Y-6525234D02*
X3869552Y-6515710D01*
X3869552Y-6515710D02*
X3860028Y-6496662D01*
X3860028Y-6496662D02*
X3860028Y-6325234D01*
X4117171Y-6525234D02*
X4117171Y-6325234D01*
X4117171Y-6325234D02*
X4183838Y-6468091D01*
X4183838Y-6468091D02*
X4250505Y-6325234D01*
X4250505Y-6325234D02*
X4250505Y-6525234D01*
X4431457Y-6525234D02*
X4431457Y-6420472D01*
X4431457Y-6420472D02*
X4421933Y-6401424D01*
X4421933Y-6401424D02*
X4402886Y-6391900D01*
X4402886Y-6391900D02*
X4364790Y-6391900D01*
X4364790Y-6391900D02*
X4345743Y-6401424D01*
X4431457Y-6515710D02*
X4412410Y-6525234D01*
X4412410Y-6525234D02*
X4364790Y-6525234D01*
X4364790Y-6525234D02*
X4345743Y-6515710D01*
X4345743Y-6515710D02*
X4336219Y-6496662D01*
X4336219Y-6496662D02*
X4336219Y-6477615D01*
X4336219Y-6477615D02*
X4345743Y-6458567D01*
X4345743Y-6458567D02*
X4364790Y-6449043D01*
X4364790Y-6449043D02*
X4412410Y-6449043D01*
X4412410Y-6449043D02*
X4431457Y-6439519D01*
X4526695Y-6391900D02*
X4526695Y-6591900D01*
X4526695Y-6401424D02*
X4545743Y-6391900D01*
X4545743Y-6391900D02*
X4583838Y-6391900D01*
X4583838Y-6391900D02*
X4602886Y-6401424D01*
X4602886Y-6401424D02*
X4612410Y-6410948D01*
X4612410Y-6410948D02*
X4621933Y-6429996D01*
X4621933Y-6429996D02*
X4621933Y-6487138D01*
X4621933Y-6487138D02*
X4612410Y-6506186D01*
X4612410Y-6506186D02*
X4602886Y-6515710D01*
X4602886Y-6515710D02*
X4583838Y-6525234D01*
X4583838Y-6525234D02*
X4545743Y-6525234D01*
X4545743Y-6525234D02*
X4526695Y-6515710D01*
X4707648Y-6506186D02*
X4717171Y-6515710D01*
X4717171Y-6515710D02*
X4707648Y-6525234D01*
X4707648Y-6525234D02*
X4698124Y-6515710D01*
X4698124Y-6515710D02*
X4707648Y-6506186D01*
X4707648Y-6506186D02*
X4707648Y-6525234D01*
X4707648Y-6401424D02*
X4717171Y-6410948D01*
X4717171Y-6410948D02*
X4707648Y-6420472D01*
X4707648Y-6420472D02*
X4698124Y-6410948D01*
X4698124Y-6410948D02*
X4707648Y-6401424D01*
X4707648Y-6401424D02*
X4707648Y-6420472D01*
D12*
X3058600Y-6837710D02*
X3088600Y-6867710D01*
X3088600Y-6837710D02*
X3058600Y-6867710D01*
D11*
X3374314Y-6745234D02*
X3393362Y-6745234D01*
X3393362Y-6745234D02*
X3412409Y-6754758D01*
X3412409Y-6754758D02*
X3421933Y-6764281D01*
X3421933Y-6764281D02*
X3431457Y-6783329D01*
X3431457Y-6783329D02*
X3440981Y-6821424D01*
X3440981Y-6821424D02*
X3440981Y-6869043D01*
X3440981Y-6869043D02*
X3431457Y-6907138D01*
X3431457Y-6907138D02*
X3421933Y-6926186D01*
X3421933Y-6926186D02*
X3412409Y-6935710D01*
X3412409Y-6935710D02*
X3393362Y-6945234D01*
X3393362Y-6945234D02*
X3374314Y-6945234D01*
X3374314Y-6945234D02*
X3355267Y-6935710D01*
X3355267Y-6935710D02*
X3345743Y-6926186D01*
X3345743Y-6926186D02*
X3336219Y-6907138D01*
X3336219Y-6907138D02*
X3326695Y-6869043D01*
X3326695Y-6869043D02*
X3326695Y-6821424D01*
X3326695Y-6821424D02*
X3336219Y-6783329D01*
X3336219Y-6783329D02*
X3345743Y-6764281D01*
X3345743Y-6764281D02*
X3355267Y-6754758D01*
X3355267Y-6754758D02*
X3374314Y-6745234D01*
X3526695Y-6926186D02*
X3536219Y-6935710D01*
X3536219Y-6935710D02*
X3526695Y-6945234D01*
X3526695Y-6945234D02*
X3517171Y-6935710D01*
X3517171Y-6935710D02*
X3526695Y-6926186D01*
X3526695Y-6926186D02*
X3526695Y-6945234D01*
X3602886Y-6745234D02*
X3726695Y-6745234D01*
X3726695Y-6745234D02*
X3660028Y-6821424D01*
X3660028Y-6821424D02*
X3688600Y-6821424D01*
X3688600Y-6821424D02*
X3707648Y-6830948D01*
X3707648Y-6830948D02*
X3717171Y-6840472D01*
X3717171Y-6840472D02*
X3726695Y-6859519D01*
X3726695Y-6859519D02*
X3726695Y-6907138D01*
X3726695Y-6907138D02*
X3717171Y-6926186D01*
X3717171Y-6926186D02*
X3707648Y-6935710D01*
X3707648Y-6935710D02*
X3688600Y-6945234D01*
X3688600Y-6945234D02*
X3631457Y-6945234D01*
X3631457Y-6945234D02*
X3612409Y-6935710D01*
X3612409Y-6935710D02*
X3602886Y-6926186D01*
X3850505Y-6745234D02*
X3869552Y-6745234D01*
X3869552Y-6745234D02*
X3888600Y-6754758D01*
X3888600Y-6754758D02*
X3898124Y-6764281D01*
X3898124Y-6764281D02*
X3907648Y-6783329D01*
X3907648Y-6783329D02*
X3917171Y-6821424D01*
X3917171Y-6821424D02*
X3917171Y-6869043D01*
X3917171Y-6869043D02*
X3907648Y-6907138D01*
X3907648Y-6907138D02*
X3898124Y-6926186D01*
X3898124Y-6926186D02*
X3888600Y-6935710D01*
X3888600Y-6935710D02*
X3869552Y-6945234D01*
X3869552Y-6945234D02*
X3850505Y-6945234D01*
X3850505Y-6945234D02*
X3831457Y-6935710D01*
X3831457Y-6935710D02*
X3821933Y-6926186D01*
X3821933Y-6926186D02*
X3812409Y-6907138D01*
X3812409Y-6907138D02*
X3802886Y-6869043D01*
X3802886Y-6869043D02*
X3802886Y-6821424D01*
X3802886Y-6821424D02*
X3812409Y-6783329D01*
X3812409Y-6783329D02*
X3821933Y-6764281D01*
X3821933Y-6764281D02*
X3831457Y-6754758D01*
X3831457Y-6754758D02*
X3850505Y-6745234D01*
X4040981Y-6745234D02*
X4060029Y-6745234D01*
X4060029Y-6745234D02*
X4079076Y-6754758D01*
X4079076Y-6754758D02*
X4088600Y-6764281D01*
X4088600Y-6764281D02*
X4098124Y-6783329D01*
X4098124Y-6783329D02*
X4107648Y-6821424D01*
X4107648Y-6821424D02*
X4107648Y-6869043D01*
X4107648Y-6869043D02*
X4098124Y-6907138D01*
X4098124Y-6907138D02*
X4088600Y-6926186D01*
X4088600Y-6926186D02*
X4079076Y-6935710D01*
X4079076Y-6935710D02*
X4060029Y-6945234D01*
X4060029Y-6945234D02*
X4040981Y-6945234D01*
X4040981Y-6945234D02*
X4021933Y-6935710D01*
X4021933Y-6935710D02*
X4012409Y-6926186D01*
X4012409Y-6926186D02*
X4002886Y-6907138D01*
X4002886Y-6907138D02*
X3993362Y-6869043D01*
X3993362Y-6869043D02*
X3993362Y-6821424D01*
X3993362Y-6821424D02*
X4002886Y-6783329D01*
X4002886Y-6783329D02*
X4012409Y-6764281D01*
X4012409Y-6764281D02*
X4021933Y-6754758D01*
X4021933Y-6754758D02*
X4040981Y-6745234D01*
X4193362Y-6945234D02*
X4193362Y-6811900D01*
X4193362Y-6830948D02*
X4202886Y-6821424D01*
X4202886Y-6821424D02*
X4221933Y-6811900D01*
X4221933Y-6811900D02*
X4250505Y-6811900D01*
X4250505Y-6811900D02*
X4269552Y-6821424D01*
X4269552Y-6821424D02*
X4279076Y-6840472D01*
X4279076Y-6840472D02*
X4279076Y-6945234D01*
X4279076Y-6840472D02*
X4288600Y-6821424D01*
X4288600Y-6821424D02*
X4307648Y-6811900D01*
X4307648Y-6811900D02*
X4336219Y-6811900D01*
X4336219Y-6811900D02*
X4355267Y-6821424D01*
X4355267Y-6821424D02*
X4364791Y-6840472D01*
X4364791Y-6840472D02*
X4364791Y-6945234D01*
X4460029Y-6945234D02*
X4460029Y-6811900D01*
X4460029Y-6830948D02*
X4469552Y-6821424D01*
X4469552Y-6821424D02*
X4488600Y-6811900D01*
X4488600Y-6811900D02*
X4517172Y-6811900D01*
X4517172Y-6811900D02*
X4536219Y-6821424D01*
X4536219Y-6821424D02*
X4545743Y-6840472D01*
X4545743Y-6840472D02*
X4545743Y-6945234D01*
X4545743Y-6840472D02*
X4555267Y-6821424D01*
X4555267Y-6821424D02*
X4574314Y-6811900D01*
X4574314Y-6811900D02*
X4602886Y-6811900D01*
X4602886Y-6811900D02*
X4621933Y-6821424D01*
X4621933Y-6821424D02*
X4631457Y-6840472D01*
X4631457Y-6840472D02*
X4631457Y-6945234D01*
X5021933Y-6735710D02*
X4850505Y-6992853D01*
X5279076Y-6745234D02*
X5298124Y-6745234D01*
X5298124Y-6745234D02*
X5317172Y-6754758D01*
X5317172Y-6754758D02*
X5326695Y-6764281D01*
X5326695Y-6764281D02*
X5336219Y-6783329D01*
X5336219Y-6783329D02*
X5345743Y-6821424D01*
X5345743Y-6821424D02*
X5345743Y-6869043D01*
X5345743Y-6869043D02*
X5336219Y-6907138D01*
X5336219Y-6907138D02*
X5326695Y-6926186D01*
X5326695Y-6926186D02*
X5317172Y-6935710D01*
X5317172Y-6935710D02*
X5298124Y-6945234D01*
X5298124Y-6945234D02*
X5279076Y-6945234D01*
X5279076Y-6945234D02*
X5260029Y-6935710D01*
X5260029Y-6935710D02*
X5250505Y-6926186D01*
X5250505Y-6926186D02*
X5240981Y-6907138D01*
X5240981Y-6907138D02*
X5231457Y-6869043D01*
X5231457Y-6869043D02*
X5231457Y-6821424D01*
X5231457Y-6821424D02*
X5240981Y-6783329D01*
X5240981Y-6783329D02*
X5250505Y-6764281D01*
X5250505Y-6764281D02*
X5260029Y-6754758D01*
X5260029Y-6754758D02*
X5279076Y-6745234D01*
X5431457Y-6926186D02*
X5440981Y-6935710D01*
X5440981Y-6935710D02*
X5431457Y-6945234D01*
X5431457Y-6945234D02*
X5421934Y-6935710D01*
X5421934Y-6935710D02*
X5431457Y-6926186D01*
X5431457Y-6926186D02*
X5431457Y-6945234D01*
X5564791Y-6745234D02*
X5583838Y-6745234D01*
X5583838Y-6745234D02*
X5602886Y-6754758D01*
X5602886Y-6754758D02*
X5612410Y-6764281D01*
X5612410Y-6764281D02*
X5621933Y-6783329D01*
X5621933Y-6783329D02*
X5631457Y-6821424D01*
X5631457Y-6821424D02*
X5631457Y-6869043D01*
X5631457Y-6869043D02*
X5621933Y-6907138D01*
X5621933Y-6907138D02*
X5612410Y-6926186D01*
X5612410Y-6926186D02*
X5602886Y-6935710D01*
X5602886Y-6935710D02*
X5583838Y-6945234D01*
X5583838Y-6945234D02*
X5564791Y-6945234D01*
X5564791Y-6945234D02*
X5545743Y-6935710D01*
X5545743Y-6935710D02*
X5536219Y-6926186D01*
X5536219Y-6926186D02*
X5526695Y-6907138D01*
X5526695Y-6907138D02*
X5517172Y-6869043D01*
X5517172Y-6869043D02*
X5517172Y-6821424D01*
X5517172Y-6821424D02*
X5526695Y-6783329D01*
X5526695Y-6783329D02*
X5536219Y-6764281D01*
X5536219Y-6764281D02*
X5545743Y-6754758D01*
X5545743Y-6754758D02*
X5564791Y-6745234D01*
X5821933Y-6945234D02*
X5707648Y-6945234D01*
X5764791Y-6945234D02*
X5764791Y-6745234D01*
X5764791Y-6745234D02*
X5745743Y-6773805D01*
X5745743Y-6773805D02*
X5726695Y-6792853D01*
X5726695Y-6792853D02*
X5707648Y-6802377D01*
X6012410Y-6945234D02*
X5898124Y-6945234D01*
X5955267Y-6945234D02*
X5955267Y-6745234D01*
X5955267Y-6745234D02*
X5936219Y-6773805D01*
X5936219Y-6773805D02*
X5917172Y-6792853D01*
X5917172Y-6792853D02*
X5898124Y-6802377D01*
X6126695Y-6830948D02*
X6107648Y-6821424D01*
X6107648Y-6821424D02*
X6098124Y-6811900D01*
X6098124Y-6811900D02*
X6088600Y-6792853D01*
X6088600Y-6792853D02*
X6088600Y-6783329D01*
X6088600Y-6783329D02*
X6098124Y-6764281D01*
X6098124Y-6764281D02*
X6107648Y-6754758D01*
X6107648Y-6754758D02*
X6126695Y-6745234D01*
X6126695Y-6745234D02*
X6164791Y-6745234D01*
X6164791Y-6745234D02*
X6183838Y-6754758D01*
X6183838Y-6754758D02*
X6193362Y-6764281D01*
X6193362Y-6764281D02*
X6202886Y-6783329D01*
X6202886Y-6783329D02*
X6202886Y-6792853D01*
X6202886Y-6792853D02*
X6193362Y-6811900D01*
X6193362Y-6811900D02*
X6183838Y-6821424D01*
X6183838Y-6821424D02*
X6164791Y-6830948D01*
X6164791Y-6830948D02*
X6126695Y-6830948D01*
X6126695Y-6830948D02*
X6107648Y-6840472D01*
X6107648Y-6840472D02*
X6098124Y-6849996D01*
X6098124Y-6849996D02*
X6088600Y-6869043D01*
X6088600Y-6869043D02*
X6088600Y-6907138D01*
X6088600Y-6907138D02*
X6098124Y-6926186D01*
X6098124Y-6926186D02*
X6107648Y-6935710D01*
X6107648Y-6935710D02*
X6126695Y-6945234D01*
X6126695Y-6945234D02*
X6164791Y-6945234D01*
X6164791Y-6945234D02*
X6183838Y-6935710D01*
X6183838Y-6935710D02*
X6193362Y-6926186D01*
X6193362Y-6926186D02*
X6202886Y-6907138D01*
X6202886Y-6907138D02*
X6202886Y-6869043D01*
X6202886Y-6869043D02*
X6193362Y-6849996D01*
X6193362Y-6849996D02*
X6183838Y-6840472D01*
X6183838Y-6840472D02*
X6164791Y-6830948D01*
X6279076Y-6745234D02*
X6279076Y-6783329D01*
X6355267Y-6745234D02*
X6355267Y-6783329D01*
X6650505Y-7021424D02*
X6640981Y-7011900D01*
X6640981Y-7011900D02*
X6621934Y-6983329D01*
X6621934Y-6983329D02*
X6612410Y-6964281D01*
X6612410Y-6964281D02*
X6602886Y-6935710D01*
X6602886Y-6935710D02*
X6593362Y-6888091D01*
X6593362Y-6888091D02*
X6593362Y-6849996D01*
X6593362Y-6849996D02*
X6602886Y-6802377D01*
X6602886Y-6802377D02*
X6612410Y-6773805D01*
X6612410Y-6773805D02*
X6621934Y-6754758D01*
X6621934Y-6754758D02*
X6640981Y-6726186D01*
X6640981Y-6726186D02*
X6650505Y-6716662D01*
X6812410Y-6745234D02*
X6774314Y-6745234D01*
X6774314Y-6745234D02*
X6755267Y-6754758D01*
X6755267Y-6754758D02*
X6745743Y-6764281D01*
X6745743Y-6764281D02*
X6726695Y-6792853D01*
X6726695Y-6792853D02*
X6717172Y-6830948D01*
X6717172Y-6830948D02*
X6717172Y-6907138D01*
X6717172Y-6907138D02*
X6726695Y-6926186D01*
X6726695Y-6926186D02*
X6736219Y-6935710D01*
X6736219Y-6935710D02*
X6755267Y-6945234D01*
X6755267Y-6945234D02*
X6793362Y-6945234D01*
X6793362Y-6945234D02*
X6812410Y-6935710D01*
X6812410Y-6935710D02*
X6821934Y-6926186D01*
X6821934Y-6926186D02*
X6831457Y-6907138D01*
X6831457Y-6907138D02*
X6831457Y-6859519D01*
X6831457Y-6859519D02*
X6821934Y-6840472D01*
X6821934Y-6840472D02*
X6812410Y-6830948D01*
X6812410Y-6830948D02*
X6793362Y-6821424D01*
X6793362Y-6821424D02*
X6755267Y-6821424D01*
X6755267Y-6821424D02*
X6736219Y-6830948D01*
X6736219Y-6830948D02*
X6726695Y-6840472D01*
X6726695Y-6840472D02*
X6717172Y-6859519D01*
X7002886Y-6745234D02*
X6964791Y-6745234D01*
X6964791Y-6745234D02*
X6945743Y-6754758D01*
X6945743Y-6754758D02*
X6936219Y-6764281D01*
X6936219Y-6764281D02*
X6917172Y-6792853D01*
X6917172Y-6792853D02*
X6907648Y-6830948D01*
X6907648Y-6830948D02*
X6907648Y-6907138D01*
X6907648Y-6907138D02*
X6917172Y-6926186D01*
X6917172Y-6926186D02*
X6926695Y-6935710D01*
X6926695Y-6935710D02*
X6945743Y-6945234D01*
X6945743Y-6945234D02*
X6983838Y-6945234D01*
X6983838Y-6945234D02*
X7002886Y-6935710D01*
X7002886Y-6935710D02*
X7012410Y-6926186D01*
X7012410Y-6926186D02*
X7021934Y-6907138D01*
X7021934Y-6907138D02*
X7021934Y-6859519D01*
X7021934Y-6859519D02*
X7012410Y-6840472D01*
X7012410Y-6840472D02*
X7002886Y-6830948D01*
X7002886Y-6830948D02*
X6983838Y-6821424D01*
X6983838Y-6821424D02*
X6945743Y-6821424D01*
X6945743Y-6821424D02*
X6926695Y-6830948D01*
X6926695Y-6830948D02*
X6917172Y-6840472D01*
X6917172Y-6840472D02*
X6907648Y-6859519D01*
X7260029Y-6945234D02*
X7260029Y-6745234D01*
X7345743Y-6945234D02*
X7345743Y-6840472D01*
X7345743Y-6840472D02*
X7336219Y-6821424D01*
X7336219Y-6821424D02*
X7317172Y-6811900D01*
X7317172Y-6811900D02*
X7288600Y-6811900D01*
X7288600Y-6811900D02*
X7269553Y-6821424D01*
X7269553Y-6821424D02*
X7260029Y-6830948D01*
X7469553Y-6945234D02*
X7450505Y-6935710D01*
X7450505Y-6935710D02*
X7440981Y-6926186D01*
X7440981Y-6926186D02*
X7431457Y-6907138D01*
X7431457Y-6907138D02*
X7431457Y-6849996D01*
X7431457Y-6849996D02*
X7440981Y-6830948D01*
X7440981Y-6830948D02*
X7450505Y-6821424D01*
X7450505Y-6821424D02*
X7469553Y-6811900D01*
X7469553Y-6811900D02*
X7498124Y-6811900D01*
X7498124Y-6811900D02*
X7517172Y-6821424D01*
X7517172Y-6821424D02*
X7526696Y-6830948D01*
X7526696Y-6830948D02*
X7536219Y-6849996D01*
X7536219Y-6849996D02*
X7536219Y-6907138D01*
X7536219Y-6907138D02*
X7526696Y-6926186D01*
X7526696Y-6926186D02*
X7517172Y-6935710D01*
X7517172Y-6935710D02*
X7498124Y-6945234D01*
X7498124Y-6945234D02*
X7469553Y-6945234D01*
X7650505Y-6945234D02*
X7631457Y-6935710D01*
X7631457Y-6935710D02*
X7621934Y-6916662D01*
X7621934Y-6916662D02*
X7621934Y-6745234D01*
X7802886Y-6935710D02*
X7783838Y-6945234D01*
X7783838Y-6945234D02*
X7745743Y-6945234D01*
X7745743Y-6945234D02*
X7726696Y-6935710D01*
X7726696Y-6935710D02*
X7717172Y-6916662D01*
X7717172Y-6916662D02*
X7717172Y-6840472D01*
X7717172Y-6840472D02*
X7726696Y-6821424D01*
X7726696Y-6821424D02*
X7745743Y-6811900D01*
X7745743Y-6811900D02*
X7783838Y-6811900D01*
X7783838Y-6811900D02*
X7802886Y-6821424D01*
X7802886Y-6821424D02*
X7812410Y-6840472D01*
X7812410Y-6840472D02*
X7812410Y-6859519D01*
X7812410Y-6859519D02*
X7717172Y-6878567D01*
X7888600Y-6935710D02*
X7907648Y-6945234D01*
X7907648Y-6945234D02*
X7945743Y-6945234D01*
X7945743Y-6945234D02*
X7964791Y-6935710D01*
X7964791Y-6935710D02*
X7974315Y-6916662D01*
X7974315Y-6916662D02*
X7974315Y-6907138D01*
X7974315Y-6907138D02*
X7964791Y-6888091D01*
X7964791Y-6888091D02*
X7945743Y-6878567D01*
X7945743Y-6878567D02*
X7917172Y-6878567D01*
X7917172Y-6878567D02*
X7898124Y-6869043D01*
X7898124Y-6869043D02*
X7888600Y-6849996D01*
X7888600Y-6849996D02*
X7888600Y-6840472D01*
X7888600Y-6840472D02*
X7898124Y-6821424D01*
X7898124Y-6821424D02*
X7917172Y-6811900D01*
X7917172Y-6811900D02*
X7945743Y-6811900D01*
X7945743Y-6811900D02*
X7964791Y-6821424D01*
X8040981Y-7021424D02*
X8050505Y-7011900D01*
X8050505Y-7011900D02*
X8069553Y-6983329D01*
X8069553Y-6983329D02*
X8079077Y-6964281D01*
X8079077Y-6964281D02*
X8088600Y-6935710D01*
X8088600Y-6935710D02*
X8098124Y-6888091D01*
X8098124Y-6888091D02*
X8098124Y-6849996D01*
X8098124Y-6849996D02*
X8088600Y-6802377D01*
X8088600Y-6802377D02*
X8079077Y-6773805D01*
X8079077Y-6773805D02*
X8069553Y-6754758D01*
X8069553Y-6754758D02*
X8050505Y-6726186D01*
X8050505Y-6726186D02*
X8040981Y-6716662D01*
D13*
X3088600Y-7116710D02*
G75*
G03*
X3088600Y-7116710I-25400J0D01*
G01*
D11*
X3374314Y-7009234D02*
X3393362Y-7009234D01*
X3393362Y-7009234D02*
X3412409Y-7018758D01*
X3412409Y-7018758D02*
X3421933Y-7028281D01*
X3421933Y-7028281D02*
X3431457Y-7047329D01*
X3431457Y-7047329D02*
X3440981Y-7085424D01*
X3440981Y-7085424D02*
X3440981Y-7133043D01*
X3440981Y-7133043D02*
X3431457Y-7171138D01*
X3431457Y-7171138D02*
X3421933Y-7190186D01*
X3421933Y-7190186D02*
X3412409Y-7199710D01*
X3412409Y-7199710D02*
X3393362Y-7209234D01*
X3393362Y-7209234D02*
X3374314Y-7209234D01*
X3374314Y-7209234D02*
X3355267Y-7199710D01*
X3355267Y-7199710D02*
X3345743Y-7190186D01*
X3345743Y-7190186D02*
X3336219Y-7171138D01*
X3336219Y-7171138D02*
X3326695Y-7133043D01*
X3326695Y-7133043D02*
X3326695Y-7085424D01*
X3326695Y-7085424D02*
X3336219Y-7047329D01*
X3336219Y-7047329D02*
X3345743Y-7028281D01*
X3345743Y-7028281D02*
X3355267Y-7018758D01*
X3355267Y-7018758D02*
X3374314Y-7009234D01*
X3526695Y-7190186D02*
X3536219Y-7199710D01*
X3536219Y-7199710D02*
X3526695Y-7209234D01*
X3526695Y-7209234D02*
X3517171Y-7199710D01*
X3517171Y-7199710D02*
X3526695Y-7190186D01*
X3526695Y-7190186D02*
X3526695Y-7209234D01*
X3717171Y-7009234D02*
X3621933Y-7009234D01*
X3621933Y-7009234D02*
X3612409Y-7104472D01*
X3612409Y-7104472D02*
X3621933Y-7094948D01*
X3621933Y-7094948D02*
X3640981Y-7085424D01*
X3640981Y-7085424D02*
X3688600Y-7085424D01*
X3688600Y-7085424D02*
X3707648Y-7094948D01*
X3707648Y-7094948D02*
X3717171Y-7104472D01*
X3717171Y-7104472D02*
X3726695Y-7123519D01*
X3726695Y-7123519D02*
X3726695Y-7171138D01*
X3726695Y-7171138D02*
X3717171Y-7190186D01*
X3717171Y-7190186D02*
X3707648Y-7199710D01*
X3707648Y-7199710D02*
X3688600Y-7209234D01*
X3688600Y-7209234D02*
X3640981Y-7209234D01*
X3640981Y-7209234D02*
X3621933Y-7199710D01*
X3621933Y-7199710D02*
X3612409Y-7190186D01*
X3850505Y-7009234D02*
X3869552Y-7009234D01*
X3869552Y-7009234D02*
X3888600Y-7018758D01*
X3888600Y-7018758D02*
X3898124Y-7028281D01*
X3898124Y-7028281D02*
X3907648Y-7047329D01*
X3907648Y-7047329D02*
X3917171Y-7085424D01*
X3917171Y-7085424D02*
X3917171Y-7133043D01*
X3917171Y-7133043D02*
X3907648Y-7171138D01*
X3907648Y-7171138D02*
X3898124Y-7190186D01*
X3898124Y-7190186D02*
X3888600Y-7199710D01*
X3888600Y-7199710D02*
X3869552Y-7209234D01*
X3869552Y-7209234D02*
X3850505Y-7209234D01*
X3850505Y-7209234D02*
X3831457Y-7199710D01*
X3831457Y-7199710D02*
X3821933Y-7190186D01*
X3821933Y-7190186D02*
X3812409Y-7171138D01*
X3812409Y-7171138D02*
X3802886Y-7133043D01*
X3802886Y-7133043D02*
X3802886Y-7085424D01*
X3802886Y-7085424D02*
X3812409Y-7047329D01*
X3812409Y-7047329D02*
X3821933Y-7028281D01*
X3821933Y-7028281D02*
X3831457Y-7018758D01*
X3831457Y-7018758D02*
X3850505Y-7009234D01*
X4031457Y-7094948D02*
X4012409Y-7085424D01*
X4012409Y-7085424D02*
X4002886Y-7075900D01*
X4002886Y-7075900D02*
X3993362Y-7056853D01*
X3993362Y-7056853D02*
X3993362Y-7047329D01*
X3993362Y-7047329D02*
X4002886Y-7028281D01*
X4002886Y-7028281D02*
X4012409Y-7018758D01*
X4012409Y-7018758D02*
X4031457Y-7009234D01*
X4031457Y-7009234D02*
X4069552Y-7009234D01*
X4069552Y-7009234D02*
X4088600Y-7018758D01*
X4088600Y-7018758D02*
X4098124Y-7028281D01*
X4098124Y-7028281D02*
X4107648Y-7047329D01*
X4107648Y-7047329D02*
X4107648Y-7056853D01*
X4107648Y-7056853D02*
X4098124Y-7075900D01*
X4098124Y-7075900D02*
X4088600Y-7085424D01*
X4088600Y-7085424D02*
X4069552Y-7094948D01*
X4069552Y-7094948D02*
X4031457Y-7094948D01*
X4031457Y-7094948D02*
X4012409Y-7104472D01*
X4012409Y-7104472D02*
X4002886Y-7113996D01*
X4002886Y-7113996D02*
X3993362Y-7133043D01*
X3993362Y-7133043D02*
X3993362Y-7171138D01*
X3993362Y-7171138D02*
X4002886Y-7190186D01*
X4002886Y-7190186D02*
X4012409Y-7199710D01*
X4012409Y-7199710D02*
X4031457Y-7209234D01*
X4031457Y-7209234D02*
X4069552Y-7209234D01*
X4069552Y-7209234D02*
X4088600Y-7199710D01*
X4088600Y-7199710D02*
X4098124Y-7190186D01*
X4098124Y-7190186D02*
X4107648Y-7171138D01*
X4107648Y-7171138D02*
X4107648Y-7133043D01*
X4107648Y-7133043D02*
X4098124Y-7113996D01*
X4098124Y-7113996D02*
X4088600Y-7104472D01*
X4088600Y-7104472D02*
X4069552Y-7094948D01*
X4193362Y-7209234D02*
X4193362Y-7075900D01*
X4193362Y-7094948D02*
X4202886Y-7085424D01*
X4202886Y-7085424D02*
X4221933Y-7075900D01*
X4221933Y-7075900D02*
X4250505Y-7075900D01*
X4250505Y-7075900D02*
X4269552Y-7085424D01*
X4269552Y-7085424D02*
X4279076Y-7104472D01*
X4279076Y-7104472D02*
X4279076Y-7209234D01*
X4279076Y-7104472D02*
X4288600Y-7085424D01*
X4288600Y-7085424D02*
X4307648Y-7075900D01*
X4307648Y-7075900D02*
X4336219Y-7075900D01*
X4336219Y-7075900D02*
X4355267Y-7085424D01*
X4355267Y-7085424D02*
X4364791Y-7104472D01*
X4364791Y-7104472D02*
X4364791Y-7209234D01*
X4460029Y-7209234D02*
X4460029Y-7075900D01*
X4460029Y-7094948D02*
X4469552Y-7085424D01*
X4469552Y-7085424D02*
X4488600Y-7075900D01*
X4488600Y-7075900D02*
X4517172Y-7075900D01*
X4517172Y-7075900D02*
X4536219Y-7085424D01*
X4536219Y-7085424D02*
X4545743Y-7104472D01*
X4545743Y-7104472D02*
X4545743Y-7209234D01*
X4545743Y-7104472D02*
X4555267Y-7085424D01*
X4555267Y-7085424D02*
X4574314Y-7075900D01*
X4574314Y-7075900D02*
X4602886Y-7075900D01*
X4602886Y-7075900D02*
X4621933Y-7085424D01*
X4621933Y-7085424D02*
X4631457Y-7104472D01*
X4631457Y-7104472D02*
X4631457Y-7209234D01*
X5021933Y-6999710D02*
X4850505Y-7256853D01*
X5279076Y-7009234D02*
X5298124Y-7009234D01*
X5298124Y-7009234D02*
X5317172Y-7018758D01*
X5317172Y-7018758D02*
X5326695Y-7028281D01*
X5326695Y-7028281D02*
X5336219Y-7047329D01*
X5336219Y-7047329D02*
X5345743Y-7085424D01*
X5345743Y-7085424D02*
X5345743Y-7133043D01*
X5345743Y-7133043D02*
X5336219Y-7171138D01*
X5336219Y-7171138D02*
X5326695Y-7190186D01*
X5326695Y-7190186D02*
X5317172Y-7199710D01*
X5317172Y-7199710D02*
X5298124Y-7209234D01*
X5298124Y-7209234D02*
X5279076Y-7209234D01*
X5279076Y-7209234D02*
X5260029Y-7199710D01*
X5260029Y-7199710D02*
X5250505Y-7190186D01*
X5250505Y-7190186D02*
X5240981Y-7171138D01*
X5240981Y-7171138D02*
X5231457Y-7133043D01*
X5231457Y-7133043D02*
X5231457Y-7085424D01*
X5231457Y-7085424D02*
X5240981Y-7047329D01*
X5240981Y-7047329D02*
X5250505Y-7028281D01*
X5250505Y-7028281D02*
X5260029Y-7018758D01*
X5260029Y-7018758D02*
X5279076Y-7009234D01*
X5431457Y-7190186D02*
X5440981Y-7199710D01*
X5440981Y-7199710D02*
X5431457Y-7209234D01*
X5431457Y-7209234D02*
X5421934Y-7199710D01*
X5421934Y-7199710D02*
X5431457Y-7190186D01*
X5431457Y-7190186D02*
X5431457Y-7209234D01*
X5564791Y-7009234D02*
X5583838Y-7009234D01*
X5583838Y-7009234D02*
X5602886Y-7018758D01*
X5602886Y-7018758D02*
X5612410Y-7028281D01*
X5612410Y-7028281D02*
X5621933Y-7047329D01*
X5621933Y-7047329D02*
X5631457Y-7085424D01*
X5631457Y-7085424D02*
X5631457Y-7133043D01*
X5631457Y-7133043D02*
X5621933Y-7171138D01*
X5621933Y-7171138D02*
X5612410Y-7190186D01*
X5612410Y-7190186D02*
X5602886Y-7199710D01*
X5602886Y-7199710D02*
X5583838Y-7209234D01*
X5583838Y-7209234D02*
X5564791Y-7209234D01*
X5564791Y-7209234D02*
X5545743Y-7199710D01*
X5545743Y-7199710D02*
X5536219Y-7190186D01*
X5536219Y-7190186D02*
X5526695Y-7171138D01*
X5526695Y-7171138D02*
X5517172Y-7133043D01*
X5517172Y-7133043D02*
X5517172Y-7085424D01*
X5517172Y-7085424D02*
X5526695Y-7047329D01*
X5526695Y-7047329D02*
X5536219Y-7028281D01*
X5536219Y-7028281D02*
X5545743Y-7018758D01*
X5545743Y-7018758D02*
X5564791Y-7009234D01*
X5707648Y-7028281D02*
X5717172Y-7018758D01*
X5717172Y-7018758D02*
X5736219Y-7009234D01*
X5736219Y-7009234D02*
X5783838Y-7009234D01*
X5783838Y-7009234D02*
X5802886Y-7018758D01*
X5802886Y-7018758D02*
X5812410Y-7028281D01*
X5812410Y-7028281D02*
X5821933Y-7047329D01*
X5821933Y-7047329D02*
X5821933Y-7066377D01*
X5821933Y-7066377D02*
X5812410Y-7094948D01*
X5812410Y-7094948D02*
X5698124Y-7209234D01*
X5698124Y-7209234D02*
X5821933Y-7209234D01*
X5945743Y-7009234D02*
X5964791Y-7009234D01*
X5964791Y-7009234D02*
X5983838Y-7018758D01*
X5983838Y-7018758D02*
X5993362Y-7028281D01*
X5993362Y-7028281D02*
X6002886Y-7047329D01*
X6002886Y-7047329D02*
X6012410Y-7085424D01*
X6012410Y-7085424D02*
X6012410Y-7133043D01*
X6012410Y-7133043D02*
X6002886Y-7171138D01*
X6002886Y-7171138D02*
X5993362Y-7190186D01*
X5993362Y-7190186D02*
X5983838Y-7199710D01*
X5983838Y-7199710D02*
X5964791Y-7209234D01*
X5964791Y-7209234D02*
X5945743Y-7209234D01*
X5945743Y-7209234D02*
X5926695Y-7199710D01*
X5926695Y-7199710D02*
X5917172Y-7190186D01*
X5917172Y-7190186D02*
X5907648Y-7171138D01*
X5907648Y-7171138D02*
X5898124Y-7133043D01*
X5898124Y-7133043D02*
X5898124Y-7085424D01*
X5898124Y-7085424D02*
X5907648Y-7047329D01*
X5907648Y-7047329D02*
X5917172Y-7028281D01*
X5917172Y-7028281D02*
X5926695Y-7018758D01*
X5926695Y-7018758D02*
X5945743Y-7009234D01*
X6136219Y-7009234D02*
X6155267Y-7009234D01*
X6155267Y-7009234D02*
X6174314Y-7018758D01*
X6174314Y-7018758D02*
X6183838Y-7028281D01*
X6183838Y-7028281D02*
X6193362Y-7047329D01*
X6193362Y-7047329D02*
X6202886Y-7085424D01*
X6202886Y-7085424D02*
X6202886Y-7133043D01*
X6202886Y-7133043D02*
X6193362Y-7171138D01*
X6193362Y-7171138D02*
X6183838Y-7190186D01*
X6183838Y-7190186D02*
X6174314Y-7199710D01*
X6174314Y-7199710D02*
X6155267Y-7209234D01*
X6155267Y-7209234D02*
X6136219Y-7209234D01*
X6136219Y-7209234D02*
X6117172Y-7199710D01*
X6117172Y-7199710D02*
X6107648Y-7190186D01*
X6107648Y-7190186D02*
X6098124Y-7171138D01*
X6098124Y-7171138D02*
X6088600Y-7133043D01*
X6088600Y-7133043D02*
X6088600Y-7085424D01*
X6088600Y-7085424D02*
X6098124Y-7047329D01*
X6098124Y-7047329D02*
X6107648Y-7028281D01*
X6107648Y-7028281D02*
X6117172Y-7018758D01*
X6117172Y-7018758D02*
X6136219Y-7009234D01*
X6279076Y-7009234D02*
X6279076Y-7047329D01*
X6355267Y-7009234D02*
X6355267Y-7047329D01*
X6650505Y-7285424D02*
X6640981Y-7275900D01*
X6640981Y-7275900D02*
X6621934Y-7247329D01*
X6621934Y-7247329D02*
X6612410Y-7228281D01*
X6612410Y-7228281D02*
X6602886Y-7199710D01*
X6602886Y-7199710D02*
X6593362Y-7152091D01*
X6593362Y-7152091D02*
X6593362Y-7113996D01*
X6593362Y-7113996D02*
X6602886Y-7066377D01*
X6602886Y-7066377D02*
X6612410Y-7037805D01*
X6612410Y-7037805D02*
X6621934Y-7018758D01*
X6621934Y-7018758D02*
X6640981Y-6990186D01*
X6640981Y-6990186D02*
X6650505Y-6980662D01*
X6707648Y-7009234D02*
X6831457Y-7009234D01*
X6831457Y-7009234D02*
X6764791Y-7085424D01*
X6764791Y-7085424D02*
X6793362Y-7085424D01*
X6793362Y-7085424D02*
X6812410Y-7094948D01*
X6812410Y-7094948D02*
X6821934Y-7104472D01*
X6821934Y-7104472D02*
X6831457Y-7123519D01*
X6831457Y-7123519D02*
X6831457Y-7171138D01*
X6831457Y-7171138D02*
X6821934Y-7190186D01*
X6821934Y-7190186D02*
X6812410Y-7199710D01*
X6812410Y-7199710D02*
X6793362Y-7209234D01*
X6793362Y-7209234D02*
X6736219Y-7209234D01*
X6736219Y-7209234D02*
X6717172Y-7199710D01*
X6717172Y-7199710D02*
X6707648Y-7190186D01*
X7069553Y-7209234D02*
X7069553Y-7009234D01*
X7155267Y-7209234D02*
X7155267Y-7104472D01*
X7155267Y-7104472D02*
X7145743Y-7085424D01*
X7145743Y-7085424D02*
X7126696Y-7075900D01*
X7126696Y-7075900D02*
X7098124Y-7075900D01*
X7098124Y-7075900D02*
X7079076Y-7085424D01*
X7079076Y-7085424D02*
X7069553Y-7094948D01*
X7279076Y-7209234D02*
X7260029Y-7199710D01*
X7260029Y-7199710D02*
X7250505Y-7190186D01*
X7250505Y-7190186D02*
X7240981Y-7171138D01*
X7240981Y-7171138D02*
X7240981Y-7113996D01*
X7240981Y-7113996D02*
X7250505Y-7094948D01*
X7250505Y-7094948D02*
X7260029Y-7085424D01*
X7260029Y-7085424D02*
X7279076Y-7075900D01*
X7279076Y-7075900D02*
X7307648Y-7075900D01*
X7307648Y-7075900D02*
X7326696Y-7085424D01*
X7326696Y-7085424D02*
X7336219Y-7094948D01*
X7336219Y-7094948D02*
X7345743Y-7113996D01*
X7345743Y-7113996D02*
X7345743Y-7171138D01*
X7345743Y-7171138D02*
X7336219Y-7190186D01*
X7336219Y-7190186D02*
X7326696Y-7199710D01*
X7326696Y-7199710D02*
X7307648Y-7209234D01*
X7307648Y-7209234D02*
X7279076Y-7209234D01*
X7460029Y-7209234D02*
X7440981Y-7199710D01*
X7440981Y-7199710D02*
X7431457Y-7180662D01*
X7431457Y-7180662D02*
X7431457Y-7009234D01*
X7612410Y-7199710D02*
X7593362Y-7209234D01*
X7593362Y-7209234D02*
X7555267Y-7209234D01*
X7555267Y-7209234D02*
X7536219Y-7199710D01*
X7536219Y-7199710D02*
X7526696Y-7180662D01*
X7526696Y-7180662D02*
X7526696Y-7104472D01*
X7526696Y-7104472D02*
X7536219Y-7085424D01*
X7536219Y-7085424D02*
X7555267Y-7075900D01*
X7555267Y-7075900D02*
X7593362Y-7075900D01*
X7593362Y-7075900D02*
X7612410Y-7085424D01*
X7612410Y-7085424D02*
X7621934Y-7104472D01*
X7621934Y-7104472D02*
X7621934Y-7123519D01*
X7621934Y-7123519D02*
X7526696Y-7142567D01*
X7698124Y-7199710D02*
X7717172Y-7209234D01*
X7717172Y-7209234D02*
X7755267Y-7209234D01*
X7755267Y-7209234D02*
X7774315Y-7199710D01*
X7774315Y-7199710D02*
X7783838Y-7180662D01*
X7783838Y-7180662D02*
X7783838Y-7171138D01*
X7783838Y-7171138D02*
X7774315Y-7152091D01*
X7774315Y-7152091D02*
X7755267Y-7142567D01*
X7755267Y-7142567D02*
X7726696Y-7142567D01*
X7726696Y-7142567D02*
X7707648Y-7133043D01*
X7707648Y-7133043D02*
X7698124Y-7113996D01*
X7698124Y-7113996D02*
X7698124Y-7104472D01*
X7698124Y-7104472D02*
X7707648Y-7085424D01*
X7707648Y-7085424D02*
X7726696Y-7075900D01*
X7726696Y-7075900D02*
X7755267Y-7075900D01*
X7755267Y-7075900D02*
X7774315Y-7085424D01*
X7850505Y-7285424D02*
X7860029Y-7275900D01*
X7860029Y-7275900D02*
X7879077Y-7247329D01*
X7879077Y-7247329D02*
X7888600Y-7228281D01*
X7888600Y-7228281D02*
X7898124Y-7199710D01*
X7898124Y-7199710D02*
X7907648Y-7152091D01*
X7907648Y-7152091D02*
X7907648Y-7113996D01*
X7907648Y-7113996D02*
X7898124Y-7066377D01*
X7898124Y-7066377D02*
X7888600Y-7037805D01*
X7888600Y-7037805D02*
X7879077Y-7018758D01*
X7879077Y-7018758D02*
X7860029Y-6990186D01*
X7860029Y-6990186D02*
X7850505Y-6980662D01*
D14*
X3058600Y-7350710D02*
X3058600Y-7410710D01*
X3028600Y-7380710D02*
X3088600Y-7380710D01*
D11*
X3374314Y-7273234D02*
X3393362Y-7273234D01*
X3393362Y-7273234D02*
X3412409Y-7282758D01*
X3412409Y-7282758D02*
X3421933Y-7292281D01*
X3421933Y-7292281D02*
X3431457Y-7311329D01*
X3431457Y-7311329D02*
X3440981Y-7349424D01*
X3440981Y-7349424D02*
X3440981Y-7397043D01*
X3440981Y-7397043D02*
X3431457Y-7435138D01*
X3431457Y-7435138D02*
X3421933Y-7454186D01*
X3421933Y-7454186D02*
X3412409Y-7463710D01*
X3412409Y-7463710D02*
X3393362Y-7473234D01*
X3393362Y-7473234D02*
X3374314Y-7473234D01*
X3374314Y-7473234D02*
X3355267Y-7463710D01*
X3355267Y-7463710D02*
X3345743Y-7454186D01*
X3345743Y-7454186D02*
X3336219Y-7435138D01*
X3336219Y-7435138D02*
X3326695Y-7397043D01*
X3326695Y-7397043D02*
X3326695Y-7349424D01*
X3326695Y-7349424D02*
X3336219Y-7311329D01*
X3336219Y-7311329D02*
X3345743Y-7292281D01*
X3345743Y-7292281D02*
X3355267Y-7282758D01*
X3355267Y-7282758D02*
X3374314Y-7273234D01*
X3526695Y-7454186D02*
X3536219Y-7463710D01*
X3536219Y-7463710D02*
X3526695Y-7473234D01*
X3526695Y-7473234D02*
X3517171Y-7463710D01*
X3517171Y-7463710D02*
X3526695Y-7454186D01*
X3526695Y-7454186D02*
X3526695Y-7473234D01*
X3707648Y-7273234D02*
X3669552Y-7273234D01*
X3669552Y-7273234D02*
X3650505Y-7282758D01*
X3650505Y-7282758D02*
X3640981Y-7292281D01*
X3640981Y-7292281D02*
X3621933Y-7320853D01*
X3621933Y-7320853D02*
X3612409Y-7358948D01*
X3612409Y-7358948D02*
X3612409Y-7435138D01*
X3612409Y-7435138D02*
X3621933Y-7454186D01*
X3621933Y-7454186D02*
X3631457Y-7463710D01*
X3631457Y-7463710D02*
X3650505Y-7473234D01*
X3650505Y-7473234D02*
X3688600Y-7473234D01*
X3688600Y-7473234D02*
X3707648Y-7463710D01*
X3707648Y-7463710D02*
X3717171Y-7454186D01*
X3717171Y-7454186D02*
X3726695Y-7435138D01*
X3726695Y-7435138D02*
X3726695Y-7387519D01*
X3726695Y-7387519D02*
X3717171Y-7368472D01*
X3717171Y-7368472D02*
X3707648Y-7358948D01*
X3707648Y-7358948D02*
X3688600Y-7349424D01*
X3688600Y-7349424D02*
X3650505Y-7349424D01*
X3650505Y-7349424D02*
X3631457Y-7358948D01*
X3631457Y-7358948D02*
X3621933Y-7368472D01*
X3621933Y-7368472D02*
X3612409Y-7387519D01*
X3850505Y-7273234D02*
X3869552Y-7273234D01*
X3869552Y-7273234D02*
X3888600Y-7282758D01*
X3888600Y-7282758D02*
X3898124Y-7292281D01*
X3898124Y-7292281D02*
X3907648Y-7311329D01*
X3907648Y-7311329D02*
X3917171Y-7349424D01*
X3917171Y-7349424D02*
X3917171Y-7397043D01*
X3917171Y-7397043D02*
X3907648Y-7435138D01*
X3907648Y-7435138D02*
X3898124Y-7454186D01*
X3898124Y-7454186D02*
X3888600Y-7463710D01*
X3888600Y-7463710D02*
X3869552Y-7473234D01*
X3869552Y-7473234D02*
X3850505Y-7473234D01*
X3850505Y-7473234D02*
X3831457Y-7463710D01*
X3831457Y-7463710D02*
X3821933Y-7454186D01*
X3821933Y-7454186D02*
X3812409Y-7435138D01*
X3812409Y-7435138D02*
X3802886Y-7397043D01*
X3802886Y-7397043D02*
X3802886Y-7349424D01*
X3802886Y-7349424D02*
X3812409Y-7311329D01*
X3812409Y-7311329D02*
X3821933Y-7292281D01*
X3821933Y-7292281D02*
X3831457Y-7282758D01*
X3831457Y-7282758D02*
X3850505Y-7273234D01*
X4040981Y-7273234D02*
X4060029Y-7273234D01*
X4060029Y-7273234D02*
X4079076Y-7282758D01*
X4079076Y-7282758D02*
X4088600Y-7292281D01*
X4088600Y-7292281D02*
X4098124Y-7311329D01*
X4098124Y-7311329D02*
X4107648Y-7349424D01*
X4107648Y-7349424D02*
X4107648Y-7397043D01*
X4107648Y-7397043D02*
X4098124Y-7435138D01*
X4098124Y-7435138D02*
X4088600Y-7454186D01*
X4088600Y-7454186D02*
X4079076Y-7463710D01*
X4079076Y-7463710D02*
X4060029Y-7473234D01*
X4060029Y-7473234D02*
X4040981Y-7473234D01*
X4040981Y-7473234D02*
X4021933Y-7463710D01*
X4021933Y-7463710D02*
X4012409Y-7454186D01*
X4012409Y-7454186D02*
X4002886Y-7435138D01*
X4002886Y-7435138D02*
X3993362Y-7397043D01*
X3993362Y-7397043D02*
X3993362Y-7349424D01*
X3993362Y-7349424D02*
X4002886Y-7311329D01*
X4002886Y-7311329D02*
X4012409Y-7292281D01*
X4012409Y-7292281D02*
X4021933Y-7282758D01*
X4021933Y-7282758D02*
X4040981Y-7273234D01*
X4193362Y-7473234D02*
X4193362Y-7339900D01*
X4193362Y-7358948D02*
X4202886Y-7349424D01*
X4202886Y-7349424D02*
X4221933Y-7339900D01*
X4221933Y-7339900D02*
X4250505Y-7339900D01*
X4250505Y-7339900D02*
X4269552Y-7349424D01*
X4269552Y-7349424D02*
X4279076Y-7368472D01*
X4279076Y-7368472D02*
X4279076Y-7473234D01*
X4279076Y-7368472D02*
X4288600Y-7349424D01*
X4288600Y-7349424D02*
X4307648Y-7339900D01*
X4307648Y-7339900D02*
X4336219Y-7339900D01*
X4336219Y-7339900D02*
X4355267Y-7349424D01*
X4355267Y-7349424D02*
X4364791Y-7368472D01*
X4364791Y-7368472D02*
X4364791Y-7473234D01*
X4460029Y-7473234D02*
X4460029Y-7339900D01*
X4460029Y-7358948D02*
X4469552Y-7349424D01*
X4469552Y-7349424D02*
X4488600Y-7339900D01*
X4488600Y-7339900D02*
X4517172Y-7339900D01*
X4517172Y-7339900D02*
X4536219Y-7349424D01*
X4536219Y-7349424D02*
X4545743Y-7368472D01*
X4545743Y-7368472D02*
X4545743Y-7473234D01*
X4545743Y-7368472D02*
X4555267Y-7349424D01*
X4555267Y-7349424D02*
X4574314Y-7339900D01*
X4574314Y-7339900D02*
X4602886Y-7339900D01*
X4602886Y-7339900D02*
X4621933Y-7349424D01*
X4621933Y-7349424D02*
X4631457Y-7368472D01*
X4631457Y-7368472D02*
X4631457Y-7473234D01*
X5021933Y-7263710D02*
X4850505Y-7520853D01*
X5279076Y-7273234D02*
X5298124Y-7273234D01*
X5298124Y-7273234D02*
X5317172Y-7282758D01*
X5317172Y-7282758D02*
X5326695Y-7292281D01*
X5326695Y-7292281D02*
X5336219Y-7311329D01*
X5336219Y-7311329D02*
X5345743Y-7349424D01*
X5345743Y-7349424D02*
X5345743Y-7397043D01*
X5345743Y-7397043D02*
X5336219Y-7435138D01*
X5336219Y-7435138D02*
X5326695Y-7454186D01*
X5326695Y-7454186D02*
X5317172Y-7463710D01*
X5317172Y-7463710D02*
X5298124Y-7473234D01*
X5298124Y-7473234D02*
X5279076Y-7473234D01*
X5279076Y-7473234D02*
X5260029Y-7463710D01*
X5260029Y-7463710D02*
X5250505Y-7454186D01*
X5250505Y-7454186D02*
X5240981Y-7435138D01*
X5240981Y-7435138D02*
X5231457Y-7397043D01*
X5231457Y-7397043D02*
X5231457Y-7349424D01*
X5231457Y-7349424D02*
X5240981Y-7311329D01*
X5240981Y-7311329D02*
X5250505Y-7292281D01*
X5250505Y-7292281D02*
X5260029Y-7282758D01*
X5260029Y-7282758D02*
X5279076Y-7273234D01*
X5431457Y-7454186D02*
X5440981Y-7463710D01*
X5440981Y-7463710D02*
X5431457Y-7473234D01*
X5431457Y-7473234D02*
X5421934Y-7463710D01*
X5421934Y-7463710D02*
X5431457Y-7454186D01*
X5431457Y-7454186D02*
X5431457Y-7473234D01*
X5564791Y-7273234D02*
X5583838Y-7273234D01*
X5583838Y-7273234D02*
X5602886Y-7282758D01*
X5602886Y-7282758D02*
X5612410Y-7292281D01*
X5612410Y-7292281D02*
X5621933Y-7311329D01*
X5621933Y-7311329D02*
X5631457Y-7349424D01*
X5631457Y-7349424D02*
X5631457Y-7397043D01*
X5631457Y-7397043D02*
X5621933Y-7435138D01*
X5621933Y-7435138D02*
X5612410Y-7454186D01*
X5612410Y-7454186D02*
X5602886Y-7463710D01*
X5602886Y-7463710D02*
X5583838Y-7473234D01*
X5583838Y-7473234D02*
X5564791Y-7473234D01*
X5564791Y-7473234D02*
X5545743Y-7463710D01*
X5545743Y-7463710D02*
X5536219Y-7454186D01*
X5536219Y-7454186D02*
X5526695Y-7435138D01*
X5526695Y-7435138D02*
X5517172Y-7397043D01*
X5517172Y-7397043D02*
X5517172Y-7349424D01*
X5517172Y-7349424D02*
X5526695Y-7311329D01*
X5526695Y-7311329D02*
X5536219Y-7292281D01*
X5536219Y-7292281D02*
X5545743Y-7282758D01*
X5545743Y-7282758D02*
X5564791Y-7273234D01*
X5707648Y-7292281D02*
X5717172Y-7282758D01*
X5717172Y-7282758D02*
X5736219Y-7273234D01*
X5736219Y-7273234D02*
X5783838Y-7273234D01*
X5783838Y-7273234D02*
X5802886Y-7282758D01*
X5802886Y-7282758D02*
X5812410Y-7292281D01*
X5812410Y-7292281D02*
X5821933Y-7311329D01*
X5821933Y-7311329D02*
X5821933Y-7330377D01*
X5821933Y-7330377D02*
X5812410Y-7358948D01*
X5812410Y-7358948D02*
X5698124Y-7473234D01*
X5698124Y-7473234D02*
X5821933Y-7473234D01*
X5888600Y-7273234D02*
X6012410Y-7273234D01*
X6012410Y-7273234D02*
X5945743Y-7349424D01*
X5945743Y-7349424D02*
X5974314Y-7349424D01*
X5974314Y-7349424D02*
X5993362Y-7358948D01*
X5993362Y-7358948D02*
X6002886Y-7368472D01*
X6002886Y-7368472D02*
X6012410Y-7387519D01*
X6012410Y-7387519D02*
X6012410Y-7435138D01*
X6012410Y-7435138D02*
X6002886Y-7454186D01*
X6002886Y-7454186D02*
X5993362Y-7463710D01*
X5993362Y-7463710D02*
X5974314Y-7473234D01*
X5974314Y-7473234D02*
X5917172Y-7473234D01*
X5917172Y-7473234D02*
X5898124Y-7463710D01*
X5898124Y-7463710D02*
X5888600Y-7454186D01*
X6183838Y-7273234D02*
X6145743Y-7273234D01*
X6145743Y-7273234D02*
X6126695Y-7282758D01*
X6126695Y-7282758D02*
X6117172Y-7292281D01*
X6117172Y-7292281D02*
X6098124Y-7320853D01*
X6098124Y-7320853D02*
X6088600Y-7358948D01*
X6088600Y-7358948D02*
X6088600Y-7435138D01*
X6088600Y-7435138D02*
X6098124Y-7454186D01*
X6098124Y-7454186D02*
X6107648Y-7463710D01*
X6107648Y-7463710D02*
X6126695Y-7473234D01*
X6126695Y-7473234D02*
X6164791Y-7473234D01*
X6164791Y-7473234D02*
X6183838Y-7463710D01*
X6183838Y-7463710D02*
X6193362Y-7454186D01*
X6193362Y-7454186D02*
X6202886Y-7435138D01*
X6202886Y-7435138D02*
X6202886Y-7387519D01*
X6202886Y-7387519D02*
X6193362Y-7368472D01*
X6193362Y-7368472D02*
X6183838Y-7358948D01*
X6183838Y-7358948D02*
X6164791Y-7349424D01*
X6164791Y-7349424D02*
X6126695Y-7349424D01*
X6126695Y-7349424D02*
X6107648Y-7358948D01*
X6107648Y-7358948D02*
X6098124Y-7368472D01*
X6098124Y-7368472D02*
X6088600Y-7387519D01*
X6279076Y-7273234D02*
X6279076Y-7311329D01*
X6355267Y-7273234D02*
X6355267Y-7311329D01*
X6650505Y-7549424D02*
X6640981Y-7539900D01*
X6640981Y-7539900D02*
X6621934Y-7511329D01*
X6621934Y-7511329D02*
X6612410Y-7492281D01*
X6612410Y-7492281D02*
X6602886Y-7463710D01*
X6602886Y-7463710D02*
X6593362Y-7416091D01*
X6593362Y-7416091D02*
X6593362Y-7377996D01*
X6593362Y-7377996D02*
X6602886Y-7330377D01*
X6602886Y-7330377D02*
X6612410Y-7301805D01*
X6612410Y-7301805D02*
X6621934Y-7282758D01*
X6621934Y-7282758D02*
X6640981Y-7254186D01*
X6640981Y-7254186D02*
X6650505Y-7244662D01*
X6764791Y-7273234D02*
X6783838Y-7273234D01*
X6783838Y-7273234D02*
X6802886Y-7282758D01*
X6802886Y-7282758D02*
X6812410Y-7292281D01*
X6812410Y-7292281D02*
X6821934Y-7311329D01*
X6821934Y-7311329D02*
X6831457Y-7349424D01*
X6831457Y-7349424D02*
X6831457Y-7397043D01*
X6831457Y-7397043D02*
X6821934Y-7435138D01*
X6821934Y-7435138D02*
X6812410Y-7454186D01*
X6812410Y-7454186D02*
X6802886Y-7463710D01*
X6802886Y-7463710D02*
X6783838Y-7473234D01*
X6783838Y-7473234D02*
X6764791Y-7473234D01*
X6764791Y-7473234D02*
X6745743Y-7463710D01*
X6745743Y-7463710D02*
X6736219Y-7454186D01*
X6736219Y-7454186D02*
X6726695Y-7435138D01*
X6726695Y-7435138D02*
X6717172Y-7397043D01*
X6717172Y-7397043D02*
X6717172Y-7349424D01*
X6717172Y-7349424D02*
X6726695Y-7311329D01*
X6726695Y-7311329D02*
X6736219Y-7292281D01*
X6736219Y-7292281D02*
X6745743Y-7282758D01*
X6745743Y-7282758D02*
X6764791Y-7273234D01*
X7069553Y-7473234D02*
X7069553Y-7273234D01*
X7155267Y-7473234D02*
X7155267Y-7368472D01*
X7155267Y-7368472D02*
X7145743Y-7349424D01*
X7145743Y-7349424D02*
X7126696Y-7339900D01*
X7126696Y-7339900D02*
X7098124Y-7339900D01*
X7098124Y-7339900D02*
X7079076Y-7349424D01*
X7079076Y-7349424D02*
X7069553Y-7358948D01*
X7279076Y-7473234D02*
X7260029Y-7463710D01*
X7260029Y-7463710D02*
X7250505Y-7454186D01*
X7250505Y-7454186D02*
X7240981Y-7435138D01*
X7240981Y-7435138D02*
X7240981Y-7377996D01*
X7240981Y-7377996D02*
X7250505Y-7358948D01*
X7250505Y-7358948D02*
X7260029Y-7349424D01*
X7260029Y-7349424D02*
X7279076Y-7339900D01*
X7279076Y-7339900D02*
X7307648Y-7339900D01*
X7307648Y-7339900D02*
X7326696Y-7349424D01*
X7326696Y-7349424D02*
X7336219Y-7358948D01*
X7336219Y-7358948D02*
X7345743Y-7377996D01*
X7345743Y-7377996D02*
X7345743Y-7435138D01*
X7345743Y-7435138D02*
X7336219Y-7454186D01*
X7336219Y-7454186D02*
X7326696Y-7463710D01*
X7326696Y-7463710D02*
X7307648Y-7473234D01*
X7307648Y-7473234D02*
X7279076Y-7473234D01*
X7460029Y-7473234D02*
X7440981Y-7463710D01*
X7440981Y-7463710D02*
X7431457Y-7444662D01*
X7431457Y-7444662D02*
X7431457Y-7273234D01*
X7612410Y-7463710D02*
X7593362Y-7473234D01*
X7593362Y-7473234D02*
X7555267Y-7473234D01*
X7555267Y-7473234D02*
X7536219Y-7463710D01*
X7536219Y-7463710D02*
X7526696Y-7444662D01*
X7526696Y-7444662D02*
X7526696Y-7368472D01*
X7526696Y-7368472D02*
X7536219Y-7349424D01*
X7536219Y-7349424D02*
X7555267Y-7339900D01*
X7555267Y-7339900D02*
X7593362Y-7339900D01*
X7593362Y-7339900D02*
X7612410Y-7349424D01*
X7612410Y-7349424D02*
X7621934Y-7368472D01*
X7621934Y-7368472D02*
X7621934Y-7387519D01*
X7621934Y-7387519D02*
X7526696Y-7406567D01*
X7698124Y-7463710D02*
X7717172Y-7473234D01*
X7717172Y-7473234D02*
X7755267Y-7473234D01*
X7755267Y-7473234D02*
X7774315Y-7463710D01*
X7774315Y-7463710D02*
X7783838Y-7444662D01*
X7783838Y-7444662D02*
X7783838Y-7435138D01*
X7783838Y-7435138D02*
X7774315Y-7416091D01*
X7774315Y-7416091D02*
X7755267Y-7406567D01*
X7755267Y-7406567D02*
X7726696Y-7406567D01*
X7726696Y-7406567D02*
X7707648Y-7397043D01*
X7707648Y-7397043D02*
X7698124Y-7377996D01*
X7698124Y-7377996D02*
X7698124Y-7368472D01*
X7698124Y-7368472D02*
X7707648Y-7349424D01*
X7707648Y-7349424D02*
X7726696Y-7339900D01*
X7726696Y-7339900D02*
X7755267Y-7339900D01*
X7755267Y-7339900D02*
X7774315Y-7349424D01*
X8021934Y-7397043D02*
X8174315Y-7397043D01*
X8098124Y-7473234D02*
X8098124Y-7320853D01*
X8507648Y-7339900D02*
X8507648Y-7473234D01*
X8460029Y-7263710D02*
X8412410Y-7406567D01*
X8412410Y-7406567D02*
X8536220Y-7406567D01*
X8755267Y-7463710D02*
X8774315Y-7473234D01*
X8774315Y-7473234D02*
X8812410Y-7473234D01*
X8812410Y-7473234D02*
X8831458Y-7463710D01*
X8831458Y-7463710D02*
X8840982Y-7444662D01*
X8840982Y-7444662D02*
X8840982Y-7435138D01*
X8840982Y-7435138D02*
X8831458Y-7416091D01*
X8831458Y-7416091D02*
X8812410Y-7406567D01*
X8812410Y-7406567D02*
X8783839Y-7406567D01*
X8783839Y-7406567D02*
X8764791Y-7397043D01*
X8764791Y-7397043D02*
X8755267Y-7377996D01*
X8755267Y-7377996D02*
X8755267Y-7368472D01*
X8755267Y-7368472D02*
X8764791Y-7349424D01*
X8764791Y-7349424D02*
X8783839Y-7339900D01*
X8783839Y-7339900D02*
X8812410Y-7339900D01*
X8812410Y-7339900D02*
X8831458Y-7349424D01*
X8955267Y-7473234D02*
X8936220Y-7463710D01*
X8936220Y-7463710D02*
X8926696Y-7444662D01*
X8926696Y-7444662D02*
X8926696Y-7273234D01*
X9060029Y-7473234D02*
X9040982Y-7463710D01*
X9040982Y-7463710D02*
X9031458Y-7454186D01*
X9031458Y-7454186D02*
X9021934Y-7435138D01*
X9021934Y-7435138D02*
X9021934Y-7377996D01*
X9021934Y-7377996D02*
X9031458Y-7358948D01*
X9031458Y-7358948D02*
X9040982Y-7349424D01*
X9040982Y-7349424D02*
X9060029Y-7339900D01*
X9060029Y-7339900D02*
X9088601Y-7339900D01*
X9088601Y-7339900D02*
X9107648Y-7349424D01*
X9107648Y-7349424D02*
X9117172Y-7358948D01*
X9117172Y-7358948D02*
X9126696Y-7377996D01*
X9126696Y-7377996D02*
X9126696Y-7435138D01*
X9126696Y-7435138D02*
X9117172Y-7454186D01*
X9117172Y-7454186D02*
X9107648Y-7463710D01*
X9107648Y-7463710D02*
X9088601Y-7473234D01*
X9088601Y-7473234D02*
X9060029Y-7473234D01*
X9183839Y-7339900D02*
X9260029Y-7339900D01*
X9212410Y-7273234D02*
X9212410Y-7444662D01*
X9212410Y-7444662D02*
X9221934Y-7463710D01*
X9221934Y-7463710D02*
X9240982Y-7473234D01*
X9240982Y-7473234D02*
X9260029Y-7473234D01*
X9317172Y-7463710D02*
X9336220Y-7473234D01*
X9336220Y-7473234D02*
X9374315Y-7473234D01*
X9374315Y-7473234D02*
X9393363Y-7463710D01*
X9393363Y-7463710D02*
X9402886Y-7444662D01*
X9402886Y-7444662D02*
X9402886Y-7435138D01*
X9402886Y-7435138D02*
X9393363Y-7416091D01*
X9393363Y-7416091D02*
X9374315Y-7406567D01*
X9374315Y-7406567D02*
X9345743Y-7406567D01*
X9345743Y-7406567D02*
X9326696Y-7397043D01*
X9326696Y-7397043D02*
X9317172Y-7377996D01*
X9317172Y-7377996D02*
X9317172Y-7368472D01*
X9317172Y-7368472D02*
X9326696Y-7349424D01*
X9326696Y-7349424D02*
X9345743Y-7339900D01*
X9345743Y-7339900D02*
X9374315Y-7339900D01*
X9374315Y-7339900D02*
X9393363Y-7349424D01*
X9469553Y-7549424D02*
X9479077Y-7539900D01*
X9479077Y-7539900D02*
X9498124Y-7511329D01*
X9498124Y-7511329D02*
X9507648Y-7492281D01*
X9507648Y-7492281D02*
X9517172Y-7463710D01*
X9517172Y-7463710D02*
X9526696Y-7416091D01*
X9526696Y-7416091D02*
X9526696Y-7377996D01*
X9526696Y-7377996D02*
X9517172Y-7330377D01*
X9517172Y-7330377D02*
X9507648Y-7301805D01*
X9507648Y-7301805D02*
X9498124Y-7282758D01*
X9498124Y-7282758D02*
X9479077Y-7254186D01*
X9479077Y-7254186D02*
X9469553Y-7244662D01*
D15*
X3073956Y-7680066D02*
X3073956Y-7609354D01*
X3003244Y-7609354D01*
X3003244Y-7680066D01*
X3073956Y-7680066D01*
D11*
X3440981Y-7737234D02*
X3326695Y-7737234D01*
X3383838Y-7737234D02*
X3383838Y-7537234D01*
X3383838Y-7537234D02*
X3364790Y-7565805D01*
X3364790Y-7565805D02*
X3345743Y-7584853D01*
X3345743Y-7584853D02*
X3326695Y-7594377D01*
X3526695Y-7718186D02*
X3536219Y-7727710D01*
X3536219Y-7727710D02*
X3526695Y-7737234D01*
X3526695Y-7737234D02*
X3517171Y-7727710D01*
X3517171Y-7727710D02*
X3526695Y-7718186D01*
X3526695Y-7718186D02*
X3526695Y-7737234D01*
X3660028Y-7537234D02*
X3679076Y-7537234D01*
X3679076Y-7537234D02*
X3698124Y-7546758D01*
X3698124Y-7546758D02*
X3707648Y-7556281D01*
X3707648Y-7556281D02*
X3717171Y-7575329D01*
X3717171Y-7575329D02*
X3726695Y-7613424D01*
X3726695Y-7613424D02*
X3726695Y-7661043D01*
X3726695Y-7661043D02*
X3717171Y-7699138D01*
X3717171Y-7699138D02*
X3707648Y-7718186D01*
X3707648Y-7718186D02*
X3698124Y-7727710D01*
X3698124Y-7727710D02*
X3679076Y-7737234D01*
X3679076Y-7737234D02*
X3660028Y-7737234D01*
X3660028Y-7737234D02*
X3640981Y-7727710D01*
X3640981Y-7727710D02*
X3631457Y-7718186D01*
X3631457Y-7718186D02*
X3621933Y-7699138D01*
X3621933Y-7699138D02*
X3612409Y-7661043D01*
X3612409Y-7661043D02*
X3612409Y-7613424D01*
X3612409Y-7613424D02*
X3621933Y-7575329D01*
X3621933Y-7575329D02*
X3631457Y-7556281D01*
X3631457Y-7556281D02*
X3640981Y-7546758D01*
X3640981Y-7546758D02*
X3660028Y-7537234D01*
X3850505Y-7537234D02*
X3869552Y-7537234D01*
X3869552Y-7537234D02*
X3888600Y-7546758D01*
X3888600Y-7546758D02*
X3898124Y-7556281D01*
X3898124Y-7556281D02*
X3907648Y-7575329D01*
X3907648Y-7575329D02*
X3917171Y-7613424D01*
X3917171Y-7613424D02*
X3917171Y-7661043D01*
X3917171Y-7661043D02*
X3907648Y-7699138D01*
X3907648Y-7699138D02*
X3898124Y-7718186D01*
X3898124Y-7718186D02*
X3888600Y-7727710D01*
X3888600Y-7727710D02*
X3869552Y-7737234D01*
X3869552Y-7737234D02*
X3850505Y-7737234D01*
X3850505Y-7737234D02*
X3831457Y-7727710D01*
X3831457Y-7727710D02*
X3821933Y-7718186D01*
X3821933Y-7718186D02*
X3812409Y-7699138D01*
X3812409Y-7699138D02*
X3802886Y-7661043D01*
X3802886Y-7661043D02*
X3802886Y-7613424D01*
X3802886Y-7613424D02*
X3812409Y-7575329D01*
X3812409Y-7575329D02*
X3821933Y-7556281D01*
X3821933Y-7556281D02*
X3831457Y-7546758D01*
X3831457Y-7546758D02*
X3850505Y-7537234D01*
X4040981Y-7537234D02*
X4060029Y-7537234D01*
X4060029Y-7537234D02*
X4079076Y-7546758D01*
X4079076Y-7546758D02*
X4088600Y-7556281D01*
X4088600Y-7556281D02*
X4098124Y-7575329D01*
X4098124Y-7575329D02*
X4107648Y-7613424D01*
X4107648Y-7613424D02*
X4107648Y-7661043D01*
X4107648Y-7661043D02*
X4098124Y-7699138D01*
X4098124Y-7699138D02*
X4088600Y-7718186D01*
X4088600Y-7718186D02*
X4079076Y-7727710D01*
X4079076Y-7727710D02*
X4060029Y-7737234D01*
X4060029Y-7737234D02*
X4040981Y-7737234D01*
X4040981Y-7737234D02*
X4021933Y-7727710D01*
X4021933Y-7727710D02*
X4012409Y-7718186D01*
X4012409Y-7718186D02*
X4002886Y-7699138D01*
X4002886Y-7699138D02*
X3993362Y-7661043D01*
X3993362Y-7661043D02*
X3993362Y-7613424D01*
X3993362Y-7613424D02*
X4002886Y-7575329D01*
X4002886Y-7575329D02*
X4012409Y-7556281D01*
X4012409Y-7556281D02*
X4021933Y-7546758D01*
X4021933Y-7546758D02*
X4040981Y-7537234D01*
X4193362Y-7737234D02*
X4193362Y-7603900D01*
X4193362Y-7622948D02*
X4202886Y-7613424D01*
X4202886Y-7613424D02*
X4221933Y-7603900D01*
X4221933Y-7603900D02*
X4250505Y-7603900D01*
X4250505Y-7603900D02*
X4269552Y-7613424D01*
X4269552Y-7613424D02*
X4279076Y-7632472D01*
X4279076Y-7632472D02*
X4279076Y-7737234D01*
X4279076Y-7632472D02*
X4288600Y-7613424D01*
X4288600Y-7613424D02*
X4307648Y-7603900D01*
X4307648Y-7603900D02*
X4336219Y-7603900D01*
X4336219Y-7603900D02*
X4355267Y-7613424D01*
X4355267Y-7613424D02*
X4364791Y-7632472D01*
X4364791Y-7632472D02*
X4364791Y-7737234D01*
X4460029Y-7737234D02*
X4460029Y-7603900D01*
X4460029Y-7622948D02*
X4469552Y-7613424D01*
X4469552Y-7613424D02*
X4488600Y-7603900D01*
X4488600Y-7603900D02*
X4517172Y-7603900D01*
X4517172Y-7603900D02*
X4536219Y-7613424D01*
X4536219Y-7613424D02*
X4545743Y-7632472D01*
X4545743Y-7632472D02*
X4545743Y-7737234D01*
X4545743Y-7632472D02*
X4555267Y-7613424D01*
X4555267Y-7613424D02*
X4574314Y-7603900D01*
X4574314Y-7603900D02*
X4602886Y-7603900D01*
X4602886Y-7603900D02*
X4621933Y-7613424D01*
X4621933Y-7613424D02*
X4631457Y-7632472D01*
X4631457Y-7632472D02*
X4631457Y-7737234D01*
X5021933Y-7527710D02*
X4850505Y-7784853D01*
X5279076Y-7537234D02*
X5298124Y-7537234D01*
X5298124Y-7537234D02*
X5317172Y-7546758D01*
X5317172Y-7546758D02*
X5326695Y-7556281D01*
X5326695Y-7556281D02*
X5336219Y-7575329D01*
X5336219Y-7575329D02*
X5345743Y-7613424D01*
X5345743Y-7613424D02*
X5345743Y-7661043D01*
X5345743Y-7661043D02*
X5336219Y-7699138D01*
X5336219Y-7699138D02*
X5326695Y-7718186D01*
X5326695Y-7718186D02*
X5317172Y-7727710D01*
X5317172Y-7727710D02*
X5298124Y-7737234D01*
X5298124Y-7737234D02*
X5279076Y-7737234D01*
X5279076Y-7737234D02*
X5260029Y-7727710D01*
X5260029Y-7727710D02*
X5250505Y-7718186D01*
X5250505Y-7718186D02*
X5240981Y-7699138D01*
X5240981Y-7699138D02*
X5231457Y-7661043D01*
X5231457Y-7661043D02*
X5231457Y-7613424D01*
X5231457Y-7613424D02*
X5240981Y-7575329D01*
X5240981Y-7575329D02*
X5250505Y-7556281D01*
X5250505Y-7556281D02*
X5260029Y-7546758D01*
X5260029Y-7546758D02*
X5279076Y-7537234D01*
X5431457Y-7718186D02*
X5440981Y-7727710D01*
X5440981Y-7727710D02*
X5431457Y-7737234D01*
X5431457Y-7737234D02*
X5421934Y-7727710D01*
X5421934Y-7727710D02*
X5431457Y-7718186D01*
X5431457Y-7718186D02*
X5431457Y-7737234D01*
X5564791Y-7537234D02*
X5583838Y-7537234D01*
X5583838Y-7537234D02*
X5602886Y-7546758D01*
X5602886Y-7546758D02*
X5612410Y-7556281D01*
X5612410Y-7556281D02*
X5621933Y-7575329D01*
X5621933Y-7575329D02*
X5631457Y-7613424D01*
X5631457Y-7613424D02*
X5631457Y-7661043D01*
X5631457Y-7661043D02*
X5621933Y-7699138D01*
X5621933Y-7699138D02*
X5612410Y-7718186D01*
X5612410Y-7718186D02*
X5602886Y-7727710D01*
X5602886Y-7727710D02*
X5583838Y-7737234D01*
X5583838Y-7737234D02*
X5564791Y-7737234D01*
X5564791Y-7737234D02*
X5545743Y-7727710D01*
X5545743Y-7727710D02*
X5536219Y-7718186D01*
X5536219Y-7718186D02*
X5526695Y-7699138D01*
X5526695Y-7699138D02*
X5517172Y-7661043D01*
X5517172Y-7661043D02*
X5517172Y-7613424D01*
X5517172Y-7613424D02*
X5526695Y-7575329D01*
X5526695Y-7575329D02*
X5536219Y-7556281D01*
X5536219Y-7556281D02*
X5545743Y-7546758D01*
X5545743Y-7546758D02*
X5564791Y-7537234D01*
X5698124Y-7537234D02*
X5821933Y-7537234D01*
X5821933Y-7537234D02*
X5755267Y-7613424D01*
X5755267Y-7613424D02*
X5783838Y-7613424D01*
X5783838Y-7613424D02*
X5802886Y-7622948D01*
X5802886Y-7622948D02*
X5812410Y-7632472D01*
X5812410Y-7632472D02*
X5821933Y-7651519D01*
X5821933Y-7651519D02*
X5821933Y-7699138D01*
X5821933Y-7699138D02*
X5812410Y-7718186D01*
X5812410Y-7718186D02*
X5802886Y-7727710D01*
X5802886Y-7727710D02*
X5783838Y-7737234D01*
X5783838Y-7737234D02*
X5726695Y-7737234D01*
X5726695Y-7737234D02*
X5707648Y-7727710D01*
X5707648Y-7727710D02*
X5698124Y-7718186D01*
X5917172Y-7737234D02*
X5955267Y-7737234D01*
X5955267Y-7737234D02*
X5974314Y-7727710D01*
X5974314Y-7727710D02*
X5983838Y-7718186D01*
X5983838Y-7718186D02*
X6002886Y-7689615D01*
X6002886Y-7689615D02*
X6012410Y-7651519D01*
X6012410Y-7651519D02*
X6012410Y-7575329D01*
X6012410Y-7575329D02*
X6002886Y-7556281D01*
X6002886Y-7556281D02*
X5993362Y-7546758D01*
X5993362Y-7546758D02*
X5974314Y-7537234D01*
X5974314Y-7537234D02*
X5936219Y-7537234D01*
X5936219Y-7537234D02*
X5917172Y-7546758D01*
X5917172Y-7546758D02*
X5907648Y-7556281D01*
X5907648Y-7556281D02*
X5898124Y-7575329D01*
X5898124Y-7575329D02*
X5898124Y-7622948D01*
X5898124Y-7622948D02*
X5907648Y-7641996D01*
X5907648Y-7641996D02*
X5917172Y-7651519D01*
X5917172Y-7651519D02*
X5936219Y-7661043D01*
X5936219Y-7661043D02*
X5974314Y-7661043D01*
X5974314Y-7661043D02*
X5993362Y-7651519D01*
X5993362Y-7651519D02*
X6002886Y-7641996D01*
X6002886Y-7641996D02*
X6012410Y-7622948D01*
X6183838Y-7603900D02*
X6183838Y-7737234D01*
X6136219Y-7527710D02*
X6088600Y-7670567D01*
X6088600Y-7670567D02*
X6212410Y-7670567D01*
X6279076Y-7537234D02*
X6279076Y-7575329D01*
X6355267Y-7537234D02*
X6355267Y-7575329D01*
X6650505Y-7813424D02*
X6640981Y-7803900D01*
X6640981Y-7803900D02*
X6621934Y-7775329D01*
X6621934Y-7775329D02*
X6612410Y-7756281D01*
X6612410Y-7756281D02*
X6602886Y-7727710D01*
X6602886Y-7727710D02*
X6593362Y-7680091D01*
X6593362Y-7680091D02*
X6593362Y-7641996D01*
X6593362Y-7641996D02*
X6602886Y-7594377D01*
X6602886Y-7594377D02*
X6612410Y-7565805D01*
X6612410Y-7565805D02*
X6621934Y-7546758D01*
X6621934Y-7546758D02*
X6640981Y-7518186D01*
X6640981Y-7518186D02*
X6650505Y-7508662D01*
X6812410Y-7603900D02*
X6812410Y-7737234D01*
X6764791Y-7527710D02*
X6717172Y-7670567D01*
X6717172Y-7670567D02*
X6840981Y-7670567D01*
X7069553Y-7737234D02*
X7069553Y-7537234D01*
X7155267Y-7737234D02*
X7155267Y-7632472D01*
X7155267Y-7632472D02*
X7145743Y-7613424D01*
X7145743Y-7613424D02*
X7126696Y-7603900D01*
X7126696Y-7603900D02*
X7098124Y-7603900D01*
X7098124Y-7603900D02*
X7079076Y-7613424D01*
X7079076Y-7613424D02*
X7069553Y-7622948D01*
X7279076Y-7737234D02*
X7260029Y-7727710D01*
X7260029Y-7727710D02*
X7250505Y-7718186D01*
X7250505Y-7718186D02*
X7240981Y-7699138D01*
X7240981Y-7699138D02*
X7240981Y-7641996D01*
X7240981Y-7641996D02*
X7250505Y-7622948D01*
X7250505Y-7622948D02*
X7260029Y-7613424D01*
X7260029Y-7613424D02*
X7279076Y-7603900D01*
X7279076Y-7603900D02*
X7307648Y-7603900D01*
X7307648Y-7603900D02*
X7326696Y-7613424D01*
X7326696Y-7613424D02*
X7336219Y-7622948D01*
X7336219Y-7622948D02*
X7345743Y-7641996D01*
X7345743Y-7641996D02*
X7345743Y-7699138D01*
X7345743Y-7699138D02*
X7336219Y-7718186D01*
X7336219Y-7718186D02*
X7326696Y-7727710D01*
X7326696Y-7727710D02*
X7307648Y-7737234D01*
X7307648Y-7737234D02*
X7279076Y-7737234D01*
X7460029Y-7737234D02*
X7440981Y-7727710D01*
X7440981Y-7727710D02*
X7431457Y-7708662D01*
X7431457Y-7708662D02*
X7431457Y-7537234D01*
X7612410Y-7727710D02*
X7593362Y-7737234D01*
X7593362Y-7737234D02*
X7555267Y-7737234D01*
X7555267Y-7737234D02*
X7536219Y-7727710D01*
X7536219Y-7727710D02*
X7526696Y-7708662D01*
X7526696Y-7708662D02*
X7526696Y-7632472D01*
X7526696Y-7632472D02*
X7536219Y-7613424D01*
X7536219Y-7613424D02*
X7555267Y-7603900D01*
X7555267Y-7603900D02*
X7593362Y-7603900D01*
X7593362Y-7603900D02*
X7612410Y-7613424D01*
X7612410Y-7613424D02*
X7621934Y-7632472D01*
X7621934Y-7632472D02*
X7621934Y-7651519D01*
X7621934Y-7651519D02*
X7526696Y-7670567D01*
X7698124Y-7727710D02*
X7717172Y-7737234D01*
X7717172Y-7737234D02*
X7755267Y-7737234D01*
X7755267Y-7737234D02*
X7774315Y-7727710D01*
X7774315Y-7727710D02*
X7783838Y-7708662D01*
X7783838Y-7708662D02*
X7783838Y-7699138D01*
X7783838Y-7699138D02*
X7774315Y-7680091D01*
X7774315Y-7680091D02*
X7755267Y-7670567D01*
X7755267Y-7670567D02*
X7726696Y-7670567D01*
X7726696Y-7670567D02*
X7707648Y-7661043D01*
X7707648Y-7661043D02*
X7698124Y-7641996D01*
X7698124Y-7641996D02*
X7698124Y-7632472D01*
X7698124Y-7632472D02*
X7707648Y-7613424D01*
X7707648Y-7613424D02*
X7726696Y-7603900D01*
X7726696Y-7603900D02*
X7755267Y-7603900D01*
X7755267Y-7603900D02*
X7774315Y-7613424D01*
X7850505Y-7813424D02*
X7860029Y-7803900D01*
X7860029Y-7803900D02*
X7879077Y-7775329D01*
X7879077Y-7775329D02*
X7888600Y-7756281D01*
X7888600Y-7756281D02*
X7898124Y-7727710D01*
X7898124Y-7727710D02*
X7907648Y-7680091D01*
X7907648Y-7680091D02*
X7907648Y-7641996D01*
X7907648Y-7641996D02*
X7898124Y-7594377D01*
X7898124Y-7594377D02*
X7888600Y-7565805D01*
X7888600Y-7565805D02*
X7879077Y-7546758D01*
X7879077Y-7546758D02*
X7860029Y-7518186D01*
X7860029Y-7518186D02*
X7850505Y-7508662D01*
M02*
