M48
; DRILL file {KiCad 7.0.1} date Wed Aug 21 14:39:31 2024
; FORMAT={-:-/ absolute / metric / decimal}
; #@! TF.CreationDate,2024-08-21T14:39:31+02:00
; #@! TF.GenerationSoftware,Kicad,Pcbnew,7.0.1
; #@! TF.FileFunction,Plated,1,2,PTH
FMAT,2
METRIC
; #@! TA.AperFunction,Plated,PTH,ViaDrill
T1C0.300
; #@! TA.AperFunction,Plated,PTH,ComponentDrill
T2C0.508
; #@! TA.AperFunction,Plated,PTH,ComponentDrill
T3C0.600
; #@! TA.AperFunction,Plated,PTH,ComponentDrill
T4C1.000
%
G90
G05
T1
X31.763Y-47.5
X31.913Y-44.5
X32.0Y-53.4
X32.039Y-50.9
X32.163Y-52.25
X33.1Y-56.4
X33.5Y-36.5
X33.9Y-57.3
X35.313Y-41.5
X35.4Y-52.577
X35.413Y-47.5
X36.263Y-43.45
X36.8Y-24.6
X37.189Y-52.577
X37.2Y-51.424
X37.5Y-25.2
X37.663Y-53.73
X38.35Y-49.0
X38.5Y-53.73
X38.6Y-22.8
X38.858Y-25.042
X38.963Y-47.25
X38.963Y-48.4
X39.463Y-43.45
X40.85Y-51.75
X41.1Y-29.5
X41.113Y-28.25
X41.163Y-32.8
X41.963Y-43.7
X42.263Y-36.9
X43.2Y-24.4
X43.613Y-28.4
X43.65Y-51.75
X43.663Y-32.25
X43.663Y-36.6
X44.163Y-54.2
X44.606Y-27.443
X44.663Y-32.2
X44.713Y-30.2
X44.713Y-31.45
X44.963Y-44.9
X45.313Y-48.1
X46.05Y-39.85
X46.05Y-40.6
X46.05Y-41.85
X46.563Y-44.9
X46.563Y-54.25
X46.963Y-58.3
X47.213Y-48.25
X47.963Y-44.1
X48.313Y-37.7
X48.324Y-33.852
X48.326Y-32.95
X48.463Y-36.35
X48.5Y-29.4
X48.505Y-35.492
X48.539Y-34.571
X49.113Y-44.45
X50.513Y-33.3
X50.713Y-48.3
X50.8Y-23.073
X50.913Y-32.65
X51.213Y-35.6
X51.531Y-29.869
X52.05Y-22.5
X52.363Y-39.35
T2
X32.513Y-40.25
X32.513Y-41.5
X32.513Y-42.75
T4
X33.0Y-27.5
X33.0Y-30.04
X33.0Y-32.58
X33.0Y-35.12
T3
G00X33.793Y-54.51
M15
G01X33.793Y-55.51
M16
G05
G00X33.793Y-59.62
M15
G01X33.793Y-61.12
M16
G05
G00X42.433Y-54.51
M15
G01X42.433Y-55.51
M16
G05
G00X42.433Y-59.62
M15
G01X42.433Y-61.12
M16
G05
T0
M30
