%TF.GenerationSoftware,KiCad,Pcbnew,7.0.1*%
%TF.CreationDate,2024-08-21T14:39:36+02:00*%
%TF.ProjectId,renforce-eda,72656e66-6f72-4636-952d-6564612e6b69,1.0*%
%TF.SameCoordinates,Original*%
%TF.FileFunction,Drillmap*%
%TF.FilePolarity,Positive*%
%FSLAX45Y45*%
G04 Gerber Fmt 4.5, Leading zero omitted, Abs format (unit mm)*
G04 Created by KiCad (PCBNEW 7.0.1) date 2024-08-21 14:39:36*
%MOMM*%
%LPD*%
G01*
G04 APERTURE LIST*
%ADD10C,0.254000*%
%ADD11C,0.200000*%
%ADD12C,0.099100*%
G04 APERTURE END LIST*
D10*
X5498700Y-2200800D02*
X3302600Y-2200000D01*
X3101300Y-2400000D02*
X3103100Y-5998703D01*
X5500000Y-6200003D02*
X5251000Y-6200003D01*
X3103101Y-5998703D02*
G75*
G03*
X3303100Y-6200003I199999J-1297D01*
G01*
X3302600Y-2200004D02*
G75*
G03*
X3101300Y-2400000I-1300J-199996D01*
G01*
X5500000Y-6200006D02*
G75*
G03*
X5701300Y-6000003I1290J200006D01*
G01*
X4666400Y-5985903D02*
X4666400Y-6200003D01*
X5250800Y-5985903D02*
X4666400Y-5985903D01*
X5698700Y-2402100D02*
X5701300Y-6000003D01*
X5698696Y-2402100D02*
G75*
G03*
X5498700Y-2200800I-200006J1290D01*
G01*
X5250800Y-5985903D02*
X5250800Y-6200003D01*
X4666400Y-6200003D02*
X3303100Y-6200003D01*
D11*
D12*
X3951450Y-2282350D02*
X4050550Y-2381450D01*
X4050550Y-2282350D02*
X3951450Y-2381450D01*
X3951450Y-2485550D02*
X4050550Y-2584650D01*
X4050550Y-2485550D02*
X3951450Y-2584650D01*
X4459450Y-2383950D02*
X4558550Y-2483050D01*
X4558550Y-2383950D02*
X4459450Y-2483050D01*
X4771450Y-2287350D02*
X4870550Y-2386450D01*
X4870550Y-2287350D02*
X4771450Y-2386450D01*
X4771450Y-2490550D02*
X4870550Y-2589650D01*
X4870550Y-2490550D02*
X4771450Y-2589650D01*
X5279450Y-2388950D02*
X5378550Y-2488050D01*
X5378550Y-2388950D02*
X5279450Y-2488050D01*
D11*
X3401290Y-2400000D02*
G75*
G03*
X3401290Y-2400000I-100000J0D01*
G01*
X5600000Y-6000003D02*
G75*
G03*
X5600000Y-6000003I-100000J0D01*
G01*
X3336219Y-6525234D02*
X3336219Y-6325234D01*
X3336219Y-6325234D02*
X3383838Y-6325234D01*
X3383838Y-6325234D02*
X3412409Y-6334758D01*
X3412409Y-6334758D02*
X3431457Y-6353805D01*
X3431457Y-6353805D02*
X3440981Y-6372853D01*
X3440981Y-6372853D02*
X3450505Y-6410948D01*
X3450505Y-6410948D02*
X3450505Y-6439519D01*
X3450505Y-6439519D02*
X3440981Y-6477615D01*
X3440981Y-6477615D02*
X3431457Y-6496662D01*
X3431457Y-6496662D02*
X3412409Y-6515710D01*
X3412409Y-6515710D02*
X3383838Y-6525234D01*
X3383838Y-6525234D02*
X3336219Y-6525234D01*
X3536219Y-6525234D02*
X3536219Y-6391900D01*
X3536219Y-6429996D02*
X3545743Y-6410948D01*
X3545743Y-6410948D02*
X3555267Y-6401424D01*
X3555267Y-6401424D02*
X3574314Y-6391900D01*
X3574314Y-6391900D02*
X3593362Y-6391900D01*
X3660028Y-6525234D02*
X3660028Y-6391900D01*
X3660028Y-6325234D02*
X3650505Y-6334758D01*
X3650505Y-6334758D02*
X3660028Y-6344281D01*
X3660028Y-6344281D02*
X3669552Y-6334758D01*
X3669552Y-6334758D02*
X3660028Y-6325234D01*
X3660028Y-6325234D02*
X3660028Y-6344281D01*
X3783838Y-6525234D02*
X3764790Y-6515710D01*
X3764790Y-6515710D02*
X3755267Y-6496662D01*
X3755267Y-6496662D02*
X3755267Y-6325234D01*
X3888600Y-6525234D02*
X3869552Y-6515710D01*
X3869552Y-6515710D02*
X3860028Y-6496662D01*
X3860028Y-6496662D02*
X3860028Y-6325234D01*
X4117171Y-6525234D02*
X4117171Y-6325234D01*
X4117171Y-6325234D02*
X4183838Y-6468091D01*
X4183838Y-6468091D02*
X4250505Y-6325234D01*
X4250505Y-6325234D02*
X4250505Y-6525234D01*
X4431457Y-6525234D02*
X4431457Y-6420472D01*
X4431457Y-6420472D02*
X4421933Y-6401424D01*
X4421933Y-6401424D02*
X4402886Y-6391900D01*
X4402886Y-6391900D02*
X4364790Y-6391900D01*
X4364790Y-6391900D02*
X4345743Y-6401424D01*
X4431457Y-6515710D02*
X4412410Y-6525234D01*
X4412410Y-6525234D02*
X4364790Y-6525234D01*
X4364790Y-6525234D02*
X4345743Y-6515710D01*
X4345743Y-6515710D02*
X4336219Y-6496662D01*
X4336219Y-6496662D02*
X4336219Y-6477615D01*
X4336219Y-6477615D02*
X4345743Y-6458567D01*
X4345743Y-6458567D02*
X4364790Y-6449043D01*
X4364790Y-6449043D02*
X4412410Y-6449043D01*
X4412410Y-6449043D02*
X4431457Y-6439519D01*
X4526695Y-6391900D02*
X4526695Y-6591900D01*
X4526695Y-6401424D02*
X4545743Y-6391900D01*
X4545743Y-6391900D02*
X4583838Y-6391900D01*
X4583838Y-6391900D02*
X4602886Y-6401424D01*
X4602886Y-6401424D02*
X4612410Y-6410948D01*
X4612410Y-6410948D02*
X4621933Y-6429996D01*
X4621933Y-6429996D02*
X4621933Y-6487138D01*
X4621933Y-6487138D02*
X4612410Y-6506186D01*
X4612410Y-6506186D02*
X4602886Y-6515710D01*
X4602886Y-6515710D02*
X4583838Y-6525234D01*
X4583838Y-6525234D02*
X4545743Y-6525234D01*
X4545743Y-6525234D02*
X4526695Y-6515710D01*
X4707648Y-6506186D02*
X4717171Y-6515710D01*
X4717171Y-6515710D02*
X4707648Y-6525234D01*
X4707648Y-6525234D02*
X4698124Y-6515710D01*
X4698124Y-6515710D02*
X4707648Y-6506186D01*
X4707648Y-6506186D02*
X4707648Y-6525234D01*
X4707648Y-6401424D02*
X4717171Y-6410948D01*
X4717171Y-6410948D02*
X4707648Y-6420472D01*
X4707648Y-6420472D02*
X4698124Y-6410948D01*
X4698124Y-6410948D02*
X4707648Y-6401424D01*
X4707648Y-6401424D02*
X4707648Y-6420472D01*
D12*
X2989500Y-6803160D02*
X3088600Y-6902260D01*
X3088600Y-6803160D02*
X2989500Y-6902260D01*
D11*
X3374314Y-6745234D02*
X3393362Y-6745234D01*
X3393362Y-6745234D02*
X3412409Y-6754758D01*
X3412409Y-6754758D02*
X3421933Y-6764281D01*
X3421933Y-6764281D02*
X3431457Y-6783329D01*
X3431457Y-6783329D02*
X3440981Y-6821424D01*
X3440981Y-6821424D02*
X3440981Y-6869043D01*
X3440981Y-6869043D02*
X3431457Y-6907138D01*
X3431457Y-6907138D02*
X3421933Y-6926186D01*
X3421933Y-6926186D02*
X3412409Y-6935710D01*
X3412409Y-6935710D02*
X3393362Y-6945234D01*
X3393362Y-6945234D02*
X3374314Y-6945234D01*
X3374314Y-6945234D02*
X3355267Y-6935710D01*
X3355267Y-6935710D02*
X3345743Y-6926186D01*
X3345743Y-6926186D02*
X3336219Y-6907138D01*
X3336219Y-6907138D02*
X3326695Y-6869043D01*
X3326695Y-6869043D02*
X3326695Y-6821424D01*
X3326695Y-6821424D02*
X3336219Y-6783329D01*
X3336219Y-6783329D02*
X3345743Y-6764281D01*
X3345743Y-6764281D02*
X3355267Y-6754758D01*
X3355267Y-6754758D02*
X3374314Y-6745234D01*
X3526695Y-6926186D02*
X3536219Y-6935710D01*
X3536219Y-6935710D02*
X3526695Y-6945234D01*
X3526695Y-6945234D02*
X3517171Y-6935710D01*
X3517171Y-6935710D02*
X3526695Y-6926186D01*
X3526695Y-6926186D02*
X3526695Y-6945234D01*
X3631457Y-6945234D02*
X3669552Y-6945234D01*
X3669552Y-6945234D02*
X3688600Y-6935710D01*
X3688600Y-6935710D02*
X3698124Y-6926186D01*
X3698124Y-6926186D02*
X3717171Y-6897615D01*
X3717171Y-6897615D02*
X3726695Y-6859519D01*
X3726695Y-6859519D02*
X3726695Y-6783329D01*
X3726695Y-6783329D02*
X3717171Y-6764281D01*
X3717171Y-6764281D02*
X3707648Y-6754758D01*
X3707648Y-6754758D02*
X3688600Y-6745234D01*
X3688600Y-6745234D02*
X3650505Y-6745234D01*
X3650505Y-6745234D02*
X3631457Y-6754758D01*
X3631457Y-6754758D02*
X3621933Y-6764281D01*
X3621933Y-6764281D02*
X3612409Y-6783329D01*
X3612409Y-6783329D02*
X3612409Y-6830948D01*
X3612409Y-6830948D02*
X3621933Y-6849996D01*
X3621933Y-6849996D02*
X3631457Y-6859519D01*
X3631457Y-6859519D02*
X3650505Y-6869043D01*
X3650505Y-6869043D02*
X3688600Y-6869043D01*
X3688600Y-6869043D02*
X3707648Y-6859519D01*
X3707648Y-6859519D02*
X3717171Y-6849996D01*
X3717171Y-6849996D02*
X3726695Y-6830948D01*
X3821933Y-6945234D02*
X3860028Y-6945234D01*
X3860028Y-6945234D02*
X3879076Y-6935710D01*
X3879076Y-6935710D02*
X3888600Y-6926186D01*
X3888600Y-6926186D02*
X3907648Y-6897615D01*
X3907648Y-6897615D02*
X3917171Y-6859519D01*
X3917171Y-6859519D02*
X3917171Y-6783329D01*
X3917171Y-6783329D02*
X3907648Y-6764281D01*
X3907648Y-6764281D02*
X3898124Y-6754758D01*
X3898124Y-6754758D02*
X3879076Y-6745234D01*
X3879076Y-6745234D02*
X3840981Y-6745234D01*
X3840981Y-6745234D02*
X3821933Y-6754758D01*
X3821933Y-6754758D02*
X3812409Y-6764281D01*
X3812409Y-6764281D02*
X3802886Y-6783329D01*
X3802886Y-6783329D02*
X3802886Y-6830948D01*
X3802886Y-6830948D02*
X3812409Y-6849996D01*
X3812409Y-6849996D02*
X3821933Y-6859519D01*
X3821933Y-6859519D02*
X3840981Y-6869043D01*
X3840981Y-6869043D02*
X3879076Y-6869043D01*
X3879076Y-6869043D02*
X3898124Y-6859519D01*
X3898124Y-6859519D02*
X3907648Y-6849996D01*
X3907648Y-6849996D02*
X3917171Y-6830948D01*
X4107648Y-6945234D02*
X3993362Y-6945234D01*
X4050505Y-6945234D02*
X4050505Y-6745234D01*
X4050505Y-6745234D02*
X4031457Y-6773805D01*
X4031457Y-6773805D02*
X4012409Y-6792853D01*
X4012409Y-6792853D02*
X3993362Y-6802377D01*
X4193362Y-6945234D02*
X4193362Y-6811900D01*
X4193362Y-6830948D02*
X4202886Y-6821424D01*
X4202886Y-6821424D02*
X4221933Y-6811900D01*
X4221933Y-6811900D02*
X4250505Y-6811900D01*
X4250505Y-6811900D02*
X4269552Y-6821424D01*
X4269552Y-6821424D02*
X4279076Y-6840472D01*
X4279076Y-6840472D02*
X4279076Y-6945234D01*
X4279076Y-6840472D02*
X4288600Y-6821424D01*
X4288600Y-6821424D02*
X4307648Y-6811900D01*
X4307648Y-6811900D02*
X4336219Y-6811900D01*
X4336219Y-6811900D02*
X4355267Y-6821424D01*
X4355267Y-6821424D02*
X4364791Y-6840472D01*
X4364791Y-6840472D02*
X4364791Y-6945234D01*
X4460029Y-6945234D02*
X4460029Y-6811900D01*
X4460029Y-6830948D02*
X4469552Y-6821424D01*
X4469552Y-6821424D02*
X4488600Y-6811900D01*
X4488600Y-6811900D02*
X4517172Y-6811900D01*
X4517172Y-6811900D02*
X4536219Y-6821424D01*
X4536219Y-6821424D02*
X4545743Y-6840472D01*
X4545743Y-6840472D02*
X4545743Y-6945234D01*
X4545743Y-6840472D02*
X4555267Y-6821424D01*
X4555267Y-6821424D02*
X4574314Y-6811900D01*
X4574314Y-6811900D02*
X4602886Y-6811900D01*
X4602886Y-6811900D02*
X4621933Y-6821424D01*
X4621933Y-6821424D02*
X4631457Y-6840472D01*
X4631457Y-6840472D02*
X4631457Y-6945234D01*
X5021933Y-6735710D02*
X4850505Y-6992853D01*
X5279076Y-6745234D02*
X5298124Y-6745234D01*
X5298124Y-6745234D02*
X5317172Y-6754758D01*
X5317172Y-6754758D02*
X5326695Y-6764281D01*
X5326695Y-6764281D02*
X5336219Y-6783329D01*
X5336219Y-6783329D02*
X5345743Y-6821424D01*
X5345743Y-6821424D02*
X5345743Y-6869043D01*
X5345743Y-6869043D02*
X5336219Y-6907138D01*
X5336219Y-6907138D02*
X5326695Y-6926186D01*
X5326695Y-6926186D02*
X5317172Y-6935710D01*
X5317172Y-6935710D02*
X5298124Y-6945234D01*
X5298124Y-6945234D02*
X5279076Y-6945234D01*
X5279076Y-6945234D02*
X5260029Y-6935710D01*
X5260029Y-6935710D02*
X5250505Y-6926186D01*
X5250505Y-6926186D02*
X5240981Y-6907138D01*
X5240981Y-6907138D02*
X5231457Y-6869043D01*
X5231457Y-6869043D02*
X5231457Y-6821424D01*
X5231457Y-6821424D02*
X5240981Y-6783329D01*
X5240981Y-6783329D02*
X5250505Y-6764281D01*
X5250505Y-6764281D02*
X5260029Y-6754758D01*
X5260029Y-6754758D02*
X5279076Y-6745234D01*
X5431457Y-6926186D02*
X5440981Y-6935710D01*
X5440981Y-6935710D02*
X5431457Y-6945234D01*
X5431457Y-6945234D02*
X5421934Y-6935710D01*
X5421934Y-6935710D02*
X5431457Y-6926186D01*
X5431457Y-6926186D02*
X5431457Y-6945234D01*
X5564791Y-6745234D02*
X5583838Y-6745234D01*
X5583838Y-6745234D02*
X5602886Y-6754758D01*
X5602886Y-6754758D02*
X5612410Y-6764281D01*
X5612410Y-6764281D02*
X5621933Y-6783329D01*
X5621933Y-6783329D02*
X5631457Y-6821424D01*
X5631457Y-6821424D02*
X5631457Y-6869043D01*
X5631457Y-6869043D02*
X5621933Y-6907138D01*
X5621933Y-6907138D02*
X5612410Y-6926186D01*
X5612410Y-6926186D02*
X5602886Y-6935710D01*
X5602886Y-6935710D02*
X5583838Y-6945234D01*
X5583838Y-6945234D02*
X5564791Y-6945234D01*
X5564791Y-6945234D02*
X5545743Y-6935710D01*
X5545743Y-6935710D02*
X5536219Y-6926186D01*
X5536219Y-6926186D02*
X5526695Y-6907138D01*
X5526695Y-6907138D02*
X5517172Y-6869043D01*
X5517172Y-6869043D02*
X5517172Y-6821424D01*
X5517172Y-6821424D02*
X5526695Y-6783329D01*
X5526695Y-6783329D02*
X5536219Y-6764281D01*
X5536219Y-6764281D02*
X5545743Y-6754758D01*
X5545743Y-6754758D02*
X5564791Y-6745234D01*
X5698124Y-6745234D02*
X5821933Y-6745234D01*
X5821933Y-6745234D02*
X5755267Y-6821424D01*
X5755267Y-6821424D02*
X5783838Y-6821424D01*
X5783838Y-6821424D02*
X5802886Y-6830948D01*
X5802886Y-6830948D02*
X5812410Y-6840472D01*
X5812410Y-6840472D02*
X5821933Y-6859519D01*
X5821933Y-6859519D02*
X5821933Y-6907138D01*
X5821933Y-6907138D02*
X5812410Y-6926186D01*
X5812410Y-6926186D02*
X5802886Y-6935710D01*
X5802886Y-6935710D02*
X5783838Y-6945234D01*
X5783838Y-6945234D02*
X5726695Y-6945234D01*
X5726695Y-6945234D02*
X5707648Y-6935710D01*
X5707648Y-6935710D02*
X5698124Y-6926186D01*
X5917172Y-6945234D02*
X5955267Y-6945234D01*
X5955267Y-6945234D02*
X5974314Y-6935710D01*
X5974314Y-6935710D02*
X5983838Y-6926186D01*
X5983838Y-6926186D02*
X6002886Y-6897615D01*
X6002886Y-6897615D02*
X6012410Y-6859519D01*
X6012410Y-6859519D02*
X6012410Y-6783329D01*
X6012410Y-6783329D02*
X6002886Y-6764281D01*
X6002886Y-6764281D02*
X5993362Y-6754758D01*
X5993362Y-6754758D02*
X5974314Y-6745234D01*
X5974314Y-6745234D02*
X5936219Y-6745234D01*
X5936219Y-6745234D02*
X5917172Y-6754758D01*
X5917172Y-6754758D02*
X5907648Y-6764281D01*
X5907648Y-6764281D02*
X5898124Y-6783329D01*
X5898124Y-6783329D02*
X5898124Y-6830948D01*
X5898124Y-6830948D02*
X5907648Y-6849996D01*
X5907648Y-6849996D02*
X5917172Y-6859519D01*
X5917172Y-6859519D02*
X5936219Y-6869043D01*
X5936219Y-6869043D02*
X5974314Y-6869043D01*
X5974314Y-6869043D02*
X5993362Y-6859519D01*
X5993362Y-6859519D02*
X6002886Y-6849996D01*
X6002886Y-6849996D02*
X6012410Y-6830948D01*
X6136219Y-6745234D02*
X6155267Y-6745234D01*
X6155267Y-6745234D02*
X6174314Y-6754758D01*
X6174314Y-6754758D02*
X6183838Y-6764281D01*
X6183838Y-6764281D02*
X6193362Y-6783329D01*
X6193362Y-6783329D02*
X6202886Y-6821424D01*
X6202886Y-6821424D02*
X6202886Y-6869043D01*
X6202886Y-6869043D02*
X6193362Y-6907138D01*
X6193362Y-6907138D02*
X6183838Y-6926186D01*
X6183838Y-6926186D02*
X6174314Y-6935710D01*
X6174314Y-6935710D02*
X6155267Y-6945234D01*
X6155267Y-6945234D02*
X6136219Y-6945234D01*
X6136219Y-6945234D02*
X6117172Y-6935710D01*
X6117172Y-6935710D02*
X6107648Y-6926186D01*
X6107648Y-6926186D02*
X6098124Y-6907138D01*
X6098124Y-6907138D02*
X6088600Y-6869043D01*
X6088600Y-6869043D02*
X6088600Y-6821424D01*
X6088600Y-6821424D02*
X6098124Y-6783329D01*
X6098124Y-6783329D02*
X6107648Y-6764281D01*
X6107648Y-6764281D02*
X6117172Y-6754758D01*
X6117172Y-6754758D02*
X6136219Y-6745234D01*
X6279076Y-6745234D02*
X6279076Y-6783329D01*
X6355267Y-6745234D02*
X6355267Y-6783329D01*
X6650505Y-7021424D02*
X6640981Y-7011900D01*
X6640981Y-7011900D02*
X6621934Y-6983329D01*
X6621934Y-6983329D02*
X6612410Y-6964281D01*
X6612410Y-6964281D02*
X6602886Y-6935710D01*
X6602886Y-6935710D02*
X6593362Y-6888091D01*
X6593362Y-6888091D02*
X6593362Y-6849996D01*
X6593362Y-6849996D02*
X6602886Y-6802377D01*
X6602886Y-6802377D02*
X6612410Y-6773805D01*
X6612410Y-6773805D02*
X6621934Y-6754758D01*
X6621934Y-6754758D02*
X6640981Y-6726186D01*
X6640981Y-6726186D02*
X6650505Y-6716662D01*
X6812410Y-6745234D02*
X6774314Y-6745234D01*
X6774314Y-6745234D02*
X6755267Y-6754758D01*
X6755267Y-6754758D02*
X6745743Y-6764281D01*
X6745743Y-6764281D02*
X6726695Y-6792853D01*
X6726695Y-6792853D02*
X6717172Y-6830948D01*
X6717172Y-6830948D02*
X6717172Y-6907138D01*
X6717172Y-6907138D02*
X6726695Y-6926186D01*
X6726695Y-6926186D02*
X6736219Y-6935710D01*
X6736219Y-6935710D02*
X6755267Y-6945234D01*
X6755267Y-6945234D02*
X6793362Y-6945234D01*
X6793362Y-6945234D02*
X6812410Y-6935710D01*
X6812410Y-6935710D02*
X6821934Y-6926186D01*
X6821934Y-6926186D02*
X6831457Y-6907138D01*
X6831457Y-6907138D02*
X6831457Y-6859519D01*
X6831457Y-6859519D02*
X6821934Y-6840472D01*
X6821934Y-6840472D02*
X6812410Y-6830948D01*
X6812410Y-6830948D02*
X6793362Y-6821424D01*
X6793362Y-6821424D02*
X6755267Y-6821424D01*
X6755267Y-6821424D02*
X6736219Y-6830948D01*
X6736219Y-6830948D02*
X6726695Y-6840472D01*
X6726695Y-6840472D02*
X6717172Y-6859519D01*
X7069553Y-6945234D02*
X7069553Y-6745234D01*
X7155267Y-6945234D02*
X7155267Y-6840472D01*
X7155267Y-6840472D02*
X7145743Y-6821424D01*
X7145743Y-6821424D02*
X7126696Y-6811900D01*
X7126696Y-6811900D02*
X7098124Y-6811900D01*
X7098124Y-6811900D02*
X7079076Y-6821424D01*
X7079076Y-6821424D02*
X7069553Y-6830948D01*
X7279076Y-6945234D02*
X7260029Y-6935710D01*
X7260029Y-6935710D02*
X7250505Y-6926186D01*
X7250505Y-6926186D02*
X7240981Y-6907138D01*
X7240981Y-6907138D02*
X7240981Y-6849996D01*
X7240981Y-6849996D02*
X7250505Y-6830948D01*
X7250505Y-6830948D02*
X7260029Y-6821424D01*
X7260029Y-6821424D02*
X7279076Y-6811900D01*
X7279076Y-6811900D02*
X7307648Y-6811900D01*
X7307648Y-6811900D02*
X7326696Y-6821424D01*
X7326696Y-6821424D02*
X7336219Y-6830948D01*
X7336219Y-6830948D02*
X7345743Y-6849996D01*
X7345743Y-6849996D02*
X7345743Y-6907138D01*
X7345743Y-6907138D02*
X7336219Y-6926186D01*
X7336219Y-6926186D02*
X7326696Y-6935710D01*
X7326696Y-6935710D02*
X7307648Y-6945234D01*
X7307648Y-6945234D02*
X7279076Y-6945234D01*
X7460029Y-6945234D02*
X7440981Y-6935710D01*
X7440981Y-6935710D02*
X7431457Y-6916662D01*
X7431457Y-6916662D02*
X7431457Y-6745234D01*
X7612410Y-6935710D02*
X7593362Y-6945234D01*
X7593362Y-6945234D02*
X7555267Y-6945234D01*
X7555267Y-6945234D02*
X7536219Y-6935710D01*
X7536219Y-6935710D02*
X7526696Y-6916662D01*
X7526696Y-6916662D02*
X7526696Y-6840472D01*
X7526696Y-6840472D02*
X7536219Y-6821424D01*
X7536219Y-6821424D02*
X7555267Y-6811900D01*
X7555267Y-6811900D02*
X7593362Y-6811900D01*
X7593362Y-6811900D02*
X7612410Y-6821424D01*
X7612410Y-6821424D02*
X7621934Y-6840472D01*
X7621934Y-6840472D02*
X7621934Y-6859519D01*
X7621934Y-6859519D02*
X7526696Y-6878567D01*
X7698124Y-6935710D02*
X7717172Y-6945234D01*
X7717172Y-6945234D02*
X7755267Y-6945234D01*
X7755267Y-6945234D02*
X7774315Y-6935710D01*
X7774315Y-6935710D02*
X7783838Y-6916662D01*
X7783838Y-6916662D02*
X7783838Y-6907138D01*
X7783838Y-6907138D02*
X7774315Y-6888091D01*
X7774315Y-6888091D02*
X7755267Y-6878567D01*
X7755267Y-6878567D02*
X7726696Y-6878567D01*
X7726696Y-6878567D02*
X7707648Y-6869043D01*
X7707648Y-6869043D02*
X7698124Y-6849996D01*
X7698124Y-6849996D02*
X7698124Y-6840472D01*
X7698124Y-6840472D02*
X7707648Y-6821424D01*
X7707648Y-6821424D02*
X7726696Y-6811900D01*
X7726696Y-6811900D02*
X7755267Y-6811900D01*
X7755267Y-6811900D02*
X7774315Y-6821424D01*
X7850505Y-7021424D02*
X7860029Y-7011900D01*
X7860029Y-7011900D02*
X7879077Y-6983329D01*
X7879077Y-6983329D02*
X7888600Y-6964281D01*
X7888600Y-6964281D02*
X7898124Y-6935710D01*
X7898124Y-6935710D02*
X7907648Y-6888091D01*
X7907648Y-6888091D02*
X7907648Y-6849996D01*
X7907648Y-6849996D02*
X7898124Y-6802377D01*
X7898124Y-6802377D02*
X7888600Y-6773805D01*
X7888600Y-6773805D02*
X7879077Y-6754758D01*
X7879077Y-6754758D02*
X7860029Y-6726186D01*
X7860029Y-6726186D02*
X7850505Y-6716662D01*
X8212410Y-7021424D02*
X8202886Y-7011900D01*
X8202886Y-7011900D02*
X8183838Y-6983329D01*
X8183838Y-6983329D02*
X8174315Y-6964281D01*
X8174315Y-6964281D02*
X8164791Y-6935710D01*
X8164791Y-6935710D02*
X8155267Y-6888091D01*
X8155267Y-6888091D02*
X8155267Y-6849996D01*
X8155267Y-6849996D02*
X8164791Y-6802377D01*
X8164791Y-6802377D02*
X8174315Y-6773805D01*
X8174315Y-6773805D02*
X8183838Y-6754758D01*
X8183838Y-6754758D02*
X8202886Y-6726186D01*
X8202886Y-6726186D02*
X8212410Y-6716662D01*
X8288600Y-6811900D02*
X8288600Y-6945234D01*
X8288600Y-6830948D02*
X8298124Y-6821424D01*
X8298124Y-6821424D02*
X8317172Y-6811900D01*
X8317172Y-6811900D02*
X8345743Y-6811900D01*
X8345743Y-6811900D02*
X8364791Y-6821424D01*
X8364791Y-6821424D02*
X8374315Y-6840472D01*
X8374315Y-6840472D02*
X8374315Y-6945234D01*
X8498124Y-6945234D02*
X8479077Y-6935710D01*
X8479077Y-6935710D02*
X8469553Y-6926186D01*
X8469553Y-6926186D02*
X8460029Y-6907138D01*
X8460029Y-6907138D02*
X8460029Y-6849996D01*
X8460029Y-6849996D02*
X8469553Y-6830948D01*
X8469553Y-6830948D02*
X8479077Y-6821424D01*
X8479077Y-6821424D02*
X8498124Y-6811900D01*
X8498124Y-6811900D02*
X8526696Y-6811900D01*
X8526696Y-6811900D02*
X8545743Y-6821424D01*
X8545743Y-6821424D02*
X8555267Y-6830948D01*
X8555267Y-6830948D02*
X8564791Y-6849996D01*
X8564791Y-6849996D02*
X8564791Y-6907138D01*
X8564791Y-6907138D02*
X8555267Y-6926186D01*
X8555267Y-6926186D02*
X8545743Y-6935710D01*
X8545743Y-6935710D02*
X8526696Y-6945234D01*
X8526696Y-6945234D02*
X8498124Y-6945234D01*
X8621934Y-6811900D02*
X8698124Y-6811900D01*
X8650505Y-6745234D02*
X8650505Y-6916662D01*
X8650505Y-6916662D02*
X8660029Y-6935710D01*
X8660029Y-6935710D02*
X8679077Y-6945234D01*
X8679077Y-6945234D02*
X8698124Y-6945234D01*
X8917172Y-6811900D02*
X8917172Y-7011900D01*
X8917172Y-6821424D02*
X8936220Y-6811900D01*
X8936220Y-6811900D02*
X8974315Y-6811900D01*
X8974315Y-6811900D02*
X8993362Y-6821424D01*
X8993362Y-6821424D02*
X9002886Y-6830948D01*
X9002886Y-6830948D02*
X9012410Y-6849996D01*
X9012410Y-6849996D02*
X9012410Y-6907138D01*
X9012410Y-6907138D02*
X9002886Y-6926186D01*
X9002886Y-6926186D02*
X8993362Y-6935710D01*
X8993362Y-6935710D02*
X8974315Y-6945234D01*
X8974315Y-6945234D02*
X8936220Y-6945234D01*
X8936220Y-6945234D02*
X8917172Y-6935710D01*
X9126696Y-6945234D02*
X9107648Y-6935710D01*
X9107648Y-6935710D02*
X9098124Y-6916662D01*
X9098124Y-6916662D02*
X9098124Y-6745234D01*
X9288601Y-6945234D02*
X9288601Y-6840472D01*
X9288601Y-6840472D02*
X9279077Y-6821424D01*
X9279077Y-6821424D02*
X9260029Y-6811900D01*
X9260029Y-6811900D02*
X9221934Y-6811900D01*
X9221934Y-6811900D02*
X9202886Y-6821424D01*
X9288601Y-6935710D02*
X9269553Y-6945234D01*
X9269553Y-6945234D02*
X9221934Y-6945234D01*
X9221934Y-6945234D02*
X9202886Y-6935710D01*
X9202886Y-6935710D02*
X9193362Y-6916662D01*
X9193362Y-6916662D02*
X9193362Y-6897615D01*
X9193362Y-6897615D02*
X9202886Y-6878567D01*
X9202886Y-6878567D02*
X9221934Y-6869043D01*
X9221934Y-6869043D02*
X9269553Y-6869043D01*
X9269553Y-6869043D02*
X9288601Y-6859519D01*
X9355267Y-6811900D02*
X9431458Y-6811900D01*
X9383839Y-6745234D02*
X9383839Y-6916662D01*
X9383839Y-6916662D02*
X9393362Y-6935710D01*
X9393362Y-6935710D02*
X9412410Y-6945234D01*
X9412410Y-6945234D02*
X9431458Y-6945234D01*
X9574315Y-6935710D02*
X9555267Y-6945234D01*
X9555267Y-6945234D02*
X9517172Y-6945234D01*
X9517172Y-6945234D02*
X9498124Y-6935710D01*
X9498124Y-6935710D02*
X9488601Y-6916662D01*
X9488601Y-6916662D02*
X9488601Y-6840472D01*
X9488601Y-6840472D02*
X9498124Y-6821424D01*
X9498124Y-6821424D02*
X9517172Y-6811900D01*
X9517172Y-6811900D02*
X9555267Y-6811900D01*
X9555267Y-6811900D02*
X9574315Y-6821424D01*
X9574315Y-6821424D02*
X9583839Y-6840472D01*
X9583839Y-6840472D02*
X9583839Y-6859519D01*
X9583839Y-6859519D02*
X9488601Y-6878567D01*
X9755267Y-6945234D02*
X9755267Y-6745234D01*
X9755267Y-6935710D02*
X9736220Y-6945234D01*
X9736220Y-6945234D02*
X9698124Y-6945234D01*
X9698124Y-6945234D02*
X9679077Y-6935710D01*
X9679077Y-6935710D02*
X9669553Y-6926186D01*
X9669553Y-6926186D02*
X9660029Y-6907138D01*
X9660029Y-6907138D02*
X9660029Y-6849996D01*
X9660029Y-6849996D02*
X9669553Y-6830948D01*
X9669553Y-6830948D02*
X9679077Y-6821424D01*
X9679077Y-6821424D02*
X9698124Y-6811900D01*
X9698124Y-6811900D02*
X9736220Y-6811900D01*
X9736220Y-6811900D02*
X9755267Y-6821424D01*
X9831458Y-7021424D02*
X9840982Y-7011900D01*
X9840982Y-7011900D02*
X9860029Y-6983329D01*
X9860029Y-6983329D02*
X9869553Y-6964281D01*
X9869553Y-6964281D02*
X9879077Y-6935710D01*
X9879077Y-6935710D02*
X9888601Y-6888091D01*
X9888601Y-6888091D02*
X9888601Y-6849996D01*
X9888601Y-6849996D02*
X9879077Y-6802377D01*
X9879077Y-6802377D02*
X9869553Y-6773805D01*
X9869553Y-6773805D02*
X9860029Y-6754758D01*
X9860029Y-6754758D02*
X9840982Y-6726186D01*
X9840982Y-6726186D02*
X9831458Y-6716662D01*
X3088600Y-7116710D02*
G75*
G03*
X3088600Y-7116710I-100000J0D01*
G01*
X3326695Y-7028281D02*
X3336219Y-7018758D01*
X3336219Y-7018758D02*
X3355267Y-7009234D01*
X3355267Y-7009234D02*
X3402886Y-7009234D01*
X3402886Y-7009234D02*
X3421933Y-7018758D01*
X3421933Y-7018758D02*
X3431457Y-7028281D01*
X3431457Y-7028281D02*
X3440981Y-7047329D01*
X3440981Y-7047329D02*
X3440981Y-7066377D01*
X3440981Y-7066377D02*
X3431457Y-7094948D01*
X3431457Y-7094948D02*
X3317171Y-7209234D01*
X3317171Y-7209234D02*
X3440981Y-7209234D01*
X3526695Y-7190186D02*
X3536219Y-7199710D01*
X3536219Y-7199710D02*
X3526695Y-7209234D01*
X3526695Y-7209234D02*
X3517171Y-7199710D01*
X3517171Y-7199710D02*
X3526695Y-7190186D01*
X3526695Y-7190186D02*
X3526695Y-7209234D01*
X3660028Y-7009234D02*
X3679076Y-7009234D01*
X3679076Y-7009234D02*
X3698124Y-7018758D01*
X3698124Y-7018758D02*
X3707648Y-7028281D01*
X3707648Y-7028281D02*
X3717171Y-7047329D01*
X3717171Y-7047329D02*
X3726695Y-7085424D01*
X3726695Y-7085424D02*
X3726695Y-7133043D01*
X3726695Y-7133043D02*
X3717171Y-7171138D01*
X3717171Y-7171138D02*
X3707648Y-7190186D01*
X3707648Y-7190186D02*
X3698124Y-7199710D01*
X3698124Y-7199710D02*
X3679076Y-7209234D01*
X3679076Y-7209234D02*
X3660028Y-7209234D01*
X3660028Y-7209234D02*
X3640981Y-7199710D01*
X3640981Y-7199710D02*
X3631457Y-7190186D01*
X3631457Y-7190186D02*
X3621933Y-7171138D01*
X3621933Y-7171138D02*
X3612409Y-7133043D01*
X3612409Y-7133043D02*
X3612409Y-7085424D01*
X3612409Y-7085424D02*
X3621933Y-7047329D01*
X3621933Y-7047329D02*
X3631457Y-7028281D01*
X3631457Y-7028281D02*
X3640981Y-7018758D01*
X3640981Y-7018758D02*
X3660028Y-7009234D01*
X3850505Y-7009234D02*
X3869552Y-7009234D01*
X3869552Y-7009234D02*
X3888600Y-7018758D01*
X3888600Y-7018758D02*
X3898124Y-7028281D01*
X3898124Y-7028281D02*
X3907648Y-7047329D01*
X3907648Y-7047329D02*
X3917171Y-7085424D01*
X3917171Y-7085424D02*
X3917171Y-7133043D01*
X3917171Y-7133043D02*
X3907648Y-7171138D01*
X3907648Y-7171138D02*
X3898124Y-7190186D01*
X3898124Y-7190186D02*
X3888600Y-7199710D01*
X3888600Y-7199710D02*
X3869552Y-7209234D01*
X3869552Y-7209234D02*
X3850505Y-7209234D01*
X3850505Y-7209234D02*
X3831457Y-7199710D01*
X3831457Y-7199710D02*
X3821933Y-7190186D01*
X3821933Y-7190186D02*
X3812409Y-7171138D01*
X3812409Y-7171138D02*
X3802886Y-7133043D01*
X3802886Y-7133043D02*
X3802886Y-7085424D01*
X3802886Y-7085424D02*
X3812409Y-7047329D01*
X3812409Y-7047329D02*
X3821933Y-7028281D01*
X3821933Y-7028281D02*
X3831457Y-7018758D01*
X3831457Y-7018758D02*
X3850505Y-7009234D01*
X4040981Y-7009234D02*
X4060029Y-7009234D01*
X4060029Y-7009234D02*
X4079076Y-7018758D01*
X4079076Y-7018758D02*
X4088600Y-7028281D01*
X4088600Y-7028281D02*
X4098124Y-7047329D01*
X4098124Y-7047329D02*
X4107648Y-7085424D01*
X4107648Y-7085424D02*
X4107648Y-7133043D01*
X4107648Y-7133043D02*
X4098124Y-7171138D01*
X4098124Y-7171138D02*
X4088600Y-7190186D01*
X4088600Y-7190186D02*
X4079076Y-7199710D01*
X4079076Y-7199710D02*
X4060029Y-7209234D01*
X4060029Y-7209234D02*
X4040981Y-7209234D01*
X4040981Y-7209234D02*
X4021933Y-7199710D01*
X4021933Y-7199710D02*
X4012409Y-7190186D01*
X4012409Y-7190186D02*
X4002886Y-7171138D01*
X4002886Y-7171138D02*
X3993362Y-7133043D01*
X3993362Y-7133043D02*
X3993362Y-7085424D01*
X3993362Y-7085424D02*
X4002886Y-7047329D01*
X4002886Y-7047329D02*
X4012409Y-7028281D01*
X4012409Y-7028281D02*
X4021933Y-7018758D01*
X4021933Y-7018758D02*
X4040981Y-7009234D01*
X4193362Y-7209234D02*
X4193362Y-7075900D01*
X4193362Y-7094948D02*
X4202886Y-7085424D01*
X4202886Y-7085424D02*
X4221933Y-7075900D01*
X4221933Y-7075900D02*
X4250505Y-7075900D01*
X4250505Y-7075900D02*
X4269552Y-7085424D01*
X4269552Y-7085424D02*
X4279076Y-7104472D01*
X4279076Y-7104472D02*
X4279076Y-7209234D01*
X4279076Y-7104472D02*
X4288600Y-7085424D01*
X4288600Y-7085424D02*
X4307648Y-7075900D01*
X4307648Y-7075900D02*
X4336219Y-7075900D01*
X4336219Y-7075900D02*
X4355267Y-7085424D01*
X4355267Y-7085424D02*
X4364791Y-7104472D01*
X4364791Y-7104472D02*
X4364791Y-7209234D01*
X4460029Y-7209234D02*
X4460029Y-7075900D01*
X4460029Y-7094948D02*
X4469552Y-7085424D01*
X4469552Y-7085424D02*
X4488600Y-7075900D01*
X4488600Y-7075900D02*
X4517172Y-7075900D01*
X4517172Y-7075900D02*
X4536219Y-7085424D01*
X4536219Y-7085424D02*
X4545743Y-7104472D01*
X4545743Y-7104472D02*
X4545743Y-7209234D01*
X4545743Y-7104472D02*
X4555267Y-7085424D01*
X4555267Y-7085424D02*
X4574314Y-7075900D01*
X4574314Y-7075900D02*
X4602886Y-7075900D01*
X4602886Y-7075900D02*
X4621933Y-7085424D01*
X4621933Y-7085424D02*
X4631457Y-7104472D01*
X4631457Y-7104472D02*
X4631457Y-7209234D01*
X5021933Y-6999710D02*
X4850505Y-7256853D01*
X5279076Y-7009234D02*
X5298124Y-7009234D01*
X5298124Y-7009234D02*
X5317172Y-7018758D01*
X5317172Y-7018758D02*
X5326695Y-7028281D01*
X5326695Y-7028281D02*
X5336219Y-7047329D01*
X5336219Y-7047329D02*
X5345743Y-7085424D01*
X5345743Y-7085424D02*
X5345743Y-7133043D01*
X5345743Y-7133043D02*
X5336219Y-7171138D01*
X5336219Y-7171138D02*
X5326695Y-7190186D01*
X5326695Y-7190186D02*
X5317172Y-7199710D01*
X5317172Y-7199710D02*
X5298124Y-7209234D01*
X5298124Y-7209234D02*
X5279076Y-7209234D01*
X5279076Y-7209234D02*
X5260029Y-7199710D01*
X5260029Y-7199710D02*
X5250505Y-7190186D01*
X5250505Y-7190186D02*
X5240981Y-7171138D01*
X5240981Y-7171138D02*
X5231457Y-7133043D01*
X5231457Y-7133043D02*
X5231457Y-7085424D01*
X5231457Y-7085424D02*
X5240981Y-7047329D01*
X5240981Y-7047329D02*
X5250505Y-7028281D01*
X5250505Y-7028281D02*
X5260029Y-7018758D01*
X5260029Y-7018758D02*
X5279076Y-7009234D01*
X5431457Y-7190186D02*
X5440981Y-7199710D01*
X5440981Y-7199710D02*
X5431457Y-7209234D01*
X5431457Y-7209234D02*
X5421934Y-7199710D01*
X5421934Y-7199710D02*
X5431457Y-7190186D01*
X5431457Y-7190186D02*
X5431457Y-7209234D01*
X5564791Y-7009234D02*
X5583838Y-7009234D01*
X5583838Y-7009234D02*
X5602886Y-7018758D01*
X5602886Y-7018758D02*
X5612410Y-7028281D01*
X5612410Y-7028281D02*
X5621933Y-7047329D01*
X5621933Y-7047329D02*
X5631457Y-7085424D01*
X5631457Y-7085424D02*
X5631457Y-7133043D01*
X5631457Y-7133043D02*
X5621933Y-7171138D01*
X5621933Y-7171138D02*
X5612410Y-7190186D01*
X5612410Y-7190186D02*
X5602886Y-7199710D01*
X5602886Y-7199710D02*
X5583838Y-7209234D01*
X5583838Y-7209234D02*
X5564791Y-7209234D01*
X5564791Y-7209234D02*
X5545743Y-7199710D01*
X5545743Y-7199710D02*
X5536219Y-7190186D01*
X5536219Y-7190186D02*
X5526695Y-7171138D01*
X5526695Y-7171138D02*
X5517172Y-7133043D01*
X5517172Y-7133043D02*
X5517172Y-7085424D01*
X5517172Y-7085424D02*
X5526695Y-7047329D01*
X5526695Y-7047329D02*
X5536219Y-7028281D01*
X5536219Y-7028281D02*
X5545743Y-7018758D01*
X5545743Y-7018758D02*
X5564791Y-7009234D01*
X5698124Y-7009234D02*
X5831457Y-7009234D01*
X5831457Y-7009234D02*
X5745743Y-7209234D01*
X5936219Y-7094948D02*
X5917172Y-7085424D01*
X5917172Y-7085424D02*
X5907648Y-7075900D01*
X5907648Y-7075900D02*
X5898124Y-7056853D01*
X5898124Y-7056853D02*
X5898124Y-7047329D01*
X5898124Y-7047329D02*
X5907648Y-7028281D01*
X5907648Y-7028281D02*
X5917172Y-7018758D01*
X5917172Y-7018758D02*
X5936219Y-7009234D01*
X5936219Y-7009234D02*
X5974314Y-7009234D01*
X5974314Y-7009234D02*
X5993362Y-7018758D01*
X5993362Y-7018758D02*
X6002886Y-7028281D01*
X6002886Y-7028281D02*
X6012410Y-7047329D01*
X6012410Y-7047329D02*
X6012410Y-7056853D01*
X6012410Y-7056853D02*
X6002886Y-7075900D01*
X6002886Y-7075900D02*
X5993362Y-7085424D01*
X5993362Y-7085424D02*
X5974314Y-7094948D01*
X5974314Y-7094948D02*
X5936219Y-7094948D01*
X5936219Y-7094948D02*
X5917172Y-7104472D01*
X5917172Y-7104472D02*
X5907648Y-7113996D01*
X5907648Y-7113996D02*
X5898124Y-7133043D01*
X5898124Y-7133043D02*
X5898124Y-7171138D01*
X5898124Y-7171138D02*
X5907648Y-7190186D01*
X5907648Y-7190186D02*
X5917172Y-7199710D01*
X5917172Y-7199710D02*
X5936219Y-7209234D01*
X5936219Y-7209234D02*
X5974314Y-7209234D01*
X5974314Y-7209234D02*
X5993362Y-7199710D01*
X5993362Y-7199710D02*
X6002886Y-7190186D01*
X6002886Y-7190186D02*
X6012410Y-7171138D01*
X6012410Y-7171138D02*
X6012410Y-7133043D01*
X6012410Y-7133043D02*
X6002886Y-7113996D01*
X6002886Y-7113996D02*
X5993362Y-7104472D01*
X5993362Y-7104472D02*
X5974314Y-7094948D01*
X6079076Y-7009234D02*
X6212410Y-7009234D01*
X6212410Y-7009234D02*
X6126695Y-7209234D01*
X6279076Y-7009234D02*
X6279076Y-7047329D01*
X6355267Y-7009234D02*
X6355267Y-7047329D01*
X6650505Y-7285424D02*
X6640981Y-7275900D01*
X6640981Y-7275900D02*
X6621934Y-7247329D01*
X6621934Y-7247329D02*
X6612410Y-7228281D01*
X6612410Y-7228281D02*
X6602886Y-7199710D01*
X6602886Y-7199710D02*
X6593362Y-7152091D01*
X6593362Y-7152091D02*
X6593362Y-7113996D01*
X6593362Y-7113996D02*
X6602886Y-7066377D01*
X6602886Y-7066377D02*
X6612410Y-7037805D01*
X6612410Y-7037805D02*
X6621934Y-7018758D01*
X6621934Y-7018758D02*
X6640981Y-6990186D01*
X6640981Y-6990186D02*
X6650505Y-6980662D01*
X6717172Y-7028281D02*
X6726695Y-7018758D01*
X6726695Y-7018758D02*
X6745743Y-7009234D01*
X6745743Y-7009234D02*
X6793362Y-7009234D01*
X6793362Y-7009234D02*
X6812410Y-7018758D01*
X6812410Y-7018758D02*
X6821934Y-7028281D01*
X6821934Y-7028281D02*
X6831457Y-7047329D01*
X6831457Y-7047329D02*
X6831457Y-7066377D01*
X6831457Y-7066377D02*
X6821934Y-7094948D01*
X6821934Y-7094948D02*
X6707648Y-7209234D01*
X6707648Y-7209234D02*
X6831457Y-7209234D01*
X7069553Y-7209234D02*
X7069553Y-7009234D01*
X7155267Y-7209234D02*
X7155267Y-7104472D01*
X7155267Y-7104472D02*
X7145743Y-7085424D01*
X7145743Y-7085424D02*
X7126696Y-7075900D01*
X7126696Y-7075900D02*
X7098124Y-7075900D01*
X7098124Y-7075900D02*
X7079076Y-7085424D01*
X7079076Y-7085424D02*
X7069553Y-7094948D01*
X7279076Y-7209234D02*
X7260029Y-7199710D01*
X7260029Y-7199710D02*
X7250505Y-7190186D01*
X7250505Y-7190186D02*
X7240981Y-7171138D01*
X7240981Y-7171138D02*
X7240981Y-7113996D01*
X7240981Y-7113996D02*
X7250505Y-7094948D01*
X7250505Y-7094948D02*
X7260029Y-7085424D01*
X7260029Y-7085424D02*
X7279076Y-7075900D01*
X7279076Y-7075900D02*
X7307648Y-7075900D01*
X7307648Y-7075900D02*
X7326696Y-7085424D01*
X7326696Y-7085424D02*
X7336219Y-7094948D01*
X7336219Y-7094948D02*
X7345743Y-7113996D01*
X7345743Y-7113996D02*
X7345743Y-7171138D01*
X7345743Y-7171138D02*
X7336219Y-7190186D01*
X7336219Y-7190186D02*
X7326696Y-7199710D01*
X7326696Y-7199710D02*
X7307648Y-7209234D01*
X7307648Y-7209234D02*
X7279076Y-7209234D01*
X7460029Y-7209234D02*
X7440981Y-7199710D01*
X7440981Y-7199710D02*
X7431457Y-7180662D01*
X7431457Y-7180662D02*
X7431457Y-7009234D01*
X7612410Y-7199710D02*
X7593362Y-7209234D01*
X7593362Y-7209234D02*
X7555267Y-7209234D01*
X7555267Y-7209234D02*
X7536219Y-7199710D01*
X7536219Y-7199710D02*
X7526696Y-7180662D01*
X7526696Y-7180662D02*
X7526696Y-7104472D01*
X7526696Y-7104472D02*
X7536219Y-7085424D01*
X7536219Y-7085424D02*
X7555267Y-7075900D01*
X7555267Y-7075900D02*
X7593362Y-7075900D01*
X7593362Y-7075900D02*
X7612410Y-7085424D01*
X7612410Y-7085424D02*
X7621934Y-7104472D01*
X7621934Y-7104472D02*
X7621934Y-7123519D01*
X7621934Y-7123519D02*
X7526696Y-7142567D01*
X7698124Y-7199710D02*
X7717172Y-7209234D01*
X7717172Y-7209234D02*
X7755267Y-7209234D01*
X7755267Y-7209234D02*
X7774315Y-7199710D01*
X7774315Y-7199710D02*
X7783838Y-7180662D01*
X7783838Y-7180662D02*
X7783838Y-7171138D01*
X7783838Y-7171138D02*
X7774315Y-7152091D01*
X7774315Y-7152091D02*
X7755267Y-7142567D01*
X7755267Y-7142567D02*
X7726696Y-7142567D01*
X7726696Y-7142567D02*
X7707648Y-7133043D01*
X7707648Y-7133043D02*
X7698124Y-7113996D01*
X7698124Y-7113996D02*
X7698124Y-7104472D01*
X7698124Y-7104472D02*
X7707648Y-7085424D01*
X7707648Y-7085424D02*
X7726696Y-7075900D01*
X7726696Y-7075900D02*
X7755267Y-7075900D01*
X7755267Y-7075900D02*
X7774315Y-7085424D01*
X7850505Y-7285424D02*
X7860029Y-7275900D01*
X7860029Y-7275900D02*
X7879077Y-7247329D01*
X7879077Y-7247329D02*
X7888600Y-7228281D01*
X7888600Y-7228281D02*
X7898124Y-7199710D01*
X7898124Y-7199710D02*
X7907648Y-7152091D01*
X7907648Y-7152091D02*
X7907648Y-7113996D01*
X7907648Y-7113996D02*
X7898124Y-7066377D01*
X7898124Y-7066377D02*
X7888600Y-7037805D01*
X7888600Y-7037805D02*
X7879077Y-7018758D01*
X7879077Y-7018758D02*
X7860029Y-6990186D01*
X7860029Y-6990186D02*
X7850505Y-6980662D01*
X8212410Y-7285424D02*
X8202886Y-7275900D01*
X8202886Y-7275900D02*
X8183838Y-7247329D01*
X8183838Y-7247329D02*
X8174315Y-7228281D01*
X8174315Y-7228281D02*
X8164791Y-7199710D01*
X8164791Y-7199710D02*
X8155267Y-7152091D01*
X8155267Y-7152091D02*
X8155267Y-7113996D01*
X8155267Y-7113996D02*
X8164791Y-7066377D01*
X8164791Y-7066377D02*
X8174315Y-7037805D01*
X8174315Y-7037805D02*
X8183838Y-7018758D01*
X8183838Y-7018758D02*
X8202886Y-6990186D01*
X8202886Y-6990186D02*
X8212410Y-6980662D01*
X8288600Y-7075900D02*
X8288600Y-7209234D01*
X8288600Y-7094948D02*
X8298124Y-7085424D01*
X8298124Y-7085424D02*
X8317172Y-7075900D01*
X8317172Y-7075900D02*
X8345743Y-7075900D01*
X8345743Y-7075900D02*
X8364791Y-7085424D01*
X8364791Y-7085424D02*
X8374315Y-7104472D01*
X8374315Y-7104472D02*
X8374315Y-7209234D01*
X8498124Y-7209234D02*
X8479077Y-7199710D01*
X8479077Y-7199710D02*
X8469553Y-7190186D01*
X8469553Y-7190186D02*
X8460029Y-7171138D01*
X8460029Y-7171138D02*
X8460029Y-7113996D01*
X8460029Y-7113996D02*
X8469553Y-7094948D01*
X8469553Y-7094948D02*
X8479077Y-7085424D01*
X8479077Y-7085424D02*
X8498124Y-7075900D01*
X8498124Y-7075900D02*
X8526696Y-7075900D01*
X8526696Y-7075900D02*
X8545743Y-7085424D01*
X8545743Y-7085424D02*
X8555267Y-7094948D01*
X8555267Y-7094948D02*
X8564791Y-7113996D01*
X8564791Y-7113996D02*
X8564791Y-7171138D01*
X8564791Y-7171138D02*
X8555267Y-7190186D01*
X8555267Y-7190186D02*
X8545743Y-7199710D01*
X8545743Y-7199710D02*
X8526696Y-7209234D01*
X8526696Y-7209234D02*
X8498124Y-7209234D01*
X8621934Y-7075900D02*
X8698124Y-7075900D01*
X8650505Y-7009234D02*
X8650505Y-7180662D01*
X8650505Y-7180662D02*
X8660029Y-7199710D01*
X8660029Y-7199710D02*
X8679077Y-7209234D01*
X8679077Y-7209234D02*
X8698124Y-7209234D01*
X8917172Y-7075900D02*
X8917172Y-7275900D01*
X8917172Y-7085424D02*
X8936220Y-7075900D01*
X8936220Y-7075900D02*
X8974315Y-7075900D01*
X8974315Y-7075900D02*
X8993362Y-7085424D01*
X8993362Y-7085424D02*
X9002886Y-7094948D01*
X9002886Y-7094948D02*
X9012410Y-7113996D01*
X9012410Y-7113996D02*
X9012410Y-7171138D01*
X9012410Y-7171138D02*
X9002886Y-7190186D01*
X9002886Y-7190186D02*
X8993362Y-7199710D01*
X8993362Y-7199710D02*
X8974315Y-7209234D01*
X8974315Y-7209234D02*
X8936220Y-7209234D01*
X8936220Y-7209234D02*
X8917172Y-7199710D01*
X9126696Y-7209234D02*
X9107648Y-7199710D01*
X9107648Y-7199710D02*
X9098124Y-7180662D01*
X9098124Y-7180662D02*
X9098124Y-7009234D01*
X9288601Y-7209234D02*
X9288601Y-7104472D01*
X9288601Y-7104472D02*
X9279077Y-7085424D01*
X9279077Y-7085424D02*
X9260029Y-7075900D01*
X9260029Y-7075900D02*
X9221934Y-7075900D01*
X9221934Y-7075900D02*
X9202886Y-7085424D01*
X9288601Y-7199710D02*
X9269553Y-7209234D01*
X9269553Y-7209234D02*
X9221934Y-7209234D01*
X9221934Y-7209234D02*
X9202886Y-7199710D01*
X9202886Y-7199710D02*
X9193362Y-7180662D01*
X9193362Y-7180662D02*
X9193362Y-7161615D01*
X9193362Y-7161615D02*
X9202886Y-7142567D01*
X9202886Y-7142567D02*
X9221934Y-7133043D01*
X9221934Y-7133043D02*
X9269553Y-7133043D01*
X9269553Y-7133043D02*
X9288601Y-7123519D01*
X9355267Y-7075900D02*
X9431458Y-7075900D01*
X9383839Y-7009234D02*
X9383839Y-7180662D01*
X9383839Y-7180662D02*
X9393362Y-7199710D01*
X9393362Y-7199710D02*
X9412410Y-7209234D01*
X9412410Y-7209234D02*
X9431458Y-7209234D01*
X9574315Y-7199710D02*
X9555267Y-7209234D01*
X9555267Y-7209234D02*
X9517172Y-7209234D01*
X9517172Y-7209234D02*
X9498124Y-7199710D01*
X9498124Y-7199710D02*
X9488601Y-7180662D01*
X9488601Y-7180662D02*
X9488601Y-7104472D01*
X9488601Y-7104472D02*
X9498124Y-7085424D01*
X9498124Y-7085424D02*
X9517172Y-7075900D01*
X9517172Y-7075900D02*
X9555267Y-7075900D01*
X9555267Y-7075900D02*
X9574315Y-7085424D01*
X9574315Y-7085424D02*
X9583839Y-7104472D01*
X9583839Y-7104472D02*
X9583839Y-7123519D01*
X9583839Y-7123519D02*
X9488601Y-7142567D01*
X9755267Y-7209234D02*
X9755267Y-7009234D01*
X9755267Y-7199710D02*
X9736220Y-7209234D01*
X9736220Y-7209234D02*
X9698124Y-7209234D01*
X9698124Y-7209234D02*
X9679077Y-7199710D01*
X9679077Y-7199710D02*
X9669553Y-7190186D01*
X9669553Y-7190186D02*
X9660029Y-7171138D01*
X9660029Y-7171138D02*
X9660029Y-7113996D01*
X9660029Y-7113996D02*
X9669553Y-7094948D01*
X9669553Y-7094948D02*
X9679077Y-7085424D01*
X9679077Y-7085424D02*
X9698124Y-7075900D01*
X9698124Y-7075900D02*
X9736220Y-7075900D01*
X9736220Y-7075900D02*
X9755267Y-7085424D01*
X9831458Y-7285424D02*
X9840982Y-7275900D01*
X9840982Y-7275900D02*
X9860029Y-7247329D01*
X9860029Y-7247329D02*
X9869553Y-7228281D01*
X9869553Y-7228281D02*
X9879077Y-7199710D01*
X9879077Y-7199710D02*
X9888601Y-7152091D01*
X9888601Y-7152091D02*
X9888601Y-7113996D01*
X9888601Y-7113996D02*
X9879077Y-7066377D01*
X9879077Y-7066377D02*
X9869553Y-7037805D01*
X9869553Y-7037805D02*
X9860029Y-7018758D01*
X9860029Y-7018758D02*
X9840982Y-6990186D01*
X9840982Y-6990186D02*
X9831458Y-6980662D01*
M02*
