%TF.GenerationSoftware,KiCad,Pcbnew,8.0.8*%
%TF.CreationDate,2025-02-28T15:56:21+01:00*%
%TF.ProjectId,nervous-eda,6e657276-6f75-4732-9d65-64612e6b6963,1.0*%
%TF.SameCoordinates,Original*%
%TF.FileFunction,Drillmap*%
%TF.FilePolarity,Positive*%
%FSLAX45Y45*%
G04 Gerber Fmt 4.5, Leading zero omitted, Abs format (unit mm)*
G04 Created by KiCad (PCBNEW 8.0.8) date 2025-02-28 15:56:21*
%MOMM*%
%LPD*%
G01*
G04 APERTURE LIST*
%ADD10C,0.254000*%
%ADD11C,0.200000*%
%ADD12C,0.100000*%
G04 APERTURE END LIST*
D10*
X5498700Y-2200800D02*
X3301300Y-2200000D01*
X3100000Y-3800000D02*
X3100000Y-5998703D01*
X3300000Y-6200003D02*
G75*
G02*
X3100001Y-5998703I0J200003D01*
G01*
X3100000Y-2400000D02*
G75*
G02*
X3301300Y-2200000I200007J-3D01*
G01*
X3100000Y-3500000D02*
X3100000Y-2400000D01*
X5701300Y-6000003D02*
G75*
G02*
X5500000Y-6200006I-200010J3D01*
G01*
X5698700Y-2402100D02*
X5701300Y-6000003D01*
X5498700Y-2200800D02*
G75*
G02*
X5698696Y-2402100I-10J-200010D01*
G01*
X3400000Y-3800000D02*
X3100000Y-3800000D01*
X3400000Y-3500000D02*
X3400000Y-3800000D01*
X5500000Y-6200003D02*
X3300000Y-6200003D01*
X3100000Y-3500000D02*
X3400000Y-3500000D01*
D11*
D12*
X3951450Y-2282350D02*
X4050550Y-2381450D01*
X4050550Y-2282350D02*
X3951450Y-2381450D01*
X3951450Y-2485550D02*
X4050550Y-2584650D01*
X4050550Y-2485550D02*
X3951450Y-2584650D01*
X4459450Y-2383950D02*
X4558550Y-2483050D01*
X4558550Y-2383950D02*
X4459450Y-2483050D01*
X4771450Y-2287350D02*
X4870550Y-2386450D01*
X4870550Y-2287350D02*
X4771450Y-2386450D01*
X4771450Y-2490550D02*
X4870550Y-2589650D01*
X4870550Y-2490550D02*
X4771450Y-2589650D01*
X5279450Y-2388950D02*
X5378550Y-2488050D01*
X5378550Y-2388950D02*
X5279450Y-2488050D01*
D11*
X3401290Y-2400000D02*
G75*
G02*
X3201290Y-2400000I-100000J0D01*
G01*
X3201290Y-2400000D02*
G75*
G02*
X3401290Y-2400000I100000J0D01*
G01*
X5600000Y-6000003D02*
G75*
G02*
X5400000Y-6000003I-100000J0D01*
G01*
X5400000Y-6000003D02*
G75*
G02*
X5600000Y-6000003I100000J0D01*
G01*
X3348074Y-6524194D02*
X3348074Y-6324194D01*
X3348074Y-6324194D02*
X3395693Y-6324194D01*
X3395693Y-6324194D02*
X3424264Y-6333718D01*
X3424264Y-6333718D02*
X3443312Y-6352765D01*
X3443312Y-6352765D02*
X3452836Y-6371813D01*
X3452836Y-6371813D02*
X3462360Y-6409908D01*
X3462360Y-6409908D02*
X3462360Y-6438479D01*
X3462360Y-6438479D02*
X3452836Y-6476575D01*
X3452836Y-6476575D02*
X3443312Y-6495622D01*
X3443312Y-6495622D02*
X3424264Y-6514670D01*
X3424264Y-6514670D02*
X3395693Y-6524194D01*
X3395693Y-6524194D02*
X3348074Y-6524194D01*
X3548074Y-6524194D02*
X3548074Y-6390860D01*
X3548074Y-6428956D02*
X3557598Y-6409908D01*
X3557598Y-6409908D02*
X3567121Y-6400384D01*
X3567121Y-6400384D02*
X3586169Y-6390860D01*
X3586169Y-6390860D02*
X3605217Y-6390860D01*
X3671883Y-6524194D02*
X3671883Y-6390860D01*
X3671883Y-6324194D02*
X3662360Y-6333718D01*
X3662360Y-6333718D02*
X3671883Y-6343241D01*
X3671883Y-6343241D02*
X3681407Y-6333718D01*
X3681407Y-6333718D02*
X3671883Y-6324194D01*
X3671883Y-6324194D02*
X3671883Y-6343241D01*
X3795693Y-6524194D02*
X3776645Y-6514670D01*
X3776645Y-6514670D02*
X3767121Y-6495622D01*
X3767121Y-6495622D02*
X3767121Y-6324194D01*
X3900455Y-6524194D02*
X3881407Y-6514670D01*
X3881407Y-6514670D02*
X3871883Y-6495622D01*
X3871883Y-6495622D02*
X3871883Y-6324194D01*
X4129026Y-6524194D02*
X4129026Y-6324194D01*
X4129026Y-6324194D02*
X4195693Y-6467051D01*
X4195693Y-6467051D02*
X4262360Y-6324194D01*
X4262360Y-6324194D02*
X4262360Y-6524194D01*
X4443312Y-6524194D02*
X4443312Y-6419432D01*
X4443312Y-6419432D02*
X4433788Y-6400384D01*
X4433788Y-6400384D02*
X4414741Y-6390860D01*
X4414741Y-6390860D02*
X4376645Y-6390860D01*
X4376645Y-6390860D02*
X4357598Y-6400384D01*
X4443312Y-6514670D02*
X4424264Y-6524194D01*
X4424264Y-6524194D02*
X4376645Y-6524194D01*
X4376645Y-6524194D02*
X4357598Y-6514670D01*
X4357598Y-6514670D02*
X4348074Y-6495622D01*
X4348074Y-6495622D02*
X4348074Y-6476575D01*
X4348074Y-6476575D02*
X4357598Y-6457527D01*
X4357598Y-6457527D02*
X4376645Y-6448003D01*
X4376645Y-6448003D02*
X4424264Y-6448003D01*
X4424264Y-6448003D02*
X4443312Y-6438479D01*
X4538550Y-6390860D02*
X4538550Y-6590860D01*
X4538550Y-6400384D02*
X4557598Y-6390860D01*
X4557598Y-6390860D02*
X4595693Y-6390860D01*
X4595693Y-6390860D02*
X4614741Y-6400384D01*
X4614741Y-6400384D02*
X4624264Y-6409908D01*
X4624264Y-6409908D02*
X4633788Y-6428956D01*
X4633788Y-6428956D02*
X4633788Y-6486098D01*
X4633788Y-6486098D02*
X4624264Y-6505146D01*
X4624264Y-6505146D02*
X4614741Y-6514670D01*
X4614741Y-6514670D02*
X4595693Y-6524194D01*
X4595693Y-6524194D02*
X4557598Y-6524194D01*
X4557598Y-6524194D02*
X4538550Y-6514670D01*
X4719503Y-6505146D02*
X4729026Y-6514670D01*
X4729026Y-6514670D02*
X4719503Y-6524194D01*
X4719503Y-6524194D02*
X4709979Y-6514670D01*
X4709979Y-6514670D02*
X4719503Y-6505146D01*
X4719503Y-6505146D02*
X4719503Y-6524194D01*
X4719503Y-6400384D02*
X4729026Y-6409908D01*
X4729026Y-6409908D02*
X4719503Y-6419432D01*
X4719503Y-6419432D02*
X4709979Y-6409908D01*
X4709979Y-6409908D02*
X4719503Y-6400384D01*
X4719503Y-6400384D02*
X4719503Y-6419432D01*
D12*
X2988197Y-6803160D02*
X3087297Y-6902260D01*
X3087297Y-6803160D02*
X2988197Y-6902260D01*
D11*
X3386169Y-6744194D02*
X3405217Y-6744194D01*
X3405217Y-6744194D02*
X3424264Y-6753718D01*
X3424264Y-6753718D02*
X3433788Y-6763241D01*
X3433788Y-6763241D02*
X3443312Y-6782289D01*
X3443312Y-6782289D02*
X3452836Y-6820384D01*
X3452836Y-6820384D02*
X3452836Y-6868003D01*
X3452836Y-6868003D02*
X3443312Y-6906098D01*
X3443312Y-6906098D02*
X3433788Y-6925146D01*
X3433788Y-6925146D02*
X3424264Y-6934670D01*
X3424264Y-6934670D02*
X3405217Y-6944194D01*
X3405217Y-6944194D02*
X3386169Y-6944194D01*
X3386169Y-6944194D02*
X3367121Y-6934670D01*
X3367121Y-6934670D02*
X3357598Y-6925146D01*
X3357598Y-6925146D02*
X3348074Y-6906098D01*
X3348074Y-6906098D02*
X3338550Y-6868003D01*
X3338550Y-6868003D02*
X3338550Y-6820384D01*
X3338550Y-6820384D02*
X3348074Y-6782289D01*
X3348074Y-6782289D02*
X3357598Y-6763241D01*
X3357598Y-6763241D02*
X3367121Y-6753718D01*
X3367121Y-6753718D02*
X3386169Y-6744194D01*
X3538550Y-6925146D02*
X3548074Y-6934670D01*
X3548074Y-6934670D02*
X3538550Y-6944194D01*
X3538550Y-6944194D02*
X3529026Y-6934670D01*
X3529026Y-6934670D02*
X3538550Y-6925146D01*
X3538550Y-6925146D02*
X3538550Y-6944194D01*
X3643312Y-6944194D02*
X3681407Y-6944194D01*
X3681407Y-6944194D02*
X3700455Y-6934670D01*
X3700455Y-6934670D02*
X3709979Y-6925146D01*
X3709979Y-6925146D02*
X3729026Y-6896575D01*
X3729026Y-6896575D02*
X3738550Y-6858479D01*
X3738550Y-6858479D02*
X3738550Y-6782289D01*
X3738550Y-6782289D02*
X3729026Y-6763241D01*
X3729026Y-6763241D02*
X3719502Y-6753718D01*
X3719502Y-6753718D02*
X3700455Y-6744194D01*
X3700455Y-6744194D02*
X3662360Y-6744194D01*
X3662360Y-6744194D02*
X3643312Y-6753718D01*
X3643312Y-6753718D02*
X3633788Y-6763241D01*
X3633788Y-6763241D02*
X3624264Y-6782289D01*
X3624264Y-6782289D02*
X3624264Y-6829908D01*
X3624264Y-6829908D02*
X3633788Y-6848956D01*
X3633788Y-6848956D02*
X3643312Y-6858479D01*
X3643312Y-6858479D02*
X3662360Y-6868003D01*
X3662360Y-6868003D02*
X3700455Y-6868003D01*
X3700455Y-6868003D02*
X3719502Y-6858479D01*
X3719502Y-6858479D02*
X3729026Y-6848956D01*
X3729026Y-6848956D02*
X3738550Y-6829908D01*
X3833788Y-6944194D02*
X3871883Y-6944194D01*
X3871883Y-6944194D02*
X3890931Y-6934670D01*
X3890931Y-6934670D02*
X3900455Y-6925146D01*
X3900455Y-6925146D02*
X3919502Y-6896575D01*
X3919502Y-6896575D02*
X3929026Y-6858479D01*
X3929026Y-6858479D02*
X3929026Y-6782289D01*
X3929026Y-6782289D02*
X3919502Y-6763241D01*
X3919502Y-6763241D02*
X3909979Y-6753718D01*
X3909979Y-6753718D02*
X3890931Y-6744194D01*
X3890931Y-6744194D02*
X3852836Y-6744194D01*
X3852836Y-6744194D02*
X3833788Y-6753718D01*
X3833788Y-6753718D02*
X3824264Y-6763241D01*
X3824264Y-6763241D02*
X3814741Y-6782289D01*
X3814741Y-6782289D02*
X3814741Y-6829908D01*
X3814741Y-6829908D02*
X3824264Y-6848956D01*
X3824264Y-6848956D02*
X3833788Y-6858479D01*
X3833788Y-6858479D02*
X3852836Y-6868003D01*
X3852836Y-6868003D02*
X3890931Y-6868003D01*
X3890931Y-6868003D02*
X3909979Y-6858479D01*
X3909979Y-6858479D02*
X3919502Y-6848956D01*
X3919502Y-6848956D02*
X3929026Y-6829908D01*
X4119502Y-6944194D02*
X4005217Y-6944194D01*
X4062360Y-6944194D02*
X4062360Y-6744194D01*
X4062360Y-6744194D02*
X4043312Y-6772765D01*
X4043312Y-6772765D02*
X4024264Y-6791813D01*
X4024264Y-6791813D02*
X4005217Y-6801337D01*
X4205217Y-6944194D02*
X4205217Y-6810860D01*
X4205217Y-6829908D02*
X4214741Y-6820384D01*
X4214741Y-6820384D02*
X4233788Y-6810860D01*
X4233788Y-6810860D02*
X4262360Y-6810860D01*
X4262360Y-6810860D02*
X4281407Y-6820384D01*
X4281407Y-6820384D02*
X4290931Y-6839432D01*
X4290931Y-6839432D02*
X4290931Y-6944194D01*
X4290931Y-6839432D02*
X4300455Y-6820384D01*
X4300455Y-6820384D02*
X4319503Y-6810860D01*
X4319503Y-6810860D02*
X4348074Y-6810860D01*
X4348074Y-6810860D02*
X4367122Y-6820384D01*
X4367122Y-6820384D02*
X4376645Y-6839432D01*
X4376645Y-6839432D02*
X4376645Y-6944194D01*
X4471884Y-6944194D02*
X4471884Y-6810860D01*
X4471884Y-6829908D02*
X4481407Y-6820384D01*
X4481407Y-6820384D02*
X4500455Y-6810860D01*
X4500455Y-6810860D02*
X4529026Y-6810860D01*
X4529026Y-6810860D02*
X4548074Y-6820384D01*
X4548074Y-6820384D02*
X4557598Y-6839432D01*
X4557598Y-6839432D02*
X4557598Y-6944194D01*
X4557598Y-6839432D02*
X4567122Y-6820384D01*
X4567122Y-6820384D02*
X4586169Y-6810860D01*
X4586169Y-6810860D02*
X4614741Y-6810860D01*
X4614741Y-6810860D02*
X4633788Y-6820384D01*
X4633788Y-6820384D02*
X4643312Y-6839432D01*
X4643312Y-6839432D02*
X4643312Y-6944194D01*
X5033788Y-6734670D02*
X4862360Y-6991813D01*
X5290931Y-6744194D02*
X5309979Y-6744194D01*
X5309979Y-6744194D02*
X5329027Y-6753718D01*
X5329027Y-6753718D02*
X5338550Y-6763241D01*
X5338550Y-6763241D02*
X5348074Y-6782289D01*
X5348074Y-6782289D02*
X5357598Y-6820384D01*
X5357598Y-6820384D02*
X5357598Y-6868003D01*
X5357598Y-6868003D02*
X5348074Y-6906098D01*
X5348074Y-6906098D02*
X5338550Y-6925146D01*
X5338550Y-6925146D02*
X5329027Y-6934670D01*
X5329027Y-6934670D02*
X5309979Y-6944194D01*
X5309979Y-6944194D02*
X5290931Y-6944194D01*
X5290931Y-6944194D02*
X5271884Y-6934670D01*
X5271884Y-6934670D02*
X5262360Y-6925146D01*
X5262360Y-6925146D02*
X5252836Y-6906098D01*
X5252836Y-6906098D02*
X5243312Y-6868003D01*
X5243312Y-6868003D02*
X5243312Y-6820384D01*
X5243312Y-6820384D02*
X5252836Y-6782289D01*
X5252836Y-6782289D02*
X5262360Y-6763241D01*
X5262360Y-6763241D02*
X5271884Y-6753718D01*
X5271884Y-6753718D02*
X5290931Y-6744194D01*
X5443312Y-6925146D02*
X5452836Y-6934670D01*
X5452836Y-6934670D02*
X5443312Y-6944194D01*
X5443312Y-6944194D02*
X5433788Y-6934670D01*
X5433788Y-6934670D02*
X5443312Y-6925146D01*
X5443312Y-6925146D02*
X5443312Y-6944194D01*
X5576646Y-6744194D02*
X5595693Y-6744194D01*
X5595693Y-6744194D02*
X5614741Y-6753718D01*
X5614741Y-6753718D02*
X5624265Y-6763241D01*
X5624265Y-6763241D02*
X5633788Y-6782289D01*
X5633788Y-6782289D02*
X5643312Y-6820384D01*
X5643312Y-6820384D02*
X5643312Y-6868003D01*
X5643312Y-6868003D02*
X5633788Y-6906098D01*
X5633788Y-6906098D02*
X5624265Y-6925146D01*
X5624265Y-6925146D02*
X5614741Y-6934670D01*
X5614741Y-6934670D02*
X5595693Y-6944194D01*
X5595693Y-6944194D02*
X5576646Y-6944194D01*
X5576646Y-6944194D02*
X5557598Y-6934670D01*
X5557598Y-6934670D02*
X5548074Y-6925146D01*
X5548074Y-6925146D02*
X5538550Y-6906098D01*
X5538550Y-6906098D02*
X5529027Y-6868003D01*
X5529027Y-6868003D02*
X5529027Y-6820384D01*
X5529027Y-6820384D02*
X5538550Y-6782289D01*
X5538550Y-6782289D02*
X5548074Y-6763241D01*
X5548074Y-6763241D02*
X5557598Y-6753718D01*
X5557598Y-6753718D02*
X5576646Y-6744194D01*
X5709979Y-6744194D02*
X5833788Y-6744194D01*
X5833788Y-6744194D02*
X5767122Y-6820384D01*
X5767122Y-6820384D02*
X5795693Y-6820384D01*
X5795693Y-6820384D02*
X5814741Y-6829908D01*
X5814741Y-6829908D02*
X5824265Y-6839432D01*
X5824265Y-6839432D02*
X5833788Y-6858479D01*
X5833788Y-6858479D02*
X5833788Y-6906098D01*
X5833788Y-6906098D02*
X5824265Y-6925146D01*
X5824265Y-6925146D02*
X5814741Y-6934670D01*
X5814741Y-6934670D02*
X5795693Y-6944194D01*
X5795693Y-6944194D02*
X5738550Y-6944194D01*
X5738550Y-6944194D02*
X5719503Y-6934670D01*
X5719503Y-6934670D02*
X5709979Y-6925146D01*
X5929026Y-6944194D02*
X5967122Y-6944194D01*
X5967122Y-6944194D02*
X5986169Y-6934670D01*
X5986169Y-6934670D02*
X5995693Y-6925146D01*
X5995693Y-6925146D02*
X6014741Y-6896575D01*
X6014741Y-6896575D02*
X6024265Y-6858479D01*
X6024265Y-6858479D02*
X6024265Y-6782289D01*
X6024265Y-6782289D02*
X6014741Y-6763241D01*
X6014741Y-6763241D02*
X6005217Y-6753718D01*
X6005217Y-6753718D02*
X5986169Y-6744194D01*
X5986169Y-6744194D02*
X5948074Y-6744194D01*
X5948074Y-6744194D02*
X5929026Y-6753718D01*
X5929026Y-6753718D02*
X5919503Y-6763241D01*
X5919503Y-6763241D02*
X5909979Y-6782289D01*
X5909979Y-6782289D02*
X5909979Y-6829908D01*
X5909979Y-6829908D02*
X5919503Y-6848956D01*
X5919503Y-6848956D02*
X5929026Y-6858479D01*
X5929026Y-6858479D02*
X5948074Y-6868003D01*
X5948074Y-6868003D02*
X5986169Y-6868003D01*
X5986169Y-6868003D02*
X6005217Y-6858479D01*
X6005217Y-6858479D02*
X6014741Y-6848956D01*
X6014741Y-6848956D02*
X6024265Y-6829908D01*
X6148074Y-6744194D02*
X6167122Y-6744194D01*
X6167122Y-6744194D02*
X6186169Y-6753718D01*
X6186169Y-6753718D02*
X6195693Y-6763241D01*
X6195693Y-6763241D02*
X6205217Y-6782289D01*
X6205217Y-6782289D02*
X6214741Y-6820384D01*
X6214741Y-6820384D02*
X6214741Y-6868003D01*
X6214741Y-6868003D02*
X6205217Y-6906098D01*
X6205217Y-6906098D02*
X6195693Y-6925146D01*
X6195693Y-6925146D02*
X6186169Y-6934670D01*
X6186169Y-6934670D02*
X6167122Y-6944194D01*
X6167122Y-6944194D02*
X6148074Y-6944194D01*
X6148074Y-6944194D02*
X6129026Y-6934670D01*
X6129026Y-6934670D02*
X6119503Y-6925146D01*
X6119503Y-6925146D02*
X6109979Y-6906098D01*
X6109979Y-6906098D02*
X6100455Y-6868003D01*
X6100455Y-6868003D02*
X6100455Y-6820384D01*
X6100455Y-6820384D02*
X6109979Y-6782289D01*
X6109979Y-6782289D02*
X6119503Y-6763241D01*
X6119503Y-6763241D02*
X6129026Y-6753718D01*
X6129026Y-6753718D02*
X6148074Y-6744194D01*
X6290931Y-6744194D02*
X6290931Y-6782289D01*
X6367122Y-6744194D02*
X6367122Y-6782289D01*
X6662360Y-7020384D02*
X6652836Y-7010860D01*
X6652836Y-7010860D02*
X6633788Y-6982289D01*
X6633788Y-6982289D02*
X6624265Y-6963241D01*
X6624265Y-6963241D02*
X6614741Y-6934670D01*
X6614741Y-6934670D02*
X6605217Y-6887051D01*
X6605217Y-6887051D02*
X6605217Y-6848956D01*
X6605217Y-6848956D02*
X6614741Y-6801337D01*
X6614741Y-6801337D02*
X6624265Y-6772765D01*
X6624265Y-6772765D02*
X6633788Y-6753718D01*
X6633788Y-6753718D02*
X6652836Y-6725146D01*
X6652836Y-6725146D02*
X6662360Y-6715622D01*
X6824265Y-6744194D02*
X6786169Y-6744194D01*
X6786169Y-6744194D02*
X6767122Y-6753718D01*
X6767122Y-6753718D02*
X6757598Y-6763241D01*
X6757598Y-6763241D02*
X6738550Y-6791813D01*
X6738550Y-6791813D02*
X6729027Y-6829908D01*
X6729027Y-6829908D02*
X6729027Y-6906098D01*
X6729027Y-6906098D02*
X6738550Y-6925146D01*
X6738550Y-6925146D02*
X6748074Y-6934670D01*
X6748074Y-6934670D02*
X6767122Y-6944194D01*
X6767122Y-6944194D02*
X6805217Y-6944194D01*
X6805217Y-6944194D02*
X6824265Y-6934670D01*
X6824265Y-6934670D02*
X6833788Y-6925146D01*
X6833788Y-6925146D02*
X6843312Y-6906098D01*
X6843312Y-6906098D02*
X6843312Y-6858479D01*
X6843312Y-6858479D02*
X6833788Y-6839432D01*
X6833788Y-6839432D02*
X6824265Y-6829908D01*
X6824265Y-6829908D02*
X6805217Y-6820384D01*
X6805217Y-6820384D02*
X6767122Y-6820384D01*
X6767122Y-6820384D02*
X6748074Y-6829908D01*
X6748074Y-6829908D02*
X6738550Y-6839432D01*
X6738550Y-6839432D02*
X6729027Y-6858479D01*
X7081408Y-6944194D02*
X7081408Y-6744194D01*
X7167122Y-6944194D02*
X7167122Y-6839432D01*
X7167122Y-6839432D02*
X7157598Y-6820384D01*
X7157598Y-6820384D02*
X7138550Y-6810860D01*
X7138550Y-6810860D02*
X7109979Y-6810860D01*
X7109979Y-6810860D02*
X7090931Y-6820384D01*
X7090931Y-6820384D02*
X7081408Y-6829908D01*
X7290931Y-6944194D02*
X7271884Y-6934670D01*
X7271884Y-6934670D02*
X7262360Y-6925146D01*
X7262360Y-6925146D02*
X7252836Y-6906098D01*
X7252836Y-6906098D02*
X7252836Y-6848956D01*
X7252836Y-6848956D02*
X7262360Y-6829908D01*
X7262360Y-6829908D02*
X7271884Y-6820384D01*
X7271884Y-6820384D02*
X7290931Y-6810860D01*
X7290931Y-6810860D02*
X7319503Y-6810860D01*
X7319503Y-6810860D02*
X7338550Y-6820384D01*
X7338550Y-6820384D02*
X7348074Y-6829908D01*
X7348074Y-6829908D02*
X7357598Y-6848956D01*
X7357598Y-6848956D02*
X7357598Y-6906098D01*
X7357598Y-6906098D02*
X7348074Y-6925146D01*
X7348074Y-6925146D02*
X7338550Y-6934670D01*
X7338550Y-6934670D02*
X7319503Y-6944194D01*
X7319503Y-6944194D02*
X7290931Y-6944194D01*
X7471884Y-6944194D02*
X7452836Y-6934670D01*
X7452836Y-6934670D02*
X7443312Y-6915622D01*
X7443312Y-6915622D02*
X7443312Y-6744194D01*
X7624265Y-6934670D02*
X7605217Y-6944194D01*
X7605217Y-6944194D02*
X7567122Y-6944194D01*
X7567122Y-6944194D02*
X7548074Y-6934670D01*
X7548074Y-6934670D02*
X7538550Y-6915622D01*
X7538550Y-6915622D02*
X7538550Y-6839432D01*
X7538550Y-6839432D02*
X7548074Y-6820384D01*
X7548074Y-6820384D02*
X7567122Y-6810860D01*
X7567122Y-6810860D02*
X7605217Y-6810860D01*
X7605217Y-6810860D02*
X7624265Y-6820384D01*
X7624265Y-6820384D02*
X7633789Y-6839432D01*
X7633789Y-6839432D02*
X7633789Y-6858479D01*
X7633789Y-6858479D02*
X7538550Y-6877527D01*
X7709979Y-6934670D02*
X7729027Y-6944194D01*
X7729027Y-6944194D02*
X7767122Y-6944194D01*
X7767122Y-6944194D02*
X7786170Y-6934670D01*
X7786170Y-6934670D02*
X7795693Y-6915622D01*
X7795693Y-6915622D02*
X7795693Y-6906098D01*
X7795693Y-6906098D02*
X7786170Y-6887051D01*
X7786170Y-6887051D02*
X7767122Y-6877527D01*
X7767122Y-6877527D02*
X7738550Y-6877527D01*
X7738550Y-6877527D02*
X7719503Y-6868003D01*
X7719503Y-6868003D02*
X7709979Y-6848956D01*
X7709979Y-6848956D02*
X7709979Y-6839432D01*
X7709979Y-6839432D02*
X7719503Y-6820384D01*
X7719503Y-6820384D02*
X7738550Y-6810860D01*
X7738550Y-6810860D02*
X7767122Y-6810860D01*
X7767122Y-6810860D02*
X7786170Y-6820384D01*
X7862360Y-7020384D02*
X7871884Y-7010860D01*
X7871884Y-7010860D02*
X7890931Y-6982289D01*
X7890931Y-6982289D02*
X7900455Y-6963241D01*
X7900455Y-6963241D02*
X7909979Y-6934670D01*
X7909979Y-6934670D02*
X7919503Y-6887051D01*
X7919503Y-6887051D02*
X7919503Y-6848956D01*
X7919503Y-6848956D02*
X7909979Y-6801337D01*
X7909979Y-6801337D02*
X7900455Y-6772765D01*
X7900455Y-6772765D02*
X7890931Y-6753718D01*
X7890931Y-6753718D02*
X7871884Y-6725146D01*
X7871884Y-6725146D02*
X7862360Y-6715622D01*
X8224265Y-7020384D02*
X8214741Y-7010860D01*
X8214741Y-7010860D02*
X8195693Y-6982289D01*
X8195693Y-6982289D02*
X8186170Y-6963241D01*
X8186170Y-6963241D02*
X8176646Y-6934670D01*
X8176646Y-6934670D02*
X8167122Y-6887051D01*
X8167122Y-6887051D02*
X8167122Y-6848956D01*
X8167122Y-6848956D02*
X8176646Y-6801337D01*
X8176646Y-6801337D02*
X8186170Y-6772765D01*
X8186170Y-6772765D02*
X8195693Y-6753718D01*
X8195693Y-6753718D02*
X8214741Y-6725146D01*
X8214741Y-6725146D02*
X8224265Y-6715622D01*
X8300455Y-6810860D02*
X8300455Y-6944194D01*
X8300455Y-6829908D02*
X8309979Y-6820384D01*
X8309979Y-6820384D02*
X8329027Y-6810860D01*
X8329027Y-6810860D02*
X8357598Y-6810860D01*
X8357598Y-6810860D02*
X8376646Y-6820384D01*
X8376646Y-6820384D02*
X8386170Y-6839432D01*
X8386170Y-6839432D02*
X8386170Y-6944194D01*
X8509979Y-6944194D02*
X8490932Y-6934670D01*
X8490932Y-6934670D02*
X8481408Y-6925146D01*
X8481408Y-6925146D02*
X8471884Y-6906098D01*
X8471884Y-6906098D02*
X8471884Y-6848956D01*
X8471884Y-6848956D02*
X8481408Y-6829908D01*
X8481408Y-6829908D02*
X8490932Y-6820384D01*
X8490932Y-6820384D02*
X8509979Y-6810860D01*
X8509979Y-6810860D02*
X8538551Y-6810860D01*
X8538551Y-6810860D02*
X8557598Y-6820384D01*
X8557598Y-6820384D02*
X8567122Y-6829908D01*
X8567122Y-6829908D02*
X8576646Y-6848956D01*
X8576646Y-6848956D02*
X8576646Y-6906098D01*
X8576646Y-6906098D02*
X8567122Y-6925146D01*
X8567122Y-6925146D02*
X8557598Y-6934670D01*
X8557598Y-6934670D02*
X8538551Y-6944194D01*
X8538551Y-6944194D02*
X8509979Y-6944194D01*
X8633789Y-6810860D02*
X8709979Y-6810860D01*
X8662360Y-6744194D02*
X8662360Y-6915622D01*
X8662360Y-6915622D02*
X8671884Y-6934670D01*
X8671884Y-6934670D02*
X8690932Y-6944194D01*
X8690932Y-6944194D02*
X8709979Y-6944194D01*
X8929027Y-6810860D02*
X8929027Y-7010860D01*
X8929027Y-6820384D02*
X8948074Y-6810860D01*
X8948074Y-6810860D02*
X8986170Y-6810860D01*
X8986170Y-6810860D02*
X9005217Y-6820384D01*
X9005217Y-6820384D02*
X9014741Y-6829908D01*
X9014741Y-6829908D02*
X9024265Y-6848956D01*
X9024265Y-6848956D02*
X9024265Y-6906098D01*
X9024265Y-6906098D02*
X9014741Y-6925146D01*
X9014741Y-6925146D02*
X9005217Y-6934670D01*
X9005217Y-6934670D02*
X8986170Y-6944194D01*
X8986170Y-6944194D02*
X8948074Y-6944194D01*
X8948074Y-6944194D02*
X8929027Y-6934670D01*
X9138551Y-6944194D02*
X9119503Y-6934670D01*
X9119503Y-6934670D02*
X9109979Y-6915622D01*
X9109979Y-6915622D02*
X9109979Y-6744194D01*
X9300455Y-6944194D02*
X9300455Y-6839432D01*
X9300455Y-6839432D02*
X9290932Y-6820384D01*
X9290932Y-6820384D02*
X9271884Y-6810860D01*
X9271884Y-6810860D02*
X9233789Y-6810860D01*
X9233789Y-6810860D02*
X9214741Y-6820384D01*
X9300455Y-6934670D02*
X9281408Y-6944194D01*
X9281408Y-6944194D02*
X9233789Y-6944194D01*
X9233789Y-6944194D02*
X9214741Y-6934670D01*
X9214741Y-6934670D02*
X9205217Y-6915622D01*
X9205217Y-6915622D02*
X9205217Y-6896575D01*
X9205217Y-6896575D02*
X9214741Y-6877527D01*
X9214741Y-6877527D02*
X9233789Y-6868003D01*
X9233789Y-6868003D02*
X9281408Y-6868003D01*
X9281408Y-6868003D02*
X9300455Y-6858479D01*
X9367122Y-6810860D02*
X9443313Y-6810860D01*
X9395694Y-6744194D02*
X9395694Y-6915622D01*
X9395694Y-6915622D02*
X9405217Y-6934670D01*
X9405217Y-6934670D02*
X9424265Y-6944194D01*
X9424265Y-6944194D02*
X9443313Y-6944194D01*
X9586170Y-6934670D02*
X9567122Y-6944194D01*
X9567122Y-6944194D02*
X9529027Y-6944194D01*
X9529027Y-6944194D02*
X9509979Y-6934670D01*
X9509979Y-6934670D02*
X9500455Y-6915622D01*
X9500455Y-6915622D02*
X9500455Y-6839432D01*
X9500455Y-6839432D02*
X9509979Y-6820384D01*
X9509979Y-6820384D02*
X9529027Y-6810860D01*
X9529027Y-6810860D02*
X9567122Y-6810860D01*
X9567122Y-6810860D02*
X9586170Y-6820384D01*
X9586170Y-6820384D02*
X9595694Y-6839432D01*
X9595694Y-6839432D02*
X9595694Y-6858479D01*
X9595694Y-6858479D02*
X9500455Y-6877527D01*
X9767122Y-6944194D02*
X9767122Y-6744194D01*
X9767122Y-6934670D02*
X9748075Y-6944194D01*
X9748075Y-6944194D02*
X9709979Y-6944194D01*
X9709979Y-6944194D02*
X9690932Y-6934670D01*
X9690932Y-6934670D02*
X9681408Y-6925146D01*
X9681408Y-6925146D02*
X9671884Y-6906098D01*
X9671884Y-6906098D02*
X9671884Y-6848956D01*
X9671884Y-6848956D02*
X9681408Y-6829908D01*
X9681408Y-6829908D02*
X9690932Y-6820384D01*
X9690932Y-6820384D02*
X9709979Y-6810860D01*
X9709979Y-6810860D02*
X9748075Y-6810860D01*
X9748075Y-6810860D02*
X9767122Y-6820384D01*
X9843313Y-7020384D02*
X9852836Y-7010860D01*
X9852836Y-7010860D02*
X9871884Y-6982289D01*
X9871884Y-6982289D02*
X9881408Y-6963241D01*
X9881408Y-6963241D02*
X9890932Y-6934670D01*
X9890932Y-6934670D02*
X9900455Y-6887051D01*
X9900455Y-6887051D02*
X9900455Y-6848956D01*
X9900455Y-6848956D02*
X9890932Y-6801337D01*
X9890932Y-6801337D02*
X9881408Y-6772765D01*
X9881408Y-6772765D02*
X9871884Y-6753718D01*
X9871884Y-6753718D02*
X9852836Y-6725146D01*
X9852836Y-6725146D02*
X9843313Y-6715622D01*
X3087297Y-7116710D02*
G75*
G02*
X2887297Y-7116710I-100000J0D01*
G01*
X2887297Y-7116710D02*
G75*
G02*
X3087297Y-7116710I100000J0D01*
G01*
X3338550Y-7027241D02*
X3348074Y-7017718D01*
X3348074Y-7017718D02*
X3367121Y-7008194D01*
X3367121Y-7008194D02*
X3414741Y-7008194D01*
X3414741Y-7008194D02*
X3433788Y-7017718D01*
X3433788Y-7017718D02*
X3443312Y-7027241D01*
X3443312Y-7027241D02*
X3452836Y-7046289D01*
X3452836Y-7046289D02*
X3452836Y-7065337D01*
X3452836Y-7065337D02*
X3443312Y-7093908D01*
X3443312Y-7093908D02*
X3329026Y-7208194D01*
X3329026Y-7208194D02*
X3452836Y-7208194D01*
X3538550Y-7189146D02*
X3548074Y-7198670D01*
X3548074Y-7198670D02*
X3538550Y-7208194D01*
X3538550Y-7208194D02*
X3529026Y-7198670D01*
X3529026Y-7198670D02*
X3538550Y-7189146D01*
X3538550Y-7189146D02*
X3538550Y-7208194D01*
X3671883Y-7008194D02*
X3690931Y-7008194D01*
X3690931Y-7008194D02*
X3709979Y-7017718D01*
X3709979Y-7017718D02*
X3719502Y-7027241D01*
X3719502Y-7027241D02*
X3729026Y-7046289D01*
X3729026Y-7046289D02*
X3738550Y-7084384D01*
X3738550Y-7084384D02*
X3738550Y-7132003D01*
X3738550Y-7132003D02*
X3729026Y-7170098D01*
X3729026Y-7170098D02*
X3719502Y-7189146D01*
X3719502Y-7189146D02*
X3709979Y-7198670D01*
X3709979Y-7198670D02*
X3690931Y-7208194D01*
X3690931Y-7208194D02*
X3671883Y-7208194D01*
X3671883Y-7208194D02*
X3652836Y-7198670D01*
X3652836Y-7198670D02*
X3643312Y-7189146D01*
X3643312Y-7189146D02*
X3633788Y-7170098D01*
X3633788Y-7170098D02*
X3624264Y-7132003D01*
X3624264Y-7132003D02*
X3624264Y-7084384D01*
X3624264Y-7084384D02*
X3633788Y-7046289D01*
X3633788Y-7046289D02*
X3643312Y-7027241D01*
X3643312Y-7027241D02*
X3652836Y-7017718D01*
X3652836Y-7017718D02*
X3671883Y-7008194D01*
X3862360Y-7008194D02*
X3881407Y-7008194D01*
X3881407Y-7008194D02*
X3900455Y-7017718D01*
X3900455Y-7017718D02*
X3909979Y-7027241D01*
X3909979Y-7027241D02*
X3919502Y-7046289D01*
X3919502Y-7046289D02*
X3929026Y-7084384D01*
X3929026Y-7084384D02*
X3929026Y-7132003D01*
X3929026Y-7132003D02*
X3919502Y-7170098D01*
X3919502Y-7170098D02*
X3909979Y-7189146D01*
X3909979Y-7189146D02*
X3900455Y-7198670D01*
X3900455Y-7198670D02*
X3881407Y-7208194D01*
X3881407Y-7208194D02*
X3862360Y-7208194D01*
X3862360Y-7208194D02*
X3843312Y-7198670D01*
X3843312Y-7198670D02*
X3833788Y-7189146D01*
X3833788Y-7189146D02*
X3824264Y-7170098D01*
X3824264Y-7170098D02*
X3814741Y-7132003D01*
X3814741Y-7132003D02*
X3814741Y-7084384D01*
X3814741Y-7084384D02*
X3824264Y-7046289D01*
X3824264Y-7046289D02*
X3833788Y-7027241D01*
X3833788Y-7027241D02*
X3843312Y-7017718D01*
X3843312Y-7017718D02*
X3862360Y-7008194D01*
X4052836Y-7008194D02*
X4071883Y-7008194D01*
X4071883Y-7008194D02*
X4090931Y-7017718D01*
X4090931Y-7017718D02*
X4100455Y-7027241D01*
X4100455Y-7027241D02*
X4109979Y-7046289D01*
X4109979Y-7046289D02*
X4119502Y-7084384D01*
X4119502Y-7084384D02*
X4119502Y-7132003D01*
X4119502Y-7132003D02*
X4109979Y-7170098D01*
X4109979Y-7170098D02*
X4100455Y-7189146D01*
X4100455Y-7189146D02*
X4090931Y-7198670D01*
X4090931Y-7198670D02*
X4071883Y-7208194D01*
X4071883Y-7208194D02*
X4052836Y-7208194D01*
X4052836Y-7208194D02*
X4033788Y-7198670D01*
X4033788Y-7198670D02*
X4024264Y-7189146D01*
X4024264Y-7189146D02*
X4014741Y-7170098D01*
X4014741Y-7170098D02*
X4005217Y-7132003D01*
X4005217Y-7132003D02*
X4005217Y-7084384D01*
X4005217Y-7084384D02*
X4014741Y-7046289D01*
X4014741Y-7046289D02*
X4024264Y-7027241D01*
X4024264Y-7027241D02*
X4033788Y-7017718D01*
X4033788Y-7017718D02*
X4052836Y-7008194D01*
X4205217Y-7208194D02*
X4205217Y-7074860D01*
X4205217Y-7093908D02*
X4214741Y-7084384D01*
X4214741Y-7084384D02*
X4233788Y-7074860D01*
X4233788Y-7074860D02*
X4262360Y-7074860D01*
X4262360Y-7074860D02*
X4281407Y-7084384D01*
X4281407Y-7084384D02*
X4290931Y-7103432D01*
X4290931Y-7103432D02*
X4290931Y-7208194D01*
X4290931Y-7103432D02*
X4300455Y-7084384D01*
X4300455Y-7084384D02*
X4319503Y-7074860D01*
X4319503Y-7074860D02*
X4348074Y-7074860D01*
X4348074Y-7074860D02*
X4367122Y-7084384D01*
X4367122Y-7084384D02*
X4376645Y-7103432D01*
X4376645Y-7103432D02*
X4376645Y-7208194D01*
X4471884Y-7208194D02*
X4471884Y-7074860D01*
X4471884Y-7093908D02*
X4481407Y-7084384D01*
X4481407Y-7084384D02*
X4500455Y-7074860D01*
X4500455Y-7074860D02*
X4529026Y-7074860D01*
X4529026Y-7074860D02*
X4548074Y-7084384D01*
X4548074Y-7084384D02*
X4557598Y-7103432D01*
X4557598Y-7103432D02*
X4557598Y-7208194D01*
X4557598Y-7103432D02*
X4567122Y-7084384D01*
X4567122Y-7084384D02*
X4586169Y-7074860D01*
X4586169Y-7074860D02*
X4614741Y-7074860D01*
X4614741Y-7074860D02*
X4633788Y-7084384D01*
X4633788Y-7084384D02*
X4643312Y-7103432D01*
X4643312Y-7103432D02*
X4643312Y-7208194D01*
X5033788Y-6998670D02*
X4862360Y-7255813D01*
X5290931Y-7008194D02*
X5309979Y-7008194D01*
X5309979Y-7008194D02*
X5329027Y-7017718D01*
X5329027Y-7017718D02*
X5338550Y-7027241D01*
X5338550Y-7027241D02*
X5348074Y-7046289D01*
X5348074Y-7046289D02*
X5357598Y-7084384D01*
X5357598Y-7084384D02*
X5357598Y-7132003D01*
X5357598Y-7132003D02*
X5348074Y-7170098D01*
X5348074Y-7170098D02*
X5338550Y-7189146D01*
X5338550Y-7189146D02*
X5329027Y-7198670D01*
X5329027Y-7198670D02*
X5309979Y-7208194D01*
X5309979Y-7208194D02*
X5290931Y-7208194D01*
X5290931Y-7208194D02*
X5271884Y-7198670D01*
X5271884Y-7198670D02*
X5262360Y-7189146D01*
X5262360Y-7189146D02*
X5252836Y-7170098D01*
X5252836Y-7170098D02*
X5243312Y-7132003D01*
X5243312Y-7132003D02*
X5243312Y-7084384D01*
X5243312Y-7084384D02*
X5252836Y-7046289D01*
X5252836Y-7046289D02*
X5262360Y-7027241D01*
X5262360Y-7027241D02*
X5271884Y-7017718D01*
X5271884Y-7017718D02*
X5290931Y-7008194D01*
X5443312Y-7189146D02*
X5452836Y-7198670D01*
X5452836Y-7198670D02*
X5443312Y-7208194D01*
X5443312Y-7208194D02*
X5433788Y-7198670D01*
X5433788Y-7198670D02*
X5443312Y-7189146D01*
X5443312Y-7189146D02*
X5443312Y-7208194D01*
X5576646Y-7008194D02*
X5595693Y-7008194D01*
X5595693Y-7008194D02*
X5614741Y-7017718D01*
X5614741Y-7017718D02*
X5624265Y-7027241D01*
X5624265Y-7027241D02*
X5633788Y-7046289D01*
X5633788Y-7046289D02*
X5643312Y-7084384D01*
X5643312Y-7084384D02*
X5643312Y-7132003D01*
X5643312Y-7132003D02*
X5633788Y-7170098D01*
X5633788Y-7170098D02*
X5624265Y-7189146D01*
X5624265Y-7189146D02*
X5614741Y-7198670D01*
X5614741Y-7198670D02*
X5595693Y-7208194D01*
X5595693Y-7208194D02*
X5576646Y-7208194D01*
X5576646Y-7208194D02*
X5557598Y-7198670D01*
X5557598Y-7198670D02*
X5548074Y-7189146D01*
X5548074Y-7189146D02*
X5538550Y-7170098D01*
X5538550Y-7170098D02*
X5529027Y-7132003D01*
X5529027Y-7132003D02*
X5529027Y-7084384D01*
X5529027Y-7084384D02*
X5538550Y-7046289D01*
X5538550Y-7046289D02*
X5548074Y-7027241D01*
X5548074Y-7027241D02*
X5557598Y-7017718D01*
X5557598Y-7017718D02*
X5576646Y-7008194D01*
X5709979Y-7008194D02*
X5843312Y-7008194D01*
X5843312Y-7008194D02*
X5757598Y-7208194D01*
X5948074Y-7093908D02*
X5929026Y-7084384D01*
X5929026Y-7084384D02*
X5919503Y-7074860D01*
X5919503Y-7074860D02*
X5909979Y-7055813D01*
X5909979Y-7055813D02*
X5909979Y-7046289D01*
X5909979Y-7046289D02*
X5919503Y-7027241D01*
X5919503Y-7027241D02*
X5929026Y-7017718D01*
X5929026Y-7017718D02*
X5948074Y-7008194D01*
X5948074Y-7008194D02*
X5986169Y-7008194D01*
X5986169Y-7008194D02*
X6005217Y-7017718D01*
X6005217Y-7017718D02*
X6014741Y-7027241D01*
X6014741Y-7027241D02*
X6024265Y-7046289D01*
X6024265Y-7046289D02*
X6024265Y-7055813D01*
X6024265Y-7055813D02*
X6014741Y-7074860D01*
X6014741Y-7074860D02*
X6005217Y-7084384D01*
X6005217Y-7084384D02*
X5986169Y-7093908D01*
X5986169Y-7093908D02*
X5948074Y-7093908D01*
X5948074Y-7093908D02*
X5929026Y-7103432D01*
X5929026Y-7103432D02*
X5919503Y-7112956D01*
X5919503Y-7112956D02*
X5909979Y-7132003D01*
X5909979Y-7132003D02*
X5909979Y-7170098D01*
X5909979Y-7170098D02*
X5919503Y-7189146D01*
X5919503Y-7189146D02*
X5929026Y-7198670D01*
X5929026Y-7198670D02*
X5948074Y-7208194D01*
X5948074Y-7208194D02*
X5986169Y-7208194D01*
X5986169Y-7208194D02*
X6005217Y-7198670D01*
X6005217Y-7198670D02*
X6014741Y-7189146D01*
X6014741Y-7189146D02*
X6024265Y-7170098D01*
X6024265Y-7170098D02*
X6024265Y-7132003D01*
X6024265Y-7132003D02*
X6014741Y-7112956D01*
X6014741Y-7112956D02*
X6005217Y-7103432D01*
X6005217Y-7103432D02*
X5986169Y-7093908D01*
X6090931Y-7008194D02*
X6224265Y-7008194D01*
X6224265Y-7008194D02*
X6138550Y-7208194D01*
X6290931Y-7008194D02*
X6290931Y-7046289D01*
X6367122Y-7008194D02*
X6367122Y-7046289D01*
X6662360Y-7284384D02*
X6652836Y-7274860D01*
X6652836Y-7274860D02*
X6633788Y-7246289D01*
X6633788Y-7246289D02*
X6624265Y-7227241D01*
X6624265Y-7227241D02*
X6614741Y-7198670D01*
X6614741Y-7198670D02*
X6605217Y-7151051D01*
X6605217Y-7151051D02*
X6605217Y-7112956D01*
X6605217Y-7112956D02*
X6614741Y-7065337D01*
X6614741Y-7065337D02*
X6624265Y-7036765D01*
X6624265Y-7036765D02*
X6633788Y-7017718D01*
X6633788Y-7017718D02*
X6652836Y-6989146D01*
X6652836Y-6989146D02*
X6662360Y-6979622D01*
X6729027Y-7027241D02*
X6738550Y-7017718D01*
X6738550Y-7017718D02*
X6757598Y-7008194D01*
X6757598Y-7008194D02*
X6805217Y-7008194D01*
X6805217Y-7008194D02*
X6824265Y-7017718D01*
X6824265Y-7017718D02*
X6833788Y-7027241D01*
X6833788Y-7027241D02*
X6843312Y-7046289D01*
X6843312Y-7046289D02*
X6843312Y-7065337D01*
X6843312Y-7065337D02*
X6833788Y-7093908D01*
X6833788Y-7093908D02*
X6719503Y-7208194D01*
X6719503Y-7208194D02*
X6843312Y-7208194D01*
X7081408Y-7208194D02*
X7081408Y-7008194D01*
X7167122Y-7208194D02*
X7167122Y-7103432D01*
X7167122Y-7103432D02*
X7157598Y-7084384D01*
X7157598Y-7084384D02*
X7138550Y-7074860D01*
X7138550Y-7074860D02*
X7109979Y-7074860D01*
X7109979Y-7074860D02*
X7090931Y-7084384D01*
X7090931Y-7084384D02*
X7081408Y-7093908D01*
X7290931Y-7208194D02*
X7271884Y-7198670D01*
X7271884Y-7198670D02*
X7262360Y-7189146D01*
X7262360Y-7189146D02*
X7252836Y-7170098D01*
X7252836Y-7170098D02*
X7252836Y-7112956D01*
X7252836Y-7112956D02*
X7262360Y-7093908D01*
X7262360Y-7093908D02*
X7271884Y-7084384D01*
X7271884Y-7084384D02*
X7290931Y-7074860D01*
X7290931Y-7074860D02*
X7319503Y-7074860D01*
X7319503Y-7074860D02*
X7338550Y-7084384D01*
X7338550Y-7084384D02*
X7348074Y-7093908D01*
X7348074Y-7093908D02*
X7357598Y-7112956D01*
X7357598Y-7112956D02*
X7357598Y-7170098D01*
X7357598Y-7170098D02*
X7348074Y-7189146D01*
X7348074Y-7189146D02*
X7338550Y-7198670D01*
X7338550Y-7198670D02*
X7319503Y-7208194D01*
X7319503Y-7208194D02*
X7290931Y-7208194D01*
X7471884Y-7208194D02*
X7452836Y-7198670D01*
X7452836Y-7198670D02*
X7443312Y-7179622D01*
X7443312Y-7179622D02*
X7443312Y-7008194D01*
X7624265Y-7198670D02*
X7605217Y-7208194D01*
X7605217Y-7208194D02*
X7567122Y-7208194D01*
X7567122Y-7208194D02*
X7548074Y-7198670D01*
X7548074Y-7198670D02*
X7538550Y-7179622D01*
X7538550Y-7179622D02*
X7538550Y-7103432D01*
X7538550Y-7103432D02*
X7548074Y-7084384D01*
X7548074Y-7084384D02*
X7567122Y-7074860D01*
X7567122Y-7074860D02*
X7605217Y-7074860D01*
X7605217Y-7074860D02*
X7624265Y-7084384D01*
X7624265Y-7084384D02*
X7633789Y-7103432D01*
X7633789Y-7103432D02*
X7633789Y-7122479D01*
X7633789Y-7122479D02*
X7538550Y-7141527D01*
X7709979Y-7198670D02*
X7729027Y-7208194D01*
X7729027Y-7208194D02*
X7767122Y-7208194D01*
X7767122Y-7208194D02*
X7786170Y-7198670D01*
X7786170Y-7198670D02*
X7795693Y-7179622D01*
X7795693Y-7179622D02*
X7795693Y-7170098D01*
X7795693Y-7170098D02*
X7786170Y-7151051D01*
X7786170Y-7151051D02*
X7767122Y-7141527D01*
X7767122Y-7141527D02*
X7738550Y-7141527D01*
X7738550Y-7141527D02*
X7719503Y-7132003D01*
X7719503Y-7132003D02*
X7709979Y-7112956D01*
X7709979Y-7112956D02*
X7709979Y-7103432D01*
X7709979Y-7103432D02*
X7719503Y-7084384D01*
X7719503Y-7084384D02*
X7738550Y-7074860D01*
X7738550Y-7074860D02*
X7767122Y-7074860D01*
X7767122Y-7074860D02*
X7786170Y-7084384D01*
X7862360Y-7284384D02*
X7871884Y-7274860D01*
X7871884Y-7274860D02*
X7890931Y-7246289D01*
X7890931Y-7246289D02*
X7900455Y-7227241D01*
X7900455Y-7227241D02*
X7909979Y-7198670D01*
X7909979Y-7198670D02*
X7919503Y-7151051D01*
X7919503Y-7151051D02*
X7919503Y-7112956D01*
X7919503Y-7112956D02*
X7909979Y-7065337D01*
X7909979Y-7065337D02*
X7900455Y-7036765D01*
X7900455Y-7036765D02*
X7890931Y-7017718D01*
X7890931Y-7017718D02*
X7871884Y-6989146D01*
X7871884Y-6989146D02*
X7862360Y-6979622D01*
X8224265Y-7284384D02*
X8214741Y-7274860D01*
X8214741Y-7274860D02*
X8195693Y-7246289D01*
X8195693Y-7246289D02*
X8186170Y-7227241D01*
X8186170Y-7227241D02*
X8176646Y-7198670D01*
X8176646Y-7198670D02*
X8167122Y-7151051D01*
X8167122Y-7151051D02*
X8167122Y-7112956D01*
X8167122Y-7112956D02*
X8176646Y-7065337D01*
X8176646Y-7065337D02*
X8186170Y-7036765D01*
X8186170Y-7036765D02*
X8195693Y-7017718D01*
X8195693Y-7017718D02*
X8214741Y-6989146D01*
X8214741Y-6989146D02*
X8224265Y-6979622D01*
X8300455Y-7074860D02*
X8300455Y-7208194D01*
X8300455Y-7093908D02*
X8309979Y-7084384D01*
X8309979Y-7084384D02*
X8329027Y-7074860D01*
X8329027Y-7074860D02*
X8357598Y-7074860D01*
X8357598Y-7074860D02*
X8376646Y-7084384D01*
X8376646Y-7084384D02*
X8386170Y-7103432D01*
X8386170Y-7103432D02*
X8386170Y-7208194D01*
X8509979Y-7208194D02*
X8490932Y-7198670D01*
X8490932Y-7198670D02*
X8481408Y-7189146D01*
X8481408Y-7189146D02*
X8471884Y-7170098D01*
X8471884Y-7170098D02*
X8471884Y-7112956D01*
X8471884Y-7112956D02*
X8481408Y-7093908D01*
X8481408Y-7093908D02*
X8490932Y-7084384D01*
X8490932Y-7084384D02*
X8509979Y-7074860D01*
X8509979Y-7074860D02*
X8538551Y-7074860D01*
X8538551Y-7074860D02*
X8557598Y-7084384D01*
X8557598Y-7084384D02*
X8567122Y-7093908D01*
X8567122Y-7093908D02*
X8576646Y-7112956D01*
X8576646Y-7112956D02*
X8576646Y-7170098D01*
X8576646Y-7170098D02*
X8567122Y-7189146D01*
X8567122Y-7189146D02*
X8557598Y-7198670D01*
X8557598Y-7198670D02*
X8538551Y-7208194D01*
X8538551Y-7208194D02*
X8509979Y-7208194D01*
X8633789Y-7074860D02*
X8709979Y-7074860D01*
X8662360Y-7008194D02*
X8662360Y-7179622D01*
X8662360Y-7179622D02*
X8671884Y-7198670D01*
X8671884Y-7198670D02*
X8690932Y-7208194D01*
X8690932Y-7208194D02*
X8709979Y-7208194D01*
X8929027Y-7074860D02*
X8929027Y-7274860D01*
X8929027Y-7084384D02*
X8948074Y-7074860D01*
X8948074Y-7074860D02*
X8986170Y-7074860D01*
X8986170Y-7074860D02*
X9005217Y-7084384D01*
X9005217Y-7084384D02*
X9014741Y-7093908D01*
X9014741Y-7093908D02*
X9024265Y-7112956D01*
X9024265Y-7112956D02*
X9024265Y-7170098D01*
X9024265Y-7170098D02*
X9014741Y-7189146D01*
X9014741Y-7189146D02*
X9005217Y-7198670D01*
X9005217Y-7198670D02*
X8986170Y-7208194D01*
X8986170Y-7208194D02*
X8948074Y-7208194D01*
X8948074Y-7208194D02*
X8929027Y-7198670D01*
X9138551Y-7208194D02*
X9119503Y-7198670D01*
X9119503Y-7198670D02*
X9109979Y-7179622D01*
X9109979Y-7179622D02*
X9109979Y-7008194D01*
X9300455Y-7208194D02*
X9300455Y-7103432D01*
X9300455Y-7103432D02*
X9290932Y-7084384D01*
X9290932Y-7084384D02*
X9271884Y-7074860D01*
X9271884Y-7074860D02*
X9233789Y-7074860D01*
X9233789Y-7074860D02*
X9214741Y-7084384D01*
X9300455Y-7198670D02*
X9281408Y-7208194D01*
X9281408Y-7208194D02*
X9233789Y-7208194D01*
X9233789Y-7208194D02*
X9214741Y-7198670D01*
X9214741Y-7198670D02*
X9205217Y-7179622D01*
X9205217Y-7179622D02*
X9205217Y-7160575D01*
X9205217Y-7160575D02*
X9214741Y-7141527D01*
X9214741Y-7141527D02*
X9233789Y-7132003D01*
X9233789Y-7132003D02*
X9281408Y-7132003D01*
X9281408Y-7132003D02*
X9300455Y-7122479D01*
X9367122Y-7074860D02*
X9443313Y-7074860D01*
X9395694Y-7008194D02*
X9395694Y-7179622D01*
X9395694Y-7179622D02*
X9405217Y-7198670D01*
X9405217Y-7198670D02*
X9424265Y-7208194D01*
X9424265Y-7208194D02*
X9443313Y-7208194D01*
X9586170Y-7198670D02*
X9567122Y-7208194D01*
X9567122Y-7208194D02*
X9529027Y-7208194D01*
X9529027Y-7208194D02*
X9509979Y-7198670D01*
X9509979Y-7198670D02*
X9500455Y-7179622D01*
X9500455Y-7179622D02*
X9500455Y-7103432D01*
X9500455Y-7103432D02*
X9509979Y-7084384D01*
X9509979Y-7084384D02*
X9529027Y-7074860D01*
X9529027Y-7074860D02*
X9567122Y-7074860D01*
X9567122Y-7074860D02*
X9586170Y-7084384D01*
X9586170Y-7084384D02*
X9595694Y-7103432D01*
X9595694Y-7103432D02*
X9595694Y-7122479D01*
X9595694Y-7122479D02*
X9500455Y-7141527D01*
X9767122Y-7208194D02*
X9767122Y-7008194D01*
X9767122Y-7198670D02*
X9748075Y-7208194D01*
X9748075Y-7208194D02*
X9709979Y-7208194D01*
X9709979Y-7208194D02*
X9690932Y-7198670D01*
X9690932Y-7198670D02*
X9681408Y-7189146D01*
X9681408Y-7189146D02*
X9671884Y-7170098D01*
X9671884Y-7170098D02*
X9671884Y-7112956D01*
X9671884Y-7112956D02*
X9681408Y-7093908D01*
X9681408Y-7093908D02*
X9690932Y-7084384D01*
X9690932Y-7084384D02*
X9709979Y-7074860D01*
X9709979Y-7074860D02*
X9748075Y-7074860D01*
X9748075Y-7074860D02*
X9767122Y-7084384D01*
X9843313Y-7284384D02*
X9852836Y-7274860D01*
X9852836Y-7274860D02*
X9871884Y-7246289D01*
X9871884Y-7246289D02*
X9881408Y-7227241D01*
X9881408Y-7227241D02*
X9890932Y-7198670D01*
X9890932Y-7198670D02*
X9900455Y-7151051D01*
X9900455Y-7151051D02*
X9900455Y-7112956D01*
X9900455Y-7112956D02*
X9890932Y-7065337D01*
X9890932Y-7065337D02*
X9881408Y-7036765D01*
X9881408Y-7036765D02*
X9871884Y-7017718D01*
X9871884Y-7017718D02*
X9852836Y-6989146D01*
X9852836Y-6989146D02*
X9843313Y-6979622D01*
M02*
