%TF.GenerationSoftware,KiCad,Pcbnew,7.0.1*%
%TF.CreationDate,2024-08-21T14:39:27+02:00*%
%TF.ProjectId,renforce-eda,72656e66-6f72-4636-952d-6564612e6b69,1.0*%
%TF.SameCoordinates,Original*%
%TF.FileFunction,Legend,Top*%
%TF.FilePolarity,Positive*%
%FSLAX46Y46*%
G04 Gerber Fmt 4.6, Leading zero omitted, Abs format (unit mm)*
G04 Created by KiCad (PCBNEW 7.0.1) date 2024-08-21 14:39:27*
%MOMM*%
%LPD*%
G01*
G04 APERTURE LIST*
%ADD10C,0.100000*%
%ADD11C,0.150000*%
%ADD12C,0.300000*%
%ADD13C,0.400000*%
%ADD14C,0.120000*%
%ADD15C,0.127000*%
%ADD16C,0.200000*%
%TA.AperFunction,Profile*%
%ADD17C,0.254000*%
%TD*%
G04 APERTURE END LIST*
D10*
D11*
X30012400Y-75989600D02*
X138012400Y-75989600D01*
X138012400Y-107989600D01*
X30012400Y-107989600D01*
X30012400Y-75989600D01*
D10*
D11*
X10000000Y-10000000D02*
X140012400Y-10000000D01*
X140012400Y-109989600D01*
X10000000Y-109989600D01*
X10000000Y-10000000D01*
D10*
D11*
X12000000Y-12000000D02*
X138012400Y-12000000D01*
X138012400Y-107989600D01*
X12000000Y-107989600D01*
X12000000Y-12000000D01*
D10*
D11*
X60000000Y-12000000D02*
X60000000Y-10000000D01*
D10*
D11*
X110000000Y-12000000D02*
X110000000Y-10000000D01*
D10*
D11*
X35990476Y-11601404D02*
X35247619Y-11601404D01*
X35619047Y-11601404D02*
X35619047Y-10301404D01*
X35619047Y-10301404D02*
X35495238Y-10487119D01*
X35495238Y-10487119D02*
X35371428Y-10610928D01*
X35371428Y-10610928D02*
X35247619Y-10672833D01*
D10*
D11*
X85247619Y-10425214D02*
X85309523Y-10363309D01*
X85309523Y-10363309D02*
X85433333Y-10301404D01*
X85433333Y-10301404D02*
X85742857Y-10301404D01*
X85742857Y-10301404D02*
X85866666Y-10363309D01*
X85866666Y-10363309D02*
X85928571Y-10425214D01*
X85928571Y-10425214D02*
X85990476Y-10549023D01*
X85990476Y-10549023D02*
X85990476Y-10672833D01*
X85990476Y-10672833D02*
X85928571Y-10858547D01*
X85928571Y-10858547D02*
X85185714Y-11601404D01*
X85185714Y-11601404D02*
X85990476Y-11601404D01*
D10*
D11*
X135185714Y-10301404D02*
X135990476Y-10301404D01*
X135990476Y-10301404D02*
X135557142Y-10796642D01*
X135557142Y-10796642D02*
X135742857Y-10796642D01*
X135742857Y-10796642D02*
X135866666Y-10858547D01*
X135866666Y-10858547D02*
X135928571Y-10920452D01*
X135928571Y-10920452D02*
X135990476Y-11044261D01*
X135990476Y-11044261D02*
X135990476Y-11353785D01*
X135990476Y-11353785D02*
X135928571Y-11477595D01*
X135928571Y-11477595D02*
X135866666Y-11539500D01*
X135866666Y-11539500D02*
X135742857Y-11601404D01*
X135742857Y-11601404D02*
X135371428Y-11601404D01*
X135371428Y-11601404D02*
X135247619Y-11539500D01*
X135247619Y-11539500D02*
X135185714Y-11477595D01*
D10*
D11*
X60000000Y-107989600D02*
X60000000Y-109989600D01*
D10*
D11*
X110000000Y-107989600D02*
X110000000Y-109989600D01*
D10*
D11*
X35990476Y-109591004D02*
X35247619Y-109591004D01*
X35619047Y-109591004D02*
X35619047Y-108291004D01*
X35619047Y-108291004D02*
X35495238Y-108476719D01*
X35495238Y-108476719D02*
X35371428Y-108600528D01*
X35371428Y-108600528D02*
X35247619Y-108662433D01*
D10*
D11*
X85247619Y-108414814D02*
X85309523Y-108352909D01*
X85309523Y-108352909D02*
X85433333Y-108291004D01*
X85433333Y-108291004D02*
X85742857Y-108291004D01*
X85742857Y-108291004D02*
X85866666Y-108352909D01*
X85866666Y-108352909D02*
X85928571Y-108414814D01*
X85928571Y-108414814D02*
X85990476Y-108538623D01*
X85990476Y-108538623D02*
X85990476Y-108662433D01*
X85990476Y-108662433D02*
X85928571Y-108848147D01*
X85928571Y-108848147D02*
X85185714Y-109591004D01*
X85185714Y-109591004D02*
X85990476Y-109591004D01*
D10*
D11*
X135185714Y-108291004D02*
X135990476Y-108291004D01*
X135990476Y-108291004D02*
X135557142Y-108786242D01*
X135557142Y-108786242D02*
X135742857Y-108786242D01*
X135742857Y-108786242D02*
X135866666Y-108848147D01*
X135866666Y-108848147D02*
X135928571Y-108910052D01*
X135928571Y-108910052D02*
X135990476Y-109033861D01*
X135990476Y-109033861D02*
X135990476Y-109343385D01*
X135990476Y-109343385D02*
X135928571Y-109467195D01*
X135928571Y-109467195D02*
X135866666Y-109529100D01*
X135866666Y-109529100D02*
X135742857Y-109591004D01*
X135742857Y-109591004D02*
X135371428Y-109591004D01*
X135371428Y-109591004D02*
X135247619Y-109529100D01*
X135247619Y-109529100D02*
X135185714Y-109467195D01*
D10*
D11*
X10000000Y-60000000D02*
X12000000Y-60000000D01*
D10*
D11*
X10690476Y-35229976D02*
X11309523Y-35229976D01*
X10566666Y-35601404D02*
X10999999Y-34301404D01*
X10999999Y-34301404D02*
X11433333Y-35601404D01*
D10*
D11*
X11092857Y-84920452D02*
X11278571Y-84982357D01*
X11278571Y-84982357D02*
X11340476Y-85044261D01*
X11340476Y-85044261D02*
X11402380Y-85168071D01*
X11402380Y-85168071D02*
X11402380Y-85353785D01*
X11402380Y-85353785D02*
X11340476Y-85477595D01*
X11340476Y-85477595D02*
X11278571Y-85539500D01*
X11278571Y-85539500D02*
X11154761Y-85601404D01*
X11154761Y-85601404D02*
X10659523Y-85601404D01*
X10659523Y-85601404D02*
X10659523Y-84301404D01*
X10659523Y-84301404D02*
X11092857Y-84301404D01*
X11092857Y-84301404D02*
X11216666Y-84363309D01*
X11216666Y-84363309D02*
X11278571Y-84425214D01*
X11278571Y-84425214D02*
X11340476Y-84549023D01*
X11340476Y-84549023D02*
X11340476Y-84672833D01*
X11340476Y-84672833D02*
X11278571Y-84796642D01*
X11278571Y-84796642D02*
X11216666Y-84858547D01*
X11216666Y-84858547D02*
X11092857Y-84920452D01*
X11092857Y-84920452D02*
X10659523Y-84920452D01*
D10*
D11*
X140012400Y-60000000D02*
X138012400Y-60000000D01*
D10*
D11*
X138702876Y-35229976D02*
X139321923Y-35229976D01*
X138579066Y-35601404D02*
X139012399Y-34301404D01*
X139012399Y-34301404D02*
X139445733Y-35601404D01*
D10*
D11*
X139105257Y-84920452D02*
X139290971Y-84982357D01*
X139290971Y-84982357D02*
X139352876Y-85044261D01*
X139352876Y-85044261D02*
X139414780Y-85168071D01*
X139414780Y-85168071D02*
X139414780Y-85353785D01*
X139414780Y-85353785D02*
X139352876Y-85477595D01*
X139352876Y-85477595D02*
X139290971Y-85539500D01*
X139290971Y-85539500D02*
X139167161Y-85601404D01*
X139167161Y-85601404D02*
X138671923Y-85601404D01*
X138671923Y-85601404D02*
X138671923Y-84301404D01*
X138671923Y-84301404D02*
X139105257Y-84301404D01*
X139105257Y-84301404D02*
X139229066Y-84363309D01*
X139229066Y-84363309D02*
X139290971Y-84425214D01*
X139290971Y-84425214D02*
X139352876Y-84549023D01*
X139352876Y-84549023D02*
X139352876Y-84672833D01*
X139352876Y-84672833D02*
X139290971Y-84796642D01*
X139290971Y-84796642D02*
X139229066Y-84858547D01*
X139229066Y-84858547D02*
X139105257Y-84920452D01*
X139105257Y-84920452D02*
X138671923Y-84920452D01*
D10*
D11*
X53369542Y-103783528D02*
X53369542Y-102283528D01*
X53369542Y-102283528D02*
X53726685Y-102283528D01*
X53726685Y-102283528D02*
X53940971Y-102354957D01*
X53940971Y-102354957D02*
X54083828Y-102497814D01*
X54083828Y-102497814D02*
X54155257Y-102640671D01*
X54155257Y-102640671D02*
X54226685Y-102926385D01*
X54226685Y-102926385D02*
X54226685Y-103140671D01*
X54226685Y-103140671D02*
X54155257Y-103426385D01*
X54155257Y-103426385D02*
X54083828Y-103569242D01*
X54083828Y-103569242D02*
X53940971Y-103712100D01*
X53940971Y-103712100D02*
X53726685Y-103783528D01*
X53726685Y-103783528D02*
X53369542Y-103783528D01*
X55512400Y-103783528D02*
X55512400Y-102997814D01*
X55512400Y-102997814D02*
X55440971Y-102854957D01*
X55440971Y-102854957D02*
X55298114Y-102783528D01*
X55298114Y-102783528D02*
X55012400Y-102783528D01*
X55012400Y-102783528D02*
X54869542Y-102854957D01*
X55512400Y-103712100D02*
X55369542Y-103783528D01*
X55369542Y-103783528D02*
X55012400Y-103783528D01*
X55012400Y-103783528D02*
X54869542Y-103712100D01*
X54869542Y-103712100D02*
X54798114Y-103569242D01*
X54798114Y-103569242D02*
X54798114Y-103426385D01*
X54798114Y-103426385D02*
X54869542Y-103283528D01*
X54869542Y-103283528D02*
X55012400Y-103212100D01*
X55012400Y-103212100D02*
X55369542Y-103212100D01*
X55369542Y-103212100D02*
X55512400Y-103140671D01*
X56012400Y-102783528D02*
X56583828Y-102783528D01*
X56226685Y-102283528D02*
X56226685Y-103569242D01*
X56226685Y-103569242D02*
X56298114Y-103712100D01*
X56298114Y-103712100D02*
X56440971Y-103783528D01*
X56440971Y-103783528D02*
X56583828Y-103783528D01*
X57655257Y-103712100D02*
X57512400Y-103783528D01*
X57512400Y-103783528D02*
X57226686Y-103783528D01*
X57226686Y-103783528D02*
X57083828Y-103712100D01*
X57083828Y-103712100D02*
X57012400Y-103569242D01*
X57012400Y-103569242D02*
X57012400Y-102997814D01*
X57012400Y-102997814D02*
X57083828Y-102854957D01*
X57083828Y-102854957D02*
X57226686Y-102783528D01*
X57226686Y-102783528D02*
X57512400Y-102783528D01*
X57512400Y-102783528D02*
X57655257Y-102854957D01*
X57655257Y-102854957D02*
X57726686Y-102997814D01*
X57726686Y-102997814D02*
X57726686Y-103140671D01*
X57726686Y-103140671D02*
X57012400Y-103283528D01*
X58369542Y-103640671D02*
X58440971Y-103712100D01*
X58440971Y-103712100D02*
X58369542Y-103783528D01*
X58369542Y-103783528D02*
X58298114Y-103712100D01*
X58298114Y-103712100D02*
X58369542Y-103640671D01*
X58369542Y-103640671D02*
X58369542Y-103783528D01*
X58369542Y-102854957D02*
X58440971Y-102926385D01*
X58440971Y-102926385D02*
X58369542Y-102997814D01*
X58369542Y-102997814D02*
X58298114Y-102926385D01*
X58298114Y-102926385D02*
X58369542Y-102854957D01*
X58369542Y-102854957D02*
X58369542Y-102997814D01*
X60155257Y-102426385D02*
X60226685Y-102354957D01*
X60226685Y-102354957D02*
X60369543Y-102283528D01*
X60369543Y-102283528D02*
X60726685Y-102283528D01*
X60726685Y-102283528D02*
X60869543Y-102354957D01*
X60869543Y-102354957D02*
X60940971Y-102426385D01*
X60940971Y-102426385D02*
X61012400Y-102569242D01*
X61012400Y-102569242D02*
X61012400Y-102712100D01*
X61012400Y-102712100D02*
X60940971Y-102926385D01*
X60940971Y-102926385D02*
X60083828Y-103783528D01*
X60083828Y-103783528D02*
X61012400Y-103783528D01*
X61940971Y-102283528D02*
X62083828Y-102283528D01*
X62083828Y-102283528D02*
X62226685Y-102354957D01*
X62226685Y-102354957D02*
X62298114Y-102426385D01*
X62298114Y-102426385D02*
X62369542Y-102569242D01*
X62369542Y-102569242D02*
X62440971Y-102854957D01*
X62440971Y-102854957D02*
X62440971Y-103212100D01*
X62440971Y-103212100D02*
X62369542Y-103497814D01*
X62369542Y-103497814D02*
X62298114Y-103640671D01*
X62298114Y-103640671D02*
X62226685Y-103712100D01*
X62226685Y-103712100D02*
X62083828Y-103783528D01*
X62083828Y-103783528D02*
X61940971Y-103783528D01*
X61940971Y-103783528D02*
X61798114Y-103712100D01*
X61798114Y-103712100D02*
X61726685Y-103640671D01*
X61726685Y-103640671D02*
X61655256Y-103497814D01*
X61655256Y-103497814D02*
X61583828Y-103212100D01*
X61583828Y-103212100D02*
X61583828Y-102854957D01*
X61583828Y-102854957D02*
X61655256Y-102569242D01*
X61655256Y-102569242D02*
X61726685Y-102426385D01*
X61726685Y-102426385D02*
X61798114Y-102354957D01*
X61798114Y-102354957D02*
X61940971Y-102283528D01*
X63012399Y-102426385D02*
X63083827Y-102354957D01*
X63083827Y-102354957D02*
X63226685Y-102283528D01*
X63226685Y-102283528D02*
X63583827Y-102283528D01*
X63583827Y-102283528D02*
X63726685Y-102354957D01*
X63726685Y-102354957D02*
X63798113Y-102426385D01*
X63798113Y-102426385D02*
X63869542Y-102569242D01*
X63869542Y-102569242D02*
X63869542Y-102712100D01*
X63869542Y-102712100D02*
X63798113Y-102926385D01*
X63798113Y-102926385D02*
X62940970Y-103783528D01*
X62940970Y-103783528D02*
X63869542Y-103783528D01*
X65155256Y-102783528D02*
X65155256Y-103783528D01*
X64798113Y-102212100D02*
X64440970Y-103283528D01*
X64440970Y-103283528D02*
X65369541Y-103283528D01*
X65940969Y-103212100D02*
X67083827Y-103212100D01*
X68083827Y-102283528D02*
X68226684Y-102283528D01*
X68226684Y-102283528D02*
X68369541Y-102354957D01*
X68369541Y-102354957D02*
X68440970Y-102426385D01*
X68440970Y-102426385D02*
X68512398Y-102569242D01*
X68512398Y-102569242D02*
X68583827Y-102854957D01*
X68583827Y-102854957D02*
X68583827Y-103212100D01*
X68583827Y-103212100D02*
X68512398Y-103497814D01*
X68512398Y-103497814D02*
X68440970Y-103640671D01*
X68440970Y-103640671D02*
X68369541Y-103712100D01*
X68369541Y-103712100D02*
X68226684Y-103783528D01*
X68226684Y-103783528D02*
X68083827Y-103783528D01*
X68083827Y-103783528D02*
X67940970Y-103712100D01*
X67940970Y-103712100D02*
X67869541Y-103640671D01*
X67869541Y-103640671D02*
X67798112Y-103497814D01*
X67798112Y-103497814D02*
X67726684Y-103212100D01*
X67726684Y-103212100D02*
X67726684Y-102854957D01*
X67726684Y-102854957D02*
X67798112Y-102569242D01*
X67798112Y-102569242D02*
X67869541Y-102426385D01*
X67869541Y-102426385D02*
X67940970Y-102354957D01*
X67940970Y-102354957D02*
X68083827Y-102283528D01*
X69940969Y-102283528D02*
X69226683Y-102283528D01*
X69226683Y-102283528D02*
X69155255Y-102997814D01*
X69155255Y-102997814D02*
X69226683Y-102926385D01*
X69226683Y-102926385D02*
X69369541Y-102854957D01*
X69369541Y-102854957D02*
X69726683Y-102854957D01*
X69726683Y-102854957D02*
X69869541Y-102926385D01*
X69869541Y-102926385D02*
X69940969Y-102997814D01*
X69940969Y-102997814D02*
X70012398Y-103140671D01*
X70012398Y-103140671D02*
X70012398Y-103497814D01*
X70012398Y-103497814D02*
X69940969Y-103640671D01*
X69940969Y-103640671D02*
X69869541Y-103712100D01*
X69869541Y-103712100D02*
X69726683Y-103783528D01*
X69726683Y-103783528D02*
X69369541Y-103783528D01*
X69369541Y-103783528D02*
X69226683Y-103712100D01*
X69226683Y-103712100D02*
X69155255Y-103640671D01*
X70655254Y-103212100D02*
X71798112Y-103212100D01*
X72798112Y-102283528D02*
X72940969Y-102283528D01*
X72940969Y-102283528D02*
X73083826Y-102354957D01*
X73083826Y-102354957D02*
X73155255Y-102426385D01*
X73155255Y-102426385D02*
X73226683Y-102569242D01*
X73226683Y-102569242D02*
X73298112Y-102854957D01*
X73298112Y-102854957D02*
X73298112Y-103212100D01*
X73298112Y-103212100D02*
X73226683Y-103497814D01*
X73226683Y-103497814D02*
X73155255Y-103640671D01*
X73155255Y-103640671D02*
X73083826Y-103712100D01*
X73083826Y-103712100D02*
X72940969Y-103783528D01*
X72940969Y-103783528D02*
X72798112Y-103783528D01*
X72798112Y-103783528D02*
X72655255Y-103712100D01*
X72655255Y-103712100D02*
X72583826Y-103640671D01*
X72583826Y-103640671D02*
X72512397Y-103497814D01*
X72512397Y-103497814D02*
X72440969Y-103212100D01*
X72440969Y-103212100D02*
X72440969Y-102854957D01*
X72440969Y-102854957D02*
X72512397Y-102569242D01*
X72512397Y-102569242D02*
X72583826Y-102426385D01*
X72583826Y-102426385D02*
X72655255Y-102354957D01*
X72655255Y-102354957D02*
X72798112Y-102283528D01*
X74583826Y-102283528D02*
X74298111Y-102283528D01*
X74298111Y-102283528D02*
X74155254Y-102354957D01*
X74155254Y-102354957D02*
X74083826Y-102426385D01*
X74083826Y-102426385D02*
X73940968Y-102640671D01*
X73940968Y-102640671D02*
X73869540Y-102926385D01*
X73869540Y-102926385D02*
X73869540Y-103497814D01*
X73869540Y-103497814D02*
X73940968Y-103640671D01*
X73940968Y-103640671D02*
X74012397Y-103712100D01*
X74012397Y-103712100D02*
X74155254Y-103783528D01*
X74155254Y-103783528D02*
X74440968Y-103783528D01*
X74440968Y-103783528D02*
X74583826Y-103712100D01*
X74583826Y-103712100D02*
X74655254Y-103640671D01*
X74655254Y-103640671D02*
X74726683Y-103497814D01*
X74726683Y-103497814D02*
X74726683Y-103140671D01*
X74726683Y-103140671D02*
X74655254Y-102997814D01*
X74655254Y-102997814D02*
X74583826Y-102926385D01*
X74583826Y-102926385D02*
X74440968Y-102854957D01*
X74440968Y-102854957D02*
X74155254Y-102854957D01*
X74155254Y-102854957D02*
X74012397Y-102926385D01*
X74012397Y-102926385D02*
X73940968Y-102997814D01*
X73940968Y-102997814D02*
X73869540Y-103140671D01*
D10*
D11*
X30012400Y-104489600D02*
X138012400Y-104489600D01*
D10*
D11*
X31369542Y-106583528D02*
X31369542Y-105083528D01*
X32226685Y-106583528D02*
X31583828Y-105726385D01*
X32226685Y-105083528D02*
X31369542Y-105940671D01*
X32869542Y-106583528D02*
X32869542Y-105583528D01*
X32869542Y-105083528D02*
X32798114Y-105154957D01*
X32798114Y-105154957D02*
X32869542Y-105226385D01*
X32869542Y-105226385D02*
X32940971Y-105154957D01*
X32940971Y-105154957D02*
X32869542Y-105083528D01*
X32869542Y-105083528D02*
X32869542Y-105226385D01*
X34440971Y-106440671D02*
X34369543Y-106512100D01*
X34369543Y-106512100D02*
X34155257Y-106583528D01*
X34155257Y-106583528D02*
X34012400Y-106583528D01*
X34012400Y-106583528D02*
X33798114Y-106512100D01*
X33798114Y-106512100D02*
X33655257Y-106369242D01*
X33655257Y-106369242D02*
X33583828Y-106226385D01*
X33583828Y-106226385D02*
X33512400Y-105940671D01*
X33512400Y-105940671D02*
X33512400Y-105726385D01*
X33512400Y-105726385D02*
X33583828Y-105440671D01*
X33583828Y-105440671D02*
X33655257Y-105297814D01*
X33655257Y-105297814D02*
X33798114Y-105154957D01*
X33798114Y-105154957D02*
X34012400Y-105083528D01*
X34012400Y-105083528D02*
X34155257Y-105083528D01*
X34155257Y-105083528D02*
X34369543Y-105154957D01*
X34369543Y-105154957D02*
X34440971Y-105226385D01*
X35726686Y-106583528D02*
X35726686Y-105797814D01*
X35726686Y-105797814D02*
X35655257Y-105654957D01*
X35655257Y-105654957D02*
X35512400Y-105583528D01*
X35512400Y-105583528D02*
X35226686Y-105583528D01*
X35226686Y-105583528D02*
X35083828Y-105654957D01*
X35726686Y-106512100D02*
X35583828Y-106583528D01*
X35583828Y-106583528D02*
X35226686Y-106583528D01*
X35226686Y-106583528D02*
X35083828Y-106512100D01*
X35083828Y-106512100D02*
X35012400Y-106369242D01*
X35012400Y-106369242D02*
X35012400Y-106226385D01*
X35012400Y-106226385D02*
X35083828Y-106083528D01*
X35083828Y-106083528D02*
X35226686Y-106012100D01*
X35226686Y-106012100D02*
X35583828Y-106012100D01*
X35583828Y-106012100D02*
X35726686Y-105940671D01*
X37083829Y-106583528D02*
X37083829Y-105083528D01*
X37083829Y-106512100D02*
X36940971Y-106583528D01*
X36940971Y-106583528D02*
X36655257Y-106583528D01*
X36655257Y-106583528D02*
X36512400Y-106512100D01*
X36512400Y-106512100D02*
X36440971Y-106440671D01*
X36440971Y-106440671D02*
X36369543Y-106297814D01*
X36369543Y-106297814D02*
X36369543Y-105869242D01*
X36369543Y-105869242D02*
X36440971Y-105726385D01*
X36440971Y-105726385D02*
X36512400Y-105654957D01*
X36512400Y-105654957D02*
X36655257Y-105583528D01*
X36655257Y-105583528D02*
X36940971Y-105583528D01*
X36940971Y-105583528D02*
X37083829Y-105654957D01*
X38940971Y-105797814D02*
X39440971Y-105797814D01*
X39655257Y-106583528D02*
X38940971Y-106583528D01*
X38940971Y-106583528D02*
X38940971Y-105083528D01*
X38940971Y-105083528D02*
X39655257Y-105083528D01*
X40298114Y-106440671D02*
X40369543Y-106512100D01*
X40369543Y-106512100D02*
X40298114Y-106583528D01*
X40298114Y-106583528D02*
X40226686Y-106512100D01*
X40226686Y-106512100D02*
X40298114Y-106440671D01*
X40298114Y-106440671D02*
X40298114Y-106583528D01*
X41012400Y-106583528D02*
X41012400Y-105083528D01*
X41012400Y-105083528D02*
X41369543Y-105083528D01*
X41369543Y-105083528D02*
X41583829Y-105154957D01*
X41583829Y-105154957D02*
X41726686Y-105297814D01*
X41726686Y-105297814D02*
X41798115Y-105440671D01*
X41798115Y-105440671D02*
X41869543Y-105726385D01*
X41869543Y-105726385D02*
X41869543Y-105940671D01*
X41869543Y-105940671D02*
X41798115Y-106226385D01*
X41798115Y-106226385D02*
X41726686Y-106369242D01*
X41726686Y-106369242D02*
X41583829Y-106512100D01*
X41583829Y-106512100D02*
X41369543Y-106583528D01*
X41369543Y-106583528D02*
X41012400Y-106583528D01*
X42512400Y-106440671D02*
X42583829Y-106512100D01*
X42583829Y-106512100D02*
X42512400Y-106583528D01*
X42512400Y-106583528D02*
X42440972Y-106512100D01*
X42440972Y-106512100D02*
X42512400Y-106440671D01*
X42512400Y-106440671D02*
X42512400Y-106583528D01*
X43155258Y-106154957D02*
X43869544Y-106154957D01*
X43012401Y-106583528D02*
X43512401Y-105083528D01*
X43512401Y-105083528D02*
X44012401Y-106583528D01*
X44512400Y-106440671D02*
X44583829Y-106512100D01*
X44583829Y-106512100D02*
X44512400Y-106583528D01*
X44512400Y-106583528D02*
X44440972Y-106512100D01*
X44440972Y-106512100D02*
X44512400Y-106440671D01*
X44512400Y-106440671D02*
X44512400Y-106583528D01*
X47512400Y-106583528D02*
X47512400Y-105083528D01*
X47655258Y-106012100D02*
X48083829Y-106583528D01*
X48083829Y-105583528D02*
X47512400Y-106154957D01*
X48726686Y-106583528D02*
X48726686Y-105583528D01*
X48726686Y-105083528D02*
X48655258Y-105154957D01*
X48655258Y-105154957D02*
X48726686Y-105226385D01*
X48726686Y-105226385D02*
X48798115Y-105154957D01*
X48798115Y-105154957D02*
X48726686Y-105083528D01*
X48726686Y-105083528D02*
X48726686Y-105226385D01*
X50083830Y-106512100D02*
X49940972Y-106583528D01*
X49940972Y-106583528D02*
X49655258Y-106583528D01*
X49655258Y-106583528D02*
X49512401Y-106512100D01*
X49512401Y-106512100D02*
X49440972Y-106440671D01*
X49440972Y-106440671D02*
X49369544Y-106297814D01*
X49369544Y-106297814D02*
X49369544Y-105869242D01*
X49369544Y-105869242D02*
X49440972Y-105726385D01*
X49440972Y-105726385D02*
X49512401Y-105654957D01*
X49512401Y-105654957D02*
X49655258Y-105583528D01*
X49655258Y-105583528D02*
X49940972Y-105583528D01*
X49940972Y-105583528D02*
X50083830Y-105654957D01*
X51369544Y-106583528D02*
X51369544Y-105797814D01*
X51369544Y-105797814D02*
X51298115Y-105654957D01*
X51298115Y-105654957D02*
X51155258Y-105583528D01*
X51155258Y-105583528D02*
X50869544Y-105583528D01*
X50869544Y-105583528D02*
X50726686Y-105654957D01*
X51369544Y-106512100D02*
X51226686Y-106583528D01*
X51226686Y-106583528D02*
X50869544Y-106583528D01*
X50869544Y-106583528D02*
X50726686Y-106512100D01*
X50726686Y-106512100D02*
X50655258Y-106369242D01*
X50655258Y-106369242D02*
X50655258Y-106226385D01*
X50655258Y-106226385D02*
X50726686Y-106083528D01*
X50726686Y-106083528D02*
X50869544Y-106012100D01*
X50869544Y-106012100D02*
X51226686Y-106012100D01*
X51226686Y-106012100D02*
X51369544Y-105940671D01*
X52726687Y-106583528D02*
X52726687Y-105083528D01*
X52726687Y-106512100D02*
X52583829Y-106583528D01*
X52583829Y-106583528D02*
X52298115Y-106583528D01*
X52298115Y-106583528D02*
X52155258Y-106512100D01*
X52155258Y-106512100D02*
X52083829Y-106440671D01*
X52083829Y-106440671D02*
X52012401Y-106297814D01*
X52012401Y-106297814D02*
X52012401Y-105869242D01*
X52012401Y-105869242D02*
X52083829Y-105726385D01*
X52083829Y-105726385D02*
X52155258Y-105654957D01*
X52155258Y-105654957D02*
X52298115Y-105583528D01*
X52298115Y-105583528D02*
X52583829Y-105583528D01*
X52583829Y-105583528D02*
X52726687Y-105654957D01*
X54440972Y-105083528D02*
X55440972Y-105083528D01*
X55440972Y-105083528D02*
X54798115Y-106583528D01*
X56012400Y-106440671D02*
X56083829Y-106512100D01*
X56083829Y-106512100D02*
X56012400Y-106583528D01*
X56012400Y-106583528D02*
X55940972Y-106512100D01*
X55940972Y-106512100D02*
X56012400Y-106440671D01*
X56012400Y-106440671D02*
X56012400Y-106583528D01*
X57012401Y-105083528D02*
X57155258Y-105083528D01*
X57155258Y-105083528D02*
X57298115Y-105154957D01*
X57298115Y-105154957D02*
X57369544Y-105226385D01*
X57369544Y-105226385D02*
X57440972Y-105369242D01*
X57440972Y-105369242D02*
X57512401Y-105654957D01*
X57512401Y-105654957D02*
X57512401Y-106012100D01*
X57512401Y-106012100D02*
X57440972Y-106297814D01*
X57440972Y-106297814D02*
X57369544Y-106440671D01*
X57369544Y-106440671D02*
X57298115Y-106512100D01*
X57298115Y-106512100D02*
X57155258Y-106583528D01*
X57155258Y-106583528D02*
X57012401Y-106583528D01*
X57012401Y-106583528D02*
X56869544Y-106512100D01*
X56869544Y-106512100D02*
X56798115Y-106440671D01*
X56798115Y-106440671D02*
X56726686Y-106297814D01*
X56726686Y-106297814D02*
X56655258Y-106012100D01*
X56655258Y-106012100D02*
X56655258Y-105654957D01*
X56655258Y-105654957D02*
X56726686Y-105369242D01*
X56726686Y-105369242D02*
X56798115Y-105226385D01*
X56798115Y-105226385D02*
X56869544Y-105154957D01*
X56869544Y-105154957D02*
X57012401Y-105083528D01*
X58155257Y-106440671D02*
X58226686Y-106512100D01*
X58226686Y-106512100D02*
X58155257Y-106583528D01*
X58155257Y-106583528D02*
X58083829Y-106512100D01*
X58083829Y-106512100D02*
X58155257Y-106440671D01*
X58155257Y-106440671D02*
X58155257Y-106583528D01*
X59655258Y-106583528D02*
X58798115Y-106583528D01*
X59226686Y-106583528D02*
X59226686Y-105083528D01*
X59226686Y-105083528D02*
X59083829Y-105297814D01*
X59083829Y-105297814D02*
X58940972Y-105440671D01*
X58940972Y-105440671D02*
X58798115Y-105512100D01*
D10*
D11*
X30012400Y-101489600D02*
X138012400Y-101489600D01*
D10*
D12*
X117226685Y-103783528D02*
X116726685Y-103069242D01*
X116369542Y-103783528D02*
X116369542Y-102283528D01*
X116369542Y-102283528D02*
X116940971Y-102283528D01*
X116940971Y-102283528D02*
X117083828Y-102354957D01*
X117083828Y-102354957D02*
X117155257Y-102426385D01*
X117155257Y-102426385D02*
X117226685Y-102569242D01*
X117226685Y-102569242D02*
X117226685Y-102783528D01*
X117226685Y-102783528D02*
X117155257Y-102926385D01*
X117155257Y-102926385D02*
X117083828Y-102997814D01*
X117083828Y-102997814D02*
X116940971Y-103069242D01*
X116940971Y-103069242D02*
X116369542Y-103069242D01*
X118440971Y-103712100D02*
X118298114Y-103783528D01*
X118298114Y-103783528D02*
X118012400Y-103783528D01*
X118012400Y-103783528D02*
X117869542Y-103712100D01*
X117869542Y-103712100D02*
X117798114Y-103569242D01*
X117798114Y-103569242D02*
X117798114Y-102997814D01*
X117798114Y-102997814D02*
X117869542Y-102854957D01*
X117869542Y-102854957D02*
X118012400Y-102783528D01*
X118012400Y-102783528D02*
X118298114Y-102783528D01*
X118298114Y-102783528D02*
X118440971Y-102854957D01*
X118440971Y-102854957D02*
X118512400Y-102997814D01*
X118512400Y-102997814D02*
X118512400Y-103140671D01*
X118512400Y-103140671D02*
X117798114Y-103283528D01*
X119012399Y-102783528D02*
X119369542Y-103783528D01*
X119369542Y-103783528D02*
X119726685Y-102783528D01*
X120298113Y-103640671D02*
X120369542Y-103712100D01*
X120369542Y-103712100D02*
X120298113Y-103783528D01*
X120298113Y-103783528D02*
X120226685Y-103712100D01*
X120226685Y-103712100D02*
X120298113Y-103640671D01*
X120298113Y-103640671D02*
X120298113Y-103783528D01*
X120298113Y-102854957D02*
X120369542Y-102926385D01*
X120369542Y-102926385D02*
X120298113Y-102997814D01*
X120298113Y-102997814D02*
X120226685Y-102926385D01*
X120226685Y-102926385D02*
X120298113Y-102854957D01*
X120298113Y-102854957D02*
X120298113Y-102997814D01*
X122940971Y-103783528D02*
X122083828Y-103783528D01*
X122512399Y-103783528D02*
X122512399Y-102283528D01*
X122512399Y-102283528D02*
X122369542Y-102497814D01*
X122369542Y-102497814D02*
X122226685Y-102640671D01*
X122226685Y-102640671D02*
X122083828Y-102712100D01*
X123583827Y-103640671D02*
X123655256Y-103712100D01*
X123655256Y-103712100D02*
X123583827Y-103783528D01*
X123583827Y-103783528D02*
X123512399Y-103712100D01*
X123512399Y-103712100D02*
X123583827Y-103640671D01*
X123583827Y-103640671D02*
X123583827Y-103783528D01*
X124583828Y-102283528D02*
X124726685Y-102283528D01*
X124726685Y-102283528D02*
X124869542Y-102354957D01*
X124869542Y-102354957D02*
X124940971Y-102426385D01*
X124940971Y-102426385D02*
X125012399Y-102569242D01*
X125012399Y-102569242D02*
X125083828Y-102854957D01*
X125083828Y-102854957D02*
X125083828Y-103212100D01*
X125083828Y-103212100D02*
X125012399Y-103497814D01*
X125012399Y-103497814D02*
X124940971Y-103640671D01*
X124940971Y-103640671D02*
X124869542Y-103712100D01*
X124869542Y-103712100D02*
X124726685Y-103783528D01*
X124726685Y-103783528D02*
X124583828Y-103783528D01*
X124583828Y-103783528D02*
X124440971Y-103712100D01*
X124440971Y-103712100D02*
X124369542Y-103640671D01*
X124369542Y-103640671D02*
X124298113Y-103497814D01*
X124298113Y-103497814D02*
X124226685Y-103212100D01*
X124226685Y-103212100D02*
X124226685Y-102854957D01*
X124226685Y-102854957D02*
X124298113Y-102569242D01*
X124298113Y-102569242D02*
X124369542Y-102426385D01*
X124369542Y-102426385D02*
X124440971Y-102354957D01*
X124440971Y-102354957D02*
X124583828Y-102283528D01*
D10*
D11*
X31298114Y-103712100D02*
X31512400Y-103783528D01*
X31512400Y-103783528D02*
X31869542Y-103783528D01*
X31869542Y-103783528D02*
X32012400Y-103712100D01*
X32012400Y-103712100D02*
X32083828Y-103640671D01*
X32083828Y-103640671D02*
X32155257Y-103497814D01*
X32155257Y-103497814D02*
X32155257Y-103354957D01*
X32155257Y-103354957D02*
X32083828Y-103212100D01*
X32083828Y-103212100D02*
X32012400Y-103140671D01*
X32012400Y-103140671D02*
X31869542Y-103069242D01*
X31869542Y-103069242D02*
X31583828Y-102997814D01*
X31583828Y-102997814D02*
X31440971Y-102926385D01*
X31440971Y-102926385D02*
X31369542Y-102854957D01*
X31369542Y-102854957D02*
X31298114Y-102712100D01*
X31298114Y-102712100D02*
X31298114Y-102569242D01*
X31298114Y-102569242D02*
X31369542Y-102426385D01*
X31369542Y-102426385D02*
X31440971Y-102354957D01*
X31440971Y-102354957D02*
X31583828Y-102283528D01*
X31583828Y-102283528D02*
X31940971Y-102283528D01*
X31940971Y-102283528D02*
X32155257Y-102354957D01*
X32798113Y-103783528D02*
X32798113Y-102783528D01*
X32798113Y-102283528D02*
X32726685Y-102354957D01*
X32726685Y-102354957D02*
X32798113Y-102426385D01*
X32798113Y-102426385D02*
X32869542Y-102354957D01*
X32869542Y-102354957D02*
X32798113Y-102283528D01*
X32798113Y-102283528D02*
X32798113Y-102426385D01*
X33369542Y-102783528D02*
X34155257Y-102783528D01*
X34155257Y-102783528D02*
X33369542Y-103783528D01*
X33369542Y-103783528D02*
X34155257Y-103783528D01*
X35298114Y-103712100D02*
X35155257Y-103783528D01*
X35155257Y-103783528D02*
X34869543Y-103783528D01*
X34869543Y-103783528D02*
X34726685Y-103712100D01*
X34726685Y-103712100D02*
X34655257Y-103569242D01*
X34655257Y-103569242D02*
X34655257Y-102997814D01*
X34655257Y-102997814D02*
X34726685Y-102854957D01*
X34726685Y-102854957D02*
X34869543Y-102783528D01*
X34869543Y-102783528D02*
X35155257Y-102783528D01*
X35155257Y-102783528D02*
X35298114Y-102854957D01*
X35298114Y-102854957D02*
X35369543Y-102997814D01*
X35369543Y-102997814D02*
X35369543Y-103140671D01*
X35369543Y-103140671D02*
X34655257Y-103283528D01*
X36012399Y-103640671D02*
X36083828Y-103712100D01*
X36083828Y-103712100D02*
X36012399Y-103783528D01*
X36012399Y-103783528D02*
X35940971Y-103712100D01*
X35940971Y-103712100D02*
X36012399Y-103640671D01*
X36012399Y-103640671D02*
X36012399Y-103783528D01*
X36012399Y-102854957D02*
X36083828Y-102926385D01*
X36083828Y-102926385D02*
X36012399Y-102997814D01*
X36012399Y-102997814D02*
X35940971Y-102926385D01*
X35940971Y-102926385D02*
X36012399Y-102854957D01*
X36012399Y-102854957D02*
X36012399Y-102997814D01*
X37869542Y-102283528D02*
X37869542Y-103497814D01*
X37869542Y-103497814D02*
X37940971Y-103640671D01*
X37940971Y-103640671D02*
X38012400Y-103712100D01*
X38012400Y-103712100D02*
X38155257Y-103783528D01*
X38155257Y-103783528D02*
X38440971Y-103783528D01*
X38440971Y-103783528D02*
X38583828Y-103712100D01*
X38583828Y-103712100D02*
X38655257Y-103640671D01*
X38655257Y-103640671D02*
X38726685Y-103497814D01*
X38726685Y-103497814D02*
X38726685Y-102283528D01*
X39369543Y-103712100D02*
X39512400Y-103783528D01*
X39512400Y-103783528D02*
X39798114Y-103783528D01*
X39798114Y-103783528D02*
X39940971Y-103712100D01*
X39940971Y-103712100D02*
X40012400Y-103569242D01*
X40012400Y-103569242D02*
X40012400Y-103497814D01*
X40012400Y-103497814D02*
X39940971Y-103354957D01*
X39940971Y-103354957D02*
X39798114Y-103283528D01*
X39798114Y-103283528D02*
X39583829Y-103283528D01*
X39583829Y-103283528D02*
X39440971Y-103212100D01*
X39440971Y-103212100D02*
X39369543Y-103069242D01*
X39369543Y-103069242D02*
X39369543Y-102997814D01*
X39369543Y-102997814D02*
X39440971Y-102854957D01*
X39440971Y-102854957D02*
X39583829Y-102783528D01*
X39583829Y-102783528D02*
X39798114Y-102783528D01*
X39798114Y-102783528D02*
X39940971Y-102854957D01*
X41226686Y-103712100D02*
X41083829Y-103783528D01*
X41083829Y-103783528D02*
X40798115Y-103783528D01*
X40798115Y-103783528D02*
X40655257Y-103712100D01*
X40655257Y-103712100D02*
X40583829Y-103569242D01*
X40583829Y-103569242D02*
X40583829Y-102997814D01*
X40583829Y-102997814D02*
X40655257Y-102854957D01*
X40655257Y-102854957D02*
X40798115Y-102783528D01*
X40798115Y-102783528D02*
X41083829Y-102783528D01*
X41083829Y-102783528D02*
X41226686Y-102854957D01*
X41226686Y-102854957D02*
X41298115Y-102997814D01*
X41298115Y-102997814D02*
X41298115Y-103140671D01*
X41298115Y-103140671D02*
X40583829Y-103283528D01*
X41940971Y-103783528D02*
X41940971Y-102783528D01*
X41940971Y-103069242D02*
X42012400Y-102926385D01*
X42012400Y-102926385D02*
X42083829Y-102854957D01*
X42083829Y-102854957D02*
X42226686Y-102783528D01*
X42226686Y-102783528D02*
X42369543Y-102783528D01*
D10*
D11*
X116369542Y-106583528D02*
X116369542Y-105083528D01*
X117726686Y-106583528D02*
X117726686Y-105083528D01*
X117726686Y-106512100D02*
X117583828Y-106583528D01*
X117583828Y-106583528D02*
X117298114Y-106583528D01*
X117298114Y-106583528D02*
X117155257Y-106512100D01*
X117155257Y-106512100D02*
X117083828Y-106440671D01*
X117083828Y-106440671D02*
X117012400Y-106297814D01*
X117012400Y-106297814D02*
X117012400Y-105869242D01*
X117012400Y-105869242D02*
X117083828Y-105726385D01*
X117083828Y-105726385D02*
X117155257Y-105654957D01*
X117155257Y-105654957D02*
X117298114Y-105583528D01*
X117298114Y-105583528D02*
X117583828Y-105583528D01*
X117583828Y-105583528D02*
X117726686Y-105654957D01*
X118440971Y-106440671D02*
X118512400Y-106512100D01*
X118512400Y-106512100D02*
X118440971Y-106583528D01*
X118440971Y-106583528D02*
X118369543Y-106512100D01*
X118369543Y-106512100D02*
X118440971Y-106440671D01*
X118440971Y-106440671D02*
X118440971Y-106583528D01*
X118440971Y-105654957D02*
X118512400Y-105726385D01*
X118512400Y-105726385D02*
X118440971Y-105797814D01*
X118440971Y-105797814D02*
X118369543Y-105726385D01*
X118369543Y-105726385D02*
X118440971Y-105654957D01*
X118440971Y-105654957D02*
X118440971Y-105797814D01*
X121083829Y-106583528D02*
X120226686Y-106583528D01*
X120655257Y-106583528D02*
X120655257Y-105083528D01*
X120655257Y-105083528D02*
X120512400Y-105297814D01*
X120512400Y-105297814D02*
X120369543Y-105440671D01*
X120369543Y-105440671D02*
X120226686Y-105512100D01*
X122798114Y-105012100D02*
X121512400Y-106940671D01*
X124083829Y-106583528D02*
X123226686Y-106583528D01*
X123655257Y-106583528D02*
X123655257Y-105083528D01*
X123655257Y-105083528D02*
X123512400Y-105297814D01*
X123512400Y-105297814D02*
X123369543Y-105440671D01*
X123369543Y-105440671D02*
X123226686Y-105512100D01*
D10*
D11*
X30012400Y-97489600D02*
X138012400Y-97489600D01*
D10*
D13*
X31440971Y-98214838D02*
X32583828Y-98214838D01*
X31762400Y-100214838D02*
X32012400Y-98214838D01*
X32988590Y-100214838D02*
X33155257Y-98881504D01*
X33238590Y-98214838D02*
X33131447Y-98310076D01*
X33131447Y-98310076D02*
X33214781Y-98405314D01*
X33214781Y-98405314D02*
X33321924Y-98310076D01*
X33321924Y-98310076D02*
X33238590Y-98214838D01*
X33238590Y-98214838D02*
X33214781Y-98405314D01*
X33810019Y-98881504D02*
X34571923Y-98881504D01*
X34179066Y-98214838D02*
X33964781Y-99929123D01*
X33964781Y-99929123D02*
X34036209Y-100119600D01*
X34036209Y-100119600D02*
X34214781Y-100214838D01*
X34214781Y-100214838D02*
X34405257Y-100214838D01*
X35345733Y-100214838D02*
X35167161Y-100119600D01*
X35167161Y-100119600D02*
X35095733Y-99929123D01*
X35095733Y-99929123D02*
X35310018Y-98214838D01*
X36869542Y-100119600D02*
X36667161Y-100214838D01*
X36667161Y-100214838D02*
X36286208Y-100214838D01*
X36286208Y-100214838D02*
X36107637Y-100119600D01*
X36107637Y-100119600D02*
X36036208Y-99929123D01*
X36036208Y-99929123D02*
X36131447Y-99167219D01*
X36131447Y-99167219D02*
X36250494Y-98976742D01*
X36250494Y-98976742D02*
X36452875Y-98881504D01*
X36452875Y-98881504D02*
X36833827Y-98881504D01*
X36833827Y-98881504D02*
X37012399Y-98976742D01*
X37012399Y-98976742D02*
X37083827Y-99167219D01*
X37083827Y-99167219D02*
X37060018Y-99357695D01*
X37060018Y-99357695D02*
X36083827Y-99548171D01*
X37821923Y-100024361D02*
X37905256Y-100119600D01*
X37905256Y-100119600D02*
X37798113Y-100214838D01*
X37798113Y-100214838D02*
X37714780Y-100119600D01*
X37714780Y-100119600D02*
X37821923Y-100024361D01*
X37821923Y-100024361D02*
X37798113Y-100214838D01*
X37952875Y-98976742D02*
X38036208Y-99071980D01*
X38036208Y-99071980D02*
X37929066Y-99167219D01*
X37929066Y-99167219D02*
X37845732Y-99071980D01*
X37845732Y-99071980D02*
X37952875Y-98976742D01*
X37952875Y-98976742D02*
X37929066Y-99167219D01*
X41405256Y-100214838D02*
X40857637Y-99262457D01*
X40262399Y-100214838D02*
X40512399Y-98214838D01*
X40512399Y-98214838D02*
X41274304Y-98214838D01*
X41274304Y-98214838D02*
X41452875Y-98310076D01*
X41452875Y-98310076D02*
X41536209Y-98405314D01*
X41536209Y-98405314D02*
X41607637Y-98595790D01*
X41607637Y-98595790D02*
X41571923Y-98881504D01*
X41571923Y-98881504D02*
X41452875Y-99071980D01*
X41452875Y-99071980D02*
X41345733Y-99167219D01*
X41345733Y-99167219D02*
X41143352Y-99262457D01*
X41143352Y-99262457D02*
X40381447Y-99262457D01*
X42381447Y-99167219D02*
X43048113Y-99167219D01*
X43202875Y-100214838D02*
X42250494Y-100214838D01*
X42250494Y-100214838D02*
X42500494Y-98214838D01*
X42500494Y-98214838D02*
X43452875Y-98214838D01*
X44048113Y-100214838D02*
X44298113Y-98214838D01*
X44298113Y-98214838D02*
X45190970Y-100214838D01*
X45190970Y-100214838D02*
X45440970Y-98214838D01*
X46929065Y-99167219D02*
X46262399Y-99167219D01*
X46131446Y-100214838D02*
X46381446Y-98214838D01*
X46381446Y-98214838D02*
X47333827Y-98214838D01*
X48464780Y-98214838D02*
X48845732Y-98214838D01*
X48845732Y-98214838D02*
X49024303Y-98310076D01*
X49024303Y-98310076D02*
X49190970Y-98500552D01*
X49190970Y-98500552D02*
X49238589Y-98881504D01*
X49238589Y-98881504D02*
X49155256Y-99548171D01*
X49155256Y-99548171D02*
X49012399Y-99929123D01*
X49012399Y-99929123D02*
X48798113Y-100119600D01*
X48798113Y-100119600D02*
X48595732Y-100214838D01*
X48595732Y-100214838D02*
X48214780Y-100214838D01*
X48214780Y-100214838D02*
X48036208Y-100119600D01*
X48036208Y-100119600D02*
X47869542Y-99929123D01*
X47869542Y-99929123D02*
X47821922Y-99548171D01*
X47821922Y-99548171D02*
X47905256Y-98881504D01*
X47905256Y-98881504D02*
X48048113Y-98500552D01*
X48048113Y-98500552D02*
X48262399Y-98310076D01*
X48262399Y-98310076D02*
X48464780Y-98214838D01*
X51060017Y-100214838D02*
X50512398Y-99262457D01*
X49917160Y-100214838D02*
X50167160Y-98214838D01*
X50167160Y-98214838D02*
X50929065Y-98214838D01*
X50929065Y-98214838D02*
X51107636Y-98310076D01*
X51107636Y-98310076D02*
X51190970Y-98405314D01*
X51190970Y-98405314D02*
X51262398Y-98595790D01*
X51262398Y-98595790D02*
X51226684Y-98881504D01*
X51226684Y-98881504D02*
X51107636Y-99071980D01*
X51107636Y-99071980D02*
X51000494Y-99167219D01*
X51000494Y-99167219D02*
X50798113Y-99262457D01*
X50798113Y-99262457D02*
X50036208Y-99262457D01*
X53071922Y-100024361D02*
X52964779Y-100119600D01*
X52964779Y-100119600D02*
X52667160Y-100214838D01*
X52667160Y-100214838D02*
X52476684Y-100214838D01*
X52476684Y-100214838D02*
X52202874Y-100119600D01*
X52202874Y-100119600D02*
X52036208Y-99929123D01*
X52036208Y-99929123D02*
X51964779Y-99738647D01*
X51964779Y-99738647D02*
X51917160Y-99357695D01*
X51917160Y-99357695D02*
X51952874Y-99071980D01*
X51952874Y-99071980D02*
X52095731Y-98691028D01*
X52095731Y-98691028D02*
X52214779Y-98500552D01*
X52214779Y-98500552D02*
X52429065Y-98310076D01*
X52429065Y-98310076D02*
X52726684Y-98214838D01*
X52726684Y-98214838D02*
X52917160Y-98214838D01*
X52917160Y-98214838D02*
X53190970Y-98310076D01*
X53190970Y-98310076D02*
X53274303Y-98405314D01*
X54024303Y-99167219D02*
X54690969Y-99167219D01*
X54845731Y-100214838D02*
X53893350Y-100214838D01*
X53893350Y-100214838D02*
X54143350Y-98214838D01*
X54143350Y-98214838D02*
X55095731Y-98214838D01*
X57310017Y-99452933D02*
X58833827Y-99452933D01*
X61345732Y-99167219D02*
X62012398Y-99167219D01*
X62167160Y-100214838D02*
X61214779Y-100214838D01*
X61214779Y-100214838D02*
X61464779Y-98214838D01*
X61464779Y-98214838D02*
X62417160Y-98214838D01*
X63012398Y-100214838D02*
X63262398Y-98214838D01*
X63262398Y-98214838D02*
X63738589Y-98214838D01*
X63738589Y-98214838D02*
X64012398Y-98310076D01*
X64012398Y-98310076D02*
X64179065Y-98500552D01*
X64179065Y-98500552D02*
X64250493Y-98691028D01*
X64250493Y-98691028D02*
X64298113Y-99071980D01*
X64298113Y-99071980D02*
X64262398Y-99357695D01*
X64262398Y-99357695D02*
X64119541Y-99738647D01*
X64119541Y-99738647D02*
X64000493Y-99929123D01*
X64000493Y-99929123D02*
X63786208Y-100119600D01*
X63786208Y-100119600D02*
X63488589Y-100214838D01*
X63488589Y-100214838D02*
X63012398Y-100214838D01*
X64976684Y-99643409D02*
X65929065Y-99643409D01*
X64714779Y-100214838D02*
X65631446Y-98214838D01*
X65631446Y-98214838D02*
X66048112Y-100214838D01*
X68143351Y-100119600D02*
X68417160Y-100214838D01*
X68417160Y-100214838D02*
X68893351Y-100214838D01*
X68893351Y-100214838D02*
X69095732Y-100119600D01*
X69095732Y-100119600D02*
X69202875Y-100024361D01*
X69202875Y-100024361D02*
X69321922Y-99833885D01*
X69321922Y-99833885D02*
X69345732Y-99643409D01*
X69345732Y-99643409D02*
X69274303Y-99452933D01*
X69274303Y-99452933D02*
X69190970Y-99357695D01*
X69190970Y-99357695D02*
X69012399Y-99262457D01*
X69012399Y-99262457D02*
X68643351Y-99167219D01*
X68643351Y-99167219D02*
X68464779Y-99071980D01*
X68464779Y-99071980D02*
X68381446Y-98976742D01*
X68381446Y-98976742D02*
X68310018Y-98786266D01*
X68310018Y-98786266D02*
X68333827Y-98595790D01*
X68333827Y-98595790D02*
X68452875Y-98405314D01*
X68452875Y-98405314D02*
X68560018Y-98310076D01*
X68560018Y-98310076D02*
X68762399Y-98214838D01*
X68762399Y-98214838D02*
X69238589Y-98214838D01*
X69238589Y-98214838D02*
X69512399Y-98310076D01*
X70893351Y-100119600D02*
X70690970Y-100214838D01*
X70690970Y-100214838D02*
X70310017Y-100214838D01*
X70310017Y-100214838D02*
X70131446Y-100119600D01*
X70131446Y-100119600D02*
X70060017Y-99929123D01*
X70060017Y-99929123D02*
X70155256Y-99167219D01*
X70155256Y-99167219D02*
X70274303Y-98976742D01*
X70274303Y-98976742D02*
X70476684Y-98881504D01*
X70476684Y-98881504D02*
X70857636Y-98881504D01*
X70857636Y-98881504D02*
X71036208Y-98976742D01*
X71036208Y-98976742D02*
X71107636Y-99167219D01*
X71107636Y-99167219D02*
X71083827Y-99357695D01*
X71083827Y-99357695D02*
X70107636Y-99548171D01*
X71988589Y-98881504D02*
X71821922Y-100214838D01*
X71964779Y-99071980D02*
X72071922Y-98976742D01*
X72071922Y-98976742D02*
X72274303Y-98881504D01*
X72274303Y-98881504D02*
X72560017Y-98881504D01*
X72560017Y-98881504D02*
X72738589Y-98976742D01*
X72738589Y-98976742D02*
X72810017Y-99167219D01*
X72810017Y-99167219D02*
X72679065Y-100214838D01*
X73536208Y-100119600D02*
X73714779Y-100214838D01*
X73714779Y-100214838D02*
X74095732Y-100214838D01*
X74095732Y-100214838D02*
X74298113Y-100119600D01*
X74298113Y-100119600D02*
X74417160Y-99929123D01*
X74417160Y-99929123D02*
X74429065Y-99833885D01*
X74429065Y-99833885D02*
X74357636Y-99643409D01*
X74357636Y-99643409D02*
X74179065Y-99548171D01*
X74179065Y-99548171D02*
X73893351Y-99548171D01*
X73893351Y-99548171D02*
X73714779Y-99452933D01*
X73714779Y-99452933D02*
X73643351Y-99262457D01*
X73643351Y-99262457D02*
X73655256Y-99167219D01*
X73655256Y-99167219D02*
X73774303Y-98976742D01*
X73774303Y-98976742D02*
X73976684Y-98881504D01*
X73976684Y-98881504D02*
X74262398Y-98881504D01*
X74262398Y-98881504D02*
X74440970Y-98976742D01*
X75512399Y-100214838D02*
X75333827Y-100119600D01*
X75333827Y-100119600D02*
X75250494Y-100024361D01*
X75250494Y-100024361D02*
X75179065Y-99833885D01*
X75179065Y-99833885D02*
X75250494Y-99262457D01*
X75250494Y-99262457D02*
X75369541Y-99071980D01*
X75369541Y-99071980D02*
X75476684Y-98976742D01*
X75476684Y-98976742D02*
X75679065Y-98881504D01*
X75679065Y-98881504D02*
X75964779Y-98881504D01*
X75964779Y-98881504D02*
X76143351Y-98976742D01*
X76143351Y-98976742D02*
X76226684Y-99071980D01*
X76226684Y-99071980D02*
X76298113Y-99262457D01*
X76298113Y-99262457D02*
X76226684Y-99833885D01*
X76226684Y-99833885D02*
X76107637Y-100024361D01*
X76107637Y-100024361D02*
X76000494Y-100119600D01*
X76000494Y-100119600D02*
X75798113Y-100214838D01*
X75798113Y-100214838D02*
X75512399Y-100214838D01*
X77024303Y-100214838D02*
X77190970Y-98881504D01*
X77143351Y-99262457D02*
X77262398Y-99071980D01*
X77262398Y-99071980D02*
X77369541Y-98976742D01*
X77369541Y-98976742D02*
X77571922Y-98881504D01*
X77571922Y-98881504D02*
X77762398Y-98881504D01*
D10*
D11*
X31869542Y-95597814D02*
X31369542Y-95597814D01*
X31369542Y-96383528D02*
X31369542Y-94883528D01*
X31369542Y-94883528D02*
X32083828Y-94883528D01*
X32655256Y-96383528D02*
X32655256Y-95383528D01*
X32655256Y-94883528D02*
X32583828Y-94954957D01*
X32583828Y-94954957D02*
X32655256Y-95026385D01*
X32655256Y-95026385D02*
X32726685Y-94954957D01*
X32726685Y-94954957D02*
X32655256Y-94883528D01*
X32655256Y-94883528D02*
X32655256Y-95026385D01*
X33583828Y-96383528D02*
X33440971Y-96312100D01*
X33440971Y-96312100D02*
X33369542Y-96169242D01*
X33369542Y-96169242D02*
X33369542Y-94883528D01*
X34726685Y-96312100D02*
X34583828Y-96383528D01*
X34583828Y-96383528D02*
X34298114Y-96383528D01*
X34298114Y-96383528D02*
X34155256Y-96312100D01*
X34155256Y-96312100D02*
X34083828Y-96169242D01*
X34083828Y-96169242D02*
X34083828Y-95597814D01*
X34083828Y-95597814D02*
X34155256Y-95454957D01*
X34155256Y-95454957D02*
X34298114Y-95383528D01*
X34298114Y-95383528D02*
X34583828Y-95383528D01*
X34583828Y-95383528D02*
X34726685Y-95454957D01*
X34726685Y-95454957D02*
X34798114Y-95597814D01*
X34798114Y-95597814D02*
X34798114Y-95740671D01*
X34798114Y-95740671D02*
X34083828Y-95883528D01*
X35440970Y-96240671D02*
X35512399Y-96312100D01*
X35512399Y-96312100D02*
X35440970Y-96383528D01*
X35440970Y-96383528D02*
X35369542Y-96312100D01*
X35369542Y-96312100D02*
X35440970Y-96240671D01*
X35440970Y-96240671D02*
X35440970Y-96383528D01*
X35440970Y-95454957D02*
X35512399Y-95526385D01*
X35512399Y-95526385D02*
X35440970Y-95597814D01*
X35440970Y-95597814D02*
X35369542Y-95526385D01*
X35369542Y-95526385D02*
X35440970Y-95454957D01*
X35440970Y-95454957D02*
X35440970Y-95597814D01*
X37298113Y-96383528D02*
X37298113Y-95383528D01*
X37298113Y-95669242D02*
X37369542Y-95526385D01*
X37369542Y-95526385D02*
X37440971Y-95454957D01*
X37440971Y-95454957D02*
X37583828Y-95383528D01*
X37583828Y-95383528D02*
X37726685Y-95383528D01*
X38798113Y-96312100D02*
X38655256Y-96383528D01*
X38655256Y-96383528D02*
X38369542Y-96383528D01*
X38369542Y-96383528D02*
X38226684Y-96312100D01*
X38226684Y-96312100D02*
X38155256Y-96169242D01*
X38155256Y-96169242D02*
X38155256Y-95597814D01*
X38155256Y-95597814D02*
X38226684Y-95454957D01*
X38226684Y-95454957D02*
X38369542Y-95383528D01*
X38369542Y-95383528D02*
X38655256Y-95383528D01*
X38655256Y-95383528D02*
X38798113Y-95454957D01*
X38798113Y-95454957D02*
X38869542Y-95597814D01*
X38869542Y-95597814D02*
X38869542Y-95740671D01*
X38869542Y-95740671D02*
X38155256Y-95883528D01*
X39512398Y-95383528D02*
X39512398Y-96383528D01*
X39512398Y-95526385D02*
X39583827Y-95454957D01*
X39583827Y-95454957D02*
X39726684Y-95383528D01*
X39726684Y-95383528D02*
X39940970Y-95383528D01*
X39940970Y-95383528D02*
X40083827Y-95454957D01*
X40083827Y-95454957D02*
X40155256Y-95597814D01*
X40155256Y-95597814D02*
X40155256Y-96383528D01*
X40655256Y-95383528D02*
X41226684Y-95383528D01*
X40869541Y-96383528D02*
X40869541Y-95097814D01*
X40869541Y-95097814D02*
X40940970Y-94954957D01*
X40940970Y-94954957D02*
X41083827Y-94883528D01*
X41083827Y-94883528D02*
X41226684Y-94883528D01*
X41940970Y-96383528D02*
X41798113Y-96312100D01*
X41798113Y-96312100D02*
X41726684Y-96240671D01*
X41726684Y-96240671D02*
X41655256Y-96097814D01*
X41655256Y-96097814D02*
X41655256Y-95669242D01*
X41655256Y-95669242D02*
X41726684Y-95526385D01*
X41726684Y-95526385D02*
X41798113Y-95454957D01*
X41798113Y-95454957D02*
X41940970Y-95383528D01*
X41940970Y-95383528D02*
X42155256Y-95383528D01*
X42155256Y-95383528D02*
X42298113Y-95454957D01*
X42298113Y-95454957D02*
X42369542Y-95526385D01*
X42369542Y-95526385D02*
X42440970Y-95669242D01*
X42440970Y-95669242D02*
X42440970Y-96097814D01*
X42440970Y-96097814D02*
X42369542Y-96240671D01*
X42369542Y-96240671D02*
X42298113Y-96312100D01*
X42298113Y-96312100D02*
X42155256Y-96383528D01*
X42155256Y-96383528D02*
X41940970Y-96383528D01*
X43083827Y-96383528D02*
X43083827Y-95383528D01*
X43083827Y-95669242D02*
X43155256Y-95526385D01*
X43155256Y-95526385D02*
X43226685Y-95454957D01*
X43226685Y-95454957D02*
X43369542Y-95383528D01*
X43369542Y-95383528D02*
X43512399Y-95383528D01*
X44655256Y-96312100D02*
X44512398Y-96383528D01*
X44512398Y-96383528D02*
X44226684Y-96383528D01*
X44226684Y-96383528D02*
X44083827Y-96312100D01*
X44083827Y-96312100D02*
X44012398Y-96240671D01*
X44012398Y-96240671D02*
X43940970Y-96097814D01*
X43940970Y-96097814D02*
X43940970Y-95669242D01*
X43940970Y-95669242D02*
X44012398Y-95526385D01*
X44012398Y-95526385D02*
X44083827Y-95454957D01*
X44083827Y-95454957D02*
X44226684Y-95383528D01*
X44226684Y-95383528D02*
X44512398Y-95383528D01*
X44512398Y-95383528D02*
X44655256Y-95454957D01*
X45869541Y-96312100D02*
X45726684Y-96383528D01*
X45726684Y-96383528D02*
X45440970Y-96383528D01*
X45440970Y-96383528D02*
X45298112Y-96312100D01*
X45298112Y-96312100D02*
X45226684Y-96169242D01*
X45226684Y-96169242D02*
X45226684Y-95597814D01*
X45226684Y-95597814D02*
X45298112Y-95454957D01*
X45298112Y-95454957D02*
X45440970Y-95383528D01*
X45440970Y-95383528D02*
X45726684Y-95383528D01*
X45726684Y-95383528D02*
X45869541Y-95454957D01*
X45869541Y-95454957D02*
X45940970Y-95597814D01*
X45940970Y-95597814D02*
X45940970Y-95740671D01*
X45940970Y-95740671D02*
X45226684Y-95883528D01*
X46583826Y-95812100D02*
X47726684Y-95812100D01*
X49012398Y-96312100D02*
X48869541Y-96383528D01*
X48869541Y-96383528D02*
X48583827Y-96383528D01*
X48583827Y-96383528D02*
X48440969Y-96312100D01*
X48440969Y-96312100D02*
X48369541Y-96169242D01*
X48369541Y-96169242D02*
X48369541Y-95597814D01*
X48369541Y-95597814D02*
X48440969Y-95454957D01*
X48440969Y-95454957D02*
X48583827Y-95383528D01*
X48583827Y-95383528D02*
X48869541Y-95383528D01*
X48869541Y-95383528D02*
X49012398Y-95454957D01*
X49012398Y-95454957D02*
X49083827Y-95597814D01*
X49083827Y-95597814D02*
X49083827Y-95740671D01*
X49083827Y-95740671D02*
X48369541Y-95883528D01*
X50369541Y-96383528D02*
X50369541Y-94883528D01*
X50369541Y-96312100D02*
X50226683Y-96383528D01*
X50226683Y-96383528D02*
X49940969Y-96383528D01*
X49940969Y-96383528D02*
X49798112Y-96312100D01*
X49798112Y-96312100D02*
X49726683Y-96240671D01*
X49726683Y-96240671D02*
X49655255Y-96097814D01*
X49655255Y-96097814D02*
X49655255Y-95669242D01*
X49655255Y-95669242D02*
X49726683Y-95526385D01*
X49726683Y-95526385D02*
X49798112Y-95454957D01*
X49798112Y-95454957D02*
X49940969Y-95383528D01*
X49940969Y-95383528D02*
X50226683Y-95383528D01*
X50226683Y-95383528D02*
X50369541Y-95454957D01*
X51726684Y-96383528D02*
X51726684Y-95597814D01*
X51726684Y-95597814D02*
X51655255Y-95454957D01*
X51655255Y-95454957D02*
X51512398Y-95383528D01*
X51512398Y-95383528D02*
X51226684Y-95383528D01*
X51226684Y-95383528D02*
X51083826Y-95454957D01*
X51726684Y-96312100D02*
X51583826Y-96383528D01*
X51583826Y-96383528D02*
X51226684Y-96383528D01*
X51226684Y-96383528D02*
X51083826Y-96312100D01*
X51083826Y-96312100D02*
X51012398Y-96169242D01*
X51012398Y-96169242D02*
X51012398Y-96026385D01*
X51012398Y-96026385D02*
X51083826Y-95883528D01*
X51083826Y-95883528D02*
X51226684Y-95812100D01*
X51226684Y-95812100D02*
X51583826Y-95812100D01*
X51583826Y-95812100D02*
X51726684Y-95740671D01*
X52440969Y-96240671D02*
X52512398Y-96312100D01*
X52512398Y-96312100D02*
X52440969Y-96383528D01*
X52440969Y-96383528D02*
X52369541Y-96312100D01*
X52369541Y-96312100D02*
X52440969Y-96240671D01*
X52440969Y-96240671D02*
X52440969Y-96383528D01*
X53155255Y-96383528D02*
X53155255Y-94883528D01*
X53298113Y-95812100D02*
X53726684Y-96383528D01*
X53726684Y-95383528D02*
X53155255Y-95954957D01*
X54369541Y-96383528D02*
X54369541Y-95383528D01*
X54369541Y-94883528D02*
X54298113Y-94954957D01*
X54298113Y-94954957D02*
X54369541Y-95026385D01*
X54369541Y-95026385D02*
X54440970Y-94954957D01*
X54440970Y-94954957D02*
X54369541Y-94883528D01*
X54369541Y-94883528D02*
X54369541Y-95026385D01*
X55726685Y-96312100D02*
X55583827Y-96383528D01*
X55583827Y-96383528D02*
X55298113Y-96383528D01*
X55298113Y-96383528D02*
X55155256Y-96312100D01*
X55155256Y-96312100D02*
X55083827Y-96240671D01*
X55083827Y-96240671D02*
X55012399Y-96097814D01*
X55012399Y-96097814D02*
X55012399Y-95669242D01*
X55012399Y-95669242D02*
X55083827Y-95526385D01*
X55083827Y-95526385D02*
X55155256Y-95454957D01*
X55155256Y-95454957D02*
X55298113Y-95383528D01*
X55298113Y-95383528D02*
X55583827Y-95383528D01*
X55583827Y-95383528D02*
X55726685Y-95454957D01*
X57012399Y-96383528D02*
X57012399Y-95597814D01*
X57012399Y-95597814D02*
X56940970Y-95454957D01*
X56940970Y-95454957D02*
X56798113Y-95383528D01*
X56798113Y-95383528D02*
X56512399Y-95383528D01*
X56512399Y-95383528D02*
X56369541Y-95454957D01*
X57012399Y-96312100D02*
X56869541Y-96383528D01*
X56869541Y-96383528D02*
X56512399Y-96383528D01*
X56512399Y-96383528D02*
X56369541Y-96312100D01*
X56369541Y-96312100D02*
X56298113Y-96169242D01*
X56298113Y-96169242D02*
X56298113Y-96026385D01*
X56298113Y-96026385D02*
X56369541Y-95883528D01*
X56369541Y-95883528D02*
X56512399Y-95812100D01*
X56512399Y-95812100D02*
X56869541Y-95812100D01*
X56869541Y-95812100D02*
X57012399Y-95740671D01*
X58369542Y-96383528D02*
X58369542Y-94883528D01*
X58369542Y-96312100D02*
X58226684Y-96383528D01*
X58226684Y-96383528D02*
X57940970Y-96383528D01*
X57940970Y-96383528D02*
X57798113Y-96312100D01*
X57798113Y-96312100D02*
X57726684Y-96240671D01*
X57726684Y-96240671D02*
X57655256Y-96097814D01*
X57655256Y-96097814D02*
X57655256Y-95669242D01*
X57655256Y-95669242D02*
X57726684Y-95526385D01*
X57726684Y-95526385D02*
X57798113Y-95454957D01*
X57798113Y-95454957D02*
X57940970Y-95383528D01*
X57940970Y-95383528D02*
X58226684Y-95383528D01*
X58226684Y-95383528D02*
X58369542Y-95454957D01*
X58726685Y-96526385D02*
X59869542Y-96526385D01*
X60226684Y-95383528D02*
X60226684Y-96883528D01*
X60226684Y-95454957D02*
X60369542Y-95383528D01*
X60369542Y-95383528D02*
X60655256Y-95383528D01*
X60655256Y-95383528D02*
X60798113Y-95454957D01*
X60798113Y-95454957D02*
X60869542Y-95526385D01*
X60869542Y-95526385D02*
X60940970Y-95669242D01*
X60940970Y-95669242D02*
X60940970Y-96097814D01*
X60940970Y-96097814D02*
X60869542Y-96240671D01*
X60869542Y-96240671D02*
X60798113Y-96312100D01*
X60798113Y-96312100D02*
X60655256Y-96383528D01*
X60655256Y-96383528D02*
X60369542Y-96383528D01*
X60369542Y-96383528D02*
X60226684Y-96312100D01*
X62226685Y-96312100D02*
X62083827Y-96383528D01*
X62083827Y-96383528D02*
X61798113Y-96383528D01*
X61798113Y-96383528D02*
X61655256Y-96312100D01*
X61655256Y-96312100D02*
X61583827Y-96240671D01*
X61583827Y-96240671D02*
X61512399Y-96097814D01*
X61512399Y-96097814D02*
X61512399Y-95669242D01*
X61512399Y-95669242D02*
X61583827Y-95526385D01*
X61583827Y-95526385D02*
X61655256Y-95454957D01*
X61655256Y-95454957D02*
X61798113Y-95383528D01*
X61798113Y-95383528D02*
X62083827Y-95383528D01*
X62083827Y-95383528D02*
X62226685Y-95454957D01*
X62869541Y-96383528D02*
X62869541Y-94883528D01*
X62869541Y-95454957D02*
X63012399Y-95383528D01*
X63012399Y-95383528D02*
X63298113Y-95383528D01*
X63298113Y-95383528D02*
X63440970Y-95454957D01*
X63440970Y-95454957D02*
X63512399Y-95526385D01*
X63512399Y-95526385D02*
X63583827Y-95669242D01*
X63583827Y-95669242D02*
X63583827Y-96097814D01*
X63583827Y-96097814D02*
X63512399Y-96240671D01*
X63512399Y-96240671D02*
X63440970Y-96312100D01*
X63440970Y-96312100D02*
X63298113Y-96383528D01*
X63298113Y-96383528D02*
X63012399Y-96383528D01*
X63012399Y-96383528D02*
X62869541Y-96312100D01*
D10*
D11*
X30012400Y-91489600D02*
X138012400Y-91489600D01*
D10*
D11*
X31298114Y-93612100D02*
X31512400Y-93683528D01*
X31512400Y-93683528D02*
X31869542Y-93683528D01*
X31869542Y-93683528D02*
X32012400Y-93612100D01*
X32012400Y-93612100D02*
X32083828Y-93540671D01*
X32083828Y-93540671D02*
X32155257Y-93397814D01*
X32155257Y-93397814D02*
X32155257Y-93254957D01*
X32155257Y-93254957D02*
X32083828Y-93112100D01*
X32083828Y-93112100D02*
X32012400Y-93040671D01*
X32012400Y-93040671D02*
X31869542Y-92969242D01*
X31869542Y-92969242D02*
X31583828Y-92897814D01*
X31583828Y-92897814D02*
X31440971Y-92826385D01*
X31440971Y-92826385D02*
X31369542Y-92754957D01*
X31369542Y-92754957D02*
X31298114Y-92612100D01*
X31298114Y-92612100D02*
X31298114Y-92469242D01*
X31298114Y-92469242D02*
X31369542Y-92326385D01*
X31369542Y-92326385D02*
X31440971Y-92254957D01*
X31440971Y-92254957D02*
X31583828Y-92183528D01*
X31583828Y-92183528D02*
X31940971Y-92183528D01*
X31940971Y-92183528D02*
X32155257Y-92254957D01*
X32798113Y-93683528D02*
X32798113Y-92183528D01*
X33440971Y-93683528D02*
X33440971Y-92897814D01*
X33440971Y-92897814D02*
X33369542Y-92754957D01*
X33369542Y-92754957D02*
X33226685Y-92683528D01*
X33226685Y-92683528D02*
X33012399Y-92683528D01*
X33012399Y-92683528D02*
X32869542Y-92754957D01*
X32869542Y-92754957D02*
X32798113Y-92826385D01*
X34726685Y-93612100D02*
X34583828Y-93683528D01*
X34583828Y-93683528D02*
X34298114Y-93683528D01*
X34298114Y-93683528D02*
X34155256Y-93612100D01*
X34155256Y-93612100D02*
X34083828Y-93469242D01*
X34083828Y-93469242D02*
X34083828Y-92897814D01*
X34083828Y-92897814D02*
X34155256Y-92754957D01*
X34155256Y-92754957D02*
X34298114Y-92683528D01*
X34298114Y-92683528D02*
X34583828Y-92683528D01*
X34583828Y-92683528D02*
X34726685Y-92754957D01*
X34726685Y-92754957D02*
X34798114Y-92897814D01*
X34798114Y-92897814D02*
X34798114Y-93040671D01*
X34798114Y-93040671D02*
X34083828Y-93183528D01*
X36012399Y-93612100D02*
X35869542Y-93683528D01*
X35869542Y-93683528D02*
X35583828Y-93683528D01*
X35583828Y-93683528D02*
X35440970Y-93612100D01*
X35440970Y-93612100D02*
X35369542Y-93469242D01*
X35369542Y-93469242D02*
X35369542Y-92897814D01*
X35369542Y-92897814D02*
X35440970Y-92754957D01*
X35440970Y-92754957D02*
X35583828Y-92683528D01*
X35583828Y-92683528D02*
X35869542Y-92683528D01*
X35869542Y-92683528D02*
X36012399Y-92754957D01*
X36012399Y-92754957D02*
X36083828Y-92897814D01*
X36083828Y-92897814D02*
X36083828Y-93040671D01*
X36083828Y-93040671D02*
X35369542Y-93183528D01*
X36512399Y-92683528D02*
X37083827Y-92683528D01*
X36726684Y-92183528D02*
X36726684Y-93469242D01*
X36726684Y-93469242D02*
X36798113Y-93612100D01*
X36798113Y-93612100D02*
X36940970Y-93683528D01*
X36940970Y-93683528D02*
X37083827Y-93683528D01*
X37583827Y-93540671D02*
X37655256Y-93612100D01*
X37655256Y-93612100D02*
X37583827Y-93683528D01*
X37583827Y-93683528D02*
X37512399Y-93612100D01*
X37512399Y-93612100D02*
X37583827Y-93540671D01*
X37583827Y-93540671D02*
X37583827Y-93683528D01*
X37583827Y-92754957D02*
X37655256Y-92826385D01*
X37655256Y-92826385D02*
X37583827Y-92897814D01*
X37583827Y-92897814D02*
X37512399Y-92826385D01*
X37512399Y-92826385D02*
X37583827Y-92754957D01*
X37583827Y-92754957D02*
X37583827Y-92897814D01*
D10*
D12*
D10*
D11*
X32226685Y-87540671D02*
X32155257Y-87612100D01*
X32155257Y-87612100D02*
X31940971Y-87683528D01*
X31940971Y-87683528D02*
X31798114Y-87683528D01*
X31798114Y-87683528D02*
X31583828Y-87612100D01*
X31583828Y-87612100D02*
X31440971Y-87469242D01*
X31440971Y-87469242D02*
X31369542Y-87326385D01*
X31369542Y-87326385D02*
X31298114Y-87040671D01*
X31298114Y-87040671D02*
X31298114Y-86826385D01*
X31298114Y-86826385D02*
X31369542Y-86540671D01*
X31369542Y-86540671D02*
X31440971Y-86397814D01*
X31440971Y-86397814D02*
X31583828Y-86254957D01*
X31583828Y-86254957D02*
X31798114Y-86183528D01*
X31798114Y-86183528D02*
X31940971Y-86183528D01*
X31940971Y-86183528D02*
X32155257Y-86254957D01*
X32155257Y-86254957D02*
X32226685Y-86326385D01*
X33083828Y-87683528D02*
X32940971Y-87612100D01*
X32940971Y-87612100D02*
X32869542Y-87540671D01*
X32869542Y-87540671D02*
X32798114Y-87397814D01*
X32798114Y-87397814D02*
X32798114Y-86969242D01*
X32798114Y-86969242D02*
X32869542Y-86826385D01*
X32869542Y-86826385D02*
X32940971Y-86754957D01*
X32940971Y-86754957D02*
X33083828Y-86683528D01*
X33083828Y-86683528D02*
X33298114Y-86683528D01*
X33298114Y-86683528D02*
X33440971Y-86754957D01*
X33440971Y-86754957D02*
X33512400Y-86826385D01*
X33512400Y-86826385D02*
X33583828Y-86969242D01*
X33583828Y-86969242D02*
X33583828Y-87397814D01*
X33583828Y-87397814D02*
X33512400Y-87540671D01*
X33512400Y-87540671D02*
X33440971Y-87612100D01*
X33440971Y-87612100D02*
X33298114Y-87683528D01*
X33298114Y-87683528D02*
X33083828Y-87683528D01*
X34226685Y-86683528D02*
X34226685Y-88183528D01*
X34226685Y-86754957D02*
X34369543Y-86683528D01*
X34369543Y-86683528D02*
X34655257Y-86683528D01*
X34655257Y-86683528D02*
X34798114Y-86754957D01*
X34798114Y-86754957D02*
X34869543Y-86826385D01*
X34869543Y-86826385D02*
X34940971Y-86969242D01*
X34940971Y-86969242D02*
X34940971Y-87397814D01*
X34940971Y-87397814D02*
X34869543Y-87540671D01*
X34869543Y-87540671D02*
X34798114Y-87612100D01*
X34798114Y-87612100D02*
X34655257Y-87683528D01*
X34655257Y-87683528D02*
X34369543Y-87683528D01*
X34369543Y-87683528D02*
X34226685Y-87612100D01*
X35440971Y-86683528D02*
X35798114Y-87683528D01*
X36155257Y-86683528D02*
X35798114Y-87683528D01*
X35798114Y-87683528D02*
X35655257Y-88040671D01*
X35655257Y-88040671D02*
X35583828Y-88112100D01*
X35583828Y-88112100D02*
X35440971Y-88183528D01*
X36726685Y-87683528D02*
X36726685Y-86683528D01*
X36726685Y-86969242D02*
X36798114Y-86826385D01*
X36798114Y-86826385D02*
X36869543Y-86754957D01*
X36869543Y-86754957D02*
X37012400Y-86683528D01*
X37012400Y-86683528D02*
X37155257Y-86683528D01*
X37655256Y-87683528D02*
X37655256Y-86683528D01*
X37655256Y-86183528D02*
X37583828Y-86254957D01*
X37583828Y-86254957D02*
X37655256Y-86326385D01*
X37655256Y-86326385D02*
X37726685Y-86254957D01*
X37726685Y-86254957D02*
X37655256Y-86183528D01*
X37655256Y-86183528D02*
X37655256Y-86326385D01*
X39012400Y-86683528D02*
X39012400Y-87897814D01*
X39012400Y-87897814D02*
X38940971Y-88040671D01*
X38940971Y-88040671D02*
X38869542Y-88112100D01*
X38869542Y-88112100D02*
X38726685Y-88183528D01*
X38726685Y-88183528D02*
X38512400Y-88183528D01*
X38512400Y-88183528D02*
X38369542Y-88112100D01*
X39012400Y-87612100D02*
X38869542Y-87683528D01*
X38869542Y-87683528D02*
X38583828Y-87683528D01*
X38583828Y-87683528D02*
X38440971Y-87612100D01*
X38440971Y-87612100D02*
X38369542Y-87540671D01*
X38369542Y-87540671D02*
X38298114Y-87397814D01*
X38298114Y-87397814D02*
X38298114Y-86969242D01*
X38298114Y-86969242D02*
X38369542Y-86826385D01*
X38369542Y-86826385D02*
X38440971Y-86754957D01*
X38440971Y-86754957D02*
X38583828Y-86683528D01*
X38583828Y-86683528D02*
X38869542Y-86683528D01*
X38869542Y-86683528D02*
X39012400Y-86754957D01*
X39726685Y-87683528D02*
X39726685Y-86183528D01*
X40369543Y-87683528D02*
X40369543Y-86897814D01*
X40369543Y-86897814D02*
X40298114Y-86754957D01*
X40298114Y-86754957D02*
X40155257Y-86683528D01*
X40155257Y-86683528D02*
X39940971Y-86683528D01*
X39940971Y-86683528D02*
X39798114Y-86754957D01*
X39798114Y-86754957D02*
X39726685Y-86826385D01*
X40869543Y-86683528D02*
X41440971Y-86683528D01*
X41083828Y-86183528D02*
X41083828Y-87469242D01*
X41083828Y-87469242D02*
X41155257Y-87612100D01*
X41155257Y-87612100D02*
X41298114Y-87683528D01*
X41298114Y-87683528D02*
X41440971Y-87683528D01*
X43512400Y-88254957D02*
X43440971Y-88183528D01*
X43440971Y-88183528D02*
X43298114Y-87969242D01*
X43298114Y-87969242D02*
X43226686Y-87826385D01*
X43226686Y-87826385D02*
X43155257Y-87612100D01*
X43155257Y-87612100D02*
X43083828Y-87254957D01*
X43083828Y-87254957D02*
X43083828Y-86969242D01*
X43083828Y-86969242D02*
X43155257Y-86612100D01*
X43155257Y-86612100D02*
X43226686Y-86397814D01*
X43226686Y-86397814D02*
X43298114Y-86254957D01*
X43298114Y-86254957D02*
X43440971Y-86040671D01*
X43440971Y-86040671D02*
X43512400Y-85969242D01*
X44726686Y-87612100D02*
X44583828Y-87683528D01*
X44583828Y-87683528D02*
X44298114Y-87683528D01*
X44298114Y-87683528D02*
X44155257Y-87612100D01*
X44155257Y-87612100D02*
X44083828Y-87540671D01*
X44083828Y-87540671D02*
X44012400Y-87397814D01*
X44012400Y-87397814D02*
X44012400Y-86969242D01*
X44012400Y-86969242D02*
X44083828Y-86826385D01*
X44083828Y-86826385D02*
X44155257Y-86754957D01*
X44155257Y-86754957D02*
X44298114Y-86683528D01*
X44298114Y-86683528D02*
X44583828Y-86683528D01*
X44583828Y-86683528D02*
X44726686Y-86754957D01*
X45226685Y-88254957D02*
X45298114Y-88183528D01*
X45298114Y-88183528D02*
X45440971Y-87969242D01*
X45440971Y-87969242D02*
X45512400Y-87826385D01*
X45512400Y-87826385D02*
X45583828Y-87612100D01*
X45583828Y-87612100D02*
X45655257Y-87254957D01*
X45655257Y-87254957D02*
X45655257Y-86969242D01*
X45655257Y-86969242D02*
X45583828Y-86612100D01*
X45583828Y-86612100D02*
X45512400Y-86397814D01*
X45512400Y-86397814D02*
X45440971Y-86254957D01*
X45440971Y-86254957D02*
X45298114Y-86040671D01*
X45298114Y-86040671D02*
X45226685Y-85969242D01*
X47440971Y-86326385D02*
X47512399Y-86254957D01*
X47512399Y-86254957D02*
X47655257Y-86183528D01*
X47655257Y-86183528D02*
X48012399Y-86183528D01*
X48012399Y-86183528D02*
X48155257Y-86254957D01*
X48155257Y-86254957D02*
X48226685Y-86326385D01*
X48226685Y-86326385D02*
X48298114Y-86469242D01*
X48298114Y-86469242D02*
X48298114Y-86612100D01*
X48298114Y-86612100D02*
X48226685Y-86826385D01*
X48226685Y-86826385D02*
X47369542Y-87683528D01*
X47369542Y-87683528D02*
X48298114Y-87683528D01*
X49226685Y-86183528D02*
X49369542Y-86183528D01*
X49369542Y-86183528D02*
X49512399Y-86254957D01*
X49512399Y-86254957D02*
X49583828Y-86326385D01*
X49583828Y-86326385D02*
X49655256Y-86469242D01*
X49655256Y-86469242D02*
X49726685Y-86754957D01*
X49726685Y-86754957D02*
X49726685Y-87112100D01*
X49726685Y-87112100D02*
X49655256Y-87397814D01*
X49655256Y-87397814D02*
X49583828Y-87540671D01*
X49583828Y-87540671D02*
X49512399Y-87612100D01*
X49512399Y-87612100D02*
X49369542Y-87683528D01*
X49369542Y-87683528D02*
X49226685Y-87683528D01*
X49226685Y-87683528D02*
X49083828Y-87612100D01*
X49083828Y-87612100D02*
X49012399Y-87540671D01*
X49012399Y-87540671D02*
X48940970Y-87397814D01*
X48940970Y-87397814D02*
X48869542Y-87112100D01*
X48869542Y-87112100D02*
X48869542Y-86754957D01*
X48869542Y-86754957D02*
X48940970Y-86469242D01*
X48940970Y-86469242D02*
X49012399Y-86326385D01*
X49012399Y-86326385D02*
X49083828Y-86254957D01*
X49083828Y-86254957D02*
X49226685Y-86183528D01*
X50298113Y-86326385D02*
X50369541Y-86254957D01*
X50369541Y-86254957D02*
X50512399Y-86183528D01*
X50512399Y-86183528D02*
X50869541Y-86183528D01*
X50869541Y-86183528D02*
X51012399Y-86254957D01*
X51012399Y-86254957D02*
X51083827Y-86326385D01*
X51083827Y-86326385D02*
X51155256Y-86469242D01*
X51155256Y-86469242D02*
X51155256Y-86612100D01*
X51155256Y-86612100D02*
X51083827Y-86826385D01*
X51083827Y-86826385D02*
X50226684Y-87683528D01*
X50226684Y-87683528D02*
X51155256Y-87683528D01*
X52440970Y-86683528D02*
X52440970Y-87683528D01*
X52083827Y-86112100D02*
X51726684Y-87183528D01*
X51726684Y-87183528D02*
X52655255Y-87183528D01*
X54369540Y-87683528D02*
X54369540Y-86183528D01*
X55083826Y-87683528D02*
X55083826Y-86183528D01*
X55083826Y-86183528D02*
X55940969Y-87683528D01*
X55940969Y-87683528D02*
X55940969Y-86183528D01*
X56583827Y-87612100D02*
X56798113Y-87683528D01*
X56798113Y-87683528D02*
X57155255Y-87683528D01*
X57155255Y-87683528D02*
X57298113Y-87612100D01*
X57298113Y-87612100D02*
X57369541Y-87540671D01*
X57369541Y-87540671D02*
X57440970Y-87397814D01*
X57440970Y-87397814D02*
X57440970Y-87254957D01*
X57440970Y-87254957D02*
X57369541Y-87112100D01*
X57369541Y-87112100D02*
X57298113Y-87040671D01*
X57298113Y-87040671D02*
X57155255Y-86969242D01*
X57155255Y-86969242D02*
X56869541Y-86897814D01*
X56869541Y-86897814D02*
X56726684Y-86826385D01*
X56726684Y-86826385D02*
X56655255Y-86754957D01*
X56655255Y-86754957D02*
X56583827Y-86612100D01*
X56583827Y-86612100D02*
X56583827Y-86469242D01*
X56583827Y-86469242D02*
X56655255Y-86326385D01*
X56655255Y-86326385D02*
X56726684Y-86254957D01*
X56726684Y-86254957D02*
X56869541Y-86183528D01*
X56869541Y-86183528D02*
X57226684Y-86183528D01*
X57226684Y-86183528D02*
X57440970Y-86254957D01*
X58012398Y-87254957D02*
X58726684Y-87254957D01*
X57869541Y-87683528D02*
X58369541Y-86183528D01*
X58369541Y-86183528D02*
X58869541Y-87683528D01*
X61226683Y-87683528D02*
X60512397Y-87683528D01*
X60512397Y-87683528D02*
X60512397Y-86183528D01*
X61583826Y-86683528D02*
X61940969Y-87683528D01*
X62298112Y-86683528D02*
X61940969Y-87683528D01*
X61940969Y-87683528D02*
X61798112Y-88040671D01*
X61798112Y-88040671D02*
X61726683Y-88112100D01*
X61726683Y-88112100D02*
X61583826Y-88183528D01*
X63083826Y-87683528D02*
X62940969Y-87612100D01*
X62940969Y-87612100D02*
X62869540Y-87540671D01*
X62869540Y-87540671D02*
X62798112Y-87397814D01*
X62798112Y-87397814D02*
X62798112Y-86969242D01*
X62798112Y-86969242D02*
X62869540Y-86826385D01*
X62869540Y-86826385D02*
X62940969Y-86754957D01*
X62940969Y-86754957D02*
X63083826Y-86683528D01*
X63083826Y-86683528D02*
X63298112Y-86683528D01*
X63298112Y-86683528D02*
X63440969Y-86754957D01*
X63440969Y-86754957D02*
X63512398Y-86826385D01*
X63512398Y-86826385D02*
X63583826Y-86969242D01*
X63583826Y-86969242D02*
X63583826Y-87397814D01*
X63583826Y-87397814D02*
X63512398Y-87540671D01*
X63512398Y-87540671D02*
X63440969Y-87612100D01*
X63440969Y-87612100D02*
X63298112Y-87683528D01*
X63298112Y-87683528D02*
X63083826Y-87683528D01*
X64226683Y-86683528D02*
X64226683Y-87683528D01*
X64226683Y-86826385D02*
X64298112Y-86754957D01*
X64298112Y-86754957D02*
X64440969Y-86683528D01*
X64440969Y-86683528D02*
X64655255Y-86683528D01*
X64655255Y-86683528D02*
X64798112Y-86754957D01*
X64798112Y-86754957D02*
X64869541Y-86897814D01*
X64869541Y-86897814D02*
X64869541Y-87683528D01*
X65655255Y-87612100D02*
X65655255Y-87683528D01*
X65655255Y-87683528D02*
X65583826Y-87826385D01*
X65583826Y-87826385D02*
X65512398Y-87897814D01*
X68298112Y-87540671D02*
X68226684Y-87612100D01*
X68226684Y-87612100D02*
X68012398Y-87683528D01*
X68012398Y-87683528D02*
X67869541Y-87683528D01*
X67869541Y-87683528D02*
X67655255Y-87612100D01*
X67655255Y-87612100D02*
X67512398Y-87469242D01*
X67512398Y-87469242D02*
X67440969Y-87326385D01*
X67440969Y-87326385D02*
X67369541Y-87040671D01*
X67369541Y-87040671D02*
X67369541Y-86826385D01*
X67369541Y-86826385D02*
X67440969Y-86540671D01*
X67440969Y-86540671D02*
X67512398Y-86397814D01*
X67512398Y-86397814D02*
X67655255Y-86254957D01*
X67655255Y-86254957D02*
X67869541Y-86183528D01*
X67869541Y-86183528D02*
X68012398Y-86183528D01*
X68012398Y-86183528D02*
X68226684Y-86254957D01*
X68226684Y-86254957D02*
X68298112Y-86326385D01*
X68940969Y-87683528D02*
X68940969Y-86183528D01*
X68940969Y-86183528D02*
X69798112Y-87683528D01*
X69798112Y-87683528D02*
X69798112Y-86183528D01*
X71369541Y-87683528D02*
X70869541Y-86969242D01*
X70512398Y-87683528D02*
X70512398Y-86183528D01*
X70512398Y-86183528D02*
X71083827Y-86183528D01*
X71083827Y-86183528D02*
X71226684Y-86254957D01*
X71226684Y-86254957D02*
X71298113Y-86326385D01*
X71298113Y-86326385D02*
X71369541Y-86469242D01*
X71369541Y-86469242D02*
X71369541Y-86683528D01*
X71369541Y-86683528D02*
X71298113Y-86826385D01*
X71298113Y-86826385D02*
X71226684Y-86897814D01*
X71226684Y-86897814D02*
X71083827Y-86969242D01*
X71083827Y-86969242D02*
X70512398Y-86969242D01*
X71940970Y-87612100D02*
X72155256Y-87683528D01*
X72155256Y-87683528D02*
X72512398Y-87683528D01*
X72512398Y-87683528D02*
X72655256Y-87612100D01*
X72655256Y-87612100D02*
X72726684Y-87540671D01*
X72726684Y-87540671D02*
X72798113Y-87397814D01*
X72798113Y-87397814D02*
X72798113Y-87254957D01*
X72798113Y-87254957D02*
X72726684Y-87112100D01*
X72726684Y-87112100D02*
X72655256Y-87040671D01*
X72655256Y-87040671D02*
X72512398Y-86969242D01*
X72512398Y-86969242D02*
X72226684Y-86897814D01*
X72226684Y-86897814D02*
X72083827Y-86826385D01*
X72083827Y-86826385D02*
X72012398Y-86754957D01*
X72012398Y-86754957D02*
X71940970Y-86612100D01*
X71940970Y-86612100D02*
X71940970Y-86469242D01*
X71940970Y-86469242D02*
X72012398Y-86326385D01*
X72012398Y-86326385D02*
X72083827Y-86254957D01*
X72083827Y-86254957D02*
X72226684Y-86183528D01*
X72226684Y-86183528D02*
X72583827Y-86183528D01*
X72583827Y-86183528D02*
X72798113Y-86254957D01*
X73512398Y-87612100D02*
X73512398Y-87683528D01*
X73512398Y-87683528D02*
X73440969Y-87826385D01*
X73440969Y-87826385D02*
X73369541Y-87897814D01*
X75298112Y-87683528D02*
X75298112Y-86183528D01*
X76012398Y-87683528D02*
X76012398Y-86183528D01*
X76012398Y-86183528D02*
X76869541Y-87683528D01*
X76869541Y-87683528D02*
X76869541Y-86183528D01*
X78298113Y-87683528D02*
X77583827Y-87683528D01*
X77583827Y-87683528D02*
X77583827Y-86183528D01*
X79940970Y-86183528D02*
X79940970Y-87397814D01*
X79940970Y-87397814D02*
X80012399Y-87540671D01*
X80012399Y-87540671D02*
X80083828Y-87612100D01*
X80083828Y-87612100D02*
X80226685Y-87683528D01*
X80226685Y-87683528D02*
X80512399Y-87683528D01*
X80512399Y-87683528D02*
X80655256Y-87612100D01*
X80655256Y-87612100D02*
X80726685Y-87540671D01*
X80726685Y-87540671D02*
X80798113Y-87397814D01*
X80798113Y-87397814D02*
X80798113Y-86183528D01*
X81512399Y-87683528D02*
X81512399Y-86183528D01*
X81512399Y-86183528D02*
X82012399Y-87254957D01*
X82012399Y-87254957D02*
X82512399Y-86183528D01*
X82512399Y-86183528D02*
X82512399Y-87683528D01*
X84083828Y-87683528D02*
X83583828Y-86969242D01*
X83226685Y-87683528D02*
X83226685Y-86183528D01*
X83226685Y-86183528D02*
X83798114Y-86183528D01*
X83798114Y-86183528D02*
X83940971Y-86254957D01*
X83940971Y-86254957D02*
X84012400Y-86326385D01*
X84012400Y-86326385D02*
X84083828Y-86469242D01*
X84083828Y-86469242D02*
X84083828Y-86683528D01*
X84083828Y-86683528D02*
X84012400Y-86826385D01*
X84012400Y-86826385D02*
X83940971Y-86897814D01*
X83940971Y-86897814D02*
X83798114Y-86969242D01*
X83798114Y-86969242D02*
X83226685Y-86969242D01*
X85440971Y-86183528D02*
X84726685Y-86183528D01*
X84726685Y-86183528D02*
X84655257Y-86897814D01*
X84655257Y-86897814D02*
X84726685Y-86826385D01*
X84726685Y-86826385D02*
X84869543Y-86754957D01*
X84869543Y-86754957D02*
X85226685Y-86754957D01*
X85226685Y-86754957D02*
X85369543Y-86826385D01*
X85369543Y-86826385D02*
X85440971Y-86897814D01*
X85440971Y-86897814D02*
X85512400Y-87040671D01*
X85512400Y-87040671D02*
X85512400Y-87397814D01*
X85512400Y-87397814D02*
X85440971Y-87540671D01*
X85440971Y-87540671D02*
X85369543Y-87612100D01*
X85369543Y-87612100D02*
X85226685Y-87683528D01*
X85226685Y-87683528D02*
X84869543Y-87683528D01*
X84869543Y-87683528D02*
X84726685Y-87612100D01*
X84726685Y-87612100D02*
X84655257Y-87540671D01*
X86083828Y-86326385D02*
X86155256Y-86254957D01*
X86155256Y-86254957D02*
X86298114Y-86183528D01*
X86298114Y-86183528D02*
X86655256Y-86183528D01*
X86655256Y-86183528D02*
X86798114Y-86254957D01*
X86798114Y-86254957D02*
X86869542Y-86326385D01*
X86869542Y-86326385D02*
X86940971Y-86469242D01*
X86940971Y-86469242D02*
X86940971Y-86612100D01*
X86940971Y-86612100D02*
X86869542Y-86826385D01*
X86869542Y-86826385D02*
X86012399Y-87683528D01*
X86012399Y-87683528D02*
X86940971Y-87683528D01*
X87440970Y-86183528D02*
X88440970Y-86183528D01*
X88440970Y-86183528D02*
X87798113Y-87683528D01*
X89298113Y-86183528D02*
X89440970Y-86183528D01*
X89440970Y-86183528D02*
X89583827Y-86254957D01*
X89583827Y-86254957D02*
X89655256Y-86326385D01*
X89655256Y-86326385D02*
X89726684Y-86469242D01*
X89726684Y-86469242D02*
X89798113Y-86754957D01*
X89798113Y-86754957D02*
X89798113Y-87112100D01*
X89798113Y-87112100D02*
X89726684Y-87397814D01*
X89726684Y-87397814D02*
X89655256Y-87540671D01*
X89655256Y-87540671D02*
X89583827Y-87612100D01*
X89583827Y-87612100D02*
X89440970Y-87683528D01*
X89440970Y-87683528D02*
X89298113Y-87683528D01*
X89298113Y-87683528D02*
X89155256Y-87612100D01*
X89155256Y-87612100D02*
X89083827Y-87540671D01*
X89083827Y-87540671D02*
X89012398Y-87397814D01*
X89012398Y-87397814D02*
X88940970Y-87112100D01*
X88940970Y-87112100D02*
X88940970Y-86754957D01*
X88940970Y-86754957D02*
X89012398Y-86469242D01*
X89012398Y-86469242D02*
X89083827Y-86326385D01*
X89083827Y-86326385D02*
X89155256Y-86254957D01*
X89155256Y-86254957D02*
X89298113Y-86183528D01*
D10*
D11*
X32083828Y-84683528D02*
X31369542Y-84683528D01*
X31369542Y-84683528D02*
X31369542Y-83183528D01*
X32583828Y-84683528D02*
X32583828Y-83683528D01*
X32583828Y-83183528D02*
X32512400Y-83254957D01*
X32512400Y-83254957D02*
X32583828Y-83326385D01*
X32583828Y-83326385D02*
X32655257Y-83254957D01*
X32655257Y-83254957D02*
X32583828Y-83183528D01*
X32583828Y-83183528D02*
X32583828Y-83326385D01*
X33940972Y-84612100D02*
X33798114Y-84683528D01*
X33798114Y-84683528D02*
X33512400Y-84683528D01*
X33512400Y-84683528D02*
X33369543Y-84612100D01*
X33369543Y-84612100D02*
X33298114Y-84540671D01*
X33298114Y-84540671D02*
X33226686Y-84397814D01*
X33226686Y-84397814D02*
X33226686Y-83969242D01*
X33226686Y-83969242D02*
X33298114Y-83826385D01*
X33298114Y-83826385D02*
X33369543Y-83754957D01*
X33369543Y-83754957D02*
X33512400Y-83683528D01*
X33512400Y-83683528D02*
X33798114Y-83683528D01*
X33798114Y-83683528D02*
X33940972Y-83754957D01*
X35155257Y-84612100D02*
X35012400Y-84683528D01*
X35012400Y-84683528D02*
X34726686Y-84683528D01*
X34726686Y-84683528D02*
X34583828Y-84612100D01*
X34583828Y-84612100D02*
X34512400Y-84469242D01*
X34512400Y-84469242D02*
X34512400Y-83897814D01*
X34512400Y-83897814D02*
X34583828Y-83754957D01*
X34583828Y-83754957D02*
X34726686Y-83683528D01*
X34726686Y-83683528D02*
X35012400Y-83683528D01*
X35012400Y-83683528D02*
X35155257Y-83754957D01*
X35155257Y-83754957D02*
X35226686Y-83897814D01*
X35226686Y-83897814D02*
X35226686Y-84040671D01*
X35226686Y-84040671D02*
X34512400Y-84183528D01*
X35869542Y-83683528D02*
X35869542Y-84683528D01*
X35869542Y-83826385D02*
X35940971Y-83754957D01*
X35940971Y-83754957D02*
X36083828Y-83683528D01*
X36083828Y-83683528D02*
X36298114Y-83683528D01*
X36298114Y-83683528D02*
X36440971Y-83754957D01*
X36440971Y-83754957D02*
X36512400Y-83897814D01*
X36512400Y-83897814D02*
X36512400Y-84683528D01*
X37155257Y-84612100D02*
X37298114Y-84683528D01*
X37298114Y-84683528D02*
X37583828Y-84683528D01*
X37583828Y-84683528D02*
X37726685Y-84612100D01*
X37726685Y-84612100D02*
X37798114Y-84469242D01*
X37798114Y-84469242D02*
X37798114Y-84397814D01*
X37798114Y-84397814D02*
X37726685Y-84254957D01*
X37726685Y-84254957D02*
X37583828Y-84183528D01*
X37583828Y-84183528D02*
X37369543Y-84183528D01*
X37369543Y-84183528D02*
X37226685Y-84112100D01*
X37226685Y-84112100D02*
X37155257Y-83969242D01*
X37155257Y-83969242D02*
X37155257Y-83897814D01*
X37155257Y-83897814D02*
X37226685Y-83754957D01*
X37226685Y-83754957D02*
X37369543Y-83683528D01*
X37369543Y-83683528D02*
X37583828Y-83683528D01*
X37583828Y-83683528D02*
X37726685Y-83754957D01*
X39012400Y-84612100D02*
X38869543Y-84683528D01*
X38869543Y-84683528D02*
X38583829Y-84683528D01*
X38583829Y-84683528D02*
X38440971Y-84612100D01*
X38440971Y-84612100D02*
X38369543Y-84469242D01*
X38369543Y-84469242D02*
X38369543Y-83897814D01*
X38369543Y-83897814D02*
X38440971Y-83754957D01*
X38440971Y-83754957D02*
X38583829Y-83683528D01*
X38583829Y-83683528D02*
X38869543Y-83683528D01*
X38869543Y-83683528D02*
X39012400Y-83754957D01*
X39012400Y-83754957D02*
X39083829Y-83897814D01*
X39083829Y-83897814D02*
X39083829Y-84040671D01*
X39083829Y-84040671D02*
X38369543Y-84183528D01*
X40869542Y-84540671D02*
X40940971Y-84612100D01*
X40940971Y-84612100D02*
X40869542Y-84683528D01*
X40869542Y-84683528D02*
X40798114Y-84612100D01*
X40798114Y-84612100D02*
X40869542Y-84540671D01*
X40869542Y-84540671D02*
X40869542Y-84683528D01*
X40869542Y-83754957D02*
X40940971Y-83826385D01*
X40940971Y-83826385D02*
X40869542Y-83897814D01*
X40869542Y-83897814D02*
X40798114Y-83826385D01*
X40798114Y-83826385D02*
X40869542Y-83754957D01*
X40869542Y-83754957D02*
X40869542Y-83897814D01*
X42726685Y-84683528D02*
X42726685Y-83183528D01*
X42726685Y-83183528D02*
X43226685Y-84254957D01*
X43226685Y-84254957D02*
X43726685Y-83183528D01*
X43726685Y-83183528D02*
X43726685Y-84683528D01*
X44440971Y-84683528D02*
X44440971Y-83183528D01*
X44940972Y-83183528D02*
X45798115Y-83183528D01*
X45369543Y-84683528D02*
X45369543Y-83183528D01*
X48155257Y-84683528D02*
X47440971Y-84683528D01*
X47440971Y-84683528D02*
X47440971Y-83183528D01*
X48655257Y-84683528D02*
X48655257Y-83683528D01*
X48655257Y-83183528D02*
X48583829Y-83254957D01*
X48583829Y-83254957D02*
X48655257Y-83326385D01*
X48655257Y-83326385D02*
X48726686Y-83254957D01*
X48726686Y-83254957D02*
X48655257Y-83183528D01*
X48655257Y-83183528D02*
X48655257Y-83326385D01*
X50012401Y-84612100D02*
X49869543Y-84683528D01*
X49869543Y-84683528D02*
X49583829Y-84683528D01*
X49583829Y-84683528D02*
X49440972Y-84612100D01*
X49440972Y-84612100D02*
X49369543Y-84540671D01*
X49369543Y-84540671D02*
X49298115Y-84397814D01*
X49298115Y-84397814D02*
X49298115Y-83969242D01*
X49298115Y-83969242D02*
X49369543Y-83826385D01*
X49369543Y-83826385D02*
X49440972Y-83754957D01*
X49440972Y-83754957D02*
X49583829Y-83683528D01*
X49583829Y-83683528D02*
X49869543Y-83683528D01*
X49869543Y-83683528D02*
X50012401Y-83754957D01*
X51226686Y-84612100D02*
X51083829Y-84683528D01*
X51083829Y-84683528D02*
X50798115Y-84683528D01*
X50798115Y-84683528D02*
X50655257Y-84612100D01*
X50655257Y-84612100D02*
X50583829Y-84469242D01*
X50583829Y-84469242D02*
X50583829Y-83897814D01*
X50583829Y-83897814D02*
X50655257Y-83754957D01*
X50655257Y-83754957D02*
X50798115Y-83683528D01*
X50798115Y-83683528D02*
X51083829Y-83683528D01*
X51083829Y-83683528D02*
X51226686Y-83754957D01*
X51226686Y-83754957D02*
X51298115Y-83897814D01*
X51298115Y-83897814D02*
X51298115Y-84040671D01*
X51298115Y-84040671D02*
X50583829Y-84183528D01*
X51940971Y-83683528D02*
X51940971Y-84683528D01*
X51940971Y-83826385D02*
X52012400Y-83754957D01*
X52012400Y-83754957D02*
X52155257Y-83683528D01*
X52155257Y-83683528D02*
X52369543Y-83683528D01*
X52369543Y-83683528D02*
X52512400Y-83754957D01*
X52512400Y-83754957D02*
X52583829Y-83897814D01*
X52583829Y-83897814D02*
X52583829Y-84683528D01*
X53226686Y-84612100D02*
X53369543Y-84683528D01*
X53369543Y-84683528D02*
X53655257Y-84683528D01*
X53655257Y-84683528D02*
X53798114Y-84612100D01*
X53798114Y-84612100D02*
X53869543Y-84469242D01*
X53869543Y-84469242D02*
X53869543Y-84397814D01*
X53869543Y-84397814D02*
X53798114Y-84254957D01*
X53798114Y-84254957D02*
X53655257Y-84183528D01*
X53655257Y-84183528D02*
X53440972Y-84183528D01*
X53440972Y-84183528D02*
X53298114Y-84112100D01*
X53298114Y-84112100D02*
X53226686Y-83969242D01*
X53226686Y-83969242D02*
X53226686Y-83897814D01*
X53226686Y-83897814D02*
X53298114Y-83754957D01*
X53298114Y-83754957D02*
X53440972Y-83683528D01*
X53440972Y-83683528D02*
X53655257Y-83683528D01*
X53655257Y-83683528D02*
X53798114Y-83754957D01*
X55083829Y-84612100D02*
X54940972Y-84683528D01*
X54940972Y-84683528D02*
X54655258Y-84683528D01*
X54655258Y-84683528D02*
X54512400Y-84612100D01*
X54512400Y-84612100D02*
X54440972Y-84469242D01*
X54440972Y-84469242D02*
X54440972Y-83897814D01*
X54440972Y-83897814D02*
X54512400Y-83754957D01*
X54512400Y-83754957D02*
X54655258Y-83683528D01*
X54655258Y-83683528D02*
X54940972Y-83683528D01*
X54940972Y-83683528D02*
X55083829Y-83754957D01*
X55083829Y-83754957D02*
X55155258Y-83897814D01*
X55155258Y-83897814D02*
X55155258Y-84040671D01*
X55155258Y-84040671D02*
X54440972Y-84183528D01*
D10*
D11*
X32226685Y-81540671D02*
X32155257Y-81612100D01*
X32155257Y-81612100D02*
X31940971Y-81683528D01*
X31940971Y-81683528D02*
X31798114Y-81683528D01*
X31798114Y-81683528D02*
X31583828Y-81612100D01*
X31583828Y-81612100D02*
X31440971Y-81469242D01*
X31440971Y-81469242D02*
X31369542Y-81326385D01*
X31369542Y-81326385D02*
X31298114Y-81040671D01*
X31298114Y-81040671D02*
X31298114Y-80826385D01*
X31298114Y-80826385D02*
X31369542Y-80540671D01*
X31369542Y-80540671D02*
X31440971Y-80397814D01*
X31440971Y-80397814D02*
X31583828Y-80254957D01*
X31583828Y-80254957D02*
X31798114Y-80183528D01*
X31798114Y-80183528D02*
X31940971Y-80183528D01*
X31940971Y-80183528D02*
X32155257Y-80254957D01*
X32155257Y-80254957D02*
X32226685Y-80326385D01*
X33083828Y-81683528D02*
X32940971Y-81612100D01*
X32940971Y-81612100D02*
X32869542Y-81540671D01*
X32869542Y-81540671D02*
X32798114Y-81397814D01*
X32798114Y-81397814D02*
X32798114Y-80969242D01*
X32798114Y-80969242D02*
X32869542Y-80826385D01*
X32869542Y-80826385D02*
X32940971Y-80754957D01*
X32940971Y-80754957D02*
X33083828Y-80683528D01*
X33083828Y-80683528D02*
X33298114Y-80683528D01*
X33298114Y-80683528D02*
X33440971Y-80754957D01*
X33440971Y-80754957D02*
X33512400Y-80826385D01*
X33512400Y-80826385D02*
X33583828Y-80969242D01*
X33583828Y-80969242D02*
X33583828Y-81397814D01*
X33583828Y-81397814D02*
X33512400Y-81540671D01*
X33512400Y-81540671D02*
X33440971Y-81612100D01*
X33440971Y-81612100D02*
X33298114Y-81683528D01*
X33298114Y-81683528D02*
X33083828Y-81683528D01*
X34226685Y-80683528D02*
X34226685Y-81683528D01*
X34226685Y-80826385D02*
X34298114Y-80754957D01*
X34298114Y-80754957D02*
X34440971Y-80683528D01*
X34440971Y-80683528D02*
X34655257Y-80683528D01*
X34655257Y-80683528D02*
X34798114Y-80754957D01*
X34798114Y-80754957D02*
X34869543Y-80897814D01*
X34869543Y-80897814D02*
X34869543Y-81683528D01*
X35369543Y-80683528D02*
X35940971Y-80683528D01*
X35583828Y-80183528D02*
X35583828Y-81469242D01*
X35583828Y-81469242D02*
X35655257Y-81612100D01*
X35655257Y-81612100D02*
X35798114Y-81683528D01*
X35798114Y-81683528D02*
X35940971Y-81683528D01*
X37083829Y-81683528D02*
X37083829Y-80897814D01*
X37083829Y-80897814D02*
X37012400Y-80754957D01*
X37012400Y-80754957D02*
X36869543Y-80683528D01*
X36869543Y-80683528D02*
X36583829Y-80683528D01*
X36583829Y-80683528D02*
X36440971Y-80754957D01*
X37083829Y-81612100D02*
X36940971Y-81683528D01*
X36940971Y-81683528D02*
X36583829Y-81683528D01*
X36583829Y-81683528D02*
X36440971Y-81612100D01*
X36440971Y-81612100D02*
X36369543Y-81469242D01*
X36369543Y-81469242D02*
X36369543Y-81326385D01*
X36369543Y-81326385D02*
X36440971Y-81183528D01*
X36440971Y-81183528D02*
X36583829Y-81112100D01*
X36583829Y-81112100D02*
X36940971Y-81112100D01*
X36940971Y-81112100D02*
X37083829Y-81040671D01*
X38440972Y-81612100D02*
X38298114Y-81683528D01*
X38298114Y-81683528D02*
X38012400Y-81683528D01*
X38012400Y-81683528D02*
X37869543Y-81612100D01*
X37869543Y-81612100D02*
X37798114Y-81540671D01*
X37798114Y-81540671D02*
X37726686Y-81397814D01*
X37726686Y-81397814D02*
X37726686Y-80969242D01*
X37726686Y-80969242D02*
X37798114Y-80826385D01*
X37798114Y-80826385D02*
X37869543Y-80754957D01*
X37869543Y-80754957D02*
X38012400Y-80683528D01*
X38012400Y-80683528D02*
X38298114Y-80683528D01*
X38298114Y-80683528D02*
X38440972Y-80754957D01*
X38869543Y-80683528D02*
X39440971Y-80683528D01*
X39083828Y-80183528D02*
X39083828Y-81469242D01*
X39083828Y-81469242D02*
X39155257Y-81612100D01*
X39155257Y-81612100D02*
X39298114Y-81683528D01*
X39298114Y-81683528D02*
X39440971Y-81683528D01*
X41083828Y-81540671D02*
X41155257Y-81612100D01*
X41155257Y-81612100D02*
X41083828Y-81683528D01*
X41083828Y-81683528D02*
X41012400Y-81612100D01*
X41012400Y-81612100D02*
X41083828Y-81540671D01*
X41083828Y-81540671D02*
X41083828Y-81683528D01*
X41083828Y-80754957D02*
X41155257Y-80826385D01*
X41155257Y-80826385D02*
X41083828Y-80897814D01*
X41083828Y-80897814D02*
X41012400Y-80826385D01*
X41012400Y-80826385D02*
X41083828Y-80754957D01*
X41083828Y-80754957D02*
X41083828Y-80897814D01*
X42940971Y-81683528D02*
X42940971Y-80183528D01*
X42940971Y-80754957D02*
X43083829Y-80683528D01*
X43083829Y-80683528D02*
X43369543Y-80683528D01*
X43369543Y-80683528D02*
X43512400Y-80754957D01*
X43512400Y-80754957D02*
X43583829Y-80826385D01*
X43583829Y-80826385D02*
X43655257Y-80969242D01*
X43655257Y-80969242D02*
X43655257Y-81397814D01*
X43655257Y-81397814D02*
X43583829Y-81540671D01*
X43583829Y-81540671D02*
X43512400Y-81612100D01*
X43512400Y-81612100D02*
X43369543Y-81683528D01*
X43369543Y-81683528D02*
X43083829Y-81683528D01*
X43083829Y-81683528D02*
X42940971Y-81612100D01*
X44869543Y-81612100D02*
X44726686Y-81683528D01*
X44726686Y-81683528D02*
X44440972Y-81683528D01*
X44440972Y-81683528D02*
X44298114Y-81612100D01*
X44298114Y-81612100D02*
X44226686Y-81469242D01*
X44226686Y-81469242D02*
X44226686Y-80897814D01*
X44226686Y-80897814D02*
X44298114Y-80754957D01*
X44298114Y-80754957D02*
X44440972Y-80683528D01*
X44440972Y-80683528D02*
X44726686Y-80683528D01*
X44726686Y-80683528D02*
X44869543Y-80754957D01*
X44869543Y-80754957D02*
X44940972Y-80897814D01*
X44940972Y-80897814D02*
X44940972Y-81040671D01*
X44940972Y-81040671D02*
X44226686Y-81183528D01*
X45583828Y-81683528D02*
X45583828Y-80683528D01*
X45583828Y-80969242D02*
X45655257Y-80826385D01*
X45655257Y-80826385D02*
X45726686Y-80754957D01*
X45726686Y-80754957D02*
X45869543Y-80683528D01*
X45869543Y-80683528D02*
X46012400Y-80683528D01*
X46298114Y-80683528D02*
X46869542Y-80683528D01*
X46512399Y-80183528D02*
X46512399Y-81469242D01*
X46512399Y-81469242D02*
X46583828Y-81612100D01*
X46583828Y-81612100D02*
X46726685Y-81683528D01*
X46726685Y-81683528D02*
X46869542Y-81683528D01*
X47369542Y-81683528D02*
X47369542Y-80683528D01*
X47369542Y-80969242D02*
X47440971Y-80826385D01*
X47440971Y-80826385D02*
X47512400Y-80754957D01*
X47512400Y-80754957D02*
X47655257Y-80683528D01*
X47655257Y-80683528D02*
X47798114Y-80683528D01*
X48940971Y-81683528D02*
X48940971Y-80897814D01*
X48940971Y-80897814D02*
X48869542Y-80754957D01*
X48869542Y-80754957D02*
X48726685Y-80683528D01*
X48726685Y-80683528D02*
X48440971Y-80683528D01*
X48440971Y-80683528D02*
X48298113Y-80754957D01*
X48940971Y-81612100D02*
X48798113Y-81683528D01*
X48798113Y-81683528D02*
X48440971Y-81683528D01*
X48440971Y-81683528D02*
X48298113Y-81612100D01*
X48298113Y-81612100D02*
X48226685Y-81469242D01*
X48226685Y-81469242D02*
X48226685Y-81326385D01*
X48226685Y-81326385D02*
X48298113Y-81183528D01*
X48298113Y-81183528D02*
X48440971Y-81112100D01*
X48440971Y-81112100D02*
X48798113Y-81112100D01*
X48798113Y-81112100D02*
X48940971Y-81040671D01*
X49655256Y-80683528D02*
X49655256Y-81683528D01*
X49655256Y-80826385D02*
X49726685Y-80754957D01*
X49726685Y-80754957D02*
X49869542Y-80683528D01*
X49869542Y-80683528D02*
X50083828Y-80683528D01*
X50083828Y-80683528D02*
X50226685Y-80754957D01*
X50226685Y-80754957D02*
X50298114Y-80897814D01*
X50298114Y-80897814D02*
X50298114Y-81683528D01*
X51655257Y-81683528D02*
X51655257Y-80183528D01*
X51655257Y-81612100D02*
X51512399Y-81683528D01*
X51512399Y-81683528D02*
X51226685Y-81683528D01*
X51226685Y-81683528D02*
X51083828Y-81612100D01*
X51083828Y-81612100D02*
X51012399Y-81540671D01*
X51012399Y-81540671D02*
X50940971Y-81397814D01*
X50940971Y-81397814D02*
X50940971Y-80969242D01*
X50940971Y-80969242D02*
X51012399Y-80826385D01*
X51012399Y-80826385D02*
X51083828Y-80754957D01*
X51083828Y-80754957D02*
X51226685Y-80683528D01*
X51226685Y-80683528D02*
X51512399Y-80683528D01*
X51512399Y-80683528D02*
X51655257Y-80754957D01*
X52369542Y-81540671D02*
X52440971Y-81612100D01*
X52440971Y-81612100D02*
X52369542Y-81683528D01*
X52369542Y-81683528D02*
X52298114Y-81612100D01*
X52298114Y-81612100D02*
X52369542Y-81540671D01*
X52369542Y-81540671D02*
X52369542Y-81683528D01*
X53083828Y-81683528D02*
X53083828Y-80683528D01*
X53083828Y-80826385D02*
X53155257Y-80754957D01*
X53155257Y-80754957D02*
X53298114Y-80683528D01*
X53298114Y-80683528D02*
X53512400Y-80683528D01*
X53512400Y-80683528D02*
X53655257Y-80754957D01*
X53655257Y-80754957D02*
X53726686Y-80897814D01*
X53726686Y-80897814D02*
X53726686Y-81683528D01*
X53726686Y-80897814D02*
X53798114Y-80754957D01*
X53798114Y-80754957D02*
X53940971Y-80683528D01*
X53940971Y-80683528D02*
X54155257Y-80683528D01*
X54155257Y-80683528D02*
X54298114Y-80754957D01*
X54298114Y-80754957D02*
X54369543Y-80897814D01*
X54369543Y-80897814D02*
X54369543Y-81683528D01*
X55726686Y-81683528D02*
X55726686Y-80897814D01*
X55726686Y-80897814D02*
X55655257Y-80754957D01*
X55655257Y-80754957D02*
X55512400Y-80683528D01*
X55512400Y-80683528D02*
X55226686Y-80683528D01*
X55226686Y-80683528D02*
X55083828Y-80754957D01*
X55726686Y-81612100D02*
X55583828Y-81683528D01*
X55583828Y-81683528D02*
X55226686Y-81683528D01*
X55226686Y-81683528D02*
X55083828Y-81612100D01*
X55083828Y-81612100D02*
X55012400Y-81469242D01*
X55012400Y-81469242D02*
X55012400Y-81326385D01*
X55012400Y-81326385D02*
X55083828Y-81183528D01*
X55083828Y-81183528D02*
X55226686Y-81112100D01*
X55226686Y-81112100D02*
X55583828Y-81112100D01*
X55583828Y-81112100D02*
X55726686Y-81040671D01*
X56369543Y-81612100D02*
X56512400Y-81683528D01*
X56512400Y-81683528D02*
X56798114Y-81683528D01*
X56798114Y-81683528D02*
X56940971Y-81612100D01*
X56940971Y-81612100D02*
X57012400Y-81469242D01*
X57012400Y-81469242D02*
X57012400Y-81397814D01*
X57012400Y-81397814D02*
X56940971Y-81254957D01*
X56940971Y-81254957D02*
X56798114Y-81183528D01*
X56798114Y-81183528D02*
X56583829Y-81183528D01*
X56583829Y-81183528D02*
X56440971Y-81112100D01*
X56440971Y-81112100D02*
X56369543Y-80969242D01*
X56369543Y-80969242D02*
X56369543Y-80897814D01*
X56369543Y-80897814D02*
X56440971Y-80754957D01*
X56440971Y-80754957D02*
X56583829Y-80683528D01*
X56583829Y-80683528D02*
X56798114Y-80683528D01*
X56798114Y-80683528D02*
X56940971Y-80754957D01*
X57583829Y-81612100D02*
X57726686Y-81683528D01*
X57726686Y-81683528D02*
X58012400Y-81683528D01*
X58012400Y-81683528D02*
X58155257Y-81612100D01*
X58155257Y-81612100D02*
X58226686Y-81469242D01*
X58226686Y-81469242D02*
X58226686Y-81397814D01*
X58226686Y-81397814D02*
X58155257Y-81254957D01*
X58155257Y-81254957D02*
X58012400Y-81183528D01*
X58012400Y-81183528D02*
X57798115Y-81183528D01*
X57798115Y-81183528D02*
X57655257Y-81112100D01*
X57655257Y-81112100D02*
X57583829Y-80969242D01*
X57583829Y-80969242D02*
X57583829Y-80897814D01*
X57583829Y-80897814D02*
X57655257Y-80754957D01*
X57655257Y-80754957D02*
X57798115Y-80683528D01*
X57798115Y-80683528D02*
X58012400Y-80683528D01*
X58012400Y-80683528D02*
X58155257Y-80754957D01*
X59083829Y-81683528D02*
X58940972Y-81612100D01*
X58940972Y-81612100D02*
X58869543Y-81540671D01*
X58869543Y-81540671D02*
X58798115Y-81397814D01*
X58798115Y-81397814D02*
X58798115Y-80969242D01*
X58798115Y-80969242D02*
X58869543Y-80826385D01*
X58869543Y-80826385D02*
X58940972Y-80754957D01*
X58940972Y-80754957D02*
X59083829Y-80683528D01*
X59083829Y-80683528D02*
X59298115Y-80683528D01*
X59298115Y-80683528D02*
X59440972Y-80754957D01*
X59440972Y-80754957D02*
X59512401Y-80826385D01*
X59512401Y-80826385D02*
X59583829Y-80969242D01*
X59583829Y-80969242D02*
X59583829Y-81397814D01*
X59583829Y-81397814D02*
X59512401Y-81540671D01*
X59512401Y-81540671D02*
X59440972Y-81612100D01*
X59440972Y-81612100D02*
X59298115Y-81683528D01*
X59298115Y-81683528D02*
X59083829Y-81683528D01*
X60012401Y-80683528D02*
X60583829Y-80683528D01*
X60226686Y-80183528D02*
X60226686Y-81469242D01*
X60226686Y-81469242D02*
X60298115Y-81612100D01*
X60298115Y-81612100D02*
X60440972Y-81683528D01*
X60440972Y-81683528D02*
X60583829Y-81683528D01*
X62012401Y-80969242D02*
X61940972Y-80897814D01*
X61940972Y-80897814D02*
X61798115Y-80826385D01*
X61798115Y-80826385D02*
X61655258Y-80826385D01*
X61655258Y-80826385D02*
X61512401Y-80897814D01*
X61512401Y-80897814D02*
X61440972Y-80969242D01*
X61440972Y-80969242D02*
X61369544Y-81112100D01*
X61369544Y-81112100D02*
X61369544Y-81254957D01*
X61369544Y-81254957D02*
X61440972Y-81397814D01*
X61440972Y-81397814D02*
X61512401Y-81469242D01*
X61512401Y-81469242D02*
X61655258Y-81540671D01*
X61655258Y-81540671D02*
X61798115Y-81540671D01*
X61798115Y-81540671D02*
X61940972Y-81469242D01*
X61940972Y-81469242D02*
X62012401Y-81397814D01*
X62012401Y-80826385D02*
X62012401Y-81397814D01*
X62012401Y-81397814D02*
X62083829Y-81469242D01*
X62083829Y-81469242D02*
X62155258Y-81469242D01*
X62155258Y-81469242D02*
X62298115Y-81397814D01*
X62298115Y-81397814D02*
X62369544Y-81254957D01*
X62369544Y-81254957D02*
X62369544Y-80897814D01*
X62369544Y-80897814D02*
X62226687Y-80683528D01*
X62226687Y-80683528D02*
X62012401Y-80540671D01*
X62012401Y-80540671D02*
X61726687Y-80469242D01*
X61726687Y-80469242D02*
X61440972Y-80540671D01*
X61440972Y-80540671D02*
X61226687Y-80683528D01*
X61226687Y-80683528D02*
X61083829Y-80897814D01*
X61083829Y-80897814D02*
X61012401Y-81183528D01*
X61012401Y-81183528D02*
X61083829Y-81469242D01*
X61083829Y-81469242D02*
X61226687Y-81683528D01*
X61226687Y-81683528D02*
X61440972Y-81826385D01*
X61440972Y-81826385D02*
X61726687Y-81897814D01*
X61726687Y-81897814D02*
X62012401Y-81826385D01*
X62012401Y-81826385D02*
X62226687Y-81683528D01*
X63012400Y-81683528D02*
X63012400Y-80683528D01*
X63012400Y-80183528D02*
X62940972Y-80254957D01*
X62940972Y-80254957D02*
X63012400Y-80326385D01*
X63012400Y-80326385D02*
X63083829Y-80254957D01*
X63083829Y-80254957D02*
X63012400Y-80183528D01*
X63012400Y-80183528D02*
X63012400Y-80326385D01*
X63726686Y-80683528D02*
X63726686Y-81683528D01*
X63726686Y-80826385D02*
X63798115Y-80754957D01*
X63798115Y-80754957D02*
X63940972Y-80683528D01*
X63940972Y-80683528D02*
X64155258Y-80683528D01*
X64155258Y-80683528D02*
X64298115Y-80754957D01*
X64298115Y-80754957D02*
X64369544Y-80897814D01*
X64369544Y-80897814D02*
X64369544Y-81683528D01*
X65012401Y-81612100D02*
X65155258Y-81683528D01*
X65155258Y-81683528D02*
X65440972Y-81683528D01*
X65440972Y-81683528D02*
X65583829Y-81612100D01*
X65583829Y-81612100D02*
X65655258Y-81469242D01*
X65655258Y-81469242D02*
X65655258Y-81397814D01*
X65655258Y-81397814D02*
X65583829Y-81254957D01*
X65583829Y-81254957D02*
X65440972Y-81183528D01*
X65440972Y-81183528D02*
X65226687Y-81183528D01*
X65226687Y-81183528D02*
X65083829Y-81112100D01*
X65083829Y-81112100D02*
X65012401Y-80969242D01*
X65012401Y-80969242D02*
X65012401Y-80897814D01*
X65012401Y-80897814D02*
X65083829Y-80754957D01*
X65083829Y-80754957D02*
X65226687Y-80683528D01*
X65226687Y-80683528D02*
X65440972Y-80683528D01*
X65440972Y-80683528D02*
X65583829Y-80754957D01*
X66940973Y-81683528D02*
X66940973Y-80897814D01*
X66940973Y-80897814D02*
X66869544Y-80754957D01*
X66869544Y-80754957D02*
X66726687Y-80683528D01*
X66726687Y-80683528D02*
X66440973Y-80683528D01*
X66440973Y-80683528D02*
X66298115Y-80754957D01*
X66940973Y-81612100D02*
X66798115Y-81683528D01*
X66798115Y-81683528D02*
X66440973Y-81683528D01*
X66440973Y-81683528D02*
X66298115Y-81612100D01*
X66298115Y-81612100D02*
X66226687Y-81469242D01*
X66226687Y-81469242D02*
X66226687Y-81326385D01*
X66226687Y-81326385D02*
X66298115Y-81183528D01*
X66298115Y-81183528D02*
X66440973Y-81112100D01*
X66440973Y-81112100D02*
X66798115Y-81112100D01*
X66798115Y-81112100D02*
X66940973Y-81040671D01*
X67655258Y-81112100D02*
X68798116Y-81112100D01*
X69726687Y-81683528D02*
X69583830Y-81612100D01*
X69583830Y-81612100D02*
X69512401Y-81469242D01*
X69512401Y-81469242D02*
X69512401Y-80183528D01*
X70155258Y-80683528D02*
X70512401Y-81683528D01*
X70869544Y-80683528D02*
X70512401Y-81683528D01*
X70512401Y-81683528D02*
X70369544Y-82040671D01*
X70369544Y-82040671D02*
X70298115Y-82112100D01*
X70298115Y-82112100D02*
X70155258Y-82183528D01*
X71655258Y-81683528D02*
X71512401Y-81612100D01*
X71512401Y-81612100D02*
X71440972Y-81540671D01*
X71440972Y-81540671D02*
X71369544Y-81397814D01*
X71369544Y-81397814D02*
X71369544Y-80969242D01*
X71369544Y-80969242D02*
X71440972Y-80826385D01*
X71440972Y-80826385D02*
X71512401Y-80754957D01*
X71512401Y-80754957D02*
X71655258Y-80683528D01*
X71655258Y-80683528D02*
X71869544Y-80683528D01*
X71869544Y-80683528D02*
X72012401Y-80754957D01*
X72012401Y-80754957D02*
X72083830Y-80826385D01*
X72083830Y-80826385D02*
X72155258Y-80969242D01*
X72155258Y-80969242D02*
X72155258Y-81397814D01*
X72155258Y-81397814D02*
X72083830Y-81540671D01*
X72083830Y-81540671D02*
X72012401Y-81612100D01*
X72012401Y-81612100D02*
X71869544Y-81683528D01*
X71869544Y-81683528D02*
X71655258Y-81683528D01*
X72798115Y-80683528D02*
X72798115Y-81683528D01*
X72798115Y-80826385D02*
X72869544Y-80754957D01*
X72869544Y-80754957D02*
X73012401Y-80683528D01*
X73012401Y-80683528D02*
X73226687Y-80683528D01*
X73226687Y-80683528D02*
X73369544Y-80754957D01*
X73369544Y-80754957D02*
X73440973Y-80897814D01*
X73440973Y-80897814D02*
X73440973Y-81683528D01*
X74155258Y-81540671D02*
X74226687Y-81612100D01*
X74226687Y-81612100D02*
X74155258Y-81683528D01*
X74155258Y-81683528D02*
X74083830Y-81612100D01*
X74083830Y-81612100D02*
X74155258Y-81540671D01*
X74155258Y-81540671D02*
X74155258Y-81683528D01*
X74655259Y-80683528D02*
X75226687Y-80683528D01*
X74869544Y-81683528D02*
X74869544Y-80397814D01*
X74869544Y-80397814D02*
X74940973Y-80254957D01*
X74940973Y-80254957D02*
X75083830Y-80183528D01*
X75083830Y-80183528D02*
X75226687Y-80183528D01*
X75726687Y-81683528D02*
X75726687Y-80683528D01*
X75726687Y-80969242D02*
X75798116Y-80826385D01*
X75798116Y-80826385D02*
X75869545Y-80754957D01*
X75869545Y-80754957D02*
X76012402Y-80683528D01*
X76012402Y-80683528D02*
X76155259Y-80683528D01*
D10*
D11*
X31298114Y-78254957D02*
X32012400Y-78254957D01*
X31155257Y-78683528D02*
X31655257Y-77183528D01*
X31655257Y-77183528D02*
X32155257Y-78683528D01*
X33298114Y-77683528D02*
X33298114Y-78683528D01*
X32655256Y-77683528D02*
X32655256Y-78469242D01*
X32655256Y-78469242D02*
X32726685Y-78612100D01*
X32726685Y-78612100D02*
X32869542Y-78683528D01*
X32869542Y-78683528D02*
X33083828Y-78683528D01*
X33083828Y-78683528D02*
X33226685Y-78612100D01*
X33226685Y-78612100D02*
X33298114Y-78540671D01*
X33798114Y-77683528D02*
X34369542Y-77683528D01*
X34012399Y-77183528D02*
X34012399Y-78469242D01*
X34012399Y-78469242D02*
X34083828Y-78612100D01*
X34083828Y-78612100D02*
X34226685Y-78683528D01*
X34226685Y-78683528D02*
X34369542Y-78683528D01*
X34869542Y-78683528D02*
X34869542Y-77183528D01*
X35512400Y-78683528D02*
X35512400Y-77897814D01*
X35512400Y-77897814D02*
X35440971Y-77754957D01*
X35440971Y-77754957D02*
X35298114Y-77683528D01*
X35298114Y-77683528D02*
X35083828Y-77683528D01*
X35083828Y-77683528D02*
X34940971Y-77754957D01*
X34940971Y-77754957D02*
X34869542Y-77826385D01*
X36440971Y-78683528D02*
X36298114Y-78612100D01*
X36298114Y-78612100D02*
X36226685Y-78540671D01*
X36226685Y-78540671D02*
X36155257Y-78397814D01*
X36155257Y-78397814D02*
X36155257Y-77969242D01*
X36155257Y-77969242D02*
X36226685Y-77826385D01*
X36226685Y-77826385D02*
X36298114Y-77754957D01*
X36298114Y-77754957D02*
X36440971Y-77683528D01*
X36440971Y-77683528D02*
X36655257Y-77683528D01*
X36655257Y-77683528D02*
X36798114Y-77754957D01*
X36798114Y-77754957D02*
X36869543Y-77826385D01*
X36869543Y-77826385D02*
X36940971Y-77969242D01*
X36940971Y-77969242D02*
X36940971Y-78397814D01*
X36940971Y-78397814D02*
X36869543Y-78540671D01*
X36869543Y-78540671D02*
X36798114Y-78612100D01*
X36798114Y-78612100D02*
X36655257Y-78683528D01*
X36655257Y-78683528D02*
X36440971Y-78683528D01*
X37583828Y-78683528D02*
X37583828Y-77683528D01*
X37583828Y-77969242D02*
X37655257Y-77826385D01*
X37655257Y-77826385D02*
X37726686Y-77754957D01*
X37726686Y-77754957D02*
X37869543Y-77683528D01*
X37869543Y-77683528D02*
X38012400Y-77683528D01*
X38440971Y-78612100D02*
X38583828Y-78683528D01*
X38583828Y-78683528D02*
X38869542Y-78683528D01*
X38869542Y-78683528D02*
X39012399Y-78612100D01*
X39012399Y-78612100D02*
X39083828Y-78469242D01*
X39083828Y-78469242D02*
X39083828Y-78397814D01*
X39083828Y-78397814D02*
X39012399Y-78254957D01*
X39012399Y-78254957D02*
X38869542Y-78183528D01*
X38869542Y-78183528D02*
X38655257Y-78183528D01*
X38655257Y-78183528D02*
X38512399Y-78112100D01*
X38512399Y-78112100D02*
X38440971Y-77969242D01*
X38440971Y-77969242D02*
X38440971Y-77897814D01*
X38440971Y-77897814D02*
X38512399Y-77754957D01*
X38512399Y-77754957D02*
X38655257Y-77683528D01*
X38655257Y-77683528D02*
X38869542Y-77683528D01*
X38869542Y-77683528D02*
X39012399Y-77754957D01*
X40869542Y-78540671D02*
X40940971Y-78612100D01*
X40940971Y-78612100D02*
X40869542Y-78683528D01*
X40869542Y-78683528D02*
X40798114Y-78612100D01*
X40798114Y-78612100D02*
X40869542Y-78540671D01*
X40869542Y-78540671D02*
X40869542Y-78683528D01*
X40869542Y-77754957D02*
X40940971Y-77826385D01*
X40940971Y-77826385D02*
X40869542Y-77897814D01*
X40869542Y-77897814D02*
X40798114Y-77826385D01*
X40798114Y-77826385D02*
X40869542Y-77754957D01*
X40869542Y-77754957D02*
X40869542Y-77897814D01*
X43226685Y-77897814D02*
X43440971Y-77969242D01*
X43440971Y-77969242D02*
X43512400Y-78040671D01*
X43512400Y-78040671D02*
X43583828Y-78183528D01*
X43583828Y-78183528D02*
X43583828Y-78397814D01*
X43583828Y-78397814D02*
X43512400Y-78540671D01*
X43512400Y-78540671D02*
X43440971Y-78612100D01*
X43440971Y-78612100D02*
X43298114Y-78683528D01*
X43298114Y-78683528D02*
X42726685Y-78683528D01*
X42726685Y-78683528D02*
X42726685Y-77183528D01*
X42726685Y-77183528D02*
X43226685Y-77183528D01*
X43226685Y-77183528D02*
X43369543Y-77254957D01*
X43369543Y-77254957D02*
X43440971Y-77326385D01*
X43440971Y-77326385D02*
X43512400Y-77469242D01*
X43512400Y-77469242D02*
X43512400Y-77612100D01*
X43512400Y-77612100D02*
X43440971Y-77754957D01*
X43440971Y-77754957D02*
X43369543Y-77826385D01*
X43369543Y-77826385D02*
X43226685Y-77897814D01*
X43226685Y-77897814D02*
X42726685Y-77897814D01*
X44798114Y-78612100D02*
X44655257Y-78683528D01*
X44655257Y-78683528D02*
X44369543Y-78683528D01*
X44369543Y-78683528D02*
X44226685Y-78612100D01*
X44226685Y-78612100D02*
X44155257Y-78469242D01*
X44155257Y-78469242D02*
X44155257Y-77897814D01*
X44155257Y-77897814D02*
X44226685Y-77754957D01*
X44226685Y-77754957D02*
X44369543Y-77683528D01*
X44369543Y-77683528D02*
X44655257Y-77683528D01*
X44655257Y-77683528D02*
X44798114Y-77754957D01*
X44798114Y-77754957D02*
X44869543Y-77897814D01*
X44869543Y-77897814D02*
X44869543Y-78040671D01*
X44869543Y-78040671D02*
X44155257Y-78183528D01*
X45512399Y-78683528D02*
X45512399Y-77683528D01*
X45512399Y-77969242D02*
X45583828Y-77826385D01*
X45583828Y-77826385D02*
X45655257Y-77754957D01*
X45655257Y-77754957D02*
X45798114Y-77683528D01*
X45798114Y-77683528D02*
X45940971Y-77683528D01*
X46226685Y-77683528D02*
X46798113Y-77683528D01*
X46440970Y-77183528D02*
X46440970Y-78469242D01*
X46440970Y-78469242D02*
X46512399Y-78612100D01*
X46512399Y-78612100D02*
X46655256Y-78683528D01*
X46655256Y-78683528D02*
X46798113Y-78683528D01*
X47298113Y-78683528D02*
X47298113Y-77683528D01*
X47298113Y-77969242D02*
X47369542Y-77826385D01*
X47369542Y-77826385D02*
X47440971Y-77754957D01*
X47440971Y-77754957D02*
X47583828Y-77683528D01*
X47583828Y-77683528D02*
X47726685Y-77683528D01*
X48869542Y-78683528D02*
X48869542Y-77897814D01*
X48869542Y-77897814D02*
X48798113Y-77754957D01*
X48798113Y-77754957D02*
X48655256Y-77683528D01*
X48655256Y-77683528D02*
X48369542Y-77683528D01*
X48369542Y-77683528D02*
X48226684Y-77754957D01*
X48869542Y-78612100D02*
X48726684Y-78683528D01*
X48726684Y-78683528D02*
X48369542Y-78683528D01*
X48369542Y-78683528D02*
X48226684Y-78612100D01*
X48226684Y-78612100D02*
X48155256Y-78469242D01*
X48155256Y-78469242D02*
X48155256Y-78326385D01*
X48155256Y-78326385D02*
X48226684Y-78183528D01*
X48226684Y-78183528D02*
X48369542Y-78112100D01*
X48369542Y-78112100D02*
X48726684Y-78112100D01*
X48726684Y-78112100D02*
X48869542Y-78040671D01*
X49583827Y-77683528D02*
X49583827Y-78683528D01*
X49583827Y-77826385D02*
X49655256Y-77754957D01*
X49655256Y-77754957D02*
X49798113Y-77683528D01*
X49798113Y-77683528D02*
X50012399Y-77683528D01*
X50012399Y-77683528D02*
X50155256Y-77754957D01*
X50155256Y-77754957D02*
X50226685Y-77897814D01*
X50226685Y-77897814D02*
X50226685Y-78683528D01*
X51583828Y-78683528D02*
X51583828Y-77183528D01*
X51583828Y-78612100D02*
X51440970Y-78683528D01*
X51440970Y-78683528D02*
X51155256Y-78683528D01*
X51155256Y-78683528D02*
X51012399Y-78612100D01*
X51012399Y-78612100D02*
X50940970Y-78540671D01*
X50940970Y-78540671D02*
X50869542Y-78397814D01*
X50869542Y-78397814D02*
X50869542Y-77969242D01*
X50869542Y-77969242D02*
X50940970Y-77826385D01*
X50940970Y-77826385D02*
X51012399Y-77754957D01*
X51012399Y-77754957D02*
X51155256Y-77683528D01*
X51155256Y-77683528D02*
X51440970Y-77683528D01*
X51440970Y-77683528D02*
X51583828Y-77754957D01*
X53440970Y-78683528D02*
X53440970Y-77183528D01*
X53440970Y-77183528D02*
X53940970Y-78254957D01*
X53940970Y-78254957D02*
X54440970Y-77183528D01*
X54440970Y-77183528D02*
X54440970Y-78683528D01*
X55798114Y-78683528D02*
X55798114Y-77897814D01*
X55798114Y-77897814D02*
X55726685Y-77754957D01*
X55726685Y-77754957D02*
X55583828Y-77683528D01*
X55583828Y-77683528D02*
X55298114Y-77683528D01*
X55298114Y-77683528D02*
X55155256Y-77754957D01*
X55798114Y-78612100D02*
X55655256Y-78683528D01*
X55655256Y-78683528D02*
X55298114Y-78683528D01*
X55298114Y-78683528D02*
X55155256Y-78612100D01*
X55155256Y-78612100D02*
X55083828Y-78469242D01*
X55083828Y-78469242D02*
X55083828Y-78326385D01*
X55083828Y-78326385D02*
X55155256Y-78183528D01*
X55155256Y-78183528D02*
X55298114Y-78112100D01*
X55298114Y-78112100D02*
X55655256Y-78112100D01*
X55655256Y-78112100D02*
X55798114Y-78040671D01*
X56440971Y-78612100D02*
X56583828Y-78683528D01*
X56583828Y-78683528D02*
X56869542Y-78683528D01*
X56869542Y-78683528D02*
X57012399Y-78612100D01*
X57012399Y-78612100D02*
X57083828Y-78469242D01*
X57083828Y-78469242D02*
X57083828Y-78397814D01*
X57083828Y-78397814D02*
X57012399Y-78254957D01*
X57012399Y-78254957D02*
X56869542Y-78183528D01*
X56869542Y-78183528D02*
X56655257Y-78183528D01*
X56655257Y-78183528D02*
X56512399Y-78112100D01*
X56512399Y-78112100D02*
X56440971Y-77969242D01*
X56440971Y-77969242D02*
X56440971Y-77897814D01*
X56440971Y-77897814D02*
X56512399Y-77754957D01*
X56512399Y-77754957D02*
X56655257Y-77683528D01*
X56655257Y-77683528D02*
X56869542Y-77683528D01*
X56869542Y-77683528D02*
X57012399Y-77754957D01*
X57655257Y-78612100D02*
X57798114Y-78683528D01*
X57798114Y-78683528D02*
X58083828Y-78683528D01*
X58083828Y-78683528D02*
X58226685Y-78612100D01*
X58226685Y-78612100D02*
X58298114Y-78469242D01*
X58298114Y-78469242D02*
X58298114Y-78397814D01*
X58298114Y-78397814D02*
X58226685Y-78254957D01*
X58226685Y-78254957D02*
X58083828Y-78183528D01*
X58083828Y-78183528D02*
X57869543Y-78183528D01*
X57869543Y-78183528D02*
X57726685Y-78112100D01*
X57726685Y-78112100D02*
X57655257Y-77969242D01*
X57655257Y-77969242D02*
X57655257Y-77897814D01*
X57655257Y-77897814D02*
X57726685Y-77754957D01*
X57726685Y-77754957D02*
X57869543Y-77683528D01*
X57869543Y-77683528D02*
X58083828Y-77683528D01*
X58083828Y-77683528D02*
X58226685Y-77754957D01*
X59155257Y-78683528D02*
X59012400Y-78612100D01*
X59012400Y-78612100D02*
X58940971Y-78540671D01*
X58940971Y-78540671D02*
X58869543Y-78397814D01*
X58869543Y-78397814D02*
X58869543Y-77969242D01*
X58869543Y-77969242D02*
X58940971Y-77826385D01*
X58940971Y-77826385D02*
X59012400Y-77754957D01*
X59012400Y-77754957D02*
X59155257Y-77683528D01*
X59155257Y-77683528D02*
X59369543Y-77683528D01*
X59369543Y-77683528D02*
X59512400Y-77754957D01*
X59512400Y-77754957D02*
X59583829Y-77826385D01*
X59583829Y-77826385D02*
X59655257Y-77969242D01*
X59655257Y-77969242D02*
X59655257Y-78397814D01*
X59655257Y-78397814D02*
X59583829Y-78540671D01*
X59583829Y-78540671D02*
X59512400Y-78612100D01*
X59512400Y-78612100D02*
X59369543Y-78683528D01*
X59369543Y-78683528D02*
X59155257Y-78683528D01*
X60083829Y-77683528D02*
X60655257Y-77683528D01*
X60298114Y-77183528D02*
X60298114Y-78469242D01*
X60298114Y-78469242D02*
X60369543Y-78612100D01*
X60369543Y-78612100D02*
X60512400Y-78683528D01*
X60512400Y-78683528D02*
X60655257Y-78683528D01*
X61226686Y-78612100D02*
X61226686Y-78683528D01*
X61226686Y-78683528D02*
X61155257Y-78826385D01*
X61155257Y-78826385D02*
X61083829Y-78897814D01*
X63012400Y-78683528D02*
X63012400Y-77183528D01*
X63012400Y-77183528D02*
X63512400Y-78254957D01*
X63512400Y-78254957D02*
X64012400Y-77183528D01*
X64012400Y-77183528D02*
X64012400Y-78683528D01*
X65369544Y-78683528D02*
X65369544Y-77897814D01*
X65369544Y-77897814D02*
X65298115Y-77754957D01*
X65298115Y-77754957D02*
X65155258Y-77683528D01*
X65155258Y-77683528D02*
X64869544Y-77683528D01*
X64869544Y-77683528D02*
X64726686Y-77754957D01*
X65369544Y-78612100D02*
X65226686Y-78683528D01*
X65226686Y-78683528D02*
X64869544Y-78683528D01*
X64869544Y-78683528D02*
X64726686Y-78612100D01*
X64726686Y-78612100D02*
X64655258Y-78469242D01*
X64655258Y-78469242D02*
X64655258Y-78326385D01*
X64655258Y-78326385D02*
X64726686Y-78183528D01*
X64726686Y-78183528D02*
X64869544Y-78112100D01*
X64869544Y-78112100D02*
X65226686Y-78112100D01*
X65226686Y-78112100D02*
X65369544Y-78040671D01*
X65869544Y-77683528D02*
X66440972Y-77683528D01*
X66083829Y-77183528D02*
X66083829Y-78469242D01*
X66083829Y-78469242D02*
X66155258Y-78612100D01*
X66155258Y-78612100D02*
X66298115Y-78683528D01*
X66298115Y-78683528D02*
X66440972Y-78683528D01*
X66726687Y-77683528D02*
X67298115Y-77683528D01*
X66940972Y-77183528D02*
X66940972Y-78469242D01*
X66940972Y-78469242D02*
X67012401Y-78612100D01*
X67012401Y-78612100D02*
X67155258Y-78683528D01*
X67155258Y-78683528D02*
X67298115Y-78683528D01*
X67798115Y-78683528D02*
X67798115Y-77183528D01*
X68440973Y-78683528D02*
X68440973Y-77897814D01*
X68440973Y-77897814D02*
X68369544Y-77754957D01*
X68369544Y-77754957D02*
X68226687Y-77683528D01*
X68226687Y-77683528D02*
X68012401Y-77683528D01*
X68012401Y-77683528D02*
X67869544Y-77754957D01*
X67869544Y-77754957D02*
X67798115Y-77826385D01*
X69155258Y-78683528D02*
X69155258Y-77683528D01*
X69155258Y-77183528D02*
X69083830Y-77254957D01*
X69083830Y-77254957D02*
X69155258Y-77326385D01*
X69155258Y-77326385D02*
X69226687Y-77254957D01*
X69226687Y-77254957D02*
X69155258Y-77183528D01*
X69155258Y-77183528D02*
X69155258Y-77326385D01*
X70440973Y-78612100D02*
X70298116Y-78683528D01*
X70298116Y-78683528D02*
X70012402Y-78683528D01*
X70012402Y-78683528D02*
X69869544Y-78612100D01*
X69869544Y-78612100D02*
X69798116Y-78469242D01*
X69798116Y-78469242D02*
X69798116Y-77897814D01*
X69798116Y-77897814D02*
X69869544Y-77754957D01*
X69869544Y-77754957D02*
X70012402Y-77683528D01*
X70012402Y-77683528D02*
X70298116Y-77683528D01*
X70298116Y-77683528D02*
X70440973Y-77754957D01*
X70440973Y-77754957D02*
X70512402Y-77897814D01*
X70512402Y-77897814D02*
X70512402Y-78040671D01*
X70512402Y-78040671D02*
X69798116Y-78183528D01*
X71798116Y-77683528D02*
X71798116Y-78683528D01*
X71155258Y-77683528D02*
X71155258Y-78469242D01*
X71155258Y-78469242D02*
X71226687Y-78612100D01*
X71226687Y-78612100D02*
X71369544Y-78683528D01*
X71369544Y-78683528D02*
X71583830Y-78683528D01*
X71583830Y-78683528D02*
X71726687Y-78612100D01*
X71726687Y-78612100D02*
X71798116Y-78540671D01*
X73655258Y-78683528D02*
X73655258Y-77183528D01*
X73655258Y-77183528D02*
X74155258Y-78254957D01*
X74155258Y-78254957D02*
X74655258Y-77183528D01*
X74655258Y-77183528D02*
X74655258Y-78683528D01*
X75940973Y-78612100D02*
X75798116Y-78683528D01*
X75798116Y-78683528D02*
X75512402Y-78683528D01*
X75512402Y-78683528D02*
X75369544Y-78612100D01*
X75369544Y-78612100D02*
X75298116Y-78469242D01*
X75298116Y-78469242D02*
X75298116Y-77897814D01*
X75298116Y-77897814D02*
X75369544Y-77754957D01*
X75369544Y-77754957D02*
X75512402Y-77683528D01*
X75512402Y-77683528D02*
X75798116Y-77683528D01*
X75798116Y-77683528D02*
X75940973Y-77754957D01*
X75940973Y-77754957D02*
X76012402Y-77897814D01*
X76012402Y-77897814D02*
X76012402Y-78040671D01*
X76012402Y-78040671D02*
X75298116Y-78183528D01*
X76583830Y-78612100D02*
X76726687Y-78683528D01*
X76726687Y-78683528D02*
X77012401Y-78683528D01*
X77012401Y-78683528D02*
X77155258Y-78612100D01*
X77155258Y-78612100D02*
X77226687Y-78469242D01*
X77226687Y-78469242D02*
X77226687Y-78397814D01*
X77226687Y-78397814D02*
X77155258Y-78254957D01*
X77155258Y-78254957D02*
X77012401Y-78183528D01*
X77012401Y-78183528D02*
X76798116Y-78183528D01*
X76798116Y-78183528D02*
X76655258Y-78112100D01*
X76655258Y-78112100D02*
X76583830Y-77969242D01*
X76583830Y-77969242D02*
X76583830Y-77897814D01*
X76583830Y-77897814D02*
X76655258Y-77754957D01*
X76655258Y-77754957D02*
X76798116Y-77683528D01*
X76798116Y-77683528D02*
X77012401Y-77683528D01*
X77012401Y-77683528D02*
X77155258Y-77754957D01*
X77869544Y-77683528D02*
X77869544Y-78683528D01*
X77869544Y-77826385D02*
X77940973Y-77754957D01*
X77940973Y-77754957D02*
X78083830Y-77683528D01*
X78083830Y-77683528D02*
X78298116Y-77683528D01*
X78298116Y-77683528D02*
X78440973Y-77754957D01*
X78440973Y-77754957D02*
X78512402Y-77897814D01*
X78512402Y-77897814D02*
X78512402Y-78683528D01*
X79869545Y-78683528D02*
X79869545Y-77897814D01*
X79869545Y-77897814D02*
X79798116Y-77754957D01*
X79798116Y-77754957D02*
X79655259Y-77683528D01*
X79655259Y-77683528D02*
X79369545Y-77683528D01*
X79369545Y-77683528D02*
X79226687Y-77754957D01*
X79869545Y-78612100D02*
X79726687Y-78683528D01*
X79726687Y-78683528D02*
X79369545Y-78683528D01*
X79369545Y-78683528D02*
X79226687Y-78612100D01*
X79226687Y-78612100D02*
X79155259Y-78469242D01*
X79155259Y-78469242D02*
X79155259Y-78326385D01*
X79155259Y-78326385D02*
X79226687Y-78183528D01*
X79226687Y-78183528D02*
X79369545Y-78112100D01*
X79369545Y-78112100D02*
X79726687Y-78112100D01*
X79726687Y-78112100D02*
X79869545Y-78040671D01*
X81226688Y-77683528D02*
X81226688Y-78897814D01*
X81226688Y-78897814D02*
X81155259Y-79040671D01*
X81155259Y-79040671D02*
X81083830Y-79112100D01*
X81083830Y-79112100D02*
X80940973Y-79183528D01*
X80940973Y-79183528D02*
X80726688Y-79183528D01*
X80726688Y-79183528D02*
X80583830Y-79112100D01*
X81226688Y-78612100D02*
X81083830Y-78683528D01*
X81083830Y-78683528D02*
X80798116Y-78683528D01*
X80798116Y-78683528D02*
X80655259Y-78612100D01*
X80655259Y-78612100D02*
X80583830Y-78540671D01*
X80583830Y-78540671D02*
X80512402Y-78397814D01*
X80512402Y-78397814D02*
X80512402Y-77969242D01*
X80512402Y-77969242D02*
X80583830Y-77826385D01*
X80583830Y-77826385D02*
X80655259Y-77754957D01*
X80655259Y-77754957D02*
X80798116Y-77683528D01*
X80798116Y-77683528D02*
X81083830Y-77683528D01*
X81083830Y-77683528D02*
X81226688Y-77754957D01*
X82512402Y-78612100D02*
X82369545Y-78683528D01*
X82369545Y-78683528D02*
X82083831Y-78683528D01*
X82083831Y-78683528D02*
X81940973Y-78612100D01*
X81940973Y-78612100D02*
X81869545Y-78469242D01*
X81869545Y-78469242D02*
X81869545Y-77897814D01*
X81869545Y-77897814D02*
X81940973Y-77754957D01*
X81940973Y-77754957D02*
X82083831Y-77683528D01*
X82083831Y-77683528D02*
X82369545Y-77683528D01*
X82369545Y-77683528D02*
X82512402Y-77754957D01*
X82512402Y-77754957D02*
X82583831Y-77897814D01*
X82583831Y-77897814D02*
X82583831Y-78040671D01*
X82583831Y-78040671D02*
X81869545Y-78183528D01*
X83298116Y-78612100D02*
X83298116Y-78683528D01*
X83298116Y-78683528D02*
X83226687Y-78826385D01*
X83226687Y-78826385D02*
X83155259Y-78897814D01*
X85083830Y-78683528D02*
X85083830Y-77183528D01*
X85083830Y-77897814D02*
X85940973Y-77897814D01*
X85940973Y-78683528D02*
X85940973Y-77183528D01*
X87298117Y-77683528D02*
X87298117Y-78683528D01*
X86655259Y-77683528D02*
X86655259Y-78469242D01*
X86655259Y-78469242D02*
X86726688Y-78612100D01*
X86726688Y-78612100D02*
X86869545Y-78683528D01*
X86869545Y-78683528D02*
X87083831Y-78683528D01*
X87083831Y-78683528D02*
X87226688Y-78612100D01*
X87226688Y-78612100D02*
X87298117Y-78540671D01*
X88655260Y-77683528D02*
X88655260Y-78897814D01*
X88655260Y-78897814D02*
X88583831Y-79040671D01*
X88583831Y-79040671D02*
X88512402Y-79112100D01*
X88512402Y-79112100D02*
X88369545Y-79183528D01*
X88369545Y-79183528D02*
X88155260Y-79183528D01*
X88155260Y-79183528D02*
X88012402Y-79112100D01*
X88655260Y-78612100D02*
X88512402Y-78683528D01*
X88512402Y-78683528D02*
X88226688Y-78683528D01*
X88226688Y-78683528D02*
X88083831Y-78612100D01*
X88083831Y-78612100D02*
X88012402Y-78540671D01*
X88012402Y-78540671D02*
X87940974Y-78397814D01*
X87940974Y-78397814D02*
X87940974Y-77969242D01*
X87940974Y-77969242D02*
X88012402Y-77826385D01*
X88012402Y-77826385D02*
X88083831Y-77754957D01*
X88083831Y-77754957D02*
X88226688Y-77683528D01*
X88226688Y-77683528D02*
X88512402Y-77683528D01*
X88512402Y-77683528D02*
X88655260Y-77754957D01*
X89583831Y-78683528D02*
X89440974Y-78612100D01*
X89440974Y-78612100D02*
X89369545Y-78540671D01*
X89369545Y-78540671D02*
X89298117Y-78397814D01*
X89298117Y-78397814D02*
X89298117Y-77969242D01*
X89298117Y-77969242D02*
X89369545Y-77826385D01*
X89369545Y-77826385D02*
X89440974Y-77754957D01*
X89440974Y-77754957D02*
X89583831Y-77683528D01*
X89583831Y-77683528D02*
X89798117Y-77683528D01*
X89798117Y-77683528D02*
X89940974Y-77754957D01*
X89940974Y-77754957D02*
X90012403Y-77826385D01*
X90012403Y-77826385D02*
X90083831Y-77969242D01*
X90083831Y-77969242D02*
X90083831Y-78397814D01*
X90083831Y-78397814D02*
X90012403Y-78540671D01*
X90012403Y-78540671D02*
X89940974Y-78612100D01*
X89940974Y-78612100D02*
X89798117Y-78683528D01*
X89798117Y-78683528D02*
X89583831Y-78683528D01*
X92369545Y-77897814D02*
X92583831Y-77969242D01*
X92583831Y-77969242D02*
X92655260Y-78040671D01*
X92655260Y-78040671D02*
X92726688Y-78183528D01*
X92726688Y-78183528D02*
X92726688Y-78397814D01*
X92726688Y-78397814D02*
X92655260Y-78540671D01*
X92655260Y-78540671D02*
X92583831Y-78612100D01*
X92583831Y-78612100D02*
X92440974Y-78683528D01*
X92440974Y-78683528D02*
X91869545Y-78683528D01*
X91869545Y-78683528D02*
X91869545Y-77183528D01*
X91869545Y-77183528D02*
X92369545Y-77183528D01*
X92369545Y-77183528D02*
X92512403Y-77254957D01*
X92512403Y-77254957D02*
X92583831Y-77326385D01*
X92583831Y-77326385D02*
X92655260Y-77469242D01*
X92655260Y-77469242D02*
X92655260Y-77612100D01*
X92655260Y-77612100D02*
X92583831Y-77754957D01*
X92583831Y-77754957D02*
X92512403Y-77826385D01*
X92512403Y-77826385D02*
X92369545Y-77897814D01*
X92369545Y-77897814D02*
X91869545Y-77897814D01*
X94012403Y-77683528D02*
X94012403Y-78683528D01*
X93369545Y-77683528D02*
X93369545Y-78469242D01*
X93369545Y-78469242D02*
X93440974Y-78612100D01*
X93440974Y-78612100D02*
X93583831Y-78683528D01*
X93583831Y-78683528D02*
X93798117Y-78683528D01*
X93798117Y-78683528D02*
X93940974Y-78612100D01*
X93940974Y-78612100D02*
X94012403Y-78540671D01*
X94583831Y-77683528D02*
X94940974Y-78683528D01*
X95298117Y-77683528D02*
X94940974Y-78683528D01*
X94940974Y-78683528D02*
X94798117Y-79040671D01*
X94798117Y-79040671D02*
X94726688Y-79112100D01*
X94726688Y-79112100D02*
X94583831Y-79183528D01*
D10*
D11*
X50012400Y-101489600D02*
X50012400Y-104489600D01*
D10*
D11*
X114012400Y-101489600D02*
X114012400Y-107989600D01*
X40600000Y-22985000D02*
X45750000Y-22985000D01*
X45750000Y-25785000D01*
X40600000Y-25785000D01*
X40600000Y-22985000D01*
X48180000Y-22970000D02*
X53330000Y-22970000D01*
X53330000Y-25770000D01*
X48180000Y-25770000D01*
X48180000Y-22970000D01*
D12*
X59226957Y-37575428D02*
X60084100Y-37575428D01*
X59655528Y-39075428D02*
X59655528Y-37575428D01*
X60798385Y-39075428D02*
X60655528Y-39004000D01*
X60655528Y-39004000D02*
X60584099Y-38932571D01*
X60584099Y-38932571D02*
X60512671Y-38789714D01*
X60512671Y-38789714D02*
X60512671Y-38361142D01*
X60512671Y-38361142D02*
X60584099Y-38218285D01*
X60584099Y-38218285D02*
X60655528Y-38146857D01*
X60655528Y-38146857D02*
X60798385Y-38075428D01*
X60798385Y-38075428D02*
X61012671Y-38075428D01*
X61012671Y-38075428D02*
X61155528Y-38146857D01*
X61155528Y-38146857D02*
X61226957Y-38218285D01*
X61226957Y-38218285D02*
X61298385Y-38361142D01*
X61298385Y-38361142D02*
X61298385Y-38789714D01*
X61298385Y-38789714D02*
X61226957Y-38932571D01*
X61226957Y-38932571D02*
X61155528Y-39004000D01*
X61155528Y-39004000D02*
X61012671Y-39075428D01*
X61012671Y-39075428D02*
X60798385Y-39075428D01*
X61941242Y-38075428D02*
X61941242Y-39575428D01*
X61941242Y-38146857D02*
X62084100Y-38075428D01*
X62084100Y-38075428D02*
X62369814Y-38075428D01*
X62369814Y-38075428D02*
X62512671Y-38146857D01*
X62512671Y-38146857D02*
X62584100Y-38218285D01*
X62584100Y-38218285D02*
X62655528Y-38361142D01*
X62655528Y-38361142D02*
X62655528Y-38789714D01*
X62655528Y-38789714D02*
X62584100Y-38932571D01*
X62584100Y-38932571D02*
X62512671Y-39004000D01*
X62512671Y-39004000D02*
X62369814Y-39075428D01*
X62369814Y-39075428D02*
X62084100Y-39075428D01*
X62084100Y-39075428D02*
X61941242Y-39004000D01*
X64369814Y-39004000D02*
X64584100Y-39075428D01*
X64584100Y-39075428D02*
X64941242Y-39075428D01*
X64941242Y-39075428D02*
X65084100Y-39004000D01*
X65084100Y-39004000D02*
X65155528Y-38932571D01*
X65155528Y-38932571D02*
X65226957Y-38789714D01*
X65226957Y-38789714D02*
X65226957Y-38646857D01*
X65226957Y-38646857D02*
X65155528Y-38504000D01*
X65155528Y-38504000D02*
X65084100Y-38432571D01*
X65084100Y-38432571D02*
X64941242Y-38361142D01*
X64941242Y-38361142D02*
X64655528Y-38289714D01*
X64655528Y-38289714D02*
X64512671Y-38218285D01*
X64512671Y-38218285D02*
X64441242Y-38146857D01*
X64441242Y-38146857D02*
X64369814Y-38004000D01*
X64369814Y-38004000D02*
X64369814Y-37861142D01*
X64369814Y-37861142D02*
X64441242Y-37718285D01*
X64441242Y-37718285D02*
X64512671Y-37646857D01*
X64512671Y-37646857D02*
X64655528Y-37575428D01*
X64655528Y-37575428D02*
X65012671Y-37575428D01*
X65012671Y-37575428D02*
X65226957Y-37646857D01*
X65869813Y-39075428D02*
X65869813Y-38075428D01*
X65869813Y-37575428D02*
X65798385Y-37646857D01*
X65798385Y-37646857D02*
X65869813Y-37718285D01*
X65869813Y-37718285D02*
X65941242Y-37646857D01*
X65941242Y-37646857D02*
X65869813Y-37575428D01*
X65869813Y-37575428D02*
X65869813Y-37718285D01*
X66798385Y-39075428D02*
X66655528Y-39004000D01*
X66655528Y-39004000D02*
X66584099Y-38861142D01*
X66584099Y-38861142D02*
X66584099Y-37575428D01*
X67369813Y-39075428D02*
X67369813Y-37575428D01*
X67512671Y-38504000D02*
X67941242Y-39075428D01*
X67941242Y-38075428D02*
X67369813Y-38646857D01*
X68512671Y-39004000D02*
X68655528Y-39075428D01*
X68655528Y-39075428D02*
X68941242Y-39075428D01*
X68941242Y-39075428D02*
X69084099Y-39004000D01*
X69084099Y-39004000D02*
X69155528Y-38861142D01*
X69155528Y-38861142D02*
X69155528Y-38789714D01*
X69155528Y-38789714D02*
X69084099Y-38646857D01*
X69084099Y-38646857D02*
X68941242Y-38575428D01*
X68941242Y-38575428D02*
X68726957Y-38575428D01*
X68726957Y-38575428D02*
X68584099Y-38504000D01*
X68584099Y-38504000D02*
X68512671Y-38361142D01*
X68512671Y-38361142D02*
X68512671Y-38289714D01*
X68512671Y-38289714D02*
X68584099Y-38146857D01*
X68584099Y-38146857D02*
X68726957Y-38075428D01*
X68726957Y-38075428D02*
X68941242Y-38075428D01*
X68941242Y-38075428D02*
X69084099Y-38146857D01*
X70441243Y-39004000D02*
X70298385Y-39075428D01*
X70298385Y-39075428D02*
X70012671Y-39075428D01*
X70012671Y-39075428D02*
X69869814Y-39004000D01*
X69869814Y-39004000D02*
X69798385Y-38932571D01*
X69798385Y-38932571D02*
X69726957Y-38789714D01*
X69726957Y-38789714D02*
X69726957Y-38361142D01*
X69726957Y-38361142D02*
X69798385Y-38218285D01*
X69798385Y-38218285D02*
X69869814Y-38146857D01*
X69869814Y-38146857D02*
X70012671Y-38075428D01*
X70012671Y-38075428D02*
X70298385Y-38075428D01*
X70298385Y-38075428D02*
X70441243Y-38146857D01*
X71084099Y-39075428D02*
X71084099Y-38075428D01*
X71084099Y-38361142D02*
X71155528Y-38218285D01*
X71155528Y-38218285D02*
X71226957Y-38146857D01*
X71226957Y-38146857D02*
X71369814Y-38075428D01*
X71369814Y-38075428D02*
X71512671Y-38075428D01*
X72584099Y-39004000D02*
X72441242Y-39075428D01*
X72441242Y-39075428D02*
X72155528Y-39075428D01*
X72155528Y-39075428D02*
X72012670Y-39004000D01*
X72012670Y-39004000D02*
X71941242Y-38861142D01*
X71941242Y-38861142D02*
X71941242Y-38289714D01*
X71941242Y-38289714D02*
X72012670Y-38146857D01*
X72012670Y-38146857D02*
X72155528Y-38075428D01*
X72155528Y-38075428D02*
X72441242Y-38075428D01*
X72441242Y-38075428D02*
X72584099Y-38146857D01*
X72584099Y-38146857D02*
X72655528Y-38289714D01*
X72655528Y-38289714D02*
X72655528Y-38432571D01*
X72655528Y-38432571D02*
X71941242Y-38575428D01*
X73869813Y-39004000D02*
X73726956Y-39075428D01*
X73726956Y-39075428D02*
X73441242Y-39075428D01*
X73441242Y-39075428D02*
X73298384Y-39004000D01*
X73298384Y-39004000D02*
X73226956Y-38861142D01*
X73226956Y-38861142D02*
X73226956Y-38289714D01*
X73226956Y-38289714D02*
X73298384Y-38146857D01*
X73298384Y-38146857D02*
X73441242Y-38075428D01*
X73441242Y-38075428D02*
X73726956Y-38075428D01*
X73726956Y-38075428D02*
X73869813Y-38146857D01*
X73869813Y-38146857D02*
X73941242Y-38289714D01*
X73941242Y-38289714D02*
X73941242Y-38432571D01*
X73941242Y-38432571D02*
X73226956Y-38575428D01*
X74584098Y-38075428D02*
X74584098Y-39075428D01*
X74584098Y-38218285D02*
X74655527Y-38146857D01*
X74655527Y-38146857D02*
X74798384Y-38075428D01*
X74798384Y-38075428D02*
X75012670Y-38075428D01*
X75012670Y-38075428D02*
X75155527Y-38146857D01*
X75155527Y-38146857D02*
X75226956Y-38289714D01*
X75226956Y-38289714D02*
X75226956Y-39075428D01*
D11*
G36*
X46348625Y-25219218D02*
G01*
X46361174Y-25219985D01*
X46373476Y-25221263D01*
X46385531Y-25223053D01*
X46397339Y-25225355D01*
X46408899Y-25228167D01*
X46420212Y-25231491D01*
X46431278Y-25235327D01*
X46442096Y-25239673D01*
X46452668Y-25244531D01*
X46462991Y-25249901D01*
X46473068Y-25255782D01*
X46482897Y-25262174D01*
X46492479Y-25269078D01*
X46501814Y-25276493D01*
X46510901Y-25284419D01*
X46519585Y-25293013D01*
X46527708Y-25302429D01*
X46535271Y-25312668D01*
X46542274Y-25323730D01*
X46548717Y-25335615D01*
X46554599Y-25348322D01*
X46559921Y-25361853D01*
X46564683Y-25376206D01*
X46568885Y-25391382D01*
X46570776Y-25399278D01*
X46572527Y-25407380D01*
X46574137Y-25415688D01*
X46575608Y-25424202D01*
X46576938Y-25432921D01*
X46578129Y-25441846D01*
X46579179Y-25450977D01*
X46580090Y-25460313D01*
X46580860Y-25469855D01*
X46581490Y-25479603D01*
X46581981Y-25489556D01*
X46582331Y-25499716D01*
X46582541Y-25510080D01*
X46582611Y-25520651D01*
X46582611Y-25727378D01*
X46914000Y-25727378D01*
X46914000Y-25834063D01*
X46101159Y-25834063D01*
X46101159Y-25727378D01*
X46194949Y-25727378D01*
X46488822Y-25727378D01*
X46488822Y-25519088D01*
X46488668Y-25506402D01*
X46488208Y-25494184D01*
X46487441Y-25482435D01*
X46486367Y-25471155D01*
X46484986Y-25460344D01*
X46483299Y-25450001D01*
X46481304Y-25440126D01*
X46479003Y-25430721D01*
X46476395Y-25421784D01*
X46473480Y-25413315D01*
X46470258Y-25405316D01*
X46466730Y-25397785D01*
X46462894Y-25390722D01*
X46456566Y-25381007D01*
X46449547Y-25372347D01*
X46441903Y-25364595D01*
X46433700Y-25357605D01*
X46424936Y-25351378D01*
X46415613Y-25345914D01*
X46405730Y-25341212D01*
X46395286Y-25337272D01*
X46384284Y-25334095D01*
X46376637Y-25332400D01*
X46368742Y-25331045D01*
X46360598Y-25330028D01*
X46352205Y-25329350D01*
X46343564Y-25329012D01*
X46339150Y-25328969D01*
X46329608Y-25329194D01*
X46320328Y-25329869D01*
X46311308Y-25330994D01*
X46302550Y-25332569D01*
X46294052Y-25334593D01*
X46285816Y-25337068D01*
X46277841Y-25339993D01*
X46270127Y-25343367D01*
X46262673Y-25347192D01*
X46255481Y-25351466D01*
X46250831Y-25354566D01*
X46244162Y-25359473D01*
X46237928Y-25364668D01*
X46232131Y-25370152D01*
X46226770Y-25375925D01*
X46220301Y-25384070D01*
X46214607Y-25392729D01*
X46209689Y-25401900D01*
X46206509Y-25409115D01*
X46203765Y-25416619D01*
X46202178Y-25421782D01*
X46200095Y-25431319D01*
X46198683Y-25440550D01*
X46197773Y-25448407D01*
X46196989Y-25457064D01*
X46196332Y-25466521D01*
X46195803Y-25476779D01*
X46195400Y-25487837D01*
X46195203Y-25495654D01*
X46195062Y-25503826D01*
X46194977Y-25512354D01*
X46194949Y-25521237D01*
X46194949Y-25727378D01*
X46101159Y-25727378D01*
X46101159Y-25530030D01*
X46101190Y-25520163D01*
X46101281Y-25510591D01*
X46101434Y-25501314D01*
X46101648Y-25492331D01*
X46101923Y-25483643D01*
X46102258Y-25475249D01*
X46102655Y-25467150D01*
X46103113Y-25459346D01*
X46103915Y-25448192D01*
X46104853Y-25437701D01*
X46105930Y-25427873D01*
X46107143Y-25418707D01*
X46108494Y-25410205D01*
X46108975Y-25407518D01*
X46111002Y-25396550D01*
X46113344Y-25385923D01*
X46116002Y-25375635D01*
X46118977Y-25365688D01*
X46122267Y-25356081D01*
X46125874Y-25346813D01*
X46129796Y-25337886D01*
X46134034Y-25329299D01*
X46138589Y-25321052D01*
X46143459Y-25313145D01*
X46146882Y-25308062D01*
X46152318Y-25300689D01*
X46158150Y-25293591D01*
X46164376Y-25286767D01*
X46170997Y-25280218D01*
X46178014Y-25273944D01*
X46185425Y-25267945D01*
X46193232Y-25262221D01*
X46201433Y-25256771D01*
X46210030Y-25251596D01*
X46219021Y-25246696D01*
X46225235Y-25243582D01*
X46234740Y-25239182D01*
X46244423Y-25235215D01*
X46254285Y-25231681D01*
X46264326Y-25228579D01*
X46274545Y-25225911D01*
X46284943Y-25223675D01*
X46295519Y-25221871D01*
X46306274Y-25220501D01*
X46317208Y-25219563D01*
X46328320Y-25219058D01*
X46335828Y-25218962D01*
X46348625Y-25219218D01*
G37*
G36*
X46647872Y-25123805D02*
G01*
X46638884Y-25023373D01*
X46646685Y-25022396D01*
X46658054Y-25020655D01*
X46669024Y-25018585D01*
X46679596Y-25016186D01*
X46689769Y-25013456D01*
X46699544Y-25010397D01*
X46708921Y-25007008D01*
X46717899Y-25003290D01*
X46726479Y-24999241D01*
X46734660Y-24994863D01*
X46742443Y-24990156D01*
X46749891Y-24984994D01*
X46757068Y-24979327D01*
X46763974Y-24973156D01*
X46770608Y-24966479D01*
X46776970Y-24959298D01*
X46783062Y-24951612D01*
X46788882Y-24943421D01*
X46794430Y-24934725D01*
X46799708Y-24925524D01*
X46804714Y-24915818D01*
X46807900Y-24909067D01*
X46812335Y-24898617D01*
X46816334Y-24887930D01*
X46819896Y-24877006D01*
X46823022Y-24865845D01*
X46825712Y-24854447D01*
X46827263Y-24846717D01*
X46828620Y-24838881D01*
X46829783Y-24830940D01*
X46830753Y-24822894D01*
X46831528Y-24814742D01*
X46832110Y-24806486D01*
X46832497Y-24798123D01*
X46832691Y-24789656D01*
X46832715Y-24785382D01*
X46832556Y-24774077D01*
X46832077Y-24763023D01*
X46831278Y-24752219D01*
X46830160Y-24741666D01*
X46828723Y-24731364D01*
X46826966Y-24721312D01*
X46824890Y-24711511D01*
X46822494Y-24701961D01*
X46819779Y-24692662D01*
X46816744Y-24683613D01*
X46814544Y-24677720D01*
X46810981Y-24669140D01*
X46807182Y-24660986D01*
X46803146Y-24653258D01*
X46798873Y-24645956D01*
X46794362Y-24639080D01*
X46789615Y-24632630D01*
X46784631Y-24626605D01*
X46777616Y-24619235D01*
X46770181Y-24612623D01*
X46764327Y-24608160D01*
X46756228Y-24602802D01*
X46747951Y-24598158D01*
X46739497Y-24594229D01*
X46730866Y-24591014D01*
X46722058Y-24588513D01*
X46713073Y-24586727D01*
X46703911Y-24585656D01*
X46694572Y-24585299D01*
X46685196Y-24585644D01*
X46676119Y-24586679D01*
X46667342Y-24588404D01*
X46658863Y-24590819D01*
X46650684Y-24593923D01*
X46642804Y-24597718D01*
X46635224Y-24602203D01*
X46627942Y-24607378D01*
X46620908Y-24613298D01*
X46614167Y-24620115D01*
X46607719Y-24627830D01*
X46603075Y-24634206D01*
X46598596Y-24641086D01*
X46594283Y-24648471D01*
X46590133Y-24656361D01*
X46586149Y-24664756D01*
X46582330Y-24673656D01*
X46579875Y-24679869D01*
X46576480Y-24689206D01*
X46573646Y-24697819D01*
X46570564Y-24707812D01*
X46567234Y-24719187D01*
X46564877Y-24727537D01*
X46562410Y-24736501D01*
X46559834Y-24746078D01*
X46557147Y-24756269D01*
X46554350Y-24767074D01*
X46551444Y-24778492D01*
X46548427Y-24790524D01*
X46545301Y-24803170D01*
X46542065Y-24816429D01*
X46540406Y-24823289D01*
X46537047Y-24836902D01*
X46533713Y-24849997D01*
X46530404Y-24862572D01*
X46527119Y-24874629D01*
X46523858Y-24886166D01*
X46520622Y-24897185D01*
X46517410Y-24907684D01*
X46514223Y-24917664D01*
X46511060Y-24927126D01*
X46507921Y-24936068D01*
X46504807Y-24944491D01*
X46501718Y-24952396D01*
X46498652Y-24959781D01*
X46494100Y-24969886D01*
X46489603Y-24978823D01*
X46485712Y-24985913D01*
X46481708Y-24992775D01*
X46475490Y-25002638D01*
X46469018Y-25011986D01*
X46462292Y-25020819D01*
X46455311Y-25029137D01*
X46448077Y-25036939D01*
X46440588Y-25044226D01*
X46432845Y-25050998D01*
X46424848Y-25057255D01*
X46416597Y-25062997D01*
X46413790Y-25064796D01*
X46405231Y-25069859D01*
X46396479Y-25074425D01*
X46387536Y-25078492D01*
X46378399Y-25082061D01*
X46369071Y-25085132D01*
X46359550Y-25087705D01*
X46349837Y-25089780D01*
X46339931Y-25091358D01*
X46329833Y-25092437D01*
X46319543Y-25093018D01*
X46312576Y-25093128D01*
X46301108Y-25092824D01*
X46289783Y-25091912D01*
X46278604Y-25090393D01*
X46267568Y-25088265D01*
X46256677Y-25085529D01*
X46245930Y-25082185D01*
X46235327Y-25078234D01*
X46224868Y-25073674D01*
X46214554Y-25068507D01*
X46204384Y-25062732D01*
X46197684Y-25058544D01*
X46191093Y-25054072D01*
X46184703Y-25049354D01*
X46178514Y-25044388D01*
X46172527Y-25039175D01*
X46166742Y-25033715D01*
X46161158Y-25028007D01*
X46155775Y-25022052D01*
X46150594Y-25015850D01*
X46145615Y-25009400D01*
X46140837Y-25002704D01*
X46136260Y-24995759D01*
X46131885Y-24988568D01*
X46127712Y-24981129D01*
X46123740Y-24973443D01*
X46119969Y-24965510D01*
X46116400Y-24957329D01*
X46113040Y-24948966D01*
X46109897Y-24940486D01*
X46106971Y-24931888D01*
X46104261Y-24923172D01*
X46101768Y-24914339D01*
X46099492Y-24905388D01*
X46097433Y-24896320D01*
X46095591Y-24887134D01*
X46093965Y-24877831D01*
X46092556Y-24868410D01*
X46091364Y-24858871D01*
X46090388Y-24849215D01*
X46089630Y-24839442D01*
X46089088Y-24829551D01*
X46088762Y-24819542D01*
X46088654Y-24809416D01*
X46088768Y-24798312D01*
X46089109Y-24787373D01*
X46089678Y-24776599D01*
X46090474Y-24765989D01*
X46091497Y-24755545D01*
X46092748Y-24745265D01*
X46094227Y-24735151D01*
X46095933Y-24725201D01*
X46097866Y-24715416D01*
X46100027Y-24705796D01*
X46102415Y-24696341D01*
X46105031Y-24687050D01*
X46107874Y-24677925D01*
X46110944Y-24668964D01*
X46114242Y-24660168D01*
X46117768Y-24651537D01*
X46121490Y-24643112D01*
X46125428Y-24634935D01*
X46129581Y-24627005D01*
X46133949Y-24619322D01*
X46138532Y-24611886D01*
X46143331Y-24604698D01*
X46148345Y-24597757D01*
X46153574Y-24591063D01*
X46159018Y-24584616D01*
X46164678Y-24578417D01*
X46170553Y-24572465D01*
X46176643Y-24566761D01*
X46182948Y-24561303D01*
X46189468Y-24556093D01*
X46196204Y-24551131D01*
X46203155Y-24546415D01*
X46210272Y-24541933D01*
X46217504Y-24537717D01*
X46224853Y-24533769D01*
X46232318Y-24530088D01*
X46239898Y-24526673D01*
X46247595Y-24523527D01*
X46255408Y-24520647D01*
X46263337Y-24518034D01*
X46271381Y-24515689D01*
X46279542Y-24513610D01*
X46287819Y-24511799D01*
X46296212Y-24510255D01*
X46304720Y-24508978D01*
X46313345Y-24507968D01*
X46322086Y-24507226D01*
X46330943Y-24506750D01*
X46338759Y-24608941D01*
X46329235Y-24610121D01*
X46320007Y-24611610D01*
X46311075Y-24613406D01*
X46302440Y-24615511D01*
X46294100Y-24617925D01*
X46286057Y-24620647D01*
X46278310Y-24623677D01*
X46270859Y-24627015D01*
X46263704Y-24630662D01*
X46256846Y-24634617D01*
X46250283Y-24638881D01*
X46240995Y-24645854D01*
X46232373Y-24653522D01*
X46224417Y-24661883D01*
X46221913Y-24664824D01*
X46214859Y-24674125D01*
X46210542Y-24680769D01*
X46206534Y-24687766D01*
X46202833Y-24695118D01*
X46199441Y-24702824D01*
X46196358Y-24710884D01*
X46193583Y-24719298D01*
X46191116Y-24728066D01*
X46188957Y-24737189D01*
X46187107Y-24746665D01*
X46185565Y-24756496D01*
X46184332Y-24766681D01*
X46183407Y-24777220D01*
X46182790Y-24788113D01*
X46182482Y-24799361D01*
X46182443Y-24805117D01*
X46182583Y-24817003D01*
X46183002Y-24828479D01*
X46183700Y-24839546D01*
X46184678Y-24850204D01*
X46185935Y-24860453D01*
X46187472Y-24870293D01*
X46189287Y-24879724D01*
X46191383Y-24888746D01*
X46193757Y-24897359D01*
X46196411Y-24905562D01*
X46199344Y-24913356D01*
X46202557Y-24920742D01*
X46207899Y-24931053D01*
X46213871Y-24940443D01*
X46218200Y-24946192D01*
X46224999Y-24954084D01*
X46232058Y-24961199D01*
X46239379Y-24967538D01*
X46246960Y-24973101D01*
X46254803Y-24977888D01*
X46262906Y-24981899D01*
X46271271Y-24985133D01*
X46279896Y-24987591D01*
X46288783Y-24989273D01*
X46297931Y-24990178D01*
X46304174Y-24990351D01*
X46312243Y-24990074D01*
X46320038Y-24989245D01*
X46330003Y-24987279D01*
X46339479Y-24984330D01*
X46348467Y-24980397D01*
X46356967Y-24975482D01*
X46364978Y-24969583D01*
X46372501Y-24962702D01*
X46376079Y-24958892D01*
X46381368Y-24952268D01*
X46386685Y-24943899D01*
X46392030Y-24933785D01*
X46395608Y-24926073D01*
X46399198Y-24917586D01*
X46402801Y-24908323D01*
X46406416Y-24898284D01*
X46410043Y-24887471D01*
X46413682Y-24875881D01*
X46417333Y-24863516D01*
X46420997Y-24850376D01*
X46424673Y-24836460D01*
X46428361Y-24821769D01*
X46430209Y-24814133D01*
X46432061Y-24806303D01*
X46433916Y-24798278D01*
X46435753Y-24790237D01*
X46437576Y-24782355D01*
X46439384Y-24774631D01*
X46442959Y-24759662D01*
X46446478Y-24745330D01*
X46449940Y-24731634D01*
X46453346Y-24718574D01*
X46456695Y-24706152D01*
X46459988Y-24694365D01*
X46463224Y-24683216D01*
X46466404Y-24672703D01*
X46469527Y-24662826D01*
X46472594Y-24653586D01*
X46475604Y-24644983D01*
X46478558Y-24637016D01*
X46481455Y-24629685D01*
X46485695Y-24619883D01*
X46489842Y-24611235D01*
X46494125Y-24602875D01*
X46498543Y-24594803D01*
X46503098Y-24587021D01*
X46507788Y-24579526D01*
X46512614Y-24572320D01*
X46517576Y-24565403D01*
X46522674Y-24558774D01*
X46527907Y-24552433D01*
X46533277Y-24546382D01*
X46538782Y-24540618D01*
X46544423Y-24535143D01*
X46553140Y-24527472D01*
X46562162Y-24520450D01*
X46568347Y-24516129D01*
X46577860Y-24510123D01*
X46587641Y-24504708D01*
X46597689Y-24499883D01*
X46608006Y-24495649D01*
X46618590Y-24492006D01*
X46629443Y-24488954D01*
X46640563Y-24486492D01*
X46651951Y-24484622D01*
X46663607Y-24483342D01*
X46671527Y-24482817D01*
X46679566Y-24482554D01*
X46683630Y-24482521D01*
X46691685Y-24482665D01*
X46699683Y-24483098D01*
X46707622Y-24483820D01*
X46715503Y-24484829D01*
X46723327Y-24486128D01*
X46731092Y-24487714D01*
X46738800Y-24489590D01*
X46746449Y-24491754D01*
X46754040Y-24494206D01*
X46761574Y-24496947D01*
X46769049Y-24499976D01*
X46776466Y-24503294D01*
X46783826Y-24506900D01*
X46791127Y-24510795D01*
X46798370Y-24514979D01*
X46805556Y-24519451D01*
X46812613Y-24524168D01*
X46819471Y-24529138D01*
X46826132Y-24534359D01*
X46832593Y-24539833D01*
X46838857Y-24545558D01*
X46844922Y-24551535D01*
X46850788Y-24557764D01*
X46856456Y-24564245D01*
X46861925Y-24570978D01*
X46867196Y-24577962D01*
X46872269Y-24585199D01*
X46877143Y-24592687D01*
X46881819Y-24600427D01*
X46886296Y-24608419D01*
X46890575Y-24616663D01*
X46894655Y-24625159D01*
X46898512Y-24633848D01*
X46902120Y-24642671D01*
X46905479Y-24651629D01*
X46908590Y-24660721D01*
X46911451Y-24669947D01*
X46914064Y-24679308D01*
X46916427Y-24688803D01*
X46918542Y-24698432D01*
X46920409Y-24708196D01*
X46922026Y-24718093D01*
X46923394Y-24728126D01*
X46924514Y-24738292D01*
X46925385Y-24748593D01*
X46926007Y-24759029D01*
X46926380Y-24769598D01*
X46926505Y-24780302D01*
X46926377Y-24793842D01*
X46925995Y-24807105D01*
X46925358Y-24820092D01*
X46924465Y-24832802D01*
X46923318Y-24845236D01*
X46921916Y-24857394D01*
X46920259Y-24869276D01*
X46918347Y-24880881D01*
X46916180Y-24892210D01*
X46913758Y-24903263D01*
X46911082Y-24914040D01*
X46908150Y-24924540D01*
X46904963Y-24934764D01*
X46901522Y-24944711D01*
X46897825Y-24954382D01*
X46893874Y-24963777D01*
X46889668Y-24972885D01*
X46885206Y-24981744D01*
X46880490Y-24990355D01*
X46875519Y-24998716D01*
X46870293Y-25006829D01*
X46864812Y-25014693D01*
X46859076Y-25022308D01*
X46853085Y-25029674D01*
X46846840Y-25036791D01*
X46840339Y-25043660D01*
X46833583Y-25050280D01*
X46826573Y-25056651D01*
X46819307Y-25062773D01*
X46811787Y-25068646D01*
X46804012Y-25074271D01*
X46795981Y-25079646D01*
X46787732Y-25084742D01*
X46779348Y-25089526D01*
X46770830Y-25093998D01*
X46762178Y-25098160D01*
X46753392Y-25102010D01*
X46744471Y-25105548D01*
X46735415Y-25108775D01*
X46726226Y-25111691D01*
X46716902Y-25114295D01*
X46707443Y-25116588D01*
X46697851Y-25118569D01*
X46688124Y-25120239D01*
X46678262Y-25121598D01*
X46668267Y-25122645D01*
X46658137Y-25123381D01*
X46647872Y-25123805D01*
G37*
G36*
X46524234Y-23603245D02*
G01*
X46539319Y-23603827D01*
X46554202Y-23604796D01*
X46568884Y-23606153D01*
X46583365Y-23607898D01*
X46597644Y-23610031D01*
X46611721Y-23612551D01*
X46625598Y-23615459D01*
X46639272Y-23618755D01*
X46652745Y-23622438D01*
X46666017Y-23626510D01*
X46679087Y-23630969D01*
X46691955Y-23635815D01*
X46704622Y-23641050D01*
X46717088Y-23646672D01*
X46729352Y-23652682D01*
X46741307Y-23659022D01*
X46752894Y-23665685D01*
X46764113Y-23672669D01*
X46774964Y-23679976D01*
X46785448Y-23687605D01*
X46795563Y-23695556D01*
X46805311Y-23703828D01*
X46814690Y-23712424D01*
X46823702Y-23721341D01*
X46832346Y-23730580D01*
X46840622Y-23740141D01*
X46848530Y-23750025D01*
X46856070Y-23760230D01*
X46863243Y-23770758D01*
X46870047Y-23781608D01*
X46876484Y-23792779D01*
X46882541Y-23804168D01*
X46888207Y-23815668D01*
X46893483Y-23827279D01*
X46898368Y-23839002D01*
X46902862Y-23850837D01*
X46906965Y-23862782D01*
X46910678Y-23874840D01*
X46914000Y-23887008D01*
X46916930Y-23899288D01*
X46919471Y-23911680D01*
X46921620Y-23924183D01*
X46923378Y-23936797D01*
X46924746Y-23949523D01*
X46925723Y-23962360D01*
X46926309Y-23975309D01*
X46926505Y-23988369D01*
X46926289Y-24002490D01*
X46925644Y-24016423D01*
X46924568Y-24030169D01*
X46923061Y-24043727D01*
X46921124Y-24057097D01*
X46918756Y-24070279D01*
X46915958Y-24083273D01*
X46912729Y-24096080D01*
X46909070Y-24108699D01*
X46904981Y-24121130D01*
X46900461Y-24133374D01*
X46895510Y-24145429D01*
X46890129Y-24157297D01*
X46884318Y-24168978D01*
X46878076Y-24180470D01*
X46871404Y-24191775D01*
X46864334Y-24202792D01*
X46856950Y-24213472D01*
X46849252Y-24223815D01*
X46841240Y-24233821D01*
X46832912Y-24243489D01*
X46824271Y-24252820D01*
X46815315Y-24261813D01*
X46806044Y-24270470D01*
X46796459Y-24278788D01*
X46786560Y-24286770D01*
X46776346Y-24294414D01*
X46765817Y-24301720D01*
X46754975Y-24308690D01*
X46743817Y-24315322D01*
X46732345Y-24321616D01*
X46720559Y-24327574D01*
X46708572Y-24333158D01*
X46696498Y-24338381D01*
X46684337Y-24343245D01*
X46672089Y-24347748D01*
X46659754Y-24351891D01*
X46647332Y-24355674D01*
X46634823Y-24359096D01*
X46622227Y-24362158D01*
X46609544Y-24364860D01*
X46596774Y-24367202D01*
X46583917Y-24369183D01*
X46570973Y-24370805D01*
X46557942Y-24372065D01*
X46544823Y-24372966D01*
X46531618Y-24373506D01*
X46518326Y-24373687D01*
X46505809Y-24373581D01*
X46493463Y-24373266D01*
X46481288Y-24372740D01*
X46469285Y-24372004D01*
X46457453Y-24371058D01*
X46445793Y-24369902D01*
X46434304Y-24368535D01*
X46422986Y-24366958D01*
X46411839Y-24365170D01*
X46400864Y-24363173D01*
X46390061Y-24360965D01*
X46379428Y-24358547D01*
X46368967Y-24355918D01*
X46358678Y-24353079D01*
X46348559Y-24350030D01*
X46338612Y-24346771D01*
X46328837Y-24343301D01*
X46319232Y-24339622D01*
X46309799Y-24335731D01*
X46300538Y-24331631D01*
X46291448Y-24327320D01*
X46282529Y-24322799D01*
X46273781Y-24318068D01*
X46265205Y-24313127D01*
X46256800Y-24307975D01*
X46248567Y-24302613D01*
X46240505Y-24297040D01*
X46232614Y-24291258D01*
X46224894Y-24285265D01*
X46217346Y-24279062D01*
X46209970Y-24272648D01*
X46202764Y-24266024D01*
X46195744Y-24259222D01*
X46188946Y-24252298D01*
X46182372Y-24245252D01*
X46176020Y-24238083D01*
X46169891Y-24230792D01*
X46163985Y-24223380D01*
X46158301Y-24215845D01*
X46152841Y-24208188D01*
X46147604Y-24200409D01*
X46142589Y-24192507D01*
X46137797Y-24184484D01*
X46133228Y-24176338D01*
X46128882Y-24168071D01*
X46124759Y-24159681D01*
X46120859Y-24151169D01*
X46117182Y-24142535D01*
X46113727Y-24133779D01*
X46110495Y-24124901D01*
X46107487Y-24115900D01*
X46104701Y-24106778D01*
X46102138Y-24097533D01*
X46099798Y-24088167D01*
X46097680Y-24078678D01*
X46095786Y-24069067D01*
X46094114Y-24059334D01*
X46092666Y-24049479D01*
X46091440Y-24039501D01*
X46090437Y-24029402D01*
X46089657Y-24019180D01*
X46089100Y-24008837D01*
X46088766Y-23998371D01*
X46088654Y-23987783D01*
X46088663Y-23987197D01*
X46179317Y-23987197D01*
X46179624Y-24001239D01*
X46180544Y-24015034D01*
X46182078Y-24028582D01*
X46184226Y-24041883D01*
X46186988Y-24054936D01*
X46190363Y-24067742D01*
X46194352Y-24080301D01*
X46198954Y-24092612D01*
X46204170Y-24104676D01*
X46210000Y-24116493D01*
X46216443Y-24128062D01*
X46223501Y-24139384D01*
X46231171Y-24150459D01*
X46239456Y-24161287D01*
X46248354Y-24171867D01*
X46257866Y-24182200D01*
X46268070Y-24192067D01*
X46279096Y-24201297D01*
X46290944Y-24209890D01*
X46303612Y-24217847D01*
X46317102Y-24225168D01*
X46324155Y-24228589D01*
X46331413Y-24231852D01*
X46338877Y-24234955D01*
X46346546Y-24237899D01*
X46354420Y-24240684D01*
X46362499Y-24243310D01*
X46370784Y-24245776D01*
X46379274Y-24248084D01*
X46387969Y-24250232D01*
X46396870Y-24252222D01*
X46405976Y-24254052D01*
X46415288Y-24255723D01*
X46424804Y-24257234D01*
X46434526Y-24258587D01*
X46444454Y-24259781D01*
X46454586Y-24260815D01*
X46464924Y-24261690D01*
X46475468Y-24262407D01*
X46486216Y-24262964D01*
X46497170Y-24263361D01*
X46508329Y-24263600D01*
X46519694Y-24263680D01*
X46528817Y-24263603D01*
X46537817Y-24263374D01*
X46546697Y-24262991D01*
X46555454Y-24262455D01*
X46564090Y-24261767D01*
X46572604Y-24260925D01*
X46580996Y-24259930D01*
X46589266Y-24258783D01*
X46597415Y-24257482D01*
X46605442Y-24256028D01*
X46613347Y-24254421D01*
X46621131Y-24252661D01*
X46628793Y-24250748D01*
X46636333Y-24248682D01*
X46651048Y-24244091D01*
X46665276Y-24238888D01*
X46679017Y-24233073D01*
X46692271Y-24226646D01*
X46705038Y-24219606D01*
X46717318Y-24211954D01*
X46729111Y-24203691D01*
X46740417Y-24194815D01*
X46751236Y-24185327D01*
X46761481Y-24175377D01*
X46771066Y-24165118D01*
X46779989Y-24154550D01*
X46788251Y-24143671D01*
X46795852Y-24132482D01*
X46802793Y-24120984D01*
X46809072Y-24109175D01*
X46814690Y-24097057D01*
X46819648Y-24084629D01*
X46823944Y-24071891D01*
X46827580Y-24058843D01*
X46830554Y-24045485D01*
X46832867Y-24031818D01*
X46834520Y-24017840D01*
X46835511Y-24003553D01*
X46835842Y-23988955D01*
X46835508Y-23974076D01*
X46834508Y-23959530D01*
X46832840Y-23945317D01*
X46830505Y-23931436D01*
X46827503Y-23917888D01*
X46823834Y-23904673D01*
X46819498Y-23891791D01*
X46814495Y-23879241D01*
X46808825Y-23867025D01*
X46802487Y-23855141D01*
X46795483Y-23843590D01*
X46787811Y-23832371D01*
X46779473Y-23821486D01*
X46770467Y-23810933D01*
X46760794Y-23800713D01*
X46750454Y-23790825D01*
X46739502Y-23781408D01*
X46727990Y-23772599D01*
X46715920Y-23764397D01*
X46703291Y-23756802D01*
X46690104Y-23749816D01*
X46676357Y-23743436D01*
X46662052Y-23737664D01*
X46654690Y-23735006D01*
X46647189Y-23732500D01*
X46639547Y-23730146D01*
X46631766Y-23727944D01*
X46623845Y-23725893D01*
X46615785Y-23723995D01*
X46607585Y-23722248D01*
X46599245Y-23720653D01*
X46590766Y-23719210D01*
X46582147Y-23717919D01*
X46573388Y-23716780D01*
X46564490Y-23715793D01*
X46555451Y-23714957D01*
X46546274Y-23714274D01*
X46536956Y-23713742D01*
X46527499Y-23713362D01*
X46517902Y-23713135D01*
X46508166Y-23713059D01*
X46495857Y-23713188D01*
X46483744Y-23713578D01*
X46471829Y-23714226D01*
X46460111Y-23715135D01*
X46448589Y-23716302D01*
X46437265Y-23717730D01*
X46426137Y-23719417D01*
X46415207Y-23721363D01*
X46404473Y-23723569D01*
X46393936Y-23726034D01*
X46383596Y-23728759D01*
X46373453Y-23731743D01*
X46363507Y-23734987D01*
X46353758Y-23738490D01*
X46344206Y-23742253D01*
X46334851Y-23746276D01*
X46325725Y-23750548D01*
X46316859Y-23755062D01*
X46308255Y-23759817D01*
X46299912Y-23764814D01*
X46291830Y-23770051D01*
X46284009Y-23775530D01*
X46276449Y-23781250D01*
X46269150Y-23787211D01*
X46262112Y-23793413D01*
X46255335Y-23799856D01*
X46248819Y-23806541D01*
X46242564Y-23813467D01*
X46236570Y-23820634D01*
X46230837Y-23828042D01*
X46225365Y-23835691D01*
X46220154Y-23843582D01*
X46215209Y-23851653D01*
X46210583Y-23859845D01*
X46206276Y-23868158D01*
X46202288Y-23876591D01*
X46198619Y-23885145D01*
X46195269Y-23893820D01*
X46192238Y-23902615D01*
X46189526Y-23911530D01*
X46187134Y-23920567D01*
X46185060Y-23929723D01*
X46183305Y-23939001D01*
X46181869Y-23948399D01*
X46180753Y-23957917D01*
X46179955Y-23967557D01*
X46179477Y-23977316D01*
X46179317Y-23987197D01*
X46088663Y-23987197D01*
X46088863Y-23973923D01*
X46089491Y-23960235D01*
X46090536Y-23946720D01*
X46092000Y-23933378D01*
X46093882Y-23920208D01*
X46096183Y-23907210D01*
X46098902Y-23894385D01*
X46102039Y-23881733D01*
X46105594Y-23869253D01*
X46109567Y-23856945D01*
X46113959Y-23844810D01*
X46118769Y-23832847D01*
X46123998Y-23821057D01*
X46129644Y-23809440D01*
X46135709Y-23797995D01*
X46142192Y-23786722D01*
X46149050Y-23775679D01*
X46156239Y-23764969D01*
X46163760Y-23754594D01*
X46171611Y-23744554D01*
X46179794Y-23734847D01*
X46188308Y-23725475D01*
X46197154Y-23716438D01*
X46206330Y-23707734D01*
X46215838Y-23699365D01*
X46225677Y-23691330D01*
X46235848Y-23683630D01*
X46246349Y-23676263D01*
X46257182Y-23669231D01*
X46268347Y-23662534D01*
X46279842Y-23656171D01*
X46291669Y-23650142D01*
X46303737Y-23644439D01*
X46316008Y-23639105D01*
X46328479Y-23634138D01*
X46341152Y-23629540D01*
X46354027Y-23625309D01*
X46367103Y-23621446D01*
X46380381Y-23617951D01*
X46393860Y-23614824D01*
X46407541Y-23612065D01*
X46421423Y-23609674D01*
X46435506Y-23607650D01*
X46449792Y-23605995D01*
X46464278Y-23604707D01*
X46478966Y-23603787D01*
X46493856Y-23603236D01*
X46508947Y-23603052D01*
X46524234Y-23603245D01*
G37*
G36*
X46626379Y-22895724D02*
G01*
X46653344Y-22789039D01*
X46661610Y-22791192D01*
X46669754Y-22793449D01*
X46677773Y-22795811D01*
X46685669Y-22798278D01*
X46693441Y-22800849D01*
X46701090Y-22803524D01*
X46708615Y-22806304D01*
X46716016Y-22809189D01*
X46723294Y-22812178D01*
X46737478Y-22818471D01*
X46751168Y-22825181D01*
X46764363Y-22832310D01*
X46777064Y-22839857D01*
X46789270Y-22847823D01*
X46800981Y-22856206D01*
X46812198Y-22865008D01*
X46822921Y-22874228D01*
X46833148Y-22883867D01*
X46842881Y-22893923D01*
X46852120Y-22904398D01*
X46856554Y-22909793D01*
X46865024Y-22920813D01*
X46872948Y-22932138D01*
X46880326Y-22943766D01*
X46887157Y-22955698D01*
X46893442Y-22967934D01*
X46899180Y-22980474D01*
X46904372Y-22993317D01*
X46909017Y-23006464D01*
X46913116Y-23019915D01*
X46916668Y-23033670D01*
X46919674Y-23047728D01*
X46922133Y-23062090D01*
X46924046Y-23076756D01*
X46925412Y-23091726D01*
X46926231Y-23107000D01*
X46926505Y-23122577D01*
X46926453Y-23130675D01*
X46926296Y-23138678D01*
X46926036Y-23146586D01*
X46925671Y-23154399D01*
X46924629Y-23169740D01*
X46923171Y-23184700D01*
X46921295Y-23199281D01*
X46919003Y-23213481D01*
X46916295Y-23227302D01*
X46913169Y-23240742D01*
X46909627Y-23253802D01*
X46905668Y-23266482D01*
X46901292Y-23278782D01*
X46896500Y-23290702D01*
X46891290Y-23302241D01*
X46885664Y-23313401D01*
X46879622Y-23324180D01*
X46873162Y-23334580D01*
X46866308Y-23344613D01*
X46859081Y-23354342D01*
X46851482Y-23363768D01*
X46843511Y-23372889D01*
X46835167Y-23381707D01*
X46826451Y-23390221D01*
X46817362Y-23398432D01*
X46807900Y-23406338D01*
X46798067Y-23413941D01*
X46787860Y-23421240D01*
X46777282Y-23428236D01*
X46766330Y-23434927D01*
X46755007Y-23441315D01*
X46743310Y-23447399D01*
X46731242Y-23453179D01*
X46718801Y-23458655D01*
X46706091Y-23463813D01*
X46693265Y-23468639D01*
X46680323Y-23473131D01*
X46667265Y-23477291D01*
X46654092Y-23481118D01*
X46640802Y-23484612D01*
X46627396Y-23487774D01*
X46613874Y-23490602D01*
X46600236Y-23493098D01*
X46586482Y-23495261D01*
X46572612Y-23497091D01*
X46558626Y-23498589D01*
X46544524Y-23499754D01*
X46530306Y-23500586D01*
X46515972Y-23501085D01*
X46501522Y-23501251D01*
X46493640Y-23501204D01*
X46485822Y-23501063D01*
X46470375Y-23500500D01*
X46455182Y-23499561D01*
X46440242Y-23498247D01*
X46425555Y-23496557D01*
X46411122Y-23494492D01*
X46396942Y-23492051D01*
X46383016Y-23489234D01*
X46369343Y-23486042D01*
X46355923Y-23482475D01*
X46342757Y-23478532D01*
X46329844Y-23474213D01*
X46317184Y-23469519D01*
X46304778Y-23464450D01*
X46292626Y-23459005D01*
X46280727Y-23453184D01*
X46269131Y-23447017D01*
X46257890Y-23440532D01*
X46247003Y-23433730D01*
X46236470Y-23426611D01*
X46226291Y-23419173D01*
X46216466Y-23411419D01*
X46206996Y-23403346D01*
X46197879Y-23394957D01*
X46189117Y-23386249D01*
X46180709Y-23377225D01*
X46172655Y-23367882D01*
X46164956Y-23358223D01*
X46157610Y-23348245D01*
X46150618Y-23337950D01*
X46143981Y-23327338D01*
X46137698Y-23316408D01*
X46131759Y-23305226D01*
X46126203Y-23293907D01*
X46121031Y-23282451D01*
X46116241Y-23270857D01*
X46111835Y-23259126D01*
X46107812Y-23247257D01*
X46104172Y-23235251D01*
X46100915Y-23223107D01*
X46098041Y-23210827D01*
X46095551Y-23198408D01*
X46093444Y-23185853D01*
X46091719Y-23173160D01*
X46090378Y-23160329D01*
X46089420Y-23147362D01*
X46088846Y-23134256D01*
X46088654Y-23121014D01*
X46088898Y-23106046D01*
X46089628Y-23091378D01*
X46090845Y-23077011D01*
X46092550Y-23062945D01*
X46094741Y-23049180D01*
X46097419Y-23035715D01*
X46100585Y-23022551D01*
X46104237Y-23009688D01*
X46108376Y-22997126D01*
X46113002Y-22984864D01*
X46118115Y-22972903D01*
X46123715Y-22961242D01*
X46129802Y-22949883D01*
X46136376Y-22938824D01*
X46143437Y-22928066D01*
X46150985Y-22917608D01*
X46158975Y-22907497D01*
X46167361Y-22897776D01*
X46176145Y-22888446D01*
X46185325Y-22879507D01*
X46194903Y-22870958D01*
X46204877Y-22862800D01*
X46215248Y-22855033D01*
X46226016Y-22847657D01*
X46237181Y-22840672D01*
X46248743Y-22834077D01*
X46260702Y-22827874D01*
X46273057Y-22822061D01*
X46285810Y-22816638D01*
X46298959Y-22811607D01*
X46312506Y-22806966D01*
X46326449Y-22802717D01*
X46351264Y-22907839D01*
X46340220Y-22911431D01*
X46329557Y-22915221D01*
X46319276Y-22919210D01*
X46309376Y-22923397D01*
X46299858Y-22927783D01*
X46290722Y-22932367D01*
X46281968Y-22937149D01*
X46273595Y-22942130D01*
X46265603Y-22947310D01*
X46257994Y-22952688D01*
X46250766Y-22958264D01*
X46243919Y-22964039D01*
X46237454Y-22970012D01*
X46231371Y-22976184D01*
X46225670Y-22982554D01*
X46220350Y-22989123D01*
X46215381Y-22995897D01*
X46210733Y-23002886D01*
X46206405Y-23010088D01*
X46202398Y-23017504D01*
X46198711Y-23025133D01*
X46195345Y-23032977D01*
X46192300Y-23041034D01*
X46189575Y-23049304D01*
X46187171Y-23057789D01*
X46185087Y-23066487D01*
X46183324Y-23075398D01*
X46181882Y-23084524D01*
X46180760Y-23093863D01*
X46179958Y-23103416D01*
X46179477Y-23113183D01*
X46179317Y-23123163D01*
X46179493Y-23134646D01*
X46180019Y-23145893D01*
X46180897Y-23156903D01*
X46182126Y-23167676D01*
X46183706Y-23178213D01*
X46185637Y-23188513D01*
X46187919Y-23198577D01*
X46190552Y-23208404D01*
X46193537Y-23217994D01*
X46196872Y-23227348D01*
X46200559Y-23236465D01*
X46204596Y-23245346D01*
X46208985Y-23253990D01*
X46213725Y-23262397D01*
X46218816Y-23270568D01*
X46224258Y-23278502D01*
X46229995Y-23286149D01*
X46235972Y-23293507D01*
X46242189Y-23300577D01*
X46248645Y-23307359D01*
X46255341Y-23313852D01*
X46262277Y-23320057D01*
X46269453Y-23325973D01*
X46276868Y-23331600D01*
X46284522Y-23336939D01*
X46292417Y-23341990D01*
X46300551Y-23346752D01*
X46308924Y-23351225D01*
X46317538Y-23355410D01*
X46326391Y-23359306D01*
X46335484Y-23362914D01*
X46344816Y-23366234D01*
X46354287Y-23369286D01*
X46363797Y-23372141D01*
X46373344Y-23374800D01*
X46382930Y-23377261D01*
X46392554Y-23379526D01*
X46402216Y-23381594D01*
X46411916Y-23383464D01*
X46421655Y-23385138D01*
X46431431Y-23386615D01*
X46441246Y-23387895D01*
X46451099Y-23388978D01*
X46460990Y-23389864D01*
X46470919Y-23390553D01*
X46480887Y-23391046D01*
X46490892Y-23391341D01*
X46500936Y-23391440D01*
X46513802Y-23391323D01*
X46526462Y-23390972D01*
X46538917Y-23390389D01*
X46551165Y-23389571D01*
X46563206Y-23388520D01*
X46575042Y-23387236D01*
X46586672Y-23385717D01*
X46598096Y-23383966D01*
X46609313Y-23381981D01*
X46620325Y-23379762D01*
X46631130Y-23377309D01*
X46641730Y-23374623D01*
X46652123Y-23371704D01*
X46662310Y-23368551D01*
X46672291Y-23365164D01*
X46682066Y-23361544D01*
X46691562Y-23357654D01*
X46700754Y-23353506D01*
X46709642Y-23349099D01*
X46718227Y-23344435D01*
X46726507Y-23339513D01*
X46734484Y-23334333D01*
X46742157Y-23328894D01*
X46749526Y-23323198D01*
X46756592Y-23317244D01*
X46763354Y-23311032D01*
X46769811Y-23304562D01*
X46775966Y-23297834D01*
X46781816Y-23290847D01*
X46787363Y-23283603D01*
X46792605Y-23276101D01*
X46797545Y-23268341D01*
X46802182Y-23260387D01*
X46806520Y-23252352D01*
X46810560Y-23244237D01*
X46814300Y-23236040D01*
X46817740Y-23227763D01*
X46820882Y-23219404D01*
X46823724Y-23210965D01*
X46826267Y-23202444D01*
X46828511Y-23193843D01*
X46830456Y-23185161D01*
X46832102Y-23176398D01*
X46833448Y-23167554D01*
X46834495Y-23158630D01*
X46835243Y-23149624D01*
X46835692Y-23140537D01*
X46835842Y-23131370D01*
X46835636Y-23120290D01*
X46835017Y-23109425D01*
X46833987Y-23098773D01*
X46832545Y-23088334D01*
X46830690Y-23078110D01*
X46828423Y-23068099D01*
X46825744Y-23058301D01*
X46822653Y-23048718D01*
X46819149Y-23039348D01*
X46815234Y-23030192D01*
X46810906Y-23021250D01*
X46806166Y-23012521D01*
X46801014Y-23004006D01*
X46795450Y-22995705D01*
X46789474Y-22987618D01*
X46783085Y-22979744D01*
X46776291Y-22972134D01*
X46769096Y-22964839D01*
X46761502Y-22957858D01*
X46753508Y-22951192D01*
X46745113Y-22944840D01*
X46736319Y-22938803D01*
X46727125Y-22933080D01*
X46717531Y-22927671D01*
X46707536Y-22922577D01*
X46697142Y-22917798D01*
X46686348Y-22913333D01*
X46675154Y-22909182D01*
X46663561Y-22905346D01*
X46651567Y-22901824D01*
X46639173Y-22898617D01*
X46626379Y-22895724D01*
G37*
G36*
X54494000Y-25117012D02*
G01*
X53681159Y-25117012D01*
X53681159Y-25010326D01*
X54494000Y-25010326D01*
X54494000Y-25117012D01*
G37*
G36*
X54227872Y-24860264D02*
G01*
X54218884Y-24759831D01*
X54226685Y-24758854D01*
X54238054Y-24757114D01*
X54249024Y-24755044D01*
X54259596Y-24752644D01*
X54269769Y-24749915D01*
X54279544Y-24746856D01*
X54288921Y-24743467D01*
X54297899Y-24739748D01*
X54306479Y-24735700D01*
X54314660Y-24731322D01*
X54322443Y-24726614D01*
X54329891Y-24721452D01*
X54337068Y-24715786D01*
X54343974Y-24709614D01*
X54350608Y-24702938D01*
X54356970Y-24695756D01*
X54363062Y-24688070D01*
X54368882Y-24679879D01*
X54374430Y-24671183D01*
X54379708Y-24661982D01*
X54384714Y-24652276D01*
X54387900Y-24645525D01*
X54392335Y-24635075D01*
X54396334Y-24624388D01*
X54399896Y-24613464D01*
X54403022Y-24602304D01*
X54405712Y-24590906D01*
X54407263Y-24583175D01*
X54408620Y-24575340D01*
X54409783Y-24567399D01*
X54410753Y-24559352D01*
X54411528Y-24551201D01*
X54412110Y-24542944D01*
X54412497Y-24534582D01*
X54412691Y-24526114D01*
X54412715Y-24521841D01*
X54412556Y-24510536D01*
X54412077Y-24499481D01*
X54411278Y-24488677D01*
X54410160Y-24478124D01*
X54408723Y-24467822D01*
X54406966Y-24457771D01*
X54404890Y-24447970D01*
X54402494Y-24438420D01*
X54399779Y-24429120D01*
X54396744Y-24420072D01*
X54394544Y-24414179D01*
X54390981Y-24405599D01*
X54387182Y-24397445D01*
X54383146Y-24389717D01*
X54378873Y-24382415D01*
X54374362Y-24375539D01*
X54369615Y-24369088D01*
X54364631Y-24363064D01*
X54357616Y-24355694D01*
X54350181Y-24349081D01*
X54344327Y-24344618D01*
X54336228Y-24339260D01*
X54327951Y-24334616D01*
X54319497Y-24330687D01*
X54310866Y-24327472D01*
X54302058Y-24324972D01*
X54293073Y-24323186D01*
X54283911Y-24322114D01*
X54274572Y-24321757D01*
X54265196Y-24322102D01*
X54256119Y-24323137D01*
X54247342Y-24324862D01*
X54238863Y-24327277D01*
X54230684Y-24330382D01*
X54222804Y-24334177D01*
X54215224Y-24338662D01*
X54207942Y-24343837D01*
X54200908Y-24349756D01*
X54194167Y-24356574D01*
X54187719Y-24364289D01*
X54183075Y-24370664D01*
X54178596Y-24377544D01*
X54174283Y-24384930D01*
X54170133Y-24392820D01*
X54166149Y-24401214D01*
X54162330Y-24410114D01*
X54159875Y-24416328D01*
X54156480Y-24425664D01*
X54153646Y-24434277D01*
X54150564Y-24444271D01*
X54147234Y-24455645D01*
X54144877Y-24463995D01*
X54142410Y-24472959D01*
X54139834Y-24482536D01*
X54137147Y-24492727D01*
X54134350Y-24503532D01*
X54131444Y-24514950D01*
X54128427Y-24526982D01*
X54125301Y-24539628D01*
X54122065Y-24552888D01*
X54120406Y-24559747D01*
X54117047Y-24573361D01*
X54113713Y-24586455D01*
X54110404Y-24599031D01*
X54107119Y-24611087D01*
X54103858Y-24622625D01*
X54100622Y-24633643D01*
X54097410Y-24644142D01*
X54094223Y-24654123D01*
X54091060Y-24663584D01*
X54087921Y-24672526D01*
X54084807Y-24680950D01*
X54081718Y-24688854D01*
X54078652Y-24696239D01*
X54074100Y-24706344D01*
X54069603Y-24715281D01*
X54065712Y-24722372D01*
X54061708Y-24729234D01*
X54055490Y-24739097D01*
X54049018Y-24748445D01*
X54042292Y-24757278D01*
X54035311Y-24765595D01*
X54028077Y-24773398D01*
X54020588Y-24780685D01*
X54012845Y-24787457D01*
X54004848Y-24793714D01*
X53996597Y-24799455D01*
X53993790Y-24801255D01*
X53985231Y-24806318D01*
X53976479Y-24810883D01*
X53967536Y-24814950D01*
X53958399Y-24818520D01*
X53949071Y-24821591D01*
X53939550Y-24824164D01*
X53929837Y-24826239D01*
X53919931Y-24827816D01*
X53909833Y-24828895D01*
X53899543Y-24829476D01*
X53892576Y-24829587D01*
X53881108Y-24829283D01*
X53869783Y-24828371D01*
X53858604Y-24826851D01*
X53847568Y-24824723D01*
X53836677Y-24821988D01*
X53825930Y-24818644D01*
X53815327Y-24814692D01*
X53804868Y-24810133D01*
X53794554Y-24804965D01*
X53784384Y-24799190D01*
X53777684Y-24795002D01*
X53771093Y-24790531D01*
X53764703Y-24785812D01*
X53758514Y-24780847D01*
X53752527Y-24775634D01*
X53746742Y-24770173D01*
X53741158Y-24764466D01*
X53735775Y-24758511D01*
X53730594Y-24752308D01*
X53725615Y-24745859D01*
X53720837Y-24739162D01*
X53716260Y-24732218D01*
X53711885Y-24725026D01*
X53707712Y-24717588D01*
X53703740Y-24709902D01*
X53699969Y-24701968D01*
X53696400Y-24693788D01*
X53693040Y-24685425D01*
X53689897Y-24676944D01*
X53686971Y-24668346D01*
X53684261Y-24659630D01*
X53681768Y-24650797D01*
X53679492Y-24641846D01*
X53677433Y-24632778D01*
X53675591Y-24623592D01*
X53673965Y-24614289D01*
X53672556Y-24604868D01*
X53671364Y-24595330D01*
X53670388Y-24585674D01*
X53669630Y-24575900D01*
X53669088Y-24566009D01*
X53668762Y-24556000D01*
X53668654Y-24545874D01*
X53668768Y-24534770D01*
X53669109Y-24523831D01*
X53669678Y-24513057D01*
X53670474Y-24502448D01*
X53671497Y-24492003D01*
X53672748Y-24481724D01*
X53674227Y-24471609D01*
X53675933Y-24461659D01*
X53677866Y-24451874D01*
X53680027Y-24442254D01*
X53682415Y-24432799D01*
X53685031Y-24423509D01*
X53687874Y-24414383D01*
X53690944Y-24405422D01*
X53694242Y-24396627D01*
X53697768Y-24387996D01*
X53701490Y-24379571D01*
X53705428Y-24371393D01*
X53709581Y-24363463D01*
X53713949Y-24355780D01*
X53718532Y-24348344D01*
X53723331Y-24341156D01*
X53728345Y-24334215D01*
X53733574Y-24327521D01*
X53739018Y-24321075D01*
X53744678Y-24314876D01*
X53750553Y-24308924D01*
X53756643Y-24303219D01*
X53762948Y-24297762D01*
X53769468Y-24292552D01*
X53776204Y-24287589D01*
X53783155Y-24282874D01*
X53790272Y-24278391D01*
X53797504Y-24274176D01*
X53804853Y-24270227D01*
X53812318Y-24266546D01*
X53819898Y-24263132D01*
X53827595Y-24259985D01*
X53835408Y-24257105D01*
X53843337Y-24254493D01*
X53851381Y-24252147D01*
X53859542Y-24250069D01*
X53867819Y-24248258D01*
X53876212Y-24246713D01*
X53884720Y-24245437D01*
X53893345Y-24244427D01*
X53902086Y-24243684D01*
X53910943Y-24243209D01*
X53918759Y-24345400D01*
X53909235Y-24346580D01*
X53900007Y-24348068D01*
X53891075Y-24349865D01*
X53882440Y-24351970D01*
X53874100Y-24354383D01*
X53866057Y-24357105D01*
X53858310Y-24360135D01*
X53850859Y-24363474D01*
X53843704Y-24367121D01*
X53836846Y-24371076D01*
X53830283Y-24375339D01*
X53820995Y-24382313D01*
X53812373Y-24389980D01*
X53804417Y-24398341D01*
X53801913Y-24401283D01*
X53794859Y-24410584D01*
X53790542Y-24417227D01*
X53786534Y-24424225D01*
X53782833Y-24431576D01*
X53779441Y-24439282D01*
X53776358Y-24447342D01*
X53773583Y-24455756D01*
X53771116Y-24464525D01*
X53768957Y-24473647D01*
X53767107Y-24483124D01*
X53765565Y-24492955D01*
X53764332Y-24503139D01*
X53763407Y-24513679D01*
X53762790Y-24524572D01*
X53762482Y-24535819D01*
X53762443Y-24541576D01*
X53762583Y-24553461D01*
X53763002Y-24564937D01*
X53763700Y-24576005D01*
X53764678Y-24586663D01*
X53765935Y-24596912D01*
X53767472Y-24606752D01*
X53769287Y-24616183D01*
X53771383Y-24625204D01*
X53773757Y-24633817D01*
X53776411Y-24642020D01*
X53779344Y-24649815D01*
X53782557Y-24657200D01*
X53787899Y-24667511D01*
X53793871Y-24676901D01*
X53798200Y-24682650D01*
X53804999Y-24690542D01*
X53812058Y-24697657D01*
X53819379Y-24703997D01*
X53826960Y-24709560D01*
X53834803Y-24714347D01*
X53842906Y-24718357D01*
X53851271Y-24721591D01*
X53859896Y-24724049D01*
X53868783Y-24725731D01*
X53877931Y-24726637D01*
X53884174Y-24726809D01*
X53892243Y-24726533D01*
X53900038Y-24725703D01*
X53910003Y-24723737D01*
X53919479Y-24720788D01*
X53928467Y-24716856D01*
X53936967Y-24711940D01*
X53944978Y-24706042D01*
X53952501Y-24699160D01*
X53956079Y-24695351D01*
X53961368Y-24688727D01*
X53966685Y-24680357D01*
X53972030Y-24670244D01*
X53975608Y-24662532D01*
X53979198Y-24654044D01*
X53982801Y-24644781D01*
X53986416Y-24634743D01*
X53990043Y-24623929D01*
X53993682Y-24612340D01*
X53997333Y-24599975D01*
X54000997Y-24586835D01*
X54004673Y-24572919D01*
X54008361Y-24558228D01*
X54010209Y-24550591D01*
X54012061Y-24542761D01*
X54013916Y-24534737D01*
X54015753Y-24526695D01*
X54017576Y-24518813D01*
X54019384Y-24511090D01*
X54022959Y-24496121D01*
X54026478Y-24481788D01*
X54029940Y-24468092D01*
X54033346Y-24455033D01*
X54036695Y-24442610D01*
X54039988Y-24430824D01*
X54043224Y-24419674D01*
X54046404Y-24409161D01*
X54049527Y-24399285D01*
X54052594Y-24390045D01*
X54055604Y-24381441D01*
X54058558Y-24373474D01*
X54061455Y-24366144D01*
X54065695Y-24356342D01*
X54069842Y-24347693D01*
X54074125Y-24339333D01*
X54078543Y-24331262D01*
X54083098Y-24323479D01*
X54087788Y-24315985D01*
X54092614Y-24308779D01*
X54097576Y-24301861D01*
X54102674Y-24295232D01*
X54107907Y-24288892D01*
X54113277Y-24282840D01*
X54118782Y-24277077D01*
X54124423Y-24271602D01*
X54133140Y-24263930D01*
X54142162Y-24256908D01*
X54148347Y-24252587D01*
X54157860Y-24246581D01*
X54167641Y-24241166D01*
X54177689Y-24236342D01*
X54188006Y-24232108D01*
X54198590Y-24228465D01*
X54209443Y-24225412D01*
X54220563Y-24222951D01*
X54231951Y-24221080D01*
X54243607Y-24219800D01*
X54251527Y-24219275D01*
X54259566Y-24219012D01*
X54263630Y-24218980D01*
X54271685Y-24219124D01*
X54279683Y-24219557D01*
X54287622Y-24220278D01*
X54295503Y-24221288D01*
X54303327Y-24222586D01*
X54311092Y-24224173D01*
X54318800Y-24226048D01*
X54326449Y-24228212D01*
X54334040Y-24230664D01*
X54341574Y-24233405D01*
X54349049Y-24236435D01*
X54356466Y-24239753D01*
X54363826Y-24243359D01*
X54371127Y-24247254D01*
X54378370Y-24251437D01*
X54385556Y-24255909D01*
X54392613Y-24260627D01*
X54399471Y-24265596D01*
X54406132Y-24270818D01*
X54412593Y-24276291D01*
X54418857Y-24282016D01*
X54424922Y-24287994D01*
X54430788Y-24294222D01*
X54436456Y-24300703D01*
X54441925Y-24307436D01*
X54447196Y-24314421D01*
X54452269Y-24321657D01*
X54457143Y-24329145D01*
X54461819Y-24336886D01*
X54466296Y-24344878D01*
X54470575Y-24353122D01*
X54474655Y-24361617D01*
X54478512Y-24370306D01*
X54482120Y-24379130D01*
X54485479Y-24388087D01*
X54488590Y-24397179D01*
X54491451Y-24406406D01*
X54494064Y-24415766D01*
X54496427Y-24425261D01*
X54498542Y-24434890D01*
X54500409Y-24444654D01*
X54502026Y-24454552D01*
X54503394Y-24464584D01*
X54504514Y-24474751D01*
X54505385Y-24485052D01*
X54506007Y-24495487D01*
X54506380Y-24506057D01*
X54506505Y-24516761D01*
X54506377Y-24530300D01*
X54505995Y-24543563D01*
X54505358Y-24556550D01*
X54504465Y-24569261D01*
X54503318Y-24581695D01*
X54501916Y-24593853D01*
X54500259Y-24605734D01*
X54498347Y-24617340D01*
X54496180Y-24628669D01*
X54493758Y-24639722D01*
X54491082Y-24650498D01*
X54488150Y-24660998D01*
X54484963Y-24671222D01*
X54481522Y-24681170D01*
X54477825Y-24690841D01*
X54473874Y-24700236D01*
X54469668Y-24709344D01*
X54465206Y-24718203D01*
X54460490Y-24726813D01*
X54455519Y-24735175D01*
X54450293Y-24743287D01*
X54444812Y-24751151D01*
X54439076Y-24758766D01*
X54433085Y-24766132D01*
X54426840Y-24773250D01*
X54420339Y-24780118D01*
X54413583Y-24786738D01*
X54406573Y-24793109D01*
X54399307Y-24799231D01*
X54391787Y-24805104D01*
X54384012Y-24810729D01*
X54375981Y-24816105D01*
X54367732Y-24821200D01*
X54359348Y-24825984D01*
X54350830Y-24830457D01*
X54342178Y-24834618D01*
X54333392Y-24838468D01*
X54324471Y-24842007D01*
X54315415Y-24845234D01*
X54306226Y-24848149D01*
X54296902Y-24850753D01*
X54287443Y-24853046D01*
X54277851Y-24855028D01*
X54268124Y-24856698D01*
X54258262Y-24858056D01*
X54248267Y-24859104D01*
X54238137Y-24859839D01*
X54227872Y-24860264D01*
G37*
G36*
X53928625Y-23462864D02*
G01*
X53941174Y-23463631D01*
X53953476Y-23464910D01*
X53965531Y-23466699D01*
X53977339Y-23469001D01*
X53988899Y-23471813D01*
X54000212Y-23475137D01*
X54011278Y-23478973D01*
X54022096Y-23483319D01*
X54032668Y-23488178D01*
X54042991Y-23493547D01*
X54053068Y-23499428D01*
X54062897Y-23505820D01*
X54072479Y-23512724D01*
X54081814Y-23520139D01*
X54090901Y-23528066D01*
X54099585Y-23536659D01*
X54107708Y-23546075D01*
X54115271Y-23556314D01*
X54122274Y-23567376D01*
X54128717Y-23579261D01*
X54134599Y-23591969D01*
X54139921Y-23605499D01*
X54144683Y-23619852D01*
X54148885Y-23635028D01*
X54150776Y-23642924D01*
X54152527Y-23651027D01*
X54154137Y-23659334D01*
X54155608Y-23667848D01*
X54156938Y-23676567D01*
X54158129Y-23685492D01*
X54159179Y-23694623D01*
X54160090Y-23703959D01*
X54160860Y-23713501D01*
X54161490Y-23723249D01*
X54161981Y-23733203D01*
X54162331Y-23743362D01*
X54162541Y-23753727D01*
X54162611Y-23764297D01*
X54162611Y-23971024D01*
X54494000Y-23971024D01*
X54494000Y-24077710D01*
X53681159Y-24077710D01*
X53681159Y-23971024D01*
X53774949Y-23971024D01*
X54068822Y-23971024D01*
X54068822Y-23762734D01*
X54068668Y-23750048D01*
X54068208Y-23737830D01*
X54067441Y-23726082D01*
X54066367Y-23714801D01*
X54064986Y-23703990D01*
X54063299Y-23693647D01*
X54061304Y-23683773D01*
X54059003Y-23674367D01*
X54056395Y-23665430D01*
X54053480Y-23656962D01*
X54050258Y-23648962D01*
X54046730Y-23641431D01*
X54042894Y-23634368D01*
X54036566Y-23624653D01*
X54029547Y-23615993D01*
X54021903Y-23608241D01*
X54013700Y-23601251D01*
X54004936Y-23595024D01*
X53995613Y-23589560D01*
X53985730Y-23584858D01*
X53975286Y-23580918D01*
X53964284Y-23577741D01*
X53956637Y-23576047D01*
X53948742Y-23574691D01*
X53940598Y-23573674D01*
X53932205Y-23572997D01*
X53923564Y-23572658D01*
X53919150Y-23572615D01*
X53909608Y-23572840D01*
X53900328Y-23573515D01*
X53891308Y-23574640D01*
X53882550Y-23576215D01*
X53874052Y-23578240D01*
X53865816Y-23580714D01*
X53857841Y-23583639D01*
X53850127Y-23587014D01*
X53842673Y-23590838D01*
X53835481Y-23595112D01*
X53830831Y-23598212D01*
X53824162Y-23603119D01*
X53817928Y-23608315D01*
X53812131Y-23613799D01*
X53806770Y-23619571D01*
X53800301Y-23627717D01*
X53794607Y-23636375D01*
X53789689Y-23645546D01*
X53786509Y-23652761D01*
X53783765Y-23660265D01*
X53782178Y-23665428D01*
X53780095Y-23674966D01*
X53778683Y-23684196D01*
X53777773Y-23692053D01*
X53776989Y-23700710D01*
X53776332Y-23710168D01*
X53775803Y-23720425D01*
X53775400Y-23731483D01*
X53775203Y-23739300D01*
X53775062Y-23747472D01*
X53774977Y-23756000D01*
X53774949Y-23764883D01*
X53774949Y-23971024D01*
X53681159Y-23971024D01*
X53681159Y-23773676D01*
X53681190Y-23763809D01*
X53681281Y-23754237D01*
X53681434Y-23744960D01*
X53681648Y-23735977D01*
X53681923Y-23727289D01*
X53682258Y-23718895D01*
X53682655Y-23710797D01*
X53683113Y-23702992D01*
X53683915Y-23691838D01*
X53684853Y-23681347D01*
X53685930Y-23671519D01*
X53687143Y-23662353D01*
X53688494Y-23653851D01*
X53688975Y-23651164D01*
X53691002Y-23640196D01*
X53693344Y-23629569D01*
X53696002Y-23619282D01*
X53698977Y-23609334D01*
X53702267Y-23599727D01*
X53705874Y-23590460D01*
X53709796Y-23581532D01*
X53714034Y-23572945D01*
X53718589Y-23564698D01*
X53723459Y-23556791D01*
X53726882Y-23551708D01*
X53732318Y-23544335D01*
X53738150Y-23537237D01*
X53744376Y-23530413D01*
X53750997Y-23523865D01*
X53758014Y-23517591D01*
X53765425Y-23511591D01*
X53773232Y-23505867D01*
X53781433Y-23500417D01*
X53790030Y-23495242D01*
X53799021Y-23490342D01*
X53805235Y-23487228D01*
X53814740Y-23482828D01*
X53824423Y-23478861D01*
X53834285Y-23475327D01*
X53844326Y-23472225D01*
X53854545Y-23469557D01*
X53864943Y-23467321D01*
X53875519Y-23465518D01*
X53886274Y-23464147D01*
X53897208Y-23463209D01*
X53908320Y-23462705D01*
X53915828Y-23462608D01*
X53928625Y-23462864D01*
G37*
D14*
%TO.C,R8*%
X49053641Y-39780000D02*
X48746359Y-39780000D01*
X49053641Y-39020000D02*
X48746359Y-39020000D01*
%TO.C,C8*%
X36942164Y-27040000D02*
X37157836Y-27040000D01*
X36942164Y-27760000D02*
X37157836Y-27760000D01*
%TO.C,C16*%
X36821252Y-37575000D02*
X36298748Y-37575000D01*
X36821252Y-36105000D02*
X36298748Y-36105000D01*
%TO.C,C11*%
X48810000Y-27892164D02*
X48810000Y-28107836D01*
X48090000Y-27892164D02*
X48090000Y-28107836D01*
D15*
%TO.C,J1*%
X33643000Y-58670029D02*
X33643000Y-56470029D01*
X33643000Y-62140029D02*
X42583000Y-62140029D01*
X42583000Y-58670029D02*
X42583000Y-56470029D01*
D14*
%TO.C,R3*%
X36966641Y-48930029D02*
X36659359Y-48930029D01*
X36966641Y-48170029D02*
X36659359Y-48170029D01*
D15*
%TO.C,U10*%
X40218000Y-26575029D02*
X45818000Y-26575029D01*
X40218000Y-27075029D02*
X40218000Y-26575029D01*
X40218000Y-36575029D02*
X40218000Y-37075029D01*
X40218000Y-37075029D02*
X45818000Y-37075029D01*
X45818000Y-26575029D02*
X45818000Y-27075029D01*
X45818000Y-37075029D02*
X45818000Y-36575029D01*
D16*
X37958000Y-27595029D02*
G75*
G03*
X37958000Y-27595029I-100000J0D01*
G01*
D14*
%TO.C,R1*%
X32933000Y-52603670D02*
X32933000Y-52296388D01*
X33693000Y-52603670D02*
X33693000Y-52296388D01*
%TO.C,C1*%
X36662164Y-49440029D02*
X36877836Y-49440029D01*
X36662164Y-50160029D02*
X36877836Y-50160029D01*
%TO.C,F1*%
X39997936Y-50340000D02*
X41202064Y-50340000D01*
X39997936Y-53060000D02*
X41202064Y-53060000D01*
%TO.C,C7*%
X37157836Y-26610000D02*
X36942164Y-26610000D01*
X37157836Y-25890000D02*
X36942164Y-25890000D01*
%TO.C,C14*%
X45553000Y-58807865D02*
X45553000Y-58592193D01*
X46273000Y-58807865D02*
X46273000Y-58592193D01*
%TO.C,R7*%
X50070000Y-40003641D02*
X50070000Y-39696359D01*
X50830000Y-40003641D02*
X50830000Y-39696359D01*
%TO.C,R13*%
X38116641Y-45430000D02*
X37809359Y-45430000D01*
X38116641Y-44670000D02*
X37809359Y-44670000D01*
%TO.C,R12*%
X34725742Y-44527529D02*
X35200258Y-44527529D01*
X34725742Y-45572529D02*
X35200258Y-45572529D01*
D15*
%TO.C,U6*%
X43963000Y-46920029D02*
X43508000Y-46920029D01*
X43963000Y-44080029D02*
X43508000Y-44080029D01*
X42618000Y-46920029D02*
X41308000Y-46920029D01*
X42618000Y-44080029D02*
X41308000Y-44080029D01*
X40418000Y-46920029D02*
X39963000Y-46920029D01*
X40418000Y-44080029D02*
X39963000Y-44080029D01*
D16*
X44973000Y-46500029D02*
G75*
G03*
X44973000Y-46500029I-100000J0D01*
G01*
D14*
%TO.C,R2*%
X32480000Y-54746359D02*
X32480000Y-55053641D01*
X31720000Y-54746359D02*
X31720000Y-55053641D01*
%TO.C,C10*%
X46370836Y-38260029D02*
X46155164Y-38260029D01*
X46370836Y-37540029D02*
X46155164Y-37540029D01*
%TO.C,D1*%
X44310000Y-49600000D02*
X44310000Y-47600000D01*
X44310000Y-49600000D02*
X40300000Y-49600000D01*
X44310000Y-47600000D02*
X40300000Y-47600000D01*
%TO.C,C9*%
X37157836Y-28910000D02*
X36942164Y-28910000D01*
X37157836Y-28190000D02*
X36942164Y-28190000D01*
%TO.C,R4*%
X31720000Y-57163641D02*
X31720000Y-56856359D01*
X32480000Y-57163641D02*
X32480000Y-56856359D01*
%TO.C,C2*%
X34773000Y-52342193D02*
X34773000Y-52557865D01*
X34053000Y-52342193D02*
X34053000Y-52557865D01*
%TO.C,R11*%
X45759359Y-45470029D02*
X46066641Y-45470029D01*
X45759359Y-46230029D02*
X46066641Y-46230029D01*
%TO.C,C15*%
X36821252Y-33415000D02*
X36298748Y-33415000D01*
X36821252Y-31945000D02*
X36298748Y-31945000D01*
D15*
%TO.C,U5*%
X49133000Y-44900029D02*
X49793000Y-44900029D01*
X49793000Y-47800029D02*
X49133000Y-47800029D01*
X50263000Y-46015029D02*
X50263000Y-46685029D01*
D16*
X47153000Y-45300029D02*
G75*
G03*
X47153000Y-45300029I-100000J0D01*
G01*
D14*
%TO.C,R17*%
X44920000Y-42003641D02*
X44920000Y-41696359D01*
X45680000Y-42003641D02*
X45680000Y-41696359D01*
%TO.C,R5*%
X36966641Y-47780000D02*
X36659359Y-47780000D01*
X36966641Y-47020000D02*
X36659359Y-47020000D01*
%TO.C,C3*%
X32305164Y-46040000D02*
X32520836Y-46040000D01*
X32305164Y-46760000D02*
X32520836Y-46760000D01*
D15*
%TO.C,J2*%
X36963000Y-44130029D02*
X31463000Y-44130029D01*
X31463000Y-38870029D02*
X36963000Y-38870029D01*
X36963000Y-38870029D02*
X36963000Y-44130029D01*
X34291000Y-42770029D02*
X33910000Y-43024029D01*
X33910000Y-42516029D01*
X34291000Y-42770029D01*
G36*
X34291000Y-42770029D02*
G01*
X33910000Y-43024029D01*
X33910000Y-42516029D01*
X34291000Y-42770029D01*
G37*
D14*
%TO.C,R14*%
X45283000Y-55953670D02*
X45283000Y-55646388D01*
X46043000Y-55953670D02*
X46043000Y-55646388D01*
%TO.C,R6*%
X50070000Y-42003641D02*
X50070000Y-41696359D01*
X50830000Y-42003641D02*
X50830000Y-41696359D01*
%TO.C,R15*%
X36332936Y-34035000D02*
X36787064Y-34035000D01*
X36332936Y-35505000D02*
X36787064Y-35505000D01*
D15*
%TO.C,D4*%
X48038000Y-41699029D02*
X48038000Y-41426029D01*
X48988000Y-41699029D02*
X48988000Y-41426029D01*
D16*
X48213000Y-43062529D02*
G75*
G03*
X48213000Y-43062529I-100000J0D01*
G01*
D14*
%TO.C,C13*%
X47110000Y-41742164D02*
X47110000Y-41957836D01*
X46390000Y-41742164D02*
X46390000Y-41957836D01*
%TO.C,J4*%
X31670000Y-26170000D02*
X33000000Y-26170000D01*
X31670000Y-27500000D02*
X31670000Y-26170000D01*
X31670000Y-28770000D02*
X31670000Y-36450000D01*
X31670000Y-28770000D02*
X34330000Y-28770000D01*
X31670000Y-36450000D02*
X34330000Y-36450000D01*
X34330000Y-28770000D02*
X34330000Y-36450000D01*
%TO.C,R9*%
X38106641Y-46630029D02*
X37799359Y-46630029D01*
X38106641Y-45870029D02*
X37799359Y-45870029D01*
D15*
%TO.C,U3*%
X48655500Y-48650029D02*
X50315500Y-48650029D01*
X48655500Y-51750029D02*
X50315500Y-51750029D01*
D16*
X47185500Y-49200029D02*
G75*
G03*
X47185500Y-49200029I-100000J0D01*
G01*
D14*
%TO.C,R10*%
X45709359Y-46670029D02*
X46016641Y-46670029D01*
X45709359Y-47430029D02*
X46016641Y-47430029D01*
%TO.C,C12*%
X32520836Y-45660000D02*
X32305164Y-45660000D01*
X32520836Y-44940000D02*
X32305164Y-44940000D01*
%TO.C,R16*%
X36332936Y-29855000D02*
X36787064Y-29855000D01*
X36332936Y-31325000D02*
X36787064Y-31325000D01*
%TO.C,C4*%
X34292164Y-46040000D02*
X34507836Y-46040000D01*
X34292164Y-46760000D02*
X34507836Y-46760000D01*
D15*
%TO.C,U4*%
X35068000Y-47650029D02*
X34768000Y-47650029D01*
X35068000Y-47650029D02*
X35068000Y-47950029D01*
X32068000Y-47650029D02*
X32368000Y-47650029D01*
X32068000Y-47650029D02*
X32068000Y-47950029D01*
X35068000Y-50650029D02*
X35068000Y-50350029D01*
X35068000Y-50650029D02*
X34768000Y-50650029D01*
X32068000Y-50650029D02*
X32068000Y-50350029D01*
X32068000Y-50650029D02*
X32368000Y-50650029D01*
D16*
X35418000Y-46675029D02*
G75*
G03*
X35418000Y-46675029I-100000J0D01*
G01*
D14*
%TO.C,C6*%
X41240000Y-41857836D02*
X41240000Y-41642164D01*
X41960000Y-41857836D02*
X41960000Y-41642164D01*
%TO.C,C5*%
X45353000Y-44257865D02*
X45353000Y-44042193D01*
X46073000Y-44257865D02*
X46073000Y-44042193D01*
D15*
%TO.C,D5*%
X43036300Y-41699029D02*
X43036300Y-41426029D01*
X43986300Y-41699029D02*
X43986300Y-41426029D01*
D16*
X43211300Y-43062529D02*
G75*
G03*
X43211300Y-43062529I-100000J0D01*
G01*
D14*
%TO.C,R19*%
X43346359Y-39070000D02*
X43653641Y-39070000D01*
X43346359Y-39830000D02*
X43653641Y-39830000D01*
%TD*%
D17*
X54987000Y-22008000D02*
X33026000Y-22000000D01*
X31013000Y-24000000D02*
X31031000Y-59987029D01*
X55000000Y-62000029D02*
X52510000Y-62000029D01*
X31031013Y-59987029D02*
G75*
G03*
X33031000Y-62000029I1999987J-12971D01*
G01*
X33026000Y-22000042D02*
G75*
G03*
X31013000Y-24000000I-13000J-1999958D01*
G01*
X55000000Y-62000058D02*
G75*
G03*
X57013000Y-60000029I12900J2000058D01*
G01*
X46664000Y-59859029D02*
X46664000Y-62000029D01*
X52508000Y-59859029D02*
X46664000Y-59859029D01*
X56987000Y-24021000D02*
X57013000Y-60000029D01*
X56986958Y-24021000D02*
G75*
G03*
X54987000Y-22008000I-2000058J12900D01*
G01*
X52508000Y-59859029D02*
X52508000Y-62000029D01*
X46664000Y-62000029D02*
X33031000Y-62000029D01*
M02*
