%TF.GenerationSoftware,KiCad,Pcbnew,8.0.8*%
%TF.CreationDate,2025-02-28T15:56:35+01:00*%
%TF.ProjectId,nervous-eda,6e657276-6f75-4732-9d65-64612e6b6963,1.0*%
%TF.SameCoordinates,Original*%
%TF.FileFunction,Copper,L2,Bot*%
%TF.FilePolarity,Positive*%
%FSLAX46Y46*%
G04 Gerber Fmt 4.6, Leading zero omitted, Abs format (unit mm)*
G04 Created by KiCad (PCBNEW 8.0.8) date 2025-02-28 15:56:35*
%MOMM*%
%LPD*%
G01*
G04 APERTURE LIST*
%ADD10C,0.100000*%
%ADD11C,0.150000*%
%ADD12C,0.300000*%
%ADD13C,0.400000*%
%TA.AperFunction,NonConductor*%
%ADD14C,0.300000*%
%TD*%
%TA.AperFunction,ComponentPad*%
%ADD15O,1.100000X2.200000*%
%TD*%
%TA.AperFunction,ComponentPad*%
%ADD16O,1.300000X2.600000*%
%TD*%
%TA.AperFunction,ComponentPad*%
%ADD17O,2.032000X1.016000*%
%TD*%
%TA.AperFunction,ComponentPad*%
%ADD18R,1.700000X1.700000*%
%TD*%
%TA.AperFunction,ComponentPad*%
%ADD19O,1.700000X1.700000*%
%TD*%
%TA.AperFunction,ViaPad*%
%ADD20C,0.600000*%
%TD*%
%TA.AperFunction,Conductor*%
%ADD21C,0.254000*%
%TD*%
%TA.AperFunction,Conductor*%
%ADD22C,0.200000*%
%TD*%
%TA.AperFunction,Profile*%
%ADD23C,0.254000*%
%TD*%
G04 APERTURE END LIST*
D10*
D11*
X30012000Y-75990000D02*
X138012000Y-75990000D01*
X138012000Y-107990000D01*
X30012000Y-107990000D01*
X30012000Y-75990000D01*
D10*
D11*
X10000000Y-10000000D02*
X140012000Y-10000000D01*
X140012000Y-109990000D01*
X10000000Y-109990000D01*
X10000000Y-10000000D01*
D10*
D11*
X12000000Y-12000000D02*
X138012000Y-12000000D01*
X138012000Y-107990000D01*
X12000000Y-107990000D01*
X12000000Y-12000000D01*
D10*
D11*
X60000000Y-12000000D02*
X60000000Y-10000000D01*
D10*
D11*
X110000000Y-12000000D02*
X110000000Y-10000000D01*
D10*
D11*
X36089160Y-11593604D02*
X35346303Y-11593604D01*
X35717731Y-11593604D02*
X35717731Y-10293604D01*
X35717731Y-10293604D02*
X35593922Y-10479319D01*
X35593922Y-10479319D02*
X35470112Y-10603128D01*
X35470112Y-10603128D02*
X35346303Y-10665033D01*
D10*
D11*
X85346303Y-10417414D02*
X85408207Y-10355509D01*
X85408207Y-10355509D02*
X85532017Y-10293604D01*
X85532017Y-10293604D02*
X85841541Y-10293604D01*
X85841541Y-10293604D02*
X85965350Y-10355509D01*
X85965350Y-10355509D02*
X86027255Y-10417414D01*
X86027255Y-10417414D02*
X86089160Y-10541223D01*
X86089160Y-10541223D02*
X86089160Y-10665033D01*
X86089160Y-10665033D02*
X86027255Y-10850747D01*
X86027255Y-10850747D02*
X85284398Y-11593604D01*
X85284398Y-11593604D02*
X86089160Y-11593604D01*
D10*
D11*
X135284398Y-10293604D02*
X136089160Y-10293604D01*
X136089160Y-10293604D02*
X135655826Y-10788842D01*
X135655826Y-10788842D02*
X135841541Y-10788842D01*
X135841541Y-10788842D02*
X135965350Y-10850747D01*
X135965350Y-10850747D02*
X136027255Y-10912652D01*
X136027255Y-10912652D02*
X136089160Y-11036461D01*
X136089160Y-11036461D02*
X136089160Y-11345985D01*
X136089160Y-11345985D02*
X136027255Y-11469795D01*
X136027255Y-11469795D02*
X135965350Y-11531700D01*
X135965350Y-11531700D02*
X135841541Y-11593604D01*
X135841541Y-11593604D02*
X135470112Y-11593604D01*
X135470112Y-11593604D02*
X135346303Y-11531700D01*
X135346303Y-11531700D02*
X135284398Y-11469795D01*
D10*
D11*
X60000000Y-107990000D02*
X60000000Y-109990000D01*
D10*
D11*
X110000000Y-107990000D02*
X110000000Y-109990000D01*
D10*
D11*
X36089160Y-109583604D02*
X35346303Y-109583604D01*
X35717731Y-109583604D02*
X35717731Y-108283604D01*
X35717731Y-108283604D02*
X35593922Y-108469319D01*
X35593922Y-108469319D02*
X35470112Y-108593128D01*
X35470112Y-108593128D02*
X35346303Y-108655033D01*
D10*
D11*
X85346303Y-108407414D02*
X85408207Y-108345509D01*
X85408207Y-108345509D02*
X85532017Y-108283604D01*
X85532017Y-108283604D02*
X85841541Y-108283604D01*
X85841541Y-108283604D02*
X85965350Y-108345509D01*
X85965350Y-108345509D02*
X86027255Y-108407414D01*
X86027255Y-108407414D02*
X86089160Y-108531223D01*
X86089160Y-108531223D02*
X86089160Y-108655033D01*
X86089160Y-108655033D02*
X86027255Y-108840747D01*
X86027255Y-108840747D02*
X85284398Y-109583604D01*
X85284398Y-109583604D02*
X86089160Y-109583604D01*
D10*
D11*
X135284398Y-108283604D02*
X136089160Y-108283604D01*
X136089160Y-108283604D02*
X135655826Y-108778842D01*
X135655826Y-108778842D02*
X135841541Y-108778842D01*
X135841541Y-108778842D02*
X135965350Y-108840747D01*
X135965350Y-108840747D02*
X136027255Y-108902652D01*
X136027255Y-108902652D02*
X136089160Y-109026461D01*
X136089160Y-109026461D02*
X136089160Y-109335985D01*
X136089160Y-109335985D02*
X136027255Y-109459795D01*
X136027255Y-109459795D02*
X135965350Y-109521700D01*
X135965350Y-109521700D02*
X135841541Y-109583604D01*
X135841541Y-109583604D02*
X135470112Y-109583604D01*
X135470112Y-109583604D02*
X135346303Y-109521700D01*
X135346303Y-109521700D02*
X135284398Y-109459795D01*
D10*
D11*
X10000000Y-60000000D02*
X12000000Y-60000000D01*
D10*
D11*
X10690476Y-35222176D02*
X11309523Y-35222176D01*
X10566666Y-35593604D02*
X10999999Y-34293604D01*
X10999999Y-34293604D02*
X11433333Y-35593604D01*
D10*
D11*
X11092857Y-84912652D02*
X11278571Y-84974557D01*
X11278571Y-84974557D02*
X11340476Y-85036461D01*
X11340476Y-85036461D02*
X11402380Y-85160271D01*
X11402380Y-85160271D02*
X11402380Y-85345985D01*
X11402380Y-85345985D02*
X11340476Y-85469795D01*
X11340476Y-85469795D02*
X11278571Y-85531700D01*
X11278571Y-85531700D02*
X11154761Y-85593604D01*
X11154761Y-85593604D02*
X10659523Y-85593604D01*
X10659523Y-85593604D02*
X10659523Y-84293604D01*
X10659523Y-84293604D02*
X11092857Y-84293604D01*
X11092857Y-84293604D02*
X11216666Y-84355509D01*
X11216666Y-84355509D02*
X11278571Y-84417414D01*
X11278571Y-84417414D02*
X11340476Y-84541223D01*
X11340476Y-84541223D02*
X11340476Y-84665033D01*
X11340476Y-84665033D02*
X11278571Y-84788842D01*
X11278571Y-84788842D02*
X11216666Y-84850747D01*
X11216666Y-84850747D02*
X11092857Y-84912652D01*
X11092857Y-84912652D02*
X10659523Y-84912652D01*
D10*
D11*
X140012000Y-60000000D02*
X138012000Y-60000000D01*
D10*
D11*
X138702476Y-35222176D02*
X139321523Y-35222176D01*
X138578666Y-35593604D02*
X139011999Y-34293604D01*
X139011999Y-34293604D02*
X139445333Y-35593604D01*
D10*
D11*
X139104857Y-84912652D02*
X139290571Y-84974557D01*
X139290571Y-84974557D02*
X139352476Y-85036461D01*
X139352476Y-85036461D02*
X139414380Y-85160271D01*
X139414380Y-85160271D02*
X139414380Y-85345985D01*
X139414380Y-85345985D02*
X139352476Y-85469795D01*
X139352476Y-85469795D02*
X139290571Y-85531700D01*
X139290571Y-85531700D02*
X139166761Y-85593604D01*
X139166761Y-85593604D02*
X138671523Y-85593604D01*
X138671523Y-85593604D02*
X138671523Y-84293604D01*
X138671523Y-84293604D02*
X139104857Y-84293604D01*
X139104857Y-84293604D02*
X139228666Y-84355509D01*
X139228666Y-84355509D02*
X139290571Y-84417414D01*
X139290571Y-84417414D02*
X139352476Y-84541223D01*
X139352476Y-84541223D02*
X139352476Y-84665033D01*
X139352476Y-84665033D02*
X139290571Y-84788842D01*
X139290571Y-84788842D02*
X139228666Y-84850747D01*
X139228666Y-84850747D02*
X139104857Y-84912652D01*
X139104857Y-84912652D02*
X138671523Y-84912652D01*
D10*
D11*
X53467826Y-103776128D02*
X53467826Y-102276128D01*
X53467826Y-102276128D02*
X53824969Y-102276128D01*
X53824969Y-102276128D02*
X54039255Y-102347557D01*
X54039255Y-102347557D02*
X54182112Y-102490414D01*
X54182112Y-102490414D02*
X54253541Y-102633271D01*
X54253541Y-102633271D02*
X54324969Y-102918985D01*
X54324969Y-102918985D02*
X54324969Y-103133271D01*
X54324969Y-103133271D02*
X54253541Y-103418985D01*
X54253541Y-103418985D02*
X54182112Y-103561842D01*
X54182112Y-103561842D02*
X54039255Y-103704700D01*
X54039255Y-103704700D02*
X53824969Y-103776128D01*
X53824969Y-103776128D02*
X53467826Y-103776128D01*
X55610684Y-103776128D02*
X55610684Y-102990414D01*
X55610684Y-102990414D02*
X55539255Y-102847557D01*
X55539255Y-102847557D02*
X55396398Y-102776128D01*
X55396398Y-102776128D02*
X55110684Y-102776128D01*
X55110684Y-102776128D02*
X54967826Y-102847557D01*
X55610684Y-103704700D02*
X55467826Y-103776128D01*
X55467826Y-103776128D02*
X55110684Y-103776128D01*
X55110684Y-103776128D02*
X54967826Y-103704700D01*
X54967826Y-103704700D02*
X54896398Y-103561842D01*
X54896398Y-103561842D02*
X54896398Y-103418985D01*
X54896398Y-103418985D02*
X54967826Y-103276128D01*
X54967826Y-103276128D02*
X55110684Y-103204700D01*
X55110684Y-103204700D02*
X55467826Y-103204700D01*
X55467826Y-103204700D02*
X55610684Y-103133271D01*
X56110684Y-102776128D02*
X56682112Y-102776128D01*
X56324969Y-102276128D02*
X56324969Y-103561842D01*
X56324969Y-103561842D02*
X56396398Y-103704700D01*
X56396398Y-103704700D02*
X56539255Y-103776128D01*
X56539255Y-103776128D02*
X56682112Y-103776128D01*
X57753541Y-103704700D02*
X57610684Y-103776128D01*
X57610684Y-103776128D02*
X57324970Y-103776128D01*
X57324970Y-103776128D02*
X57182112Y-103704700D01*
X57182112Y-103704700D02*
X57110684Y-103561842D01*
X57110684Y-103561842D02*
X57110684Y-102990414D01*
X57110684Y-102990414D02*
X57182112Y-102847557D01*
X57182112Y-102847557D02*
X57324970Y-102776128D01*
X57324970Y-102776128D02*
X57610684Y-102776128D01*
X57610684Y-102776128D02*
X57753541Y-102847557D01*
X57753541Y-102847557D02*
X57824970Y-102990414D01*
X57824970Y-102990414D02*
X57824970Y-103133271D01*
X57824970Y-103133271D02*
X57110684Y-103276128D01*
X58467826Y-103633271D02*
X58539255Y-103704700D01*
X58539255Y-103704700D02*
X58467826Y-103776128D01*
X58467826Y-103776128D02*
X58396398Y-103704700D01*
X58396398Y-103704700D02*
X58467826Y-103633271D01*
X58467826Y-103633271D02*
X58467826Y-103776128D01*
X58467826Y-102847557D02*
X58539255Y-102918985D01*
X58539255Y-102918985D02*
X58467826Y-102990414D01*
X58467826Y-102990414D02*
X58396398Y-102918985D01*
X58396398Y-102918985D02*
X58467826Y-102847557D01*
X58467826Y-102847557D02*
X58467826Y-102990414D01*
X60253541Y-102418985D02*
X60324969Y-102347557D01*
X60324969Y-102347557D02*
X60467827Y-102276128D01*
X60467827Y-102276128D02*
X60824969Y-102276128D01*
X60824969Y-102276128D02*
X60967827Y-102347557D01*
X60967827Y-102347557D02*
X61039255Y-102418985D01*
X61039255Y-102418985D02*
X61110684Y-102561842D01*
X61110684Y-102561842D02*
X61110684Y-102704700D01*
X61110684Y-102704700D02*
X61039255Y-102918985D01*
X61039255Y-102918985D02*
X60182112Y-103776128D01*
X60182112Y-103776128D02*
X61110684Y-103776128D01*
X62039255Y-102276128D02*
X62182112Y-102276128D01*
X62182112Y-102276128D02*
X62324969Y-102347557D01*
X62324969Y-102347557D02*
X62396398Y-102418985D01*
X62396398Y-102418985D02*
X62467826Y-102561842D01*
X62467826Y-102561842D02*
X62539255Y-102847557D01*
X62539255Y-102847557D02*
X62539255Y-103204700D01*
X62539255Y-103204700D02*
X62467826Y-103490414D01*
X62467826Y-103490414D02*
X62396398Y-103633271D01*
X62396398Y-103633271D02*
X62324969Y-103704700D01*
X62324969Y-103704700D02*
X62182112Y-103776128D01*
X62182112Y-103776128D02*
X62039255Y-103776128D01*
X62039255Y-103776128D02*
X61896398Y-103704700D01*
X61896398Y-103704700D02*
X61824969Y-103633271D01*
X61824969Y-103633271D02*
X61753540Y-103490414D01*
X61753540Y-103490414D02*
X61682112Y-103204700D01*
X61682112Y-103204700D02*
X61682112Y-102847557D01*
X61682112Y-102847557D02*
X61753540Y-102561842D01*
X61753540Y-102561842D02*
X61824969Y-102418985D01*
X61824969Y-102418985D02*
X61896398Y-102347557D01*
X61896398Y-102347557D02*
X62039255Y-102276128D01*
X63110683Y-102418985D02*
X63182111Y-102347557D01*
X63182111Y-102347557D02*
X63324969Y-102276128D01*
X63324969Y-102276128D02*
X63682111Y-102276128D01*
X63682111Y-102276128D02*
X63824969Y-102347557D01*
X63824969Y-102347557D02*
X63896397Y-102418985D01*
X63896397Y-102418985D02*
X63967826Y-102561842D01*
X63967826Y-102561842D02*
X63967826Y-102704700D01*
X63967826Y-102704700D02*
X63896397Y-102918985D01*
X63896397Y-102918985D02*
X63039254Y-103776128D01*
X63039254Y-103776128D02*
X63967826Y-103776128D01*
X65253540Y-102776128D02*
X65253540Y-103776128D01*
X64896397Y-102204700D02*
X64539254Y-103276128D01*
X64539254Y-103276128D02*
X65467825Y-103276128D01*
X66039253Y-103204700D02*
X67182111Y-103204700D01*
X68182111Y-102276128D02*
X68324968Y-102276128D01*
X68324968Y-102276128D02*
X68467825Y-102347557D01*
X68467825Y-102347557D02*
X68539254Y-102418985D01*
X68539254Y-102418985D02*
X68610682Y-102561842D01*
X68610682Y-102561842D02*
X68682111Y-102847557D01*
X68682111Y-102847557D02*
X68682111Y-103204700D01*
X68682111Y-103204700D02*
X68610682Y-103490414D01*
X68610682Y-103490414D02*
X68539254Y-103633271D01*
X68539254Y-103633271D02*
X68467825Y-103704700D01*
X68467825Y-103704700D02*
X68324968Y-103776128D01*
X68324968Y-103776128D02*
X68182111Y-103776128D01*
X68182111Y-103776128D02*
X68039254Y-103704700D01*
X68039254Y-103704700D02*
X67967825Y-103633271D01*
X67967825Y-103633271D02*
X67896396Y-103490414D01*
X67896396Y-103490414D02*
X67824968Y-103204700D01*
X67824968Y-103204700D02*
X67824968Y-102847557D01*
X67824968Y-102847557D02*
X67896396Y-102561842D01*
X67896396Y-102561842D02*
X67967825Y-102418985D01*
X67967825Y-102418985D02*
X68039254Y-102347557D01*
X68039254Y-102347557D02*
X68182111Y-102276128D01*
X70039253Y-102276128D02*
X69324967Y-102276128D01*
X69324967Y-102276128D02*
X69253539Y-102990414D01*
X69253539Y-102990414D02*
X69324967Y-102918985D01*
X69324967Y-102918985D02*
X69467825Y-102847557D01*
X69467825Y-102847557D02*
X69824967Y-102847557D01*
X69824967Y-102847557D02*
X69967825Y-102918985D01*
X69967825Y-102918985D02*
X70039253Y-102990414D01*
X70039253Y-102990414D02*
X70110682Y-103133271D01*
X70110682Y-103133271D02*
X70110682Y-103490414D01*
X70110682Y-103490414D02*
X70039253Y-103633271D01*
X70039253Y-103633271D02*
X69967825Y-103704700D01*
X69967825Y-103704700D02*
X69824967Y-103776128D01*
X69824967Y-103776128D02*
X69467825Y-103776128D01*
X69467825Y-103776128D02*
X69324967Y-103704700D01*
X69324967Y-103704700D02*
X69253539Y-103633271D01*
X70753538Y-103204700D02*
X71896396Y-103204700D01*
X72896396Y-102276128D02*
X73039253Y-102276128D01*
X73039253Y-102276128D02*
X73182110Y-102347557D01*
X73182110Y-102347557D02*
X73253539Y-102418985D01*
X73253539Y-102418985D02*
X73324967Y-102561842D01*
X73324967Y-102561842D02*
X73396396Y-102847557D01*
X73396396Y-102847557D02*
X73396396Y-103204700D01*
X73396396Y-103204700D02*
X73324967Y-103490414D01*
X73324967Y-103490414D02*
X73253539Y-103633271D01*
X73253539Y-103633271D02*
X73182110Y-103704700D01*
X73182110Y-103704700D02*
X73039253Y-103776128D01*
X73039253Y-103776128D02*
X72896396Y-103776128D01*
X72896396Y-103776128D02*
X72753539Y-103704700D01*
X72753539Y-103704700D02*
X72682110Y-103633271D01*
X72682110Y-103633271D02*
X72610681Y-103490414D01*
X72610681Y-103490414D02*
X72539253Y-103204700D01*
X72539253Y-103204700D02*
X72539253Y-102847557D01*
X72539253Y-102847557D02*
X72610681Y-102561842D01*
X72610681Y-102561842D02*
X72682110Y-102418985D01*
X72682110Y-102418985D02*
X72753539Y-102347557D01*
X72753539Y-102347557D02*
X72896396Y-102276128D01*
X74682110Y-102276128D02*
X74396395Y-102276128D01*
X74396395Y-102276128D02*
X74253538Y-102347557D01*
X74253538Y-102347557D02*
X74182110Y-102418985D01*
X74182110Y-102418985D02*
X74039252Y-102633271D01*
X74039252Y-102633271D02*
X73967824Y-102918985D01*
X73967824Y-102918985D02*
X73967824Y-103490414D01*
X73967824Y-103490414D02*
X74039252Y-103633271D01*
X74039252Y-103633271D02*
X74110681Y-103704700D01*
X74110681Y-103704700D02*
X74253538Y-103776128D01*
X74253538Y-103776128D02*
X74539252Y-103776128D01*
X74539252Y-103776128D02*
X74682110Y-103704700D01*
X74682110Y-103704700D02*
X74753538Y-103633271D01*
X74753538Y-103633271D02*
X74824967Y-103490414D01*
X74824967Y-103490414D02*
X74824967Y-103133271D01*
X74824967Y-103133271D02*
X74753538Y-102990414D01*
X74753538Y-102990414D02*
X74682110Y-102918985D01*
X74682110Y-102918985D02*
X74539252Y-102847557D01*
X74539252Y-102847557D02*
X74253538Y-102847557D01*
X74253538Y-102847557D02*
X74110681Y-102918985D01*
X74110681Y-102918985D02*
X74039252Y-102990414D01*
X74039252Y-102990414D02*
X73967824Y-103133271D01*
D10*
D11*
X30012000Y-104490000D02*
X138012000Y-104490000D01*
D10*
D11*
X31467826Y-106576128D02*
X31467826Y-105076128D01*
X32324969Y-106576128D02*
X31682112Y-105718985D01*
X32324969Y-105076128D02*
X31467826Y-105933271D01*
X32967826Y-106576128D02*
X32967826Y-105576128D01*
X32967826Y-105076128D02*
X32896398Y-105147557D01*
X32896398Y-105147557D02*
X32967826Y-105218985D01*
X32967826Y-105218985D02*
X33039255Y-105147557D01*
X33039255Y-105147557D02*
X32967826Y-105076128D01*
X32967826Y-105076128D02*
X32967826Y-105218985D01*
X34539255Y-106433271D02*
X34467827Y-106504700D01*
X34467827Y-106504700D02*
X34253541Y-106576128D01*
X34253541Y-106576128D02*
X34110684Y-106576128D01*
X34110684Y-106576128D02*
X33896398Y-106504700D01*
X33896398Y-106504700D02*
X33753541Y-106361842D01*
X33753541Y-106361842D02*
X33682112Y-106218985D01*
X33682112Y-106218985D02*
X33610684Y-105933271D01*
X33610684Y-105933271D02*
X33610684Y-105718985D01*
X33610684Y-105718985D02*
X33682112Y-105433271D01*
X33682112Y-105433271D02*
X33753541Y-105290414D01*
X33753541Y-105290414D02*
X33896398Y-105147557D01*
X33896398Y-105147557D02*
X34110684Y-105076128D01*
X34110684Y-105076128D02*
X34253541Y-105076128D01*
X34253541Y-105076128D02*
X34467827Y-105147557D01*
X34467827Y-105147557D02*
X34539255Y-105218985D01*
X35824970Y-106576128D02*
X35824970Y-105790414D01*
X35824970Y-105790414D02*
X35753541Y-105647557D01*
X35753541Y-105647557D02*
X35610684Y-105576128D01*
X35610684Y-105576128D02*
X35324970Y-105576128D01*
X35324970Y-105576128D02*
X35182112Y-105647557D01*
X35824970Y-106504700D02*
X35682112Y-106576128D01*
X35682112Y-106576128D02*
X35324970Y-106576128D01*
X35324970Y-106576128D02*
X35182112Y-106504700D01*
X35182112Y-106504700D02*
X35110684Y-106361842D01*
X35110684Y-106361842D02*
X35110684Y-106218985D01*
X35110684Y-106218985D02*
X35182112Y-106076128D01*
X35182112Y-106076128D02*
X35324970Y-106004700D01*
X35324970Y-106004700D02*
X35682112Y-106004700D01*
X35682112Y-106004700D02*
X35824970Y-105933271D01*
X37182113Y-106576128D02*
X37182113Y-105076128D01*
X37182113Y-106504700D02*
X37039255Y-106576128D01*
X37039255Y-106576128D02*
X36753541Y-106576128D01*
X36753541Y-106576128D02*
X36610684Y-106504700D01*
X36610684Y-106504700D02*
X36539255Y-106433271D01*
X36539255Y-106433271D02*
X36467827Y-106290414D01*
X36467827Y-106290414D02*
X36467827Y-105861842D01*
X36467827Y-105861842D02*
X36539255Y-105718985D01*
X36539255Y-105718985D02*
X36610684Y-105647557D01*
X36610684Y-105647557D02*
X36753541Y-105576128D01*
X36753541Y-105576128D02*
X37039255Y-105576128D01*
X37039255Y-105576128D02*
X37182113Y-105647557D01*
X39039255Y-105790414D02*
X39539255Y-105790414D01*
X39753541Y-106576128D02*
X39039255Y-106576128D01*
X39039255Y-106576128D02*
X39039255Y-105076128D01*
X39039255Y-105076128D02*
X39753541Y-105076128D01*
X40396398Y-106433271D02*
X40467827Y-106504700D01*
X40467827Y-106504700D02*
X40396398Y-106576128D01*
X40396398Y-106576128D02*
X40324970Y-106504700D01*
X40324970Y-106504700D02*
X40396398Y-106433271D01*
X40396398Y-106433271D02*
X40396398Y-106576128D01*
X41110684Y-106576128D02*
X41110684Y-105076128D01*
X41110684Y-105076128D02*
X41467827Y-105076128D01*
X41467827Y-105076128D02*
X41682113Y-105147557D01*
X41682113Y-105147557D02*
X41824970Y-105290414D01*
X41824970Y-105290414D02*
X41896399Y-105433271D01*
X41896399Y-105433271D02*
X41967827Y-105718985D01*
X41967827Y-105718985D02*
X41967827Y-105933271D01*
X41967827Y-105933271D02*
X41896399Y-106218985D01*
X41896399Y-106218985D02*
X41824970Y-106361842D01*
X41824970Y-106361842D02*
X41682113Y-106504700D01*
X41682113Y-106504700D02*
X41467827Y-106576128D01*
X41467827Y-106576128D02*
X41110684Y-106576128D01*
X42610684Y-106433271D02*
X42682113Y-106504700D01*
X42682113Y-106504700D02*
X42610684Y-106576128D01*
X42610684Y-106576128D02*
X42539256Y-106504700D01*
X42539256Y-106504700D02*
X42610684Y-106433271D01*
X42610684Y-106433271D02*
X42610684Y-106576128D01*
X43253542Y-106147557D02*
X43967828Y-106147557D01*
X43110685Y-106576128D02*
X43610685Y-105076128D01*
X43610685Y-105076128D02*
X44110685Y-106576128D01*
X44610684Y-106433271D02*
X44682113Y-106504700D01*
X44682113Y-106504700D02*
X44610684Y-106576128D01*
X44610684Y-106576128D02*
X44539256Y-106504700D01*
X44539256Y-106504700D02*
X44610684Y-106433271D01*
X44610684Y-106433271D02*
X44610684Y-106576128D01*
X46682113Y-105718985D02*
X46539256Y-105647557D01*
X46539256Y-105647557D02*
X46467827Y-105576128D01*
X46467827Y-105576128D02*
X46396399Y-105433271D01*
X46396399Y-105433271D02*
X46396399Y-105361842D01*
X46396399Y-105361842D02*
X46467827Y-105218985D01*
X46467827Y-105218985D02*
X46539256Y-105147557D01*
X46539256Y-105147557D02*
X46682113Y-105076128D01*
X46682113Y-105076128D02*
X46967827Y-105076128D01*
X46967827Y-105076128D02*
X47110685Y-105147557D01*
X47110685Y-105147557D02*
X47182113Y-105218985D01*
X47182113Y-105218985D02*
X47253542Y-105361842D01*
X47253542Y-105361842D02*
X47253542Y-105433271D01*
X47253542Y-105433271D02*
X47182113Y-105576128D01*
X47182113Y-105576128D02*
X47110685Y-105647557D01*
X47110685Y-105647557D02*
X46967827Y-105718985D01*
X46967827Y-105718985D02*
X46682113Y-105718985D01*
X46682113Y-105718985D02*
X46539256Y-105790414D01*
X46539256Y-105790414D02*
X46467827Y-105861842D01*
X46467827Y-105861842D02*
X46396399Y-106004700D01*
X46396399Y-106004700D02*
X46396399Y-106290414D01*
X46396399Y-106290414D02*
X46467827Y-106433271D01*
X46467827Y-106433271D02*
X46539256Y-106504700D01*
X46539256Y-106504700D02*
X46682113Y-106576128D01*
X46682113Y-106576128D02*
X46967827Y-106576128D01*
X46967827Y-106576128D02*
X47110685Y-106504700D01*
X47110685Y-106504700D02*
X47182113Y-106433271D01*
X47182113Y-106433271D02*
X47253542Y-106290414D01*
X47253542Y-106290414D02*
X47253542Y-106004700D01*
X47253542Y-106004700D02*
X47182113Y-105861842D01*
X47182113Y-105861842D02*
X47110685Y-105790414D01*
X47110685Y-105790414D02*
X46967827Y-105718985D01*
X47896398Y-106433271D02*
X47967827Y-106504700D01*
X47967827Y-106504700D02*
X47896398Y-106576128D01*
X47896398Y-106576128D02*
X47824970Y-106504700D01*
X47824970Y-106504700D02*
X47896398Y-106433271D01*
X47896398Y-106433271D02*
X47896398Y-106576128D01*
X48896399Y-105076128D02*
X49039256Y-105076128D01*
X49039256Y-105076128D02*
X49182113Y-105147557D01*
X49182113Y-105147557D02*
X49253542Y-105218985D01*
X49253542Y-105218985D02*
X49324970Y-105361842D01*
X49324970Y-105361842D02*
X49396399Y-105647557D01*
X49396399Y-105647557D02*
X49396399Y-106004700D01*
X49396399Y-106004700D02*
X49324970Y-106290414D01*
X49324970Y-106290414D02*
X49253542Y-106433271D01*
X49253542Y-106433271D02*
X49182113Y-106504700D01*
X49182113Y-106504700D02*
X49039256Y-106576128D01*
X49039256Y-106576128D02*
X48896399Y-106576128D01*
X48896399Y-106576128D02*
X48753542Y-106504700D01*
X48753542Y-106504700D02*
X48682113Y-106433271D01*
X48682113Y-106433271D02*
X48610684Y-106290414D01*
X48610684Y-106290414D02*
X48539256Y-106004700D01*
X48539256Y-106004700D02*
X48539256Y-105647557D01*
X48539256Y-105647557D02*
X48610684Y-105361842D01*
X48610684Y-105361842D02*
X48682113Y-105218985D01*
X48682113Y-105218985D02*
X48753542Y-105147557D01*
X48753542Y-105147557D02*
X48896399Y-105076128D01*
X50039255Y-106433271D02*
X50110684Y-106504700D01*
X50110684Y-106504700D02*
X50039255Y-106576128D01*
X50039255Y-106576128D02*
X49967827Y-106504700D01*
X49967827Y-106504700D02*
X50039255Y-106433271D01*
X50039255Y-106433271D02*
X50039255Y-106576128D01*
X50967827Y-105718985D02*
X50824970Y-105647557D01*
X50824970Y-105647557D02*
X50753541Y-105576128D01*
X50753541Y-105576128D02*
X50682113Y-105433271D01*
X50682113Y-105433271D02*
X50682113Y-105361842D01*
X50682113Y-105361842D02*
X50753541Y-105218985D01*
X50753541Y-105218985D02*
X50824970Y-105147557D01*
X50824970Y-105147557D02*
X50967827Y-105076128D01*
X50967827Y-105076128D02*
X51253541Y-105076128D01*
X51253541Y-105076128D02*
X51396399Y-105147557D01*
X51396399Y-105147557D02*
X51467827Y-105218985D01*
X51467827Y-105218985D02*
X51539256Y-105361842D01*
X51539256Y-105361842D02*
X51539256Y-105433271D01*
X51539256Y-105433271D02*
X51467827Y-105576128D01*
X51467827Y-105576128D02*
X51396399Y-105647557D01*
X51396399Y-105647557D02*
X51253541Y-105718985D01*
X51253541Y-105718985D02*
X50967827Y-105718985D01*
X50967827Y-105718985D02*
X50824970Y-105790414D01*
X50824970Y-105790414D02*
X50753541Y-105861842D01*
X50753541Y-105861842D02*
X50682113Y-106004700D01*
X50682113Y-106004700D02*
X50682113Y-106290414D01*
X50682113Y-106290414D02*
X50753541Y-106433271D01*
X50753541Y-106433271D02*
X50824970Y-106504700D01*
X50824970Y-106504700D02*
X50967827Y-106576128D01*
X50967827Y-106576128D02*
X51253541Y-106576128D01*
X51253541Y-106576128D02*
X51396399Y-106504700D01*
X51396399Y-106504700D02*
X51467827Y-106433271D01*
X51467827Y-106433271D02*
X51539256Y-106290414D01*
X51539256Y-106290414D02*
X51539256Y-106004700D01*
X51539256Y-106004700D02*
X51467827Y-105861842D01*
X51467827Y-105861842D02*
X51396399Y-105790414D01*
X51396399Y-105790414D02*
X51253541Y-105718985D01*
D10*
D11*
X30012000Y-101490000D02*
X138012000Y-101490000D01*
D10*
D12*
X117423653Y-103768328D02*
X116923653Y-103054042D01*
X116566510Y-103768328D02*
X116566510Y-102268328D01*
X116566510Y-102268328D02*
X117137939Y-102268328D01*
X117137939Y-102268328D02*
X117280796Y-102339757D01*
X117280796Y-102339757D02*
X117352225Y-102411185D01*
X117352225Y-102411185D02*
X117423653Y-102554042D01*
X117423653Y-102554042D02*
X117423653Y-102768328D01*
X117423653Y-102768328D02*
X117352225Y-102911185D01*
X117352225Y-102911185D02*
X117280796Y-102982614D01*
X117280796Y-102982614D02*
X117137939Y-103054042D01*
X117137939Y-103054042D02*
X116566510Y-103054042D01*
X118637939Y-103696900D02*
X118495082Y-103768328D01*
X118495082Y-103768328D02*
X118209368Y-103768328D01*
X118209368Y-103768328D02*
X118066510Y-103696900D01*
X118066510Y-103696900D02*
X117995082Y-103554042D01*
X117995082Y-103554042D02*
X117995082Y-102982614D01*
X117995082Y-102982614D02*
X118066510Y-102839757D01*
X118066510Y-102839757D02*
X118209368Y-102768328D01*
X118209368Y-102768328D02*
X118495082Y-102768328D01*
X118495082Y-102768328D02*
X118637939Y-102839757D01*
X118637939Y-102839757D02*
X118709368Y-102982614D01*
X118709368Y-102982614D02*
X118709368Y-103125471D01*
X118709368Y-103125471D02*
X117995082Y-103268328D01*
X119209367Y-102768328D02*
X119566510Y-103768328D01*
X119566510Y-103768328D02*
X119923653Y-102768328D01*
X120495081Y-103625471D02*
X120566510Y-103696900D01*
X120566510Y-103696900D02*
X120495081Y-103768328D01*
X120495081Y-103768328D02*
X120423653Y-103696900D01*
X120423653Y-103696900D02*
X120495081Y-103625471D01*
X120495081Y-103625471D02*
X120495081Y-103768328D01*
X120495081Y-102839757D02*
X120566510Y-102911185D01*
X120566510Y-102911185D02*
X120495081Y-102982614D01*
X120495081Y-102982614D02*
X120423653Y-102911185D01*
X120423653Y-102911185D02*
X120495081Y-102839757D01*
X120495081Y-102839757D02*
X120495081Y-102982614D01*
X123137939Y-103768328D02*
X122280796Y-103768328D01*
X122709367Y-103768328D02*
X122709367Y-102268328D01*
X122709367Y-102268328D02*
X122566510Y-102482614D01*
X122566510Y-102482614D02*
X122423653Y-102625471D01*
X122423653Y-102625471D02*
X122280796Y-102696900D01*
X123780795Y-103625471D02*
X123852224Y-103696900D01*
X123852224Y-103696900D02*
X123780795Y-103768328D01*
X123780795Y-103768328D02*
X123709367Y-103696900D01*
X123709367Y-103696900D02*
X123780795Y-103625471D01*
X123780795Y-103625471D02*
X123780795Y-103768328D01*
X124780796Y-102268328D02*
X124923653Y-102268328D01*
X124923653Y-102268328D02*
X125066510Y-102339757D01*
X125066510Y-102339757D02*
X125137939Y-102411185D01*
X125137939Y-102411185D02*
X125209367Y-102554042D01*
X125209367Y-102554042D02*
X125280796Y-102839757D01*
X125280796Y-102839757D02*
X125280796Y-103196900D01*
X125280796Y-103196900D02*
X125209367Y-103482614D01*
X125209367Y-103482614D02*
X125137939Y-103625471D01*
X125137939Y-103625471D02*
X125066510Y-103696900D01*
X125066510Y-103696900D02*
X124923653Y-103768328D01*
X124923653Y-103768328D02*
X124780796Y-103768328D01*
X124780796Y-103768328D02*
X124637939Y-103696900D01*
X124637939Y-103696900D02*
X124566510Y-103625471D01*
X124566510Y-103625471D02*
X124495081Y-103482614D01*
X124495081Y-103482614D02*
X124423653Y-103196900D01*
X124423653Y-103196900D02*
X124423653Y-102839757D01*
X124423653Y-102839757D02*
X124495081Y-102554042D01*
X124495081Y-102554042D02*
X124566510Y-102411185D01*
X124566510Y-102411185D02*
X124637939Y-102339757D01*
X124637939Y-102339757D02*
X124780796Y-102268328D01*
D10*
D11*
X31396398Y-103704700D02*
X31610684Y-103776128D01*
X31610684Y-103776128D02*
X31967826Y-103776128D01*
X31967826Y-103776128D02*
X32110684Y-103704700D01*
X32110684Y-103704700D02*
X32182112Y-103633271D01*
X32182112Y-103633271D02*
X32253541Y-103490414D01*
X32253541Y-103490414D02*
X32253541Y-103347557D01*
X32253541Y-103347557D02*
X32182112Y-103204700D01*
X32182112Y-103204700D02*
X32110684Y-103133271D01*
X32110684Y-103133271D02*
X31967826Y-103061842D01*
X31967826Y-103061842D02*
X31682112Y-102990414D01*
X31682112Y-102990414D02*
X31539255Y-102918985D01*
X31539255Y-102918985D02*
X31467826Y-102847557D01*
X31467826Y-102847557D02*
X31396398Y-102704700D01*
X31396398Y-102704700D02*
X31396398Y-102561842D01*
X31396398Y-102561842D02*
X31467826Y-102418985D01*
X31467826Y-102418985D02*
X31539255Y-102347557D01*
X31539255Y-102347557D02*
X31682112Y-102276128D01*
X31682112Y-102276128D02*
X32039255Y-102276128D01*
X32039255Y-102276128D02*
X32253541Y-102347557D01*
X32896397Y-103776128D02*
X32896397Y-102776128D01*
X32896397Y-102276128D02*
X32824969Y-102347557D01*
X32824969Y-102347557D02*
X32896397Y-102418985D01*
X32896397Y-102418985D02*
X32967826Y-102347557D01*
X32967826Y-102347557D02*
X32896397Y-102276128D01*
X32896397Y-102276128D02*
X32896397Y-102418985D01*
X33467826Y-102776128D02*
X34253541Y-102776128D01*
X34253541Y-102776128D02*
X33467826Y-103776128D01*
X33467826Y-103776128D02*
X34253541Y-103776128D01*
X35396398Y-103704700D02*
X35253541Y-103776128D01*
X35253541Y-103776128D02*
X34967827Y-103776128D01*
X34967827Y-103776128D02*
X34824969Y-103704700D01*
X34824969Y-103704700D02*
X34753541Y-103561842D01*
X34753541Y-103561842D02*
X34753541Y-102990414D01*
X34753541Y-102990414D02*
X34824969Y-102847557D01*
X34824969Y-102847557D02*
X34967827Y-102776128D01*
X34967827Y-102776128D02*
X35253541Y-102776128D01*
X35253541Y-102776128D02*
X35396398Y-102847557D01*
X35396398Y-102847557D02*
X35467827Y-102990414D01*
X35467827Y-102990414D02*
X35467827Y-103133271D01*
X35467827Y-103133271D02*
X34753541Y-103276128D01*
X36110683Y-103633271D02*
X36182112Y-103704700D01*
X36182112Y-103704700D02*
X36110683Y-103776128D01*
X36110683Y-103776128D02*
X36039255Y-103704700D01*
X36039255Y-103704700D02*
X36110683Y-103633271D01*
X36110683Y-103633271D02*
X36110683Y-103776128D01*
X36110683Y-102847557D02*
X36182112Y-102918985D01*
X36182112Y-102918985D02*
X36110683Y-102990414D01*
X36110683Y-102990414D02*
X36039255Y-102918985D01*
X36039255Y-102918985D02*
X36110683Y-102847557D01*
X36110683Y-102847557D02*
X36110683Y-102990414D01*
X37967826Y-102276128D02*
X37967826Y-103490414D01*
X37967826Y-103490414D02*
X38039255Y-103633271D01*
X38039255Y-103633271D02*
X38110684Y-103704700D01*
X38110684Y-103704700D02*
X38253541Y-103776128D01*
X38253541Y-103776128D02*
X38539255Y-103776128D01*
X38539255Y-103776128D02*
X38682112Y-103704700D01*
X38682112Y-103704700D02*
X38753541Y-103633271D01*
X38753541Y-103633271D02*
X38824969Y-103490414D01*
X38824969Y-103490414D02*
X38824969Y-102276128D01*
X39467827Y-103704700D02*
X39610684Y-103776128D01*
X39610684Y-103776128D02*
X39896398Y-103776128D01*
X39896398Y-103776128D02*
X40039255Y-103704700D01*
X40039255Y-103704700D02*
X40110684Y-103561842D01*
X40110684Y-103561842D02*
X40110684Y-103490414D01*
X40110684Y-103490414D02*
X40039255Y-103347557D01*
X40039255Y-103347557D02*
X39896398Y-103276128D01*
X39896398Y-103276128D02*
X39682113Y-103276128D01*
X39682113Y-103276128D02*
X39539255Y-103204700D01*
X39539255Y-103204700D02*
X39467827Y-103061842D01*
X39467827Y-103061842D02*
X39467827Y-102990414D01*
X39467827Y-102990414D02*
X39539255Y-102847557D01*
X39539255Y-102847557D02*
X39682113Y-102776128D01*
X39682113Y-102776128D02*
X39896398Y-102776128D01*
X39896398Y-102776128D02*
X40039255Y-102847557D01*
X41324970Y-103704700D02*
X41182113Y-103776128D01*
X41182113Y-103776128D02*
X40896399Y-103776128D01*
X40896399Y-103776128D02*
X40753541Y-103704700D01*
X40753541Y-103704700D02*
X40682113Y-103561842D01*
X40682113Y-103561842D02*
X40682113Y-102990414D01*
X40682113Y-102990414D02*
X40753541Y-102847557D01*
X40753541Y-102847557D02*
X40896399Y-102776128D01*
X40896399Y-102776128D02*
X41182113Y-102776128D01*
X41182113Y-102776128D02*
X41324970Y-102847557D01*
X41324970Y-102847557D02*
X41396399Y-102990414D01*
X41396399Y-102990414D02*
X41396399Y-103133271D01*
X41396399Y-103133271D02*
X40682113Y-103276128D01*
X42039255Y-103776128D02*
X42039255Y-102776128D01*
X42039255Y-103061842D02*
X42110684Y-102918985D01*
X42110684Y-102918985D02*
X42182113Y-102847557D01*
X42182113Y-102847557D02*
X42324970Y-102776128D01*
X42324970Y-102776128D02*
X42467827Y-102776128D01*
D10*
D11*
X116467826Y-106576128D02*
X116467826Y-105076128D01*
X117824970Y-106576128D02*
X117824970Y-105076128D01*
X117824970Y-106504700D02*
X117682112Y-106576128D01*
X117682112Y-106576128D02*
X117396398Y-106576128D01*
X117396398Y-106576128D02*
X117253541Y-106504700D01*
X117253541Y-106504700D02*
X117182112Y-106433271D01*
X117182112Y-106433271D02*
X117110684Y-106290414D01*
X117110684Y-106290414D02*
X117110684Y-105861842D01*
X117110684Y-105861842D02*
X117182112Y-105718985D01*
X117182112Y-105718985D02*
X117253541Y-105647557D01*
X117253541Y-105647557D02*
X117396398Y-105576128D01*
X117396398Y-105576128D02*
X117682112Y-105576128D01*
X117682112Y-105576128D02*
X117824970Y-105647557D01*
X118539255Y-106433271D02*
X118610684Y-106504700D01*
X118610684Y-106504700D02*
X118539255Y-106576128D01*
X118539255Y-106576128D02*
X118467827Y-106504700D01*
X118467827Y-106504700D02*
X118539255Y-106433271D01*
X118539255Y-106433271D02*
X118539255Y-106576128D01*
X118539255Y-105647557D02*
X118610684Y-105718985D01*
X118610684Y-105718985D02*
X118539255Y-105790414D01*
X118539255Y-105790414D02*
X118467827Y-105718985D01*
X118467827Y-105718985D02*
X118539255Y-105647557D01*
X118539255Y-105647557D02*
X118539255Y-105790414D01*
X121182113Y-106576128D02*
X120324970Y-106576128D01*
X120753541Y-106576128D02*
X120753541Y-105076128D01*
X120753541Y-105076128D02*
X120610684Y-105290414D01*
X120610684Y-105290414D02*
X120467827Y-105433271D01*
X120467827Y-105433271D02*
X120324970Y-105504700D01*
X122896398Y-105004700D02*
X121610684Y-106933271D01*
X124182113Y-106576128D02*
X123324970Y-106576128D01*
X123753541Y-106576128D02*
X123753541Y-105076128D01*
X123753541Y-105076128D02*
X123610684Y-105290414D01*
X123610684Y-105290414D02*
X123467827Y-105433271D01*
X123467827Y-105433271D02*
X123324970Y-105504700D01*
D10*
D11*
X30012000Y-97490000D02*
X138012000Y-97490000D01*
D10*
D13*
X31703728Y-98194438D02*
X32846585Y-98194438D01*
X32025157Y-100194438D02*
X32275157Y-98194438D01*
X33263252Y-100194438D02*
X33429919Y-98861104D01*
X33513252Y-98194438D02*
X33406109Y-98289676D01*
X33406109Y-98289676D02*
X33489443Y-98384914D01*
X33489443Y-98384914D02*
X33596586Y-98289676D01*
X33596586Y-98289676D02*
X33513252Y-98194438D01*
X33513252Y-98194438D02*
X33489443Y-98384914D01*
X34096586Y-98861104D02*
X34858490Y-98861104D01*
X34465633Y-98194438D02*
X34251348Y-99908723D01*
X34251348Y-99908723D02*
X34322776Y-100099200D01*
X34322776Y-100099200D02*
X34501348Y-100194438D01*
X34501348Y-100194438D02*
X34691824Y-100194438D01*
X35644205Y-100194438D02*
X35465633Y-100099200D01*
X35465633Y-100099200D02*
X35394205Y-99908723D01*
X35394205Y-99908723D02*
X35608490Y-98194438D01*
X37179919Y-100099200D02*
X36977538Y-100194438D01*
X36977538Y-100194438D02*
X36596585Y-100194438D01*
X36596585Y-100194438D02*
X36418014Y-100099200D01*
X36418014Y-100099200D02*
X36346585Y-99908723D01*
X36346585Y-99908723D02*
X36441824Y-99146819D01*
X36441824Y-99146819D02*
X36560871Y-98956342D01*
X36560871Y-98956342D02*
X36763252Y-98861104D01*
X36763252Y-98861104D02*
X37144204Y-98861104D01*
X37144204Y-98861104D02*
X37322776Y-98956342D01*
X37322776Y-98956342D02*
X37394204Y-99146819D01*
X37394204Y-99146819D02*
X37370395Y-99337295D01*
X37370395Y-99337295D02*
X36394204Y-99527771D01*
X38144205Y-100003961D02*
X38227538Y-100099200D01*
X38227538Y-100099200D02*
X38120395Y-100194438D01*
X38120395Y-100194438D02*
X38037062Y-100099200D01*
X38037062Y-100099200D02*
X38144205Y-100003961D01*
X38144205Y-100003961D02*
X38120395Y-100194438D01*
X38275157Y-98956342D02*
X38358490Y-99051580D01*
X38358490Y-99051580D02*
X38251348Y-99146819D01*
X38251348Y-99146819D02*
X38168014Y-99051580D01*
X38168014Y-99051580D02*
X38275157Y-98956342D01*
X38275157Y-98956342D02*
X38251348Y-99146819D01*
X40596586Y-100194438D02*
X40846586Y-98194438D01*
X40846586Y-98194438D02*
X41739443Y-100194438D01*
X41739443Y-100194438D02*
X41989443Y-98194438D01*
X42822777Y-99146819D02*
X43489443Y-99146819D01*
X43644205Y-100194438D02*
X42691824Y-100194438D01*
X42691824Y-100194438D02*
X42941824Y-98194438D01*
X42941824Y-98194438D02*
X43894205Y-98194438D01*
X45644205Y-100194438D02*
X45096586Y-99242057D01*
X44501348Y-100194438D02*
X44751348Y-98194438D01*
X44751348Y-98194438D02*
X45513253Y-98194438D01*
X45513253Y-98194438D02*
X45691824Y-98289676D01*
X45691824Y-98289676D02*
X45775158Y-98384914D01*
X45775158Y-98384914D02*
X45846586Y-98575390D01*
X45846586Y-98575390D02*
X45810872Y-98861104D01*
X45810872Y-98861104D02*
X45691824Y-99051580D01*
X45691824Y-99051580D02*
X45584682Y-99146819D01*
X45584682Y-99146819D02*
X45382301Y-99242057D01*
X45382301Y-99242057D02*
X44620396Y-99242057D01*
X46465634Y-98194438D02*
X46882301Y-100194438D01*
X46882301Y-100194438D02*
X47798967Y-98194438D01*
X48846587Y-98194438D02*
X49227539Y-98194438D01*
X49227539Y-98194438D02*
X49406110Y-98289676D01*
X49406110Y-98289676D02*
X49572777Y-98480152D01*
X49572777Y-98480152D02*
X49620396Y-98861104D01*
X49620396Y-98861104D02*
X49537063Y-99527771D01*
X49537063Y-99527771D02*
X49394206Y-99908723D01*
X49394206Y-99908723D02*
X49179920Y-100099200D01*
X49179920Y-100099200D02*
X48977539Y-100194438D01*
X48977539Y-100194438D02*
X48596587Y-100194438D01*
X48596587Y-100194438D02*
X48418015Y-100099200D01*
X48418015Y-100099200D02*
X48251349Y-99908723D01*
X48251349Y-99908723D02*
X48203729Y-99527771D01*
X48203729Y-99527771D02*
X48287063Y-98861104D01*
X48287063Y-98861104D02*
X48429920Y-98480152D01*
X48429920Y-98480152D02*
X48644206Y-98289676D01*
X48644206Y-98289676D02*
X48846587Y-98194438D01*
X50560872Y-98194438D02*
X50358491Y-99813485D01*
X50358491Y-99813485D02*
X50429920Y-100003961D01*
X50429920Y-100003961D02*
X50513253Y-100099200D01*
X50513253Y-100099200D02*
X50691825Y-100194438D01*
X50691825Y-100194438D02*
X51072777Y-100194438D01*
X51072777Y-100194438D02*
X51275158Y-100099200D01*
X51275158Y-100099200D02*
X51382301Y-100003961D01*
X51382301Y-100003961D02*
X51501348Y-99813485D01*
X51501348Y-99813485D02*
X51703729Y-98194438D01*
X52322777Y-100099200D02*
X52596586Y-100194438D01*
X52596586Y-100194438D02*
X53072777Y-100194438D01*
X53072777Y-100194438D02*
X53275158Y-100099200D01*
X53275158Y-100099200D02*
X53382301Y-100003961D01*
X53382301Y-100003961D02*
X53501348Y-99813485D01*
X53501348Y-99813485D02*
X53525158Y-99623009D01*
X53525158Y-99623009D02*
X53453729Y-99432533D01*
X53453729Y-99432533D02*
X53370396Y-99337295D01*
X53370396Y-99337295D02*
X53191825Y-99242057D01*
X53191825Y-99242057D02*
X52822777Y-99146819D01*
X52822777Y-99146819D02*
X52644205Y-99051580D01*
X52644205Y-99051580D02*
X52560872Y-98956342D01*
X52560872Y-98956342D02*
X52489444Y-98765866D01*
X52489444Y-98765866D02*
X52513253Y-98575390D01*
X52513253Y-98575390D02*
X52632301Y-98384914D01*
X52632301Y-98384914D02*
X52739444Y-98289676D01*
X52739444Y-98289676D02*
X52941825Y-98194438D01*
X52941825Y-98194438D02*
X53418015Y-98194438D01*
X53418015Y-98194438D02*
X53691825Y-98289676D01*
X55929920Y-99432533D02*
X57453730Y-99432533D01*
X59965635Y-99146819D02*
X60632301Y-99146819D01*
X60787063Y-100194438D02*
X59834682Y-100194438D01*
X59834682Y-100194438D02*
X60084682Y-98194438D01*
X60084682Y-98194438D02*
X61037063Y-98194438D01*
X61644206Y-100194438D02*
X61894206Y-98194438D01*
X61894206Y-98194438D02*
X62370397Y-98194438D01*
X62370397Y-98194438D02*
X62644206Y-98289676D01*
X62644206Y-98289676D02*
X62810873Y-98480152D01*
X62810873Y-98480152D02*
X62882301Y-98670628D01*
X62882301Y-98670628D02*
X62929921Y-99051580D01*
X62929921Y-99051580D02*
X62894206Y-99337295D01*
X62894206Y-99337295D02*
X62751349Y-99718247D01*
X62751349Y-99718247D02*
X62632301Y-99908723D01*
X62632301Y-99908723D02*
X62418016Y-100099200D01*
X62418016Y-100099200D02*
X62120397Y-100194438D01*
X62120397Y-100194438D02*
X61644206Y-100194438D01*
X63620397Y-99623009D02*
X64572778Y-99623009D01*
X63358492Y-100194438D02*
X64275159Y-98194438D01*
X64275159Y-98194438D02*
X64691825Y-100194438D01*
X66798969Y-100099200D02*
X67072778Y-100194438D01*
X67072778Y-100194438D02*
X67548969Y-100194438D01*
X67548969Y-100194438D02*
X67751350Y-100099200D01*
X67751350Y-100099200D02*
X67858493Y-100003961D01*
X67858493Y-100003961D02*
X67977540Y-99813485D01*
X67977540Y-99813485D02*
X68001350Y-99623009D01*
X68001350Y-99623009D02*
X67929921Y-99432533D01*
X67929921Y-99432533D02*
X67846588Y-99337295D01*
X67846588Y-99337295D02*
X67668017Y-99242057D01*
X67668017Y-99242057D02*
X67298969Y-99146819D01*
X67298969Y-99146819D02*
X67120397Y-99051580D01*
X67120397Y-99051580D02*
X67037064Y-98956342D01*
X67037064Y-98956342D02*
X66965636Y-98765866D01*
X66965636Y-98765866D02*
X66989445Y-98575390D01*
X66989445Y-98575390D02*
X67108493Y-98384914D01*
X67108493Y-98384914D02*
X67215636Y-98289676D01*
X67215636Y-98289676D02*
X67418017Y-98194438D01*
X67418017Y-98194438D02*
X67894207Y-98194438D01*
X67894207Y-98194438D02*
X68168017Y-98289676D01*
X69560874Y-100099200D02*
X69358493Y-100194438D01*
X69358493Y-100194438D02*
X68977540Y-100194438D01*
X68977540Y-100194438D02*
X68798969Y-100099200D01*
X68798969Y-100099200D02*
X68727540Y-99908723D01*
X68727540Y-99908723D02*
X68822779Y-99146819D01*
X68822779Y-99146819D02*
X68941826Y-98956342D01*
X68941826Y-98956342D02*
X69144207Y-98861104D01*
X69144207Y-98861104D02*
X69525159Y-98861104D01*
X69525159Y-98861104D02*
X69703731Y-98956342D01*
X69703731Y-98956342D02*
X69775159Y-99146819D01*
X69775159Y-99146819D02*
X69751350Y-99337295D01*
X69751350Y-99337295D02*
X68775159Y-99527771D01*
X70668017Y-98861104D02*
X70501350Y-100194438D01*
X70644207Y-99051580D02*
X70751350Y-98956342D01*
X70751350Y-98956342D02*
X70953731Y-98861104D01*
X70953731Y-98861104D02*
X71239445Y-98861104D01*
X71239445Y-98861104D02*
X71418017Y-98956342D01*
X71418017Y-98956342D02*
X71489445Y-99146819D01*
X71489445Y-99146819D02*
X71358493Y-100194438D01*
X72227541Y-100099200D02*
X72406112Y-100194438D01*
X72406112Y-100194438D02*
X72787065Y-100194438D01*
X72787065Y-100194438D02*
X72989446Y-100099200D01*
X72989446Y-100099200D02*
X73108493Y-99908723D01*
X73108493Y-99908723D02*
X73120398Y-99813485D01*
X73120398Y-99813485D02*
X73048969Y-99623009D01*
X73048969Y-99623009D02*
X72870398Y-99527771D01*
X72870398Y-99527771D02*
X72584684Y-99527771D01*
X72584684Y-99527771D02*
X72406112Y-99432533D01*
X72406112Y-99432533D02*
X72334684Y-99242057D01*
X72334684Y-99242057D02*
X72346589Y-99146819D01*
X72346589Y-99146819D02*
X72465636Y-98956342D01*
X72465636Y-98956342D02*
X72668017Y-98861104D01*
X72668017Y-98861104D02*
X72953731Y-98861104D01*
X72953731Y-98861104D02*
X73132303Y-98956342D01*
X74215637Y-100194438D02*
X74037065Y-100099200D01*
X74037065Y-100099200D02*
X73953732Y-100003961D01*
X73953732Y-100003961D02*
X73882303Y-99813485D01*
X73882303Y-99813485D02*
X73953732Y-99242057D01*
X73953732Y-99242057D02*
X74072779Y-99051580D01*
X74072779Y-99051580D02*
X74179922Y-98956342D01*
X74179922Y-98956342D02*
X74382303Y-98861104D01*
X74382303Y-98861104D02*
X74668017Y-98861104D01*
X74668017Y-98861104D02*
X74846589Y-98956342D01*
X74846589Y-98956342D02*
X74929922Y-99051580D01*
X74929922Y-99051580D02*
X75001351Y-99242057D01*
X75001351Y-99242057D02*
X74929922Y-99813485D01*
X74929922Y-99813485D02*
X74810875Y-100003961D01*
X74810875Y-100003961D02*
X74703732Y-100099200D01*
X74703732Y-100099200D02*
X74501351Y-100194438D01*
X74501351Y-100194438D02*
X74215637Y-100194438D01*
X75739446Y-100194438D02*
X75906113Y-98861104D01*
X75858494Y-99242057D02*
X75977541Y-99051580D01*
X75977541Y-99051580D02*
X76084684Y-98956342D01*
X76084684Y-98956342D02*
X76287065Y-98861104D01*
X76287065Y-98861104D02*
X76477541Y-98861104D01*
D10*
D11*
X31967826Y-95590414D02*
X31467826Y-95590414D01*
X31467826Y-96376128D02*
X31467826Y-94876128D01*
X31467826Y-94876128D02*
X32182112Y-94876128D01*
X32753540Y-96376128D02*
X32753540Y-95376128D01*
X32753540Y-94876128D02*
X32682112Y-94947557D01*
X32682112Y-94947557D02*
X32753540Y-95018985D01*
X32753540Y-95018985D02*
X32824969Y-94947557D01*
X32824969Y-94947557D02*
X32753540Y-94876128D01*
X32753540Y-94876128D02*
X32753540Y-95018985D01*
X33682112Y-96376128D02*
X33539255Y-96304700D01*
X33539255Y-96304700D02*
X33467826Y-96161842D01*
X33467826Y-96161842D02*
X33467826Y-94876128D01*
X34824969Y-96304700D02*
X34682112Y-96376128D01*
X34682112Y-96376128D02*
X34396398Y-96376128D01*
X34396398Y-96376128D02*
X34253540Y-96304700D01*
X34253540Y-96304700D02*
X34182112Y-96161842D01*
X34182112Y-96161842D02*
X34182112Y-95590414D01*
X34182112Y-95590414D02*
X34253540Y-95447557D01*
X34253540Y-95447557D02*
X34396398Y-95376128D01*
X34396398Y-95376128D02*
X34682112Y-95376128D01*
X34682112Y-95376128D02*
X34824969Y-95447557D01*
X34824969Y-95447557D02*
X34896398Y-95590414D01*
X34896398Y-95590414D02*
X34896398Y-95733271D01*
X34896398Y-95733271D02*
X34182112Y-95876128D01*
X35539254Y-96233271D02*
X35610683Y-96304700D01*
X35610683Y-96304700D02*
X35539254Y-96376128D01*
X35539254Y-96376128D02*
X35467826Y-96304700D01*
X35467826Y-96304700D02*
X35539254Y-96233271D01*
X35539254Y-96233271D02*
X35539254Y-96376128D01*
X35539254Y-95447557D02*
X35610683Y-95518985D01*
X35610683Y-95518985D02*
X35539254Y-95590414D01*
X35539254Y-95590414D02*
X35467826Y-95518985D01*
X35467826Y-95518985D02*
X35539254Y-95447557D01*
X35539254Y-95447557D02*
X35539254Y-95590414D01*
X37396397Y-95376128D02*
X37396397Y-96376128D01*
X37396397Y-95518985D02*
X37467826Y-95447557D01*
X37467826Y-95447557D02*
X37610683Y-95376128D01*
X37610683Y-95376128D02*
X37824969Y-95376128D01*
X37824969Y-95376128D02*
X37967826Y-95447557D01*
X37967826Y-95447557D02*
X38039255Y-95590414D01*
X38039255Y-95590414D02*
X38039255Y-96376128D01*
X39324969Y-96304700D02*
X39182112Y-96376128D01*
X39182112Y-96376128D02*
X38896398Y-96376128D01*
X38896398Y-96376128D02*
X38753540Y-96304700D01*
X38753540Y-96304700D02*
X38682112Y-96161842D01*
X38682112Y-96161842D02*
X38682112Y-95590414D01*
X38682112Y-95590414D02*
X38753540Y-95447557D01*
X38753540Y-95447557D02*
X38896398Y-95376128D01*
X38896398Y-95376128D02*
X39182112Y-95376128D01*
X39182112Y-95376128D02*
X39324969Y-95447557D01*
X39324969Y-95447557D02*
X39396398Y-95590414D01*
X39396398Y-95590414D02*
X39396398Y-95733271D01*
X39396398Y-95733271D02*
X38682112Y-95876128D01*
X40039254Y-96376128D02*
X40039254Y-95376128D01*
X40039254Y-95661842D02*
X40110683Y-95518985D01*
X40110683Y-95518985D02*
X40182112Y-95447557D01*
X40182112Y-95447557D02*
X40324969Y-95376128D01*
X40324969Y-95376128D02*
X40467826Y-95376128D01*
X40824968Y-95376128D02*
X41182111Y-96376128D01*
X41182111Y-96376128D02*
X41539254Y-95376128D01*
X42324968Y-96376128D02*
X42182111Y-96304700D01*
X42182111Y-96304700D02*
X42110682Y-96233271D01*
X42110682Y-96233271D02*
X42039254Y-96090414D01*
X42039254Y-96090414D02*
X42039254Y-95661842D01*
X42039254Y-95661842D02*
X42110682Y-95518985D01*
X42110682Y-95518985D02*
X42182111Y-95447557D01*
X42182111Y-95447557D02*
X42324968Y-95376128D01*
X42324968Y-95376128D02*
X42539254Y-95376128D01*
X42539254Y-95376128D02*
X42682111Y-95447557D01*
X42682111Y-95447557D02*
X42753540Y-95518985D01*
X42753540Y-95518985D02*
X42824968Y-95661842D01*
X42824968Y-95661842D02*
X42824968Y-96090414D01*
X42824968Y-96090414D02*
X42753540Y-96233271D01*
X42753540Y-96233271D02*
X42682111Y-96304700D01*
X42682111Y-96304700D02*
X42539254Y-96376128D01*
X42539254Y-96376128D02*
X42324968Y-96376128D01*
X44110683Y-95376128D02*
X44110683Y-96376128D01*
X43467825Y-95376128D02*
X43467825Y-96161842D01*
X43467825Y-96161842D02*
X43539254Y-96304700D01*
X43539254Y-96304700D02*
X43682111Y-96376128D01*
X43682111Y-96376128D02*
X43896397Y-96376128D01*
X43896397Y-96376128D02*
X44039254Y-96304700D01*
X44039254Y-96304700D02*
X44110683Y-96233271D01*
X44753540Y-96304700D02*
X44896397Y-96376128D01*
X44896397Y-96376128D02*
X45182111Y-96376128D01*
X45182111Y-96376128D02*
X45324968Y-96304700D01*
X45324968Y-96304700D02*
X45396397Y-96161842D01*
X45396397Y-96161842D02*
X45396397Y-96090414D01*
X45396397Y-96090414D02*
X45324968Y-95947557D01*
X45324968Y-95947557D02*
X45182111Y-95876128D01*
X45182111Y-95876128D02*
X44967826Y-95876128D01*
X44967826Y-95876128D02*
X44824968Y-95804700D01*
X44824968Y-95804700D02*
X44753540Y-95661842D01*
X44753540Y-95661842D02*
X44753540Y-95590414D01*
X44753540Y-95590414D02*
X44824968Y-95447557D01*
X44824968Y-95447557D02*
X44967826Y-95376128D01*
X44967826Y-95376128D02*
X45182111Y-95376128D01*
X45182111Y-95376128D02*
X45324968Y-95447557D01*
X46039254Y-95804700D02*
X47182112Y-95804700D01*
X48467826Y-96304700D02*
X48324969Y-96376128D01*
X48324969Y-96376128D02*
X48039255Y-96376128D01*
X48039255Y-96376128D02*
X47896397Y-96304700D01*
X47896397Y-96304700D02*
X47824969Y-96161842D01*
X47824969Y-96161842D02*
X47824969Y-95590414D01*
X47824969Y-95590414D02*
X47896397Y-95447557D01*
X47896397Y-95447557D02*
X48039255Y-95376128D01*
X48039255Y-95376128D02*
X48324969Y-95376128D01*
X48324969Y-95376128D02*
X48467826Y-95447557D01*
X48467826Y-95447557D02*
X48539255Y-95590414D01*
X48539255Y-95590414D02*
X48539255Y-95733271D01*
X48539255Y-95733271D02*
X47824969Y-95876128D01*
X49824969Y-96376128D02*
X49824969Y-94876128D01*
X49824969Y-96304700D02*
X49682111Y-96376128D01*
X49682111Y-96376128D02*
X49396397Y-96376128D01*
X49396397Y-96376128D02*
X49253540Y-96304700D01*
X49253540Y-96304700D02*
X49182111Y-96233271D01*
X49182111Y-96233271D02*
X49110683Y-96090414D01*
X49110683Y-96090414D02*
X49110683Y-95661842D01*
X49110683Y-95661842D02*
X49182111Y-95518985D01*
X49182111Y-95518985D02*
X49253540Y-95447557D01*
X49253540Y-95447557D02*
X49396397Y-95376128D01*
X49396397Y-95376128D02*
X49682111Y-95376128D01*
X49682111Y-95376128D02*
X49824969Y-95447557D01*
X51182112Y-96376128D02*
X51182112Y-95590414D01*
X51182112Y-95590414D02*
X51110683Y-95447557D01*
X51110683Y-95447557D02*
X50967826Y-95376128D01*
X50967826Y-95376128D02*
X50682112Y-95376128D01*
X50682112Y-95376128D02*
X50539254Y-95447557D01*
X51182112Y-96304700D02*
X51039254Y-96376128D01*
X51039254Y-96376128D02*
X50682112Y-96376128D01*
X50682112Y-96376128D02*
X50539254Y-96304700D01*
X50539254Y-96304700D02*
X50467826Y-96161842D01*
X50467826Y-96161842D02*
X50467826Y-96018985D01*
X50467826Y-96018985D02*
X50539254Y-95876128D01*
X50539254Y-95876128D02*
X50682112Y-95804700D01*
X50682112Y-95804700D02*
X51039254Y-95804700D01*
X51039254Y-95804700D02*
X51182112Y-95733271D01*
X51896397Y-96233271D02*
X51967826Y-96304700D01*
X51967826Y-96304700D02*
X51896397Y-96376128D01*
X51896397Y-96376128D02*
X51824969Y-96304700D01*
X51824969Y-96304700D02*
X51896397Y-96233271D01*
X51896397Y-96233271D02*
X51896397Y-96376128D01*
X52610683Y-96376128D02*
X52610683Y-94876128D01*
X52753541Y-95804700D02*
X53182112Y-96376128D01*
X53182112Y-95376128D02*
X52610683Y-95947557D01*
X53824969Y-96376128D02*
X53824969Y-95376128D01*
X53824969Y-94876128D02*
X53753541Y-94947557D01*
X53753541Y-94947557D02*
X53824969Y-95018985D01*
X53824969Y-95018985D02*
X53896398Y-94947557D01*
X53896398Y-94947557D02*
X53824969Y-94876128D01*
X53824969Y-94876128D02*
X53824969Y-95018985D01*
X55182113Y-96304700D02*
X55039255Y-96376128D01*
X55039255Y-96376128D02*
X54753541Y-96376128D01*
X54753541Y-96376128D02*
X54610684Y-96304700D01*
X54610684Y-96304700D02*
X54539255Y-96233271D01*
X54539255Y-96233271D02*
X54467827Y-96090414D01*
X54467827Y-96090414D02*
X54467827Y-95661842D01*
X54467827Y-95661842D02*
X54539255Y-95518985D01*
X54539255Y-95518985D02*
X54610684Y-95447557D01*
X54610684Y-95447557D02*
X54753541Y-95376128D01*
X54753541Y-95376128D02*
X55039255Y-95376128D01*
X55039255Y-95376128D02*
X55182113Y-95447557D01*
X56467827Y-96376128D02*
X56467827Y-95590414D01*
X56467827Y-95590414D02*
X56396398Y-95447557D01*
X56396398Y-95447557D02*
X56253541Y-95376128D01*
X56253541Y-95376128D02*
X55967827Y-95376128D01*
X55967827Y-95376128D02*
X55824969Y-95447557D01*
X56467827Y-96304700D02*
X56324969Y-96376128D01*
X56324969Y-96376128D02*
X55967827Y-96376128D01*
X55967827Y-96376128D02*
X55824969Y-96304700D01*
X55824969Y-96304700D02*
X55753541Y-96161842D01*
X55753541Y-96161842D02*
X55753541Y-96018985D01*
X55753541Y-96018985D02*
X55824969Y-95876128D01*
X55824969Y-95876128D02*
X55967827Y-95804700D01*
X55967827Y-95804700D02*
X56324969Y-95804700D01*
X56324969Y-95804700D02*
X56467827Y-95733271D01*
X57824970Y-96376128D02*
X57824970Y-94876128D01*
X57824970Y-96304700D02*
X57682112Y-96376128D01*
X57682112Y-96376128D02*
X57396398Y-96376128D01*
X57396398Y-96376128D02*
X57253541Y-96304700D01*
X57253541Y-96304700D02*
X57182112Y-96233271D01*
X57182112Y-96233271D02*
X57110684Y-96090414D01*
X57110684Y-96090414D02*
X57110684Y-95661842D01*
X57110684Y-95661842D02*
X57182112Y-95518985D01*
X57182112Y-95518985D02*
X57253541Y-95447557D01*
X57253541Y-95447557D02*
X57396398Y-95376128D01*
X57396398Y-95376128D02*
X57682112Y-95376128D01*
X57682112Y-95376128D02*
X57824970Y-95447557D01*
X58182113Y-96518985D02*
X59324970Y-96518985D01*
X59682112Y-95376128D02*
X59682112Y-96876128D01*
X59682112Y-95447557D02*
X59824970Y-95376128D01*
X59824970Y-95376128D02*
X60110684Y-95376128D01*
X60110684Y-95376128D02*
X60253541Y-95447557D01*
X60253541Y-95447557D02*
X60324970Y-95518985D01*
X60324970Y-95518985D02*
X60396398Y-95661842D01*
X60396398Y-95661842D02*
X60396398Y-96090414D01*
X60396398Y-96090414D02*
X60324970Y-96233271D01*
X60324970Y-96233271D02*
X60253541Y-96304700D01*
X60253541Y-96304700D02*
X60110684Y-96376128D01*
X60110684Y-96376128D02*
X59824970Y-96376128D01*
X59824970Y-96376128D02*
X59682112Y-96304700D01*
X61682113Y-96304700D02*
X61539255Y-96376128D01*
X61539255Y-96376128D02*
X61253541Y-96376128D01*
X61253541Y-96376128D02*
X61110684Y-96304700D01*
X61110684Y-96304700D02*
X61039255Y-96233271D01*
X61039255Y-96233271D02*
X60967827Y-96090414D01*
X60967827Y-96090414D02*
X60967827Y-95661842D01*
X60967827Y-95661842D02*
X61039255Y-95518985D01*
X61039255Y-95518985D02*
X61110684Y-95447557D01*
X61110684Y-95447557D02*
X61253541Y-95376128D01*
X61253541Y-95376128D02*
X61539255Y-95376128D01*
X61539255Y-95376128D02*
X61682113Y-95447557D01*
X62324969Y-96376128D02*
X62324969Y-94876128D01*
X62324969Y-95447557D02*
X62467827Y-95376128D01*
X62467827Y-95376128D02*
X62753541Y-95376128D01*
X62753541Y-95376128D02*
X62896398Y-95447557D01*
X62896398Y-95447557D02*
X62967827Y-95518985D01*
X62967827Y-95518985D02*
X63039255Y-95661842D01*
X63039255Y-95661842D02*
X63039255Y-96090414D01*
X63039255Y-96090414D02*
X62967827Y-96233271D01*
X62967827Y-96233271D02*
X62896398Y-96304700D01*
X62896398Y-96304700D02*
X62753541Y-96376128D01*
X62753541Y-96376128D02*
X62467827Y-96376128D01*
X62467827Y-96376128D02*
X62324969Y-96304700D01*
D10*
D11*
X30012000Y-91490000D02*
X138012000Y-91490000D01*
D10*
D11*
X31396398Y-93604700D02*
X31610684Y-93676128D01*
X31610684Y-93676128D02*
X31967826Y-93676128D01*
X31967826Y-93676128D02*
X32110684Y-93604700D01*
X32110684Y-93604700D02*
X32182112Y-93533271D01*
X32182112Y-93533271D02*
X32253541Y-93390414D01*
X32253541Y-93390414D02*
X32253541Y-93247557D01*
X32253541Y-93247557D02*
X32182112Y-93104700D01*
X32182112Y-93104700D02*
X32110684Y-93033271D01*
X32110684Y-93033271D02*
X31967826Y-92961842D01*
X31967826Y-92961842D02*
X31682112Y-92890414D01*
X31682112Y-92890414D02*
X31539255Y-92818985D01*
X31539255Y-92818985D02*
X31467826Y-92747557D01*
X31467826Y-92747557D02*
X31396398Y-92604700D01*
X31396398Y-92604700D02*
X31396398Y-92461842D01*
X31396398Y-92461842D02*
X31467826Y-92318985D01*
X31467826Y-92318985D02*
X31539255Y-92247557D01*
X31539255Y-92247557D02*
X31682112Y-92176128D01*
X31682112Y-92176128D02*
X32039255Y-92176128D01*
X32039255Y-92176128D02*
X32253541Y-92247557D01*
X32896397Y-93676128D02*
X32896397Y-92176128D01*
X33539255Y-93676128D02*
X33539255Y-92890414D01*
X33539255Y-92890414D02*
X33467826Y-92747557D01*
X33467826Y-92747557D02*
X33324969Y-92676128D01*
X33324969Y-92676128D02*
X33110683Y-92676128D01*
X33110683Y-92676128D02*
X32967826Y-92747557D01*
X32967826Y-92747557D02*
X32896397Y-92818985D01*
X34824969Y-93604700D02*
X34682112Y-93676128D01*
X34682112Y-93676128D02*
X34396398Y-93676128D01*
X34396398Y-93676128D02*
X34253540Y-93604700D01*
X34253540Y-93604700D02*
X34182112Y-93461842D01*
X34182112Y-93461842D02*
X34182112Y-92890414D01*
X34182112Y-92890414D02*
X34253540Y-92747557D01*
X34253540Y-92747557D02*
X34396398Y-92676128D01*
X34396398Y-92676128D02*
X34682112Y-92676128D01*
X34682112Y-92676128D02*
X34824969Y-92747557D01*
X34824969Y-92747557D02*
X34896398Y-92890414D01*
X34896398Y-92890414D02*
X34896398Y-93033271D01*
X34896398Y-93033271D02*
X34182112Y-93176128D01*
X36110683Y-93604700D02*
X35967826Y-93676128D01*
X35967826Y-93676128D02*
X35682112Y-93676128D01*
X35682112Y-93676128D02*
X35539254Y-93604700D01*
X35539254Y-93604700D02*
X35467826Y-93461842D01*
X35467826Y-93461842D02*
X35467826Y-92890414D01*
X35467826Y-92890414D02*
X35539254Y-92747557D01*
X35539254Y-92747557D02*
X35682112Y-92676128D01*
X35682112Y-92676128D02*
X35967826Y-92676128D01*
X35967826Y-92676128D02*
X36110683Y-92747557D01*
X36110683Y-92747557D02*
X36182112Y-92890414D01*
X36182112Y-92890414D02*
X36182112Y-93033271D01*
X36182112Y-93033271D02*
X35467826Y-93176128D01*
X36610683Y-92676128D02*
X37182111Y-92676128D01*
X36824968Y-92176128D02*
X36824968Y-93461842D01*
X36824968Y-93461842D02*
X36896397Y-93604700D01*
X36896397Y-93604700D02*
X37039254Y-93676128D01*
X37039254Y-93676128D02*
X37182111Y-93676128D01*
X37682111Y-93533271D02*
X37753540Y-93604700D01*
X37753540Y-93604700D02*
X37682111Y-93676128D01*
X37682111Y-93676128D02*
X37610683Y-93604700D01*
X37610683Y-93604700D02*
X37682111Y-93533271D01*
X37682111Y-93533271D02*
X37682111Y-93676128D01*
X37682111Y-92747557D02*
X37753540Y-92818985D01*
X37753540Y-92818985D02*
X37682111Y-92890414D01*
X37682111Y-92890414D02*
X37610683Y-92818985D01*
X37610683Y-92818985D02*
X37682111Y-92747557D01*
X37682111Y-92747557D02*
X37682111Y-92890414D01*
D10*
D11*
X32324969Y-87533271D02*
X32253541Y-87604700D01*
X32253541Y-87604700D02*
X32039255Y-87676128D01*
X32039255Y-87676128D02*
X31896398Y-87676128D01*
X31896398Y-87676128D02*
X31682112Y-87604700D01*
X31682112Y-87604700D02*
X31539255Y-87461842D01*
X31539255Y-87461842D02*
X31467826Y-87318985D01*
X31467826Y-87318985D02*
X31396398Y-87033271D01*
X31396398Y-87033271D02*
X31396398Y-86818985D01*
X31396398Y-86818985D02*
X31467826Y-86533271D01*
X31467826Y-86533271D02*
X31539255Y-86390414D01*
X31539255Y-86390414D02*
X31682112Y-86247557D01*
X31682112Y-86247557D02*
X31896398Y-86176128D01*
X31896398Y-86176128D02*
X32039255Y-86176128D01*
X32039255Y-86176128D02*
X32253541Y-86247557D01*
X32253541Y-86247557D02*
X32324969Y-86318985D01*
X33182112Y-87676128D02*
X33039255Y-87604700D01*
X33039255Y-87604700D02*
X32967826Y-87533271D01*
X32967826Y-87533271D02*
X32896398Y-87390414D01*
X32896398Y-87390414D02*
X32896398Y-86961842D01*
X32896398Y-86961842D02*
X32967826Y-86818985D01*
X32967826Y-86818985D02*
X33039255Y-86747557D01*
X33039255Y-86747557D02*
X33182112Y-86676128D01*
X33182112Y-86676128D02*
X33396398Y-86676128D01*
X33396398Y-86676128D02*
X33539255Y-86747557D01*
X33539255Y-86747557D02*
X33610684Y-86818985D01*
X33610684Y-86818985D02*
X33682112Y-86961842D01*
X33682112Y-86961842D02*
X33682112Y-87390414D01*
X33682112Y-87390414D02*
X33610684Y-87533271D01*
X33610684Y-87533271D02*
X33539255Y-87604700D01*
X33539255Y-87604700D02*
X33396398Y-87676128D01*
X33396398Y-87676128D02*
X33182112Y-87676128D01*
X34324969Y-86676128D02*
X34324969Y-88176128D01*
X34324969Y-86747557D02*
X34467827Y-86676128D01*
X34467827Y-86676128D02*
X34753541Y-86676128D01*
X34753541Y-86676128D02*
X34896398Y-86747557D01*
X34896398Y-86747557D02*
X34967827Y-86818985D01*
X34967827Y-86818985D02*
X35039255Y-86961842D01*
X35039255Y-86961842D02*
X35039255Y-87390414D01*
X35039255Y-87390414D02*
X34967827Y-87533271D01*
X34967827Y-87533271D02*
X34896398Y-87604700D01*
X34896398Y-87604700D02*
X34753541Y-87676128D01*
X34753541Y-87676128D02*
X34467827Y-87676128D01*
X34467827Y-87676128D02*
X34324969Y-87604700D01*
X35539255Y-86676128D02*
X35896398Y-87676128D01*
X36253541Y-86676128D02*
X35896398Y-87676128D01*
X35896398Y-87676128D02*
X35753541Y-88033271D01*
X35753541Y-88033271D02*
X35682112Y-88104700D01*
X35682112Y-88104700D02*
X35539255Y-88176128D01*
X36824969Y-87676128D02*
X36824969Y-86676128D01*
X36824969Y-86961842D02*
X36896398Y-86818985D01*
X36896398Y-86818985D02*
X36967827Y-86747557D01*
X36967827Y-86747557D02*
X37110684Y-86676128D01*
X37110684Y-86676128D02*
X37253541Y-86676128D01*
X37753540Y-87676128D02*
X37753540Y-86676128D01*
X37753540Y-86176128D02*
X37682112Y-86247557D01*
X37682112Y-86247557D02*
X37753540Y-86318985D01*
X37753540Y-86318985D02*
X37824969Y-86247557D01*
X37824969Y-86247557D02*
X37753540Y-86176128D01*
X37753540Y-86176128D02*
X37753540Y-86318985D01*
X39110684Y-86676128D02*
X39110684Y-87890414D01*
X39110684Y-87890414D02*
X39039255Y-88033271D01*
X39039255Y-88033271D02*
X38967826Y-88104700D01*
X38967826Y-88104700D02*
X38824969Y-88176128D01*
X38824969Y-88176128D02*
X38610684Y-88176128D01*
X38610684Y-88176128D02*
X38467826Y-88104700D01*
X39110684Y-87604700D02*
X38967826Y-87676128D01*
X38967826Y-87676128D02*
X38682112Y-87676128D01*
X38682112Y-87676128D02*
X38539255Y-87604700D01*
X38539255Y-87604700D02*
X38467826Y-87533271D01*
X38467826Y-87533271D02*
X38396398Y-87390414D01*
X38396398Y-87390414D02*
X38396398Y-86961842D01*
X38396398Y-86961842D02*
X38467826Y-86818985D01*
X38467826Y-86818985D02*
X38539255Y-86747557D01*
X38539255Y-86747557D02*
X38682112Y-86676128D01*
X38682112Y-86676128D02*
X38967826Y-86676128D01*
X38967826Y-86676128D02*
X39110684Y-86747557D01*
X39824969Y-87676128D02*
X39824969Y-86176128D01*
X40467827Y-87676128D02*
X40467827Y-86890414D01*
X40467827Y-86890414D02*
X40396398Y-86747557D01*
X40396398Y-86747557D02*
X40253541Y-86676128D01*
X40253541Y-86676128D02*
X40039255Y-86676128D01*
X40039255Y-86676128D02*
X39896398Y-86747557D01*
X39896398Y-86747557D02*
X39824969Y-86818985D01*
X40967827Y-86676128D02*
X41539255Y-86676128D01*
X41182112Y-86176128D02*
X41182112Y-87461842D01*
X41182112Y-87461842D02*
X41253541Y-87604700D01*
X41253541Y-87604700D02*
X41396398Y-87676128D01*
X41396398Y-87676128D02*
X41539255Y-87676128D01*
X43610684Y-88247557D02*
X43539255Y-88176128D01*
X43539255Y-88176128D02*
X43396398Y-87961842D01*
X43396398Y-87961842D02*
X43324970Y-87818985D01*
X43324970Y-87818985D02*
X43253541Y-87604700D01*
X43253541Y-87604700D02*
X43182112Y-87247557D01*
X43182112Y-87247557D02*
X43182112Y-86961842D01*
X43182112Y-86961842D02*
X43253541Y-86604700D01*
X43253541Y-86604700D02*
X43324970Y-86390414D01*
X43324970Y-86390414D02*
X43396398Y-86247557D01*
X43396398Y-86247557D02*
X43539255Y-86033271D01*
X43539255Y-86033271D02*
X43610684Y-85961842D01*
X44824970Y-87604700D02*
X44682112Y-87676128D01*
X44682112Y-87676128D02*
X44396398Y-87676128D01*
X44396398Y-87676128D02*
X44253541Y-87604700D01*
X44253541Y-87604700D02*
X44182112Y-87533271D01*
X44182112Y-87533271D02*
X44110684Y-87390414D01*
X44110684Y-87390414D02*
X44110684Y-86961842D01*
X44110684Y-86961842D02*
X44182112Y-86818985D01*
X44182112Y-86818985D02*
X44253541Y-86747557D01*
X44253541Y-86747557D02*
X44396398Y-86676128D01*
X44396398Y-86676128D02*
X44682112Y-86676128D01*
X44682112Y-86676128D02*
X44824970Y-86747557D01*
X45324969Y-88247557D02*
X45396398Y-88176128D01*
X45396398Y-88176128D02*
X45539255Y-87961842D01*
X45539255Y-87961842D02*
X45610684Y-87818985D01*
X45610684Y-87818985D02*
X45682112Y-87604700D01*
X45682112Y-87604700D02*
X45753541Y-87247557D01*
X45753541Y-87247557D02*
X45753541Y-86961842D01*
X45753541Y-86961842D02*
X45682112Y-86604700D01*
X45682112Y-86604700D02*
X45610684Y-86390414D01*
X45610684Y-86390414D02*
X45539255Y-86247557D01*
X45539255Y-86247557D02*
X45396398Y-86033271D01*
X45396398Y-86033271D02*
X45324969Y-85961842D01*
X47539255Y-86318985D02*
X47610683Y-86247557D01*
X47610683Y-86247557D02*
X47753541Y-86176128D01*
X47753541Y-86176128D02*
X48110683Y-86176128D01*
X48110683Y-86176128D02*
X48253541Y-86247557D01*
X48253541Y-86247557D02*
X48324969Y-86318985D01*
X48324969Y-86318985D02*
X48396398Y-86461842D01*
X48396398Y-86461842D02*
X48396398Y-86604700D01*
X48396398Y-86604700D02*
X48324969Y-86818985D01*
X48324969Y-86818985D02*
X47467826Y-87676128D01*
X47467826Y-87676128D02*
X48396398Y-87676128D01*
X49324969Y-86176128D02*
X49467826Y-86176128D01*
X49467826Y-86176128D02*
X49610683Y-86247557D01*
X49610683Y-86247557D02*
X49682112Y-86318985D01*
X49682112Y-86318985D02*
X49753540Y-86461842D01*
X49753540Y-86461842D02*
X49824969Y-86747557D01*
X49824969Y-86747557D02*
X49824969Y-87104700D01*
X49824969Y-87104700D02*
X49753540Y-87390414D01*
X49753540Y-87390414D02*
X49682112Y-87533271D01*
X49682112Y-87533271D02*
X49610683Y-87604700D01*
X49610683Y-87604700D02*
X49467826Y-87676128D01*
X49467826Y-87676128D02*
X49324969Y-87676128D01*
X49324969Y-87676128D02*
X49182112Y-87604700D01*
X49182112Y-87604700D02*
X49110683Y-87533271D01*
X49110683Y-87533271D02*
X49039254Y-87390414D01*
X49039254Y-87390414D02*
X48967826Y-87104700D01*
X48967826Y-87104700D02*
X48967826Y-86747557D01*
X48967826Y-86747557D02*
X49039254Y-86461842D01*
X49039254Y-86461842D02*
X49110683Y-86318985D01*
X49110683Y-86318985D02*
X49182112Y-86247557D01*
X49182112Y-86247557D02*
X49324969Y-86176128D01*
X50396397Y-86318985D02*
X50467825Y-86247557D01*
X50467825Y-86247557D02*
X50610683Y-86176128D01*
X50610683Y-86176128D02*
X50967825Y-86176128D01*
X50967825Y-86176128D02*
X51110683Y-86247557D01*
X51110683Y-86247557D02*
X51182111Y-86318985D01*
X51182111Y-86318985D02*
X51253540Y-86461842D01*
X51253540Y-86461842D02*
X51253540Y-86604700D01*
X51253540Y-86604700D02*
X51182111Y-86818985D01*
X51182111Y-86818985D02*
X50324968Y-87676128D01*
X50324968Y-87676128D02*
X51253540Y-87676128D01*
X52539254Y-86676128D02*
X52539254Y-87676128D01*
X52182111Y-86104700D02*
X51824968Y-87176128D01*
X51824968Y-87176128D02*
X52753539Y-87176128D01*
X54467824Y-87676128D02*
X54467824Y-86176128D01*
X55182110Y-87676128D02*
X55182110Y-86176128D01*
X55182110Y-86176128D02*
X56039253Y-87676128D01*
X56039253Y-87676128D02*
X56039253Y-86176128D01*
X56682111Y-87604700D02*
X56896397Y-87676128D01*
X56896397Y-87676128D02*
X57253539Y-87676128D01*
X57253539Y-87676128D02*
X57396397Y-87604700D01*
X57396397Y-87604700D02*
X57467825Y-87533271D01*
X57467825Y-87533271D02*
X57539254Y-87390414D01*
X57539254Y-87390414D02*
X57539254Y-87247557D01*
X57539254Y-87247557D02*
X57467825Y-87104700D01*
X57467825Y-87104700D02*
X57396397Y-87033271D01*
X57396397Y-87033271D02*
X57253539Y-86961842D01*
X57253539Y-86961842D02*
X56967825Y-86890414D01*
X56967825Y-86890414D02*
X56824968Y-86818985D01*
X56824968Y-86818985D02*
X56753539Y-86747557D01*
X56753539Y-86747557D02*
X56682111Y-86604700D01*
X56682111Y-86604700D02*
X56682111Y-86461842D01*
X56682111Y-86461842D02*
X56753539Y-86318985D01*
X56753539Y-86318985D02*
X56824968Y-86247557D01*
X56824968Y-86247557D02*
X56967825Y-86176128D01*
X56967825Y-86176128D02*
X57324968Y-86176128D01*
X57324968Y-86176128D02*
X57539254Y-86247557D01*
X58110682Y-87247557D02*
X58824968Y-87247557D01*
X57967825Y-87676128D02*
X58467825Y-86176128D01*
X58467825Y-86176128D02*
X58967825Y-87676128D01*
X61324967Y-87676128D02*
X60610681Y-87676128D01*
X60610681Y-87676128D02*
X60610681Y-86176128D01*
X61682110Y-86676128D02*
X62039253Y-87676128D01*
X62396396Y-86676128D02*
X62039253Y-87676128D01*
X62039253Y-87676128D02*
X61896396Y-88033271D01*
X61896396Y-88033271D02*
X61824967Y-88104700D01*
X61824967Y-88104700D02*
X61682110Y-88176128D01*
X63182110Y-87676128D02*
X63039253Y-87604700D01*
X63039253Y-87604700D02*
X62967824Y-87533271D01*
X62967824Y-87533271D02*
X62896396Y-87390414D01*
X62896396Y-87390414D02*
X62896396Y-86961842D01*
X62896396Y-86961842D02*
X62967824Y-86818985D01*
X62967824Y-86818985D02*
X63039253Y-86747557D01*
X63039253Y-86747557D02*
X63182110Y-86676128D01*
X63182110Y-86676128D02*
X63396396Y-86676128D01*
X63396396Y-86676128D02*
X63539253Y-86747557D01*
X63539253Y-86747557D02*
X63610682Y-86818985D01*
X63610682Y-86818985D02*
X63682110Y-86961842D01*
X63682110Y-86961842D02*
X63682110Y-87390414D01*
X63682110Y-87390414D02*
X63610682Y-87533271D01*
X63610682Y-87533271D02*
X63539253Y-87604700D01*
X63539253Y-87604700D02*
X63396396Y-87676128D01*
X63396396Y-87676128D02*
X63182110Y-87676128D01*
X64324967Y-86676128D02*
X64324967Y-87676128D01*
X64324967Y-86818985D02*
X64396396Y-86747557D01*
X64396396Y-86747557D02*
X64539253Y-86676128D01*
X64539253Y-86676128D02*
X64753539Y-86676128D01*
X64753539Y-86676128D02*
X64896396Y-86747557D01*
X64896396Y-86747557D02*
X64967825Y-86890414D01*
X64967825Y-86890414D02*
X64967825Y-87676128D01*
X65753539Y-87604700D02*
X65753539Y-87676128D01*
X65753539Y-87676128D02*
X65682110Y-87818985D01*
X65682110Y-87818985D02*
X65610682Y-87890414D01*
X68396396Y-87533271D02*
X68324968Y-87604700D01*
X68324968Y-87604700D02*
X68110682Y-87676128D01*
X68110682Y-87676128D02*
X67967825Y-87676128D01*
X67967825Y-87676128D02*
X67753539Y-87604700D01*
X67753539Y-87604700D02*
X67610682Y-87461842D01*
X67610682Y-87461842D02*
X67539253Y-87318985D01*
X67539253Y-87318985D02*
X67467825Y-87033271D01*
X67467825Y-87033271D02*
X67467825Y-86818985D01*
X67467825Y-86818985D02*
X67539253Y-86533271D01*
X67539253Y-86533271D02*
X67610682Y-86390414D01*
X67610682Y-86390414D02*
X67753539Y-86247557D01*
X67753539Y-86247557D02*
X67967825Y-86176128D01*
X67967825Y-86176128D02*
X68110682Y-86176128D01*
X68110682Y-86176128D02*
X68324968Y-86247557D01*
X68324968Y-86247557D02*
X68396396Y-86318985D01*
X69039253Y-87676128D02*
X69039253Y-86176128D01*
X69039253Y-86176128D02*
X69896396Y-87676128D01*
X69896396Y-87676128D02*
X69896396Y-86176128D01*
X71467825Y-87676128D02*
X70967825Y-86961842D01*
X70610682Y-87676128D02*
X70610682Y-86176128D01*
X70610682Y-86176128D02*
X71182111Y-86176128D01*
X71182111Y-86176128D02*
X71324968Y-86247557D01*
X71324968Y-86247557D02*
X71396397Y-86318985D01*
X71396397Y-86318985D02*
X71467825Y-86461842D01*
X71467825Y-86461842D02*
X71467825Y-86676128D01*
X71467825Y-86676128D02*
X71396397Y-86818985D01*
X71396397Y-86818985D02*
X71324968Y-86890414D01*
X71324968Y-86890414D02*
X71182111Y-86961842D01*
X71182111Y-86961842D02*
X70610682Y-86961842D01*
X72039254Y-87604700D02*
X72253540Y-87676128D01*
X72253540Y-87676128D02*
X72610682Y-87676128D01*
X72610682Y-87676128D02*
X72753540Y-87604700D01*
X72753540Y-87604700D02*
X72824968Y-87533271D01*
X72824968Y-87533271D02*
X72896397Y-87390414D01*
X72896397Y-87390414D02*
X72896397Y-87247557D01*
X72896397Y-87247557D02*
X72824968Y-87104700D01*
X72824968Y-87104700D02*
X72753540Y-87033271D01*
X72753540Y-87033271D02*
X72610682Y-86961842D01*
X72610682Y-86961842D02*
X72324968Y-86890414D01*
X72324968Y-86890414D02*
X72182111Y-86818985D01*
X72182111Y-86818985D02*
X72110682Y-86747557D01*
X72110682Y-86747557D02*
X72039254Y-86604700D01*
X72039254Y-86604700D02*
X72039254Y-86461842D01*
X72039254Y-86461842D02*
X72110682Y-86318985D01*
X72110682Y-86318985D02*
X72182111Y-86247557D01*
X72182111Y-86247557D02*
X72324968Y-86176128D01*
X72324968Y-86176128D02*
X72682111Y-86176128D01*
X72682111Y-86176128D02*
X72896397Y-86247557D01*
X73610682Y-87604700D02*
X73610682Y-87676128D01*
X73610682Y-87676128D02*
X73539253Y-87818985D01*
X73539253Y-87818985D02*
X73467825Y-87890414D01*
X75396396Y-87676128D02*
X75396396Y-86176128D01*
X76110682Y-87676128D02*
X76110682Y-86176128D01*
X76110682Y-86176128D02*
X76967825Y-87676128D01*
X76967825Y-87676128D02*
X76967825Y-86176128D01*
X78396397Y-87676128D02*
X77682111Y-87676128D01*
X77682111Y-87676128D02*
X77682111Y-86176128D01*
X80039254Y-86176128D02*
X80039254Y-87390414D01*
X80039254Y-87390414D02*
X80110683Y-87533271D01*
X80110683Y-87533271D02*
X80182112Y-87604700D01*
X80182112Y-87604700D02*
X80324969Y-87676128D01*
X80324969Y-87676128D02*
X80610683Y-87676128D01*
X80610683Y-87676128D02*
X80753540Y-87604700D01*
X80753540Y-87604700D02*
X80824969Y-87533271D01*
X80824969Y-87533271D02*
X80896397Y-87390414D01*
X80896397Y-87390414D02*
X80896397Y-86176128D01*
X81610683Y-87676128D02*
X81610683Y-86176128D01*
X81610683Y-86176128D02*
X82110683Y-87247557D01*
X82110683Y-87247557D02*
X82610683Y-86176128D01*
X82610683Y-86176128D02*
X82610683Y-87676128D01*
X84182112Y-87676128D02*
X83682112Y-86961842D01*
X83324969Y-87676128D02*
X83324969Y-86176128D01*
X83324969Y-86176128D02*
X83896398Y-86176128D01*
X83896398Y-86176128D02*
X84039255Y-86247557D01*
X84039255Y-86247557D02*
X84110684Y-86318985D01*
X84110684Y-86318985D02*
X84182112Y-86461842D01*
X84182112Y-86461842D02*
X84182112Y-86676128D01*
X84182112Y-86676128D02*
X84110684Y-86818985D01*
X84110684Y-86818985D02*
X84039255Y-86890414D01*
X84039255Y-86890414D02*
X83896398Y-86961842D01*
X83896398Y-86961842D02*
X83324969Y-86961842D01*
X85539255Y-86176128D02*
X84824969Y-86176128D01*
X84824969Y-86176128D02*
X84753541Y-86890414D01*
X84753541Y-86890414D02*
X84824969Y-86818985D01*
X84824969Y-86818985D02*
X84967827Y-86747557D01*
X84967827Y-86747557D02*
X85324969Y-86747557D01*
X85324969Y-86747557D02*
X85467827Y-86818985D01*
X85467827Y-86818985D02*
X85539255Y-86890414D01*
X85539255Y-86890414D02*
X85610684Y-87033271D01*
X85610684Y-87033271D02*
X85610684Y-87390414D01*
X85610684Y-87390414D02*
X85539255Y-87533271D01*
X85539255Y-87533271D02*
X85467827Y-87604700D01*
X85467827Y-87604700D02*
X85324969Y-87676128D01*
X85324969Y-87676128D02*
X84967827Y-87676128D01*
X84967827Y-87676128D02*
X84824969Y-87604700D01*
X84824969Y-87604700D02*
X84753541Y-87533271D01*
X86182112Y-86318985D02*
X86253540Y-86247557D01*
X86253540Y-86247557D02*
X86396398Y-86176128D01*
X86396398Y-86176128D02*
X86753540Y-86176128D01*
X86753540Y-86176128D02*
X86896398Y-86247557D01*
X86896398Y-86247557D02*
X86967826Y-86318985D01*
X86967826Y-86318985D02*
X87039255Y-86461842D01*
X87039255Y-86461842D02*
X87039255Y-86604700D01*
X87039255Y-86604700D02*
X86967826Y-86818985D01*
X86967826Y-86818985D02*
X86110683Y-87676128D01*
X86110683Y-87676128D02*
X87039255Y-87676128D01*
X87539254Y-86176128D02*
X88539254Y-86176128D01*
X88539254Y-86176128D02*
X87896397Y-87676128D01*
X89396397Y-86176128D02*
X89539254Y-86176128D01*
X89539254Y-86176128D02*
X89682111Y-86247557D01*
X89682111Y-86247557D02*
X89753540Y-86318985D01*
X89753540Y-86318985D02*
X89824968Y-86461842D01*
X89824968Y-86461842D02*
X89896397Y-86747557D01*
X89896397Y-86747557D02*
X89896397Y-87104700D01*
X89896397Y-87104700D02*
X89824968Y-87390414D01*
X89824968Y-87390414D02*
X89753540Y-87533271D01*
X89753540Y-87533271D02*
X89682111Y-87604700D01*
X89682111Y-87604700D02*
X89539254Y-87676128D01*
X89539254Y-87676128D02*
X89396397Y-87676128D01*
X89396397Y-87676128D02*
X89253540Y-87604700D01*
X89253540Y-87604700D02*
X89182111Y-87533271D01*
X89182111Y-87533271D02*
X89110682Y-87390414D01*
X89110682Y-87390414D02*
X89039254Y-87104700D01*
X89039254Y-87104700D02*
X89039254Y-86747557D01*
X89039254Y-86747557D02*
X89110682Y-86461842D01*
X89110682Y-86461842D02*
X89182111Y-86318985D01*
X89182111Y-86318985D02*
X89253540Y-86247557D01*
X89253540Y-86247557D02*
X89396397Y-86176128D01*
D10*
D11*
X32182112Y-84676128D02*
X31467826Y-84676128D01*
X31467826Y-84676128D02*
X31467826Y-83176128D01*
X32682112Y-84676128D02*
X32682112Y-83676128D01*
X32682112Y-83176128D02*
X32610684Y-83247557D01*
X32610684Y-83247557D02*
X32682112Y-83318985D01*
X32682112Y-83318985D02*
X32753541Y-83247557D01*
X32753541Y-83247557D02*
X32682112Y-83176128D01*
X32682112Y-83176128D02*
X32682112Y-83318985D01*
X34039256Y-84604700D02*
X33896398Y-84676128D01*
X33896398Y-84676128D02*
X33610684Y-84676128D01*
X33610684Y-84676128D02*
X33467827Y-84604700D01*
X33467827Y-84604700D02*
X33396398Y-84533271D01*
X33396398Y-84533271D02*
X33324970Y-84390414D01*
X33324970Y-84390414D02*
X33324970Y-83961842D01*
X33324970Y-83961842D02*
X33396398Y-83818985D01*
X33396398Y-83818985D02*
X33467827Y-83747557D01*
X33467827Y-83747557D02*
X33610684Y-83676128D01*
X33610684Y-83676128D02*
X33896398Y-83676128D01*
X33896398Y-83676128D02*
X34039256Y-83747557D01*
X35253541Y-84604700D02*
X35110684Y-84676128D01*
X35110684Y-84676128D02*
X34824970Y-84676128D01*
X34824970Y-84676128D02*
X34682112Y-84604700D01*
X34682112Y-84604700D02*
X34610684Y-84461842D01*
X34610684Y-84461842D02*
X34610684Y-83890414D01*
X34610684Y-83890414D02*
X34682112Y-83747557D01*
X34682112Y-83747557D02*
X34824970Y-83676128D01*
X34824970Y-83676128D02*
X35110684Y-83676128D01*
X35110684Y-83676128D02*
X35253541Y-83747557D01*
X35253541Y-83747557D02*
X35324970Y-83890414D01*
X35324970Y-83890414D02*
X35324970Y-84033271D01*
X35324970Y-84033271D02*
X34610684Y-84176128D01*
X35967826Y-83676128D02*
X35967826Y-84676128D01*
X35967826Y-83818985D02*
X36039255Y-83747557D01*
X36039255Y-83747557D02*
X36182112Y-83676128D01*
X36182112Y-83676128D02*
X36396398Y-83676128D01*
X36396398Y-83676128D02*
X36539255Y-83747557D01*
X36539255Y-83747557D02*
X36610684Y-83890414D01*
X36610684Y-83890414D02*
X36610684Y-84676128D01*
X37253541Y-84604700D02*
X37396398Y-84676128D01*
X37396398Y-84676128D02*
X37682112Y-84676128D01*
X37682112Y-84676128D02*
X37824969Y-84604700D01*
X37824969Y-84604700D02*
X37896398Y-84461842D01*
X37896398Y-84461842D02*
X37896398Y-84390414D01*
X37896398Y-84390414D02*
X37824969Y-84247557D01*
X37824969Y-84247557D02*
X37682112Y-84176128D01*
X37682112Y-84176128D02*
X37467827Y-84176128D01*
X37467827Y-84176128D02*
X37324969Y-84104700D01*
X37324969Y-84104700D02*
X37253541Y-83961842D01*
X37253541Y-83961842D02*
X37253541Y-83890414D01*
X37253541Y-83890414D02*
X37324969Y-83747557D01*
X37324969Y-83747557D02*
X37467827Y-83676128D01*
X37467827Y-83676128D02*
X37682112Y-83676128D01*
X37682112Y-83676128D02*
X37824969Y-83747557D01*
X39110684Y-84604700D02*
X38967827Y-84676128D01*
X38967827Y-84676128D02*
X38682113Y-84676128D01*
X38682113Y-84676128D02*
X38539255Y-84604700D01*
X38539255Y-84604700D02*
X38467827Y-84461842D01*
X38467827Y-84461842D02*
X38467827Y-83890414D01*
X38467827Y-83890414D02*
X38539255Y-83747557D01*
X38539255Y-83747557D02*
X38682113Y-83676128D01*
X38682113Y-83676128D02*
X38967827Y-83676128D01*
X38967827Y-83676128D02*
X39110684Y-83747557D01*
X39110684Y-83747557D02*
X39182113Y-83890414D01*
X39182113Y-83890414D02*
X39182113Y-84033271D01*
X39182113Y-84033271D02*
X38467827Y-84176128D01*
X40967826Y-84533271D02*
X41039255Y-84604700D01*
X41039255Y-84604700D02*
X40967826Y-84676128D01*
X40967826Y-84676128D02*
X40896398Y-84604700D01*
X40896398Y-84604700D02*
X40967826Y-84533271D01*
X40967826Y-84533271D02*
X40967826Y-84676128D01*
X40967826Y-83747557D02*
X41039255Y-83818985D01*
X41039255Y-83818985D02*
X40967826Y-83890414D01*
X40967826Y-83890414D02*
X40896398Y-83818985D01*
X40896398Y-83818985D02*
X40967826Y-83747557D01*
X40967826Y-83747557D02*
X40967826Y-83890414D01*
X42824969Y-84676128D02*
X42824969Y-83176128D01*
X42824969Y-83176128D02*
X43324969Y-84247557D01*
X43324969Y-84247557D02*
X43824969Y-83176128D01*
X43824969Y-83176128D02*
X43824969Y-84676128D01*
X44539255Y-84676128D02*
X44539255Y-83176128D01*
X45039256Y-83176128D02*
X45896399Y-83176128D01*
X45467827Y-84676128D02*
X45467827Y-83176128D01*
X48253541Y-84676128D02*
X47539255Y-84676128D01*
X47539255Y-84676128D02*
X47539255Y-83176128D01*
X48753541Y-84676128D02*
X48753541Y-83676128D01*
X48753541Y-83176128D02*
X48682113Y-83247557D01*
X48682113Y-83247557D02*
X48753541Y-83318985D01*
X48753541Y-83318985D02*
X48824970Y-83247557D01*
X48824970Y-83247557D02*
X48753541Y-83176128D01*
X48753541Y-83176128D02*
X48753541Y-83318985D01*
X50110685Y-84604700D02*
X49967827Y-84676128D01*
X49967827Y-84676128D02*
X49682113Y-84676128D01*
X49682113Y-84676128D02*
X49539256Y-84604700D01*
X49539256Y-84604700D02*
X49467827Y-84533271D01*
X49467827Y-84533271D02*
X49396399Y-84390414D01*
X49396399Y-84390414D02*
X49396399Y-83961842D01*
X49396399Y-83961842D02*
X49467827Y-83818985D01*
X49467827Y-83818985D02*
X49539256Y-83747557D01*
X49539256Y-83747557D02*
X49682113Y-83676128D01*
X49682113Y-83676128D02*
X49967827Y-83676128D01*
X49967827Y-83676128D02*
X50110685Y-83747557D01*
X51324970Y-84604700D02*
X51182113Y-84676128D01*
X51182113Y-84676128D02*
X50896399Y-84676128D01*
X50896399Y-84676128D02*
X50753541Y-84604700D01*
X50753541Y-84604700D02*
X50682113Y-84461842D01*
X50682113Y-84461842D02*
X50682113Y-83890414D01*
X50682113Y-83890414D02*
X50753541Y-83747557D01*
X50753541Y-83747557D02*
X50896399Y-83676128D01*
X50896399Y-83676128D02*
X51182113Y-83676128D01*
X51182113Y-83676128D02*
X51324970Y-83747557D01*
X51324970Y-83747557D02*
X51396399Y-83890414D01*
X51396399Y-83890414D02*
X51396399Y-84033271D01*
X51396399Y-84033271D02*
X50682113Y-84176128D01*
X52039255Y-83676128D02*
X52039255Y-84676128D01*
X52039255Y-83818985D02*
X52110684Y-83747557D01*
X52110684Y-83747557D02*
X52253541Y-83676128D01*
X52253541Y-83676128D02*
X52467827Y-83676128D01*
X52467827Y-83676128D02*
X52610684Y-83747557D01*
X52610684Y-83747557D02*
X52682113Y-83890414D01*
X52682113Y-83890414D02*
X52682113Y-84676128D01*
X53324970Y-84604700D02*
X53467827Y-84676128D01*
X53467827Y-84676128D02*
X53753541Y-84676128D01*
X53753541Y-84676128D02*
X53896398Y-84604700D01*
X53896398Y-84604700D02*
X53967827Y-84461842D01*
X53967827Y-84461842D02*
X53967827Y-84390414D01*
X53967827Y-84390414D02*
X53896398Y-84247557D01*
X53896398Y-84247557D02*
X53753541Y-84176128D01*
X53753541Y-84176128D02*
X53539256Y-84176128D01*
X53539256Y-84176128D02*
X53396398Y-84104700D01*
X53396398Y-84104700D02*
X53324970Y-83961842D01*
X53324970Y-83961842D02*
X53324970Y-83890414D01*
X53324970Y-83890414D02*
X53396398Y-83747557D01*
X53396398Y-83747557D02*
X53539256Y-83676128D01*
X53539256Y-83676128D02*
X53753541Y-83676128D01*
X53753541Y-83676128D02*
X53896398Y-83747557D01*
X55182113Y-84604700D02*
X55039256Y-84676128D01*
X55039256Y-84676128D02*
X54753542Y-84676128D01*
X54753542Y-84676128D02*
X54610684Y-84604700D01*
X54610684Y-84604700D02*
X54539256Y-84461842D01*
X54539256Y-84461842D02*
X54539256Y-83890414D01*
X54539256Y-83890414D02*
X54610684Y-83747557D01*
X54610684Y-83747557D02*
X54753542Y-83676128D01*
X54753542Y-83676128D02*
X55039256Y-83676128D01*
X55039256Y-83676128D02*
X55182113Y-83747557D01*
X55182113Y-83747557D02*
X55253542Y-83890414D01*
X55253542Y-83890414D02*
X55253542Y-84033271D01*
X55253542Y-84033271D02*
X54539256Y-84176128D01*
D10*
D11*
X32324969Y-81533271D02*
X32253541Y-81604700D01*
X32253541Y-81604700D02*
X32039255Y-81676128D01*
X32039255Y-81676128D02*
X31896398Y-81676128D01*
X31896398Y-81676128D02*
X31682112Y-81604700D01*
X31682112Y-81604700D02*
X31539255Y-81461842D01*
X31539255Y-81461842D02*
X31467826Y-81318985D01*
X31467826Y-81318985D02*
X31396398Y-81033271D01*
X31396398Y-81033271D02*
X31396398Y-80818985D01*
X31396398Y-80818985D02*
X31467826Y-80533271D01*
X31467826Y-80533271D02*
X31539255Y-80390414D01*
X31539255Y-80390414D02*
X31682112Y-80247557D01*
X31682112Y-80247557D02*
X31896398Y-80176128D01*
X31896398Y-80176128D02*
X32039255Y-80176128D01*
X32039255Y-80176128D02*
X32253541Y-80247557D01*
X32253541Y-80247557D02*
X32324969Y-80318985D01*
X33182112Y-81676128D02*
X33039255Y-81604700D01*
X33039255Y-81604700D02*
X32967826Y-81533271D01*
X32967826Y-81533271D02*
X32896398Y-81390414D01*
X32896398Y-81390414D02*
X32896398Y-80961842D01*
X32896398Y-80961842D02*
X32967826Y-80818985D01*
X32967826Y-80818985D02*
X33039255Y-80747557D01*
X33039255Y-80747557D02*
X33182112Y-80676128D01*
X33182112Y-80676128D02*
X33396398Y-80676128D01*
X33396398Y-80676128D02*
X33539255Y-80747557D01*
X33539255Y-80747557D02*
X33610684Y-80818985D01*
X33610684Y-80818985D02*
X33682112Y-80961842D01*
X33682112Y-80961842D02*
X33682112Y-81390414D01*
X33682112Y-81390414D02*
X33610684Y-81533271D01*
X33610684Y-81533271D02*
X33539255Y-81604700D01*
X33539255Y-81604700D02*
X33396398Y-81676128D01*
X33396398Y-81676128D02*
X33182112Y-81676128D01*
X34324969Y-80676128D02*
X34324969Y-81676128D01*
X34324969Y-80818985D02*
X34396398Y-80747557D01*
X34396398Y-80747557D02*
X34539255Y-80676128D01*
X34539255Y-80676128D02*
X34753541Y-80676128D01*
X34753541Y-80676128D02*
X34896398Y-80747557D01*
X34896398Y-80747557D02*
X34967827Y-80890414D01*
X34967827Y-80890414D02*
X34967827Y-81676128D01*
X35467827Y-80676128D02*
X36039255Y-80676128D01*
X35682112Y-80176128D02*
X35682112Y-81461842D01*
X35682112Y-81461842D02*
X35753541Y-81604700D01*
X35753541Y-81604700D02*
X35896398Y-81676128D01*
X35896398Y-81676128D02*
X36039255Y-81676128D01*
X37182113Y-81676128D02*
X37182113Y-80890414D01*
X37182113Y-80890414D02*
X37110684Y-80747557D01*
X37110684Y-80747557D02*
X36967827Y-80676128D01*
X36967827Y-80676128D02*
X36682113Y-80676128D01*
X36682113Y-80676128D02*
X36539255Y-80747557D01*
X37182113Y-81604700D02*
X37039255Y-81676128D01*
X37039255Y-81676128D02*
X36682113Y-81676128D01*
X36682113Y-81676128D02*
X36539255Y-81604700D01*
X36539255Y-81604700D02*
X36467827Y-81461842D01*
X36467827Y-81461842D02*
X36467827Y-81318985D01*
X36467827Y-81318985D02*
X36539255Y-81176128D01*
X36539255Y-81176128D02*
X36682113Y-81104700D01*
X36682113Y-81104700D02*
X37039255Y-81104700D01*
X37039255Y-81104700D02*
X37182113Y-81033271D01*
X38539256Y-81604700D02*
X38396398Y-81676128D01*
X38396398Y-81676128D02*
X38110684Y-81676128D01*
X38110684Y-81676128D02*
X37967827Y-81604700D01*
X37967827Y-81604700D02*
X37896398Y-81533271D01*
X37896398Y-81533271D02*
X37824970Y-81390414D01*
X37824970Y-81390414D02*
X37824970Y-80961842D01*
X37824970Y-80961842D02*
X37896398Y-80818985D01*
X37896398Y-80818985D02*
X37967827Y-80747557D01*
X37967827Y-80747557D02*
X38110684Y-80676128D01*
X38110684Y-80676128D02*
X38396398Y-80676128D01*
X38396398Y-80676128D02*
X38539256Y-80747557D01*
X38967827Y-80676128D02*
X39539255Y-80676128D01*
X39182112Y-80176128D02*
X39182112Y-81461842D01*
X39182112Y-81461842D02*
X39253541Y-81604700D01*
X39253541Y-81604700D02*
X39396398Y-81676128D01*
X39396398Y-81676128D02*
X39539255Y-81676128D01*
X41182112Y-81533271D02*
X41253541Y-81604700D01*
X41253541Y-81604700D02*
X41182112Y-81676128D01*
X41182112Y-81676128D02*
X41110684Y-81604700D01*
X41110684Y-81604700D02*
X41182112Y-81533271D01*
X41182112Y-81533271D02*
X41182112Y-81676128D01*
X41182112Y-80747557D02*
X41253541Y-80818985D01*
X41253541Y-80818985D02*
X41182112Y-80890414D01*
X41182112Y-80890414D02*
X41110684Y-80818985D01*
X41110684Y-80818985D02*
X41182112Y-80747557D01*
X41182112Y-80747557D02*
X41182112Y-80890414D01*
X43039255Y-81676128D02*
X43039255Y-80176128D01*
X43039255Y-80747557D02*
X43182113Y-80676128D01*
X43182113Y-80676128D02*
X43467827Y-80676128D01*
X43467827Y-80676128D02*
X43610684Y-80747557D01*
X43610684Y-80747557D02*
X43682113Y-80818985D01*
X43682113Y-80818985D02*
X43753541Y-80961842D01*
X43753541Y-80961842D02*
X43753541Y-81390414D01*
X43753541Y-81390414D02*
X43682113Y-81533271D01*
X43682113Y-81533271D02*
X43610684Y-81604700D01*
X43610684Y-81604700D02*
X43467827Y-81676128D01*
X43467827Y-81676128D02*
X43182113Y-81676128D01*
X43182113Y-81676128D02*
X43039255Y-81604700D01*
X44967827Y-81604700D02*
X44824970Y-81676128D01*
X44824970Y-81676128D02*
X44539256Y-81676128D01*
X44539256Y-81676128D02*
X44396398Y-81604700D01*
X44396398Y-81604700D02*
X44324970Y-81461842D01*
X44324970Y-81461842D02*
X44324970Y-80890414D01*
X44324970Y-80890414D02*
X44396398Y-80747557D01*
X44396398Y-80747557D02*
X44539256Y-80676128D01*
X44539256Y-80676128D02*
X44824970Y-80676128D01*
X44824970Y-80676128D02*
X44967827Y-80747557D01*
X44967827Y-80747557D02*
X45039256Y-80890414D01*
X45039256Y-80890414D02*
X45039256Y-81033271D01*
X45039256Y-81033271D02*
X44324970Y-81176128D01*
X45682112Y-81676128D02*
X45682112Y-80676128D01*
X45682112Y-80961842D02*
X45753541Y-80818985D01*
X45753541Y-80818985D02*
X45824970Y-80747557D01*
X45824970Y-80747557D02*
X45967827Y-80676128D01*
X45967827Y-80676128D02*
X46110684Y-80676128D01*
X46396398Y-80676128D02*
X46967826Y-80676128D01*
X46610683Y-80176128D02*
X46610683Y-81461842D01*
X46610683Y-81461842D02*
X46682112Y-81604700D01*
X46682112Y-81604700D02*
X46824969Y-81676128D01*
X46824969Y-81676128D02*
X46967826Y-81676128D01*
X47467826Y-81676128D02*
X47467826Y-80676128D01*
X47467826Y-80961842D02*
X47539255Y-80818985D01*
X47539255Y-80818985D02*
X47610684Y-80747557D01*
X47610684Y-80747557D02*
X47753541Y-80676128D01*
X47753541Y-80676128D02*
X47896398Y-80676128D01*
X49039255Y-81676128D02*
X49039255Y-80890414D01*
X49039255Y-80890414D02*
X48967826Y-80747557D01*
X48967826Y-80747557D02*
X48824969Y-80676128D01*
X48824969Y-80676128D02*
X48539255Y-80676128D01*
X48539255Y-80676128D02*
X48396397Y-80747557D01*
X49039255Y-81604700D02*
X48896397Y-81676128D01*
X48896397Y-81676128D02*
X48539255Y-81676128D01*
X48539255Y-81676128D02*
X48396397Y-81604700D01*
X48396397Y-81604700D02*
X48324969Y-81461842D01*
X48324969Y-81461842D02*
X48324969Y-81318985D01*
X48324969Y-81318985D02*
X48396397Y-81176128D01*
X48396397Y-81176128D02*
X48539255Y-81104700D01*
X48539255Y-81104700D02*
X48896397Y-81104700D01*
X48896397Y-81104700D02*
X49039255Y-81033271D01*
X49753540Y-80676128D02*
X49753540Y-81676128D01*
X49753540Y-80818985D02*
X49824969Y-80747557D01*
X49824969Y-80747557D02*
X49967826Y-80676128D01*
X49967826Y-80676128D02*
X50182112Y-80676128D01*
X50182112Y-80676128D02*
X50324969Y-80747557D01*
X50324969Y-80747557D02*
X50396398Y-80890414D01*
X50396398Y-80890414D02*
X50396398Y-81676128D01*
X51753541Y-81676128D02*
X51753541Y-80176128D01*
X51753541Y-81604700D02*
X51610683Y-81676128D01*
X51610683Y-81676128D02*
X51324969Y-81676128D01*
X51324969Y-81676128D02*
X51182112Y-81604700D01*
X51182112Y-81604700D02*
X51110683Y-81533271D01*
X51110683Y-81533271D02*
X51039255Y-81390414D01*
X51039255Y-81390414D02*
X51039255Y-80961842D01*
X51039255Y-80961842D02*
X51110683Y-80818985D01*
X51110683Y-80818985D02*
X51182112Y-80747557D01*
X51182112Y-80747557D02*
X51324969Y-80676128D01*
X51324969Y-80676128D02*
X51610683Y-80676128D01*
X51610683Y-80676128D02*
X51753541Y-80747557D01*
X52467826Y-81533271D02*
X52539255Y-81604700D01*
X52539255Y-81604700D02*
X52467826Y-81676128D01*
X52467826Y-81676128D02*
X52396398Y-81604700D01*
X52396398Y-81604700D02*
X52467826Y-81533271D01*
X52467826Y-81533271D02*
X52467826Y-81676128D01*
X53182112Y-81676128D02*
X53182112Y-80676128D01*
X53182112Y-80818985D02*
X53253541Y-80747557D01*
X53253541Y-80747557D02*
X53396398Y-80676128D01*
X53396398Y-80676128D02*
X53610684Y-80676128D01*
X53610684Y-80676128D02*
X53753541Y-80747557D01*
X53753541Y-80747557D02*
X53824970Y-80890414D01*
X53824970Y-80890414D02*
X53824970Y-81676128D01*
X53824970Y-80890414D02*
X53896398Y-80747557D01*
X53896398Y-80747557D02*
X54039255Y-80676128D01*
X54039255Y-80676128D02*
X54253541Y-80676128D01*
X54253541Y-80676128D02*
X54396398Y-80747557D01*
X54396398Y-80747557D02*
X54467827Y-80890414D01*
X54467827Y-80890414D02*
X54467827Y-81676128D01*
X55824970Y-81676128D02*
X55824970Y-80890414D01*
X55824970Y-80890414D02*
X55753541Y-80747557D01*
X55753541Y-80747557D02*
X55610684Y-80676128D01*
X55610684Y-80676128D02*
X55324970Y-80676128D01*
X55324970Y-80676128D02*
X55182112Y-80747557D01*
X55824970Y-81604700D02*
X55682112Y-81676128D01*
X55682112Y-81676128D02*
X55324970Y-81676128D01*
X55324970Y-81676128D02*
X55182112Y-81604700D01*
X55182112Y-81604700D02*
X55110684Y-81461842D01*
X55110684Y-81461842D02*
X55110684Y-81318985D01*
X55110684Y-81318985D02*
X55182112Y-81176128D01*
X55182112Y-81176128D02*
X55324970Y-81104700D01*
X55324970Y-81104700D02*
X55682112Y-81104700D01*
X55682112Y-81104700D02*
X55824970Y-81033271D01*
X56467827Y-81604700D02*
X56610684Y-81676128D01*
X56610684Y-81676128D02*
X56896398Y-81676128D01*
X56896398Y-81676128D02*
X57039255Y-81604700D01*
X57039255Y-81604700D02*
X57110684Y-81461842D01*
X57110684Y-81461842D02*
X57110684Y-81390414D01*
X57110684Y-81390414D02*
X57039255Y-81247557D01*
X57039255Y-81247557D02*
X56896398Y-81176128D01*
X56896398Y-81176128D02*
X56682113Y-81176128D01*
X56682113Y-81176128D02*
X56539255Y-81104700D01*
X56539255Y-81104700D02*
X56467827Y-80961842D01*
X56467827Y-80961842D02*
X56467827Y-80890414D01*
X56467827Y-80890414D02*
X56539255Y-80747557D01*
X56539255Y-80747557D02*
X56682113Y-80676128D01*
X56682113Y-80676128D02*
X56896398Y-80676128D01*
X56896398Y-80676128D02*
X57039255Y-80747557D01*
X57682113Y-81604700D02*
X57824970Y-81676128D01*
X57824970Y-81676128D02*
X58110684Y-81676128D01*
X58110684Y-81676128D02*
X58253541Y-81604700D01*
X58253541Y-81604700D02*
X58324970Y-81461842D01*
X58324970Y-81461842D02*
X58324970Y-81390414D01*
X58324970Y-81390414D02*
X58253541Y-81247557D01*
X58253541Y-81247557D02*
X58110684Y-81176128D01*
X58110684Y-81176128D02*
X57896399Y-81176128D01*
X57896399Y-81176128D02*
X57753541Y-81104700D01*
X57753541Y-81104700D02*
X57682113Y-80961842D01*
X57682113Y-80961842D02*
X57682113Y-80890414D01*
X57682113Y-80890414D02*
X57753541Y-80747557D01*
X57753541Y-80747557D02*
X57896399Y-80676128D01*
X57896399Y-80676128D02*
X58110684Y-80676128D01*
X58110684Y-80676128D02*
X58253541Y-80747557D01*
X59182113Y-81676128D02*
X59039256Y-81604700D01*
X59039256Y-81604700D02*
X58967827Y-81533271D01*
X58967827Y-81533271D02*
X58896399Y-81390414D01*
X58896399Y-81390414D02*
X58896399Y-80961842D01*
X58896399Y-80961842D02*
X58967827Y-80818985D01*
X58967827Y-80818985D02*
X59039256Y-80747557D01*
X59039256Y-80747557D02*
X59182113Y-80676128D01*
X59182113Y-80676128D02*
X59396399Y-80676128D01*
X59396399Y-80676128D02*
X59539256Y-80747557D01*
X59539256Y-80747557D02*
X59610685Y-80818985D01*
X59610685Y-80818985D02*
X59682113Y-80961842D01*
X59682113Y-80961842D02*
X59682113Y-81390414D01*
X59682113Y-81390414D02*
X59610685Y-81533271D01*
X59610685Y-81533271D02*
X59539256Y-81604700D01*
X59539256Y-81604700D02*
X59396399Y-81676128D01*
X59396399Y-81676128D02*
X59182113Y-81676128D01*
X60110685Y-80676128D02*
X60682113Y-80676128D01*
X60324970Y-80176128D02*
X60324970Y-81461842D01*
X60324970Y-81461842D02*
X60396399Y-81604700D01*
X60396399Y-81604700D02*
X60539256Y-81676128D01*
X60539256Y-81676128D02*
X60682113Y-81676128D01*
X62110685Y-80961842D02*
X62039256Y-80890414D01*
X62039256Y-80890414D02*
X61896399Y-80818985D01*
X61896399Y-80818985D02*
X61753542Y-80818985D01*
X61753542Y-80818985D02*
X61610685Y-80890414D01*
X61610685Y-80890414D02*
X61539256Y-80961842D01*
X61539256Y-80961842D02*
X61467828Y-81104700D01*
X61467828Y-81104700D02*
X61467828Y-81247557D01*
X61467828Y-81247557D02*
X61539256Y-81390414D01*
X61539256Y-81390414D02*
X61610685Y-81461842D01*
X61610685Y-81461842D02*
X61753542Y-81533271D01*
X61753542Y-81533271D02*
X61896399Y-81533271D01*
X61896399Y-81533271D02*
X62039256Y-81461842D01*
X62039256Y-81461842D02*
X62110685Y-81390414D01*
X62110685Y-80818985D02*
X62110685Y-81390414D01*
X62110685Y-81390414D02*
X62182113Y-81461842D01*
X62182113Y-81461842D02*
X62253542Y-81461842D01*
X62253542Y-81461842D02*
X62396399Y-81390414D01*
X62396399Y-81390414D02*
X62467828Y-81247557D01*
X62467828Y-81247557D02*
X62467828Y-80890414D01*
X62467828Y-80890414D02*
X62324971Y-80676128D01*
X62324971Y-80676128D02*
X62110685Y-80533271D01*
X62110685Y-80533271D02*
X61824971Y-80461842D01*
X61824971Y-80461842D02*
X61539256Y-80533271D01*
X61539256Y-80533271D02*
X61324971Y-80676128D01*
X61324971Y-80676128D02*
X61182113Y-80890414D01*
X61182113Y-80890414D02*
X61110685Y-81176128D01*
X61110685Y-81176128D02*
X61182113Y-81461842D01*
X61182113Y-81461842D02*
X61324971Y-81676128D01*
X61324971Y-81676128D02*
X61539256Y-81818985D01*
X61539256Y-81818985D02*
X61824971Y-81890414D01*
X61824971Y-81890414D02*
X62110685Y-81818985D01*
X62110685Y-81818985D02*
X62324971Y-81676128D01*
X63110684Y-81676128D02*
X63110684Y-80676128D01*
X63110684Y-80176128D02*
X63039256Y-80247557D01*
X63039256Y-80247557D02*
X63110684Y-80318985D01*
X63110684Y-80318985D02*
X63182113Y-80247557D01*
X63182113Y-80247557D02*
X63110684Y-80176128D01*
X63110684Y-80176128D02*
X63110684Y-80318985D01*
X63824970Y-80676128D02*
X63824970Y-81676128D01*
X63824970Y-80818985D02*
X63896399Y-80747557D01*
X63896399Y-80747557D02*
X64039256Y-80676128D01*
X64039256Y-80676128D02*
X64253542Y-80676128D01*
X64253542Y-80676128D02*
X64396399Y-80747557D01*
X64396399Y-80747557D02*
X64467828Y-80890414D01*
X64467828Y-80890414D02*
X64467828Y-81676128D01*
X65110685Y-81604700D02*
X65253542Y-81676128D01*
X65253542Y-81676128D02*
X65539256Y-81676128D01*
X65539256Y-81676128D02*
X65682113Y-81604700D01*
X65682113Y-81604700D02*
X65753542Y-81461842D01*
X65753542Y-81461842D02*
X65753542Y-81390414D01*
X65753542Y-81390414D02*
X65682113Y-81247557D01*
X65682113Y-81247557D02*
X65539256Y-81176128D01*
X65539256Y-81176128D02*
X65324971Y-81176128D01*
X65324971Y-81176128D02*
X65182113Y-81104700D01*
X65182113Y-81104700D02*
X65110685Y-80961842D01*
X65110685Y-80961842D02*
X65110685Y-80890414D01*
X65110685Y-80890414D02*
X65182113Y-80747557D01*
X65182113Y-80747557D02*
X65324971Y-80676128D01*
X65324971Y-80676128D02*
X65539256Y-80676128D01*
X65539256Y-80676128D02*
X65682113Y-80747557D01*
X67039257Y-81676128D02*
X67039257Y-80890414D01*
X67039257Y-80890414D02*
X66967828Y-80747557D01*
X66967828Y-80747557D02*
X66824971Y-80676128D01*
X66824971Y-80676128D02*
X66539257Y-80676128D01*
X66539257Y-80676128D02*
X66396399Y-80747557D01*
X67039257Y-81604700D02*
X66896399Y-81676128D01*
X66896399Y-81676128D02*
X66539257Y-81676128D01*
X66539257Y-81676128D02*
X66396399Y-81604700D01*
X66396399Y-81604700D02*
X66324971Y-81461842D01*
X66324971Y-81461842D02*
X66324971Y-81318985D01*
X66324971Y-81318985D02*
X66396399Y-81176128D01*
X66396399Y-81176128D02*
X66539257Y-81104700D01*
X66539257Y-81104700D02*
X66896399Y-81104700D01*
X66896399Y-81104700D02*
X67039257Y-81033271D01*
X67753542Y-81104700D02*
X68896400Y-81104700D01*
X69824971Y-81676128D02*
X69682114Y-81604700D01*
X69682114Y-81604700D02*
X69610685Y-81461842D01*
X69610685Y-81461842D02*
X69610685Y-80176128D01*
X70253542Y-80676128D02*
X70610685Y-81676128D01*
X70967828Y-80676128D02*
X70610685Y-81676128D01*
X70610685Y-81676128D02*
X70467828Y-82033271D01*
X70467828Y-82033271D02*
X70396399Y-82104700D01*
X70396399Y-82104700D02*
X70253542Y-82176128D01*
X71753542Y-81676128D02*
X71610685Y-81604700D01*
X71610685Y-81604700D02*
X71539256Y-81533271D01*
X71539256Y-81533271D02*
X71467828Y-81390414D01*
X71467828Y-81390414D02*
X71467828Y-80961842D01*
X71467828Y-80961842D02*
X71539256Y-80818985D01*
X71539256Y-80818985D02*
X71610685Y-80747557D01*
X71610685Y-80747557D02*
X71753542Y-80676128D01*
X71753542Y-80676128D02*
X71967828Y-80676128D01*
X71967828Y-80676128D02*
X72110685Y-80747557D01*
X72110685Y-80747557D02*
X72182114Y-80818985D01*
X72182114Y-80818985D02*
X72253542Y-80961842D01*
X72253542Y-80961842D02*
X72253542Y-81390414D01*
X72253542Y-81390414D02*
X72182114Y-81533271D01*
X72182114Y-81533271D02*
X72110685Y-81604700D01*
X72110685Y-81604700D02*
X71967828Y-81676128D01*
X71967828Y-81676128D02*
X71753542Y-81676128D01*
X72896399Y-80676128D02*
X72896399Y-81676128D01*
X72896399Y-80818985D02*
X72967828Y-80747557D01*
X72967828Y-80747557D02*
X73110685Y-80676128D01*
X73110685Y-80676128D02*
X73324971Y-80676128D01*
X73324971Y-80676128D02*
X73467828Y-80747557D01*
X73467828Y-80747557D02*
X73539257Y-80890414D01*
X73539257Y-80890414D02*
X73539257Y-81676128D01*
X74253542Y-81533271D02*
X74324971Y-81604700D01*
X74324971Y-81604700D02*
X74253542Y-81676128D01*
X74253542Y-81676128D02*
X74182114Y-81604700D01*
X74182114Y-81604700D02*
X74253542Y-81533271D01*
X74253542Y-81533271D02*
X74253542Y-81676128D01*
X74753543Y-80676128D02*
X75324971Y-80676128D01*
X74967828Y-81676128D02*
X74967828Y-80390414D01*
X74967828Y-80390414D02*
X75039257Y-80247557D01*
X75039257Y-80247557D02*
X75182114Y-80176128D01*
X75182114Y-80176128D02*
X75324971Y-80176128D01*
X75824971Y-81676128D02*
X75824971Y-80676128D01*
X75824971Y-80961842D02*
X75896400Y-80818985D01*
X75896400Y-80818985D02*
X75967829Y-80747557D01*
X75967829Y-80747557D02*
X76110686Y-80676128D01*
X76110686Y-80676128D02*
X76253543Y-80676128D01*
D10*
D11*
X31396398Y-78247557D02*
X32110684Y-78247557D01*
X31253541Y-78676128D02*
X31753541Y-77176128D01*
X31753541Y-77176128D02*
X32253541Y-78676128D01*
X33396398Y-77676128D02*
X33396398Y-78676128D01*
X32753540Y-77676128D02*
X32753540Y-78461842D01*
X32753540Y-78461842D02*
X32824969Y-78604700D01*
X32824969Y-78604700D02*
X32967826Y-78676128D01*
X32967826Y-78676128D02*
X33182112Y-78676128D01*
X33182112Y-78676128D02*
X33324969Y-78604700D01*
X33324969Y-78604700D02*
X33396398Y-78533271D01*
X33896398Y-77676128D02*
X34467826Y-77676128D01*
X34110683Y-77176128D02*
X34110683Y-78461842D01*
X34110683Y-78461842D02*
X34182112Y-78604700D01*
X34182112Y-78604700D02*
X34324969Y-78676128D01*
X34324969Y-78676128D02*
X34467826Y-78676128D01*
X34967826Y-78676128D02*
X34967826Y-77176128D01*
X35610684Y-78676128D02*
X35610684Y-77890414D01*
X35610684Y-77890414D02*
X35539255Y-77747557D01*
X35539255Y-77747557D02*
X35396398Y-77676128D01*
X35396398Y-77676128D02*
X35182112Y-77676128D01*
X35182112Y-77676128D02*
X35039255Y-77747557D01*
X35039255Y-77747557D02*
X34967826Y-77818985D01*
X36539255Y-78676128D02*
X36396398Y-78604700D01*
X36396398Y-78604700D02*
X36324969Y-78533271D01*
X36324969Y-78533271D02*
X36253541Y-78390414D01*
X36253541Y-78390414D02*
X36253541Y-77961842D01*
X36253541Y-77961842D02*
X36324969Y-77818985D01*
X36324969Y-77818985D02*
X36396398Y-77747557D01*
X36396398Y-77747557D02*
X36539255Y-77676128D01*
X36539255Y-77676128D02*
X36753541Y-77676128D01*
X36753541Y-77676128D02*
X36896398Y-77747557D01*
X36896398Y-77747557D02*
X36967827Y-77818985D01*
X36967827Y-77818985D02*
X37039255Y-77961842D01*
X37039255Y-77961842D02*
X37039255Y-78390414D01*
X37039255Y-78390414D02*
X36967827Y-78533271D01*
X36967827Y-78533271D02*
X36896398Y-78604700D01*
X36896398Y-78604700D02*
X36753541Y-78676128D01*
X36753541Y-78676128D02*
X36539255Y-78676128D01*
X37682112Y-78676128D02*
X37682112Y-77676128D01*
X37682112Y-77961842D02*
X37753541Y-77818985D01*
X37753541Y-77818985D02*
X37824970Y-77747557D01*
X37824970Y-77747557D02*
X37967827Y-77676128D01*
X37967827Y-77676128D02*
X38110684Y-77676128D01*
X38539255Y-78604700D02*
X38682112Y-78676128D01*
X38682112Y-78676128D02*
X38967826Y-78676128D01*
X38967826Y-78676128D02*
X39110683Y-78604700D01*
X39110683Y-78604700D02*
X39182112Y-78461842D01*
X39182112Y-78461842D02*
X39182112Y-78390414D01*
X39182112Y-78390414D02*
X39110683Y-78247557D01*
X39110683Y-78247557D02*
X38967826Y-78176128D01*
X38967826Y-78176128D02*
X38753541Y-78176128D01*
X38753541Y-78176128D02*
X38610683Y-78104700D01*
X38610683Y-78104700D02*
X38539255Y-77961842D01*
X38539255Y-77961842D02*
X38539255Y-77890414D01*
X38539255Y-77890414D02*
X38610683Y-77747557D01*
X38610683Y-77747557D02*
X38753541Y-77676128D01*
X38753541Y-77676128D02*
X38967826Y-77676128D01*
X38967826Y-77676128D02*
X39110683Y-77747557D01*
X40967826Y-78533271D02*
X41039255Y-78604700D01*
X41039255Y-78604700D02*
X40967826Y-78676128D01*
X40967826Y-78676128D02*
X40896398Y-78604700D01*
X40896398Y-78604700D02*
X40967826Y-78533271D01*
X40967826Y-78533271D02*
X40967826Y-78676128D01*
X40967826Y-77747557D02*
X41039255Y-77818985D01*
X41039255Y-77818985D02*
X40967826Y-77890414D01*
X40967826Y-77890414D02*
X40896398Y-77818985D01*
X40896398Y-77818985D02*
X40967826Y-77747557D01*
X40967826Y-77747557D02*
X40967826Y-77890414D01*
X43324969Y-77890414D02*
X43539255Y-77961842D01*
X43539255Y-77961842D02*
X43610684Y-78033271D01*
X43610684Y-78033271D02*
X43682112Y-78176128D01*
X43682112Y-78176128D02*
X43682112Y-78390414D01*
X43682112Y-78390414D02*
X43610684Y-78533271D01*
X43610684Y-78533271D02*
X43539255Y-78604700D01*
X43539255Y-78604700D02*
X43396398Y-78676128D01*
X43396398Y-78676128D02*
X42824969Y-78676128D01*
X42824969Y-78676128D02*
X42824969Y-77176128D01*
X42824969Y-77176128D02*
X43324969Y-77176128D01*
X43324969Y-77176128D02*
X43467827Y-77247557D01*
X43467827Y-77247557D02*
X43539255Y-77318985D01*
X43539255Y-77318985D02*
X43610684Y-77461842D01*
X43610684Y-77461842D02*
X43610684Y-77604700D01*
X43610684Y-77604700D02*
X43539255Y-77747557D01*
X43539255Y-77747557D02*
X43467827Y-77818985D01*
X43467827Y-77818985D02*
X43324969Y-77890414D01*
X43324969Y-77890414D02*
X42824969Y-77890414D01*
X44896398Y-78604700D02*
X44753541Y-78676128D01*
X44753541Y-78676128D02*
X44467827Y-78676128D01*
X44467827Y-78676128D02*
X44324969Y-78604700D01*
X44324969Y-78604700D02*
X44253541Y-78461842D01*
X44253541Y-78461842D02*
X44253541Y-77890414D01*
X44253541Y-77890414D02*
X44324969Y-77747557D01*
X44324969Y-77747557D02*
X44467827Y-77676128D01*
X44467827Y-77676128D02*
X44753541Y-77676128D01*
X44753541Y-77676128D02*
X44896398Y-77747557D01*
X44896398Y-77747557D02*
X44967827Y-77890414D01*
X44967827Y-77890414D02*
X44967827Y-78033271D01*
X44967827Y-78033271D02*
X44253541Y-78176128D01*
X45610683Y-78676128D02*
X45610683Y-77676128D01*
X45610683Y-77961842D02*
X45682112Y-77818985D01*
X45682112Y-77818985D02*
X45753541Y-77747557D01*
X45753541Y-77747557D02*
X45896398Y-77676128D01*
X45896398Y-77676128D02*
X46039255Y-77676128D01*
X46324969Y-77676128D02*
X46896397Y-77676128D01*
X46539254Y-77176128D02*
X46539254Y-78461842D01*
X46539254Y-78461842D02*
X46610683Y-78604700D01*
X46610683Y-78604700D02*
X46753540Y-78676128D01*
X46753540Y-78676128D02*
X46896397Y-78676128D01*
X47396397Y-78676128D02*
X47396397Y-77676128D01*
X47396397Y-77961842D02*
X47467826Y-77818985D01*
X47467826Y-77818985D02*
X47539255Y-77747557D01*
X47539255Y-77747557D02*
X47682112Y-77676128D01*
X47682112Y-77676128D02*
X47824969Y-77676128D01*
X48967826Y-78676128D02*
X48967826Y-77890414D01*
X48967826Y-77890414D02*
X48896397Y-77747557D01*
X48896397Y-77747557D02*
X48753540Y-77676128D01*
X48753540Y-77676128D02*
X48467826Y-77676128D01*
X48467826Y-77676128D02*
X48324968Y-77747557D01*
X48967826Y-78604700D02*
X48824968Y-78676128D01*
X48824968Y-78676128D02*
X48467826Y-78676128D01*
X48467826Y-78676128D02*
X48324968Y-78604700D01*
X48324968Y-78604700D02*
X48253540Y-78461842D01*
X48253540Y-78461842D02*
X48253540Y-78318985D01*
X48253540Y-78318985D02*
X48324968Y-78176128D01*
X48324968Y-78176128D02*
X48467826Y-78104700D01*
X48467826Y-78104700D02*
X48824968Y-78104700D01*
X48824968Y-78104700D02*
X48967826Y-78033271D01*
X49682111Y-77676128D02*
X49682111Y-78676128D01*
X49682111Y-77818985D02*
X49753540Y-77747557D01*
X49753540Y-77747557D02*
X49896397Y-77676128D01*
X49896397Y-77676128D02*
X50110683Y-77676128D01*
X50110683Y-77676128D02*
X50253540Y-77747557D01*
X50253540Y-77747557D02*
X50324969Y-77890414D01*
X50324969Y-77890414D02*
X50324969Y-78676128D01*
X51682112Y-78676128D02*
X51682112Y-77176128D01*
X51682112Y-78604700D02*
X51539254Y-78676128D01*
X51539254Y-78676128D02*
X51253540Y-78676128D01*
X51253540Y-78676128D02*
X51110683Y-78604700D01*
X51110683Y-78604700D02*
X51039254Y-78533271D01*
X51039254Y-78533271D02*
X50967826Y-78390414D01*
X50967826Y-78390414D02*
X50967826Y-77961842D01*
X50967826Y-77961842D02*
X51039254Y-77818985D01*
X51039254Y-77818985D02*
X51110683Y-77747557D01*
X51110683Y-77747557D02*
X51253540Y-77676128D01*
X51253540Y-77676128D02*
X51539254Y-77676128D01*
X51539254Y-77676128D02*
X51682112Y-77747557D01*
X53539254Y-78676128D02*
X53539254Y-77176128D01*
X53539254Y-77176128D02*
X54039254Y-78247557D01*
X54039254Y-78247557D02*
X54539254Y-77176128D01*
X54539254Y-77176128D02*
X54539254Y-78676128D01*
X55896398Y-78676128D02*
X55896398Y-77890414D01*
X55896398Y-77890414D02*
X55824969Y-77747557D01*
X55824969Y-77747557D02*
X55682112Y-77676128D01*
X55682112Y-77676128D02*
X55396398Y-77676128D01*
X55396398Y-77676128D02*
X55253540Y-77747557D01*
X55896398Y-78604700D02*
X55753540Y-78676128D01*
X55753540Y-78676128D02*
X55396398Y-78676128D01*
X55396398Y-78676128D02*
X55253540Y-78604700D01*
X55253540Y-78604700D02*
X55182112Y-78461842D01*
X55182112Y-78461842D02*
X55182112Y-78318985D01*
X55182112Y-78318985D02*
X55253540Y-78176128D01*
X55253540Y-78176128D02*
X55396398Y-78104700D01*
X55396398Y-78104700D02*
X55753540Y-78104700D01*
X55753540Y-78104700D02*
X55896398Y-78033271D01*
X56539255Y-78604700D02*
X56682112Y-78676128D01*
X56682112Y-78676128D02*
X56967826Y-78676128D01*
X56967826Y-78676128D02*
X57110683Y-78604700D01*
X57110683Y-78604700D02*
X57182112Y-78461842D01*
X57182112Y-78461842D02*
X57182112Y-78390414D01*
X57182112Y-78390414D02*
X57110683Y-78247557D01*
X57110683Y-78247557D02*
X56967826Y-78176128D01*
X56967826Y-78176128D02*
X56753541Y-78176128D01*
X56753541Y-78176128D02*
X56610683Y-78104700D01*
X56610683Y-78104700D02*
X56539255Y-77961842D01*
X56539255Y-77961842D02*
X56539255Y-77890414D01*
X56539255Y-77890414D02*
X56610683Y-77747557D01*
X56610683Y-77747557D02*
X56753541Y-77676128D01*
X56753541Y-77676128D02*
X56967826Y-77676128D01*
X56967826Y-77676128D02*
X57110683Y-77747557D01*
X57753541Y-78604700D02*
X57896398Y-78676128D01*
X57896398Y-78676128D02*
X58182112Y-78676128D01*
X58182112Y-78676128D02*
X58324969Y-78604700D01*
X58324969Y-78604700D02*
X58396398Y-78461842D01*
X58396398Y-78461842D02*
X58396398Y-78390414D01*
X58396398Y-78390414D02*
X58324969Y-78247557D01*
X58324969Y-78247557D02*
X58182112Y-78176128D01*
X58182112Y-78176128D02*
X57967827Y-78176128D01*
X57967827Y-78176128D02*
X57824969Y-78104700D01*
X57824969Y-78104700D02*
X57753541Y-77961842D01*
X57753541Y-77961842D02*
X57753541Y-77890414D01*
X57753541Y-77890414D02*
X57824969Y-77747557D01*
X57824969Y-77747557D02*
X57967827Y-77676128D01*
X57967827Y-77676128D02*
X58182112Y-77676128D01*
X58182112Y-77676128D02*
X58324969Y-77747557D01*
X59253541Y-78676128D02*
X59110684Y-78604700D01*
X59110684Y-78604700D02*
X59039255Y-78533271D01*
X59039255Y-78533271D02*
X58967827Y-78390414D01*
X58967827Y-78390414D02*
X58967827Y-77961842D01*
X58967827Y-77961842D02*
X59039255Y-77818985D01*
X59039255Y-77818985D02*
X59110684Y-77747557D01*
X59110684Y-77747557D02*
X59253541Y-77676128D01*
X59253541Y-77676128D02*
X59467827Y-77676128D01*
X59467827Y-77676128D02*
X59610684Y-77747557D01*
X59610684Y-77747557D02*
X59682113Y-77818985D01*
X59682113Y-77818985D02*
X59753541Y-77961842D01*
X59753541Y-77961842D02*
X59753541Y-78390414D01*
X59753541Y-78390414D02*
X59682113Y-78533271D01*
X59682113Y-78533271D02*
X59610684Y-78604700D01*
X59610684Y-78604700D02*
X59467827Y-78676128D01*
X59467827Y-78676128D02*
X59253541Y-78676128D01*
X60182113Y-77676128D02*
X60753541Y-77676128D01*
X60396398Y-77176128D02*
X60396398Y-78461842D01*
X60396398Y-78461842D02*
X60467827Y-78604700D01*
X60467827Y-78604700D02*
X60610684Y-78676128D01*
X60610684Y-78676128D02*
X60753541Y-78676128D01*
X61324970Y-78604700D02*
X61324970Y-78676128D01*
X61324970Y-78676128D02*
X61253541Y-78818985D01*
X61253541Y-78818985D02*
X61182113Y-78890414D01*
X63110684Y-78676128D02*
X63110684Y-77176128D01*
X63110684Y-77176128D02*
X63610684Y-78247557D01*
X63610684Y-78247557D02*
X64110684Y-77176128D01*
X64110684Y-77176128D02*
X64110684Y-78676128D01*
X65467828Y-78676128D02*
X65467828Y-77890414D01*
X65467828Y-77890414D02*
X65396399Y-77747557D01*
X65396399Y-77747557D02*
X65253542Y-77676128D01*
X65253542Y-77676128D02*
X64967828Y-77676128D01*
X64967828Y-77676128D02*
X64824970Y-77747557D01*
X65467828Y-78604700D02*
X65324970Y-78676128D01*
X65324970Y-78676128D02*
X64967828Y-78676128D01*
X64967828Y-78676128D02*
X64824970Y-78604700D01*
X64824970Y-78604700D02*
X64753542Y-78461842D01*
X64753542Y-78461842D02*
X64753542Y-78318985D01*
X64753542Y-78318985D02*
X64824970Y-78176128D01*
X64824970Y-78176128D02*
X64967828Y-78104700D01*
X64967828Y-78104700D02*
X65324970Y-78104700D01*
X65324970Y-78104700D02*
X65467828Y-78033271D01*
X65967828Y-77676128D02*
X66539256Y-77676128D01*
X66182113Y-77176128D02*
X66182113Y-78461842D01*
X66182113Y-78461842D02*
X66253542Y-78604700D01*
X66253542Y-78604700D02*
X66396399Y-78676128D01*
X66396399Y-78676128D02*
X66539256Y-78676128D01*
X66824971Y-77676128D02*
X67396399Y-77676128D01*
X67039256Y-77176128D02*
X67039256Y-78461842D01*
X67039256Y-78461842D02*
X67110685Y-78604700D01*
X67110685Y-78604700D02*
X67253542Y-78676128D01*
X67253542Y-78676128D02*
X67396399Y-78676128D01*
X67896399Y-78676128D02*
X67896399Y-77176128D01*
X68539257Y-78676128D02*
X68539257Y-77890414D01*
X68539257Y-77890414D02*
X68467828Y-77747557D01*
X68467828Y-77747557D02*
X68324971Y-77676128D01*
X68324971Y-77676128D02*
X68110685Y-77676128D01*
X68110685Y-77676128D02*
X67967828Y-77747557D01*
X67967828Y-77747557D02*
X67896399Y-77818985D01*
X69253542Y-78676128D02*
X69253542Y-77676128D01*
X69253542Y-77176128D02*
X69182114Y-77247557D01*
X69182114Y-77247557D02*
X69253542Y-77318985D01*
X69253542Y-77318985D02*
X69324971Y-77247557D01*
X69324971Y-77247557D02*
X69253542Y-77176128D01*
X69253542Y-77176128D02*
X69253542Y-77318985D01*
X70539257Y-78604700D02*
X70396400Y-78676128D01*
X70396400Y-78676128D02*
X70110686Y-78676128D01*
X70110686Y-78676128D02*
X69967828Y-78604700D01*
X69967828Y-78604700D02*
X69896400Y-78461842D01*
X69896400Y-78461842D02*
X69896400Y-77890414D01*
X69896400Y-77890414D02*
X69967828Y-77747557D01*
X69967828Y-77747557D02*
X70110686Y-77676128D01*
X70110686Y-77676128D02*
X70396400Y-77676128D01*
X70396400Y-77676128D02*
X70539257Y-77747557D01*
X70539257Y-77747557D02*
X70610686Y-77890414D01*
X70610686Y-77890414D02*
X70610686Y-78033271D01*
X70610686Y-78033271D02*
X69896400Y-78176128D01*
X71896400Y-77676128D02*
X71896400Y-78676128D01*
X71253542Y-77676128D02*
X71253542Y-78461842D01*
X71253542Y-78461842D02*
X71324971Y-78604700D01*
X71324971Y-78604700D02*
X71467828Y-78676128D01*
X71467828Y-78676128D02*
X71682114Y-78676128D01*
X71682114Y-78676128D02*
X71824971Y-78604700D01*
X71824971Y-78604700D02*
X71896400Y-78533271D01*
X73753542Y-78676128D02*
X73753542Y-77176128D01*
X73753542Y-77176128D02*
X74253542Y-78247557D01*
X74253542Y-78247557D02*
X74753542Y-77176128D01*
X74753542Y-77176128D02*
X74753542Y-78676128D01*
X76039257Y-78604700D02*
X75896400Y-78676128D01*
X75896400Y-78676128D02*
X75610686Y-78676128D01*
X75610686Y-78676128D02*
X75467828Y-78604700D01*
X75467828Y-78604700D02*
X75396400Y-78461842D01*
X75396400Y-78461842D02*
X75396400Y-77890414D01*
X75396400Y-77890414D02*
X75467828Y-77747557D01*
X75467828Y-77747557D02*
X75610686Y-77676128D01*
X75610686Y-77676128D02*
X75896400Y-77676128D01*
X75896400Y-77676128D02*
X76039257Y-77747557D01*
X76039257Y-77747557D02*
X76110686Y-77890414D01*
X76110686Y-77890414D02*
X76110686Y-78033271D01*
X76110686Y-78033271D02*
X75396400Y-78176128D01*
X76682114Y-78604700D02*
X76824971Y-78676128D01*
X76824971Y-78676128D02*
X77110685Y-78676128D01*
X77110685Y-78676128D02*
X77253542Y-78604700D01*
X77253542Y-78604700D02*
X77324971Y-78461842D01*
X77324971Y-78461842D02*
X77324971Y-78390414D01*
X77324971Y-78390414D02*
X77253542Y-78247557D01*
X77253542Y-78247557D02*
X77110685Y-78176128D01*
X77110685Y-78176128D02*
X76896400Y-78176128D01*
X76896400Y-78176128D02*
X76753542Y-78104700D01*
X76753542Y-78104700D02*
X76682114Y-77961842D01*
X76682114Y-77961842D02*
X76682114Y-77890414D01*
X76682114Y-77890414D02*
X76753542Y-77747557D01*
X76753542Y-77747557D02*
X76896400Y-77676128D01*
X76896400Y-77676128D02*
X77110685Y-77676128D01*
X77110685Y-77676128D02*
X77253542Y-77747557D01*
X77967828Y-77676128D02*
X77967828Y-78676128D01*
X77967828Y-77818985D02*
X78039257Y-77747557D01*
X78039257Y-77747557D02*
X78182114Y-77676128D01*
X78182114Y-77676128D02*
X78396400Y-77676128D01*
X78396400Y-77676128D02*
X78539257Y-77747557D01*
X78539257Y-77747557D02*
X78610686Y-77890414D01*
X78610686Y-77890414D02*
X78610686Y-78676128D01*
X79967829Y-78676128D02*
X79967829Y-77890414D01*
X79967829Y-77890414D02*
X79896400Y-77747557D01*
X79896400Y-77747557D02*
X79753543Y-77676128D01*
X79753543Y-77676128D02*
X79467829Y-77676128D01*
X79467829Y-77676128D02*
X79324971Y-77747557D01*
X79967829Y-78604700D02*
X79824971Y-78676128D01*
X79824971Y-78676128D02*
X79467829Y-78676128D01*
X79467829Y-78676128D02*
X79324971Y-78604700D01*
X79324971Y-78604700D02*
X79253543Y-78461842D01*
X79253543Y-78461842D02*
X79253543Y-78318985D01*
X79253543Y-78318985D02*
X79324971Y-78176128D01*
X79324971Y-78176128D02*
X79467829Y-78104700D01*
X79467829Y-78104700D02*
X79824971Y-78104700D01*
X79824971Y-78104700D02*
X79967829Y-78033271D01*
X81324972Y-77676128D02*
X81324972Y-78890414D01*
X81324972Y-78890414D02*
X81253543Y-79033271D01*
X81253543Y-79033271D02*
X81182114Y-79104700D01*
X81182114Y-79104700D02*
X81039257Y-79176128D01*
X81039257Y-79176128D02*
X80824972Y-79176128D01*
X80824972Y-79176128D02*
X80682114Y-79104700D01*
X81324972Y-78604700D02*
X81182114Y-78676128D01*
X81182114Y-78676128D02*
X80896400Y-78676128D01*
X80896400Y-78676128D02*
X80753543Y-78604700D01*
X80753543Y-78604700D02*
X80682114Y-78533271D01*
X80682114Y-78533271D02*
X80610686Y-78390414D01*
X80610686Y-78390414D02*
X80610686Y-77961842D01*
X80610686Y-77961842D02*
X80682114Y-77818985D01*
X80682114Y-77818985D02*
X80753543Y-77747557D01*
X80753543Y-77747557D02*
X80896400Y-77676128D01*
X80896400Y-77676128D02*
X81182114Y-77676128D01*
X81182114Y-77676128D02*
X81324972Y-77747557D01*
X82610686Y-78604700D02*
X82467829Y-78676128D01*
X82467829Y-78676128D02*
X82182115Y-78676128D01*
X82182115Y-78676128D02*
X82039257Y-78604700D01*
X82039257Y-78604700D02*
X81967829Y-78461842D01*
X81967829Y-78461842D02*
X81967829Y-77890414D01*
X81967829Y-77890414D02*
X82039257Y-77747557D01*
X82039257Y-77747557D02*
X82182115Y-77676128D01*
X82182115Y-77676128D02*
X82467829Y-77676128D01*
X82467829Y-77676128D02*
X82610686Y-77747557D01*
X82610686Y-77747557D02*
X82682115Y-77890414D01*
X82682115Y-77890414D02*
X82682115Y-78033271D01*
X82682115Y-78033271D02*
X81967829Y-78176128D01*
X83396400Y-78604700D02*
X83396400Y-78676128D01*
X83396400Y-78676128D02*
X83324971Y-78818985D01*
X83324971Y-78818985D02*
X83253543Y-78890414D01*
X85182114Y-78676128D02*
X85182114Y-77176128D01*
X85182114Y-77890414D02*
X86039257Y-77890414D01*
X86039257Y-78676128D02*
X86039257Y-77176128D01*
X87396401Y-77676128D02*
X87396401Y-78676128D01*
X86753543Y-77676128D02*
X86753543Y-78461842D01*
X86753543Y-78461842D02*
X86824972Y-78604700D01*
X86824972Y-78604700D02*
X86967829Y-78676128D01*
X86967829Y-78676128D02*
X87182115Y-78676128D01*
X87182115Y-78676128D02*
X87324972Y-78604700D01*
X87324972Y-78604700D02*
X87396401Y-78533271D01*
X88753544Y-77676128D02*
X88753544Y-78890414D01*
X88753544Y-78890414D02*
X88682115Y-79033271D01*
X88682115Y-79033271D02*
X88610686Y-79104700D01*
X88610686Y-79104700D02*
X88467829Y-79176128D01*
X88467829Y-79176128D02*
X88253544Y-79176128D01*
X88253544Y-79176128D02*
X88110686Y-79104700D01*
X88753544Y-78604700D02*
X88610686Y-78676128D01*
X88610686Y-78676128D02*
X88324972Y-78676128D01*
X88324972Y-78676128D02*
X88182115Y-78604700D01*
X88182115Y-78604700D02*
X88110686Y-78533271D01*
X88110686Y-78533271D02*
X88039258Y-78390414D01*
X88039258Y-78390414D02*
X88039258Y-77961842D01*
X88039258Y-77961842D02*
X88110686Y-77818985D01*
X88110686Y-77818985D02*
X88182115Y-77747557D01*
X88182115Y-77747557D02*
X88324972Y-77676128D01*
X88324972Y-77676128D02*
X88610686Y-77676128D01*
X88610686Y-77676128D02*
X88753544Y-77747557D01*
X89682115Y-78676128D02*
X89539258Y-78604700D01*
X89539258Y-78604700D02*
X89467829Y-78533271D01*
X89467829Y-78533271D02*
X89396401Y-78390414D01*
X89396401Y-78390414D02*
X89396401Y-77961842D01*
X89396401Y-77961842D02*
X89467829Y-77818985D01*
X89467829Y-77818985D02*
X89539258Y-77747557D01*
X89539258Y-77747557D02*
X89682115Y-77676128D01*
X89682115Y-77676128D02*
X89896401Y-77676128D01*
X89896401Y-77676128D02*
X90039258Y-77747557D01*
X90039258Y-77747557D02*
X90110687Y-77818985D01*
X90110687Y-77818985D02*
X90182115Y-77961842D01*
X90182115Y-77961842D02*
X90182115Y-78390414D01*
X90182115Y-78390414D02*
X90110687Y-78533271D01*
X90110687Y-78533271D02*
X90039258Y-78604700D01*
X90039258Y-78604700D02*
X89896401Y-78676128D01*
X89896401Y-78676128D02*
X89682115Y-78676128D01*
X92467829Y-77890414D02*
X92682115Y-77961842D01*
X92682115Y-77961842D02*
X92753544Y-78033271D01*
X92753544Y-78033271D02*
X92824972Y-78176128D01*
X92824972Y-78176128D02*
X92824972Y-78390414D01*
X92824972Y-78390414D02*
X92753544Y-78533271D01*
X92753544Y-78533271D02*
X92682115Y-78604700D01*
X92682115Y-78604700D02*
X92539258Y-78676128D01*
X92539258Y-78676128D02*
X91967829Y-78676128D01*
X91967829Y-78676128D02*
X91967829Y-77176128D01*
X91967829Y-77176128D02*
X92467829Y-77176128D01*
X92467829Y-77176128D02*
X92610687Y-77247557D01*
X92610687Y-77247557D02*
X92682115Y-77318985D01*
X92682115Y-77318985D02*
X92753544Y-77461842D01*
X92753544Y-77461842D02*
X92753544Y-77604700D01*
X92753544Y-77604700D02*
X92682115Y-77747557D01*
X92682115Y-77747557D02*
X92610687Y-77818985D01*
X92610687Y-77818985D02*
X92467829Y-77890414D01*
X92467829Y-77890414D02*
X91967829Y-77890414D01*
X94110687Y-77676128D02*
X94110687Y-78676128D01*
X93467829Y-77676128D02*
X93467829Y-78461842D01*
X93467829Y-78461842D02*
X93539258Y-78604700D01*
X93539258Y-78604700D02*
X93682115Y-78676128D01*
X93682115Y-78676128D02*
X93896401Y-78676128D01*
X93896401Y-78676128D02*
X94039258Y-78604700D01*
X94039258Y-78604700D02*
X94110687Y-78533271D01*
X94682115Y-77676128D02*
X95039258Y-78676128D01*
X95396401Y-77676128D02*
X95039258Y-78676128D01*
X95039258Y-78676128D02*
X94896401Y-79033271D01*
X94896401Y-79033271D02*
X94824972Y-79104700D01*
X94824972Y-79104700D02*
X94682115Y-79176128D01*
D10*
D11*
X50012000Y-101490000D02*
X50012000Y-104490000D01*
D10*
D11*
X114012000Y-101490000D02*
X114012000Y-107990000D01*
D12*
D14*
X60138610Y-29274114D02*
X60352896Y-29345542D01*
X60352896Y-29345542D02*
X60424325Y-29416971D01*
X60424325Y-29416971D02*
X60495753Y-29559828D01*
X60495753Y-29559828D02*
X60495753Y-29774114D01*
X60495753Y-29774114D02*
X60424325Y-29916971D01*
X60424325Y-29916971D02*
X60352896Y-29988400D01*
X60352896Y-29988400D02*
X60210039Y-30059828D01*
X60210039Y-30059828D02*
X59638610Y-30059828D01*
X59638610Y-30059828D02*
X59638610Y-28559828D01*
X59638610Y-28559828D02*
X60138610Y-28559828D01*
X60138610Y-28559828D02*
X60281468Y-28631257D01*
X60281468Y-28631257D02*
X60352896Y-28702685D01*
X60352896Y-28702685D02*
X60424325Y-28845542D01*
X60424325Y-28845542D02*
X60424325Y-28988400D01*
X60424325Y-28988400D02*
X60352896Y-29131257D01*
X60352896Y-29131257D02*
X60281468Y-29202685D01*
X60281468Y-29202685D02*
X60138610Y-29274114D01*
X60138610Y-29274114D02*
X59638610Y-29274114D01*
X61352896Y-30059828D02*
X61210039Y-29988400D01*
X61210039Y-29988400D02*
X61138610Y-29916971D01*
X61138610Y-29916971D02*
X61067182Y-29774114D01*
X61067182Y-29774114D02*
X61067182Y-29345542D01*
X61067182Y-29345542D02*
X61138610Y-29202685D01*
X61138610Y-29202685D02*
X61210039Y-29131257D01*
X61210039Y-29131257D02*
X61352896Y-29059828D01*
X61352896Y-29059828D02*
X61567182Y-29059828D01*
X61567182Y-29059828D02*
X61710039Y-29131257D01*
X61710039Y-29131257D02*
X61781468Y-29202685D01*
X61781468Y-29202685D02*
X61852896Y-29345542D01*
X61852896Y-29345542D02*
X61852896Y-29774114D01*
X61852896Y-29774114D02*
X61781468Y-29916971D01*
X61781468Y-29916971D02*
X61710039Y-29988400D01*
X61710039Y-29988400D02*
X61567182Y-30059828D01*
X61567182Y-30059828D02*
X61352896Y-30059828D01*
X62281468Y-29059828D02*
X62852896Y-29059828D01*
X62495753Y-28559828D02*
X62495753Y-29845542D01*
X62495753Y-29845542D02*
X62567182Y-29988400D01*
X62567182Y-29988400D02*
X62710039Y-30059828D01*
X62710039Y-30059828D02*
X62852896Y-30059828D01*
X65352896Y-29916971D02*
X65281468Y-29988400D01*
X65281468Y-29988400D02*
X65067182Y-30059828D01*
X65067182Y-30059828D02*
X64924325Y-30059828D01*
X64924325Y-30059828D02*
X64710039Y-29988400D01*
X64710039Y-29988400D02*
X64567182Y-29845542D01*
X64567182Y-29845542D02*
X64495753Y-29702685D01*
X64495753Y-29702685D02*
X64424325Y-29416971D01*
X64424325Y-29416971D02*
X64424325Y-29202685D01*
X64424325Y-29202685D02*
X64495753Y-28916971D01*
X64495753Y-28916971D02*
X64567182Y-28774114D01*
X64567182Y-28774114D02*
X64710039Y-28631257D01*
X64710039Y-28631257D02*
X64924325Y-28559828D01*
X64924325Y-28559828D02*
X65067182Y-28559828D01*
X65067182Y-28559828D02*
X65281468Y-28631257D01*
X65281468Y-28631257D02*
X65352896Y-28702685D01*
X66210039Y-30059828D02*
X66067182Y-29988400D01*
X66067182Y-29988400D02*
X65995753Y-29916971D01*
X65995753Y-29916971D02*
X65924325Y-29774114D01*
X65924325Y-29774114D02*
X65924325Y-29345542D01*
X65924325Y-29345542D02*
X65995753Y-29202685D01*
X65995753Y-29202685D02*
X66067182Y-29131257D01*
X66067182Y-29131257D02*
X66210039Y-29059828D01*
X66210039Y-29059828D02*
X66424325Y-29059828D01*
X66424325Y-29059828D02*
X66567182Y-29131257D01*
X66567182Y-29131257D02*
X66638611Y-29202685D01*
X66638611Y-29202685D02*
X66710039Y-29345542D01*
X66710039Y-29345542D02*
X66710039Y-29774114D01*
X66710039Y-29774114D02*
X66638611Y-29916971D01*
X66638611Y-29916971D02*
X66567182Y-29988400D01*
X66567182Y-29988400D02*
X66424325Y-30059828D01*
X66424325Y-30059828D02*
X66210039Y-30059828D01*
X67352896Y-29059828D02*
X67352896Y-30559828D01*
X67352896Y-29131257D02*
X67495754Y-29059828D01*
X67495754Y-29059828D02*
X67781468Y-29059828D01*
X67781468Y-29059828D02*
X67924325Y-29131257D01*
X67924325Y-29131257D02*
X67995754Y-29202685D01*
X67995754Y-29202685D02*
X68067182Y-29345542D01*
X68067182Y-29345542D02*
X68067182Y-29774114D01*
X68067182Y-29774114D02*
X67995754Y-29916971D01*
X67995754Y-29916971D02*
X67924325Y-29988400D01*
X67924325Y-29988400D02*
X67781468Y-30059828D01*
X67781468Y-30059828D02*
X67495754Y-30059828D01*
X67495754Y-30059828D02*
X67352896Y-29988400D01*
X68710039Y-29059828D02*
X68710039Y-30559828D01*
X68710039Y-29131257D02*
X68852897Y-29059828D01*
X68852897Y-29059828D02*
X69138611Y-29059828D01*
X69138611Y-29059828D02*
X69281468Y-29131257D01*
X69281468Y-29131257D02*
X69352897Y-29202685D01*
X69352897Y-29202685D02*
X69424325Y-29345542D01*
X69424325Y-29345542D02*
X69424325Y-29774114D01*
X69424325Y-29774114D02*
X69352897Y-29916971D01*
X69352897Y-29916971D02*
X69281468Y-29988400D01*
X69281468Y-29988400D02*
X69138611Y-30059828D01*
X69138611Y-30059828D02*
X68852897Y-30059828D01*
X68852897Y-30059828D02*
X68710039Y-29988400D01*
X70638611Y-29988400D02*
X70495754Y-30059828D01*
X70495754Y-30059828D02*
X70210040Y-30059828D01*
X70210040Y-30059828D02*
X70067182Y-29988400D01*
X70067182Y-29988400D02*
X69995754Y-29845542D01*
X69995754Y-29845542D02*
X69995754Y-29274114D01*
X69995754Y-29274114D02*
X70067182Y-29131257D01*
X70067182Y-29131257D02*
X70210040Y-29059828D01*
X70210040Y-29059828D02*
X70495754Y-29059828D01*
X70495754Y-29059828D02*
X70638611Y-29131257D01*
X70638611Y-29131257D02*
X70710040Y-29274114D01*
X70710040Y-29274114D02*
X70710040Y-29416971D01*
X70710040Y-29416971D02*
X69995754Y-29559828D01*
X71352896Y-30059828D02*
X71352896Y-29059828D01*
X71352896Y-29345542D02*
X71424325Y-29202685D01*
X71424325Y-29202685D02*
X71495754Y-29131257D01*
X71495754Y-29131257D02*
X71638611Y-29059828D01*
X71638611Y-29059828D02*
X71781468Y-29059828D01*
D15*
%TO.P,J1,S1,SHIELD*%
%TO.N,unconnected-(J1-SHIELD-PadS1)*%
X33793000Y-55010029D03*
%TO.P,J1,S2,SHIELD__1*%
%TO.N,unconnected-(J1-SHIELD__1-PadS2)*%
X42433000Y-55010029D03*
D16*
%TO.P,J1,S3,SHIELD__2*%
%TO.N,unconnected-(J1-SHIELD__2-PadS3)*%
X33793000Y-60370029D03*
%TO.P,J1,S4,SHIELD__3*%
%TO.N,unconnected-(J1-SHIELD__3-PadS4)*%
X42433000Y-60370029D03*
%TD*%
D17*
%TO.P,J2,1,Pin_1*%
%TO.N,VBAT*%
X32513000Y-42750029D03*
%TO.P,J2,2,Pin_2*%
%TO.N,NTC BAT*%
X32513000Y-41500029D03*
%TO.P,J2,3,Pin_3*%
%TO.N,GND*%
X32513000Y-40250029D03*
%TD*%
D18*
%TO.P,J4,1,Pin_1*%
%TO.N,ZOUT*%
X33000000Y-29960000D03*
D19*
%TO.P,J4,2,Pin_2*%
%TO.N,ZIN*%
X33000000Y-32500000D03*
%TD*%
D20*
%TO.N,GND*%
X44850000Y-36275000D03*
X43175000Y-28675000D03*
X52363000Y-39350029D03*
X46700000Y-43675000D03*
X38350000Y-49000000D03*
X48500000Y-29400000D03*
X41113000Y-28250029D03*
X35400000Y-52576529D03*
X37125000Y-51423529D03*
X46563000Y-54250029D03*
X50913000Y-32650029D03*
X37900000Y-52575000D03*
X48313000Y-37699529D03*
X43225000Y-32050000D03*
X41963000Y-43700000D03*
X46225000Y-48275000D03*
X39000000Y-37500000D03*
X43650000Y-51750000D03*
X41163000Y-32800029D03*
%TO.N,VBAT_SENSE*%
X39462986Y-43450014D03*
X36263000Y-43450029D03*
%TO.N,VDD*%
X43975000Y-43250000D03*
X38963000Y-47250029D03*
%TO.N,VCC*%
X51531486Y-29868514D03*
X47213000Y-48250029D03*
X52050000Y-22500000D03*
X47025000Y-42675000D03*
X44763000Y-27600029D03*
%TO.N,VSYS*%
X46350000Y-40600000D03*
X32163000Y-52250029D03*
X50713000Y-48300029D03*
X44163000Y-54200029D03*
X31763000Y-47500029D03*
%TO.N,IOUT*%
X41350000Y-34750000D03*
X48326500Y-32950029D03*
%TO.N,Net-(J1-CC1)*%
X37190000Y-53730529D03*
X33100000Y-56400000D03*
%TO.N,Net-(J1-CC2)*%
X37975000Y-53730529D03*
X33900000Y-57300000D03*
%TO.N,Net-(D1-A)*%
X38963000Y-48400029D03*
X40850000Y-51750000D03*
%TO.N,Net-(U4-~{CHG})*%
X46375000Y-41550000D03*
X32039500Y-50900029D03*
%TO.N,Net-(U4-~{PGOOD})*%
X46375000Y-39700000D03*
X32000000Y-53400000D03*
%TO.N,NTC BAT*%
X35413000Y-47500029D03*
X35313000Y-41500029D03*
%TO.N,SDA*%
X45313000Y-48100029D03*
X48505352Y-35492381D03*
%TO.N,SCL*%
X46563000Y-44900029D03*
X48463000Y-36350029D03*
%TO.N,RST_ISP*%
X51213000Y-35600029D03*
X50800000Y-23073000D03*
%TO.N,VREF*%
X50513000Y-33300029D03*
X41325000Y-35875000D03*
X48538864Y-34571451D03*
%TO.N,VOUT*%
X41100000Y-29500000D03*
X48323775Y-33852320D03*
%TO.N,SWDIO_PSOC*%
X38857648Y-25042352D03*
X36800000Y-25375000D03*
X44663000Y-32200029D03*
X43200000Y-24400000D03*
%TO.N,RST_PSOC*%
X38600000Y-22800000D03*
X44713000Y-30200029D03*
%TO.N,SWCLK_PSOC*%
X37500000Y-26050000D03*
X44713000Y-31450029D03*
%TO.N,GND*%
X31925000Y-45325000D03*
%TD*%
D21*
%TO.N,SWDIO_PSOC*%
X43486000Y-33377029D02*
X44663000Y-32200029D01*
X40923998Y-33377029D02*
X43486000Y-33377029D01*
X36800000Y-25375000D02*
X36800000Y-29253031D01*
X36800000Y-29253031D02*
X40923998Y-33377029D01*
%TO.N,SWCLK_PSOC*%
X40663000Y-31450029D02*
X44713000Y-31450029D01*
X37500000Y-28287029D02*
X40663000Y-31450029D01*
X37500000Y-26050000D02*
X37500000Y-28287029D01*
%TO.N,VREF*%
X41800000Y-35400000D02*
X47710315Y-35400000D01*
X41325000Y-35875000D02*
X41800000Y-35400000D01*
X47710315Y-35400000D02*
X48538864Y-34571451D01*
%TO.N,VCC*%
X52046500Y-22496500D02*
X52050000Y-22500000D01*
X47848599Y-22496500D02*
X52046500Y-22496500D01*
X47337500Y-23007599D02*
X47848599Y-22496500D01*
X44763000Y-27286727D02*
X47337500Y-24712227D01*
X47337500Y-24712227D02*
X47337500Y-23007599D01*
X44763000Y-27600029D02*
X44763000Y-27286727D01*
%TO.N,GND*%
X43225000Y-32050000D02*
X41913029Y-32050000D01*
X41913029Y-32050000D02*
X41163000Y-32800029D01*
%TO.N,IOUT*%
X48246155Y-33116874D02*
X48326500Y-33036529D01*
X45513029Y-34750000D02*
X47146155Y-33116874D01*
X48326500Y-33036529D02*
X48326500Y-32950029D01*
X41350000Y-34750000D02*
X45513029Y-34750000D01*
X47146155Y-33116874D02*
X48246155Y-33116874D01*
%TO.N,Net-(U4-~{PGOOD})*%
X41075000Y-58400000D02*
X32850000Y-58400000D01*
X50150000Y-49325000D02*
X41075000Y-58400000D01*
X32000000Y-57550000D02*
X32000000Y-53400000D01*
X51250000Y-49325000D02*
X50150000Y-49325000D01*
X51275000Y-47475000D02*
X51525000Y-47725000D01*
X51525000Y-49050000D02*
X51250000Y-49325000D01*
X49700000Y-47475000D02*
X51275000Y-47475000D01*
X49033000Y-46808000D02*
X49700000Y-47475000D01*
X49033000Y-41840316D02*
X49033000Y-46808000D01*
X46892684Y-39700000D02*
X49033000Y-41840316D01*
X32850000Y-58400000D02*
X32000000Y-57550000D01*
X46375000Y-39700000D02*
X46892684Y-39700000D01*
X51525000Y-47725000D02*
X51525000Y-49050000D01*
%TO.N,VSYS*%
X44199971Y-54200029D02*
X44163000Y-54200029D01*
X48629000Y-49771000D02*
X44199971Y-54200029D01*
X48629000Y-48300029D02*
X48629000Y-49771000D01*
X48629000Y-48300029D02*
X49413000Y-48300029D01*
X48629000Y-42007658D02*
X48629000Y-48300029D01*
X47221342Y-40600000D02*
X48629000Y-42007658D01*
X46350000Y-40600000D02*
X47221342Y-40600000D01*
%TO.N,Net-(U4-~{CHG})*%
X34539502Y-50900029D02*
X32039500Y-50900029D01*
X36883469Y-51998000D02*
X35637473Y-51998000D01*
X36885998Y-52000529D02*
X36883469Y-51998000D01*
X37364002Y-52000529D02*
X36885998Y-52000529D01*
X39650000Y-52600000D02*
X39048000Y-51998000D01*
X35637473Y-51998000D02*
X34539502Y-50900029D01*
X39048000Y-51998000D02*
X37366531Y-51998000D01*
X44450000Y-52600000D02*
X39650000Y-52600000D01*
X37366531Y-51998000D02*
X37364002Y-52000529D01*
X48225000Y-48825000D02*
X44450000Y-52600000D01*
X48225000Y-42175000D02*
X48225000Y-48825000D01*
X47600000Y-41550000D02*
X48225000Y-42175000D01*
X46375000Y-41550000D02*
X47600000Y-41550000D01*
%TO.N,VCC*%
X47675000Y-47088029D02*
X47213000Y-47550029D01*
X47213000Y-47550029D02*
X47213000Y-48250029D01*
X47025000Y-42675000D02*
X47675000Y-43325000D01*
X47675000Y-43325000D02*
X47675000Y-47088029D01*
D22*
%TO.N,SCL*%
X45325000Y-39488029D02*
X48463000Y-36350029D01*
X45325000Y-44550000D02*
X45325000Y-39488029D01*
X45675029Y-44900029D02*
X45325000Y-44550000D01*
X46563000Y-44900029D02*
X45675029Y-44900029D01*
D21*
%TO.N,SDA*%
X45540000Y-47873029D02*
X45313000Y-48100029D01*
X45540000Y-45865000D02*
X45540000Y-47873029D01*
X44750000Y-45075000D02*
X45540000Y-45865000D01*
X44750000Y-39247027D02*
X44750000Y-45075000D01*
X48504646Y-35492381D02*
X44750000Y-39247027D01*
X48505352Y-35492381D02*
X48504646Y-35492381D01*
%TO.N,VDD*%
X41313000Y-44900029D02*
X38963000Y-47250029D01*
X42324971Y-44900029D02*
X41313000Y-44900029D01*
X43975000Y-43250000D02*
X42324971Y-44900029D01*
%TO.N,GND*%
X37900000Y-52575000D02*
X37898471Y-52576529D01*
X37898471Y-52576529D02*
X35400000Y-52576529D01*
%TO.N,Net-(J1-CC2)*%
X34471342Y-57300000D02*
X33900000Y-57300000D01*
X37975000Y-53796342D02*
X34471342Y-57300000D01*
X37975000Y-53730529D02*
X37975000Y-53796342D01*
%TO.N,Net-(J1-CC1)*%
X33400000Y-56700000D02*
X33100000Y-56400000D01*
X34500000Y-56700000D02*
X33400000Y-56700000D01*
X37190000Y-54010000D02*
X34500000Y-56700000D01*
X37190000Y-53730529D02*
X37190000Y-54010000D01*
D22*
%TO.N,VBAT_SENSE*%
X39462986Y-43450014D02*
X39462971Y-43450029D01*
X39462971Y-43450029D02*
X36263000Y-43450029D01*
D21*
%TO.N,VCC*%
X50173000Y-28510028D02*
X50173000Y-26130099D01*
X51531486Y-29868514D02*
X50173000Y-28510028D01*
X48392901Y-24350000D02*
X47337500Y-24350000D01*
X50173000Y-26130099D02*
X48392901Y-24350000D01*
%TO.N,VSYS*%
X31463000Y-51550029D02*
X31463000Y-47800029D01*
X31463000Y-47800029D02*
X31763000Y-47500029D01*
X32163000Y-52250029D02*
X33066500Y-53153529D01*
X50713000Y-48300029D02*
X49413000Y-48300029D01*
X33066500Y-53153529D02*
X43116500Y-53153529D01*
X32163000Y-52250029D02*
X31463000Y-51550029D01*
X43116500Y-53153529D02*
X44163000Y-54200029D01*
%TO.N,Net-(D1-A)*%
X39900000Y-51750000D02*
X38963000Y-50813000D01*
X38963000Y-50813000D02*
X38963000Y-48400029D01*
X40850000Y-51750000D02*
X39900000Y-51750000D01*
%TO.N,NTC BAT*%
X35413000Y-47500029D02*
X35313000Y-47400029D01*
X35313000Y-47400029D02*
X35313000Y-41500029D01*
%TO.N,RST_ISP*%
X52487750Y-34325279D02*
X51213000Y-35600029D01*
X52200000Y-24473000D02*
X52200000Y-29721027D01*
X52200000Y-29721027D02*
X52487750Y-30008777D01*
X52487750Y-30008777D02*
X52487750Y-34325279D01*
X50800000Y-23073000D02*
X52200000Y-24473000D01*
%TO.N,VREF*%
X48538864Y-34571451D02*
X49241578Y-34571451D01*
X49241578Y-34571451D02*
X50513000Y-33300029D01*
%TO.N,VOUT*%
X49113000Y-32400029D02*
X48763000Y-32050029D01*
X48323775Y-33852320D02*
X48610709Y-33852320D01*
X41200029Y-29600029D02*
X41100000Y-29500000D01*
X48242502Y-32050029D02*
X45792502Y-29600029D01*
X48763000Y-32050029D02*
X48242502Y-32050029D01*
X45792502Y-29600029D02*
X41200029Y-29600029D01*
X48610709Y-33852320D02*
X49113000Y-33350029D01*
X49113000Y-33350029D02*
X49113000Y-32400029D01*
%TO.N,SWDIO_PSOC*%
X39500000Y-24400000D02*
X38857648Y-25042352D01*
X43200000Y-24400000D02*
X39500000Y-24400000D01*
%TO.N,RST_PSOC*%
X38600000Y-22800000D02*
X38100000Y-23300000D01*
X38100000Y-23300000D02*
X38100000Y-27687029D01*
X40613000Y-30200029D02*
X44713000Y-30200029D01*
X38100000Y-27687029D02*
X40613000Y-30200029D01*
%TD*%
%TA.AperFunction,Conductor*%
%TO.N,GND*%
G36*
X47497566Y-22155772D02*
G01*
X47564596Y-22175481D01*
X47610332Y-22228302D01*
X47620250Y-22297464D01*
X47591202Y-22361009D01*
X47585200Y-22367453D01*
X47115443Y-22837210D01*
X47078911Y-22900487D01*
X47078908Y-22900494D01*
X47059999Y-22971062D01*
X47059999Y-23054122D01*
X47060000Y-23054135D01*
X47060000Y-24545920D01*
X47040315Y-24612959D01*
X47023681Y-24633601D01*
X44540945Y-27116336D01*
X44540941Y-27116341D01*
X44504411Y-27179613D01*
X44499503Y-27197930D01*
X44469052Y-27247882D01*
X44470758Y-27249360D01*
X44380120Y-27353961D01*
X44380117Y-27353967D01*
X44326302Y-27471803D01*
X44307867Y-27600029D01*
X44326302Y-27728254D01*
X44356392Y-27794140D01*
X44380118Y-27846092D01*
X44464951Y-27943996D01*
X44573931Y-28014033D01*
X44698225Y-28050528D01*
X44698227Y-28050529D01*
X44698228Y-28050529D01*
X44827773Y-28050529D01*
X44827773Y-28050528D01*
X44952069Y-28014033D01*
X45061049Y-27943996D01*
X45145882Y-27846092D01*
X45199697Y-27728255D01*
X45218133Y-27600029D01*
X45199697Y-27471803D01*
X45196423Y-27464636D01*
X45163565Y-27392684D01*
X45153621Y-27323526D01*
X45182646Y-27259970D01*
X45188664Y-27253506D01*
X47261700Y-25180470D01*
X47323022Y-25146987D01*
X47392714Y-25151971D01*
X47448647Y-25193843D01*
X47473064Y-25259307D01*
X47470998Y-25292343D01*
X47464000Y-25327526D01*
X47464000Y-25474479D01*
X47492666Y-25618592D01*
X47492669Y-25618604D01*
X47548899Y-25754357D01*
X47548906Y-25754370D01*
X47630543Y-25876547D01*
X47630546Y-25876551D01*
X47734448Y-25980453D01*
X47734452Y-25980456D01*
X47856629Y-26062093D01*
X47856642Y-26062100D01*
X47992395Y-26118330D01*
X47992400Y-26118332D01*
X48136520Y-26146999D01*
X48136524Y-26147000D01*
X48136525Y-26147000D01*
X48283476Y-26147000D01*
X48283477Y-26146999D01*
X48427600Y-26118332D01*
X48563364Y-26062097D01*
X48685548Y-25980456D01*
X48789456Y-25876548D01*
X48871097Y-25754364D01*
X48927332Y-25618600D01*
X48938769Y-25561099D01*
X48971152Y-25499190D01*
X49031868Y-25464615D01*
X49101637Y-25468354D01*
X49148067Y-25497610D01*
X49859181Y-26208724D01*
X49892666Y-26270047D01*
X49895500Y-26296405D01*
X49895500Y-28465881D01*
X49895499Y-28465899D01*
X49895499Y-28546564D01*
X49914408Y-28617132D01*
X49914411Y-28617139D01*
X49950943Y-28680416D01*
X49950945Y-28680418D01*
X51040343Y-29769815D01*
X51073828Y-29831138D01*
X51074847Y-29859646D01*
X51076353Y-29859646D01*
X51076353Y-29868513D01*
X51094788Y-29996739D01*
X51132900Y-30080191D01*
X51148604Y-30114577D01*
X51233437Y-30212481D01*
X51342417Y-30282518D01*
X51466711Y-30319013D01*
X51466713Y-30319014D01*
X51466714Y-30319014D01*
X51596259Y-30319014D01*
X51596259Y-30319013D01*
X51720555Y-30282518D01*
X51829535Y-30212481D01*
X51914368Y-30114577D01*
X51930072Y-30080189D01*
X51975824Y-30027386D01*
X52042864Y-30007700D01*
X52109903Y-30027383D01*
X52130547Y-30044019D01*
X52173931Y-30087403D01*
X52207416Y-30148726D01*
X52210250Y-30175084D01*
X52210250Y-34158972D01*
X52190565Y-34226011D01*
X52173931Y-34246653D01*
X51307374Y-35113210D01*
X51246051Y-35146695D01*
X51219693Y-35149529D01*
X51148226Y-35149529D01*
X51023935Y-35186023D01*
X51023932Y-35186024D01*
X51023931Y-35186025D01*
X50972677Y-35218963D01*
X50914950Y-35256062D01*
X50830118Y-35353966D01*
X50830117Y-35353967D01*
X50776302Y-35471803D01*
X50757867Y-35600029D01*
X50776302Y-35728254D01*
X50826565Y-35838312D01*
X50830118Y-35846092D01*
X50914951Y-35943996D01*
X51023931Y-36014033D01*
X51148225Y-36050528D01*
X51148227Y-36050529D01*
X51148228Y-36050529D01*
X51277773Y-36050529D01*
X51277773Y-36050528D01*
X51402069Y-36014033D01*
X51511049Y-35943996D01*
X51595882Y-35846092D01*
X51649697Y-35728255D01*
X51668133Y-35600029D01*
X51668133Y-35600027D01*
X51668133Y-35591159D01*
X51671314Y-35591159D01*
X51679029Y-35537500D01*
X51704140Y-35501332D01*
X52701321Y-34504152D01*
X52762642Y-34470669D01*
X52832334Y-34475653D01*
X52888267Y-34517525D01*
X52912684Y-34582989D01*
X52913000Y-34591835D01*
X52913000Y-61725529D01*
X52893315Y-61792568D01*
X52840511Y-61838323D01*
X52789000Y-61849529D01*
X43034941Y-61849529D01*
X42967902Y-61829844D01*
X42922147Y-61777040D01*
X42912203Y-61707882D01*
X42941228Y-61644326D01*
X42947260Y-61637848D01*
X43054786Y-61530321D01*
X43054789Y-61530318D01*
X43142394Y-61399208D01*
X43202737Y-61253526D01*
X43233500Y-61098871D01*
X43233500Y-59641187D01*
X43233500Y-59641184D01*
X43233499Y-59641182D01*
X43202738Y-59486539D01*
X43202737Y-59486532D01*
X43202735Y-59486527D01*
X43142397Y-59340856D01*
X43142390Y-59340843D01*
X43054789Y-59209740D01*
X43054786Y-59209736D01*
X42943292Y-59098242D01*
X42943288Y-59098239D01*
X42812185Y-59010638D01*
X42812172Y-59010631D01*
X42666501Y-58950293D01*
X42666489Y-58950290D01*
X42511845Y-58919529D01*
X42511842Y-58919529D01*
X42354158Y-58919529D01*
X42354155Y-58919529D01*
X42199510Y-58950290D01*
X42199498Y-58950293D01*
X42053827Y-59010631D01*
X42053814Y-59010638D01*
X41922711Y-59098239D01*
X41922707Y-59098242D01*
X41811213Y-59209736D01*
X41811210Y-59209740D01*
X41723609Y-59340843D01*
X41723602Y-59340856D01*
X41663264Y-59486527D01*
X41663261Y-59486539D01*
X41632500Y-59641182D01*
X41632500Y-61098875D01*
X41663261Y-61253518D01*
X41663264Y-61253530D01*
X41723602Y-61399201D01*
X41723609Y-61399214D01*
X41811210Y-61530317D01*
X41811213Y-61530321D01*
X41918740Y-61637848D01*
X41952225Y-61699171D01*
X41947241Y-61768863D01*
X41905369Y-61824796D01*
X41839905Y-61849213D01*
X41831059Y-61849529D01*
X34394941Y-61849529D01*
X34327902Y-61829844D01*
X34282147Y-61777040D01*
X34272203Y-61707882D01*
X34301228Y-61644326D01*
X34307260Y-61637848D01*
X34414786Y-61530321D01*
X34414789Y-61530318D01*
X34502394Y-61399208D01*
X34562737Y-61253526D01*
X34593500Y-61098871D01*
X34593500Y-59641187D01*
X34593500Y-59641184D01*
X34593499Y-59641182D01*
X34562738Y-59486539D01*
X34562737Y-59486532D01*
X34562735Y-59486527D01*
X34502397Y-59340856D01*
X34502390Y-59340843D01*
X34414789Y-59209740D01*
X34414786Y-59209736D01*
X34303292Y-59098242D01*
X34303288Y-59098239D01*
X34172185Y-59010638D01*
X34172172Y-59010631D01*
X34026501Y-58950293D01*
X34026489Y-58950290D01*
X33889883Y-58923117D01*
X33827972Y-58890732D01*
X33793398Y-58830016D01*
X33793889Y-58820842D01*
X33765639Y-58882703D01*
X33706861Y-58920477D01*
X33696117Y-58923117D01*
X33559510Y-58950290D01*
X33559498Y-58950293D01*
X33413827Y-59010631D01*
X33413814Y-59010638D01*
X33282711Y-59098239D01*
X33282707Y-59098242D01*
X33171213Y-59209736D01*
X33171210Y-59209740D01*
X33083609Y-59340843D01*
X33083602Y-59340856D01*
X33023264Y-59486527D01*
X33023261Y-59486539D01*
X32992500Y-59641182D01*
X32992500Y-61098875D01*
X33023261Y-61253518D01*
X33023264Y-61253530D01*
X33083602Y-61399201D01*
X33083609Y-61399214D01*
X33171210Y-61530317D01*
X33171213Y-61530321D01*
X33278740Y-61637848D01*
X33312225Y-61699171D01*
X33307241Y-61768863D01*
X33265369Y-61824796D01*
X33199905Y-61849213D01*
X33191059Y-61849529D01*
X33004072Y-61849529D01*
X32995928Y-61849261D01*
X32765744Y-61834111D01*
X32749598Y-61831977D01*
X32527373Y-61787586D01*
X32511646Y-61783353D01*
X32297171Y-61710225D01*
X32282134Y-61703968D01*
X32079086Y-61603358D01*
X32065003Y-61595187D01*
X31876888Y-61468830D01*
X31864002Y-61458887D01*
X31847167Y-61444034D01*
X31694066Y-61308961D01*
X31682591Y-61297411D01*
X31533773Y-61126509D01*
X31523919Y-61113566D01*
X31398783Y-60924632D01*
X31390701Y-60910493D01*
X31373350Y-60874897D01*
X31291405Y-60706786D01*
X31285253Y-60691726D01*
X31213515Y-60476774D01*
X31209385Y-60461023D01*
X31193010Y-60376188D01*
X31166435Y-60238507D01*
X31164408Y-60222373D01*
X31150737Y-59991839D01*
X31150524Y-59983737D01*
X31150719Y-59953655D01*
X31150796Y-59941824D01*
X31150500Y-59939114D01*
X31150500Y-51929335D01*
X31170185Y-51862296D01*
X31222989Y-51816541D01*
X31292147Y-51806597D01*
X31355703Y-51835622D01*
X31362170Y-51841643D01*
X31492583Y-51972056D01*
X31671857Y-52151330D01*
X31705342Y-52212653D01*
X31706361Y-52241161D01*
X31707867Y-52241161D01*
X31707867Y-52250027D01*
X31707867Y-52250029D01*
X31711529Y-52275499D01*
X31726302Y-52378254D01*
X31780117Y-52496090D01*
X31780118Y-52496092D01*
X31864951Y-52593996D01*
X31973931Y-52664033D01*
X31975004Y-52664348D01*
X32098225Y-52700528D01*
X32098227Y-52700529D01*
X32098228Y-52700529D01*
X32169693Y-52700529D01*
X32236732Y-52720214D01*
X32257374Y-52736848D01*
X32294949Y-52774423D01*
X32328434Y-52835746D01*
X32323450Y-52905438D01*
X32281578Y-52961371D01*
X32216114Y-52985788D01*
X32172335Y-52981082D01*
X32064772Y-52949500D01*
X31935228Y-52949500D01*
X31935226Y-52949500D01*
X31810935Y-52985994D01*
X31810932Y-52985995D01*
X31810931Y-52985996D01*
X31759677Y-53018934D01*
X31701950Y-53056033D01*
X31617118Y-53153937D01*
X31617117Y-53153938D01*
X31563302Y-53271774D01*
X31544867Y-53400000D01*
X31563302Y-53528225D01*
X31617117Y-53646061D01*
X31617120Y-53646067D01*
X31692213Y-53732729D01*
X31721238Y-53796285D01*
X31722500Y-53813931D01*
X31722500Y-57505853D01*
X31722499Y-57505871D01*
X31722499Y-57586536D01*
X31741408Y-57657104D01*
X31741411Y-57657111D01*
X31777943Y-57720388D01*
X31777945Y-57720390D01*
X32623603Y-58566047D01*
X32623613Y-58566058D01*
X32627943Y-58570388D01*
X32627944Y-58570389D01*
X32679611Y-58622056D01*
X32742889Y-58658589D01*
X32742892Y-58658589D01*
X32742895Y-58658591D01*
X32789940Y-58671197D01*
X32813466Y-58677501D01*
X32813467Y-58677501D01*
X32894130Y-58677501D01*
X32894146Y-58677500D01*
X33671926Y-58677500D01*
X33738965Y-58697185D01*
X33784720Y-58749989D01*
X33794166Y-58815684D01*
X33797137Y-58760247D01*
X33838004Y-58703575D01*
X33903022Y-58677994D01*
X33914074Y-58677500D01*
X41030854Y-58677500D01*
X41030870Y-58677501D01*
X41038466Y-58677501D01*
X41111533Y-58677501D01*
X41111534Y-58677501D01*
X41182111Y-58658589D01*
X41245389Y-58622056D01*
X50228626Y-49638819D01*
X50289949Y-49605334D01*
X50316307Y-49602500D01*
X51205854Y-49602500D01*
X51205870Y-49602501D01*
X51213466Y-49602501D01*
X51286533Y-49602501D01*
X51286534Y-49602501D01*
X51357111Y-49583589D01*
X51420389Y-49547056D01*
X51747056Y-49220389D01*
X51783589Y-49157111D01*
X51802501Y-49086534D01*
X51802501Y-49013466D01*
X51802501Y-49005871D01*
X51802500Y-49005853D01*
X51802500Y-47688468D01*
X51802500Y-47688466D01*
X51783589Y-47617889D01*
X51747056Y-47554611D01*
X51695389Y-47502944D01*
X51695387Y-47502942D01*
X51445389Y-47252944D01*
X51445388Y-47252943D01*
X51382111Y-47216411D01*
X51382104Y-47216408D01*
X51311536Y-47197499D01*
X51311534Y-47197499D01*
X51238466Y-47197499D01*
X51230870Y-47197499D01*
X51230854Y-47197500D01*
X49866306Y-47197500D01*
X49799267Y-47177815D01*
X49778625Y-47161181D01*
X49346819Y-46729374D01*
X49313334Y-46668051D01*
X49310500Y-46641693D01*
X49310500Y-41886852D01*
X49310501Y-41886839D01*
X49310501Y-41803783D01*
X49310500Y-41803779D01*
X49308432Y-41796063D01*
X49304197Y-41780256D01*
X49291591Y-41733211D01*
X49291589Y-41733208D01*
X49291589Y-41733205D01*
X49255056Y-41669927D01*
X47063073Y-39477944D01*
X47063072Y-39477943D01*
X46999795Y-39441411D01*
X46999788Y-39441408D01*
X46929220Y-39422499D01*
X46929218Y-39422499D01*
X46856150Y-39422499D01*
X46848554Y-39422499D01*
X46848538Y-39422500D01*
X46787272Y-39422500D01*
X46720233Y-39402815D01*
X46693558Y-39379702D01*
X46673049Y-39356033D01*
X46564069Y-39285996D01*
X46564065Y-39285994D01*
X46564064Y-39285994D01*
X46439774Y-39249500D01*
X46439772Y-39249500D01*
X46310228Y-39249500D01*
X46220807Y-39275755D01*
X46150937Y-39275754D01*
X46092160Y-39237978D01*
X46063136Y-39174422D01*
X46073080Y-39105264D01*
X46098191Y-39069098D01*
X48330441Y-36836847D01*
X48391764Y-36803363D01*
X48418122Y-36800529D01*
X48527773Y-36800529D01*
X48527773Y-36800528D01*
X48652069Y-36764033D01*
X48761049Y-36693996D01*
X48845882Y-36596092D01*
X48899697Y-36478255D01*
X48918133Y-36350029D01*
X48899697Y-36221803D01*
X48845882Y-36103966D01*
X48775452Y-36022684D01*
X48746428Y-35959128D01*
X48756372Y-35889969D01*
X48797252Y-35842792D01*
X48796700Y-35842155D01*
X48801134Y-35838312D01*
X48802128Y-35837166D01*
X48802127Y-35837166D01*
X48803401Y-35836348D01*
X48888234Y-35738444D01*
X48942049Y-35620607D01*
X48960485Y-35492381D01*
X48942049Y-35364155D01*
X48888234Y-35246318D01*
X48835989Y-35186023D01*
X48803400Y-35148412D01*
X48801203Y-35147001D01*
X48799490Y-35145025D01*
X48796700Y-35142607D01*
X48797047Y-35142205D01*
X48755446Y-35094199D01*
X48745501Y-35025040D01*
X48774524Y-34961484D01*
X48801197Y-34938370D01*
X48836913Y-34915418D01*
X48857422Y-34891749D01*
X48916200Y-34853974D01*
X48951136Y-34848951D01*
X49197432Y-34848951D01*
X49197448Y-34848952D01*
X49205044Y-34848952D01*
X49278111Y-34848952D01*
X49278112Y-34848952D01*
X49348689Y-34830040D01*
X49411967Y-34793507D01*
X50418625Y-33786847D01*
X50479948Y-33753363D01*
X50506306Y-33750529D01*
X50577773Y-33750529D01*
X50577773Y-33750528D01*
X50702069Y-33714033D01*
X50811049Y-33643996D01*
X50895882Y-33546092D01*
X50949697Y-33428255D01*
X50968133Y-33300029D01*
X50949697Y-33171803D01*
X50895882Y-33053966D01*
X50811049Y-32956062D01*
X50702069Y-32886025D01*
X50702065Y-32886023D01*
X50702064Y-32886023D01*
X50577774Y-32849529D01*
X50577772Y-32849529D01*
X50448228Y-32849529D01*
X50448226Y-32849529D01*
X50323935Y-32886023D01*
X50323932Y-32886024D01*
X50323931Y-32886025D01*
X50272677Y-32918963D01*
X50214950Y-32956062D01*
X50130118Y-33053966D01*
X50130117Y-33053967D01*
X50076302Y-33171803D01*
X50057867Y-33300029D01*
X50057867Y-33308897D01*
X50054693Y-33308897D01*
X50046946Y-33362608D01*
X50021856Y-33398727D01*
X49162952Y-34257632D01*
X49101629Y-34291117D01*
X49075271Y-34293951D01*
X48951136Y-34293951D01*
X48884097Y-34274266D01*
X48857422Y-34251153D01*
X48853523Y-34246653D01*
X48836913Y-34227484D01*
X48836912Y-34227483D01*
X48836910Y-34227481D01*
X48830212Y-34221677D01*
X48831546Y-34220136D01*
X48793414Y-34176120D01*
X48783478Y-34106961D01*
X48812510Y-34043408D01*
X48818519Y-34036954D01*
X49335056Y-33520418D01*
X49371589Y-33457140D01*
X49390501Y-33386563D01*
X49390501Y-33313495D01*
X49390501Y-33305900D01*
X49390500Y-33305882D01*
X49390500Y-32446565D01*
X49390501Y-32446552D01*
X49390501Y-32363496D01*
X49390500Y-32363492D01*
X49371591Y-32292924D01*
X49371589Y-32292921D01*
X49371589Y-32292918D01*
X49335056Y-32229640D01*
X48933389Y-31827973D01*
X48933388Y-31827972D01*
X48870111Y-31791440D01*
X48870104Y-31791437D01*
X48799536Y-31772528D01*
X48799534Y-31772528D01*
X48726466Y-31772528D01*
X48718870Y-31772528D01*
X48718854Y-31772529D01*
X48408808Y-31772529D01*
X48341769Y-31752844D01*
X48321127Y-31736210D01*
X45962892Y-29377974D01*
X45962890Y-29377972D01*
X45899613Y-29341440D01*
X45899606Y-29341437D01*
X45829038Y-29322528D01*
X45829036Y-29322528D01*
X45755968Y-29322528D01*
X45748372Y-29322528D01*
X45748356Y-29322529D01*
X41593897Y-29322529D01*
X41526858Y-29302844D01*
X41489773Y-29260048D01*
X41487676Y-29261397D01*
X41482882Y-29253938D01*
X41482882Y-29253937D01*
X41398049Y-29156033D01*
X41289069Y-29085996D01*
X41289065Y-29085994D01*
X41289064Y-29085994D01*
X41164774Y-29049500D01*
X41164772Y-29049500D01*
X41035228Y-29049500D01*
X41035226Y-29049500D01*
X40910935Y-29085994D01*
X40910932Y-29085995D01*
X40910931Y-29085996D01*
X40868784Y-29113082D01*
X40801950Y-29156033D01*
X40717118Y-29253937D01*
X40717117Y-29253938D01*
X40663302Y-29371774D01*
X40644867Y-29500000D01*
X40644867Y-29500002D01*
X40648847Y-29527687D01*
X40638903Y-29596845D01*
X40593147Y-29649648D01*
X40526107Y-29669332D01*
X40459068Y-29649646D01*
X40438428Y-29633013D01*
X39485833Y-28680418D01*
X38413819Y-27608403D01*
X38380334Y-27547080D01*
X38377500Y-27520722D01*
X38377500Y-25496380D01*
X38397185Y-25429341D01*
X38449989Y-25383586D01*
X38519147Y-25373642D01*
X38568537Y-25392063D01*
X38668579Y-25456356D01*
X38730302Y-25474479D01*
X38792873Y-25492851D01*
X38792875Y-25492852D01*
X38792876Y-25492852D01*
X38922421Y-25492852D01*
X38922421Y-25492851D01*
X39046717Y-25456356D01*
X39091854Y-25427347D01*
X39158890Y-25407664D01*
X39225930Y-25427348D01*
X39271685Y-25480152D01*
X39280508Y-25507472D01*
X39292666Y-25568594D01*
X39292669Y-25568604D01*
X39348899Y-25704357D01*
X39348906Y-25704370D01*
X39430543Y-25826547D01*
X39430546Y-25826551D01*
X39534448Y-25930453D01*
X39534452Y-25930456D01*
X39656629Y-26012093D01*
X39656642Y-26012100D01*
X39792395Y-26068330D01*
X39792400Y-26068332D01*
X39919256Y-26093565D01*
X39936520Y-26096999D01*
X39936524Y-26097000D01*
X39936525Y-26097000D01*
X40083476Y-26097000D01*
X40083477Y-26096999D01*
X40227600Y-26068332D01*
X40363364Y-26012097D01*
X40485548Y-25930456D01*
X40589456Y-25826548D01*
X40671097Y-25704364D01*
X40727332Y-25568600D01*
X40756000Y-25424475D01*
X40756000Y-25277525D01*
X40727332Y-25133400D01*
X40712082Y-25096582D01*
X40671100Y-24997642D01*
X40671093Y-24997629D01*
X40586075Y-24870391D01*
X40565197Y-24803713D01*
X40583681Y-24736333D01*
X40635660Y-24689643D01*
X40689177Y-24677500D01*
X42787728Y-24677500D01*
X42854767Y-24697185D01*
X42881442Y-24720298D01*
X42898429Y-24739903D01*
X42901951Y-24743967D01*
X43010931Y-24814004D01*
X43036611Y-24821544D01*
X43135225Y-24850499D01*
X43135227Y-24850500D01*
X43135228Y-24850500D01*
X43264773Y-24850500D01*
X43264773Y-24850499D01*
X43389069Y-24814004D01*
X43498049Y-24743967D01*
X43582882Y-24646063D01*
X43636697Y-24528226D01*
X43655133Y-24400000D01*
X43636697Y-24271774D01*
X43632014Y-24261520D01*
X44344000Y-24261520D01*
X44344000Y-24408479D01*
X44372666Y-24552592D01*
X44372669Y-24552604D01*
X44428899Y-24688357D01*
X44428906Y-24688370D01*
X44510543Y-24810547D01*
X44510546Y-24810551D01*
X44614448Y-24914453D01*
X44614452Y-24914456D01*
X44736629Y-24996093D01*
X44736642Y-24996100D01*
X44820979Y-25031033D01*
X44872400Y-25052332D01*
X45016520Y-25080999D01*
X45016524Y-25081000D01*
X45016525Y-25081000D01*
X45163476Y-25081000D01*
X45163477Y-25080999D01*
X45307600Y-25052332D01*
X45439649Y-24997636D01*
X45443357Y-24996100D01*
X45443357Y-24996099D01*
X45443364Y-24996097D01*
X45565548Y-24914456D01*
X45669456Y-24810548D01*
X45751097Y-24688364D01*
X45756346Y-24675693D01*
X45775957Y-24628346D01*
X45807332Y-24552600D01*
X45836000Y-24408475D01*
X45836000Y-24261525D01*
X45807332Y-24117400D01*
X45791717Y-24079702D01*
X45751100Y-23981642D01*
X45751093Y-23981629D01*
X45669456Y-23859452D01*
X45669453Y-23859448D01*
X45565551Y-23755546D01*
X45565547Y-23755543D01*
X45443370Y-23673906D01*
X45443357Y-23673899D01*
X45307604Y-23617669D01*
X45307592Y-23617666D01*
X45163479Y-23589000D01*
X45163475Y-23589000D01*
X45016525Y-23589000D01*
X45016520Y-23589000D01*
X44872407Y-23617666D01*
X44872395Y-23617669D01*
X44736642Y-23673899D01*
X44736629Y-23673906D01*
X44614452Y-23755543D01*
X44614448Y-23755546D01*
X44510546Y-23859448D01*
X44510543Y-23859452D01*
X44428906Y-23981629D01*
X44428899Y-23981642D01*
X44372669Y-24117395D01*
X44372666Y-24117407D01*
X44344000Y-24261520D01*
X43632014Y-24261520D01*
X43582882Y-24153937D01*
X43498049Y-24056033D01*
X43389069Y-23985996D01*
X43389065Y-23985994D01*
X43389064Y-23985994D01*
X43264774Y-23949500D01*
X43264772Y-23949500D01*
X43135228Y-23949500D01*
X43135226Y-23949500D01*
X43010935Y-23985994D01*
X43010932Y-23985995D01*
X43010931Y-23985996D01*
X42982806Y-24004071D01*
X42901950Y-24056033D01*
X42881442Y-24079702D01*
X42822664Y-24117477D01*
X42787728Y-24122500D01*
X40559016Y-24122500D01*
X40491977Y-24102815D01*
X40446222Y-24050011D01*
X40436278Y-23980853D01*
X40465303Y-23917297D01*
X40481445Y-23903057D01*
X40480840Y-23902320D01*
X40485544Y-23898458D01*
X40485548Y-23898456D01*
X40589456Y-23794548D01*
X40671097Y-23672364D01*
X40727332Y-23536600D01*
X40756000Y-23392475D01*
X40756000Y-23245525D01*
X40727332Y-23101400D01*
X40727330Y-23101395D01*
X40671100Y-22965642D01*
X40671093Y-22965629D01*
X40589456Y-22843452D01*
X40589453Y-22843448D01*
X40485551Y-22739546D01*
X40485547Y-22739543D01*
X40363370Y-22657906D01*
X40363357Y-22657899D01*
X40227604Y-22601669D01*
X40227592Y-22601666D01*
X40083479Y-22573000D01*
X40083475Y-22573000D01*
X39936525Y-22573000D01*
X39936520Y-22573000D01*
X39792407Y-22601666D01*
X39792395Y-22601669D01*
X39656642Y-22657899D01*
X39656629Y-22657906D01*
X39534452Y-22739543D01*
X39534448Y-22739546D01*
X39430546Y-22843448D01*
X39430543Y-22843452D01*
X39348906Y-22965629D01*
X39348899Y-22965642D01*
X39292669Y-23101395D01*
X39292666Y-23101407D01*
X39264000Y-23245520D01*
X39264000Y-23392479D01*
X39292666Y-23536592D01*
X39292669Y-23536604D01*
X39348899Y-23672357D01*
X39348906Y-23672370D01*
X39430543Y-23794547D01*
X39430546Y-23794551D01*
X39534448Y-23898453D01*
X39539160Y-23902320D01*
X39537430Y-23904426D01*
X39574696Y-23949052D01*
X39583378Y-24018380D01*
X39553199Y-24081396D01*
X39493743Y-24118093D01*
X39471478Y-24121087D01*
X39471525Y-24121438D01*
X39463463Y-24122499D01*
X39392895Y-24141408D01*
X39392888Y-24141411D01*
X39329611Y-24177943D01*
X39329609Y-24177945D01*
X38952022Y-24555533D01*
X38890699Y-24589018D01*
X38864341Y-24591852D01*
X38792874Y-24591852D01*
X38668581Y-24628346D01*
X38668580Y-24628346D01*
X38568538Y-24692639D01*
X38501499Y-24712323D01*
X38434459Y-24692638D01*
X38388705Y-24639833D01*
X38377500Y-24588323D01*
X38377500Y-23466307D01*
X38397185Y-23399268D01*
X38413819Y-23378626D01*
X38505626Y-23286819D01*
X38566949Y-23253334D01*
X38593307Y-23250500D01*
X38664773Y-23250500D01*
X38664773Y-23250499D01*
X38789069Y-23214004D01*
X38898049Y-23143967D01*
X38982882Y-23046063D01*
X39036697Y-22928226D01*
X39055133Y-22800000D01*
X39036697Y-22671774D01*
X38982882Y-22553937D01*
X38898049Y-22456033D01*
X38789069Y-22385996D01*
X38789066Y-22385995D01*
X38781608Y-22381202D01*
X38783553Y-22378175D01*
X38743674Y-22343533D01*
X38724073Y-22276469D01*
X38743841Y-22209454D01*
X38796702Y-22163765D01*
X38848113Y-22152623D01*
X47497566Y-22155772D01*
G37*
%TD.AperFunction*%
%TA.AperFunction,Conductor*%
G36*
X34440234Y-51197214D02*
G01*
X34460876Y-51213848D01*
X35411076Y-52164047D01*
X35411086Y-52164058D01*
X35415416Y-52168388D01*
X35415417Y-52168389D01*
X35467084Y-52220056D01*
X35467086Y-52220057D01*
X35467087Y-52220058D01*
X35518997Y-52250027D01*
X35518999Y-52250029D01*
X35530358Y-52256587D01*
X35530359Y-52256587D01*
X35530362Y-52256589D01*
X35600939Y-52275500D01*
X35674007Y-52275500D01*
X36823698Y-52275500D01*
X36841296Y-52277816D01*
X36841408Y-52276969D01*
X36849462Y-52278029D01*
X36849464Y-52278030D01*
X36849466Y-52278030D01*
X36930128Y-52278030D01*
X36930144Y-52278029D01*
X37319856Y-52278029D01*
X37319872Y-52278030D01*
X37327468Y-52278030D01*
X37400534Y-52278030D01*
X37400536Y-52278030D01*
X37400537Y-52278029D01*
X37408592Y-52276969D01*
X37408703Y-52277816D01*
X37426302Y-52275500D01*
X38881693Y-52275500D01*
X38948732Y-52295185D01*
X38969374Y-52311819D01*
X39153647Y-52496092D01*
X39321904Y-52664348D01*
X39355389Y-52725671D01*
X39350405Y-52795362D01*
X39308534Y-52851296D01*
X39243069Y-52875713D01*
X39234223Y-52876029D01*
X33232807Y-52876029D01*
X33165768Y-52856344D01*
X33145126Y-52839710D01*
X32654143Y-52348727D01*
X32620658Y-52287404D01*
X32619642Y-52258899D01*
X32618133Y-52258899D01*
X32618133Y-52250027D01*
X32599697Y-52121803D01*
X32590037Y-52100651D01*
X32545882Y-52003966D01*
X32461049Y-51906062D01*
X32352069Y-51836025D01*
X32352065Y-51836023D01*
X32352064Y-51836023D01*
X32227774Y-51799529D01*
X32227772Y-51799529D01*
X32156306Y-51799529D01*
X32089267Y-51779844D01*
X32068625Y-51763210D01*
X31927189Y-51621774D01*
X31865852Y-51560436D01*
X31832368Y-51499115D01*
X31837352Y-51429423D01*
X31879224Y-51373490D01*
X31944688Y-51349073D01*
X31971179Y-51350019D01*
X31974727Y-51350529D01*
X31974728Y-51350529D01*
X32104273Y-51350529D01*
X32104273Y-51350528D01*
X32228569Y-51314033D01*
X32337549Y-51243996D01*
X32358058Y-51220327D01*
X32416836Y-51182552D01*
X32451772Y-51177529D01*
X34373195Y-51177529D01*
X34440234Y-51197214D01*
G37*
%TD.AperFunction*%
%TA.AperFunction,Conductor*%
G36*
X38352367Y-22152443D02*
G01*
X38419398Y-22172152D01*
X38465134Y-22224973D01*
X38475052Y-22294135D01*
X38446004Y-22357680D01*
X38417158Y-22379282D01*
X38418392Y-22381202D01*
X38410933Y-22385995D01*
X38410931Y-22385996D01*
X38351085Y-22424456D01*
X38301950Y-22456033D01*
X38217118Y-22553937D01*
X38217117Y-22553938D01*
X38163302Y-22671774D01*
X38144867Y-22800000D01*
X38144867Y-22808869D01*
X38141690Y-22808869D01*
X38133953Y-22862563D01*
X38108857Y-22898697D01*
X37877942Y-23129612D01*
X37841411Y-23192888D01*
X37841408Y-23192895D01*
X37822499Y-23263463D01*
X37822499Y-23346523D01*
X37822500Y-23346536D01*
X37822500Y-25509530D01*
X37802815Y-25576569D01*
X37750011Y-25622324D01*
X37680853Y-25632268D01*
X37663566Y-25628507D01*
X37564774Y-25599500D01*
X37564772Y-25599500D01*
X37435228Y-25599500D01*
X37435227Y-25599500D01*
X37398623Y-25610247D01*
X37328754Y-25610245D01*
X37269976Y-25572470D01*
X37240953Y-25508913D01*
X37240953Y-25473622D01*
X37255133Y-25375000D01*
X37236697Y-25246774D01*
X37182882Y-25128937D01*
X37098049Y-25031033D01*
X36989069Y-24960996D01*
X36989065Y-24960994D01*
X36989064Y-24960994D01*
X36864774Y-24924500D01*
X36864772Y-24924500D01*
X36735228Y-24924500D01*
X36735226Y-24924500D01*
X36610935Y-24960994D01*
X36610932Y-24960995D01*
X36610931Y-24960996D01*
X36560386Y-24993479D01*
X36501950Y-25031033D01*
X36417118Y-25128937D01*
X36417117Y-25128938D01*
X36363302Y-25246774D01*
X36344867Y-25375000D01*
X36363302Y-25503225D01*
X36417117Y-25621061D01*
X36417120Y-25621067D01*
X36492213Y-25707729D01*
X36521238Y-25771285D01*
X36522500Y-25788931D01*
X36522500Y-29208884D01*
X36522499Y-29208902D01*
X36522499Y-29289567D01*
X36541408Y-29360135D01*
X36541411Y-29360142D01*
X36551705Y-29377973D01*
X36577944Y-29423420D01*
X40753609Y-33599085D01*
X40816887Y-33635618D01*
X40816890Y-33635618D01*
X40816893Y-33635620D01*
X40863938Y-33648226D01*
X40887464Y-33654530D01*
X40887465Y-33654530D01*
X40968128Y-33654530D01*
X40968144Y-33654529D01*
X43441854Y-33654529D01*
X43441870Y-33654530D01*
X43449466Y-33654530D01*
X43522533Y-33654530D01*
X43522534Y-33654530D01*
X43593111Y-33635618D01*
X43656389Y-33599085D01*
X44568625Y-32686847D01*
X44629948Y-32653363D01*
X44656306Y-32650529D01*
X44727773Y-32650529D01*
X44727773Y-32650528D01*
X44852069Y-32614033D01*
X44961049Y-32543996D01*
X45045882Y-32446092D01*
X45099697Y-32328255D01*
X45118133Y-32200029D01*
X45099697Y-32071803D01*
X45045882Y-31953966D01*
X45029520Y-31935083D01*
X45000495Y-31871529D01*
X45010438Y-31802371D01*
X45029517Y-31772681D01*
X45095882Y-31696092D01*
X45149697Y-31578255D01*
X45168133Y-31450029D01*
X45149697Y-31321803D01*
X45095882Y-31203966D01*
X45011049Y-31106062D01*
X44902069Y-31036025D01*
X44902065Y-31036023D01*
X44902064Y-31036023D01*
X44777774Y-30999529D01*
X44777772Y-30999529D01*
X44648228Y-30999529D01*
X44648226Y-30999529D01*
X44523935Y-31036023D01*
X44523932Y-31036024D01*
X44523931Y-31036025D01*
X44472677Y-31068963D01*
X44414950Y-31106062D01*
X44394442Y-31129731D01*
X44335664Y-31167506D01*
X44300728Y-31172529D01*
X40829306Y-31172529D01*
X40762267Y-31152844D01*
X40741625Y-31136210D01*
X37813819Y-28208403D01*
X37780334Y-28147080D01*
X37777500Y-28120722D01*
X37777500Y-28056335D01*
X37797185Y-27989296D01*
X37849989Y-27943541D01*
X37919147Y-27933597D01*
X37982703Y-27962622D01*
X37989167Y-27968641D01*
X39158613Y-29138086D01*
X40386603Y-30366076D01*
X40386613Y-30366087D01*
X40390943Y-30370417D01*
X40390944Y-30370418D01*
X40442611Y-30422085D01*
X40470820Y-30438371D01*
X40505889Y-30458618D01*
X40505890Y-30458618D01*
X40505892Y-30458619D01*
X40541177Y-30468074D01*
X40576466Y-30477530D01*
X40576467Y-30477530D01*
X40657130Y-30477530D01*
X40657146Y-30477529D01*
X44300728Y-30477529D01*
X44367767Y-30497214D01*
X44394442Y-30520327D01*
X44414951Y-30543996D01*
X44523931Y-30614033D01*
X44648225Y-30650528D01*
X44648227Y-30650529D01*
X44648228Y-30650529D01*
X44777773Y-30650529D01*
X44777773Y-30650528D01*
X44902069Y-30614033D01*
X45011049Y-30543996D01*
X45095882Y-30446092D01*
X45149697Y-30328255D01*
X45168133Y-30200029D01*
X45149697Y-30071803D01*
X45141128Y-30053039D01*
X45131185Y-29983880D01*
X45160211Y-29920325D01*
X45218990Y-29882551D01*
X45253923Y-29877529D01*
X45626195Y-29877529D01*
X45693234Y-29897214D01*
X45713876Y-29913848D01*
X48016105Y-32216076D01*
X48016115Y-32216087D01*
X48020445Y-32220417D01*
X48020446Y-32220418D01*
X48072113Y-32272085D01*
X48135391Y-32308618D01*
X48135392Y-32308618D01*
X48142429Y-32312681D01*
X48141640Y-32314045D01*
X48188794Y-32352043D01*
X48210860Y-32418337D01*
X48193582Y-32486037D01*
X48142445Y-32533648D01*
X48138456Y-32535557D01*
X48137434Y-32536023D01*
X48028450Y-32606062D01*
X47943618Y-32703966D01*
X47943617Y-32703967D01*
X47914883Y-32766886D01*
X47869128Y-32819690D01*
X47802089Y-32839374D01*
X47190301Y-32839374D01*
X47190285Y-32839373D01*
X47182689Y-32839373D01*
X47109621Y-32839373D01*
X47109618Y-32839373D01*
X47039050Y-32858282D01*
X47039043Y-32858285D01*
X46975766Y-32894817D01*
X46975764Y-32894819D01*
X45434403Y-34436181D01*
X45373080Y-34469666D01*
X45346722Y-34472500D01*
X41762272Y-34472500D01*
X41695233Y-34452815D01*
X41668558Y-34429702D01*
X41648049Y-34406033D01*
X41539069Y-34335996D01*
X41539065Y-34335994D01*
X41539064Y-34335994D01*
X41414774Y-34299500D01*
X41414772Y-34299500D01*
X41285228Y-34299500D01*
X41285226Y-34299500D01*
X41160935Y-34335994D01*
X41160932Y-34335995D01*
X41160931Y-34335996D01*
X41120759Y-34361813D01*
X41051950Y-34406033D01*
X40967118Y-34503937D01*
X40967117Y-34503938D01*
X40913302Y-34621774D01*
X40894867Y-34750000D01*
X40913302Y-34878225D01*
X40955245Y-34970065D01*
X40967118Y-34996063D01*
X41051951Y-35093967D01*
X41160931Y-35164004D01*
X41248963Y-35189852D01*
X41307741Y-35227625D01*
X41336767Y-35291180D01*
X41326824Y-35360339D01*
X41281070Y-35413144D01*
X41248964Y-35427806D01*
X41135934Y-35460994D01*
X41026950Y-35531033D01*
X40942118Y-35628937D01*
X40942117Y-35628938D01*
X40888302Y-35746774D01*
X40869867Y-35875000D01*
X40888302Y-36003225D01*
X40934310Y-36103966D01*
X40942118Y-36121063D01*
X41026951Y-36218967D01*
X41135931Y-36289004D01*
X41260225Y-36325499D01*
X41260227Y-36325500D01*
X41260228Y-36325500D01*
X41389773Y-36325500D01*
X41389773Y-36325499D01*
X41514069Y-36289004D01*
X41623049Y-36218967D01*
X41707882Y-36121063D01*
X41761697Y-36003226D01*
X41780133Y-35875000D01*
X41780133Y-35874998D01*
X41780133Y-35866130D01*
X41783316Y-35866130D01*
X41791026Y-35812479D01*
X41816143Y-35776300D01*
X41845670Y-35746774D01*
X41878626Y-35713818D01*
X41939950Y-35680334D01*
X41966307Y-35677500D01*
X47627720Y-35677500D01*
X47694759Y-35697185D01*
X47740514Y-35749989D01*
X47750458Y-35819147D01*
X47721433Y-35882703D01*
X47715401Y-35889181D01*
X44527945Y-39076636D01*
X44527943Y-39076638D01*
X44491411Y-39139915D01*
X44491408Y-39139922D01*
X44472499Y-39210490D01*
X44472499Y-39293550D01*
X44472500Y-39293563D01*
X44472500Y-42807336D01*
X44452815Y-42874375D01*
X44400011Y-42920130D01*
X44330853Y-42930074D01*
X44282370Y-42907933D01*
X44280510Y-42910828D01*
X44272520Y-42905693D01*
X44164069Y-42835996D01*
X44164065Y-42835994D01*
X44164064Y-42835994D01*
X44039774Y-42799500D01*
X44039772Y-42799500D01*
X43910228Y-42799500D01*
X43910226Y-42799500D01*
X43785935Y-42835994D01*
X43785932Y-42835995D01*
X43785931Y-42835996D01*
X43734677Y-42868934D01*
X43676950Y-42906033D01*
X43592118Y-43003937D01*
X43592117Y-43003938D01*
X43538302Y-43121774D01*
X43519867Y-43250000D01*
X43519867Y-43258868D01*
X43516693Y-43258868D01*
X43508946Y-43312579D01*
X43483856Y-43348698D01*
X42246345Y-44586210D01*
X42185022Y-44619695D01*
X42158664Y-44622529D01*
X41357146Y-44622529D01*
X41357130Y-44622528D01*
X41349534Y-44622528D01*
X41276466Y-44622528D01*
X41276463Y-44622528D01*
X41205895Y-44641437D01*
X41205888Y-44641440D01*
X41142611Y-44677972D01*
X41142609Y-44677974D01*
X39057374Y-46763210D01*
X38996051Y-46796695D01*
X38969693Y-46799529D01*
X38898226Y-46799529D01*
X38773935Y-46836023D01*
X38773932Y-46836024D01*
X38773931Y-46836025D01*
X38722677Y-46868963D01*
X38664950Y-46906062D01*
X38580118Y-47003966D01*
X38580117Y-47003967D01*
X38526302Y-47121803D01*
X38507867Y-47250029D01*
X38526302Y-47378254D01*
X38580117Y-47496090D01*
X38580118Y-47496092D01*
X38664951Y-47593996D01*
X38773931Y-47664033D01*
X38857151Y-47688468D01*
X38898225Y-47700528D01*
X38898227Y-47700529D01*
X38898228Y-47700529D01*
X39027773Y-47700529D01*
X39027773Y-47700528D01*
X39152069Y-47664033D01*
X39261049Y-47593996D01*
X39345882Y-47496092D01*
X39399697Y-47378255D01*
X39418133Y-47250029D01*
X39418133Y-47250027D01*
X39418133Y-47241159D01*
X39421314Y-47241159D01*
X39429029Y-47187500D01*
X39454140Y-47151332D01*
X41391626Y-45213848D01*
X41452949Y-45180363D01*
X41479307Y-45177529D01*
X42280825Y-45177529D01*
X42280841Y-45177530D01*
X42288437Y-45177530D01*
X42361504Y-45177530D01*
X42361505Y-45177530D01*
X42432082Y-45158618D01*
X42495360Y-45122085D01*
X43880625Y-43736818D01*
X43941948Y-43703334D01*
X43968306Y-43700500D01*
X44039773Y-43700500D01*
X44039773Y-43700499D01*
X44164069Y-43664004D01*
X44273049Y-43593967D01*
X44273049Y-43593966D01*
X44280510Y-43589172D01*
X44282376Y-43592075D01*
X44330783Y-43569935D01*
X44399947Y-43579839D01*
X44452777Y-43625564D01*
X44472500Y-43692592D01*
X44472500Y-45030853D01*
X44472499Y-45030871D01*
X44472499Y-45111536D01*
X44491408Y-45182104D01*
X44491411Y-45182111D01*
X44527943Y-45245388D01*
X44527945Y-45245390D01*
X45226181Y-45943625D01*
X45259666Y-46004948D01*
X45262500Y-46031306D01*
X45262500Y-47552512D01*
X45242815Y-47619551D01*
X45190011Y-47665306D01*
X45173435Y-47671489D01*
X45123934Y-47686023D01*
X45014950Y-47756062D01*
X44930118Y-47853966D01*
X44930117Y-47853967D01*
X44876302Y-47971803D01*
X44857867Y-48100029D01*
X44876302Y-48228254D01*
X44886247Y-48250029D01*
X44930118Y-48346092D01*
X45014951Y-48443996D01*
X45123931Y-48514033D01*
X45172368Y-48528255D01*
X45248225Y-48550528D01*
X45248227Y-48550529D01*
X45248228Y-48550529D01*
X45377773Y-48550529D01*
X45377773Y-48550528D01*
X45502069Y-48514033D01*
X45611049Y-48443996D01*
X45695882Y-48346092D01*
X45749697Y-48228255D01*
X45768133Y-48100029D01*
X45766512Y-48088757D01*
X45776455Y-48019601D01*
X45781863Y-48009110D01*
X45798589Y-47980140D01*
X45817500Y-47909563D01*
X45817500Y-45911536D01*
X45817501Y-45911523D01*
X45817501Y-45828467D01*
X45817500Y-45828463D01*
X45798591Y-45757895D01*
X45798589Y-45757892D01*
X45798589Y-45757889D01*
X45762056Y-45694611D01*
X45710389Y-45642944D01*
X45710388Y-45642943D01*
X45706058Y-45638613D01*
X45706047Y-45638603D01*
X45063819Y-44996374D01*
X45030334Y-44935051D01*
X45027500Y-44908693D01*
X45027500Y-44906122D01*
X45047185Y-44839083D01*
X45099989Y-44793328D01*
X45169147Y-44783384D01*
X45232703Y-44812409D01*
X45239171Y-44818432D01*
X45320769Y-44900029D01*
X45455594Y-45034854D01*
X45455597Y-45034858D01*
X45462665Y-45041926D01*
X45533132Y-45112393D01*
X45556532Y-45122085D01*
X45556533Y-45122086D01*
X45625198Y-45150529D01*
X45625199Y-45150529D01*
X45625201Y-45150530D01*
X45625202Y-45150530D01*
X45739291Y-45150530D01*
X45739299Y-45150529D01*
X46127333Y-45150529D01*
X46194372Y-45170214D01*
X46221046Y-45193326D01*
X46264951Y-45243996D01*
X46373931Y-45314033D01*
X46498225Y-45350528D01*
X46498227Y-45350529D01*
X46498228Y-45350529D01*
X46627773Y-45350529D01*
X46627773Y-45350528D01*
X46752069Y-45314033D01*
X46861049Y-45243996D01*
X46945882Y-45146092D01*
X46999697Y-45028255D01*
X47018133Y-44900029D01*
X46999697Y-44771803D01*
X46945882Y-44653966D01*
X46861049Y-44556062D01*
X46752069Y-44486025D01*
X46752065Y-44486023D01*
X46752064Y-44486023D01*
X46627774Y-44449529D01*
X46627772Y-44449529D01*
X46498228Y-44449529D01*
X46498226Y-44449529D01*
X46373935Y-44486023D01*
X46373932Y-44486024D01*
X46373931Y-44486025D01*
X46351918Y-44500172D01*
X46264950Y-44556062D01*
X46221047Y-44606731D01*
X46162269Y-44644506D01*
X46127333Y-44649529D01*
X45830151Y-44649529D01*
X45763112Y-44629844D01*
X45742475Y-44613214D01*
X45611817Y-44482556D01*
X45578334Y-44421235D01*
X45575500Y-44394877D01*
X45575500Y-39643151D01*
X45595185Y-39576112D01*
X45611809Y-39555480D01*
X45740454Y-39426835D01*
X45801771Y-39393354D01*
X45871463Y-39398338D01*
X45927397Y-39440209D01*
X45951814Y-39505673D01*
X45940929Y-39566022D01*
X45938303Y-39571772D01*
X45938302Y-39571773D01*
X45919867Y-39700000D01*
X45938302Y-39828225D01*
X45992117Y-39946061D01*
X45992118Y-39946063D01*
X46076951Y-40043967D01*
X46076952Y-40043968D01*
X46081635Y-40048026D01*
X46119411Y-40106803D01*
X46119413Y-40176673D01*
X46081640Y-40235452D01*
X46067475Y-40246056D01*
X46051951Y-40256032D01*
X45967118Y-40353937D01*
X45967117Y-40353938D01*
X45913302Y-40471774D01*
X45894867Y-40600000D01*
X45913302Y-40728225D01*
X45964457Y-40840236D01*
X45967118Y-40846063D01*
X46051951Y-40943967D01*
X46106024Y-40978718D01*
X46151779Y-41031521D01*
X46161723Y-41100679D01*
X46132698Y-41164235D01*
X46106025Y-41187348D01*
X46076951Y-41206032D01*
X45992118Y-41303937D01*
X45992117Y-41303938D01*
X45938302Y-41421774D01*
X45919867Y-41550000D01*
X45938302Y-41678225D01*
X45992117Y-41796061D01*
X45992118Y-41796063D01*
X46076951Y-41893967D01*
X46185931Y-41964004D01*
X46310225Y-42000499D01*
X46310227Y-42000500D01*
X46310228Y-42000500D01*
X46439773Y-42000500D01*
X46439773Y-42000499D01*
X46564069Y-41964004D01*
X46673049Y-41893967D01*
X46693558Y-41870298D01*
X46752336Y-41832523D01*
X46787272Y-41827500D01*
X47433693Y-41827500D01*
X47500732Y-41847185D01*
X47521374Y-41863819D01*
X47911181Y-42253625D01*
X47944666Y-42314948D01*
X47947500Y-42341306D01*
X47947500Y-42905693D01*
X47927815Y-42972732D01*
X47875011Y-43018487D01*
X47805853Y-43028431D01*
X47742297Y-42999406D01*
X47735819Y-42993374D01*
X47516143Y-42773698D01*
X47482658Y-42712375D01*
X47481642Y-42683870D01*
X47480133Y-42683870D01*
X47480133Y-42675001D01*
X47461697Y-42546774D01*
X47447777Y-42516293D01*
X47407882Y-42428937D01*
X47323049Y-42331033D01*
X47214069Y-42260996D01*
X47214065Y-42260994D01*
X47214064Y-42260994D01*
X47089774Y-42224500D01*
X47089772Y-42224500D01*
X46960228Y-42224500D01*
X46960226Y-42224500D01*
X46835935Y-42260994D01*
X46835932Y-42260995D01*
X46835931Y-42260996D01*
X46790887Y-42289944D01*
X46726950Y-42331033D01*
X46642118Y-42428937D01*
X46642117Y-42428938D01*
X46588302Y-42546774D01*
X46569867Y-42675000D01*
X46588302Y-42803225D01*
X46637444Y-42910828D01*
X46642118Y-42921063D01*
X46726951Y-43018967D01*
X46835931Y-43089004D01*
X46960225Y-43125499D01*
X46960227Y-43125500D01*
X46960228Y-43125500D01*
X47031693Y-43125500D01*
X47098732Y-43145185D01*
X47119374Y-43161819D01*
X47361181Y-43403626D01*
X47394666Y-43464949D01*
X47397500Y-43491307D01*
X47397500Y-46921722D01*
X47377815Y-46988761D01*
X47361181Y-47009403D01*
X46990945Y-47379638D01*
X46990943Y-47379640D01*
X46954411Y-47442917D01*
X46954408Y-47442924D01*
X46935499Y-47513492D01*
X46935499Y-47596552D01*
X46935500Y-47596565D01*
X46935500Y-47836098D01*
X46915815Y-47903137D01*
X46905213Y-47917300D01*
X46830120Y-48003961D01*
X46830117Y-48003967D01*
X46776302Y-48121803D01*
X46757867Y-48250029D01*
X46776302Y-48378254D01*
X46806326Y-48443995D01*
X46830118Y-48496092D01*
X46914951Y-48593996D01*
X47023931Y-48664033D01*
X47098494Y-48685926D01*
X47148225Y-48700528D01*
X47148227Y-48700529D01*
X47148228Y-48700529D01*
X47277773Y-48700529D01*
X47277773Y-48700528D01*
X47402069Y-48664033D01*
X47511049Y-48593996D01*
X47595882Y-48496092D01*
X47649697Y-48378255D01*
X47668133Y-48250029D01*
X47649697Y-48121803D01*
X47595882Y-48003966D01*
X47595880Y-48003964D01*
X47595879Y-48003961D01*
X47520787Y-47917300D01*
X47491762Y-47853744D01*
X47490500Y-47836098D01*
X47490500Y-47716334D01*
X47510185Y-47649295D01*
X47526815Y-47628657D01*
X47735819Y-47419652D01*
X47797142Y-47386168D01*
X47866834Y-47391152D01*
X47922767Y-47433024D01*
X47947184Y-47498488D01*
X47947500Y-47507334D01*
X47947500Y-48658693D01*
X47927815Y-48725732D01*
X47911181Y-48746374D01*
X44371374Y-52286181D01*
X44310051Y-52319666D01*
X44283693Y-52322500D01*
X41214750Y-52322500D01*
X41147711Y-52302815D01*
X41101956Y-52250011D01*
X41092012Y-52180853D01*
X41121037Y-52117297D01*
X41147712Y-52094184D01*
X41147845Y-52094097D01*
X41148049Y-52093967D01*
X41232882Y-51996063D01*
X41286697Y-51878226D01*
X41305133Y-51750000D01*
X41286697Y-51621774D01*
X41232882Y-51503937D01*
X41148049Y-51406033D01*
X41039069Y-51335996D01*
X41039065Y-51335994D01*
X41039064Y-51335994D01*
X40914774Y-51299500D01*
X40914772Y-51299500D01*
X40785228Y-51299500D01*
X40785226Y-51299500D01*
X40660935Y-51335994D01*
X40660932Y-51335995D01*
X40660931Y-51335996D01*
X40609677Y-51368934D01*
X40551950Y-51406033D01*
X40531442Y-51429702D01*
X40472664Y-51467477D01*
X40437728Y-51472500D01*
X40066306Y-51472500D01*
X39999267Y-51452815D01*
X39978625Y-51436181D01*
X39276819Y-50734374D01*
X39243334Y-50673051D01*
X39240500Y-50646693D01*
X39240500Y-48813960D01*
X39260185Y-48746921D01*
X39270787Y-48732758D01*
X39345879Y-48646096D01*
X39345879Y-48646094D01*
X39345882Y-48646092D01*
X39399697Y-48528255D01*
X39418133Y-48400029D01*
X39399697Y-48271803D01*
X39345882Y-48153966D01*
X39261049Y-48056062D01*
X39152069Y-47986025D01*
X39152065Y-47986023D01*
X39152064Y-47986023D01*
X39027774Y-47949529D01*
X39027772Y-47949529D01*
X38898228Y-47949529D01*
X38898226Y-47949529D01*
X38773935Y-47986023D01*
X38773932Y-47986024D01*
X38773931Y-47986025D01*
X38722677Y-48018963D01*
X38664950Y-48056062D01*
X38580118Y-48153966D01*
X38580117Y-48153967D01*
X38526302Y-48271803D01*
X38507867Y-48400029D01*
X38526302Y-48528254D01*
X38580117Y-48646090D01*
X38580120Y-48646096D01*
X38655213Y-48732758D01*
X38684238Y-48796314D01*
X38685500Y-48813960D01*
X38685500Y-50768853D01*
X38685499Y-50768871D01*
X38685499Y-50849536D01*
X38704408Y-50920104D01*
X38704411Y-50920111D01*
X38740944Y-50983389D01*
X39193736Y-51436181D01*
X39297946Y-51540390D01*
X39331431Y-51601713D01*
X39326447Y-51671404D01*
X39284576Y-51727338D01*
X39219111Y-51751755D01*
X39163779Y-51739718D01*
X39162618Y-51742521D01*
X39155104Y-51739408D01*
X39084536Y-51720499D01*
X39084534Y-51720499D01*
X39011466Y-51720499D01*
X39003870Y-51720499D01*
X39003854Y-51720500D01*
X37410677Y-51720500D01*
X37410661Y-51720499D01*
X37403065Y-51720499D01*
X37329997Y-51720499D01*
X37329995Y-51720499D01*
X37321941Y-51721560D01*
X37321829Y-51720712D01*
X37304231Y-51723029D01*
X36945769Y-51723029D01*
X36928170Y-51720712D01*
X36928059Y-51721560D01*
X36920004Y-51720499D01*
X36920003Y-51720499D01*
X36846935Y-51720499D01*
X36839339Y-51720499D01*
X36839323Y-51720500D01*
X35803779Y-51720500D01*
X35736740Y-51700815D01*
X35716098Y-51684181D01*
X35229131Y-51197214D01*
X34709891Y-50677973D01*
X34709890Y-50677972D01*
X34646613Y-50641440D01*
X34646606Y-50641437D01*
X34576038Y-50622528D01*
X34576036Y-50622528D01*
X34502968Y-50622528D01*
X34495372Y-50622528D01*
X34495356Y-50622529D01*
X32451772Y-50622529D01*
X32384733Y-50602844D01*
X32358058Y-50579731D01*
X32337549Y-50556062D01*
X32228569Y-50486025D01*
X32228565Y-50486023D01*
X32228564Y-50486023D01*
X32104274Y-50449529D01*
X32104272Y-50449529D01*
X31974728Y-50449529D01*
X31974726Y-50449529D01*
X31899434Y-50471636D01*
X31829564Y-50471636D01*
X31770786Y-50433861D01*
X31741762Y-50370305D01*
X31740500Y-50352659D01*
X31740500Y-48068979D01*
X31760185Y-48001940D01*
X31812989Y-47956185D01*
X31829554Y-47950005D01*
X31952069Y-47914033D01*
X32061049Y-47843996D01*
X32145882Y-47746092D01*
X32199697Y-47628255D01*
X32218133Y-47500029D01*
X32199697Y-47371803D01*
X32145882Y-47253966D01*
X32061049Y-47156062D01*
X31952069Y-47086025D01*
X31952065Y-47086023D01*
X31952064Y-47086023D01*
X31827774Y-47049529D01*
X31827772Y-47049529D01*
X31698228Y-47049529D01*
X31698226Y-47049529D01*
X31573935Y-47086023D01*
X31573932Y-47086024D01*
X31573931Y-47086025D01*
X31522677Y-47118963D01*
X31464950Y-47156062D01*
X31380116Y-47253968D01*
X31378815Y-47255993D01*
X31376996Y-47257568D01*
X31374311Y-47260668D01*
X31373865Y-47260281D01*
X31326011Y-47301748D01*
X31256852Y-47311691D01*
X31193297Y-47282665D01*
X31155523Y-47223887D01*
X31150500Y-47188953D01*
X31150500Y-43031216D01*
X31170185Y-42964177D01*
X31222989Y-42918422D01*
X31292147Y-42908478D01*
X31355703Y-42937503D01*
X31389061Y-42983764D01*
X31421442Y-43061941D01*
X31421443Y-43061943D01*
X31493509Y-43169797D01*
X31493512Y-43169801D01*
X31585227Y-43261516D01*
X31585231Y-43261519D01*
X31693083Y-43333584D01*
X31693084Y-43333584D01*
X31693085Y-43333585D01*
X31693087Y-43333586D01*
X31786883Y-43372437D01*
X31812923Y-43383223D01*
X31812927Y-43383223D01*
X31812928Y-43383224D01*
X31940140Y-43408529D01*
X31940143Y-43408529D01*
X33085859Y-43408529D01*
X33171444Y-43391504D01*
X33213077Y-43383223D01*
X33332917Y-43333584D01*
X33440769Y-43261519D01*
X33532490Y-43169798D01*
X33604555Y-43061946D01*
X33654194Y-42942106D01*
X33675301Y-42835996D01*
X33679500Y-42814888D01*
X33679500Y-42685169D01*
X33654195Y-42557957D01*
X33654194Y-42557956D01*
X33654194Y-42557952D01*
X33640274Y-42524346D01*
X33604557Y-42438116D01*
X33604556Y-42438114D01*
X33532490Y-42330260D01*
X33532487Y-42330256D01*
X33440772Y-42238541D01*
X33440767Y-42238537D01*
X33425194Y-42228132D01*
X33380388Y-42174521D01*
X33371679Y-42105196D01*
X33401833Y-42042168D01*
X33425194Y-42021926D01*
X33426524Y-42021036D01*
X33440769Y-42011519D01*
X33532490Y-41919798D01*
X33604555Y-41811946D01*
X33654194Y-41692106D01*
X33679500Y-41564886D01*
X33679500Y-41500029D01*
X34857867Y-41500029D01*
X34876302Y-41628254D01*
X34930117Y-41746090D01*
X34930120Y-41746096D01*
X35005213Y-41832758D01*
X35034238Y-41896314D01*
X35035500Y-41913960D01*
X35035500Y-47215206D01*
X35024294Y-47266718D01*
X34976302Y-47371803D01*
X34957867Y-47500029D01*
X34976302Y-47628254D01*
X35024408Y-47733589D01*
X35030118Y-47746092D01*
X35114951Y-47843996D01*
X35223931Y-47914033D01*
X35346430Y-47950001D01*
X35348225Y-47950528D01*
X35348227Y-47950529D01*
X35348228Y-47950529D01*
X35477773Y-47950529D01*
X35477773Y-47950528D01*
X35602069Y-47914033D01*
X35711049Y-47843996D01*
X35795882Y-47746092D01*
X35849697Y-47628255D01*
X35868133Y-47500029D01*
X35849697Y-47371803D01*
X35795882Y-47253966D01*
X35711049Y-47156062D01*
X35711048Y-47156061D01*
X35647460Y-47115195D01*
X35601705Y-47062391D01*
X35590500Y-47010880D01*
X35590500Y-43631936D01*
X35610185Y-43564897D01*
X35662989Y-43519142D01*
X35732147Y-43509198D01*
X35795703Y-43538223D01*
X35827292Y-43580422D01*
X35880118Y-43696092D01*
X35964951Y-43793996D01*
X36073931Y-43864033D01*
X36198174Y-43900513D01*
X36198225Y-43900528D01*
X36198227Y-43900529D01*
X36198228Y-43900529D01*
X36327773Y-43900529D01*
X36327773Y-43900528D01*
X36452069Y-43864033D01*
X36561049Y-43793996D01*
X36604953Y-43743326D01*
X36663731Y-43705552D01*
X36698667Y-43700529D01*
X39027332Y-43700529D01*
X39094371Y-43720214D01*
X39121045Y-43743326D01*
X39164937Y-43793981D01*
X39273917Y-43864018D01*
X39398211Y-43900513D01*
X39398213Y-43900514D01*
X39398214Y-43900514D01*
X39527759Y-43900514D01*
X39527759Y-43900513D01*
X39652055Y-43864018D01*
X39761035Y-43793981D01*
X39845868Y-43696077D01*
X39899683Y-43578240D01*
X39918119Y-43450014D01*
X39899683Y-43321788D01*
X39845868Y-43203951D01*
X39761035Y-43106047D01*
X39652055Y-43036010D01*
X39652051Y-43036008D01*
X39652050Y-43036008D01*
X39527760Y-42999514D01*
X39527758Y-42999514D01*
X39398214Y-42999514D01*
X39398212Y-42999514D01*
X39273921Y-43036008D01*
X39273918Y-43036009D01*
X39273917Y-43036010D01*
X39233560Y-43061946D01*
X39164936Y-43106047D01*
X39121020Y-43156731D01*
X39062242Y-43194506D01*
X39027306Y-43199529D01*
X36698667Y-43199529D01*
X36631628Y-43179844D01*
X36604953Y-43156731D01*
X36561049Y-43106062D01*
X36561026Y-43106047D01*
X36452069Y-43036025D01*
X36452065Y-43036023D01*
X36452064Y-43036023D01*
X36327774Y-42999529D01*
X36327772Y-42999529D01*
X36198228Y-42999529D01*
X36198226Y-42999529D01*
X36073935Y-43036023D01*
X36073932Y-43036024D01*
X36073931Y-43036025D01*
X36033605Y-43061941D01*
X35964950Y-43106062D01*
X35880118Y-43203966D01*
X35880117Y-43203967D01*
X35827294Y-43319633D01*
X35781539Y-43372437D01*
X35714500Y-43392121D01*
X35647460Y-43372436D01*
X35601705Y-43319632D01*
X35590500Y-43268121D01*
X35590500Y-41913960D01*
X35610185Y-41846921D01*
X35620787Y-41832758D01*
X35695879Y-41746096D01*
X35695879Y-41746094D01*
X35695882Y-41746092D01*
X35749697Y-41628255D01*
X35768133Y-41500029D01*
X35749697Y-41371803D01*
X35695882Y-41253966D01*
X35611049Y-41156062D01*
X35502069Y-41086025D01*
X35502065Y-41086023D01*
X35502064Y-41086023D01*
X35377774Y-41049529D01*
X35377772Y-41049529D01*
X35248228Y-41049529D01*
X35248226Y-41049529D01*
X35123935Y-41086023D01*
X35123932Y-41086024D01*
X35123931Y-41086025D01*
X35101129Y-41100679D01*
X35014950Y-41156062D01*
X34930118Y-41253966D01*
X34930117Y-41253967D01*
X34876302Y-41371803D01*
X34857867Y-41500029D01*
X33679500Y-41500029D01*
X33679500Y-41435172D01*
X33679500Y-41435169D01*
X33654195Y-41307957D01*
X33654194Y-41307956D01*
X33654194Y-41307952D01*
X33640274Y-41274346D01*
X33604557Y-41188116D01*
X33604556Y-41188114D01*
X33604044Y-41187348D01*
X33532490Y-41080260D01*
X33532487Y-41080256D01*
X33483256Y-41031025D01*
X33449771Y-40969702D01*
X33454755Y-40900010D01*
X33496627Y-40844077D01*
X33502062Y-40840231D01*
X33504203Y-40838800D01*
X33609777Y-40733226D01*
X33692732Y-40609074D01*
X33737901Y-40500029D01*
X32637000Y-40500029D01*
X32599654Y-40489063D01*
X32656879Y-40465360D01*
X32728331Y-40393908D01*
X32767000Y-40300553D01*
X32767000Y-40199505D01*
X32728331Y-40106150D01*
X32656879Y-40034698D01*
X32573181Y-40000029D01*
X32763000Y-40000029D01*
X33737900Y-40000029D01*
X33692732Y-39890983D01*
X33609777Y-39766831D01*
X33504197Y-39661251D01*
X33380045Y-39578296D01*
X33242101Y-39521158D01*
X33242093Y-39521156D01*
X33095661Y-39492029D01*
X32763000Y-39492029D01*
X32763000Y-40000029D01*
X32573181Y-40000029D01*
X32563524Y-39996029D01*
X32462476Y-39996029D01*
X32369121Y-40034698D01*
X32297669Y-40106150D01*
X32272102Y-40167872D01*
X32263000Y-40126029D01*
X32263000Y-39492029D01*
X31930338Y-39492029D01*
X31783906Y-39521156D01*
X31783898Y-39521158D01*
X31645954Y-39578296D01*
X31521802Y-39661251D01*
X31416225Y-39766828D01*
X31416222Y-39766832D01*
X31377602Y-39824632D01*
X31323990Y-39869437D01*
X31254665Y-39878144D01*
X31191638Y-39847990D01*
X31154918Y-39788547D01*
X31150500Y-39755741D01*
X31150500Y-38274500D01*
X31170185Y-38207461D01*
X31222989Y-38161706D01*
X31274500Y-38150500D01*
X34029934Y-38150500D01*
X34029936Y-38150500D01*
X34085251Y-38127587D01*
X34127587Y-38085251D01*
X34150500Y-38029936D01*
X34150500Y-34970064D01*
X34127587Y-34914749D01*
X34127585Y-34914747D01*
X34127585Y-34914746D01*
X34085253Y-34872414D01*
X34085251Y-34872413D01*
X34029936Y-34849500D01*
X34029934Y-34849500D01*
X31274500Y-34849500D01*
X31207461Y-34829815D01*
X31161706Y-34777011D01*
X31150500Y-34725500D01*
X31150500Y-32500000D01*
X31994659Y-32500000D01*
X32013975Y-32696129D01*
X32071188Y-32884733D01*
X32164086Y-33058532D01*
X32164090Y-33058539D01*
X32289116Y-33210883D01*
X32441460Y-33335909D01*
X32441467Y-33335913D01*
X32615266Y-33428811D01*
X32615269Y-33428811D01*
X32615273Y-33428814D01*
X32803868Y-33486024D01*
X33000000Y-33505341D01*
X33196132Y-33486024D01*
X33384727Y-33428814D01*
X33437645Y-33400529D01*
X33471632Y-33382362D01*
X33558538Y-33335910D01*
X33710883Y-33210883D01*
X33835910Y-33058538D01*
X33928814Y-32884727D01*
X33986024Y-32696132D01*
X34005341Y-32500000D01*
X33986024Y-32303868D01*
X33928814Y-32115273D01*
X33928811Y-32115269D01*
X33928811Y-32115266D01*
X33835913Y-31941467D01*
X33835909Y-31941460D01*
X33710883Y-31789116D01*
X33558539Y-31664090D01*
X33558532Y-31664086D01*
X33384733Y-31571188D01*
X33384727Y-31571186D01*
X33196132Y-31513976D01*
X33196129Y-31513975D01*
X33000000Y-31494659D01*
X32803870Y-31513975D01*
X32615266Y-31571188D01*
X32441467Y-31664086D01*
X32441460Y-31664090D01*
X32289116Y-31789116D01*
X32164090Y-31941460D01*
X32164086Y-31941467D01*
X32071188Y-32115266D01*
X32013975Y-32303870D01*
X31994659Y-32500000D01*
X31150500Y-32500000D01*
X31150500Y-30824822D01*
X31999499Y-30824822D01*
X32008231Y-30868717D01*
X32008232Y-30868721D01*
X32008233Y-30868722D01*
X32041496Y-30918504D01*
X32091278Y-30951767D01*
X32091281Y-30951767D01*
X32091282Y-30951768D01*
X32135177Y-30960500D01*
X32135180Y-30960500D01*
X33864822Y-30960500D01*
X33908717Y-30951768D01*
X33908717Y-30951767D01*
X33908722Y-30951767D01*
X33958504Y-30918504D01*
X33991767Y-30868722D01*
X34000500Y-30824820D01*
X34000500Y-29095180D01*
X34000500Y-29095177D01*
X33991768Y-29051282D01*
X33991767Y-29051281D01*
X33991767Y-29051278D01*
X33958504Y-29001496D01*
X33958503Y-29001495D01*
X33908724Y-28968234D01*
X33908717Y-28968231D01*
X33864822Y-28959500D01*
X33864820Y-28959500D01*
X32135180Y-28959500D01*
X32135178Y-28959500D01*
X32091282Y-28968231D01*
X32091275Y-28968234D01*
X32041496Y-29001495D01*
X32041495Y-29001496D01*
X32008234Y-29051275D01*
X32008231Y-29051282D01*
X31999500Y-29095177D01*
X31999500Y-29095180D01*
X31999500Y-30824820D01*
X31999500Y-30824822D01*
X31999499Y-30824822D01*
X31150500Y-30824822D01*
X31150500Y-24004071D01*
X31150768Y-23995926D01*
X31151810Y-23980097D01*
X31156979Y-23901577D01*
X31762400Y-23901577D01*
X31762400Y-24098422D01*
X31793190Y-24292826D01*
X31854017Y-24480029D01*
X31938616Y-24646063D01*
X31943376Y-24655405D01*
X32059072Y-24814646D01*
X32198254Y-24953828D01*
X32357495Y-25069524D01*
X32410600Y-25096582D01*
X32532870Y-25158882D01*
X32532872Y-25158882D01*
X32532875Y-25158884D01*
X32599316Y-25180472D01*
X32720073Y-25219709D01*
X32914478Y-25250500D01*
X32914483Y-25250500D01*
X33111322Y-25250500D01*
X33305726Y-25219709D01*
X33492925Y-25158884D01*
X33668305Y-25069524D01*
X33827546Y-24953828D01*
X33966728Y-24814646D01*
X34082424Y-24655405D01*
X34171784Y-24480025D01*
X34232609Y-24292826D01*
X34240946Y-24240188D01*
X34263400Y-24098422D01*
X34263400Y-23901577D01*
X34232609Y-23707173D01*
X34171782Y-23519970D01*
X34106820Y-23392475D01*
X34082424Y-23344595D01*
X33966728Y-23185354D01*
X33827546Y-23046172D01*
X33668305Y-22930476D01*
X33663887Y-22928225D01*
X33492929Y-22841117D01*
X33305726Y-22780290D01*
X33111322Y-22749500D01*
X33111317Y-22749500D01*
X32914483Y-22749500D01*
X32914478Y-22749500D01*
X32720073Y-22780290D01*
X32532870Y-22841117D01*
X32357494Y-22930476D01*
X32309093Y-22965642D01*
X32198254Y-23046172D01*
X32198252Y-23046174D01*
X32198251Y-23046174D01*
X32059074Y-23185351D01*
X32059074Y-23185352D01*
X32059072Y-23185354D01*
X32038256Y-23214005D01*
X31943376Y-23344594D01*
X31854017Y-23519970D01*
X31793190Y-23707173D01*
X31762400Y-23901577D01*
X31156979Y-23901577D01*
X31165921Y-23765738D01*
X31168055Y-23749602D01*
X31212448Y-23527377D01*
X31216680Y-23511650D01*
X31289814Y-23297161D01*
X31296062Y-23282146D01*
X31396682Y-23079080D01*
X31404841Y-23065019D01*
X31531208Y-22876892D01*
X31541156Y-22864001D01*
X31542425Y-22862563D01*
X31691076Y-22694070D01*
X31702627Y-22682595D01*
X31720927Y-22666660D01*
X31873521Y-22533782D01*
X31886470Y-22523923D01*
X32075410Y-22398780D01*
X32089537Y-22390705D01*
X32293234Y-22291411D01*
X32308299Y-22285256D01*
X32523268Y-22213509D01*
X32539012Y-22209381D01*
X32761528Y-22166428D01*
X32777657Y-22164402D01*
X33008018Y-22150736D01*
X33016111Y-22150522D01*
X33046377Y-22150719D01*
X33046378Y-22150718D01*
X33058368Y-22150796D01*
X33060923Y-22150517D01*
X38352367Y-22152443D01*
G37*
%TD.AperFunction*%
%TA.AperFunction,Conductor*%
G36*
X37282703Y-28462622D02*
G01*
X37289166Y-28468640D01*
X38864546Y-30044019D01*
X40436603Y-31616076D01*
X40436613Y-31616087D01*
X40440943Y-31620417D01*
X40440944Y-31620418D01*
X40492611Y-31672085D01*
X40555889Y-31708618D01*
X40626466Y-31727529D01*
X40699534Y-31727529D01*
X44204804Y-31727529D01*
X44271843Y-31747214D01*
X44317598Y-31800018D01*
X44327542Y-31869176D01*
X44298518Y-31932731D01*
X44280118Y-31953966D01*
X44280117Y-31953967D01*
X44226302Y-32071803D01*
X44207867Y-32200029D01*
X44207867Y-32208897D01*
X44204693Y-32208897D01*
X44196946Y-32262608D01*
X44171856Y-32298727D01*
X43407374Y-33063210D01*
X43346051Y-33096695D01*
X43319693Y-33099529D01*
X41090305Y-33099529D01*
X41023266Y-33079844D01*
X41002624Y-33063210D01*
X37113819Y-29174405D01*
X37080334Y-29113082D01*
X37077500Y-29086724D01*
X37077500Y-28556335D01*
X37097185Y-28489296D01*
X37149989Y-28443541D01*
X37219147Y-28433597D01*
X37282703Y-28462622D01*
G37*
%TD.AperFunction*%
%TD*%
D23*
X54987000Y-22008000D02*
X33013000Y-22000000D01*
X31000000Y-38000000D02*
X31000000Y-59987029D01*
X33000000Y-62000029D02*
G75*
G02*
X31000013Y-59987029I0J2000029D01*
G01*
X31000000Y-24000000D02*
G75*
G02*
X33013000Y-22000002I2000070J-30D01*
G01*
X31000000Y-35000000D02*
X31000000Y-24000000D01*
X57013000Y-60000029D02*
G75*
G02*
X55000000Y-62000058I-2000100J29D01*
G01*
X56987000Y-24021000D02*
X57013000Y-60000029D01*
X54987000Y-22008000D02*
G75*
G02*
X56986958Y-24021000I-100J-2000100D01*
G01*
X34000000Y-38000000D02*
X31000000Y-38000000D01*
X34000000Y-35000000D02*
X34000000Y-38000000D01*
X55000000Y-62000029D02*
X33000000Y-62000029D01*
X31000000Y-35000000D02*
X34000000Y-35000000D01*
M02*
